G04 #@! TF.GenerationSoftware,KiCad,Pcbnew,(6.0.5)*
G04 #@! TF.CreationDate,2022-06-17T13:42:06-04:00*
G04 #@! TF.ProjectId,FP Interface Card,46502049-6e74-4657-9266-616365204361,rev?*
G04 #@! TF.SameCoordinates,Original*
G04 #@! TF.FileFunction,Soldermask,Bot*
G04 #@! TF.FilePolarity,Negative*
%FSLAX46Y46*%
G04 Gerber Fmt 4.6, Leading zero omitted, Abs format (unit mm)*
G04 Created by KiCad (PCBNEW (6.0.5)) date 2022-06-17 13:42:06*
%MOMM*%
%LPD*%
G01*
G04 APERTURE LIST*
G04 Aperture macros list*
%AMRoundRect*
0 Rectangle with rounded corners*
0 $1 Rounding radius*
0 $2 $3 $4 $5 $6 $7 $8 $9 X,Y pos of 4 corners*
0 Add a 4 corners polygon primitive as box body*
4,1,4,$2,$3,$4,$5,$6,$7,$8,$9,$2,$3,0*
0 Add four circle primitives for the rounded corners*
1,1,$1+$1,$2,$3*
1,1,$1+$1,$4,$5*
1,1,$1+$1,$6,$7*
1,1,$1+$1,$8,$9*
0 Add four rect primitives between the rounded corners*
20,1,$1+$1,$2,$3,$4,$5,0*
20,1,$1+$1,$4,$5,$6,$7,0*
20,1,$1+$1,$6,$7,$8,$9,0*
20,1,$1+$1,$8,$9,$2,$3,0*%
%AMFreePoly0*
4,1,12,0.105238,2.379067,0.194454,2.319454,0.254067,2.230238,0.275000,2.125000,0.275000,-1.400000,-0.275000,-1.400000,-0.275000,2.125000,-0.254067,2.230238,-0.194454,2.319454,-0.105238,2.379067,0.000000,2.400000,0.105238,2.379067,0.105238,2.379067,$1*%
G04 Aperture macros list end*
%ADD10C,0.100000*%
%ADD11R,0.400000X0.615800*%
%ADD12R,0.615800X0.400000*%
%ADD13C,0.500000*%
%ADD14R,3.350000X3.350000*%
%ADD15C,5.080000*%
%ADD16C,0.700000*%
%ADD17FreePoly0,0.000000*%
%ADD18C,4.000000*%
%ADD19C,6.000000*%
%ADD20R,0.370000X1.000000*%
%ADD21RoundRect,0.101500X0.101500X0.571500X-0.101500X0.571500X-0.101500X-0.571500X0.101500X-0.571500X0*%
%ADD22R,0.406000X1.346000*%
%ADD23R,2.108000X1.600000*%
%ADD24R,1.905000X1.905000*%
%ADD25R,1.500000X1.905000*%
%ADD26RoundRect,0.140000X-0.170000X0.140000X-0.170000X-0.140000X0.170000X-0.140000X0.170000X0.140000X0*%
%ADD27R,0.450000X0.400000*%
%ADD28R,0.450000X0.500000*%
%ADD29RoundRect,0.135000X-0.135000X-0.185000X0.135000X-0.185000X0.135000X0.185000X-0.135000X0.185000X0*%
%ADD30RoundRect,0.135000X-0.185000X0.135000X-0.185000X-0.135000X0.185000X-0.135000X0.185000X0.135000X0*%
%ADD31RoundRect,0.135000X0.185000X-0.135000X0.185000X0.135000X-0.185000X0.135000X-0.185000X-0.135000X0*%
%ADD32RoundRect,0.140000X-0.140000X-0.170000X0.140000X-0.170000X0.140000X0.170000X-0.140000X0.170000X0*%
%ADD33RoundRect,0.140000X0.140000X0.170000X-0.140000X0.170000X-0.140000X-0.170000X0.140000X-0.170000X0*%
%ADD34RoundRect,0.225000X-0.225000X-0.250000X0.225000X-0.250000X0.225000X0.250000X-0.225000X0.250000X0*%
%ADD35RoundRect,0.150000X0.825000X0.150000X-0.825000X0.150000X-0.825000X-0.150000X0.825000X-0.150000X0*%
%ADD36RoundRect,0.225000X0.225000X0.250000X-0.225000X0.250000X-0.225000X-0.250000X0.225000X-0.250000X0*%
%ADD37RoundRect,0.150000X-0.512500X-0.150000X0.512500X-0.150000X0.512500X0.150000X-0.512500X0.150000X0*%
%ADD38RoundRect,0.250000X0.262500X0.450000X-0.262500X0.450000X-0.262500X-0.450000X0.262500X-0.450000X0*%
%ADD39R,2.025000X0.600000*%
%ADD40R,2.275000X0.800000*%
%ADD41RoundRect,0.150000X-0.725000X-0.150000X0.725000X-0.150000X0.725000X0.150000X-0.725000X0.150000X0*%
%ADD42RoundRect,0.225000X0.250000X-0.225000X0.250000X0.225000X-0.250000X0.225000X-0.250000X-0.225000X0*%
%ADD43RoundRect,0.250000X0.475000X-0.250000X0.475000X0.250000X-0.475000X0.250000X-0.475000X-0.250000X0*%
%ADD44R,3.100000X3.000000*%
%ADD45RoundRect,0.100000X-0.100000X0.687500X-0.100000X-0.687500X0.100000X-0.687500X0.100000X0.687500X0*%
%ADD46RoundRect,0.200000X-0.275000X0.200000X-0.275000X-0.200000X0.275000X-0.200000X0.275000X0.200000X0*%
%ADD47RoundRect,0.200000X0.200000X0.275000X-0.200000X0.275000X-0.200000X-0.275000X0.200000X-0.275000X0*%
%ADD48R,1.100000X1.100000*%
%ADD49R,2.500000X1.800000*%
%ADD50R,0.500000X0.250000*%
%ADD51R,0.900000X1.600000*%
%ADD52RoundRect,0.062500X-0.062500X0.350000X-0.062500X-0.350000X0.062500X-0.350000X0.062500X0.350000X0*%
%ADD53RoundRect,0.062500X-0.350000X0.062500X-0.350000X-0.062500X0.350000X-0.062500X0.350000X0.062500X0*%
%ADD54R,2.500000X2.500000*%
%ADD55RoundRect,0.200000X-0.200000X-0.275000X0.200000X-0.275000X0.200000X0.275000X-0.200000X0.275000X0*%
%ADD56RoundRect,0.200000X0.275000X-0.200000X0.275000X0.200000X-0.275000X0.200000X-0.275000X-0.200000X0*%
%ADD57RoundRect,0.225000X-0.250000X0.225000X-0.250000X-0.225000X0.250000X-0.225000X0.250000X0.225000X0*%
%ADD58RoundRect,0.250000X0.250000X0.475000X-0.250000X0.475000X-0.250000X-0.475000X0.250000X-0.475000X0*%
%ADD59RoundRect,0.150000X-0.587500X-0.150000X0.587500X-0.150000X0.587500X0.150000X-0.587500X0.150000X0*%
%ADD60O,1.500000X1.500000*%
%ADD61O,1.800000X1.800000*%
%ADD62R,1.700000X3.500000*%
%ADD63R,3.500000X1.700000*%
%ADD64RoundRect,0.250000X-0.250000X-0.475000X0.250000X-0.475000X0.250000X0.475000X-0.250000X0.475000X0*%
%ADD65RoundRect,0.150000X0.725000X0.150000X-0.725000X0.150000X-0.725000X-0.150000X0.725000X-0.150000X0*%
%ADD66RoundRect,0.150000X0.587500X0.150000X-0.587500X0.150000X-0.587500X-0.150000X0.587500X-0.150000X0*%
%ADD67RoundRect,0.150000X-0.150000X0.587500X-0.150000X-0.587500X0.150000X-0.587500X0.150000X0.587500X0*%
G04 APERTURE END LIST*
G36*
X111633839Y-70387167D02*
G01*
X58833839Y-70387167D01*
X58833839Y-66187167D01*
X111633839Y-66187167D01*
X111633839Y-70387167D01*
G37*
D10*
X111633839Y-70387167D02*
X58833839Y-70387167D01*
X58833839Y-66187167D01*
X111633839Y-66187167D01*
X111633839Y-70387167D01*
D11*
X60000208Y-91022501D03*
X60650208Y-91022501D03*
X61300208Y-91022501D03*
X61950208Y-91022501D03*
X62600208Y-91022501D03*
D12*
X63583108Y-92005401D03*
X63583108Y-92655401D03*
X63583108Y-93305401D03*
X63583108Y-93955401D03*
X63583108Y-94605401D03*
D11*
X62600208Y-95588301D03*
X61950208Y-95588301D03*
X61300208Y-95588301D03*
X60650208Y-95588301D03*
X60000208Y-95588301D03*
D12*
X59017308Y-94605401D03*
X59017308Y-93955401D03*
X59017308Y-93305401D03*
X59017308Y-92655401D03*
X59017308Y-92005401D03*
D13*
X62300208Y-93305401D03*
D14*
X61300208Y-93305401D03*
D13*
X61300208Y-94305401D03*
X60300208Y-92305401D03*
X61300208Y-92305401D03*
X61300208Y-93305401D03*
X62300208Y-94305401D03*
X60300208Y-93305401D03*
X62300208Y-92305401D03*
X60300208Y-94305401D03*
D15*
X122690000Y-74540000D03*
X49030000Y-74540000D03*
D16*
X54003770Y-65424167D03*
X54003770Y-67224167D03*
D17*
X60033839Y-68787167D03*
X60833839Y-68787167D03*
X61633839Y-68787167D03*
X62433839Y-68787167D03*
X63233839Y-68787167D03*
X64033839Y-68787167D03*
X64833839Y-68787167D03*
X65633839Y-68787167D03*
X66433839Y-68787167D03*
X67233839Y-68787167D03*
X68033839Y-68787167D03*
X68833839Y-68787167D03*
X69633839Y-68787167D03*
X70433839Y-68787167D03*
X71233839Y-68787167D03*
X72033839Y-68787167D03*
X72833839Y-68787167D03*
X73633839Y-68787167D03*
X74433839Y-68787167D03*
X75233839Y-68787167D03*
X76033839Y-68787167D03*
X76833839Y-68787167D03*
X77633839Y-68787167D03*
X78433839Y-68787167D03*
X79233839Y-68787167D03*
X80033839Y-68787167D03*
X80833839Y-68787167D03*
X81633839Y-68787167D03*
X82433839Y-68787167D03*
X83233839Y-68787167D03*
X84033839Y-68787167D03*
X84833839Y-68787167D03*
X88833839Y-68787167D03*
X89633839Y-68787167D03*
X90433839Y-68787167D03*
X91233839Y-68787167D03*
X92033839Y-68787167D03*
X92833839Y-68787167D03*
X93633839Y-68787167D03*
X94433839Y-68787167D03*
X95233839Y-68787167D03*
X96033839Y-68787167D03*
X96833839Y-68787167D03*
X97633839Y-68787167D03*
X98433839Y-68787167D03*
X99233839Y-68787167D03*
X100033839Y-68787167D03*
X100833839Y-68787167D03*
X101633839Y-68787167D03*
X102433839Y-68787167D03*
X103233839Y-68787167D03*
X104033839Y-68787167D03*
X104833839Y-68787167D03*
X105633839Y-68787167D03*
X106433839Y-68787167D03*
X107233839Y-68787167D03*
X108033839Y-68787167D03*
X108833839Y-68787167D03*
X109633839Y-68787167D03*
X110433839Y-68787167D03*
D15*
X125230000Y-160270000D03*
X45230000Y-160270000D03*
D18*
X56026000Y-159260000D03*
D19*
X69126000Y-121160000D03*
D18*
X56026000Y-120560000D03*
D19*
X94126000Y-121160000D03*
D20*
X49233781Y-64974280D03*
X47373781Y-64974280D03*
X53033773Y-64974280D03*
X51173773Y-64974280D03*
X56833791Y-64974280D03*
X54973791Y-64974280D03*
D21*
X117058778Y-69691167D03*
D22*
X117708778Y-69691167D03*
X118358778Y-69691167D03*
X119008778Y-69691167D03*
X119658778Y-69691167D03*
D23*
X121507778Y-69524167D03*
X115259778Y-69524167D03*
D24*
X117183778Y-67024167D03*
D25*
X114557778Y-67024167D03*
D24*
X119583778Y-67024167D03*
D25*
X122209778Y-67024167D03*
D26*
X126878300Y-70636000D03*
X126878300Y-71596000D03*
X127868900Y-70636000D03*
X127868900Y-71596000D03*
D27*
X48084000Y-66969400D03*
X48084000Y-66169400D03*
D28*
X49234000Y-66569400D03*
D27*
X51868600Y-66969400D03*
X51868600Y-66169400D03*
D28*
X53018600Y-66569400D03*
D27*
X55577000Y-66969400D03*
X55577000Y-66169400D03*
D28*
X56727000Y-66569400D03*
D29*
X48072800Y-68118800D03*
X49092800Y-68118800D03*
D30*
X125887700Y-70631400D03*
X125887700Y-71651400D03*
D31*
X47109600Y-67181000D03*
X47109600Y-66161000D03*
D29*
X51882800Y-68118800D03*
X52902800Y-68118800D03*
D31*
X50945000Y-67181000D03*
X50945000Y-66161000D03*
D30*
X55775800Y-68108800D03*
X55775800Y-69128800D03*
D31*
X54526400Y-69136800D03*
X54526400Y-68116800D03*
D32*
X118689400Y-71497000D03*
X119649400Y-71497000D03*
D33*
X117668200Y-71497000D03*
X116708200Y-71497000D03*
D34*
X83566000Y-117983000D03*
X85116000Y-117983000D03*
D35*
X68515000Y-110740000D03*
X68515000Y-112010000D03*
X68515000Y-113280000D03*
X68515000Y-114550000D03*
X63565000Y-114550000D03*
X63565000Y-113280000D03*
X63565000Y-112010000D03*
X63565000Y-110740000D03*
D36*
X73945000Y-98802000D03*
X72395000Y-98802000D03*
D37*
X82814700Y-83079400D03*
X82814700Y-82129400D03*
X82814700Y-81179400D03*
X85089700Y-81179400D03*
X85089700Y-83079400D03*
D38*
X82213500Y-107057000D03*
X80388500Y-107057000D03*
D39*
X89197500Y-109557000D03*
X89197500Y-108557000D03*
X89197500Y-107557000D03*
X89197500Y-106557000D03*
X89197500Y-105557000D03*
X89197500Y-104557000D03*
D40*
X92247500Y-110857000D03*
X92247500Y-103257000D03*
D36*
X66706000Y-98821000D03*
X65156000Y-98821000D03*
D41*
X100810000Y-157154000D03*
X100810000Y-155884000D03*
X100810000Y-154614000D03*
X100810000Y-153344000D03*
X105960000Y-153344000D03*
X105960000Y-154614000D03*
X105960000Y-155884000D03*
X105960000Y-157154000D03*
D42*
X70190200Y-82904400D03*
X70190200Y-81354400D03*
D43*
X50632200Y-105939400D03*
X50632200Y-104039400D03*
D44*
X81906200Y-90003400D03*
D45*
X79956200Y-87140900D03*
X80606200Y-87140900D03*
X81256200Y-87140900D03*
X81906200Y-87140900D03*
X82556200Y-87140900D03*
X83206200Y-87140900D03*
X83856200Y-87140900D03*
X83856200Y-92865900D03*
X83206200Y-92865900D03*
X82556200Y-92865900D03*
X81906200Y-92865900D03*
X81256200Y-92865900D03*
X80606200Y-92865900D03*
X79956200Y-92865900D03*
D42*
X80650200Y-82924400D03*
X80650200Y-81374400D03*
D34*
X83566000Y-116459000D03*
X85116000Y-116459000D03*
D46*
X80814000Y-156895000D03*
X80814000Y-158545000D03*
D36*
X79279000Y-98727000D03*
X77729000Y-98727000D03*
D47*
X51457200Y-115911400D03*
X49807200Y-115911400D03*
D48*
X74567000Y-104517000D03*
X77367000Y-104517000D03*
D46*
X103599000Y-145925000D03*
X103599000Y-147575000D03*
D42*
X56669800Y-115275600D03*
X56669800Y-113725600D03*
D34*
X75552000Y-116459000D03*
X77102000Y-116459000D03*
D46*
X90444000Y-157545000D03*
X90444000Y-159195000D03*
D49*
X64898000Y-156326000D03*
X68898000Y-156326000D03*
D50*
X66881000Y-100973000D03*
X66881000Y-101473000D03*
X66881000Y-101973000D03*
X66881000Y-102473000D03*
X64981000Y-102473000D03*
X64981000Y-101973000D03*
X64981000Y-101473000D03*
X64981000Y-100973000D03*
D51*
X65931000Y-101723000D03*
D37*
X58763100Y-115220200D03*
X58763100Y-114270200D03*
X58763100Y-113320200D03*
X61038100Y-113320200D03*
X61038100Y-115220200D03*
D52*
X49378200Y-108385900D03*
X49878200Y-108385900D03*
X50378200Y-108385900D03*
X50878200Y-108385900D03*
X51378200Y-108385900D03*
D53*
X52315700Y-109323400D03*
X52315700Y-109823400D03*
X52315700Y-110323400D03*
X52315700Y-110823400D03*
X52315700Y-111323400D03*
D52*
X51378200Y-112260900D03*
X50878200Y-112260900D03*
X50378200Y-112260900D03*
X49878200Y-112260900D03*
X49378200Y-112260900D03*
D53*
X48440700Y-111323400D03*
X48440700Y-110823400D03*
X48440700Y-110323400D03*
X48440700Y-109823400D03*
X48440700Y-109323400D03*
D54*
X50378200Y-110323400D03*
D55*
X54633200Y-95591400D03*
X56283200Y-95591400D03*
D38*
X67608500Y-107057000D03*
X65783500Y-107057000D03*
D42*
X68666200Y-82904400D03*
X68666200Y-81354400D03*
D56*
X55966200Y-107846400D03*
X55966200Y-106196400D03*
D46*
X58750000Y-109825000D03*
X58750000Y-111475000D03*
D42*
X62570200Y-79348400D03*
X62570200Y-77798400D03*
X54442200Y-111352400D03*
X54442200Y-109802400D03*
D57*
X81144200Y-95832400D03*
X81144200Y-97382400D03*
D58*
X79200000Y-96695000D03*
X77300000Y-96695000D03*
D36*
X60925600Y-116810200D03*
X59375600Y-116810200D03*
D58*
X48788200Y-103973400D03*
X46888200Y-103973400D03*
D59*
X83014700Y-79543400D03*
X83014700Y-77643400D03*
X84889700Y-78593400D03*
D48*
X80409000Y-104517000D03*
X83209000Y-104517000D03*
D42*
X62570200Y-82904400D03*
X62570200Y-81354400D03*
D60*
X46104000Y-143645000D03*
X46104000Y-138795000D03*
D61*
X43074000Y-143945000D03*
X43074000Y-138495000D03*
D62*
X42944000Y-131430000D03*
X45484000Y-131430000D03*
X48024000Y-131430000D03*
X50564000Y-131430000D03*
X53104000Y-131430000D03*
X55644000Y-131430000D03*
X58184000Y-131430000D03*
X60724000Y-131430000D03*
X63264000Y-131430000D03*
X65804000Y-131430000D03*
X68344000Y-131430000D03*
X70884000Y-131430000D03*
X73424000Y-131430000D03*
X75964000Y-131430000D03*
X78504000Y-131430000D03*
X81044000Y-131430000D03*
X83584000Y-131430000D03*
X86124000Y-131430000D03*
X88664000Y-131430000D03*
X91204000Y-131430000D03*
X91204000Y-151010000D03*
X88664000Y-151010000D03*
X86124000Y-151010000D03*
X83584000Y-151010000D03*
X81044000Y-151010000D03*
X78504000Y-151010000D03*
X75964000Y-151010000D03*
X73424000Y-151010000D03*
X70884000Y-151010000D03*
X68344000Y-151010000D03*
X65804000Y-151010000D03*
X63264000Y-151010000D03*
X60724000Y-151010000D03*
X58184000Y-151010000D03*
X55644000Y-151010000D03*
X53104000Y-151010000D03*
X50564000Y-151010000D03*
X48024000Y-151010000D03*
X45484000Y-151010000D03*
X42944000Y-151010000D03*
D63*
X91874000Y-138680000D03*
X91874000Y-141220000D03*
X91874000Y-143760000D03*
D34*
X49857200Y-114387400D03*
X51407200Y-114387400D03*
D42*
X87000200Y-82924400D03*
X87000200Y-81374400D03*
D55*
X54633200Y-94067400D03*
X56283200Y-94067400D03*
X54633200Y-92543400D03*
X56283200Y-92543400D03*
D38*
X76371500Y-107057000D03*
X74546500Y-107057000D03*
D48*
X67582000Y-104517000D03*
X70382000Y-104517000D03*
D58*
X66627000Y-97043000D03*
X64727000Y-97043000D03*
D47*
X101649000Y-145950000D03*
X99999000Y-145950000D03*
D36*
X48867200Y-106005400D03*
X47317200Y-106005400D03*
D42*
X70190200Y-79348400D03*
X70190200Y-77798400D03*
D57*
X54442200Y-106246400D03*
X54442200Y-107796400D03*
D55*
X54633200Y-91019400D03*
X56283200Y-91019400D03*
D35*
X77024000Y-110740000D03*
X77024000Y-112010000D03*
X77024000Y-113280000D03*
X77024000Y-114550000D03*
X72074000Y-114550000D03*
X72074000Y-113280000D03*
X72074000Y-112010000D03*
X72074000Y-110740000D03*
D59*
X72300700Y-79523400D03*
X72300700Y-77623400D03*
X74175700Y-78573400D03*
D42*
X80650200Y-79368400D03*
X80650200Y-77818400D03*
D47*
X105410000Y-150301000D03*
X103760000Y-150301000D03*
D64*
X58572200Y-86955400D03*
X60472200Y-86955400D03*
D46*
X88158000Y-157545000D03*
X88158000Y-159195000D03*
D34*
X63614000Y-117856000D03*
X65164000Y-117856000D03*
X63614000Y-116332000D03*
X65164000Y-116332000D03*
D42*
X76286200Y-82904400D03*
X76286200Y-81354400D03*
D65*
X77855000Y-155945000D03*
X77855000Y-157215000D03*
X77855000Y-158485000D03*
X77855000Y-159755000D03*
X72705000Y-159755000D03*
X72705000Y-158485000D03*
X72705000Y-157215000D03*
X72705000Y-155945000D03*
D37*
X72100700Y-83079400D03*
X72100700Y-82129400D03*
X72100700Y-81179400D03*
X74375700Y-81179400D03*
X74375700Y-83079400D03*
D66*
X85307500Y-157586000D03*
X85307500Y-159486000D03*
X83432500Y-158536000D03*
D42*
X46314200Y-110082400D03*
X46314200Y-108532400D03*
D59*
X64680700Y-79523400D03*
X64680700Y-77623400D03*
X66555700Y-78573400D03*
D67*
X99874000Y-148512500D03*
X101774000Y-148512500D03*
X100824000Y-150387500D03*
D50*
X74120000Y-101100000D03*
X74120000Y-101600000D03*
X74120000Y-102100000D03*
X74120000Y-102600000D03*
X72220000Y-102600000D03*
X72220000Y-102100000D03*
X72220000Y-101600000D03*
X72220000Y-101100000D03*
D51*
X73170000Y-101850000D03*
D57*
X82668200Y-95832400D03*
X82668200Y-97382400D03*
D44*
X69174200Y-90003400D03*
D45*
X67224200Y-87140900D03*
X67874200Y-87140900D03*
X68524200Y-87140900D03*
X69174200Y-87140900D03*
X69824200Y-87140900D03*
X70474200Y-87140900D03*
X71124200Y-87140900D03*
X71124200Y-92865900D03*
X70474200Y-92865900D03*
X69824200Y-92865900D03*
X69174200Y-92865900D03*
X68524200Y-92865900D03*
X67874200Y-92865900D03*
X67224200Y-92865900D03*
D43*
X52664200Y-105939400D03*
X52664200Y-104039400D03*
D58*
X73866000Y-97024000D03*
X71966000Y-97024000D03*
D57*
X68412200Y-95832400D03*
X68412200Y-97382400D03*
D35*
X85152000Y-110740000D03*
X85152000Y-112010000D03*
X85152000Y-113280000D03*
X85152000Y-114550000D03*
X80202000Y-114550000D03*
X80202000Y-113280000D03*
X80202000Y-112010000D03*
X80202000Y-110740000D03*
D57*
X69936200Y-95832400D03*
X69936200Y-97382400D03*
D36*
X68943000Y-159628000D03*
X67393000Y-159628000D03*
D50*
X79454000Y-101025000D03*
X79454000Y-101525000D03*
X79454000Y-102025000D03*
X79454000Y-102525000D03*
X77554000Y-102525000D03*
X77554000Y-102025000D03*
X77554000Y-101525000D03*
X77554000Y-101025000D03*
D51*
X78504000Y-101775000D03*
D34*
X58493200Y-88987400D03*
X60043200Y-88987400D03*
D37*
X64480700Y-83079400D03*
X64480700Y-82129400D03*
X64480700Y-81179400D03*
X66755700Y-81179400D03*
X66755700Y-83079400D03*
D46*
X55966200Y-109752400D03*
X55966200Y-111402400D03*
D34*
X75552000Y-118110000D03*
X77102000Y-118110000D03*
D43*
X44282200Y-110003400D03*
X44282200Y-108103400D03*
M02*
