G04 #@! TF.GenerationSoftware,KiCad,Pcbnew,(6.0.5)*
G04 #@! TF.CreationDate,2022-06-17T13:42:06-04:00*
G04 #@! TF.ProjectId,FP Interface Card,46502049-6e74-4657-9266-616365204361,rev?*
G04 #@! TF.SameCoordinates,Original*
G04 #@! TF.FileFunction,Legend,Top*
G04 #@! TF.FilePolarity,Positive*
%FSLAX46Y46*%
G04 Gerber Fmt 4.6, Leading zero omitted, Abs format (unit mm)*
G04 Created by KiCad (PCBNEW (6.0.5)) date 2022-06-17 13:42:06*
%MOMM*%
%LPD*%
G01*
G04 APERTURE LIST*
%ADD10C,0.127000*%
%ADD11C,0.120000*%
%ADD12C,0.060000*%
%ADD13C,0.100000*%
%ADD14C,0.203200*%
%ADD15C,0.150000*%
%ADD16C,0.200000*%
%ADD17C,0.750000*%
G04 APERTURE END LIST*
D10*
X116853357Y-126741688D02*
X116853357Y-126257879D01*
X117095261Y-126530021D02*
X116611452Y-126469545D01*
X116671928Y-125993295D02*
X117095261Y-125895021D01*
X116671928Y-125690914D02*
X117095261Y-125895021D01*
X117246452Y-125974396D01*
X117276690Y-126008414D01*
X117306928Y-126072670D01*
X117053357Y-128956807D02*
X117053357Y-128472998D01*
X116871928Y-128208414D02*
X116871928Y-127875795D01*
X117295261Y-128261331D01*
X117295261Y-127928712D01*
X117779192Y-127773357D02*
X118263001Y-127773357D01*
X117990859Y-128015261D02*
X118051335Y-127531452D01*
X118474668Y-128015261D02*
X118860204Y-127591928D01*
X118527585Y-127591928D02*
X118807287Y-128015261D01*
X124813192Y-113557357D02*
X125297001Y-113557357D01*
X125024859Y-113799261D02*
X125085335Y-113315452D01*
X125508668Y-113799261D02*
X125894204Y-113375928D01*
X125561585Y-113375928D02*
X125841287Y-113799261D01*
X126387357Y-115125688D02*
X126387357Y-114641879D01*
X126629261Y-114914021D02*
X126145452Y-114853545D01*
X126205928Y-114377295D02*
X126629261Y-114279021D01*
X126205928Y-114074914D02*
X126629261Y-114279021D01*
X126780452Y-114358396D01*
X126810690Y-114392414D01*
X126840928Y-114456670D01*
X126487357Y-113240807D02*
X126487357Y-112756998D01*
X126729261Y-113029140D02*
X126245452Y-112968664D01*
X126305928Y-112492414D02*
X126305928Y-112159795D01*
X126729261Y-112545331D01*
X126729261Y-112212712D01*
X124813192Y-123463357D02*
X125297001Y-123463357D01*
X125024859Y-123705261D02*
X125085335Y-123221452D01*
X125508668Y-123705261D02*
X125894204Y-123281928D01*
X125561585Y-123281928D02*
X125841287Y-123705261D01*
X126487357Y-123146807D02*
X126487357Y-122662998D01*
X126729261Y-122935140D02*
X126245452Y-122874664D01*
X126305928Y-122398414D02*
X126305928Y-122065795D01*
X126729261Y-122451331D01*
X126729261Y-122118712D01*
X126387357Y-125031688D02*
X126387357Y-124547879D01*
X126629261Y-124820021D02*
X126145452Y-124759545D01*
X126205928Y-124283295D02*
X126629261Y-124185021D01*
X126205928Y-123980914D02*
X126629261Y-124185021D01*
X126780452Y-124264396D01*
X126810690Y-124298414D01*
X126840928Y-124362670D01*
X111937192Y-122863357D02*
X112421001Y-122863357D01*
X112148859Y-123105261D02*
X112209335Y-122621452D01*
X112632668Y-123105261D02*
X113018204Y-122681928D01*
X112685585Y-122681928D02*
X112965287Y-123105261D01*
X116337192Y-122963357D02*
X116821001Y-122963357D01*
X116548859Y-123205261D02*
X116609335Y-122721452D01*
X117085585Y-122781928D02*
X117418204Y-122781928D01*
X117032668Y-123205261D01*
X117365287Y-123205261D01*
X116020642Y-125504311D02*
X116020642Y-125988120D01*
X115778738Y-125715978D02*
X116262547Y-125776454D01*
X116202071Y-126252704D02*
X115778738Y-126350978D01*
X116202071Y-126555085D02*
X115778738Y-126350978D01*
X115627547Y-126271603D01*
X115597309Y-126237585D01*
X115567071Y-126173329D01*
X117053357Y-119040807D02*
X117053357Y-118556998D01*
X116871928Y-118292414D02*
X116871928Y-117959795D01*
X117295261Y-118345331D01*
X117295261Y-118012712D01*
X117779192Y-117857357D02*
X118263001Y-117857357D01*
X117990859Y-118099261D02*
X118051335Y-117615452D01*
X118474668Y-118099261D02*
X118860204Y-117675928D01*
X118527585Y-117675928D02*
X118807287Y-118099261D01*
X116853357Y-116825688D02*
X116853357Y-116341879D01*
X117095261Y-116614021D02*
X116611452Y-116553545D01*
X116671928Y-116077295D02*
X117095261Y-115979021D01*
X116671928Y-115774914D02*
X117095261Y-115979021D01*
X117246452Y-116058396D01*
X117276690Y-116092414D01*
X117306928Y-116156670D01*
X116020642Y-115598311D02*
X116020642Y-116082120D01*
X115778738Y-115809978D02*
X116262547Y-115870454D01*
X116202071Y-116346704D02*
X115778738Y-116444978D01*
X116202071Y-116649085D02*
X115778738Y-116444978D01*
X115627547Y-116365603D01*
X115597309Y-116331585D01*
X115567071Y-116267329D01*
X116337192Y-113057357D02*
X116821001Y-113057357D01*
X116548859Y-113299261D02*
X116609335Y-112815452D01*
X117085585Y-112875928D02*
X117418204Y-112875928D01*
X117032668Y-113299261D01*
X117365287Y-113299261D01*
X111937192Y-112957357D02*
X112421001Y-112957357D01*
X112148859Y-113199261D02*
X112209335Y-112715452D01*
X112632668Y-113199261D02*
X113018204Y-112775928D01*
X112685585Y-112775928D02*
X112965287Y-113199261D01*
D11*
X49503778Y-64974280D02*
X49303778Y-64974280D01*
X49903778Y-65374280D02*
X49503778Y-64974280D01*
D12*
X49303778Y-64474280D02*
X49303778Y-64274280D01*
X50103778Y-64474280D02*
X50103778Y-64274280D01*
D11*
X49503778Y-64974280D02*
X49903778Y-64574280D01*
X49903778Y-64974280D02*
X50103778Y-64974280D01*
D12*
X49403778Y-64374280D02*
X49303778Y-64274280D01*
D11*
X49503778Y-64574280D02*
X49503778Y-65374280D01*
D12*
X50203778Y-64374280D02*
X50103778Y-64274280D01*
X50103778Y-64274280D02*
X50003778Y-64374280D01*
X49303778Y-64274280D02*
X49203778Y-64374280D01*
D11*
X49903778Y-64574280D02*
X49903778Y-65374280D01*
X43280664Y-74778000D02*
X43496336Y-74778000D01*
X43280664Y-74058000D02*
X43496336Y-74058000D01*
X128078336Y-74185000D02*
X127862664Y-74185000D01*
X128078336Y-74905000D02*
X127862664Y-74905000D01*
X128690000Y-159654164D02*
X128690000Y-159869836D01*
X129410000Y-159654164D02*
X129410000Y-159869836D01*
X41653000Y-159717664D02*
X41653000Y-159933336D01*
X40933000Y-159717664D02*
X40933000Y-159933336D01*
X123362400Y-67444820D02*
X123362400Y-67725980D01*
X122342400Y-67444820D02*
X122342400Y-67725980D01*
X121197000Y-67198164D02*
X121197000Y-67413836D01*
X121917000Y-67198164D02*
X121917000Y-67413836D01*
X116938600Y-67198164D02*
X116938600Y-67413836D01*
X116218600Y-67198164D02*
X116218600Y-67413836D01*
X115863000Y-67610748D02*
X115863000Y-69033252D01*
X114043000Y-67610748D02*
X114043000Y-69033252D01*
X46790600Y-65053400D02*
X46790600Y-66253400D01*
X46790600Y-66253400D02*
X46790600Y-66253400D01*
X48190600Y-65253400D02*
X48190600Y-65853400D01*
X51325000Y-68539141D02*
X51325000Y-68231859D01*
X50565000Y-68539141D02*
X50565000Y-68231859D01*
X47438559Y-66697400D02*
X47745841Y-66697400D01*
X47438559Y-67457400D02*
X47745841Y-67457400D01*
X49953400Y-67002441D02*
X49953400Y-66695159D01*
X49193400Y-67002441D02*
X49193400Y-66695159D01*
X117999759Y-70101000D02*
X118307041Y-70101000D01*
X117999759Y-70861000D02*
X118307041Y-70861000D01*
X119067800Y-69348600D02*
X118267800Y-69348600D01*
X119067800Y-69348600D02*
X119867800Y-69348600D01*
X119067800Y-66228600D02*
X119867800Y-66228600D01*
X119067800Y-66228600D02*
X117267800Y-66228600D01*
X120514359Y-70480000D02*
X120821641Y-70480000D01*
X120514359Y-69720000D02*
X120821641Y-69720000D01*
X91159500Y-88516258D02*
X91159500Y-88041742D01*
X92204500Y-88516258D02*
X92204500Y-88041742D01*
X98679000Y-77384000D02*
X100179000Y-77384000D01*
X98679000Y-77384000D02*
X95754000Y-77384000D01*
X98679000Y-80604000D02*
X97179000Y-80604000D01*
X98679000Y-80604000D02*
X100179000Y-80604000D01*
X118761500Y-90657258D02*
X118761500Y-90182742D01*
X119806500Y-90657258D02*
X119806500Y-90182742D01*
X61192142Y-100998300D02*
X61666658Y-100998300D01*
X61192142Y-99953300D02*
X61666658Y-99953300D01*
X120908000Y-127528000D02*
X120608000Y-127328000D01*
D13*
X117708000Y-126828000D02*
X118208000Y-126828000D01*
X120908000Y-126828000D02*
X120408000Y-126828000D01*
X117708000Y-123628000D02*
X118208000Y-123628000D01*
D11*
X117108000Y-123628000D02*
X117308000Y-123928000D01*
X119108000Y-127528000D02*
X120908000Y-127528000D01*
D13*
X117708000Y-124128000D02*
X117708000Y-123628000D01*
X120408000Y-123628000D02*
X120908000Y-123628000D01*
D11*
X117108000Y-125428000D02*
X117108000Y-123628000D01*
D13*
X120908000Y-123628000D02*
X120408000Y-123628000D01*
D11*
X120908000Y-127528000D02*
X120608000Y-127728000D01*
X117108000Y-123628000D02*
X116908000Y-123928000D01*
D13*
X120908000Y-126828000D02*
X120908000Y-126328000D01*
X120908000Y-123628000D02*
X120908000Y-124128000D01*
D14*
X117184200Y-127428000D02*
G75*
G03*
X117184200Y-127428000I-76200J0D01*
G01*
D11*
X42888180Y-86778200D02*
X42607020Y-86778200D01*
X42888180Y-85758200D02*
X42607020Y-85758200D01*
X114595420Y-111500000D02*
X114876580Y-111500000D01*
X114595420Y-112520000D02*
X114876580Y-112520000D01*
X125742000Y-114712000D02*
X125742000Y-114712000D01*
X123642000Y-113612000D02*
X123842000Y-113512000D01*
X126342000Y-116312000D02*
X126242000Y-116112000D01*
X123542000Y-114712000D02*
X123542000Y-114212000D01*
X125242000Y-116412000D02*
X125242000Y-116412000D01*
X123542000Y-116412000D02*
X123542000Y-116412000D01*
X126342000Y-116312000D02*
X126442000Y-116112000D01*
X125242000Y-114212000D02*
X125742000Y-114212000D01*
X123642000Y-113612000D02*
X123842000Y-113712000D01*
X124642000Y-113612000D02*
X123642000Y-113612000D01*
X124042000Y-114212000D02*
X124042000Y-114212000D01*
X123542000Y-115912000D02*
X123542000Y-116412000D01*
X125742000Y-115912000D02*
X125742000Y-116412000D01*
X126342000Y-115312000D02*
X126342000Y-116312000D01*
X123542000Y-114212000D02*
X124042000Y-114212000D01*
X125742000Y-114212000D02*
X125742000Y-114712000D01*
X125742000Y-116412000D02*
X125242000Y-116412000D01*
D14*
X126418200Y-113612000D02*
G75*
G03*
X126418200Y-113612000I-76200J0D01*
G01*
D11*
X118761500Y-86085258D02*
X118761500Y-85610742D01*
X119806500Y-86085258D02*
X119806500Y-85610742D01*
X111441252Y-110713000D02*
X110918748Y-110713000D01*
X111441252Y-109243000D02*
X110918748Y-109243000D01*
X120316748Y-111021000D02*
X120839252Y-111021000D01*
X120316748Y-112491000D02*
X120839252Y-112491000D01*
X105414742Y-91595500D02*
X105889258Y-91595500D01*
X105414742Y-90550500D02*
X105889258Y-90550500D01*
X118322869Y-142809902D02*
X117848353Y-142809902D01*
X118322869Y-143854902D02*
X117848353Y-143854902D01*
X117606353Y-146043902D02*
X118080869Y-146043902D01*
X117606353Y-147088902D02*
X118080869Y-147088902D01*
X112564869Y-152676902D02*
X112090353Y-152676902D01*
X112564869Y-151631902D02*
X112090353Y-151631902D01*
X77510000Y-102159420D02*
X77510000Y-102440580D01*
X76490000Y-102159420D02*
X76490000Y-102440580D01*
X118322869Y-142076902D02*
X117848353Y-142076902D01*
X118322869Y-141031902D02*
X117848353Y-141031902D01*
X46689700Y-82926142D02*
X46689700Y-83400658D01*
X47734700Y-82926142D02*
X47734700Y-83400658D01*
X110125500Y-85610742D02*
X110125500Y-86085258D01*
X111170500Y-85610742D02*
X111170500Y-86085258D01*
X48616700Y-106298142D02*
X48616700Y-106772658D01*
X47571700Y-106298142D02*
X47571700Y-106772658D01*
X112694500Y-81038742D02*
X112694500Y-81513258D01*
X111649500Y-81038742D02*
X111649500Y-81513258D01*
X52947300Y-108756342D02*
X52947300Y-109230858D01*
X53992300Y-108756342D02*
X53992300Y-109230858D01*
X66689500Y-97519258D02*
X66689500Y-97044742D01*
X65644500Y-97519258D02*
X65644500Y-97044742D01*
X114218500Y-81513258D02*
X114218500Y-81038742D01*
X113173500Y-81513258D02*
X113173500Y-81038742D01*
X86598300Y-86964858D02*
X86598300Y-86490342D01*
X87643300Y-86964858D02*
X87643300Y-86490342D01*
X121330500Y-90657258D02*
X121330500Y-90182742D01*
X120285500Y-90657258D02*
X120285500Y-90182742D01*
X101116000Y-85231000D02*
X101116000Y-85881000D01*
X97996000Y-85231000D02*
X97996000Y-85881000D01*
X97996000Y-85231000D02*
X97996000Y-84581000D01*
X101116000Y-85231000D02*
X101116000Y-83556000D01*
X85801700Y-86487142D02*
X85801700Y-86961658D01*
X84756700Y-86487142D02*
X84756700Y-86961658D01*
X112694500Y-90182742D02*
X112694500Y-90657258D01*
X111649500Y-90182742D02*
X111649500Y-90657258D01*
X112694500Y-94373742D02*
X112694500Y-94848258D01*
X111649500Y-94373742D02*
X111649500Y-94848258D01*
X123542000Y-126318000D02*
X123542000Y-126318000D01*
X123542000Y-124118000D02*
X124042000Y-124118000D01*
X126342000Y-126218000D02*
X126442000Y-126018000D01*
X126342000Y-126218000D02*
X126242000Y-126018000D01*
X125742000Y-124618000D02*
X125742000Y-124618000D01*
X124042000Y-124118000D02*
X124042000Y-124118000D01*
X123542000Y-124618000D02*
X123542000Y-124118000D01*
X125242000Y-124118000D02*
X125742000Y-124118000D01*
X123642000Y-123518000D02*
X123842000Y-123418000D01*
X123542000Y-125818000D02*
X123542000Y-126318000D01*
X125242000Y-126318000D02*
X125242000Y-126318000D01*
X124642000Y-123518000D02*
X123642000Y-123518000D01*
X125742000Y-125818000D02*
X125742000Y-126318000D01*
X123642000Y-123518000D02*
X123842000Y-123618000D01*
X125742000Y-126318000D02*
X125242000Y-126318000D01*
X126342000Y-125218000D02*
X126342000Y-126218000D01*
X125742000Y-124118000D02*
X125742000Y-124618000D01*
D14*
X126418200Y-123518000D02*
G75*
G03*
X126418200Y-123518000I-76200J0D01*
G01*
D11*
X101573500Y-84993742D02*
X101573500Y-85468258D01*
X102618500Y-84993742D02*
X102618500Y-85468258D01*
X42434742Y-83932500D02*
X42909258Y-83932500D01*
X42434742Y-84977500D02*
X42909258Y-84977500D01*
X111170500Y-94373742D02*
X111170500Y-94848258D01*
X110125500Y-94373742D02*
X110125500Y-94848258D01*
X118761500Y-94848258D02*
X118761500Y-94373742D01*
X119806500Y-94848258D02*
X119806500Y-94373742D01*
X121680000Y-80576000D02*
X121680000Y-81976000D01*
X124000000Y-81976000D02*
X124000000Y-80076000D01*
X121680000Y-85148000D02*
X121680000Y-86548000D01*
X124000000Y-86548000D02*
X124000000Y-84648000D01*
D15*
X42751200Y-95358400D02*
X42751200Y-89608400D01*
X42976200Y-95358400D02*
X42976200Y-96958400D01*
X42751200Y-95358400D02*
X42976200Y-95358400D01*
X51401200Y-95358400D02*
X51101200Y-95358400D01*
X42751200Y-89608400D02*
X43051200Y-89608400D01*
X51401200Y-95358400D02*
X51401200Y-89608400D01*
X51401200Y-89608400D02*
X51101200Y-89608400D01*
D11*
X119806500Y-81513258D02*
X119806500Y-81038742D01*
X118761500Y-81513258D02*
X118761500Y-81038742D01*
X112564869Y-154454902D02*
X112090353Y-154454902D01*
X112564869Y-153409902D02*
X112090353Y-153409902D01*
X117274000Y-111388580D02*
X117274000Y-111107420D01*
X118294000Y-111388580D02*
X118294000Y-111107420D01*
X45913342Y-111886700D02*
X46387858Y-111886700D01*
X45913342Y-110841700D02*
X46387858Y-110841700D01*
X113173500Y-90657258D02*
X113173500Y-90182742D01*
X114218500Y-90657258D02*
X114218500Y-90182742D01*
X95426500Y-99669258D02*
X95426500Y-99194742D01*
X96471500Y-99669258D02*
X96471500Y-99194742D01*
X97141420Y-75817000D02*
X97422580Y-75817000D01*
X97141420Y-76837000D02*
X97422580Y-76837000D01*
X118085611Y-137200402D02*
X118735611Y-137200402D01*
X118085611Y-140320402D02*
X117435611Y-140320402D01*
X118085611Y-140320402D02*
X118735611Y-140320402D01*
X118085611Y-137200402D02*
X116410611Y-137200402D01*
X100303000Y-97146000D02*
X100303000Y-97796000D01*
X97183000Y-97146000D02*
X97183000Y-98821000D01*
X100303000Y-97146000D02*
X100303000Y-96496000D01*
X97183000Y-97146000D02*
X97183000Y-96496000D01*
X112327611Y-147800402D02*
X112977611Y-147800402D01*
X112327611Y-147800402D02*
X110652611Y-147800402D01*
X112327611Y-150920402D02*
X112977611Y-150920402D01*
X112327611Y-150920402D02*
X111677611Y-150920402D01*
X105652000Y-90093000D02*
X106302000Y-90093000D01*
X105652000Y-86973000D02*
X106302000Y-86973000D01*
X105652000Y-86973000D02*
X103977000Y-86973000D01*
X105652000Y-90093000D02*
X105002000Y-90093000D01*
X92907500Y-84969742D02*
X92907500Y-85444258D01*
X93952500Y-84969742D02*
X93952500Y-85444258D01*
X117848353Y-136488902D02*
X118322869Y-136488902D01*
X117848353Y-135443902D02*
X118322869Y-135443902D01*
X124362000Y-90560580D02*
X124362000Y-90279420D01*
X125382000Y-90560580D02*
X125382000Y-90279420D01*
X118080869Y-152676902D02*
X117606353Y-152676902D01*
X118080869Y-151631902D02*
X117606353Y-151631902D01*
X113935500Y-104660742D02*
X113935500Y-105135258D01*
X114980500Y-104660742D02*
X114980500Y-105135258D01*
X124362000Y-85988580D02*
X124362000Y-85707420D01*
X125382000Y-85988580D02*
X125382000Y-85707420D01*
X112090353Y-147088902D02*
X112564869Y-147088902D01*
X112090353Y-146043902D02*
X112564869Y-146043902D01*
X97538500Y-85468258D02*
X97538500Y-84993742D01*
X96493500Y-85468258D02*
X96493500Y-84993742D01*
X123164000Y-102866000D02*
X123164000Y-105066000D01*
X117944000Y-102866000D02*
X117944000Y-105066000D01*
X117944000Y-102866000D02*
X117944000Y-100666000D01*
X123164000Y-102866000D02*
X123164000Y-99266000D01*
X68662742Y-100048500D02*
X69137258Y-100048500D01*
X68662742Y-99003500D02*
X69137258Y-99003500D01*
X121330500Y-86085258D02*
X121330500Y-85610742D01*
X120285500Y-86085258D02*
X120285500Y-85610742D01*
X124362000Y-94751580D02*
X124362000Y-94470420D01*
X125382000Y-94751580D02*
X125382000Y-94470420D01*
X97996000Y-90057000D02*
X97996000Y-89407000D01*
X97996000Y-90057000D02*
X97996000Y-90707000D01*
X101116000Y-90057000D02*
X101116000Y-88382000D01*
X101116000Y-90057000D02*
X101116000Y-90707000D01*
X71172000Y-102362420D02*
X71172000Y-102643580D01*
X72192000Y-102362420D02*
X72192000Y-102643580D01*
X118294000Y-121294580D02*
X118294000Y-121013420D01*
X117274000Y-121294580D02*
X117274000Y-121013420D01*
X124349500Y-101071258D02*
X124349500Y-100596742D01*
X125394500Y-101071258D02*
X125394500Y-100596742D01*
X73992142Y-101872300D02*
X74466658Y-101872300D01*
X73992142Y-100827300D02*
X74466658Y-100827300D01*
X124000000Y-91120000D02*
X124000000Y-89220000D01*
X121680000Y-89720000D02*
X121680000Y-91120000D01*
X93994500Y-77613742D02*
X93994500Y-78088258D01*
X92949500Y-77613742D02*
X92949500Y-78088258D01*
X113202500Y-104660742D02*
X113202500Y-105135258D01*
X112157500Y-104660742D02*
X112157500Y-105135258D01*
X110674000Y-125612580D02*
X110674000Y-125331420D01*
X109654000Y-125612580D02*
X109654000Y-125331420D01*
X125382000Y-105038580D02*
X125382000Y-104757420D01*
X124362000Y-105038580D02*
X124362000Y-104757420D01*
X110125500Y-90182742D02*
X110125500Y-90657258D01*
X111170500Y-90182742D02*
X111170500Y-90657258D01*
X111574580Y-122426000D02*
X111293420Y-122426000D01*
X111574580Y-121406000D02*
X111293420Y-121406000D01*
X106143258Y-86515500D02*
X105668742Y-86515500D01*
X106143258Y-85470500D02*
X105668742Y-85470500D01*
X100899500Y-94463742D02*
X100899500Y-94938258D01*
X101944500Y-94463742D02*
X101944500Y-94938258D01*
X114218500Y-94848258D02*
X114218500Y-94373742D01*
X113173500Y-94848258D02*
X113173500Y-94373742D01*
X68662742Y-101572500D02*
X69137258Y-101572500D01*
X68662742Y-100527500D02*
X69137258Y-100527500D01*
X114697500Y-85610742D02*
X114697500Y-86085258D01*
X115742500Y-85610742D02*
X115742500Y-86085258D01*
X116758500Y-104660742D02*
X116758500Y-105135258D01*
X115713500Y-104660742D02*
X115713500Y-105135258D01*
X124782580Y-113028000D02*
X124501420Y-113028000D01*
X124782580Y-112008000D02*
X124501420Y-112008000D01*
X45908700Y-82976142D02*
X45908700Y-83450658D01*
X44863700Y-82976142D02*
X44863700Y-83450658D01*
D10*
X114366000Y-123668000D02*
X115016000Y-123668000D01*
X111916000Y-123668000D02*
X112566000Y-123668000D01*
D11*
X115866000Y-123618000D02*
X115966000Y-123918000D01*
D10*
X115016000Y-126768000D02*
X115016000Y-126618000D01*
D11*
X115066000Y-122918000D02*
X114766000Y-123018000D01*
D10*
X111916000Y-123818000D02*
X111916000Y-123668000D01*
D11*
X114766000Y-122818000D02*
X115066000Y-122918000D01*
D10*
X111916000Y-126768000D02*
X112566000Y-126768000D01*
X111916000Y-126618000D02*
X111916000Y-126768000D01*
D11*
X115766000Y-123918000D02*
X115866000Y-123618000D01*
X113466000Y-122918000D02*
X115066000Y-122918000D01*
X115866000Y-125218000D02*
X115866000Y-123618000D01*
D10*
X114366000Y-126768000D02*
X115016000Y-126768000D01*
X115016000Y-123668000D02*
X115016000Y-123818000D01*
D14*
X115842200Y-122918000D02*
G75*
G03*
X115842200Y-122918000I-76200J0D01*
G01*
D13*
X111516000Y-124218000D02*
G75*
G03*
X111516000Y-124218000I-50000J0D01*
G01*
D11*
X106143258Y-83692500D02*
X105668742Y-83692500D01*
X106143258Y-84737500D02*
X105668742Y-84737500D01*
X117108000Y-115512000D02*
X117108000Y-113712000D01*
D13*
X117708000Y-114212000D02*
X117708000Y-113712000D01*
D11*
X117108000Y-113712000D02*
X117308000Y-114012000D01*
D13*
X120908000Y-113712000D02*
X120908000Y-114212000D01*
D11*
X117108000Y-113712000D02*
X116908000Y-114012000D01*
D13*
X117708000Y-113712000D02*
X118208000Y-113712000D01*
D11*
X120908000Y-117612000D02*
X120608000Y-117412000D01*
D13*
X120908000Y-116912000D02*
X120408000Y-116912000D01*
D11*
X120908000Y-117612000D02*
X120608000Y-117812000D01*
X119108000Y-117612000D02*
X120908000Y-117612000D01*
D13*
X120408000Y-113712000D02*
X120908000Y-113712000D01*
X120908000Y-113712000D02*
X120408000Y-113712000D01*
X117708000Y-116912000D02*
X118208000Y-116912000D01*
X120908000Y-116912000D02*
X120908000Y-116412000D01*
D14*
X117184200Y-117512000D02*
G75*
G03*
X117184200Y-117512000I-76200J0D01*
G01*
D11*
X111649500Y-85610742D02*
X111649500Y-86085258D01*
X112694500Y-85610742D02*
X112694500Y-86085258D01*
X112157500Y-101071258D02*
X112157500Y-100596742D01*
X113202500Y-101071258D02*
X113202500Y-100596742D01*
X115742500Y-94373742D02*
X115742500Y-94848258D01*
X114697500Y-94373742D02*
X114697500Y-94848258D01*
X110125500Y-81038742D02*
X110125500Y-81513258D01*
X111170500Y-81038742D02*
X111170500Y-81513258D01*
X125382000Y-81416580D02*
X125382000Y-81135420D01*
X124362000Y-81416580D02*
X124362000Y-81135420D01*
D16*
X103270000Y-160973002D02*
X103270000Y-159573002D01*
X104420000Y-157723002D02*
X106970000Y-157723002D01*
X115670000Y-160973002D02*
X115670000Y-159573002D01*
X103270000Y-160973002D02*
X104320000Y-160973002D01*
X106970000Y-157723002D02*
X106970000Y-156523002D01*
X115670000Y-160973002D02*
X114620000Y-160973002D01*
X114520000Y-157723002D02*
X111970000Y-157723002D01*
X111970000Y-157723002D02*
X111970000Y-156523002D01*
X106970000Y-156523002D02*
X111970000Y-156523002D01*
X104070000Y-161898002D02*
G75*
G03*
X104070000Y-161898002I-100000J0D01*
G01*
D11*
X42997700Y-100086658D02*
X42997700Y-99612142D01*
X44042700Y-100086658D02*
X44042700Y-99612142D01*
X114595420Y-122426000D02*
X114876580Y-122426000D01*
X114595420Y-121406000D02*
X114876580Y-121406000D01*
X111441252Y-119149000D02*
X110918748Y-119149000D01*
X111441252Y-120619000D02*
X110918748Y-120619000D01*
X124782580Y-122934000D02*
X124501420Y-122934000D01*
X124782580Y-121914000D02*
X124501420Y-121914000D01*
X112560869Y-140977902D02*
X112086353Y-140977902D01*
X112560869Y-142022902D02*
X112086353Y-142022902D01*
X73992142Y-99303300D02*
X74466658Y-99303300D01*
X73992142Y-100348300D02*
X74466658Y-100348300D01*
X110379500Y-104660742D02*
X110379500Y-105135258D01*
X111424500Y-104660742D02*
X111424500Y-105135258D01*
X61192142Y-102522300D02*
X61666658Y-102522300D01*
X61192142Y-101477300D02*
X61666658Y-101477300D01*
X74057742Y-96124500D02*
X74532258Y-96124500D01*
X74057742Y-97169500D02*
X74532258Y-97169500D01*
D10*
X111916000Y-116862000D02*
X112566000Y-116862000D01*
X114366000Y-113762000D02*
X115016000Y-113762000D01*
D11*
X115766000Y-114012000D02*
X115866000Y-113712000D01*
D10*
X111916000Y-113912000D02*
X111916000Y-113762000D01*
D11*
X115866000Y-113712000D02*
X115966000Y-114012000D01*
X115066000Y-113012000D02*
X114766000Y-113112000D01*
X113466000Y-113012000D02*
X115066000Y-113012000D01*
D10*
X111916000Y-113762000D02*
X112566000Y-113762000D01*
X114366000Y-116862000D02*
X115016000Y-116862000D01*
X111916000Y-116712000D02*
X111916000Y-116862000D01*
D11*
X114766000Y-112912000D02*
X115066000Y-113012000D01*
X115866000Y-115312000D02*
X115866000Y-113712000D01*
D10*
X115016000Y-116862000D02*
X115016000Y-116712000D01*
X115016000Y-113762000D02*
X115016000Y-113912000D01*
D14*
X115842200Y-113012000D02*
G75*
G03*
X115842200Y-113012000I-76200J0D01*
G01*
D13*
X111516000Y-114312000D02*
G75*
G03*
X111516000Y-114312000I-50000J0D01*
G01*
D11*
X117843611Y-150920402D02*
X117193611Y-150920402D01*
X117843611Y-150920402D02*
X118493611Y-150920402D01*
X117843611Y-147800402D02*
X118493611Y-147800402D01*
X117843611Y-147800402D02*
X116168611Y-147800402D01*
X80191342Y-84049700D02*
X80665858Y-84049700D01*
X80191342Y-85094700D02*
X80665858Y-85094700D01*
X111424500Y-101071258D02*
X111424500Y-100596742D01*
X110379500Y-101071258D02*
X110379500Y-100596742D01*
D16*
X89315000Y-109669000D02*
X90365000Y-109669000D01*
X100565000Y-106419000D02*
X98015000Y-106419000D01*
X93015000Y-106419000D02*
X93015000Y-105219000D01*
X89315000Y-109669000D02*
X89315000Y-108269000D01*
X90465000Y-106419000D02*
X93015000Y-106419000D01*
X101715000Y-109669000D02*
X100665000Y-109669000D01*
X101715000Y-109669000D02*
X101715000Y-108269000D01*
X93015000Y-105219000D02*
X98015000Y-105219000D01*
X98015000Y-106419000D02*
X98015000Y-105219000D01*
X90115000Y-110594000D02*
G75*
G03*
X90115000Y-110594000I-100000J0D01*
G01*
D11*
X69608658Y-85222300D02*
X69134142Y-85222300D01*
X69608658Y-84177300D02*
X69134142Y-84177300D01*
X121330500Y-81513258D02*
X121330500Y-81038742D01*
X120285500Y-81513258D02*
X120285500Y-81038742D01*
X112323611Y-140266402D02*
X112973611Y-140266402D01*
X112323611Y-140266402D02*
X111673611Y-140266402D01*
X112323611Y-137146402D02*
X112973611Y-137146402D01*
X112323611Y-137146402D02*
X110648611Y-137146402D01*
X68662742Y-102051500D02*
X69137258Y-102051500D01*
X68662742Y-103096500D02*
X69137258Y-103096500D01*
X106412000Y-100693000D02*
X106412000Y-97243000D01*
X101292000Y-100693000D02*
X101292000Y-102643000D01*
X106412000Y-100693000D02*
X106412000Y-102643000D01*
X101292000Y-100693000D02*
X101292000Y-98743000D01*
X91159500Y-84993742D02*
X91159500Y-85468258D01*
X92204500Y-84993742D02*
X92204500Y-85468258D01*
X120285500Y-94848258D02*
X120285500Y-94373742D01*
X121330500Y-94848258D02*
X121330500Y-94373742D01*
X116092000Y-80576000D02*
X116092000Y-81976000D01*
X118412000Y-81976000D02*
X118412000Y-80076000D01*
X94715500Y-85468258D02*
X94715500Y-84993742D01*
X95760500Y-85468258D02*
X95760500Y-84993742D01*
X112560869Y-142755902D02*
X112086353Y-142755902D01*
X112560869Y-143800902D02*
X112086353Y-143800902D01*
X118412000Y-86548000D02*
X118412000Y-84648000D01*
X116092000Y-85148000D02*
X116092000Y-86548000D01*
X118080869Y-153409902D02*
X117606353Y-153409902D01*
X118080869Y-154454902D02*
X117606353Y-154454902D01*
X102618500Y-89819742D02*
X102618500Y-90294258D01*
X101573500Y-89819742D02*
X101573500Y-90294258D01*
X110674000Y-115706580D02*
X110674000Y-115425420D01*
X109654000Y-115706580D02*
X109654000Y-115425420D01*
X94715500Y-90294258D02*
X94715500Y-89819742D01*
X95760500Y-90294258D02*
X95760500Y-89819742D01*
X112086353Y-136434902D02*
X112560869Y-136434902D01*
X112086353Y-135389902D02*
X112560869Y-135389902D01*
X61230742Y-98410500D02*
X61705258Y-98410500D01*
X61230742Y-99455500D02*
X61705258Y-99455500D01*
X73992142Y-97779300D02*
X74466658Y-97779300D01*
X73992142Y-98824300D02*
X74466658Y-98824300D01*
X93982500Y-88516258D02*
X93982500Y-88041742D01*
X92937500Y-88516258D02*
X92937500Y-88041742D01*
X114697500Y-90182742D02*
X114697500Y-90657258D01*
X115742500Y-90182742D02*
X115742500Y-90657258D01*
X63911000Y-102195420D02*
X63911000Y-102476580D01*
X64931000Y-102195420D02*
X64931000Y-102476580D01*
X124000000Y-95311000D02*
X124000000Y-93411000D01*
X121680000Y-93911000D02*
X121680000Y-95311000D01*
X52876000Y-162410000D02*
X52876000Y-117410000D01*
X107876000Y-150410000D02*
X97876000Y-150410000D01*
X97876000Y-117410000D02*
X52876000Y-117410000D01*
X97876000Y-136410000D02*
X107876000Y-136410000D01*
X73376000Y-151910000D02*
X59876000Y-151910000D01*
X73376000Y-155910000D02*
X73376000Y-151910000D01*
X97876000Y-162410000D02*
X52876000Y-162410000D01*
X107876000Y-150410000D02*
X107876000Y-136410000D01*
X59876000Y-155910000D02*
X73376000Y-155910000D01*
X97876000Y-162410000D02*
X97876000Y-117410000D01*
X59876000Y-151910000D02*
X59876000Y-155910000D01*
D17*
X72376000Y-157410000D02*
G75*
G03*
X72376000Y-157410000I-250000J0D01*
G01*
D11*
X120316748Y-122397000D02*
X120839252Y-122397000D01*
X120316748Y-120927000D02*
X120839252Y-120927000D01*
X118412000Y-91120000D02*
X118412000Y-89220000D01*
X116092000Y-89720000D02*
X116092000Y-91120000D01*
X61192142Y-104046300D02*
X61666658Y-104046300D01*
X61192142Y-103001300D02*
X61666658Y-103001300D01*
X113173500Y-86085258D02*
X113173500Y-85610742D01*
X114218500Y-86085258D02*
X114218500Y-85610742D01*
X111574580Y-112520000D02*
X111293420Y-112520000D01*
X111574580Y-111500000D02*
X111293420Y-111500000D01*
X116092000Y-93911000D02*
X116092000Y-95311000D01*
X118412000Y-95311000D02*
X118412000Y-93411000D01*
X102855500Y-77613742D02*
X102855500Y-78088258D01*
X103900500Y-77613742D02*
X103900500Y-78088258D01*
X115713500Y-101071258D02*
X115713500Y-100596742D01*
X116758500Y-101071258D02*
X116758500Y-100596742D01*
X96493500Y-90294258D02*
X96493500Y-89819742D01*
X97538500Y-90294258D02*
X97538500Y-89819742D01*
X115742500Y-81038742D02*
X115742500Y-81513258D01*
X114697500Y-81038742D02*
X114697500Y-81513258D01*
X98505742Y-99925500D02*
X98980258Y-99925500D01*
X98505742Y-100970500D02*
X98980258Y-100970500D01*
X47513342Y-113760700D02*
X47987858Y-113760700D01*
X47513342Y-112715700D02*
X47987858Y-112715700D01*
X113935500Y-101071258D02*
X113935500Y-100596742D01*
X114980500Y-101071258D02*
X114980500Y-100596742D01*
M02*
