M48
; DRILL file {KiCad (6.0.5)} date Fri May 20 09:36:30 2022
; FORMAT={-:-/ absolute / inch / decimal}
; #@! TF.CreationDate,2022-05-20T09:36:30-04:00
; #@! TF.GenerationSoftware,Kicad,Pcbnew,(6.0.5)
; #@! TF.FileFunction,Plated,1,6,PTH
FMAT,2
INCH
; #@! TA.AperFunction,Plated,PTH,ViaDrill
T1C0.0100
; #@! TA.AperFunction,Plated,PTH,ComponentDrill
T2C0.0118
; #@! TA.AperFunction,Plated,PTH,ViaDrill
T3C0.0157
; #@! TA.AperFunction,Plated,PTH,ComponentDrill
T4C0.0984
; #@! TA.AperFunction,Plated,PTH,ComponentDrill
T5C0.1250
%
G90
G05
T1
X1.6257Y-6.2548
X1.6299Y-3.3974
X1.6707Y-2.9298
X1.709Y-4.3308
X1.7134Y-3.9861
X1.738Y-3.3954
X1.7384Y-3.8411
X1.762Y-4.3844
X1.764Y-3.8411
X1.7874Y-4.2644
X1.7874Y-3.2185
X1.7893Y-3.4411
X1.8249Y-4.4582
X1.8406Y-3.4547
X1.8534Y-4.1384
X1.859Y-3.2165
X1.8642Y-4.3169
X1.866Y-3.4411
X1.874Y-4.3839
X1.8916Y-3.4547
X1.8917Y-2.7421
X1.8917Y-3.8287
X1.8937Y-4.248
X1.9087Y-2.6048
X1.9126Y-2.7196
X1.9172Y-3.4411
X1.9175Y-3.8411
X1.9208Y-4.059
X1.935Y-4.4587
X1.9428Y-3.4547
X1.9429Y-3.8287
X1.9609Y-4.5889
X1.9637Y-4.4581
X1.9684Y-3.4411
X1.9687Y-3.8411
X1.9782Y-2.6448
X1.9902Y-5.0531
X1.9934Y-4.0688
X1.9941Y-3.4547
X1.9941Y-3.8287
X2.0Y-4.4528
X2.0315Y-4.2362
X2.0374Y-3.6004
X2.0433Y-3.878
X2.0531Y-3.628
X2.0632Y-2.7498
X2.0669Y-3.9075
X2.0734Y-4.0688
X2.0734Y-4.2034
X2.0882Y-2.6508
X2.0925Y-5.0768
X2.1043Y-3.6791
X2.1043Y-4.3465
X2.1157Y-2.6998
X2.1264Y-3.5834
X2.1264Y-3.6434
X2.128Y-3.7028
X2.1424Y-4.1589
X2.1444Y-4.408
X2.186Y-2.8219
X2.2034Y-4.4084
X2.2224Y-2.7618
X2.2303Y-4.5689
X2.2321Y-4.4529
X2.2697Y-3.061
X2.2784Y-3.4084
X2.2784Y-3.4384
X2.2788Y-4.4988
X2.3115Y-4.5988
X2.313Y-4.2912
X2.3209Y-4.128
X2.3602Y-2.9547
X2.3622Y-3.9557
X2.3622Y-4.0157
X2.3622Y-4.0757
X2.3681Y-2.9823
X2.3839Y-3.561
X2.3839Y-3.7858
X2.3884Y-3.5034
X2.4084Y-3.4084
X2.4084Y-3.4384
X2.4154Y-3.5492
X2.4154Y-3.7858
X2.4248Y-4.5988
X2.4508Y-3.0059
X2.4508Y-3.5531
X2.4724Y-4.0157
X2.4731Y-3.9558
X2.4732Y-4.0756
X2.4921Y-3.9252
X2.4958Y-3.2334
X2.501Y-3.196
X2.5222Y-3.8206
X2.5307Y-4.3866
X2.5361Y-3.9724
X2.5372Y-4.082
X2.5412Y-3.8906
X2.5807Y-4.5848
X2.5808Y-3.056
X2.6161Y-2.9232
X2.6271Y-6.2846
X2.6332Y-4.0514
X2.6466Y-3.3802
X2.6466Y-3.7008
X2.6614Y-3.8653
X2.6634Y-2.9547
X2.6679Y-3.7729
X2.6694Y-3.7154
X2.6791Y-2.8524
X2.6807Y-4.39
X2.6924Y-3.8584
X2.6978Y-3.3802
X2.7034Y-3.2884
X2.7067Y-3.0335
X2.749Y-3.3802
X2.75Y-4.0748
X2.7544Y-3.8584
X2.7677Y-3.9783
X2.7677Y-4.0394
X2.7678Y-3.9182
X2.7743Y-3.4705
X2.7764Y-3.7104
X2.7779Y-3.7729
X2.7807Y-4.4748
X2.7881Y-3.3346
X2.7958Y-3.2334
X2.801Y-3.196
X2.8051Y-2.9823
X2.8072Y-3.8198
X2.8091Y-3.8642
X2.8107Y-4.5662
X2.8228Y-3.9764
X2.8262Y-3.8899
X2.8406Y-4.0965
X2.8563Y-3.9311
X2.8619Y-3.9597
X2.8807Y-4.3866
X2.8807Y-4.5848
X2.8808Y-3.056
X2.9182Y-4.0564
X2.9307Y-4.5848
X2.9657Y-4.6748
X2.9804Y-3.9302
X3.0014Y-4.027
X3.0024Y-3.2884
X3.0034Y-3.1784
X3.0098Y-3.9173
X3.0162Y-3.8069
X3.0307Y-4.2848
X3.0307Y-4.39
X3.0328Y-3.97
X3.0357Y-3.8869
X3.0492Y-4.7048
X3.0531Y-2.9744
X3.0561Y-4.065
X3.0807Y-2.8839
X3.1095Y-3.3296
X3.1479Y-3.3802
X3.1479Y-3.7008
X3.1516Y-3.0256
X3.1607Y-4.3866
X3.1607Y-4.5848
X3.1692Y-3.7729
X3.1713Y-3.7185
X3.1956Y-3.8584
X3.1991Y-3.3802
X3.2107Y-4.5848
X3.2176Y-3.2334
X3.2228Y-3.196
X3.2457Y-4.6748
X3.2502Y-3.3802
X3.2537Y-3.8584
X3.2758Y-3.4744
X3.2758Y-3.7067
X3.2776Y-2.8484
X3.2801Y-3.7729
X3.3047Y-3.0568
X3.3107Y-4.2848
X3.3107Y-4.39
X3.3257Y-2.8498
X3.3366Y-4.7048
X3.3574Y-3.3591
X3.3574Y-3.4705
X3.3957Y-6.279
X3.4262Y-3.1792
X3.4262Y-3.2892
X3.43Y-3.4714
X3.5138Y-6.2028
X3.5276Y-2.8484
X3.5604Y-3.1076
X3.5608Y-6.2937
X3.5919Y-2.8478
X3.7495Y-3.4143
X3.7495Y-3.6043
X3.7618Y-3.2067
X3.7776Y-3.2539
X3.7776Y-3.9783
X3.7972Y-3.6831
X3.8012Y-3.2303
X3.8124Y-2.916
X3.8209Y-3.6988
X3.8406Y-2.8957
X3.876Y-2.8169
X3.939Y-2.8169
X3.9503Y-3.9547
X3.9569Y-3.4705
X3.9572Y-3.2796
X4.002Y-5.7146
X4.0059Y-5.8091
X4.0571Y-3.3878
X4.0571Y-3.5689
X4.0787Y-5.8362
X4.0965Y-2.8346
X4.1007Y-3.5856
X4.1107Y-3.3156
X4.1226Y-3.4967
X4.1762Y-5.9174
X4.187Y-3.2815
X4.3117Y-4.3298
X4.3117Y-4.7198
X4.3322Y-4.4089
X4.3322Y-4.8008
X4.3362Y-4.6048
X4.3362Y-4.8848
X4.3372Y-4.4948
X4.3372Y-4.9948
X4.3562Y-3.1429
X4.3562Y-3.3229
X4.3562Y-3.5029
X4.3562Y-3.6679
X4.3652Y-5.3509
X4.3654Y-5.7703
X4.3662Y-4.0268
X4.3662Y-4.0729
X4.3912Y-4.5148
X4.3912Y-4.5448
X4.3912Y-4.9048
X4.3912Y-4.9348
X4.4362Y-4.0268
X4.4362Y-4.0729
X4.4407Y-4.3298
X4.4407Y-4.7198
X4.4469Y-5.7343
X4.4547Y-5.313
X4.4625Y-4.1886
X4.4672Y-4.8579
X4.4682Y-4.6198
X4.4682Y-5.0098
X4.4695Y-4.4656
X4.4792Y-5.6409
X4.4793Y-6.0603
X4.5062Y-4.0268
X4.5062Y-4.0729
X4.53Y-4.1861
X4.5325Y-3.9111
X4.5482Y-2.7948
X4.5722Y-4.4089
X4.5722Y-4.8008
X4.5762Y-4.0268
X4.5762Y-4.0729
X4.5825Y-5.7703
X4.5906Y-3.1398
X4.5906Y-3.3198
X4.5906Y-3.4998
X4.5906Y-3.6648
X4.5907Y-2.6923
X4.5921Y-5.353
X4.6025Y-3.9111
X4.6117Y-4.4104
X4.6127Y-4.8004
X4.6236Y-4.5694
X4.6236Y-4.9598
X4.6362Y-4.3248
X4.6362Y-4.7148
X4.6676Y-4.6134
X4.6676Y-5.0038
X4.6694Y-3.9739
X4.6713Y-5.7303
X4.6823Y-5.3104
X4.6882Y-2.6948
X4.6962Y-3.6168
X4.6962Y-3.7818
X4.6965Y-6.0603
X4.706Y-5.643
X4.7106Y-2.8547
X4.7562Y-3.2568
X4.7562Y-3.4368
X4.7562Y-3.6168
X4.7562Y-3.7818
X4.7718Y-4.1993
X4.7722Y-2.6889
X4.7972Y-4.2146
X4.7974Y-3.9739
X4.8106Y-3.2598
X4.8106Y-3.4404
X4.8106Y-3.6204
X4.8106Y-3.7854
X4.8107Y-4.3998
X4.8107Y-4.7898
X4.8522Y-4.4298
X4.8522Y-4.8198
X4.8536Y-4.5505
X4.8541Y-4.9397
X4.8973Y-4.5937
X4.8973Y-4.9829
X4.9152Y-3.5048
X4.9162Y-3.1448
X4.9162Y-3.3248
X4.9162Y-3.6698
X4.9162Y-4.0268
X4.9162Y-4.1848
X4.9172Y-4.0748
X4.9622Y-4.4298
X4.9622Y-4.8198
X5.0757Y-2.9348
X5.0807Y-6.2498
T2
X2.374Y-3.6341
X2.374Y-3.6734
X2.374Y-3.7128
X2.4134Y-3.6341
X2.4134Y-3.6734
X2.4134Y-3.7128
X2.4528Y-3.6341
X2.4528Y-3.6734
X2.4528Y-3.7128
T3
X1.8907Y-5.2579
X1.8917Y-5.8602
X2.3917Y-5.2579
X2.3917Y-5.8602
X2.5557Y-4.2148
X2.8057Y-4.1148
X2.8917Y-5.2579
X2.8917Y-5.8602
X2.9007Y-4.2148
X3.0807Y-4.1148
X3.1161Y-6.1398
X3.1161Y-6.187
X3.1161Y-6.2382
X3.1307Y-4.2148
X3.3157Y-4.2348
X3.3207Y-4.1648
X3.3807Y-4.3598
X3.3857Y-4.2748
X3.3917Y-5.2579
X3.3917Y-5.8602
X3.4257Y-4.1948
X3.5335Y-5.561
X3.9114Y-6.0886
X3.9114Y-6.1398
X3.9114Y-6.187
X3.9503Y-4.3894
X4.065Y-3.7461
X4.065Y-3.7972
X4.1161Y-3.7461
X4.1161Y-3.7972
X4.1673Y-3.7461
X4.1673Y-3.7972
X4.2224Y-6.0374
X4.2224Y-6.0886
X4.2224Y-6.1358
X4.2224Y-6.187
X4.4114Y-6.2697
X4.4862Y-6.2697
X5.0728Y-2.7815
T4
X2.2057Y-4.7465
X2.2057Y-6.2701
X2.7215Y-4.7701
X3.7057Y-4.7701
T5
X1.7807Y-6.3098
X1.9303Y-2.9346
X4.8303Y-2.9346
X4.9303Y-6.3098
T0
M30
