%TF.GenerationSoftware,KiCad,Pcbnew,(6.0.1-0)*%
%TF.CreationDate,2022-02-08T16:02:55-05:00*%
%TF.ProjectId,FP Interface Card,46502049-6e74-4657-9266-616365204361,rev?*%
%TF.SameCoordinates,Original*%
%TF.FileFunction,Profile,NP*%
%FSLAX46Y46*%
G04 Gerber Fmt 4.6, Leading zero omitted, Abs format (unit mm)*
G04 Created by KiCad (PCBNEW (6.0.1-0)) date 2022-02-08 16:02:55*
%MOMM*%
%LPD*%
G01*
G04 APERTURE LIST*
%TA.AperFunction,Profile*%
%ADD10C,0.254000*%
%TD*%
G04 APERTURE END LIST*
D10*
X2Y58851802D02*
G75*
G03*
X762002Y58089802I762001J1D01*
G01*
X73183777Y99062819D02*
X73183777Y101144519D01*
X1905002Y38557202D02*
X1905002Y57327802D01*
X57581802Y2D02*
X88976202Y2D01*
X11503814Y101125837D02*
X16203749Y101125837D01*
X56388002Y1193802D02*
G75*
G03*
X57581802Y2I1193800J0D01*
G01*
X762002Y58089802D02*
X1143002Y58089802D01*
X89027002Y58089802D02*
X89408002Y58089802D01*
X88976202Y2D02*
G75*
G03*
X90170002Y1193802I0J1193800D01*
G01*
X1100447Y95642503D02*
X5100447Y95642503D01*
X16983839Y93012867D02*
G75*
G03*
X17558839Y92437867I575001J1D01*
G01*
X47883820Y98962847D02*
X71183822Y98962847D01*
X81908370Y101144522D02*
X82615100Y101144522D01*
X5100447Y95642503D02*
G75*
G03*
X5583603Y96125659I0J483156D01*
G01*
X89408002Y58089802D02*
G75*
G03*
X90170002Y58851802I-1J762001D01*
G01*
X72383820Y92387839D02*
X72608813Y92387839D01*
X71183832Y93587829D02*
G75*
G03*
X72383819Y92387839I1199990J0D01*
G01*
X89027002Y58089802D02*
G75*
G03*
X88265002Y57327802I1J-762001D01*
G01*
X85067127Y95642503D02*
X89067124Y95642503D01*
X37261802Y2921002D02*
X55194202Y2921002D01*
X2Y58851802D02*
X2Y94542058D01*
X5583603Y96125659D02*
X5583603Y100551724D01*
X17783832Y92437869D02*
G75*
G03*
X18983820Y93637858I-2J1199990D01*
G01*
X90170002Y94539625D02*
G75*
G03*
X89067124Y95642500I-1102878J-3D01*
G01*
X762002Y37795202D02*
G75*
G03*
X2Y37033202I1J-762001D01*
G01*
X762002Y37795202D02*
X1143002Y37795202D01*
X90170002Y1193802D02*
X90170002Y37033202D01*
X84583785Y96125845D02*
X84583785Y100575828D01*
X88265002Y38557202D02*
X88265002Y57327802D01*
X84583785Y96125845D02*
G75*
G03*
X85067127Y95642503I483343J1D01*
G01*
X16983803Y99112849D02*
X16983803Y101125830D01*
X73801660Y101144522D02*
X74508390Y101144522D01*
X75108384Y100544528D02*
G75*
G03*
X75708377Y99944535I599993J0D01*
G01*
X75708377Y99944534D02*
X80708383Y99944534D01*
X-7Y1270002D02*
X2Y37033202D01*
X45483830Y93587846D02*
X45483830Y98962837D01*
X89027002Y37795202D02*
X89408002Y37795202D01*
X18983820Y98962850D02*
X45483820Y98962847D01*
X72608813Y92387836D02*
G75*
G03*
X73183813Y92962836I-1J575001D01*
G01*
X37261802Y2921002D02*
G75*
G03*
X36068002Y1727202I0J-1193800D01*
G01*
X82615107Y101144519D02*
X84015094Y101144519D01*
X1143002Y37795202D02*
G75*
G03*
X1905002Y38557202I-1J762001D01*
G01*
X88265002Y38557202D02*
G75*
G03*
X89027002Y37795202I762001J1D01*
G01*
X80708383Y99944534D02*
G75*
G03*
X81308377Y100544528I1J599993D01*
G01*
X47883810Y93587846D02*
X47883810Y98962837D01*
X73183813Y92962839D02*
X73183813Y99062837D01*
X16983839Y93012869D02*
X16983839Y99112867D01*
X75108384Y100544528D02*
G75*
G03*
X74508390Y101144522I-599993J1D01*
G01*
X17558839Y92437869D02*
X17783832Y92437869D01*
X6158798Y101125842D02*
X11503807Y101125842D01*
X56388002Y1727202D02*
G75*
G03*
X55194202Y2921002I-1193800J0D01*
G01*
X1100447Y95642503D02*
G75*
G03*
X2Y94542058I0J-1100445D01*
G01*
X1905002Y57327802D02*
G75*
G03*
X1143002Y58089802I-762001J-1D01*
G01*
X73183777Y101144519D02*
X73801668Y101144519D01*
X6158798Y101125842D02*
G75*
G03*
X5583786Y100550830I0J-575012D01*
G01*
X1117602Y5D02*
X34874202Y2D01*
X3Y1270002D02*
G75*
G03*
X1117602Y2I1193796J-76203D01*
G01*
X45483830Y93587846D02*
G75*
G03*
X47883810Y93587830I1199990J-17D01*
G01*
X36068002Y1193802D02*
X36068002Y1727202D01*
X34874202Y2D02*
G75*
G03*
X36068002Y1193802I0J1193800D01*
G01*
X16203754Y101125830D02*
X16983803Y101125830D01*
X81908370Y101144522D02*
G75*
G03*
X81308376Y100544528I-1J-599993D01*
G01*
X90170002Y37033202D02*
G75*
G03*
X89408002Y37795202I-762001J-1D01*
G01*
X18983820Y93637877D02*
X18983820Y98962847D01*
X71183832Y93587846D02*
X71183832Y98962837D01*
X84583785Y100575828D02*
G75*
G03*
X84015094Y101144519I-568692J-1D01*
G01*
X56388002Y1193802D02*
X56388002Y1727202D01*
X90170002Y58851802D02*
X90170002Y94539625D01*
M02*
