%TF.GenerationSoftware,KiCad,Pcbnew,(6.0.1-0)*%
%TF.CreationDate,2022-02-08T16:02:55-05:00*%
%TF.ProjectId,FP Interface Card,46502049-6e74-4657-9266-616365204361,rev?*%
%TF.SameCoordinates,Original*%
%TF.FileFunction,Legend,Top*%
%TF.FilePolarity,Positive*%
%FSLAX46Y46*%
G04 Gerber Fmt 4.6, Leading zero omitted, Abs format (unit mm)*
G04 Created by KiCad (PCBNEW (6.0.1-0)) date 2022-02-08 16:02:55*
%MOMM*%
%LPD*%
G01*
G04 APERTURE LIST*
%ADD10C,0.200000*%
%ADD11C,0.250000*%
%ADD12C,0.300000*%
%ADD13C,0.090932*%
%ADD14C,0.150000*%
%ADD15C,0.060000*%
%ADD16C,0.120000*%
G04 APERTURE END LIST*
D10*
X36500000Y28500000D02*
X36500000Y27000000D01*
D11*
X25190476Y25595238D02*
X25333333Y25547619D01*
X25571428Y25547619D01*
X25666666Y25595238D01*
X25714285Y25642857D01*
X25761904Y25738095D01*
X25761904Y25833333D01*
X25714285Y25928571D01*
X25666666Y25976190D01*
X25571428Y26023809D01*
X25380952Y26071428D01*
X25285714Y26119047D01*
X25238095Y26166666D01*
X25190476Y26261904D01*
X25190476Y26357142D01*
X25238095Y26452380D01*
X25285714Y26500000D01*
X25380952Y26547619D01*
X25619047Y26547619D01*
X25761904Y26500000D01*
X26190476Y26071428D02*
X26523809Y26071428D01*
X26666666Y25547619D02*
X26190476Y25547619D01*
X26190476Y26547619D01*
X26666666Y26547619D01*
X27666666Y25547619D02*
X27333333Y26023809D01*
X27095238Y25547619D02*
X27095238Y26547619D01*
X27476190Y26547619D01*
X27571428Y26500000D01*
X27619047Y26452380D01*
X27666666Y26357142D01*
X27666666Y26214285D01*
X27619047Y26119047D01*
X27571428Y26071428D01*
X27476190Y26023809D01*
X27095238Y26023809D01*
X27952380Y26547619D02*
X28285714Y25547619D01*
X28619047Y26547619D01*
X29142857Y26547619D02*
X29333333Y26547619D01*
X29428571Y26500000D01*
X29523809Y26404761D01*
X29571428Y26214285D01*
X29571428Y25880952D01*
X29523809Y25690476D01*
X29428571Y25595238D01*
X29333333Y25547619D01*
X29142857Y25547619D01*
X29047619Y25595238D01*
X28952380Y25690476D01*
X28904761Y25880952D01*
X28904761Y26214285D01*
X28952380Y26404761D01*
X29047619Y26500000D01*
X29142857Y26547619D01*
X29761904Y25452380D02*
X30523809Y25452380D01*
X30761904Y25547619D02*
X30761904Y26547619D01*
X31142857Y26547619D01*
X31238095Y26500000D01*
X31285714Y26452380D01*
X31333333Y26357142D01*
X31333333Y26214285D01*
X31285714Y26119047D01*
X31238095Y26071428D01*
X31142857Y26023809D01*
X30761904Y26023809D01*
X31666666Y26547619D02*
X31904761Y25547619D01*
X32095238Y26261904D01*
X32285714Y25547619D01*
X32523809Y26547619D01*
X33476190Y25547619D02*
X33142857Y26023809D01*
X32904761Y25547619D02*
X32904761Y26547619D01*
X33285714Y26547619D01*
X33380952Y26500000D01*
X33428571Y26452380D01*
X33476190Y26357142D01*
X33476190Y26214285D01*
X33428571Y26119047D01*
X33380952Y26071428D01*
X33285714Y26023809D01*
X32904761Y26023809D01*
X33666666Y25452380D02*
X34428571Y25452380D01*
X35238095Y25642857D02*
X35190476Y25595238D01*
X35047619Y25547619D01*
X34952380Y25547619D01*
X34809523Y25595238D01*
X34714285Y25690476D01*
X34666666Y25785714D01*
X34619047Y25976190D01*
X34619047Y26119047D01*
X34666666Y26309523D01*
X34714285Y26404761D01*
X34809523Y26500000D01*
X34952380Y26547619D01*
X35047619Y26547619D01*
X35190476Y26500000D01*
X35238095Y26452380D01*
X35523809Y26547619D02*
X36095238Y26547619D01*
X35809523Y25547619D02*
X35809523Y26547619D01*
X37000000Y25547619D02*
X36666666Y26023809D01*
X36428571Y25547619D02*
X36428571Y26547619D01*
X36809523Y26547619D01*
X36904761Y26500000D01*
X36952380Y26452380D01*
X37000000Y26357142D01*
X37000000Y26214285D01*
X36952380Y26119047D01*
X36904761Y26071428D01*
X36809523Y26023809D01*
X36428571Y26023809D01*
X37904761Y25547619D02*
X37428571Y25547619D01*
X37428571Y26547619D01*
D12*
X9864285Y16629642D02*
X9364285Y16629642D01*
X9364285Y15843928D02*
X9364285Y17343928D01*
X10078571Y17343928D01*
X10864285Y15843928D02*
X10721428Y15915357D01*
X10650000Y15986785D01*
X10578571Y16129642D01*
X10578571Y16558214D01*
X10650000Y16701071D01*
X10721428Y16772500D01*
X10864285Y16843928D01*
X11078571Y16843928D01*
X11221428Y16772500D01*
X11292857Y16701071D01*
X11364285Y16558214D01*
X11364285Y16129642D01*
X11292857Y15986785D01*
X11221428Y15915357D01*
X11078571Y15843928D01*
X10864285Y15843928D01*
X12007142Y15843928D02*
X12007142Y16843928D01*
X12007142Y16558214D02*
X12078571Y16701071D01*
X12150000Y16772500D01*
X12292857Y16843928D01*
X12435714Y16843928D01*
X13578571Y15843928D02*
X13578571Y16629642D01*
X13507142Y16772500D01*
X13364285Y16843928D01*
X13078571Y16843928D01*
X12935714Y16772500D01*
X13578571Y15915357D02*
X13435714Y15843928D01*
X13078571Y15843928D01*
X12935714Y15915357D01*
X12864285Y16058214D01*
X12864285Y16201071D01*
X12935714Y16343928D01*
X13078571Y16415357D01*
X13435714Y16415357D01*
X13578571Y16486785D01*
X14221428Y15915357D02*
X14364285Y15843928D01*
X14650000Y15843928D01*
X14792857Y15915357D01*
X14864285Y16058214D01*
X14864285Y16129642D01*
X14792857Y16272500D01*
X14650000Y16343928D01*
X14435714Y16343928D01*
X14292857Y16415357D01*
X14221428Y16558214D01*
X14221428Y16629642D01*
X14292857Y16772500D01*
X14435714Y16843928D01*
X14650000Y16843928D01*
X14792857Y16772500D01*
X16650000Y15843928D02*
X16650000Y17343928D01*
X17221428Y17343928D01*
X17364285Y17272500D01*
X17435714Y17201071D01*
X17507142Y17058214D01*
X17507142Y16843928D01*
X17435714Y16701071D01*
X17364285Y16629642D01*
X17221428Y16558214D01*
X16650000Y16558214D01*
X18150000Y15843928D02*
X18150000Y16843928D01*
X18150000Y16558214D02*
X18221428Y16701071D01*
X18292857Y16772500D01*
X18435714Y16843928D01*
X18578571Y16843928D01*
X19292857Y15843928D02*
X19150000Y15915357D01*
X19078571Y15986785D01*
X19007142Y16129642D01*
X19007142Y16558214D01*
X19078571Y16701071D01*
X19150000Y16772500D01*
X19292857Y16843928D01*
X19507142Y16843928D01*
X19650000Y16772500D01*
X19721428Y16701071D01*
X19792857Y16558214D01*
X19792857Y16129642D01*
X19721428Y15986785D01*
X19650000Y15915357D01*
X19507142Y15843928D01*
X19292857Y15843928D01*
X20435714Y15843928D02*
X20435714Y16843928D01*
X20435714Y16701071D02*
X20507142Y16772500D01*
X20650000Y16843928D01*
X20864285Y16843928D01*
X21007142Y16772500D01*
X21078571Y16629642D01*
X21078571Y15843928D01*
X21078571Y16629642D02*
X21150000Y16772500D01*
X21292857Y16843928D01*
X21507142Y16843928D01*
X21650000Y16772500D01*
X21721428Y16629642D01*
X21721428Y15843928D01*
X22435714Y15843928D02*
X22435714Y16843928D01*
X22435714Y17343928D02*
X22364285Y17272500D01*
X22435714Y17201071D01*
X22507142Y17272500D01*
X22435714Y17343928D01*
X22435714Y17201071D01*
X23150000Y16843928D02*
X23150000Y15843928D01*
X23150000Y16701071D02*
X23221428Y16772500D01*
X23364285Y16843928D01*
X23578571Y16843928D01*
X23721428Y16772500D01*
X23792857Y16629642D01*
X23792857Y15843928D01*
X25078571Y15915357D02*
X24935714Y15843928D01*
X24650000Y15843928D01*
X24507142Y15915357D01*
X24435714Y16058214D01*
X24435714Y16629642D01*
X24507142Y16772500D01*
X24650000Y16843928D01*
X24935714Y16843928D01*
X25078571Y16772500D01*
X25150000Y16629642D01*
X25150000Y16486785D01*
X24435714Y16343928D01*
X26007142Y15843928D02*
X25864285Y15915357D01*
X25792857Y15986785D01*
X25721428Y16129642D01*
X25721428Y16558214D01*
X25792857Y16701071D01*
X25864285Y16772500D01*
X26007142Y16843928D01*
X26221428Y16843928D01*
X26364285Y16772500D01*
X26435714Y16701071D01*
X26507142Y16558214D01*
X26507142Y16129642D01*
X26435714Y15986785D01*
X26364285Y15915357D01*
X26221428Y15843928D01*
X26007142Y15843928D01*
X4471428Y13428928D02*
X4471428Y14928928D01*
X5042857Y14928928D01*
X5185714Y14857500D01*
X5257142Y14786071D01*
X5328571Y14643214D01*
X5328571Y14428928D01*
X5257142Y14286071D01*
X5185714Y14214642D01*
X5042857Y14143214D01*
X4471428Y14143214D01*
X6614285Y13428928D02*
X6614285Y14214642D01*
X6542857Y14357500D01*
X6399999Y14428928D01*
X6114285Y14428928D01*
X5971428Y14357500D01*
X6614285Y13500357D02*
X6471428Y13428928D01*
X6114285Y13428928D01*
X5971428Y13500357D01*
X5899999Y13643214D01*
X5899999Y13786071D01*
X5971428Y13928928D01*
X6114285Y14000357D01*
X6471428Y14000357D01*
X6614285Y14071785D01*
X7185714Y14428928D02*
X7542857Y13428928D01*
X7899999Y14428928D02*
X7542857Y13428928D01*
X7399999Y13071785D01*
X7328571Y13000357D01*
X7185714Y12928928D01*
X8685714Y13428928D02*
X8542857Y13500357D01*
X8471428Y13643214D01*
X8471428Y14928928D01*
X9471428Y13428928D02*
X9328571Y13500357D01*
X9257142Y13571785D01*
X9185714Y13714642D01*
X9185714Y14143214D01*
X9257142Y14286071D01*
X9328571Y14357500D01*
X9471428Y14428928D01*
X9685714Y14428928D01*
X9828571Y14357500D01*
X9899999Y14286071D01*
X9971428Y14143214D01*
X9971428Y13714642D01*
X9899999Y13571785D01*
X9828571Y13500357D01*
X9685714Y13428928D01*
X9471428Y13428928D01*
X11257142Y13428928D02*
X11257142Y14214642D01*
X11185714Y14357500D01*
X11042857Y14428928D01*
X10757142Y14428928D01*
X10614285Y14357500D01*
X11257142Y13500357D02*
X11114285Y13428928D01*
X10757142Y13428928D01*
X10614285Y13500357D01*
X10542857Y13643214D01*
X10542857Y13786071D01*
X10614285Y13928928D01*
X10757142Y14000357D01*
X11114285Y14000357D01*
X11257142Y14071785D01*
X12614285Y13428928D02*
X12614285Y14928928D01*
X12614285Y13500357D02*
X12471428Y13428928D01*
X12185714Y13428928D01*
X12042857Y13500357D01*
X11971428Y13571785D01*
X11899999Y13714642D01*
X11899999Y14143214D01*
X11971428Y14286071D01*
X12042857Y14357500D01*
X12185714Y14428928D01*
X12471428Y14428928D01*
X12614285Y14357500D01*
X14471428Y13428928D02*
X14471428Y14928928D01*
X15185714Y14428928D02*
X15185714Y13428928D01*
X15185714Y14286071D02*
X15257142Y14357500D01*
X15399999Y14428928D01*
X15614285Y14428928D01*
X15757142Y14357500D01*
X15828571Y14214642D01*
X15828571Y13428928D01*
X16328571Y14428928D02*
X16900000Y14428928D01*
X16542857Y14928928D02*
X16542857Y13643214D01*
X16614285Y13500357D01*
X16757142Y13428928D01*
X16900000Y13428928D01*
X17971428Y13500357D02*
X17828571Y13428928D01*
X17542857Y13428928D01*
X17399999Y13500357D01*
X17328571Y13643214D01*
X17328571Y14214642D01*
X17399999Y14357500D01*
X17542857Y14428928D01*
X17828571Y14428928D01*
X17971428Y14357500D01*
X18042857Y14214642D01*
X18042857Y14071785D01*
X17328571Y13928928D01*
X18685714Y13428928D02*
X18685714Y14428928D01*
X18685714Y14143214D02*
X18757142Y14286071D01*
X18828571Y14357500D01*
X18971428Y14428928D01*
X19114285Y14428928D01*
X19400000Y14428928D02*
X19971428Y14428928D01*
X19614285Y13428928D02*
X19614285Y14714642D01*
X19685714Y14857500D01*
X19828571Y14928928D01*
X19971428Y14928928D01*
X21114285Y13428928D02*
X21114285Y14214642D01*
X21042857Y14357500D01*
X20899999Y14428928D01*
X20614285Y14428928D01*
X20471428Y14357500D01*
X21114285Y13500357D02*
X20971428Y13428928D01*
X20614285Y13428928D01*
X20471428Y13500357D01*
X20399999Y13643214D01*
X20399999Y13786071D01*
X20471428Y13928928D01*
X20614285Y14000357D01*
X20971428Y14000357D01*
X21114285Y14071785D01*
X22471428Y13500357D02*
X22328571Y13428928D01*
X22042857Y13428928D01*
X21899999Y13500357D01*
X21828571Y13571785D01*
X21757142Y13714642D01*
X21757142Y14143214D01*
X21828571Y14286071D01*
X21899999Y14357500D01*
X22042857Y14428928D01*
X22328571Y14428928D01*
X22471428Y14357500D01*
X23685714Y13500357D02*
X23542857Y13428928D01*
X23257142Y13428928D01*
X23114285Y13500357D01*
X23042857Y13643214D01*
X23042857Y14214642D01*
X23114285Y14357500D01*
X23257142Y14428928D01*
X23542857Y14428928D01*
X23685714Y14357500D01*
X23757142Y14214642D01*
X23757142Y14071785D01*
X23042857Y13928928D01*
X26042857Y14214642D02*
X26257142Y14143214D01*
X26328571Y14071785D01*
X26399999Y13928928D01*
X26399999Y13714642D01*
X26328571Y13571785D01*
X26257142Y13500357D01*
X26114285Y13428928D01*
X25542857Y13428928D01*
X25542857Y14928928D01*
X26042857Y14928928D01*
X26185714Y14857500D01*
X26257142Y14786071D01*
X26328571Y14643214D01*
X26328571Y14500357D01*
X26257142Y14357500D01*
X26185714Y14286071D01*
X26042857Y14214642D01*
X25542857Y14214642D01*
X27257142Y13428928D02*
X27114285Y13500357D01*
X27042857Y13571785D01*
X26971428Y13714642D01*
X26971428Y14143214D01*
X27042857Y14286071D01*
X27114285Y14357500D01*
X27257142Y14428928D01*
X27471428Y14428928D01*
X27614285Y14357500D01*
X27685714Y14286071D01*
X27757142Y14143214D01*
X27757142Y13714642D01*
X27685714Y13571785D01*
X27614285Y13500357D01*
X27471428Y13428928D01*
X27257142Y13428928D01*
X29042857Y13428928D02*
X29042857Y14214642D01*
X28971428Y14357500D01*
X28828571Y14428928D01*
X28542857Y14428928D01*
X28400000Y14357500D01*
X29042857Y13500357D02*
X28900000Y13428928D01*
X28542857Y13428928D01*
X28400000Y13500357D01*
X28328571Y13643214D01*
X28328571Y13786071D01*
X28400000Y13928928D01*
X28542857Y14000357D01*
X28900000Y14000357D01*
X29042857Y14071785D01*
X29757142Y13428928D02*
X29757142Y14428928D01*
X29757142Y14143214D02*
X29828571Y14286071D01*
X29900000Y14357500D01*
X30042857Y14428928D01*
X30185714Y14428928D01*
X31328571Y13428928D02*
X31328571Y14928928D01*
X31328571Y13500357D02*
X31185714Y13428928D01*
X30900000Y13428928D01*
X30757142Y13500357D01*
X30685714Y13571785D01*
X30614285Y13714642D01*
X30614285Y14143214D01*
X30685714Y14286071D01*
X30757142Y14357500D01*
X30900000Y14428928D01*
X31185714Y14428928D01*
X31328571Y14357500D01*
X15114285Y11156785D02*
X15042857Y11085357D01*
X14828571Y11013928D01*
X14685714Y11013928D01*
X14471428Y11085357D01*
X14328571Y11228214D01*
X14257142Y11371071D01*
X14185714Y11656785D01*
X14185714Y11871071D01*
X14257142Y12156785D01*
X14328571Y12299642D01*
X14471428Y12442500D01*
X14685714Y12513928D01*
X14828571Y12513928D01*
X15042857Y12442500D01*
X15114285Y12371071D01*
X15757142Y11156785D02*
X15828571Y11085357D01*
X15757142Y11013928D01*
X15685714Y11085357D01*
X15757142Y11156785D01*
X15757142Y11013928D01*
X16471428Y11013928D02*
X16471428Y12513928D01*
X16471428Y11799642D02*
X17328571Y11799642D01*
X17328571Y11013928D02*
X17328571Y12513928D01*
X18042857Y11013928D02*
X18042857Y12013928D01*
X18042857Y12513928D02*
X17971428Y12442500D01*
X18042857Y12371071D01*
X18114285Y12442500D01*
X18042857Y12513928D01*
X18042857Y12371071D01*
X18971428Y11013928D02*
X18828571Y11085357D01*
X18757142Y11228214D01*
X18757142Y12513928D01*
X19757142Y11013928D02*
X19614285Y11085357D01*
X19542857Y11228214D01*
X19542857Y12513928D01*
X20328571Y11013928D02*
X20328571Y12013928D01*
X20328571Y12513928D02*
X20257142Y12442500D01*
X20328571Y12371071D01*
X20400000Y12442500D01*
X20328571Y12513928D01*
X20328571Y12371071D01*
X20971428Y11085357D02*
X21114285Y11013928D01*
X21400000Y11013928D01*
X21542857Y11085357D01*
X21614285Y11228214D01*
X21614285Y11299642D01*
X21542857Y11442500D01*
X21400000Y11513928D01*
X21185714Y11513928D01*
X21042857Y11585357D01*
X20971428Y11728214D01*
X20971428Y11799642D01*
X21042857Y11942500D01*
X21185714Y12013928D01*
X21400000Y12013928D01*
X21542857Y11942500D01*
X15257142Y9956071D02*
X15328571Y10027500D01*
X15471428Y10098928D01*
X15828571Y10098928D01*
X15971428Y10027500D01*
X16042857Y9956071D01*
X16114285Y9813214D01*
X16114285Y9670357D01*
X16042857Y9456071D01*
X15185714Y8598928D01*
X16114285Y8598928D01*
X17828571Y10170357D02*
X16542857Y8241785D01*
X18257142Y9956071D02*
X18328571Y10027500D01*
X18471428Y10098928D01*
X18828571Y10098928D01*
X18971428Y10027500D01*
X19042857Y9956071D01*
X19114285Y9813214D01*
X19114285Y9670357D01*
X19042857Y9456071D01*
X18185714Y8598928D01*
X19114285Y8598928D01*
X20542857Y8598928D02*
X19685714Y8598928D01*
X20114285Y8598928D02*
X20114285Y10098928D01*
X19971428Y9884642D01*
X19828571Y9741785D01*
X19685714Y9670357D01*
D11*
X43952380Y24047619D02*
X43476190Y23714285D01*
X43952380Y23476190D02*
X42952380Y23476190D01*
X42952380Y23857142D01*
X43000000Y23952380D01*
X43047619Y24000000D01*
X43142857Y24047619D01*
X43285714Y24047619D01*
X43380952Y24000000D01*
X43428571Y23952380D01*
X43476190Y23857142D01*
X43476190Y23476190D01*
X43428571Y24476190D02*
X43428571Y24809523D01*
X43952380Y24952380D02*
X43952380Y24476190D01*
X42952380Y24476190D01*
X42952380Y24952380D01*
X43904761Y25333333D02*
X43952380Y25476190D01*
X43952380Y25714285D01*
X43904761Y25809523D01*
X43857142Y25857142D01*
X43761904Y25904761D01*
X43666666Y25904761D01*
X43571428Y25857142D01*
X43523809Y25809523D01*
X43476190Y25714285D01*
X43428571Y25523809D01*
X43380952Y25428571D01*
X43333333Y25380952D01*
X43238095Y25333333D01*
X43142857Y25333333D01*
X43047619Y25380952D01*
X43000000Y25428571D01*
X42952380Y25523809D01*
X42952380Y25761904D01*
X43000000Y25904761D01*
X43428571Y26333333D02*
X43428571Y26666666D01*
X43952380Y26809523D02*
X43952380Y26333333D01*
X42952380Y26333333D01*
X42952380Y26809523D01*
X42952380Y27095238D02*
X42952380Y27666666D01*
X43952380Y27380952D02*
X42952380Y27380952D01*
D12*
X21071428Y48821428D02*
X22000000Y48821428D01*
X21500000Y48250000D01*
X21714285Y48250000D01*
X21857142Y48178571D01*
X21928571Y48107142D01*
X22000000Y47964285D01*
X22000000Y47607142D01*
X21928571Y47464285D01*
X21857142Y47392857D01*
X21714285Y47321428D01*
X21285714Y47321428D01*
X21142857Y47392857D01*
X21071428Y47464285D01*
X22642857Y47464285D02*
X22714285Y47392857D01*
X22642857Y47321428D01*
X22571428Y47392857D01*
X22642857Y47464285D01*
X22642857Y47321428D01*
X23214285Y48821428D02*
X24142857Y48821428D01*
X23642857Y48250000D01*
X23857142Y48250000D01*
X24000000Y48178571D01*
X24071428Y48107142D01*
X24142857Y47964285D01*
X24142857Y47607142D01*
X24071428Y47464285D01*
X24000000Y47392857D01*
X23857142Y47321428D01*
X23428571Y47321428D01*
X23285714Y47392857D01*
X23214285Y47464285D01*
X24571428Y48821428D02*
X25071428Y47321428D01*
X25571428Y48821428D01*
X27214285Y47321428D02*
X27214285Y48821428D01*
X28214285Y48821428D02*
X28500000Y48821428D01*
X28642857Y48750000D01*
X28785714Y48607142D01*
X28857142Y48321428D01*
X28857142Y47821428D01*
X28785714Y47535714D01*
X28642857Y47392857D01*
X28500000Y47321428D01*
X28214285Y47321428D01*
X28071428Y47392857D01*
X27928571Y47535714D01*
X27857142Y47821428D01*
X27857142Y48321428D01*
X27928571Y48607142D01*
X28071428Y48750000D01*
X28214285Y48821428D01*
D11*
X57952380Y19166666D02*
X56952380Y19166666D01*
X56952380Y19547619D01*
X57000000Y19642857D01*
X57047619Y19690476D01*
X57142857Y19738095D01*
X57285714Y19738095D01*
X57380952Y19690476D01*
X57428571Y19642857D01*
X57476190Y19547619D01*
X57476190Y19166666D01*
X57666666Y20119047D02*
X57666666Y20595238D01*
X57952380Y20023809D02*
X56952380Y20357142D01*
X57952380Y20690476D01*
X57476190Y21214285D02*
X57952380Y21214285D01*
X56952380Y20880952D02*
X57476190Y21214285D01*
X56952380Y21547619D01*
X57952380Y22357142D02*
X57952380Y21880952D01*
X56952380Y21880952D01*
X56952380Y22880952D02*
X56952380Y23071428D01*
X57000000Y23166666D01*
X57095238Y23261904D01*
X57285714Y23309523D01*
X57619047Y23309523D01*
X57809523Y23261904D01*
X57904761Y23166666D01*
X57952380Y23071428D01*
X57952380Y22880952D01*
X57904761Y22785714D01*
X57809523Y22690476D01*
X57619047Y22642857D01*
X57285714Y22642857D01*
X57095238Y22690476D01*
X57000000Y22785714D01*
X56952380Y22880952D01*
X57666666Y23690476D02*
X57666666Y24166666D01*
X57952380Y23595238D02*
X56952380Y23928571D01*
X57952380Y24261904D01*
X57952380Y24595238D02*
X56952380Y24595238D01*
X56952380Y24833333D01*
X57000000Y24976190D01*
X57095238Y25071428D01*
X57190476Y25119047D01*
X57380952Y25166666D01*
X57523809Y25166666D01*
X57714285Y25119047D01*
X57809523Y25071428D01*
X57904761Y24976190D01*
X57952380Y24833333D01*
X57952380Y24595238D01*
X58047619Y25357142D02*
X58047619Y26119047D01*
X57952380Y26928571D02*
X57476190Y26595238D01*
X57952380Y26357142D02*
X56952380Y26357142D01*
X56952380Y26738095D01*
X57000000Y26833333D01*
X57047619Y26880952D01*
X57142857Y26928571D01*
X57285714Y26928571D01*
X57380952Y26880952D01*
X57428571Y26833333D01*
X57476190Y26738095D01*
X57476190Y26357142D01*
X56952380Y27261904D02*
X57952380Y27928571D01*
X56952380Y27928571D02*
X57952380Y27261904D01*
D12*
X23500000Y31321428D02*
X22785714Y31321428D01*
X22714285Y30607142D01*
X22785714Y30678571D01*
X22928571Y30750000D01*
X23285714Y30750000D01*
X23428571Y30678571D01*
X23500000Y30607142D01*
X23571428Y30464285D01*
X23571428Y30107142D01*
X23500000Y29964285D01*
X23428571Y29892857D01*
X23285714Y29821428D01*
X22928571Y29821428D01*
X22785714Y29892857D01*
X22714285Y29964285D01*
X24000000Y31321428D02*
X24500000Y29821428D01*
X25000000Y31321428D01*
X26642857Y29821428D02*
X26642857Y31321428D01*
X27642857Y31321428D02*
X27928571Y31321428D01*
X28071428Y31250000D01*
X28214285Y31107142D01*
X28285714Y30821428D01*
X28285714Y30321428D01*
X28214285Y30035714D01*
X28071428Y29892857D01*
X27928571Y29821428D01*
X27642857Y29821428D01*
X27500000Y29892857D01*
X27357142Y30035714D01*
X27285714Y30321428D01*
X27285714Y30821428D01*
X27357142Y31107142D01*
X27500000Y31250000D01*
X27642857Y31321428D01*
D11*
X50952380Y19285714D02*
X49952380Y19285714D01*
X49952380Y19666666D01*
X50000000Y19761904D01*
X50047619Y19809523D01*
X50142857Y19857142D01*
X50285714Y19857142D01*
X50380952Y19809523D01*
X50428571Y19761904D01*
X50476190Y19666666D01*
X50476190Y19285714D01*
X50666666Y20238095D02*
X50666666Y20714285D01*
X50952380Y20142857D02*
X49952380Y20476190D01*
X50952380Y20809523D01*
X50476190Y21333333D02*
X50952380Y21333333D01*
X49952380Y21000000D02*
X50476190Y21333333D01*
X49952380Y21666666D01*
X50952380Y22476190D02*
X50952380Y22000000D01*
X49952380Y22000000D01*
X49952380Y23000000D02*
X49952380Y23190476D01*
X50000000Y23285714D01*
X50095238Y23380952D01*
X50285714Y23428571D01*
X50619047Y23428571D01*
X50809523Y23380952D01*
X50904761Y23285714D01*
X50952380Y23190476D01*
X50952380Y23000000D01*
X50904761Y22904761D01*
X50809523Y22809523D01*
X50619047Y22761904D01*
X50285714Y22761904D01*
X50095238Y22809523D01*
X50000000Y22904761D01*
X49952380Y23000000D01*
X50666666Y23809523D02*
X50666666Y24285714D01*
X50952380Y23714285D02*
X49952380Y24047619D01*
X50952380Y24380952D01*
X50952380Y24714285D02*
X49952380Y24714285D01*
X49952380Y24952380D01*
X50000000Y25095238D01*
X50095238Y25190476D01*
X50190476Y25238095D01*
X50380952Y25285714D01*
X50523809Y25285714D01*
X50714285Y25238095D01*
X50809523Y25190476D01*
X50904761Y25095238D01*
X50952380Y24952380D01*
X50952380Y24714285D01*
X51047619Y25476190D02*
X51047619Y26238095D01*
X49952380Y26333333D02*
X49952380Y26904761D01*
X50952380Y26619047D02*
X49952380Y26619047D01*
X49952380Y27142857D02*
X50952380Y27809523D01*
X49952380Y27809523D02*
X50952380Y27142857D01*
D13*
%TO.C,D3*%
X11596309Y100423738D02*
X11596309Y101058738D01*
X11747500Y101058738D01*
X11838214Y101028500D01*
X11898690Y100968023D01*
X11928928Y100907547D01*
X11959166Y100786595D01*
X11959166Y100695880D01*
X11928928Y100574928D01*
X11898690Y100514452D01*
X11838214Y100453976D01*
X11747500Y100423738D01*
X11596309Y100423738D01*
X12170833Y101058738D02*
X12563928Y101058738D01*
X12352261Y100816833D01*
X12442976Y100816833D01*
X12503452Y100786595D01*
X12533690Y100756357D01*
X12563928Y100695880D01*
X12563928Y100544690D01*
X12533690Y100484214D01*
X12503452Y100453976D01*
X12442976Y100423738D01*
X12261547Y100423738D01*
X12201071Y100453976D01*
X12170833Y100484214D01*
%TO.C,SW1*%
X13123333Y96770976D02*
X13214047Y96740738D01*
X13365238Y96740738D01*
X13425714Y96770976D01*
X13455952Y96801214D01*
X13486190Y96861690D01*
X13486190Y96922166D01*
X13455952Y96982642D01*
X13425714Y97012880D01*
X13365238Y97043119D01*
X13244285Y97073357D01*
X13183809Y97103595D01*
X13153571Y97133833D01*
X13123333Y97194309D01*
X13123333Y97254785D01*
X13153571Y97315261D01*
X13183809Y97345500D01*
X13244285Y97375738D01*
X13395476Y97375738D01*
X13486190Y97345500D01*
X13697857Y97375738D02*
X13849047Y96740738D01*
X13970000Y97194309D01*
X14090952Y96740738D01*
X14242142Y97375738D01*
X14816666Y96740738D02*
X14453809Y96740738D01*
X14635238Y96740738D02*
X14635238Y97375738D01*
X14574761Y97285023D01*
X14514285Y97224547D01*
X14453809Y97194309D01*
D14*
%TO.C,C7*%
X3135333Y92098857D02*
X3087714Y92051238D01*
X2944857Y92003619D01*
X2849619Y92003619D01*
X2706761Y92051238D01*
X2611523Y92146476D01*
X2563904Y92241714D01*
X2516285Y92432190D01*
X2516285Y92575047D01*
X2563904Y92765523D01*
X2611523Y92860761D01*
X2706761Y92956000D01*
X2849619Y93003619D01*
X2944857Y93003619D01*
X3087714Y92956000D01*
X3135333Y92908380D01*
X3468666Y93003619D02*
X4135333Y93003619D01*
X3706761Y92003619D01*
%TO.C,C8*%
X87717333Y91908357D02*
X87669714Y91860738D01*
X87526857Y91813119D01*
X87431619Y91813119D01*
X87288761Y91860738D01*
X87193523Y91955976D01*
X87145904Y92051214D01*
X87098285Y92241690D01*
X87098285Y92384547D01*
X87145904Y92575023D01*
X87193523Y92670261D01*
X87288761Y92765500D01*
X87431619Y92813119D01*
X87526857Y92813119D01*
X87669714Y92765500D01*
X87717333Y92717880D01*
X88288761Y92384547D02*
X88193523Y92432166D01*
X88145904Y92479785D01*
X88098285Y92575023D01*
X88098285Y92622642D01*
X88145904Y92717880D01*
X88193523Y92765500D01*
X88288761Y92813119D01*
X88479238Y92813119D01*
X88574476Y92765500D01*
X88622095Y92717880D01*
X88669714Y92622642D01*
X88669714Y92575023D01*
X88622095Y92479785D01*
X88574476Y92432166D01*
X88479238Y92384547D01*
X88288761Y92384547D01*
X88193523Y92336928D01*
X88145904Y92289309D01*
X88098285Y92194071D01*
X88098285Y92003595D01*
X88145904Y91908357D01*
X88193523Y91860738D01*
X88288761Y91813119D01*
X88479238Y91813119D01*
X88574476Y91860738D01*
X88622095Y91908357D01*
X88669714Y92003595D01*
X88669714Y92194071D01*
X88622095Y92289309D01*
X88574476Y92336928D01*
X88479238Y92384547D01*
%TO.C,C9*%
X89257142Y8723333D02*
X89304761Y8675714D01*
X89352380Y8532857D01*
X89352380Y8437619D01*
X89304761Y8294761D01*
X89209523Y8199523D01*
X89114285Y8151904D01*
X88923809Y8104285D01*
X88780952Y8104285D01*
X88590476Y8151904D01*
X88495238Y8199523D01*
X88400000Y8294761D01*
X88352380Y8437619D01*
X88352380Y8532857D01*
X88400000Y8675714D01*
X88447619Y8723333D01*
X89352380Y9199523D02*
X89352380Y9390000D01*
X89304761Y9485238D01*
X89257142Y9532857D01*
X89114285Y9628095D01*
X88923809Y9675714D01*
X88542857Y9675714D01*
X88447619Y9628095D01*
X88400000Y9580476D01*
X88352380Y9485238D01*
X88352380Y9294761D01*
X88400000Y9199523D01*
X88447619Y9151904D01*
X88542857Y9104285D01*
X88780952Y9104285D01*
X88876190Y9151904D01*
X88923809Y9199523D01*
X88971428Y9294761D01*
X88971428Y9485238D01*
X88923809Y9580476D01*
X88876190Y9628095D01*
X88780952Y9675714D01*
%TO.C,C10*%
X1500142Y8183642D02*
X1547761Y8136023D01*
X1595380Y7993166D01*
X1595380Y7897928D01*
X1547761Y7755071D01*
X1452523Y7659833D01*
X1357285Y7612214D01*
X1166809Y7564595D01*
X1023952Y7564595D01*
X833476Y7612214D01*
X738238Y7659833D01*
X643000Y7755071D01*
X595380Y7897928D01*
X595380Y7993166D01*
X643000Y8136023D01*
X690619Y8183642D01*
X1595380Y9136023D02*
X1595380Y8564595D01*
X1595380Y8850309D02*
X595380Y8850309D01*
X738238Y8755071D01*
X833476Y8659833D01*
X881095Y8564595D01*
X595380Y9755071D02*
X595380Y9850309D01*
X643000Y9945547D01*
X690619Y9993166D01*
X785857Y10040785D01*
X976333Y10088404D01*
X1214428Y10088404D01*
X1404904Y10040785D01*
X1500142Y9993166D01*
X1547761Y9945547D01*
X1595380Y9850309D01*
X1595380Y9755071D01*
X1547761Y9659833D01*
X1500142Y9612214D01*
X1404904Y9564595D01*
X1214428Y9516976D01*
X976333Y9516976D01*
X785857Y9564595D01*
X690619Y9612214D01*
X643000Y9659833D01*
X595380Y9755071D01*
D13*
%TO.C,C3*%
X83026785Y95494166D02*
X83057023Y95463928D01*
X83087261Y95373214D01*
X83087261Y95312738D01*
X83057023Y95222023D01*
X82996547Y95161547D01*
X82936071Y95131309D01*
X82815119Y95101071D01*
X82724404Y95101071D01*
X82603452Y95131309D01*
X82542976Y95161547D01*
X82482500Y95222023D01*
X82452261Y95312738D01*
X82452261Y95373214D01*
X82482500Y95463928D01*
X82512738Y95494166D01*
X82452261Y95705833D02*
X82452261Y96098928D01*
X82694166Y95887261D01*
X82694166Y95977976D01*
X82724404Y96038452D01*
X82754642Y96068690D01*
X82815119Y96098928D01*
X82966309Y96098928D01*
X83026785Y96068690D01*
X83057023Y96038452D01*
X83087261Y95977976D01*
X83087261Y95796547D01*
X83057023Y95736071D01*
X83026785Y95705833D01*
%TO.C,C4*%
X81344166Y96023214D02*
X81313928Y95992976D01*
X81223214Y95962738D01*
X81162738Y95962738D01*
X81072023Y95992976D01*
X81011547Y96053452D01*
X80981309Y96113928D01*
X80951071Y96234880D01*
X80951071Y96325595D01*
X80981309Y96446547D01*
X81011547Y96507023D01*
X81072023Y96567500D01*
X81162738Y96597738D01*
X81223214Y96597738D01*
X81313928Y96567500D01*
X81344166Y96537261D01*
X81888452Y96386071D02*
X81888452Y95962738D01*
X81737261Y96627976D02*
X81586071Y96174404D01*
X81979166Y96174404D01*
%TO.C,C1*%
X75586166Y99277714D02*
X75555928Y99247476D01*
X75465214Y99217238D01*
X75404738Y99217238D01*
X75314023Y99247476D01*
X75253547Y99307952D01*
X75223309Y99368428D01*
X75193071Y99489380D01*
X75193071Y99580095D01*
X75223309Y99701047D01*
X75253547Y99761523D01*
X75314023Y99822000D01*
X75404738Y99852238D01*
X75465214Y99852238D01*
X75555928Y99822000D01*
X75586166Y99791761D01*
X76190928Y99217238D02*
X75828071Y99217238D01*
X76009500Y99217238D02*
X76009500Y99852238D01*
X75949023Y99761523D01*
X75888547Y99701047D01*
X75828071Y99670809D01*
%TO.C,C2*%
X74633666Y94007214D02*
X74603428Y93976976D01*
X74512714Y93946738D01*
X74452238Y93946738D01*
X74361523Y93976976D01*
X74301047Y94037452D01*
X74270809Y94097928D01*
X74240571Y94218880D01*
X74240571Y94309595D01*
X74270809Y94430547D01*
X74301047Y94491023D01*
X74361523Y94551500D01*
X74452238Y94581738D01*
X74512714Y94581738D01*
X74603428Y94551500D01*
X74633666Y94521261D01*
X74875571Y94521261D02*
X74905809Y94551500D01*
X74966285Y94581738D01*
X75117476Y94581738D01*
X75177952Y94551500D01*
X75208190Y94521261D01*
X75238428Y94460785D01*
X75238428Y94400309D01*
X75208190Y94309595D01*
X74845333Y93946738D01*
X75238428Y93946738D01*
%TO.C,Q7*%
X6443738Y99190023D02*
X6413500Y99129547D01*
X6353023Y99069071D01*
X6262309Y98978357D01*
X6232071Y98917880D01*
X6232071Y98857404D01*
X6383261Y98887642D02*
X6353023Y98827166D01*
X6292547Y98766690D01*
X6171595Y98736452D01*
X5959928Y98736452D01*
X5838976Y98766690D01*
X5778500Y98827166D01*
X5748261Y98887642D01*
X5748261Y99008595D01*
X5778500Y99069071D01*
X5838976Y99129547D01*
X5959928Y99159785D01*
X6171595Y99159785D01*
X6292547Y99129547D01*
X6353023Y99069071D01*
X6383261Y99008595D01*
X6383261Y98887642D01*
X5748261Y99371452D02*
X5748261Y99794785D01*
X6383261Y99522642D01*
%TO.C,R24*%
X11082261Y94397285D02*
X10779880Y94185619D01*
X11082261Y94034428D02*
X10447261Y94034428D01*
X10447261Y94276333D01*
X10477500Y94336809D01*
X10507738Y94367047D01*
X10568214Y94397285D01*
X10658928Y94397285D01*
X10719404Y94367047D01*
X10749642Y94336809D01*
X10779880Y94276333D01*
X10779880Y94034428D01*
X10507738Y94639190D02*
X10477500Y94669428D01*
X10447261Y94729904D01*
X10447261Y94881095D01*
X10477500Y94941571D01*
X10507738Y94971809D01*
X10568214Y95002047D01*
X10628690Y95002047D01*
X10719404Y94971809D01*
X11082261Y94608952D01*
X11082261Y95002047D01*
X10658928Y95546333D02*
X11082261Y95546333D01*
X10417023Y95395142D02*
X10870595Y95243952D01*
X10870595Y95637047D01*
%TO.C,R22*%
X8161261Y96175285D02*
X7858880Y95963619D01*
X8161261Y95812428D02*
X7526261Y95812428D01*
X7526261Y96054333D01*
X7556500Y96114809D01*
X7586738Y96145047D01*
X7647214Y96175285D01*
X7737928Y96175285D01*
X7798404Y96145047D01*
X7828642Y96114809D01*
X7858880Y96054333D01*
X7858880Y95812428D01*
X7586738Y96417190D02*
X7556500Y96447428D01*
X7526261Y96507904D01*
X7526261Y96659095D01*
X7556500Y96719571D01*
X7586738Y96749809D01*
X7647214Y96780047D01*
X7707690Y96780047D01*
X7798404Y96749809D01*
X8161261Y96386952D01*
X8161261Y96780047D01*
X7586738Y97021952D02*
X7556500Y97052190D01*
X7526261Y97112666D01*
X7526261Y97263857D01*
X7556500Y97324333D01*
X7586738Y97354571D01*
X7647214Y97384809D01*
X7707690Y97384809D01*
X7798404Y97354571D01*
X8161261Y96991714D01*
X8161261Y97384809D01*
%TO.C,R18*%
X9748761Y96175285D02*
X9446380Y95963619D01*
X9748761Y95812428D02*
X9113761Y95812428D01*
X9113761Y96054333D01*
X9144000Y96114809D01*
X9174238Y96145047D01*
X9234714Y96175285D01*
X9325428Y96175285D01*
X9385904Y96145047D01*
X9416142Y96114809D01*
X9446380Y96054333D01*
X9446380Y95812428D01*
X9748761Y96780047D02*
X9748761Y96417190D01*
X9748761Y96598619D02*
X9113761Y96598619D01*
X9204476Y96538142D01*
X9264952Y96477666D01*
X9295190Y96417190D01*
X9385904Y97142904D02*
X9355666Y97082428D01*
X9325428Y97052190D01*
X9264952Y97021952D01*
X9234714Y97021952D01*
X9174238Y97052190D01*
X9144000Y97082428D01*
X9113761Y97142904D01*
X9113761Y97263857D01*
X9144000Y97324333D01*
X9174238Y97354571D01*
X9234714Y97384809D01*
X9264952Y97384809D01*
X9325428Y97354571D01*
X9355666Y97324333D01*
X9385904Y97263857D01*
X9385904Y97142904D01*
X9416142Y97082428D01*
X9446380Y97052190D01*
X9506857Y97021952D01*
X9627809Y97021952D01*
X9688285Y97052190D01*
X9718523Y97082428D01*
X9748761Y97142904D01*
X9748761Y97263857D01*
X9718523Y97324333D01*
X9688285Y97354571D01*
X9627809Y97384809D01*
X9506857Y97384809D01*
X9446380Y97354571D01*
X9416142Y97324333D01*
X9385904Y97263857D01*
%TO.C,R13*%
X78014285Y93629238D02*
X77802619Y93931619D01*
X77651428Y93629238D02*
X77651428Y94264238D01*
X77893333Y94264238D01*
X77953809Y94234000D01*
X77984047Y94203761D01*
X78014285Y94143285D01*
X78014285Y94052571D01*
X77984047Y93992095D01*
X77953809Y93961857D01*
X77893333Y93931619D01*
X77651428Y93931619D01*
X78619047Y93629238D02*
X78256190Y93629238D01*
X78437619Y93629238D02*
X78437619Y94264238D01*
X78377142Y94173523D01*
X78316666Y94113047D01*
X78256190Y94082809D01*
X78830714Y94264238D02*
X79223809Y94264238D01*
X79012142Y94022333D01*
X79102857Y94022333D01*
X79163333Y93992095D01*
X79193571Y93961857D01*
X79223809Y93901380D01*
X79223809Y93750190D01*
X79193571Y93689714D01*
X79163333Y93659476D01*
X79102857Y93629238D01*
X78921428Y93629238D01*
X78860952Y93659476D01*
X78830714Y93689714D01*
%TO.C,U1*%
X78129190Y99788738D02*
X78129190Y99274690D01*
X78159428Y99214214D01*
X78189666Y99183976D01*
X78250142Y99153738D01*
X78371095Y99153738D01*
X78431571Y99183976D01*
X78461809Y99214214D01*
X78492047Y99274690D01*
X78492047Y99788738D01*
X79127047Y99153738D02*
X78764190Y99153738D01*
X78945619Y99153738D02*
X78945619Y99788738D01*
X78885142Y99698023D01*
X78824666Y99637547D01*
X78764190Y99607309D01*
%TO.C,R14*%
X80091785Y93762738D02*
X79880119Y94065119D01*
X79728928Y93762738D02*
X79728928Y94397738D01*
X79970833Y94397738D01*
X80031309Y94367500D01*
X80061547Y94337261D01*
X80091785Y94276785D01*
X80091785Y94186071D01*
X80061547Y94125595D01*
X80031309Y94095357D01*
X79970833Y94065119D01*
X79728928Y94065119D01*
X80696547Y93762738D02*
X80333690Y93762738D01*
X80515119Y93762738D02*
X80515119Y94397738D01*
X80454642Y94307023D01*
X80394166Y94246547D01*
X80333690Y94216309D01*
X81240833Y94186071D02*
X81240833Y93762738D01*
X81089642Y94427976D02*
X80938452Y93974404D01*
X81331547Y93974404D01*
D14*
%TO.C,R12*%
X60952380Y42357142D02*
X60476190Y42023809D01*
X60952380Y41785714D02*
X59952380Y41785714D01*
X59952380Y42166666D01*
X60000000Y42261904D01*
X60047619Y42309523D01*
X60142857Y42357142D01*
X60285714Y42357142D01*
X60380952Y42309523D01*
X60428571Y42261904D01*
X60476190Y42166666D01*
X60476190Y41785714D01*
X60952380Y43309523D02*
X60952380Y42738095D01*
X60952380Y43023809D02*
X59952380Y43023809D01*
X60095238Y42928571D01*
X60190476Y42833333D01*
X60238095Y42738095D01*
X60047619Y43690476D02*
X60000000Y43738095D01*
X59952380Y43833333D01*
X59952380Y44071428D01*
X60000000Y44166666D01*
X60047619Y44214285D01*
X60142857Y44261904D01*
X60238095Y44261904D01*
X60380952Y44214285D01*
X60952380Y43642857D01*
X60952380Y44261904D01*
%TO.C,Q4*%
X55647619Y39404761D02*
X55600000Y39309523D01*
X55504761Y39214285D01*
X55361904Y39071428D01*
X55314285Y38976190D01*
X55314285Y38880952D01*
X55552380Y38928571D02*
X55504761Y38833333D01*
X55409523Y38738095D01*
X55219047Y38690476D01*
X54885714Y38690476D01*
X54695238Y38738095D01*
X54600000Y38833333D01*
X54552380Y38928571D01*
X54552380Y39119047D01*
X54600000Y39214285D01*
X54695238Y39309523D01*
X54885714Y39357142D01*
X55219047Y39357142D01*
X55409523Y39309523D01*
X55504761Y39214285D01*
X55552380Y39119047D01*
X55552380Y38928571D01*
X54885714Y40214285D02*
X55552380Y40214285D01*
X54504761Y39976190D02*
X55219047Y39738095D01*
X55219047Y40357142D01*
%TO.C,R9*%
X56333333Y43977619D02*
X56000000Y44453809D01*
X55761904Y43977619D02*
X55761904Y44977619D01*
X56142857Y44977619D01*
X56238095Y44930000D01*
X56285714Y44882380D01*
X56333333Y44787142D01*
X56333333Y44644285D01*
X56285714Y44549047D01*
X56238095Y44501428D01*
X56142857Y44453809D01*
X55761904Y44453809D01*
X56809523Y43977619D02*
X57000000Y43977619D01*
X57095238Y44025238D01*
X57142857Y44072857D01*
X57238095Y44215714D01*
X57285714Y44406190D01*
X57285714Y44787142D01*
X57238095Y44882380D01*
X57190476Y44930000D01*
X57095238Y44977619D01*
X56904761Y44977619D01*
X56809523Y44930000D01*
X56761904Y44882380D01*
X56714285Y44787142D01*
X56714285Y44549047D01*
X56761904Y44453809D01*
X56809523Y44406190D01*
X56904761Y44358571D01*
X57095238Y44358571D01*
X57190476Y44406190D01*
X57238095Y44453809D01*
X57285714Y44549047D01*
%TO.C,Q3*%
X41647619Y39404761D02*
X41600000Y39309523D01*
X41504761Y39214285D01*
X41361904Y39071428D01*
X41314285Y38976190D01*
X41314285Y38880952D01*
X41552380Y38928571D02*
X41504761Y38833333D01*
X41409523Y38738095D01*
X41219047Y38690476D01*
X40885714Y38690476D01*
X40695238Y38738095D01*
X40600000Y38833333D01*
X40552380Y38928571D01*
X40552380Y39119047D01*
X40600000Y39214285D01*
X40695238Y39309523D01*
X40885714Y39357142D01*
X41219047Y39357142D01*
X41409523Y39309523D01*
X41504761Y39214285D01*
X41552380Y39119047D01*
X41552380Y38928571D01*
X40552380Y39690476D02*
X40552380Y40309523D01*
X40933333Y39976190D01*
X40933333Y40119047D01*
X40980952Y40214285D01*
X41028571Y40261904D01*
X41123809Y40309523D01*
X41361904Y40309523D01*
X41457142Y40261904D01*
X41504761Y40214285D01*
X41552380Y40119047D01*
X41552380Y39833333D01*
X41504761Y39738095D01*
X41457142Y39690476D01*
%TO.C,R3*%
X49333333Y43977619D02*
X49000000Y44453809D01*
X48761904Y43977619D02*
X48761904Y44977619D01*
X49142857Y44977619D01*
X49238095Y44930000D01*
X49285714Y44882380D01*
X49333333Y44787142D01*
X49333333Y44644285D01*
X49285714Y44549047D01*
X49238095Y44501428D01*
X49142857Y44453809D01*
X48761904Y44453809D01*
X49666666Y44977619D02*
X50285714Y44977619D01*
X49952380Y44596666D01*
X50095238Y44596666D01*
X50190476Y44549047D01*
X50238095Y44501428D01*
X50285714Y44406190D01*
X50285714Y44168095D01*
X50238095Y44072857D01*
X50190476Y44025238D01*
X50095238Y43977619D01*
X49809523Y43977619D01*
X49714285Y44025238D01*
X49666666Y44072857D01*
%TO.C,Q2*%
X48647619Y39404761D02*
X48600000Y39309523D01*
X48504761Y39214285D01*
X48361904Y39071428D01*
X48314285Y38976190D01*
X48314285Y38880952D01*
X48552380Y38928571D02*
X48504761Y38833333D01*
X48409523Y38738095D01*
X48219047Y38690476D01*
X47885714Y38690476D01*
X47695238Y38738095D01*
X47600000Y38833333D01*
X47552380Y38928571D01*
X47552380Y39119047D01*
X47600000Y39214285D01*
X47695238Y39309523D01*
X47885714Y39357142D01*
X48219047Y39357142D01*
X48409523Y39309523D01*
X48504761Y39214285D01*
X48552380Y39119047D01*
X48552380Y38928571D01*
X47647619Y39738095D02*
X47600000Y39785714D01*
X47552380Y39880952D01*
X47552380Y40119047D01*
X47600000Y40214285D01*
X47647619Y40261904D01*
X47742857Y40309523D01*
X47838095Y40309523D01*
X47980952Y40261904D01*
X48552380Y39690476D01*
X48552380Y40309523D01*
%TO.C,Q1*%
X34647619Y39404761D02*
X34600000Y39309523D01*
X34504761Y39214285D01*
X34361904Y39071428D01*
X34314285Y38976190D01*
X34314285Y38880952D01*
X34552380Y38928571D02*
X34504761Y38833333D01*
X34409523Y38738095D01*
X34219047Y38690476D01*
X33885714Y38690476D01*
X33695238Y38738095D01*
X33600000Y38833333D01*
X33552380Y38928571D01*
X33552380Y39119047D01*
X33600000Y39214285D01*
X33695238Y39309523D01*
X33885714Y39357142D01*
X34219047Y39357142D01*
X34409523Y39309523D01*
X34504761Y39214285D01*
X34552380Y39119047D01*
X34552380Y38928571D01*
X34552380Y40309523D02*
X34552380Y39738095D01*
X34552380Y40023809D02*
X33552380Y40023809D01*
X33695238Y39928571D01*
X33790476Y39833333D01*
X33838095Y39738095D01*
%TO.C,R10*%
X56857142Y36477619D02*
X56523809Y36953809D01*
X56285714Y36477619D02*
X56285714Y37477619D01*
X56666666Y37477619D01*
X56761904Y37430000D01*
X56809523Y37382380D01*
X56857142Y37287142D01*
X56857142Y37144285D01*
X56809523Y37049047D01*
X56761904Y37001428D01*
X56666666Y36953809D01*
X56285714Y36953809D01*
X57809523Y36477619D02*
X57238095Y36477619D01*
X57523809Y36477619D02*
X57523809Y37477619D01*
X57428571Y37334761D01*
X57333333Y37239523D01*
X57238095Y37191904D01*
X58428571Y37477619D02*
X58523809Y37477619D01*
X58619047Y37430000D01*
X58666666Y37382380D01*
X58714285Y37287142D01*
X58761904Y37096666D01*
X58761904Y36858571D01*
X58714285Y36668095D01*
X58666666Y36572857D01*
X58619047Y36525238D01*
X58523809Y36477619D01*
X58428571Y36477619D01*
X58333333Y36525238D01*
X58285714Y36572857D01*
X58238095Y36668095D01*
X58190476Y36858571D01*
X58190476Y37096666D01*
X58238095Y37287142D01*
X58285714Y37382380D01*
X58333333Y37430000D01*
X58428571Y37477619D01*
%TO.C,R11*%
X46952380Y42357142D02*
X46476190Y42023809D01*
X46952380Y41785714D02*
X45952380Y41785714D01*
X45952380Y42166666D01*
X46000000Y42261904D01*
X46047619Y42309523D01*
X46142857Y42357142D01*
X46285714Y42357142D01*
X46380952Y42309523D01*
X46428571Y42261904D01*
X46476190Y42166666D01*
X46476190Y41785714D01*
X46952380Y43309523D02*
X46952380Y42738095D01*
X46952380Y43023809D02*
X45952380Y43023809D01*
X46095238Y42928571D01*
X46190476Y42833333D01*
X46238095Y42738095D01*
X46952380Y44261904D02*
X46952380Y43690476D01*
X46952380Y43976190D02*
X45952380Y43976190D01*
X46095238Y43880952D01*
X46190476Y43785714D01*
X46238095Y43690476D01*
%TO.C,R7*%
X42333333Y43977619D02*
X42000000Y44453809D01*
X41761904Y43977619D02*
X41761904Y44977619D01*
X42142857Y44977619D01*
X42238095Y44930000D01*
X42285714Y44882380D01*
X42333333Y44787142D01*
X42333333Y44644285D01*
X42285714Y44549047D01*
X42238095Y44501428D01*
X42142857Y44453809D01*
X41761904Y44453809D01*
X42666666Y44977619D02*
X43333333Y44977619D01*
X42904761Y43977619D01*
%TO.C,R8*%
X43333333Y36477619D02*
X43000000Y36953809D01*
X42761904Y36477619D02*
X42761904Y37477619D01*
X43142857Y37477619D01*
X43238095Y37430000D01*
X43285714Y37382380D01*
X43333333Y37287142D01*
X43333333Y37144285D01*
X43285714Y37049047D01*
X43238095Y37001428D01*
X43142857Y36953809D01*
X42761904Y36953809D01*
X43904761Y37049047D02*
X43809523Y37096666D01*
X43761904Y37144285D01*
X43714285Y37239523D01*
X43714285Y37287142D01*
X43761904Y37382380D01*
X43809523Y37430000D01*
X43904761Y37477619D01*
X44095238Y37477619D01*
X44190476Y37430000D01*
X44238095Y37382380D01*
X44285714Y37287142D01*
X44285714Y37239523D01*
X44238095Y37144285D01*
X44190476Y37096666D01*
X44095238Y37049047D01*
X43904761Y37049047D01*
X43809523Y37001428D01*
X43761904Y36953809D01*
X43714285Y36858571D01*
X43714285Y36668095D01*
X43761904Y36572857D01*
X43809523Y36525238D01*
X43904761Y36477619D01*
X44095238Y36477619D01*
X44190476Y36525238D01*
X44238095Y36572857D01*
X44285714Y36668095D01*
X44285714Y36858571D01*
X44238095Y36953809D01*
X44190476Y37001428D01*
X44095238Y37049047D01*
%TO.C,R4*%
X50333333Y36477619D02*
X50000000Y36953809D01*
X49761904Y36477619D02*
X49761904Y37477619D01*
X50142857Y37477619D01*
X50238095Y37430000D01*
X50285714Y37382380D01*
X50333333Y37287142D01*
X50333333Y37144285D01*
X50285714Y37049047D01*
X50238095Y37001428D01*
X50142857Y36953809D01*
X49761904Y36953809D01*
X51190476Y37144285D02*
X51190476Y36477619D01*
X50952380Y37525238D02*
X50714285Y36810952D01*
X51333333Y36810952D01*
%TO.C,R2*%
X36333333Y36477619D02*
X36000000Y36953809D01*
X35761904Y36477619D02*
X35761904Y37477619D01*
X36142857Y37477619D01*
X36238095Y37430000D01*
X36285714Y37382380D01*
X36333333Y37287142D01*
X36333333Y37144285D01*
X36285714Y37049047D01*
X36238095Y37001428D01*
X36142857Y36953809D01*
X35761904Y36953809D01*
X36714285Y37382380D02*
X36761904Y37430000D01*
X36857142Y37477619D01*
X37095238Y37477619D01*
X37190476Y37430000D01*
X37238095Y37382380D01*
X37285714Y37287142D01*
X37285714Y37191904D01*
X37238095Y37049047D01*
X36666666Y36477619D01*
X37285714Y36477619D01*
%TO.C,J1*%
X36141676Y15762618D02*
X36141676Y15048332D01*
X36094057Y14905475D01*
X35998819Y14810237D01*
X35855962Y14762618D01*
X35760724Y14762618D01*
X37141676Y14762618D02*
X36570248Y14762618D01*
X36855962Y14762618D02*
X36855962Y15762618D01*
X36760724Y15619760D01*
X36665486Y15524522D01*
X36570248Y15476903D01*
%TO.C,R1*%
X35333333Y43977619D02*
X35000000Y44453809D01*
X34761904Y43977619D02*
X34761904Y44977619D01*
X35142857Y44977619D01*
X35238095Y44930000D01*
X35285714Y44882380D01*
X35333333Y44787142D01*
X35333333Y44644285D01*
X35285714Y44549047D01*
X35238095Y44501428D01*
X35142857Y44453809D01*
X34761904Y44453809D01*
X36285714Y43977619D02*
X35714285Y43977619D01*
X36000000Y43977619D02*
X36000000Y44977619D01*
X35904761Y44834761D01*
X35809523Y44739523D01*
X35714285Y44691904D01*
%TO.C,R6*%
X53952380Y42333333D02*
X53476190Y42000000D01*
X53952380Y41761904D02*
X52952380Y41761904D01*
X52952380Y42142857D01*
X53000000Y42238095D01*
X53047619Y42285714D01*
X53142857Y42333333D01*
X53285714Y42333333D01*
X53380952Y42285714D01*
X53428571Y42238095D01*
X53476190Y42142857D01*
X53476190Y41761904D01*
X52952380Y43190476D02*
X52952380Y43000000D01*
X53000000Y42904761D01*
X53047619Y42857142D01*
X53190476Y42761904D01*
X53380952Y42714285D01*
X53761904Y42714285D01*
X53857142Y42761904D01*
X53904761Y42809523D01*
X53952380Y42904761D01*
X53952380Y43095238D01*
X53904761Y43190476D01*
X53857142Y43238095D01*
X53761904Y43285714D01*
X53523809Y43285714D01*
X53428571Y43238095D01*
X53380952Y43190476D01*
X53333333Y43095238D01*
X53333333Y42904761D01*
X53380952Y42809523D01*
X53428571Y42761904D01*
X53523809Y42714285D01*
%TO.C,R5*%
X39952380Y42458333D02*
X39476190Y42125000D01*
X39952380Y41886904D02*
X38952380Y41886904D01*
X38952380Y42267857D01*
X39000000Y42363095D01*
X39047619Y42410714D01*
X39142857Y42458333D01*
X39285714Y42458333D01*
X39380952Y42410714D01*
X39428571Y42363095D01*
X39476190Y42267857D01*
X39476190Y41886904D01*
X38952380Y43363095D02*
X38952380Y42886904D01*
X39428571Y42839285D01*
X39380952Y42886904D01*
X39333333Y42982142D01*
X39333333Y43220238D01*
X39380952Y43315476D01*
X39428571Y43363095D01*
X39523809Y43410714D01*
X39761904Y43410714D01*
X39857142Y43363095D01*
X39904761Y43315476D01*
X39952380Y43220238D01*
X39952380Y42982142D01*
X39904761Y42886904D01*
X39857142Y42839285D01*
D15*
%TO.C,D3*%
X9153778Y101075720D02*
X9053778Y100975720D01*
D16*
X9353778Y100375720D02*
X9153778Y100375720D01*
X9353778Y100375720D02*
X9753778Y100775720D01*
D15*
X9953778Y100875720D02*
X9953778Y101075720D01*
D16*
X9753778Y100775720D02*
X9753778Y99975720D01*
D15*
X9253778Y100975720D02*
X9153778Y101075720D01*
D16*
X9753778Y100375720D02*
X9953778Y100375720D01*
D15*
X9953778Y101075720D02*
X9853778Y100975720D01*
D16*
X9753778Y99975720D02*
X9353778Y100375720D01*
X9353778Y100775720D02*
X9353778Y99975720D01*
D15*
X9153778Y100875720D02*
X9153778Y101075720D01*
X10053778Y100975720D02*
X9953778Y101075720D01*
D16*
%TO.C,C7*%
X3130664Y90572000D02*
X3346336Y90572000D01*
X3130664Y91292000D02*
X3346336Y91292000D01*
%TO.C,C8*%
X87928336Y90445000D02*
X87712664Y90445000D01*
X87928336Y91165000D02*
X87712664Y91165000D01*
%TO.C,C9*%
X89260000Y5695836D02*
X89260000Y5480164D01*
X88540000Y5695836D02*
X88540000Y5480164D01*
%TO.C,C10*%
X1503000Y5632336D02*
X1503000Y5416664D01*
X783000Y5632336D02*
X783000Y5416664D01*
%TO.C,C3*%
X82192400Y97905180D02*
X82192400Y97624020D01*
X83212400Y97905180D02*
X83212400Y97624020D01*
%TO.C,C4*%
X81047000Y98151836D02*
X81047000Y97936164D01*
X81767000Y98151836D02*
X81767000Y97936164D01*
%TO.C,C1*%
X76068600Y98151836D02*
X76068600Y97936164D01*
X76788600Y98151836D02*
X76788600Y97936164D01*
%TO.C,C2*%
X75713000Y97739252D02*
X75713000Y96316748D01*
X73893000Y97739252D02*
X73893000Y96316748D01*
%TO.C,Q7*%
X8040600Y100096600D02*
X8040600Y99496600D01*
X6640600Y100296600D02*
X6640600Y99096600D01*
X6640600Y99096600D02*
X6640600Y99096600D01*
%TO.C,R24*%
X11175000Y96810859D02*
X11175000Y97118141D01*
X10415000Y96810859D02*
X10415000Y97118141D01*
%TO.C,R22*%
X7288559Y97892600D02*
X7595841Y97892600D01*
X7288559Y98652600D02*
X7595841Y98652600D01*
%TO.C,R18*%
X9043400Y98347559D02*
X9043400Y98654841D01*
X9803400Y98347559D02*
X9803400Y98654841D01*
%TO.C,R13*%
X77849759Y94489000D02*
X78157041Y94489000D01*
X77849759Y95249000D02*
X78157041Y95249000D01*
%TO.C,U1*%
X79817800Y99171400D02*
X77367800Y99171400D01*
X78017800Y95951400D02*
X79817800Y95951400D01*
%TO.C,R14*%
X80364359Y94870000D02*
X80671641Y94870000D01*
X80364359Y95630000D02*
X80671641Y95630000D01*
%TO.C,R12*%
X59977500Y39245276D02*
X59977500Y39754724D01*
X61022500Y39245276D02*
X61022500Y39754724D01*
%TO.C,TP8*%
X56050000Y31950000D02*
X58950000Y31950000D01*
X58950000Y29050000D02*
X56050000Y29050000D01*
X58950000Y31950000D02*
X58950000Y29050000D01*
X56050000Y29050000D02*
X56050000Y31950000D01*
%TO.C,Q4*%
X59060000Y39500000D02*
X59060000Y40150000D01*
X55940000Y39500000D02*
X55940000Y37825000D01*
X59060000Y39500000D02*
X59060000Y38850000D01*
X55940000Y39500000D02*
X55940000Y40150000D01*
%TO.C,TP5*%
X49050000Y46550000D02*
X49050000Y49450000D01*
X51950000Y46550000D02*
X49050000Y46550000D01*
X49050000Y49450000D02*
X51950000Y49450000D01*
X51950000Y49450000D02*
X51950000Y46550000D01*
%TO.C,R9*%
X56245276Y43522500D02*
X56754724Y43522500D01*
X56245276Y42477500D02*
X56754724Y42477500D01*
%TO.C,Q3*%
X45060000Y39500000D02*
X45060000Y40150000D01*
X41940000Y39500000D02*
X41940000Y40150000D01*
X41940000Y39500000D02*
X41940000Y37825000D01*
X45060000Y39500000D02*
X45060000Y38850000D01*
%TO.C,TP2*%
X37950000Y46550000D02*
X35050000Y46550000D01*
X35050000Y49450000D02*
X37950000Y49450000D01*
X35050000Y46550000D02*
X35050000Y49450000D01*
X37950000Y49450000D02*
X37950000Y46550000D01*
%TO.C,R3*%
X49245276Y42477500D02*
X49754724Y42477500D01*
X49245276Y43522500D02*
X49754724Y43522500D01*
%TO.C,Q2*%
X48940000Y39500000D02*
X48940000Y37825000D01*
X52060000Y39500000D02*
X52060000Y40150000D01*
X52060000Y39500000D02*
X52060000Y38850000D01*
X48940000Y39500000D02*
X48940000Y40150000D01*
%TO.C,Q1*%
X34940000Y39500000D02*
X34940000Y40150000D01*
X38060000Y39500000D02*
X38060000Y40150000D01*
X38060000Y39500000D02*
X38060000Y38850000D01*
X34940000Y39500000D02*
X34940000Y37825000D01*
%TO.C,TP3*%
X44950000Y29050000D02*
X42050000Y29050000D01*
X42050000Y29050000D02*
X42050000Y31950000D01*
X42050000Y31950000D02*
X44950000Y31950000D01*
X44950000Y31950000D02*
X44950000Y29050000D01*
%TO.C,R10*%
X57245276Y34977500D02*
X57754724Y34977500D01*
X57245276Y36022500D02*
X57754724Y36022500D01*
%TO.C,R11*%
X45977500Y39245276D02*
X45977500Y39754724D01*
X47022500Y39245276D02*
X47022500Y39754724D01*
%TO.C,G\u002A\u002A\u002A*%
G36*
X18259851Y6616884D02*
G01*
X18297785Y6567640D01*
X18334346Y6520217D01*
X18369224Y6475016D01*
X18402111Y6432434D01*
X18432697Y6392873D01*
X18460671Y6356731D01*
X18485725Y6324408D01*
X18507549Y6296304D01*
X18525833Y6272818D01*
X18540268Y6254349D01*
X18550544Y6241297D01*
X18556352Y6234061D01*
X18557581Y6232668D01*
X18560692Y6235429D01*
X18569047Y6243736D01*
X18582276Y6257203D01*
X18600011Y6275447D01*
X18621882Y6298084D01*
X18647522Y6324729D01*
X18676560Y6355000D01*
X18708628Y6388511D01*
X18743357Y6424879D01*
X18780378Y6463720D01*
X18819323Y6504649D01*
X18858245Y6545623D01*
X18898690Y6588214D01*
X18937554Y6629105D01*
X18974471Y6667911D01*
X19009072Y6704246D01*
X19040988Y6737725D01*
X19069851Y6767961D01*
X19095294Y6794570D01*
X19116947Y6817167D01*
X19134442Y6835364D01*
X19147412Y6848778D01*
X19155487Y6857023D01*
X19158293Y6859716D01*
X19161305Y6856695D01*
X19168598Y6848166D01*
X19179419Y6835047D01*
X19193014Y6818254D01*
X19208630Y6798707D01*
X19215831Y6789617D01*
X19256136Y6738634D01*
X19298474Y6685119D01*
X19342583Y6629405D01*
X19388200Y6571819D01*
X19435062Y6512693D01*
X19482906Y6452357D01*
X19531471Y6391140D01*
X19580493Y6329373D01*
X19629709Y6267386D01*
X19678858Y6205509D01*
X19727676Y6144071D01*
X19775901Y6083403D01*
X19823270Y6023836D01*
X19869521Y5965698D01*
X19914391Y5909320D01*
X19957617Y5855032D01*
X19998937Y5803165D01*
X20038088Y5754047D01*
X20074807Y5708010D01*
X20108833Y5665383D01*
X20139901Y5626496D01*
X20167750Y5591680D01*
X20192118Y5561264D01*
X20212740Y5535579D01*
X20229355Y5514954D01*
X20241701Y5499720D01*
X20249513Y5490206D01*
X20252531Y5486743D01*
X20252552Y5486735D01*
X20255773Y5489762D01*
X20263698Y5498433D01*
X20275795Y5512129D01*
X20291528Y5530233D01*
X20310364Y5552126D01*
X20331768Y5577192D01*
X20355205Y5604813D01*
X20377165Y5630831D01*
X20401911Y5660080D01*
X20425089Y5687198D01*
X20446171Y5711587D01*
X20464624Y5732643D01*
X20479919Y5749768D01*
X20491525Y5762360D01*
X20498911Y5769818D01*
X20501510Y5771647D01*
X20504364Y5768025D01*
X20511860Y5758360D01*
X20523667Y5743081D01*
X20539454Y5722620D01*
X20558888Y5697407D01*
X20581638Y5667872D01*
X20607374Y5634446D01*
X20635763Y5597560D01*
X20666473Y5557642D01*
X20699175Y5515125D01*
X20733535Y5470438D01*
X20763365Y5431633D01*
X20812739Y5367398D01*
X20864488Y5300075D01*
X20918395Y5229946D01*
X20974241Y5157297D01*
X21031808Y5082410D01*
X21090878Y5005570D01*
X21151233Y4927058D01*
X21212656Y4847161D01*
X21274927Y4766160D01*
X21337829Y4684339D01*
X21401144Y4601983D01*
X21464655Y4519374D01*
X21528141Y4436797D01*
X21591387Y4354535D01*
X21654173Y4272871D01*
X21716282Y4192089D01*
X21777495Y4112474D01*
X21837594Y4034307D01*
X21896362Y3957874D01*
X21953581Y3883457D01*
X22009032Y3811341D01*
X22062496Y3741808D01*
X22113757Y3675143D01*
X22162597Y3611628D01*
X22208796Y3551549D01*
X22252137Y3495188D01*
X22292402Y3442829D01*
X22329373Y3394755D01*
X22362832Y3351250D01*
X22392560Y3312598D01*
X22418341Y3279083D01*
X22439954Y3250987D01*
X22457184Y3228595D01*
X22469811Y3212190D01*
X22475866Y3204327D01*
X22493535Y3181315D01*
X22509444Y3160437D01*
X22522945Y3142558D01*
X22533388Y3128542D01*
X22540127Y3119251D01*
X22542511Y3115552D01*
X22538469Y3115408D01*
X22526507Y3115266D01*
X22506869Y3115127D01*
X22479800Y3114990D01*
X22445543Y3114857D01*
X22404343Y3114727D01*
X22356444Y3114601D01*
X22302090Y3114479D01*
X22241527Y3114361D01*
X22174997Y3114248D01*
X22102746Y3114139D01*
X22025017Y3114035D01*
X21942055Y3113937D01*
X21854104Y3113844D01*
X21761409Y3113757D01*
X21664214Y3113676D01*
X21562763Y3113602D01*
X21457300Y3113534D01*
X21348069Y3113473D01*
X21235316Y3113420D01*
X21119284Y3113374D01*
X21000217Y3113336D01*
X20878361Y3113305D01*
X20753958Y3113283D01*
X20627254Y3113270D01*
X20499197Y3113266D01*
X20339727Y3113269D01*
X20188241Y3113280D01*
X20044558Y3113299D01*
X19908497Y3113326D01*
X19779878Y3113361D01*
X19658519Y3113406D01*
X19544241Y3113460D01*
X19436862Y3113525D01*
X19336201Y3113600D01*
X19242078Y3113686D01*
X19154313Y3113783D01*
X19072724Y3113892D01*
X18997130Y3114014D01*
X18927351Y3114148D01*
X18863206Y3114295D01*
X18804515Y3114456D01*
X18751096Y3114632D01*
X18702769Y3114821D01*
X18659353Y3115026D01*
X18620667Y3115247D01*
X18586531Y3115483D01*
X18556764Y3115735D01*
X18531184Y3116005D01*
X18509612Y3116291D01*
X18491867Y3116596D01*
X18477768Y3116918D01*
X18467133Y3117259D01*
X18459783Y3117620D01*
X18455536Y3117999D01*
X18454215Y3118368D01*
X18453436Y3124014D01*
X18452273Y3136849D01*
X18450789Y3155909D01*
X18449046Y3180232D01*
X18447108Y3208854D01*
X18445037Y3240813D01*
X18442896Y3275145D01*
X18440748Y3310889D01*
X18438656Y3347081D01*
X18436681Y3382758D01*
X18435391Y3407143D01*
X18434151Y3436951D01*
X18433163Y3472448D01*
X18432467Y3511163D01*
X18432100Y3550627D01*
X18432101Y3588368D01*
X18432267Y3607143D01*
X18433687Y3719388D01*
X18445934Y3743624D01*
X18457267Y3762029D01*
X18470259Y3773925D01*
X18486799Y3780420D01*
X18508772Y3782624D01*
X18512336Y3782653D01*
X18526050Y3782075D01*
X18539910Y3780077D01*
X18554999Y3776266D01*
X18572405Y3770247D01*
X18593212Y3761626D01*
X18618506Y3750009D01*
X18649371Y3735000D01*
X18665166Y3727136D01*
X18688149Y3715718D01*
X18708541Y3705745D01*
X18725264Y3697733D01*
X18737240Y3692195D01*
X18743391Y3689645D01*
X18743969Y3689556D01*
X18744020Y3693929D01*
X18742904Y3703890D01*
X18741502Y3713266D01*
X18736436Y3752886D01*
X18733107Y3797279D01*
X18731644Y3843216D01*
X18732177Y3887465D01*
X18733517Y3911968D01*
X18740152Y3974959D01*
X18750453Y4032071D01*
X18764821Y4084906D01*
X18783656Y4135068D01*
X18795736Y4161429D01*
X18826164Y4215427D01*
X18862117Y4263675D01*
X18903731Y4306278D01*
X18951142Y4343337D01*
X19004484Y4374956D01*
X19063894Y4401238D01*
X19129509Y4422286D01*
X19144005Y4426030D01*
X19162246Y4430155D01*
X19180249Y4433228D01*
X19200037Y4435469D01*
X19223631Y4437100D01*
X19253050Y4438342D01*
X19258310Y4438515D01*
X19296046Y4439119D01*
X19335774Y4438678D01*
X19375751Y4437291D01*
X19414236Y4435055D01*
X19449487Y4432068D01*
X19479762Y4428426D01*
X19499711Y4425009D01*
X19537994Y4420237D01*
X19568710Y4420117D01*
X19588661Y4421402D01*
X19603648Y4423693D01*
X19616867Y4427730D01*
X19631515Y4434249D01*
X19632955Y4434955D01*
X19662987Y4454272D01*
X19688981Y4480636D01*
X19710878Y4513965D01*
X19728619Y4554178D01*
X19735691Y4576077D01*
X19741820Y4598866D01*
X19745071Y4616024D01*
X19745571Y4629510D01*
X19743447Y4641284D01*
X19740469Y4649553D01*
X19727817Y4669427D01*
X19708398Y4684985D01*
X19682446Y4696111D01*
X19650199Y4702686D01*
X19631282Y4704255D01*
X19591475Y4706172D01*
X19584719Y4722984D01*
X19580879Y4732764D01*
X19574868Y4748343D01*
X19567390Y4767883D01*
X19559152Y4789543D01*
X19555577Y4798980D01*
X19547649Y4819618D01*
X19540519Y4837574D01*
X19534764Y4851443D01*
X19530960Y4859821D01*
X19529920Y4861567D01*
X19527171Y4859122D01*
X19521284Y4850388D01*
X19512837Y4836344D01*
X19502410Y4817970D01*
X19490581Y4796243D01*
X19484618Y4784991D01*
X19442588Y4705012D01*
X19414263Y4696577D01*
X19382998Y4687776D01*
X19354832Y4681151D01*
X19327657Y4676425D01*
X19299363Y4673323D01*
X19267839Y4671569D01*
X19230977Y4670887D01*
X19217487Y4670850D01*
X19188162Y4670921D01*
X19165426Y4671213D01*
X19147705Y4671861D01*
X19133424Y4672998D01*
X19121008Y4674759D01*
X19108883Y4677277D01*
X19095473Y4680687D01*
X19092492Y4681489D01*
X19037156Y4700240D01*
X18987262Y4725074D01*
X18942798Y4755995D01*
X18921125Y4775146D01*
X18905061Y4795678D01*
X18892420Y4822530D01*
X18883420Y4854510D01*
X18878282Y4890428D01*
X18877223Y4929096D01*
X18880463Y4969322D01*
X18882707Y4983859D01*
X18895523Y5036100D01*
X18915740Y5087868D01*
X18943528Y5139465D01*
X18979056Y5191192D01*
X19022491Y5243350D01*
X19036179Y5258164D01*
X19050360Y5273655D01*
X19068255Y5293917D01*
X19088482Y5317341D01*
X19109656Y5342322D01*
X19130396Y5367251D01*
X19137440Y5375843D01*
X19155099Y5397314D01*
X19171237Y5416628D01*
X19185086Y5432891D01*
X19195881Y5445210D01*
X19202854Y5452692D01*
X19205049Y5454574D01*
X19209885Y5453224D01*
X19220763Y5448413D01*
X19236605Y5440677D01*
X19256332Y5430550D01*
X19278866Y5418566D01*
X19291265Y5411817D01*
X19314601Y5399094D01*
X19335432Y5387886D01*
X19352736Y5378730D01*
X19365491Y5372164D01*
X19372673Y5368727D01*
X19373873Y5368359D01*
X19373224Y5372455D01*
X19370747Y5383394D01*
X19366700Y5400126D01*
X19361342Y5421601D01*
X19354931Y5446770D01*
X19348254Y5472550D01*
X19321376Y5575574D01*
X19343128Y5598501D01*
X19370472Y5630766D01*
X19392089Y5663561D01*
X19407644Y5696045D01*
X19416800Y5727381D01*
X19419221Y5756730D01*
X19415730Y5779494D01*
X19411464Y5789397D01*
X19403358Y5803934D01*
X19392525Y5821246D01*
X19380076Y5839478D01*
X19378384Y5841837D01*
X19360348Y5867975D01*
X19344358Y5893369D01*
X19331047Y5916843D01*
X19321048Y5937223D01*
X19314996Y5953334D01*
X19313420Y5962362D01*
X19314199Y5970196D01*
X19316346Y5984362D01*
X19319583Y6003197D01*
X19323629Y6025038D01*
X19326234Y6038420D01*
X19333740Y6081295D01*
X19338375Y6119359D01*
X19340124Y6152007D01*
X19338968Y6178631D01*
X19334892Y6198627D01*
X19330870Y6207463D01*
X19318409Y6221491D01*
X19301960Y6229603D01*
X19281248Y6231776D01*
X19255993Y6227986D01*
X19225919Y6218208D01*
X19190748Y6202421D01*
X19174804Y6194212D01*
X19157269Y6184483D01*
X19136542Y6172201D01*
X19112262Y6157126D01*
X19084070Y6139017D01*
X19051605Y6117635D01*
X19014509Y6092738D01*
X18972420Y6064087D01*
X18924979Y6031440D01*
X18871826Y5994558D01*
X18812601Y5953201D01*
X18784764Y5933690D01*
X18722286Y5889886D01*
X18666066Y5850546D01*
X18615701Y5815417D01*
X18570787Y5784245D01*
X18530921Y5756773D01*
X18495699Y5732750D01*
X18464717Y5711919D01*
X18437573Y5694026D01*
X18413861Y5678818D01*
X18393180Y5666039D01*
X18375124Y5655435D01*
X18359292Y5646753D01*
X18345278Y5639736D01*
X18332680Y5634132D01*
X18321094Y5629686D01*
X18310116Y5626142D01*
X18299343Y5623248D01*
X18288371Y5620747D01*
X18288329Y5620738D01*
X18269621Y5617391D01*
X18250005Y5615353D01*
X18227172Y5614475D01*
X18198809Y5614608D01*
X18194873Y5614685D01*
X18155089Y5615503D01*
X18122568Y5616095D01*
X18096412Y5616432D01*
X18075721Y5616480D01*
X18059595Y5616210D01*
X18047138Y5615590D01*
X18037448Y5614587D01*
X18029627Y5613172D01*
X18022777Y5611313D01*
X18015997Y5608977D01*
X18014404Y5608388D01*
X17998051Y5600975D01*
X17977113Y5589486D01*
X17953335Y5574997D01*
X17928463Y5558588D01*
X17904242Y5541337D01*
X17896866Y5535778D01*
X17887786Y5529051D01*
X17873070Y5518416D01*
X17853784Y5504631D01*
X17830992Y5488453D01*
X17805758Y5470640D01*
X17779148Y5451949D01*
X17771839Y5446833D01*
X17690815Y5389707D01*
X17616213Y5336171D01*
X17547386Y5285731D01*
X17483688Y5237896D01*
X17424469Y5192171D01*
X17369084Y5148065D01*
X17316884Y5105084D01*
X17268194Y5063580D01*
X17220156Y5021074D01*
X17178680Y4982526D01*
X17143424Y4947540D01*
X17114041Y4915724D01*
X17090187Y4886681D01*
X17071519Y4860018D01*
X17057691Y4835340D01*
X17048359Y4812253D01*
X17048132Y4811538D01*
X17042844Y4796050D01*
X17037903Y4786067D01*
X17031660Y4779177D01*
X17022465Y4772971D01*
X17021258Y4772258D01*
X17014997Y4769434D01*
X17001598Y4764037D01*
X16981602Y4756269D01*
X16955548Y4746333D01*
X16923978Y4734429D01*
X16887431Y4720760D01*
X16846448Y4705527D01*
X16801570Y4688933D01*
X16753338Y4671178D01*
X16702291Y4652464D01*
X16648970Y4632993D01*
X16612292Y4619643D01*
X16557863Y4599851D01*
X16505410Y4580765D01*
X16455466Y4562581D01*
X16408564Y4545492D01*
X16365238Y4529694D01*
X16326021Y4515380D01*
X16291446Y4502747D01*
X16262047Y4491988D01*
X16238357Y4483299D01*
X16220908Y4476873D01*
X16210235Y4472906D01*
X16207109Y4471708D01*
X16203737Y4470218D01*
X16201796Y4468757D01*
X16201944Y4467079D01*
X16204833Y4464940D01*
X16211120Y4462094D01*
X16221459Y4458295D01*
X16236504Y4453300D01*
X16256912Y4446862D01*
X16283336Y4438738D01*
X16316431Y4428680D01*
X16345907Y4419758D01*
X16393695Y4405286D01*
X16434295Y4392954D01*
X16468340Y4382556D01*
X16496462Y4373886D01*
X16519295Y4366740D01*
X16537471Y4360911D01*
X16551623Y4356195D01*
X16562383Y4352385D01*
X16570384Y4349276D01*
X16576259Y4346662D01*
X16580640Y4344338D01*
X16583406Y4342609D01*
X16594648Y4335122D01*
X16582263Y4316427D01*
X16574094Y4305990D01*
X16560384Y4290762D01*
X16541735Y4271327D01*
X16518749Y4248273D01*
X16492029Y4222183D01*
X16462177Y4193644D01*
X16429794Y4163241D01*
X16395483Y4131559D01*
X16359847Y4099184D01*
X16346421Y4087125D01*
X16323678Y4066677D01*
X16303113Y4048025D01*
X16285459Y4031848D01*
X16271451Y4018824D01*
X16261821Y4009632D01*
X16257304Y4004950D01*
X16257066Y4004503D01*
X16261281Y4004325D01*
X16272956Y4004287D01*
X16291389Y4004381D01*
X16315877Y4004599D01*
X16345717Y4004933D01*
X16380207Y4005375D01*
X16418643Y4005917D01*
X16460324Y4006551D01*
X16504546Y4007269D01*
X16508888Y4007342D01*
X16553669Y4008054D01*
X16596250Y4008647D01*
X16635891Y4009118D01*
X16671852Y4009462D01*
X16703393Y4009673D01*
X16729773Y4009746D01*
X16750253Y4009678D01*
X16764091Y4009462D01*
X16770547Y4009095D01*
X16770675Y4009070D01*
X16784784Y4003518D01*
X16796028Y3994659D01*
X16802230Y3984425D01*
X16802813Y3980508D01*
X16802254Y3972497D01*
X16800298Y3964186D01*
X16796522Y3955065D01*
X16790506Y3944627D01*
X16781827Y3932363D01*
X16770064Y3917764D01*
X16754796Y3900323D01*
X16735601Y3879530D01*
X16712058Y3854877D01*
X16683745Y3825856D01*
X16650241Y3791958D01*
X16627975Y3769572D01*
X16591978Y3733282D01*
X16561402Y3702119D01*
X16536325Y3676165D01*
X16516826Y3655503D01*
X16502983Y3640217D01*
X16494873Y3630390D01*
X16492576Y3626105D01*
X16492765Y3625935D01*
X16498432Y3624841D01*
X16510919Y3622911D01*
X16528944Y3620327D01*
X16551225Y3617270D01*
X16576482Y3613923D01*
X16585355Y3612773D01*
X16611217Y3609338D01*
X16634428Y3606067D01*
X16653734Y3603151D01*
X16667878Y3600782D01*
X16675606Y3599154D01*
X16676552Y3598801D01*
X16677999Y3593340D01*
X16674072Y3582554D01*
X16665071Y3566984D01*
X16651296Y3547173D01*
X16638971Y3531068D01*
X16618376Y3505761D01*
X16592734Y3475523D01*
X16562792Y3441173D01*
X16529295Y3403533D01*
X16492989Y3363425D01*
X16454621Y3321667D01*
X16414936Y3279083D01*
X16374681Y3236492D01*
X16334602Y3194715D01*
X16313966Y3173470D01*
X16263183Y3121429D01*
X14192495Y3121429D01*
X14261878Y3191837D01*
X14273808Y3203955D01*
X14286379Y3216750D01*
X14299911Y3230549D01*
X14314722Y3245680D01*
X14331133Y3262473D01*
X14349463Y3281256D01*
X14370031Y3302357D01*
X14393159Y3326105D01*
X14419164Y3352828D01*
X14448367Y3382855D01*
X14481088Y3416513D01*
X14517646Y3454132D01*
X14558360Y3496040D01*
X14603551Y3542566D01*
X14653538Y3594037D01*
X14708641Y3650782D01*
X14755439Y3698980D01*
X14786660Y3731123D01*
X14818497Y3763877D01*
X14850037Y3796304D01*
X14880368Y3827469D01*
X14908577Y3856432D01*
X14933752Y3882258D01*
X14954981Y3904009D01*
X14970020Y3919388D01*
X14982604Y3932266D01*
X15000367Y3950484D01*
X15022806Y3973523D01*
X15049413Y4000864D01*
X15079686Y4031988D01*
X15113118Y4066375D01*
X15149205Y4103505D01*
X15187443Y4142860D01*
X15227325Y4183920D01*
X15268348Y4226165D01*
X15310006Y4269077D01*
X15327144Y4286735D01*
X15368918Y4329770D01*
X15410264Y4372352D01*
X15450678Y4413961D01*
X15489654Y4454078D01*
X15526688Y4492183D01*
X15561274Y4527757D01*
X15592908Y4560281D01*
X15621085Y4589235D01*
X15645299Y4614100D01*
X15665047Y4634356D01*
X15679821Y4649485D01*
X15684321Y4654082D01*
X15693150Y4663096D01*
X15702738Y4672897D01*
X15713309Y4683715D01*
X15725088Y4695782D01*
X15738300Y4709328D01*
X15753168Y4724583D01*
X15769917Y4741779D01*
X15788772Y4761147D01*
X15809957Y4782916D01*
X15833696Y4807319D01*
X15860214Y4834585D01*
X15889735Y4864946D01*
X15922483Y4898632D01*
X15958684Y4935874D01*
X15998560Y4976903D01*
X16042338Y5021950D01*
X16090240Y5071244D01*
X16142492Y5125019D01*
X16199318Y5183503D01*
X16260942Y5246927D01*
X16327588Y5315524D01*
X16399482Y5389522D01*
X16474137Y5466364D01*
X16517550Y5511045D01*
X16562280Y5557072D01*
X16607611Y5603710D01*
X16652825Y5650221D01*
X16697206Y5695867D01*
X16740037Y5739912D01*
X16780601Y5781618D01*
X16818181Y5820247D01*
X16852060Y5855064D01*
X16881521Y5885330D01*
X16900776Y5905102D01*
X16923433Y5928371D01*
X16951216Y5956920D01*
X16983565Y5990172D01*
X17019920Y6027551D01*
X17059719Y6068480D01*
X17102401Y6112381D01*
X17147407Y6158680D01*
X17194175Y6206798D01*
X17242145Y6256158D01*
X17290755Y6306185D01*
X17339446Y6356301D01*
X17387656Y6405929D01*
X17404694Y6423470D01*
X17450631Y6470758D01*
X17495952Y6517404D01*
X17540225Y6562961D01*
X17583016Y6606984D01*
X17623891Y6649026D01*
X17662417Y6688643D01*
X17698161Y6725388D01*
X17730688Y6758817D01*
X17759566Y6788482D01*
X17784361Y6813940D01*
X17804639Y6834743D01*
X17819967Y6850446D01*
X17827517Y6858164D01*
X17849244Y6880376D01*
X17871403Y6903105D01*
X17892574Y6924888D01*
X17911335Y6944263D01*
X17926266Y6959767D01*
X17930148Y6963823D01*
X17964778Y7000095D01*
X18259851Y6616884D01*
G37*
G36*
X21116771Y2989741D02*
G01*
X21171122Y2989394D01*
X21217990Y2989045D01*
X21258056Y2988630D01*
X21292003Y2988088D01*
X21320510Y2987354D01*
X21344261Y2986368D01*
X21363937Y2985065D01*
X21380218Y2983385D01*
X21393786Y2981263D01*
X21405323Y2978637D01*
X21415511Y2975446D01*
X21425030Y2971625D01*
X21434563Y2967114D01*
X21444790Y2961848D01*
X21449949Y2959138D01*
X21483719Y2936973D01*
X21513136Y2908763D01*
X21537156Y2875823D01*
X21554732Y2839470D01*
X21561082Y2819248D01*
X21565465Y2791259D01*
X21565875Y2759746D01*
X21562485Y2728223D01*
X21555465Y2700201D01*
X21555252Y2699599D01*
X21539358Y2665588D01*
X21517301Y2633996D01*
X21490640Y2606732D01*
X21463175Y2586986D01*
X21443830Y2575689D01*
X21468743Y2566374D01*
X21506382Y2548155D01*
X21539072Y2523919D01*
X21566281Y2494497D01*
X21587480Y2460722D01*
X21602139Y2423426D01*
X21609726Y2383440D01*
X21609989Y2344774D01*
X21602677Y2299330D01*
X21588578Y2257149D01*
X21568229Y2218893D01*
X21542167Y2185224D01*
X21510930Y2156803D01*
X21475055Y2134293D01*
X21435079Y2118356D01*
X21423604Y2115254D01*
X21410046Y2112823D01*
X21390129Y2110649D01*
X21363419Y2108699D01*
X21329480Y2106943D01*
X21287876Y2105351D01*
X21281084Y2105128D01*
X21249998Y2104245D01*
X21215652Y2103470D01*
X21178920Y2102806D01*
X21140677Y2102256D01*
X21101796Y2101824D01*
X21063153Y2101511D01*
X21025621Y2101322D01*
X20990075Y2101259D01*
X20957391Y2101324D01*
X20928441Y2101522D01*
X20904101Y2101854D01*
X20885245Y2102324D01*
X20872747Y2102935D01*
X20867482Y2103689D01*
X20867412Y2103742D01*
X20867046Y2108107D01*
X20866695Y2120106D01*
X20866362Y2139209D01*
X20866050Y2164889D01*
X20865761Y2196615D01*
X20865500Y2233859D01*
X20865401Y2252041D01*
X21044311Y2252041D01*
X21161677Y2252072D01*
X21193845Y2252218D01*
X21225132Y2252614D01*
X21254090Y2253223D01*
X21279269Y2254007D01*
X21299221Y2254928D01*
X21312498Y2255950D01*
X21312759Y2255979D01*
X21347403Y2262712D01*
X21375459Y2274242D01*
X21397007Y2290661D01*
X21412132Y2312061D01*
X21420916Y2338533D01*
X21423440Y2370169D01*
X21423124Y2378532D01*
X21418549Y2408256D01*
X21408307Y2432607D01*
X21391944Y2452492D01*
X21382200Y2460417D01*
X21372937Y2466842D01*
X21363999Y2472106D01*
X21354463Y2476335D01*
X21343408Y2479658D01*
X21329914Y2482201D01*
X21313059Y2484092D01*
X21291921Y2485459D01*
X21265580Y2486428D01*
X21233114Y2487126D01*
X21193603Y2487682D01*
X21184129Y2487795D01*
X21044311Y2489429D01*
X21044311Y2252041D01*
X20865401Y2252041D01*
X20865270Y2276090D01*
X20865074Y2322781D01*
X20864914Y2373401D01*
X20864795Y2427423D01*
X20864719Y2484315D01*
X20864716Y2489429D01*
X20864690Y2543550D01*
X20864690Y2639284D01*
X21044311Y2639284D01*
X21175965Y2640744D01*
X21213042Y2641199D01*
X21242914Y2641693D01*
X21266542Y2642282D01*
X21284884Y2643025D01*
X21298900Y2643978D01*
X21309550Y2645199D01*
X21317794Y2646745D01*
X21324592Y2648673D01*
X21327754Y2649801D01*
X21347299Y2660195D01*
X21365120Y2675090D01*
X21379036Y2692333D01*
X21386285Y2707617D01*
X21391415Y2736504D01*
X21389724Y2764351D01*
X21381511Y2789679D01*
X21367074Y2811012D01*
X21364853Y2813318D01*
X21357534Y2820362D01*
X21350489Y2826109D01*
X21342818Y2830703D01*
X21333621Y2834287D01*
X21321997Y2837005D01*
X21307047Y2839001D01*
X21287870Y2840418D01*
X21263567Y2841401D01*
X21233236Y2842094D01*
X21195979Y2842639D01*
X21180047Y2842835D01*
X21044311Y2844464D01*
X21044311Y2639284D01*
X20864690Y2639284D01*
X20864690Y2991322D01*
X21116771Y2989741D01*
G37*
G36*
X19876088Y2626726D02*
G01*
X19882052Y2675549D01*
X19890909Y2719803D01*
X19893222Y2728645D01*
X19909380Y2774547D01*
X19932120Y2820332D01*
X19960119Y2863853D01*
X19992051Y2902961D01*
X20014279Y2924989D01*
X20053434Y2955720D01*
X20096344Y2980396D01*
X20143746Y2999324D01*
X20196376Y3012812D01*
X20240905Y3019683D01*
X20302487Y3023223D01*
X20363280Y3019639D01*
X20422241Y3009137D01*
X20478326Y2991918D01*
X20530489Y2968187D01*
X20543800Y2960670D01*
X20565290Y2945887D01*
X20589104Y2926045D01*
X20613297Y2903044D01*
X20635927Y2878787D01*
X20655048Y2855174D01*
X20662346Y2844726D01*
X20685855Y2802721D01*
X20705437Y2755020D01*
X20720467Y2703392D01*
X20729697Y2654217D01*
X20732053Y2630092D01*
X20733438Y2600284D01*
X20733872Y2567211D01*
X20733379Y2533294D01*
X20731979Y2500951D01*
X20729695Y2472601D01*
X20727953Y2458812D01*
X20715365Y2399460D01*
X20696309Y2344545D01*
X20671055Y2294395D01*
X20639871Y2249338D01*
X20603025Y2209702D01*
X20560787Y2175817D01*
X20513424Y2148009D01*
X20461206Y2126609D01*
X20454420Y2124422D01*
X20406147Y2112532D01*
X20353478Y2105354D01*
X20298844Y2103122D01*
X20254388Y2105138D01*
X20194068Y2114011D01*
X20138140Y2129673D01*
X20086850Y2151882D01*
X20040443Y2180393D01*
X19999164Y2214965D01*
X19963259Y2255355D01*
X19932973Y2301319D01*
X19908551Y2352614D01*
X19890239Y2408999D01*
X19878281Y2470229D01*
X19877202Y2478572D01*
X19873498Y2525665D01*
X19873294Y2558075D01*
X20057680Y2558075D01*
X20060114Y2515112D01*
X20066973Y2467001D01*
X20077519Y2425288D01*
X20092208Y2388875D01*
X20111499Y2356663D01*
X20135847Y2327554D01*
X20139881Y2323470D01*
X20173225Y2295908D01*
X20210279Y2275430D01*
X20250392Y2262217D01*
X20292914Y2256451D01*
X20337194Y2258314D01*
X20359537Y2262109D01*
X20396520Y2273922D01*
X20431740Y2292780D01*
X20463742Y2317570D01*
X20491072Y2347178D01*
X20511005Y2378030D01*
X20519172Y2395747D01*
X20527613Y2417609D01*
X20534885Y2439778D01*
X20536911Y2446985D01*
X20540702Y2461969D01*
X20543474Y2475300D01*
X20545388Y2488741D01*
X20546606Y2504054D01*
X20547291Y2523002D01*
X20547602Y2547348D01*
X20547675Y2564286D01*
X20547630Y2593170D01*
X20547229Y2615635D01*
X20546336Y2633421D01*
X20544816Y2648268D01*
X20542534Y2661917D01*
X20539353Y2676109D01*
X20538786Y2678407D01*
X20523903Y2724517D01*
X20503752Y2764463D01*
X20478386Y2798186D01*
X20447857Y2825632D01*
X20412218Y2846743D01*
X20371521Y2861462D01*
X20368855Y2862157D01*
X20346783Y2865957D01*
X20319846Y2867853D01*
X20291117Y2867844D01*
X20263671Y2865928D01*
X20241079Y2862222D01*
X20203545Y2849344D01*
X20168192Y2829393D01*
X20136507Y2803430D01*
X20109977Y2772517D01*
X20104924Y2765071D01*
X20088044Y2732959D01*
X20074623Y2694770D01*
X20064917Y2651938D01*
X20059184Y2605895D01*
X20057680Y2558075D01*
X19873294Y2558075D01*
X19873182Y2575907D01*
X19876088Y2626726D01*
G37*
G36*
X22311577Y4059447D02*
G01*
X22337641Y4058901D01*
X22356866Y4058239D01*
X22370576Y4057301D01*
X22380096Y4055930D01*
X22386751Y4053968D01*
X22391864Y4051256D01*
X22394243Y4049580D01*
X22406469Y4036089D01*
X22415104Y4018106D01*
X22418841Y3998976D01*
X22418180Y3988293D01*
X22413450Y3976218D01*
X22404698Y3963430D01*
X22393880Y3952046D01*
X22382953Y3944179D01*
X22375206Y3941837D01*
X22367313Y3940036D01*
X22365084Y3936086D01*
X22369511Y3932163D01*
X22370617Y3931772D01*
X22377470Y3926426D01*
X22387671Y3913700D01*
X22401184Y3893645D01*
X22417975Y3866309D01*
X22419462Y3863804D01*
X22426074Y3851594D01*
X22427490Y3844373D01*
X22422879Y3840994D01*
X22411412Y3840307D01*
X22402702Y3840622D01*
X22377196Y3841837D01*
X22359927Y3874070D01*
X22351277Y3889622D01*
X22343169Y3903179D01*
X22336953Y3912514D01*
X22335424Y3914429D01*
X22324276Y3923160D01*
X22309553Y3930204D01*
X22295513Y3933600D01*
X22293622Y3933674D01*
X22290059Y3933203D01*
X22287695Y3930868D01*
X22286284Y3925288D01*
X22285583Y3915078D01*
X22285347Y3898856D01*
X22285327Y3886735D01*
X22285327Y3839796D01*
X22240421Y3839796D01*
X22240421Y3965489D01*
X22285327Y3965489D01*
X22320387Y3966929D01*
X22337902Y3967890D01*
X22349258Y3969374D01*
X22356460Y3971898D01*
X22361514Y3975981D01*
X22363251Y3978004D01*
X22369857Y3991284D01*
X22369986Y4005028D01*
X22363670Y4016596D01*
X22362774Y4017452D01*
X22355760Y4021659D01*
X22344676Y4024478D01*
X22327795Y4026283D01*
X22319910Y4026760D01*
X22285327Y4028575D01*
X22285327Y3965489D01*
X22240421Y3965489D01*
X22240421Y4060731D01*
X22311577Y4059447D01*
G37*
G36*
X15998602Y2843878D02*
G01*
X15516892Y2843878D01*
X15516892Y2643878D01*
X15966384Y2643878D01*
X15965144Y2571429D01*
X15963903Y2498980D01*
X15740397Y2497925D01*
X15516892Y2496869D01*
X15516892Y2252041D01*
X16014931Y2252041D01*
X16014931Y2101021D01*
X15337271Y2101021D01*
X15337271Y2990817D01*
X15998602Y2990817D01*
X15998602Y2843878D01*
G37*
G36*
X18023003Y2523723D02*
G01*
X18033106Y2550000D01*
X18201862Y2988776D01*
X18392425Y2988776D01*
X18417591Y2925511D01*
X18424394Y2908376D01*
X18433750Y2884766D01*
X18445217Y2855798D01*
X18458353Y2822591D01*
X18472714Y2786263D01*
X18487859Y2747932D01*
X18503347Y2708718D01*
X18514441Y2680613D01*
X18531666Y2636978D01*
X18551139Y2587666D01*
X18572104Y2534588D01*
X18593806Y2479657D01*
X18615488Y2424787D01*
X18636395Y2371889D01*
X18655772Y2322876D01*
X18664013Y2302035D01*
X18679003Y2264095D01*
X18693044Y2228481D01*
X18705857Y2195908D01*
X18717162Y2167092D01*
X18726679Y2142747D01*
X18734129Y2123589D01*
X18739231Y2110331D01*
X18741706Y2103690D01*
X18741900Y2103056D01*
X18738006Y2102482D01*
X18727078Y2101970D01*
X18710244Y2101546D01*
X18688636Y2101232D01*
X18663383Y2101053D01*
X18646388Y2101021D01*
X18550876Y2101021D01*
X18536345Y2138776D01*
X18529614Y2156319D01*
X18520936Y2179014D01*
X18511258Y2204382D01*
X18501528Y2229940D01*
X18497782Y2239796D01*
X18473749Y2303062D01*
X18298000Y2304125D01*
X18122252Y2305188D01*
X18111567Y2275554D01*
X18106608Y2261798D01*
X18099583Y2242312D01*
X18091196Y2219046D01*
X18082149Y2193949D01*
X18075134Y2174490D01*
X18049387Y2103062D01*
X17956797Y2101965D01*
X17925744Y2101690D01*
X17902036Y2101721D01*
X17884858Y2102091D01*
X17873395Y2102839D01*
X17866833Y2103999D01*
X17864356Y2105608D01*
X17864279Y2106046D01*
X17865726Y2110460D01*
X17869927Y2122009D01*
X17876697Y2140209D01*
X17885854Y2164578D01*
X17897214Y2194634D01*
X17910594Y2229895D01*
X17925809Y2269877D01*
X17942677Y2314098D01*
X17961014Y2362075D01*
X17980636Y2413327D01*
X17997993Y2458590D01*
X18178544Y2458590D01*
X18182458Y2457963D01*
X18193522Y2457395D01*
X18210726Y2456906D01*
X18233055Y2456518D01*
X18259496Y2456252D01*
X18289036Y2456129D01*
X18297367Y2456123D01*
X18331624Y2456149D01*
X18358560Y2456261D01*
X18379022Y2456512D01*
X18393855Y2456953D01*
X18403902Y2457636D01*
X18410010Y2458614D01*
X18413024Y2459939D01*
X18413787Y2461662D01*
X18413384Y2463266D01*
X18411397Y2468579D01*
X18406927Y2480689D01*
X18400292Y2498726D01*
X18391812Y2521820D01*
X18381806Y2549100D01*
X18370594Y2579698D01*
X18358496Y2612742D01*
X18355317Y2621429D01*
X18343057Y2654872D01*
X18331597Y2686013D01*
X18321257Y2713994D01*
X18312355Y2737958D01*
X18305209Y2757048D01*
X18300138Y2770407D01*
X18297461Y2777180D01*
X18297194Y2777759D01*
X18295443Y2774872D01*
X18291283Y2765257D01*
X18285069Y2749869D01*
X18277154Y2729660D01*
X18267894Y2705584D01*
X18257643Y2678596D01*
X18246756Y2649649D01*
X18235587Y2619697D01*
X18224491Y2589693D01*
X18213822Y2560591D01*
X18203936Y2533345D01*
X18195185Y2508909D01*
X18187926Y2488236D01*
X18182512Y2472280D01*
X18179298Y2461995D01*
X18178544Y2458590D01*
X17997993Y2458590D01*
X18001360Y2467371D01*
X18023003Y2523723D01*
G37*
G36*
X14540051Y3020407D02*
G01*
X14584906Y3014729D01*
X14625167Y3005806D01*
X14635696Y3002608D01*
X14680861Y2984054D01*
X14720174Y2959867D01*
X14753450Y2930270D01*
X14780505Y2895487D01*
X14801154Y2855742D01*
X14815213Y2811259D01*
X14820965Y2777986D01*
X14823735Y2754952D01*
X14771270Y2752405D01*
X14746784Y2751172D01*
X14720892Y2749796D01*
X14696984Y2748459D01*
X14681214Y2747520D01*
X14643623Y2745182D01*
X14641128Y2756775D01*
X14630984Y2791031D01*
X14616431Y2818941D01*
X14597066Y2840798D01*
X14572487Y2856896D01*
X14542289Y2867528D01*
X14506070Y2872987D01*
X14479991Y2873902D01*
X14441549Y2871723D01*
X14407848Y2865472D01*
X14379423Y2855448D01*
X14356808Y2841951D01*
X14340540Y2825281D01*
X14331151Y2805738D01*
X14328946Y2789204D01*
X14330267Y2773093D01*
X14334627Y2758794D01*
X14342624Y2745945D01*
X14354856Y2734190D01*
X14371921Y2723168D01*
X14394415Y2712520D01*
X14422938Y2701888D01*
X14458086Y2690913D01*
X14500457Y2679235D01*
X14520723Y2673990D01*
X14577176Y2658848D01*
X14626151Y2643969D01*
X14668309Y2628969D01*
X14704312Y2613468D01*
X14734820Y2597082D01*
X14760494Y2579429D01*
X14781997Y2560127D01*
X14799988Y2538793D01*
X14815129Y2515045D01*
X14823357Y2498980D01*
X14835695Y2465246D01*
X14843603Y2427055D01*
X14846933Y2386870D01*
X14845540Y2347158D01*
X14839278Y2310382D01*
X14835341Y2296939D01*
X14817067Y2253949D01*
X14792901Y2216438D01*
X14762730Y2184308D01*
X14726444Y2157465D01*
X14683931Y2135811D01*
X14635080Y2119250D01*
X14626842Y2117110D01*
X14613456Y2114435D01*
X14594649Y2111558D01*
X14572402Y2108686D01*
X14548691Y2106029D01*
X14525495Y2103796D01*
X14504795Y2102196D01*
X14488566Y2101438D01*
X14479991Y2101592D01*
X14473383Y2102183D01*
X14460837Y2103303D01*
X14444549Y2104755D01*
X14436133Y2105504D01*
X14379211Y2113726D01*
X14328019Y2127754D01*
X14282526Y2147615D01*
X14242699Y2173333D01*
X14208506Y2204933D01*
X14179916Y2242439D01*
X14156895Y2285876D01*
X14139863Y2333674D01*
X14134884Y2352237D01*
X14130534Y2370425D01*
X14127596Y2384926D01*
X14127181Y2387530D01*
X14124399Y2406692D01*
X14137883Y2408911D01*
X14147074Y2410132D01*
X14162292Y2411843D01*
X14181781Y2413876D01*
X14203788Y2416063D01*
X14226559Y2418239D01*
X14248340Y2420234D01*
X14267377Y2421882D01*
X14281915Y2423016D01*
X14290203Y2423468D01*
X14290482Y2423470D01*
X14296171Y2422170D01*
X14300130Y2417022D01*
X14303591Y2406153D01*
X14304590Y2402041D01*
X14317318Y2362984D01*
X14335716Y2329424D01*
X14359497Y2301679D01*
X14388371Y2280065D01*
X14422049Y2264899D01*
X14432377Y2261831D01*
X14458709Y2257219D01*
X14489142Y2255742D01*
X14521248Y2257192D01*
X14552603Y2261360D01*
X14580778Y2268037D01*
X14602214Y2276425D01*
X14617690Y2286788D01*
X14633964Y2301551D01*
X14648351Y2317986D01*
X14658138Y2333298D01*
X14664299Y2352329D01*
X14667019Y2374284D01*
X14665996Y2395274D01*
X14663729Y2404995D01*
X14658498Y2417651D01*
X14651227Y2428857D01*
X14641176Y2438987D01*
X14627605Y2448417D01*
X14609772Y2457520D01*
X14586938Y2466671D01*
X14558363Y2476245D01*
X14523305Y2486616D01*
X14481025Y2498159D01*
X14477950Y2498975D01*
X14428713Y2512412D01*
X14386647Y2524859D01*
X14350875Y2536713D01*
X14320521Y2548367D01*
X14294709Y2560217D01*
X14272564Y2572660D01*
X14253208Y2586089D01*
X14235766Y2600900D01*
X14222291Y2614340D01*
X14194841Y2648308D01*
X14175167Y2683986D01*
X14162924Y2722224D01*
X14157771Y2763873D01*
X14157550Y2774653D01*
X14161114Y2817491D01*
X14172078Y2857055D01*
X14190587Y2893691D01*
X14216786Y2927740D01*
X14226498Y2937829D01*
X14253494Y2961511D01*
X14282340Y2980362D01*
X14314990Y2995433D01*
X14353400Y3007774D01*
X14360090Y3009534D01*
X14400622Y3017404D01*
X14445640Y3021801D01*
X14492872Y3022783D01*
X14540051Y3020407D01*
G37*
G36*
X15169897Y2101021D02*
G01*
X14990277Y2101021D01*
X14990277Y2990817D01*
X15169897Y2990817D01*
X15169897Y2101021D01*
G37*
G36*
X19360367Y2984694D02*
G01*
X19361409Y2618368D01*
X19362452Y2252041D01*
X19807377Y2252041D01*
X19807377Y2101021D01*
X19182787Y2101021D01*
X19182787Y2986894D01*
X19360367Y2984694D01*
G37*
G36*
X16388461Y2989969D02*
G01*
X16447561Y2990207D01*
X16499171Y2990227D01*
X16543964Y2989972D01*
X16582612Y2989385D01*
X16615787Y2988409D01*
X16644163Y2986989D01*
X16668412Y2985068D01*
X16689206Y2982590D01*
X16707219Y2979497D01*
X16723123Y2975734D01*
X16737591Y2971244D01*
X16751295Y2965970D01*
X16764909Y2959857D01*
X16768661Y2958052D01*
X16790291Y2944514D01*
X16812593Y2925352D01*
X16833557Y2902657D01*
X16851174Y2878515D01*
X16859658Y2863488D01*
X16875956Y2822343D01*
X16885239Y2780304D01*
X16887769Y2738260D01*
X16883808Y2697102D01*
X16873619Y2657720D01*
X16857461Y2621005D01*
X16835598Y2587847D01*
X16808291Y2559136D01*
X16775802Y2535763D01*
X16760995Y2527905D01*
X16741375Y2519549D01*
X16718191Y2511237D01*
X16695897Y2504543D01*
X16692131Y2503584D01*
X16654881Y2494448D01*
X16682734Y2476306D01*
X16718464Y2448983D01*
X16753489Y2414184D01*
X16787129Y2372598D01*
X16793097Y2364286D01*
X16801209Y2352436D01*
X16812214Y2335853D01*
X16825531Y2315462D01*
X16840573Y2292184D01*
X16856759Y2266945D01*
X16873502Y2240666D01*
X16890220Y2214273D01*
X16906329Y2188687D01*
X16921244Y2164833D01*
X16934382Y2143634D01*
X16945158Y2126014D01*
X16952989Y2112895D01*
X16957290Y2105202D01*
X16957940Y2103620D01*
X16954036Y2102922D01*
X16943041Y2102295D01*
X16926027Y2101765D01*
X16904066Y2101359D01*
X16878231Y2101102D01*
X16851963Y2101021D01*
X16745986Y2101021D01*
X16671685Y2212245D01*
X16641320Y2257594D01*
X16614987Y2296632D01*
X16592266Y2329891D01*
X16572735Y2357903D01*
X16555975Y2381201D01*
X16541565Y2400317D01*
X16529086Y2415782D01*
X16518117Y2428129D01*
X16508237Y2437889D01*
X16499027Y2445596D01*
X16490066Y2451781D01*
X16480934Y2456976D01*
X16476710Y2459106D01*
X16466713Y2463684D01*
X16457400Y2466890D01*
X16446893Y2469028D01*
X16433310Y2470399D01*
X16414771Y2471307D01*
X16397679Y2471833D01*
X16374585Y2472324D01*
X16358523Y2472259D01*
X16348379Y2471560D01*
X16343033Y2470146D01*
X16341370Y2467938D01*
X16341364Y2467810D01*
X16341335Y2462660D01*
X16341316Y2450219D01*
X16341305Y2431360D01*
X16341302Y2406955D01*
X16341309Y2377877D01*
X16341324Y2344999D01*
X16341347Y2309194D01*
X16341364Y2288091D01*
X16341340Y2250980D01*
X16341208Y2216272D01*
X16340980Y2184845D01*
X16340667Y2157577D01*
X16340281Y2135347D01*
X16339833Y2119032D01*
X16339333Y2109512D01*
X16339037Y2107478D01*
X16337312Y2105315D01*
X16333348Y2103686D01*
X16326131Y2102520D01*
X16314651Y2101744D01*
X16297895Y2101284D01*
X16274850Y2101068D01*
X16249467Y2101021D01*
X16223623Y2101185D01*
X16200615Y2101644D01*
X16181668Y2102347D01*
X16168006Y2103245D01*
X16160854Y2104288D01*
X16160114Y2104679D01*
X16159819Y2109173D01*
X16159553Y2121297D01*
X16159318Y2140521D01*
X16159116Y2166313D01*
X16158947Y2198139D01*
X16158814Y2235468D01*
X16158718Y2277769D01*
X16158660Y2324508D01*
X16158643Y2375155D01*
X16158667Y2429176D01*
X16158734Y2486041D01*
X16158845Y2545217D01*
X16158853Y2548557D01*
X16159101Y2658010D01*
X16340201Y2658010D01*
X16340292Y2639689D01*
X16340498Y2627296D01*
X16340793Y2622081D01*
X16341924Y2619865D01*
X16345000Y2618189D01*
X16351017Y2616982D01*
X16360967Y2616172D01*
X16375846Y2615685D01*
X16396648Y2615449D01*
X16424366Y2615393D01*
X16432645Y2615399D01*
X16462985Y2615618D01*
X16494228Y2616175D01*
X16524173Y2617007D01*
X16550622Y2618051D01*
X16571377Y2619245D01*
X16573431Y2619399D01*
X16606472Y2622982D01*
X16632618Y2628391D01*
X16653046Y2636218D01*
X16668930Y2647055D01*
X16681446Y2661491D01*
X16691050Y2678572D01*
X16697321Y2698051D01*
X16700580Y2721533D01*
X16700717Y2745809D01*
X16697624Y2767671D01*
X16694433Y2777682D01*
X16682101Y2797960D01*
X16663943Y2815867D01*
X16642297Y2829230D01*
X16636371Y2831697D01*
X16629686Y2833960D01*
X16622314Y2835810D01*
X16613302Y2837311D01*
X16601696Y2838529D01*
X16586541Y2839530D01*
X16566885Y2840379D01*
X16541773Y2841140D01*
X16510252Y2841881D01*
X16478149Y2842533D01*
X16341779Y2845194D01*
X16340626Y2737025D01*
X16340366Y2707830D01*
X16340225Y2681107D01*
X16340201Y2658010D01*
X16159101Y2658010D01*
X16159852Y2988776D01*
X16388461Y2989969D01*
G37*
G36*
X18223642Y5393479D02*
G01*
X18233666Y5386178D01*
X18243538Y5374934D01*
X18254132Y5358768D01*
X18264293Y5340000D01*
X18272860Y5320950D01*
X18278676Y5303939D01*
X18280601Y5292151D01*
X18276574Y5274501D01*
X18264519Y5255651D01*
X18244481Y5235645D01*
X18216501Y5214523D01*
X18180624Y5192327D01*
X18175221Y5189275D01*
X18136944Y5169068D01*
X18104351Y5154475D01*
X18077256Y5145434D01*
X18055470Y5141886D01*
X18038808Y5143771D01*
X18036685Y5144540D01*
X18031923Y5150336D01*
X18033313Y5161298D01*
X18040790Y5177300D01*
X18054288Y5198217D01*
X18073743Y5223923D01*
X18084710Y5237364D01*
X18097378Y5254217D01*
X18105220Y5269280D01*
X18109617Y5284303D01*
X18115924Y5305656D01*
X18125437Y5327878D01*
X18136885Y5348596D01*
X18148996Y5365436D01*
X18157670Y5374029D01*
X18178229Y5388516D01*
X18195310Y5396464D01*
X18210064Y5398057D01*
X18223642Y5393479D01*
G37*
G36*
X22129094Y3985908D02*
G01*
X22132272Y4000482D01*
X22146462Y4039972D01*
X22166867Y4074727D01*
X22192817Y4104218D01*
X22223640Y4127918D01*
X22258665Y4145298D01*
X22297222Y4155832D01*
X22333838Y4159020D01*
X22374415Y4155332D01*
X22412336Y4144302D01*
X22446853Y4126523D01*
X22477218Y4102590D01*
X22502684Y4073097D01*
X22522504Y4038638D01*
X22535931Y3999807D01*
X22536365Y3998001D01*
X22541733Y3963247D01*
X22540637Y3929526D01*
X22536225Y3905482D01*
X22523222Y3867197D01*
X22503677Y3833021D01*
X22478408Y3803597D01*
X22448233Y3779568D01*
X22413970Y3761576D01*
X22376436Y3750263D01*
X22336450Y3746272D01*
X22333594Y3746284D01*
X22314627Y3747143D01*
X22296000Y3749073D01*
X22281384Y3751680D01*
X22279970Y3752048D01*
X22243461Y3766027D01*
X22210852Y3786288D01*
X22182714Y3811868D01*
X22159618Y3841807D01*
X22142136Y3875142D01*
X22130841Y3910911D01*
X22127025Y3942225D01*
X22168091Y3942225D01*
X22173546Y3910013D01*
X22185217Y3879374D01*
X22202847Y3851266D01*
X22226180Y3826648D01*
X22254958Y3806480D01*
X22287368Y3792228D01*
X22301972Y3789307D01*
X22322388Y3787916D01*
X22340437Y3787992D01*
X22361289Y3789189D01*
X22377206Y3791655D01*
X22391394Y3796038D01*
X22401387Y3800305D01*
X22433231Y3819042D01*
X22459221Y3842648D01*
X22479160Y3870134D01*
X22492853Y3900510D01*
X22500105Y3932788D01*
X22500718Y3965979D01*
X22494499Y3999093D01*
X22481251Y4031141D01*
X22460777Y4061134D01*
X22454415Y4068294D01*
X22428121Y4090741D01*
X22398184Y4106642D01*
X22365835Y4116001D01*
X22332304Y4118821D01*
X22298825Y4115107D01*
X22266626Y4104861D01*
X22236940Y4088087D01*
X22213577Y4067614D01*
X22191596Y4038704D01*
X22176859Y4007529D01*
X22169110Y3975050D01*
X22168091Y3942225D01*
X22127025Y3942225D01*
X22126303Y3948154D01*
X22129094Y3985908D01*
G37*
G36*
X21728506Y2614930D02*
G01*
X21735373Y2670966D01*
X21747032Y2724630D01*
X21763463Y2774713D01*
X21784645Y2820008D01*
X21798254Y2842352D01*
X21832670Y2887993D01*
X21870188Y2926449D01*
X21911350Y2958041D01*
X21956694Y2983088D01*
X22006763Y3001911D01*
X22062097Y3014829D01*
X22098088Y3019884D01*
X22157713Y3023120D01*
X22216253Y3019846D01*
X22272653Y3010286D01*
X22325854Y2994665D01*
X22374800Y2973210D01*
X22407190Y2954023D01*
X22451789Y2919612D01*
X22490039Y2880306D01*
X22521976Y2836027D01*
X22547637Y2786696D01*
X22567060Y2732234D01*
X22580279Y2672562D01*
X22587333Y2607600D01*
X22588628Y2562245D01*
X22586002Y2496512D01*
X22578028Y2436556D01*
X22564515Y2381829D01*
X22545271Y2331778D01*
X22520106Y2285856D01*
X22488830Y2243510D01*
X22471334Y2224024D01*
X22431164Y2187734D01*
X22385941Y2157848D01*
X22335685Y2134376D01*
X22280418Y2117328D01*
X22220162Y2106713D01*
X22205722Y2105194D01*
X22185651Y2103369D01*
X22170580Y2102242D01*
X22158024Y2101819D01*
X22145500Y2102107D01*
X22130523Y2103113D01*
X22110608Y2104843D01*
X22103665Y2105471D01*
X22045430Y2114472D01*
X21990593Y2130448D01*
X21939644Y2153099D01*
X21893077Y2182126D01*
X21851383Y2217231D01*
X21815054Y2258115D01*
X21789081Y2296641D01*
X21766767Y2341510D01*
X21749368Y2391263D01*
X21736863Y2444690D01*
X21729231Y2500584D01*
X21726884Y2548843D01*
X21912702Y2548843D01*
X21916399Y2495369D01*
X21925526Y2447008D01*
X21940166Y2403199D01*
X21946637Y2388776D01*
X21969046Y2351077D01*
X21997117Y2318912D01*
X22030226Y2292788D01*
X22067747Y2273209D01*
X22103665Y2261854D01*
X22128669Y2258281D01*
X22158090Y2257437D01*
X22188705Y2259167D01*
X22217294Y2263314D01*
X22236511Y2268260D01*
X22253449Y2275185D01*
X22272824Y2285047D01*
X22290618Y2295789D01*
X22291622Y2296467D01*
X22323338Y2322449D01*
X22349656Y2353703D01*
X22370900Y2390727D01*
X22387396Y2434017D01*
X22391915Y2450000D01*
X22395281Y2463661D01*
X22397753Y2476197D01*
X22399457Y2489241D01*
X22400523Y2504427D01*
X22401079Y2523391D01*
X22401254Y2547765D01*
X22401219Y2568368D01*
X22401003Y2597909D01*
X22400508Y2620869D01*
X22399606Y2638830D01*
X22398173Y2653372D01*
X22396083Y2666076D01*
X22393209Y2678524D01*
X22392119Y2682653D01*
X22377494Y2725984D01*
X22358531Y2763029D01*
X22334731Y2794709D01*
X22326492Y2803385D01*
X22295065Y2829808D01*
X22260477Y2849184D01*
X22222113Y2861752D01*
X22179357Y2867749D01*
X22158776Y2868368D01*
X22114561Y2865397D01*
X22075179Y2856253D01*
X22039741Y2840582D01*
X22007359Y2818034D01*
X21989361Y2801396D01*
X21964713Y2772340D01*
X21945311Y2740031D01*
X21930775Y2703489D01*
X21920725Y2661733D01*
X21914779Y2613780D01*
X21914353Y2607993D01*
X21912702Y2548843D01*
X21726884Y2548843D01*
X21726452Y2557733D01*
X21728506Y2614930D01*
G37*
G36*
X17287061Y2990817D02*
G01*
X17339941Y2990778D01*
X17385358Y2990653D01*
X17424011Y2990425D01*
X17456600Y2990078D01*
X17483827Y2989597D01*
X17506390Y2988965D01*
X17524990Y2988168D01*
X17540328Y2987188D01*
X17553103Y2986012D01*
X17564017Y2984621D01*
X17564389Y2984566D01*
X17602518Y2977606D01*
X17634204Y2968677D01*
X17661074Y2957047D01*
X17684753Y2941988D01*
X17706870Y2922767D01*
X17710837Y2918782D01*
X17732872Y2891682D01*
X17751978Y2859267D01*
X17766593Y2824273D01*
X17768796Y2817347D01*
X17773859Y2792914D01*
X17776405Y2763520D01*
X17776472Y2731957D01*
X17774095Y2701019D01*
X17769312Y2673500D01*
X17766798Y2664286D01*
X17750411Y2624135D01*
X17727773Y2589223D01*
X17698877Y2559543D01*
X17663713Y2535087D01*
X17622275Y2515849D01*
X17582402Y2503666D01*
X17545484Y2494611D01*
X17573192Y2476399D01*
X17603548Y2453329D01*
X17634407Y2424094D01*
X17664094Y2390398D01*
X17684587Y2363213D01*
X17692746Y2351245D01*
X17703775Y2334563D01*
X17717090Y2314095D01*
X17732106Y2290770D01*
X17748240Y2265514D01*
X17764905Y2239256D01*
X17781517Y2212924D01*
X17797493Y2187447D01*
X17812246Y2163751D01*
X17825193Y2142766D01*
X17835749Y2125418D01*
X17843329Y2112637D01*
X17847348Y2105350D01*
X17847841Y2104082D01*
X17843949Y2103258D01*
X17832968Y2102517D01*
X17815973Y2101892D01*
X17794042Y2101414D01*
X17768248Y2101113D01*
X17742592Y2101021D01*
X17637305Y2101021D01*
X17563992Y2210050D01*
X17532853Y2256234D01*
X17505759Y2296089D01*
X17482303Y2330127D01*
X17462075Y2358863D01*
X17444669Y2382808D01*
X17429675Y2402476D01*
X17416686Y2418379D01*
X17405293Y2431031D01*
X17395088Y2440944D01*
X17385664Y2448631D01*
X17376612Y2454605D01*
X17367524Y2459379D01*
X17364479Y2460764D01*
X17354318Y2464691D01*
X17343387Y2467480D01*
X17329835Y2469395D01*
X17311811Y2470698D01*
X17287627Y2471645D01*
X17231537Y2473373D01*
X17230475Y2288217D01*
X17229412Y2103062D01*
X17140622Y2101962D01*
X17051833Y2100862D01*
X17051833Y2615306D01*
X17231453Y2615306D01*
X17322284Y2615399D01*
X17352639Y2615617D01*
X17383867Y2616169D01*
X17413781Y2616994D01*
X17440196Y2618030D01*
X17460927Y2619216D01*
X17463160Y2619383D01*
X17494770Y2622756D01*
X17519669Y2627696D01*
X17539240Y2634698D01*
X17554867Y2644256D01*
X17567932Y2656866D01*
X17567937Y2656873D01*
X17581833Y2679029D01*
X17589789Y2706265D01*
X17591961Y2736444D01*
X17588025Y2765753D01*
X17577196Y2791332D01*
X17560075Y2812384D01*
X17537260Y2828111D01*
X17517354Y2835770D01*
X17509858Y2836823D01*
X17495284Y2837938D01*
X17474719Y2839067D01*
X17449251Y2840160D01*
X17419966Y2841170D01*
X17387951Y2842046D01*
X17367189Y2842502D01*
X17231453Y2845199D01*
X17231453Y2615306D01*
X17051833Y2615306D01*
X17051833Y2990817D01*
X17287061Y2990817D01*
G37*
%TO.C,TP7*%
X51950000Y29050000D02*
X49050000Y29050000D01*
X49050000Y29050000D02*
X49050000Y31950000D01*
X51950000Y31950000D02*
X51950000Y29050000D01*
X49050000Y31950000D02*
X51950000Y31950000D01*
%TO.C,R7*%
X42245276Y42477500D02*
X42754724Y42477500D01*
X42245276Y43522500D02*
X42754724Y43522500D01*
%TO.C,TP6*%
X56050000Y46550000D02*
X56050000Y49450000D01*
X56050000Y49450000D02*
X58950000Y49450000D01*
X58950000Y49450000D02*
X58950000Y46550000D01*
X58950000Y46550000D02*
X56050000Y46550000D01*
%TO.C,R8*%
X43245276Y34977500D02*
X43754724Y34977500D01*
X43245276Y36022500D02*
X43754724Y36022500D01*
%TO.C,TP4*%
X35050000Y29050000D02*
X35050000Y31950000D01*
X37950000Y29050000D02*
X35050000Y29050000D01*
X37950000Y31950000D02*
X37950000Y29050000D01*
X35050000Y31950000D02*
X37950000Y31950000D01*
%TO.C,R4*%
X50245276Y36022500D02*
X50754724Y36022500D01*
X50245276Y34977500D02*
X50754724Y34977500D01*
%TO.C,R2*%
X36245276Y34977500D02*
X36754724Y34977500D01*
X36245276Y36022500D02*
X36754724Y36022500D01*
D10*
%TO.C,J1*%
X40650010Y5569999D02*
X33810010Y5569999D01*
X51350010Y13009999D02*
X58190010Y13009999D01*
X33810010Y13009999D02*
X40650010Y13009999D01*
X58190010Y5569999D02*
X51350010Y5569999D01*
X33810010Y5569999D02*
X33810010Y13009999D01*
X58190010Y13009999D02*
X58190010Y5569999D01*
X42043010Y5026999D02*
G75*
G03*
X42043010Y5026999I-100000J0D01*
G01*
D16*
%TO.C,R1*%
X35245276Y43522500D02*
X35754724Y43522500D01*
X35245276Y42477500D02*
X35754724Y42477500D01*
%TO.C,TP1*%
X44950000Y49450000D02*
X44950000Y46550000D01*
X42050000Y46550000D02*
X42050000Y49450000D01*
X44950000Y46550000D02*
X42050000Y46550000D01*
X42050000Y49450000D02*
X44950000Y49450000D01*
%TO.C,R6*%
X54022500Y39245276D02*
X54022500Y39754724D01*
X52977500Y39245276D02*
X52977500Y39754724D01*
%TO.C,R5*%
X40022500Y39245276D02*
X40022500Y39754724D01*
X38977500Y39245276D02*
X38977500Y39754724D01*
%TD*%
M02*
