%TF.GenerationSoftware,KiCad,Pcbnew,(6.0.1-0)*%
%TF.CreationDate,2022-02-08T16:02:54-05:00*%
%TF.ProjectId,FP Interface Card,46502049-6e74-4657-9266-616365204361,rev?*%
%TF.SameCoordinates,Original*%
%TF.FileFunction,Copper,L1,Top*%
%TF.FilePolarity,Positive*%
%FSLAX46Y46*%
G04 Gerber Fmt 4.6, Leading zero omitted, Abs format (unit mm)*
G04 Created by KiCad (PCBNEW (6.0.1-0)) date 2022-02-08 16:02:54*
%MOMM*%
%LPD*%
G01*
G04 APERTURE LIST*
G04 Aperture macros list*
%AMRoundRect*
0 Rectangle with rounded corners*
0 $1 Rounding radius*
0 $2 $3 $4 $5 $6 $7 $8 $9 X,Y pos of 4 corners*
0 Add a 4 corners polygon primitive as box body*
4,1,4,$2,$3,$4,$5,$6,$7,$8,$9,$2,$3,0*
0 Add four circle primitives for the rounded corners*
1,1,$1+$1,$2,$3*
1,1,$1+$1,$4,$5*
1,1,$1+$1,$6,$7*
1,1,$1+$1,$8,$9*
0 Add four rect primitives between the rounded corners*
20,1,$1+$1,$2,$3,$4,$5,0*
20,1,$1+$1,$4,$5,$6,$7,0*
20,1,$1+$1,$6,$7,$8,$9,0*
20,1,$1+$1,$8,$9,$2,$3,0*%
%AMFreePoly0*
4,1,12,0.105238,2.379067,0.194454,2.319454,0.254067,2.230238,0.275000,2.125000,0.275000,-1.400000,-0.275000,-1.400000,-0.275000,2.125000,-0.254067,2.230238,-0.194454,2.319454,-0.105238,2.379067,0.000000,2.400000,0.105238,2.379067,0.105238,2.379067,$1*%
G04 Aperture macros list end*
%TA.AperFunction,ComponentPad*%
%ADD10C,5.080000*%
%TD*%
%TA.AperFunction,SMDPad,CuDef*%
%ADD11R,0.370000X1.000000*%
%TD*%
%TA.AperFunction,SMDPad,CuDef*%
%ADD12R,1.400000X1.050000*%
%TD*%
%TA.AperFunction,SMDPad,CuDef*%
%ADD13FreePoly0,0.000000*%
%TD*%
%TA.AperFunction,SMDPad,CuDef*%
%ADD14RoundRect,0.140000X-0.140000X-0.170000X0.140000X-0.170000X0.140000X0.170000X-0.140000X0.170000X0*%
%TD*%
%TA.AperFunction,SMDPad,CuDef*%
%ADD15RoundRect,0.140000X0.140000X0.170000X-0.140000X0.170000X-0.140000X-0.170000X0.140000X-0.170000X0*%
%TD*%
%TA.AperFunction,SMDPad,CuDef*%
%ADD16RoundRect,0.140000X-0.170000X0.140000X-0.170000X-0.140000X0.170000X-0.140000X0.170000X0.140000X0*%
%TD*%
%TA.AperFunction,SMDPad,CuDef*%
%ADD17RoundRect,0.225000X-0.250000X0.225000X-0.250000X-0.225000X0.250000X-0.225000X0.250000X0.225000X0*%
%TD*%
%TA.AperFunction,SMDPad,CuDef*%
%ADD18RoundRect,0.250000X-0.650000X0.325000X-0.650000X-0.325000X0.650000X-0.325000X0.650000X0.325000X0*%
%TD*%
%TA.AperFunction,SMDPad,CuDef*%
%ADD19R,0.400000X0.450000*%
%TD*%
%TA.AperFunction,SMDPad,CuDef*%
%ADD20R,0.500000X0.450000*%
%TD*%
%TA.AperFunction,SMDPad,CuDef*%
%ADD21RoundRect,0.135000X0.185000X-0.135000X0.185000X0.135000X-0.185000X0.135000X-0.185000X-0.135000X0*%
%TD*%
%TA.AperFunction,SMDPad,CuDef*%
%ADD22RoundRect,0.135000X-0.135000X-0.185000X0.135000X-0.185000X0.135000X0.185000X-0.135000X0.185000X0*%
%TD*%
%TA.AperFunction,SMDPad,CuDef*%
%ADD23R,1.060000X0.650000*%
%TD*%
%TA.AperFunction,SMDPad,CuDef*%
%ADD24RoundRect,0.237500X0.237500X-0.250000X0.237500X0.250000X-0.237500X0.250000X-0.237500X-0.250000X0*%
%TD*%
%TA.AperFunction,SMDPad,CuDef*%
%ADD25R,2.500000X2.500000*%
%TD*%
%TA.AperFunction,SMDPad,CuDef*%
%ADD26RoundRect,0.150000X0.150000X-0.587500X0.150000X0.587500X-0.150000X0.587500X-0.150000X-0.587500X0*%
%TD*%
%TA.AperFunction,SMDPad,CuDef*%
%ADD27RoundRect,0.237500X-0.250000X-0.237500X0.250000X-0.237500X0.250000X0.237500X-0.250000X0.237500X0*%
%TD*%
%TA.AperFunction,ComponentPad*%
%ADD28C,1.070000*%
%TD*%
%TA.AperFunction,ComponentPad*%
%ADD29C,1.270000*%
%TD*%
%TA.AperFunction,ViaPad*%
%ADD30C,0.508000*%
%TD*%
%TA.AperFunction,ViaPad*%
%ADD31C,0.381000*%
%TD*%
%TA.AperFunction,ViaPad*%
%ADD32C,0.800000*%
%TD*%
%TA.AperFunction,Conductor*%
%ADD33C,0.508000*%
%TD*%
%TA.AperFunction,Conductor*%
%ADD34C,0.254000*%
%TD*%
%TA.AperFunction,Conductor*%
%ADD35C,0.203200*%
%TD*%
%TA.AperFunction,Conductor*%
%ADD36C,0.250000*%
%TD*%
%TA.AperFunction,Conductor*%
%ADD37C,0.381000*%
%TD*%
G04 APERTURE END LIST*
D10*
%TO.P,H2,1,1*%
%TO.N,/CHS*%
X82540000Y90810000D03*
%TD*%
%TO.P,H1,1,1*%
%TO.N,/CHS*%
X8880000Y90810000D03*
%TD*%
D11*
%TO.P,D3,1,K*%
%TO.N,Net-(D3-Pad1)*%
X8623778Y100375720D03*
%TO.P,D3,2,A*%
%TO.N,Net-(D3-Pad2)*%
X10483778Y100375720D03*
%TD*%
D12*
%TO.P,SW1,*%
%TO.N,*%
X15653770Y99750833D03*
X15653770Y98300833D03*
%TO.P,SW1,1,1*%
%TO.N,/SW_NO*%
X12053770Y99750833D03*
%TO.P,SW1,2,2*%
%TO.N,GND*%
X12053770Y98300833D03*
%TD*%
D13*
%TO.P,P1,2,Pin_2*%
%TO.N,/SEP2*%
X19883820Y96562847D03*
%TO.P,P1,4,Pin_4*%
%TO.N,/+X_SOLAR_TLE*%
X20683820Y96562847D03*
%TO.P,P1,6,Pin_6*%
%TO.N,/+X_SOLAR_RTN*%
X21483820Y96562847D03*
%TO.P,P1,8,Pin_8*%
%TO.N,/+X_SOLAR_PWR*%
X22283820Y96562847D03*
%TO.P,P1,10,Pin_10*%
%TO.N,/H1-2*%
X23083820Y96562847D03*
%TO.P,P1,12,Pin_12*%
%TO.N,/H2-2*%
X23883820Y96562847D03*
%TO.P,P1,14,Pin_14*%
%TO.N,/H1-4*%
X24683820Y96562847D03*
%TO.P,P1,16,Pin_16*%
%TO.N,/H2-4*%
X25483820Y96562847D03*
%TO.P,P1,18,Pin_18*%
%TO.N,/H1-6*%
X26283820Y96562847D03*
%TO.P,P1,20,Pin_20*%
%TO.N,/H2-6*%
X27083820Y96562847D03*
%TO.P,P1,22,Pin_22*%
%TO.N,/H1-8*%
X27883820Y96562847D03*
%TO.P,P1,24,Pin_24*%
%TO.N,/H2-8*%
X28683820Y96562847D03*
%TO.P,P1,26,Pin_26*%
%TO.N,/H1-10*%
X29483820Y96562847D03*
%TO.P,P1,28,Pin_28*%
%TO.N,/H2-10*%
X30283820Y96562847D03*
%TO.P,P1,30,Pin_30*%
%TO.N,/H1-12*%
X31083820Y96562847D03*
%TO.P,P1,32,Pin_32*%
%TO.N,/H2-12*%
X31883820Y96562847D03*
%TO.P,P1,34,Pin_34*%
%TO.N,/H1-14*%
X32683820Y96562847D03*
%TO.P,P1,36,Pin_36*%
%TO.N,/H2-14*%
X33483820Y96562847D03*
%TO.P,P1,38,Pin_38*%
%TO.N,/H1-16*%
X34283820Y96562847D03*
%TO.P,P1,40,Pin_40*%
%TO.N,/H2-16*%
X35083820Y96562847D03*
%TO.P,P1,42,Pin_42*%
%TO.N,/H1-18*%
X35883820Y96562847D03*
%TO.P,P1,44,Pin_44*%
%TO.N,/H2-18*%
X36683820Y96562847D03*
%TO.P,P1,46,Pin_46*%
%TO.N,/H1-20*%
X37483820Y96562847D03*
%TO.P,P1,48,Pin_48*%
%TO.N,/H2-20*%
X38283820Y96562847D03*
%TO.P,P1,50,Pin_50*%
%TO.N,/H1-22*%
X39083820Y96562847D03*
%TO.P,P1,52,Pin_52*%
%TO.N,/H2-22*%
X39883820Y96562847D03*
%TO.P,P1,54,Pin_54*%
%TO.N,/H1-24*%
X40683820Y96562847D03*
%TO.P,P1,56,Pin_56*%
%TO.N,/H2-24*%
X41483820Y96562847D03*
%TO.P,P1,58,Pin_58*%
%TO.N,/H1-26*%
X42283820Y96562847D03*
%TO.P,P1,60,Pin_60*%
%TO.N,+5V*%
X43083820Y96562847D03*
%TO.P,P1,62,Pin_62*%
%TO.N,/H1-28*%
X43883820Y96562847D03*
%TO.P,P1,64,Pin_64*%
%TO.N,+3V3*%
X44683820Y96562847D03*
%TO.P,P1,66,Pin_66*%
%TO.N,/H1-30*%
X48683820Y96562847D03*
%TO.P,P1,68,Pin_68*%
%TO.N,GND*%
X49483820Y96562847D03*
%TO.P,P1,70,Pin_70*%
%TO.N,/5V_USB*%
X50283820Y96562847D03*
%TO.P,P1,72,Pin_72*%
%TO.N,GND*%
X51083820Y96562847D03*
%TO.P,P1,74,Pin_74*%
%TO.N,/H1-34*%
X51883820Y96562847D03*
%TO.P,P1,76,Pin_76*%
%TO.N,/H2-34*%
X52683820Y96562847D03*
%TO.P,P1,78,Pin_78*%
%TO.N,/H1-36*%
X53483820Y96562847D03*
%TO.P,P1,80,Pin_80*%
%TO.N,/H2-36*%
X54283820Y96562847D03*
%TO.P,P1,82,Pin_82*%
%TO.N,/H1-38*%
X55083820Y96562847D03*
%TO.P,P1,84,Pin_84*%
%TO.N,/H2-38*%
X55883820Y96562847D03*
%TO.P,P1,86,Pin_86*%
%TO.N,/H1-40*%
X56683820Y96562847D03*
%TO.P,P1,88,Pin_88*%
%TO.N,/H2-40*%
X57483820Y96562847D03*
%TO.P,P1,90,Pin_90*%
%TO.N,/H1-42*%
X58283820Y96562847D03*
%TO.P,P1,92,Pin_92*%
%TO.N,/H2-42*%
X59083820Y96562847D03*
%TO.P,P1,94,Pin_94*%
%TO.N,/H1-44*%
X59883820Y96562847D03*
%TO.P,P1,96,Pin_96*%
%TO.N,/H2-44*%
X60683820Y96562847D03*
%TO.P,P1,98,Pin_98*%
%TO.N,/H1-46*%
X61483820Y96562847D03*
%TO.P,P1,100,Pin_100*%
%TO.N,/H2-46*%
X62283820Y96562847D03*
%TO.P,P1,102,Pin_102*%
%TO.N,/USER_1*%
X63083820Y96562847D03*
%TO.P,P1,104,Pin_104*%
%TO.N,GND*%
X63883820Y96562847D03*
%TO.P,P1,106,Pin_106*%
%TO.N,/H1-50*%
X64683820Y96562847D03*
%TO.P,P1,108,Pin_108*%
%TO.N,/H2-50*%
X65483820Y96562847D03*
%TO.P,P1,110,Pin_110*%
%TO.N,/H1-52*%
X66283820Y96562847D03*
%TO.P,P1,112,Pin_112*%
%TO.N,/H2-52*%
X67083820Y96562847D03*
%TO.P,P1,114,Pin_114*%
%TO.N,/-X_SOLAR_TLE*%
X67883820Y96562847D03*
%TO.P,P1,116,Pin_116*%
%TO.N,/-X_SOLAR_RTN*%
X68683820Y96562847D03*
%TO.P,P1,118,Pin_118*%
%TO.N,/-X_SOLAR_PWR*%
X69483820Y96562847D03*
%TO.P,P1,120,Pin_120*%
%TO.N,/SEP4*%
X70283820Y96562847D03*
%TD*%
D14*
%TO.P,C7,1*%
%TO.N,GND*%
X2758500Y90932000D03*
%TO.P,C7,2*%
%TO.N,/CHS*%
X3718500Y90932000D03*
%TD*%
D15*
%TO.P,C8,1*%
%TO.N,GND*%
X88300500Y90805000D03*
%TO.P,C8,2*%
%TO.N,/CHS*%
X87340500Y90805000D03*
%TD*%
D16*
%TO.P,C9,1*%
%TO.N,GND*%
X88900000Y6068000D03*
%TO.P,C9,2*%
%TO.N,/CHS*%
X88900000Y5108000D03*
%TD*%
%TO.P,C10,1*%
%TO.N,GND*%
X1143000Y6004500D03*
%TO.P,C10,2*%
%TO.N,/CHS*%
X1143000Y5044500D03*
%TD*%
D17*
%TO.P,C3,1*%
%TO.N,Net-(C3-Pad1)*%
X82702400Y98539600D03*
%TO.P,C3,2*%
%TO.N,GND*%
X82702400Y96989600D03*
%TD*%
D16*
%TO.P,C4,1*%
%TO.N,Net-(C3-Pad1)*%
X81407000Y98524000D03*
%TO.P,C4,2*%
%TO.N,GND*%
X81407000Y97564000D03*
%TD*%
%TO.P,C1,1*%
%TO.N,/5V_USB*%
X76428600Y98524000D03*
%TO.P,C1,2*%
%TO.N,GND*%
X76428600Y97564000D03*
%TD*%
D18*
%TO.P,C2,1*%
%TO.N,/5V_USB*%
X74803000Y98503000D03*
%TO.P,C2,2*%
%TO.N,GND*%
X74803000Y95553000D03*
%TD*%
D10*
%TO.P,H3,1,1*%
%TO.N,/CHS*%
X85080000Y5080000D03*
%TD*%
%TO.P,H4,1,1*%
%TO.N,/CHS*%
X5080000Y5080000D03*
%TD*%
D19*
%TO.P,Q7,1,B*%
%TO.N,Net-(Q7-Pad1)*%
X6940600Y99221600D03*
%TO.P,Q7,2,E*%
%TO.N,GND*%
X7740600Y99221600D03*
D20*
%TO.P,Q7,3,C*%
%TO.N,Net-(D3-Pad1)*%
X7340600Y100371600D03*
%TD*%
D21*
%TO.P,R24,1*%
%TO.N,/5V_USB*%
X10795000Y96454500D03*
%TO.P,R24,2*%
%TO.N,/SW_NO*%
X10795000Y97474500D03*
%TD*%
D22*
%TO.P,R22,1*%
%TO.N,Net-(Q7-Pad1)*%
X6932200Y98272600D03*
%TO.P,R22,2*%
%TO.N,/5V_USB*%
X7952200Y98272600D03*
%TD*%
D21*
%TO.P,R18,1*%
%TO.N,/5V_USB*%
X9423400Y97991200D03*
%TO.P,R18,2*%
%TO.N,Net-(D3-Pad2)*%
X9423400Y99011200D03*
%TD*%
D22*
%TO.P,R13,1*%
%TO.N,/5V_USB*%
X77493400Y94869000D03*
%TO.P,R13,2*%
%TO.N,/~{USB_FLAG}*%
X78513400Y94869000D03*
%TD*%
D23*
%TO.P,U1,1,OUT*%
%TO.N,/5V_USB*%
X77817800Y98511400D03*
%TO.P,U1,2,GND*%
%TO.N,GND*%
X77817800Y97561400D03*
%TO.P,U1,3,~{FLG}*%
%TO.N,/~{USB_FLAG}*%
X77817800Y96611400D03*
%TO.P,U1,4,~{EN}*%
%TO.N,/~{USB_EN}*%
X80017800Y96611400D03*
%TO.P,U1,5,IN*%
%TO.N,Net-(C3-Pad1)*%
X80017800Y98511400D03*
%TD*%
D22*
%TO.P,R14,1*%
%TO.N,/~{USB_EN}*%
X80008000Y95250000D03*
%TO.P,R14,2*%
%TO.N,GND*%
X81028000Y95250000D03*
%TD*%
D24*
%TO.P,R12,1*%
%TO.N,/RXD*%
X60500000Y38587500D03*
%TO.P,R12,2*%
%TO.N,/H1-20*%
X60500000Y40412500D03*
%TD*%
D25*
%TO.P,TP8,1,1*%
%TO.N,/RXD*%
X57500000Y30500000D03*
%TD*%
D26*
%TO.P,Q4,1,G*%
%TO.N,+3V3*%
X56550000Y38562500D03*
%TO.P,Q4,2,S*%
%TO.N,/RXD*%
X58450000Y38562500D03*
%TO.P,Q4,3,D*%
%TO.N,/H1-20*%
X57500000Y40437500D03*
%TD*%
D25*
%TO.P,TP5,1,1*%
%TO.N,/H1-19*%
X50500000Y48000000D03*
%TD*%
D27*
%TO.P,R9,1*%
%TO.N,+3V3*%
X55587500Y43000000D03*
%TO.P,R9,2*%
%TO.N,/H1-20*%
X57412500Y43000000D03*
%TD*%
D26*
%TO.P,Q3,1,G*%
%TO.N,+3V3*%
X42550000Y38562500D03*
%TO.P,Q3,2,S*%
%TO.N,/RESET*%
X44450000Y38562500D03*
%TO.P,Q3,3,D*%
%TO.N,/H1-6*%
X43500000Y40437500D03*
%TD*%
D25*
%TO.P,TP2,1,1*%
%TO.N,/H2-6*%
X36500000Y48000000D03*
%TD*%
D27*
%TO.P,R3,1*%
%TO.N,+3V3*%
X48587500Y43000000D03*
%TO.P,R3,2*%
%TO.N,/H1-19*%
X50412500Y43000000D03*
%TD*%
D26*
%TO.P,Q2,1,G*%
%TO.N,+3V3*%
X49550000Y38562500D03*
%TO.P,Q2,2,S*%
%TO.N,/TXD*%
X51450000Y38562500D03*
%TO.P,Q2,3,D*%
%TO.N,/H1-19*%
X50500000Y40437500D03*
%TD*%
%TO.P,Q1,1,G*%
%TO.N,+3V3*%
X35550000Y38562500D03*
%TO.P,Q1,2,S*%
%TO.N,/SERVO_PWR_CTRL*%
X37450000Y38562500D03*
%TO.P,Q1,3,D*%
%TO.N,/H2-6*%
X36500000Y40437500D03*
%TD*%
D25*
%TO.P,TP3,1,1*%
%TO.N,/RESET*%
X43500000Y30500000D03*
%TD*%
D27*
%TO.P,R10,1*%
%TO.N,+5V*%
X56587500Y35500000D03*
%TO.P,R10,2*%
%TO.N,/RXD*%
X58412500Y35500000D03*
%TD*%
D24*
%TO.P,R11,1*%
%TO.N,/RESET*%
X46500000Y38587500D03*
%TO.P,R11,2*%
%TO.N,/H1-6*%
X46500000Y40412500D03*
%TD*%
D25*
%TO.P,TP7,1,1*%
%TO.N,/TXD*%
X50500000Y30500000D03*
%TD*%
D27*
%TO.P,R7,1*%
%TO.N,+3V3*%
X41587500Y43000000D03*
%TO.P,R7,2*%
%TO.N,/H1-6*%
X43412500Y43000000D03*
%TD*%
D25*
%TO.P,TP6,1,1*%
%TO.N,/H1-20*%
X57500000Y48000000D03*
%TD*%
D27*
%TO.P,R8,1*%
%TO.N,+5V*%
X42587500Y35500000D03*
%TO.P,R8,2*%
%TO.N,/RESET*%
X44412500Y35500000D03*
%TD*%
D25*
%TO.P,TP4,1,1*%
%TO.N,/SERVO_PWR_CTRL*%
X36500000Y30500000D03*
%TD*%
D27*
%TO.P,R4,1*%
%TO.N,+5V*%
X49587500Y35500000D03*
%TO.P,R4,2*%
%TO.N,/TXD*%
X51412500Y35500000D03*
%TD*%
%TO.P,R2,1*%
%TO.N,+5V*%
X35587500Y35500000D03*
%TO.P,R2,2*%
%TO.N,/SERVO_PWR_CTRL*%
X37412500Y35500000D03*
%TD*%
D28*
%TO.P,J1,1,Pin_1*%
%TO.N,GND*%
X42000010Y8499999D03*
%TO.P,J1,2,Pin_2*%
X42000010Y10499999D03*
%TO.P,J1,3,Pin_3*%
X44000010Y8499999D03*
%TO.P,J1,4,Pin_4*%
%TO.N,/SERVO_PWR_CTRL*%
X44000010Y10499999D03*
%TO.P,J1,5,Pin_5*%
%TO.N,/RXD*%
X46000010Y8499999D03*
%TO.P,J1,6,Pin_6*%
%TO.N,/TXD*%
X46000010Y10499999D03*
%TO.P,J1,7,Pin_7*%
%TO.N,/RESET*%
X48000010Y8499999D03*
%TO.P,J1,8,Pin_8*%
%TO.N,+5V*%
X48000010Y10499999D03*
%TO.P,J1,9,Pin_9*%
X50000010Y8499999D03*
%TO.P,J1,10,Pin_10*%
X50000010Y10499999D03*
D29*
%TO.P,J1,B*%
%TO.N,N/C*%
X53240010Y11404999D03*
X53240010Y7594999D03*
X57050010Y11404999D03*
X38760010Y11404999D03*
X34950010Y11404999D03*
X38760010Y7594999D03*
%TD*%
D27*
%TO.P,R1,1*%
%TO.N,+3V3*%
X34587500Y43000000D03*
%TO.P,R1,2*%
%TO.N,/H2-6*%
X36412500Y43000000D03*
%TD*%
D25*
%TO.P,TP1,1,1*%
%TO.N,/H1-6*%
X43500000Y48000000D03*
%TD*%
D24*
%TO.P,R6,1*%
%TO.N,/TXD*%
X53500000Y38587500D03*
%TO.P,R6,2*%
%TO.N,/H1-19*%
X53500000Y40412500D03*
%TD*%
%TO.P,R5,1*%
%TO.N,/SERVO_PWR_CTRL*%
X39500000Y38587500D03*
%TO.P,R5,2*%
%TO.N,/H2-6*%
X39500000Y40412500D03*
%TD*%
D30*
%TO.N,Net-(C3-Pad1)*%
X78930500Y96901000D03*
D31*
%TO.N,/5V_USB*%
X10096500Y98171000D03*
D32*
X29300000Y90250000D03*
X42800000Y90250000D03*
X25400000Y90250000D03*
X38600000Y90250000D03*
D31*
X6959600Y97383600D03*
D32*
%TO.N,/H2-6*%
X27083820Y92383820D03*
%TO.N,/H1-6*%
X39500000Y48000000D03*
X35000000Y52500000D03*
D31*
%TO.N,GND*%
X88773000Y90805000D03*
D32*
X51083820Y93016180D03*
D31*
X79499400Y92839600D03*
X76454000Y96964500D03*
D32*
X63900000Y93350000D03*
X49450000Y93000000D03*
D31*
X88900000Y6604000D03*
X12255500Y95504000D03*
D30*
X75374500Y94361000D03*
D31*
X2286000Y90932000D03*
X12890500Y98018600D03*
X1143000Y6477000D03*
D30*
X80772000Y97218500D03*
D31*
X8331200Y99187000D03*
D32*
%TO.N,/H1-19*%
X28400000Y90950000D03*
X24200000Y90950000D03*
X11800000Y93650000D03*
X37500000Y93000000D03*
%TO.N,/H1-20*%
X25400000Y91700000D03*
X29300000Y91700000D03*
D31*
X13589000Y96774000D03*
D32*
%TO.N,+5V*%
X43100000Y93000000D03*
X41500000Y35500000D03*
X55500000Y35500000D03*
X48500000Y35500000D03*
X34500000Y35500000D03*
%TO.N,+3V3*%
X44150000Y93000000D03*
X49550000Y42037500D03*
X56550000Y42037500D03*
X42550000Y42037500D03*
X35550000Y42037500D03*
%TD*%
D33*
%TO.N,/CHS*%
X3718500Y90932000D02*
X8758000Y90932000D01*
X85108000Y5108000D02*
X85080000Y5080000D01*
X1143000Y5044500D02*
X5044500Y5044500D01*
X5044500Y5044500D02*
X5080000Y5080000D01*
X8758000Y90932000D02*
X8880000Y90810000D01*
X88900000Y5108000D02*
X85108000Y5108000D01*
X82545000Y90805000D02*
X82540000Y90810000D01*
X87340500Y90805000D02*
X82545000Y90805000D01*
%TO.N,Net-(C3-Pad1)*%
X80046000Y98539600D02*
X80017800Y98511400D01*
X82702400Y98539600D02*
X80046000Y98539600D01*
X79207400Y98511400D02*
X80017800Y98511400D01*
X78930500Y98234500D02*
X79207400Y98511400D01*
X78930500Y96901000D02*
X78930500Y98234500D01*
D34*
%TO.N,/5V_USB*%
X10795000Y93605000D02*
X14150000Y90250000D01*
D33*
X77817800Y98511400D02*
X74811400Y98511400D01*
D34*
X75000000Y90250000D02*
X50250000Y90250000D01*
D33*
X77491400Y94871000D02*
X77493400Y94869000D01*
D34*
X6959600Y97383600D02*
X7912100Y97383600D01*
X8519700Y97991200D02*
X8382000Y97853500D01*
X38600000Y90250000D02*
X29300000Y90250000D01*
D35*
X9916700Y97991200D02*
X10096500Y98171000D01*
D34*
X25400000Y90250000D02*
X14150000Y90250000D01*
X9423400Y97066100D02*
X9423400Y97991200D01*
D33*
X74803000Y98503000D02*
X74803000Y97599500D01*
D34*
X10795000Y96454500D02*
X10035000Y96454500D01*
X10795000Y96454500D02*
X10795000Y93605000D01*
X77493400Y94869000D02*
X77493400Y92743400D01*
X50283820Y96562847D02*
X50283820Y90283820D01*
D33*
X76504800Y94871000D02*
X77491400Y94871000D01*
D34*
X10035000Y96454500D02*
X9423400Y97066100D01*
D33*
X74803000Y97599500D02*
X76504800Y95897700D01*
D34*
X9423400Y97991200D02*
X8519700Y97991200D01*
X50283820Y90283820D02*
X50250000Y90250000D01*
X7912100Y97383600D02*
X8382000Y97853500D01*
X77493400Y92743400D02*
X75000000Y90250000D01*
X7962900Y98272600D02*
X8382000Y97853500D01*
X7952200Y98272600D02*
X7962900Y98272600D01*
D33*
X76504800Y95897700D02*
X76504800Y94871000D01*
D34*
X50250000Y90250000D02*
X42800000Y90250000D01*
X9423400Y97991200D02*
X9895300Y97991200D01*
D33*
X74811400Y98511400D02*
X74803000Y98503000D01*
D35*
X9423400Y97991200D02*
X9916700Y97991200D01*
D36*
%TO.N,/H2-6*%
X27083820Y92383820D02*
X27083820Y90916180D01*
X36500000Y40437500D02*
X36500000Y42912500D01*
X36500000Y42912500D02*
X36412500Y43000000D01*
X36412500Y43000000D02*
X36500000Y43087500D01*
X36525000Y40412500D02*
X36500000Y40437500D01*
X27083820Y96562847D02*
X27083820Y92383820D01*
X39500000Y40412500D02*
X36525000Y40412500D01*
X36500000Y81500000D02*
X36500000Y48000000D01*
X36500000Y43087500D02*
X36500000Y48000000D01*
X27083820Y90916180D02*
X36500000Y81500000D01*
%TO.N,/H1-6*%
X35000000Y81500000D02*
X26283820Y90216180D01*
X43500000Y40437500D02*
X43500000Y42912500D01*
X43500000Y42912500D02*
X43412500Y43000000D01*
X46500000Y40412500D02*
X43525000Y40412500D01*
X43525000Y40412500D02*
X43500000Y40437500D01*
X26283820Y90216180D02*
X26283820Y96562847D01*
X43500000Y48000000D02*
X39500000Y48000000D01*
X43500000Y43087500D02*
X43500000Y48000000D01*
X43412500Y43000000D02*
X43500000Y43087500D01*
X35000000Y52500000D02*
X35000000Y81500000D01*
D34*
%TO.N,/SW_NO*%
X11867288Y99750833D02*
X12053770Y99750833D01*
X10795000Y97474500D02*
X10795000Y98678545D01*
X10795000Y98678545D02*
X11867288Y99750833D01*
D35*
X11841433Y99750833D02*
X12053770Y99750833D01*
X12053770Y99750833D02*
X11878770Y99750833D01*
D34*
%TO.N,/~{USB_FLAG}*%
X78013600Y96611400D02*
X78513400Y96111600D01*
X77817800Y96611400D02*
X78013600Y96611400D01*
X78513400Y96111600D02*
X78513400Y94869000D01*
D35*
%TO.N,/~{USB_EN}*%
X80017800Y96611400D02*
X80017800Y95259800D01*
X80017800Y95259800D02*
X80008000Y95250000D01*
%TO.N,Net-(D3-Pad1)*%
X8619658Y100371600D02*
X8623778Y100375720D01*
X7340600Y100371600D02*
X8619658Y100371600D01*
%TO.N,Net-(D3-Pad2)*%
X10483778Y100094978D02*
X10483778Y100375720D01*
X9423400Y99034600D02*
X10483778Y100094978D01*
X9423400Y99011200D02*
X9423400Y99034600D01*
D33*
%TO.N,GND*%
X63883820Y96562847D02*
X63883820Y93366180D01*
D37*
X74803000Y95553000D02*
X74803000Y94932500D01*
D34*
X8296600Y99221600D02*
X8331200Y99187000D01*
D37*
X74803000Y94932500D02*
X75374500Y94361000D01*
D36*
X12053770Y98300833D02*
X11852699Y98099762D01*
X2758500Y90932000D02*
X2286000Y90932000D01*
D35*
X81028000Y96962500D02*
X80772000Y97218500D01*
D33*
X63883820Y93366180D02*
X63900000Y93350000D01*
D36*
X88300500Y90805000D02*
X88773000Y90805000D01*
D34*
X81407000Y96964500D02*
X82677300Y96964500D01*
D35*
X12336003Y98018600D02*
X12053770Y98300833D01*
D37*
X80962500Y97028000D02*
X81407000Y97028000D01*
D36*
X88900000Y6068000D02*
X88900000Y6604000D01*
D34*
X82677300Y96964500D02*
X82702400Y96989600D01*
X77817800Y97561400D02*
X76431200Y97561400D01*
D37*
X82664000Y97028000D02*
X82702400Y96989600D01*
D34*
X81407000Y97564000D02*
X81407000Y96964500D01*
D37*
X80772000Y97218500D02*
X80962500Y97028000D01*
D34*
X76431200Y97561400D02*
X76428600Y97564000D01*
X76428600Y97564000D02*
X76428600Y96989900D01*
D35*
X12890500Y98018600D02*
X12336003Y98018600D01*
D33*
X49483820Y96562847D02*
X49483820Y93033820D01*
X49483820Y93033820D02*
X49450000Y93000000D01*
X51083820Y96562847D02*
X51083820Y93016180D01*
D35*
X81028000Y95250000D02*
X81028000Y96962500D01*
D37*
X81407000Y97028000D02*
X82664000Y97028000D01*
D36*
X1143000Y6004500D02*
X1143000Y6477000D01*
D37*
X81407000Y97564000D02*
X81407000Y97028000D01*
D36*
X11852699Y98099762D02*
X11852699Y95906801D01*
X11852699Y95906801D02*
X12255500Y95504000D01*
D34*
X76428600Y96989900D02*
X76454000Y96964500D01*
X7740600Y99221600D02*
X8296600Y99221600D01*
D36*
%TO.N,/SERVO_PWR_CTRL*%
X37412500Y35500000D02*
X37412500Y33587500D01*
X37450000Y38562500D02*
X39475000Y38562500D01*
X37412500Y33587500D02*
X36500000Y32675000D01*
D34*
X44000000Y19500000D02*
X36500000Y27000000D01*
X36500000Y27000000D02*
X36500000Y30500000D01*
D36*
X37412500Y38525000D02*
X37450000Y38562500D01*
D34*
X44000000Y10500000D02*
X44000000Y19500000D01*
D36*
X37412500Y35500000D02*
X37412500Y38525000D01*
X39475000Y38562500D02*
X39500000Y38587500D01*
X36500000Y32675000D02*
X36500000Y30500000D01*
%TO.N,/RXD*%
X58412500Y38525000D02*
X58450000Y38562500D01*
X58412500Y35412500D02*
X58412500Y33500000D01*
X57500000Y32587500D02*
X57500000Y30412500D01*
D34*
X47196979Y14996979D02*
X47196979Y20196979D01*
X47196979Y20196979D02*
X57500000Y30500000D01*
D36*
X47196979Y9696968D02*
X46000010Y8499999D01*
X47196979Y14996979D02*
X47196979Y9696968D01*
X58412500Y33500000D02*
X57500000Y32587500D01*
X58450000Y38562500D02*
X60475000Y38562500D01*
X58412500Y35500000D02*
X58412500Y38525000D01*
X60475000Y38562500D02*
X60500000Y38587500D01*
%TO.N,/TXD*%
X51450000Y38562500D02*
X53475000Y38562500D01*
X51412500Y35500000D02*
X51412500Y38525000D01*
X53475000Y38562500D02*
X53500000Y38587500D01*
D34*
X46000000Y26000000D02*
X50500000Y30500000D01*
X46000000Y10500000D02*
X46000000Y26000000D01*
D36*
X51412500Y38525000D02*
X51450000Y38562500D01*
X50500000Y32587500D02*
X50500000Y30412500D01*
X51412500Y35412500D02*
X51412500Y33500000D01*
X51412500Y33500000D02*
X50500000Y32587500D01*
%TO.N,/RESET*%
X46475000Y38562500D02*
X46500000Y38587500D01*
D34*
X44932178Y29067822D02*
X44932178Y7817822D01*
X46900011Y7400000D02*
X48000010Y8499999D01*
X43500000Y30500000D02*
X44932178Y29067822D01*
X45350000Y7400000D02*
X46900011Y7400000D01*
D36*
X44412500Y38525000D02*
X44450000Y38562500D01*
X44450000Y38562500D02*
X46475000Y38562500D01*
X44412500Y35412500D02*
X44412500Y33500000D01*
D34*
X44932178Y7817822D02*
X45350000Y7400000D01*
D36*
X44412500Y33500000D02*
X43500000Y32587500D01*
X43500000Y32587500D02*
X43500000Y30412500D01*
X44412500Y35500000D02*
X44412500Y38525000D01*
D34*
%TO.N,/H1-19*%
X14500000Y90950000D02*
X24200000Y90950000D01*
D36*
X50500000Y48000000D02*
X50500000Y80000000D01*
X50500000Y42912500D02*
X50412500Y43000000D01*
X50500000Y80000000D02*
X37500000Y93000000D01*
X50500000Y43087500D02*
X50500000Y48000000D01*
D34*
X11800000Y93650000D02*
X14500000Y90950000D01*
D36*
X50500000Y40437500D02*
X50500000Y42912500D01*
D34*
X35450000Y90950000D02*
X37500000Y93000000D01*
D36*
X50412500Y43000000D02*
X50500000Y43087500D01*
D34*
X28400000Y90950000D02*
X35450000Y90950000D01*
D36*
X53475000Y40437500D02*
X53500000Y40412500D01*
X50500000Y40437500D02*
X53475000Y40437500D01*
D34*
%TO.N,/H1-20*%
X13589000Y92761000D02*
X14650000Y91700000D01*
X14650000Y91700000D02*
X25400000Y91700000D01*
D36*
X57412500Y43000000D02*
X57500000Y43087500D01*
X57412500Y40525000D02*
X57500000Y40437500D01*
X60500000Y40412500D02*
X57525000Y40412500D01*
X57500000Y74000000D02*
X57500000Y48000000D01*
X57525000Y40412500D02*
X57500000Y40437500D01*
X57412500Y43000000D02*
X57412500Y40525000D01*
D34*
X29300000Y91700000D02*
X35167640Y91700000D01*
D36*
X37483820Y96562847D02*
X37483820Y94016180D01*
D34*
X13589000Y96774000D02*
X13589000Y92761000D01*
X35167640Y91700000D02*
X37483820Y94016180D01*
D36*
X57500000Y43087500D02*
X57500000Y48000000D01*
X37483820Y94016180D02*
X57500000Y74000000D01*
%TO.N,+5V*%
X35587500Y35500000D02*
X34500000Y35500000D01*
D33*
X43083820Y96562847D02*
X43083820Y93016180D01*
X43083820Y93016180D02*
X43100000Y93000000D01*
D36*
X56587500Y35500000D02*
X55500000Y35500000D01*
X42587500Y35500000D02*
X41500000Y35500000D01*
X49587500Y35500000D02*
X48500000Y35500000D01*
%TO.N,+3V3*%
X42550000Y38562500D02*
X42550000Y42037500D01*
X35550000Y42037500D02*
X34587500Y43000000D01*
X35550000Y38562500D02*
X35550000Y42037500D01*
X56550000Y42037500D02*
X55587500Y43000000D01*
X49550000Y38562500D02*
X49550000Y42037500D01*
X56550000Y38562500D02*
X56550000Y42037500D01*
X42550000Y42037500D02*
X41587500Y43000000D01*
X49550000Y42037500D02*
X48587500Y43000000D01*
D33*
X44683820Y93533820D02*
X44150000Y93000000D01*
X44683820Y96562847D02*
X44683820Y93533820D01*
D35*
%TO.N,Net-(Q7-Pad1)*%
X6940600Y98281000D02*
X6932200Y98272600D01*
X6940600Y99221600D02*
X6940600Y98281000D01*
%TD*%
M02*
