M48
INCH,TZ
T1C0.0100
T2C0.0118
T3C0.0157
T4C0.0984
T5C0.1250
%
G90
G05
T1
X16251Y-33242
X16257Y-62548
X16299Y-33974
X16707Y-29298
X17090Y-43308
X17134Y-39861
X17380Y-33954
X17384Y-38411
X17620Y-43844
X17640Y-38411
X17874Y-42644
X17874Y-32185
X17893Y-34411
X18249Y-44582
X18406Y-34547
X18534Y-41384
X18590Y-32165
X18642Y-43169
X18660Y-34411
X18740Y-43839
X18916Y-34547
X18917Y-27421
X18917Y-38287
X18937Y-42480
X19087Y-26048
X19126Y-27196
X19172Y-34411
X19175Y-38411
X19208Y-40590
X19350Y-44587
X19428Y-34547
X19429Y-38287
X19609Y-45889
X19637Y-44581
X19684Y-34411
X19687Y-38411
X19782Y-26448
X19902Y-50531
X19934Y-40688
X19941Y-34547
X19941Y-38287
X20000Y-44528
X20315Y-42362
X20374Y-36004
X20433Y-38780
X20531Y-36280
X20632Y-27498
X20669Y-39075
X20734Y-40688
X20734Y-42034
X20882Y-26508
X20925Y-50768
X21043Y-36791
X21043Y-43465
X21157Y-26998
X21264Y-35834
X21264Y-36434
X21280Y-37028
X21424Y-41589
X21444Y-44080
X21860Y-28219
X22032Y-41554
X22034Y-44084
X22224Y-27618
X22303Y-45689
X22321Y-44529
X22697Y-30610
X22784Y-34084
X22784Y-34384
X22788Y-44988
X23115Y-45988
X23130Y-42912
X23209Y-41280
X23602Y-29547
X23622Y-39557
X23622Y-40157
X23622Y-40757
X23681Y-29823
X23839Y-35610
X23839Y-37858
X23884Y-35034
X24084Y-34084
X24084Y-34384
X24154Y-35492
X24154Y-37858
X24248Y-45988
X24250Y-43950
X24508Y-30059
X24508Y-35531
X24724Y-40157
X24731Y-39558
X24732Y-40756
X24736Y-46400
X24921Y-39252
X24958Y-32334
X25010Y-31960
X25222Y-38206
X25361Y-39724
X25372Y-40820
X25412Y-38906
X25650Y-46100
X25808Y-30560
X26161Y-29232
X26271Y-62846
X26332Y-40514
X26466Y-33802
X26466Y-37008
X26614Y-38653
X26634Y-29547
X26679Y-37729
X26694Y-37154
X26791Y-28524
X26924Y-38584
X26978Y-33802
X27034Y-32884
X27067Y-30335
X27490Y-33802
X27500Y-40748
X27544Y-38584
X27677Y-39783
X27677Y-40394
X27678Y-39182
X27743Y-34705
X27764Y-37104
X27779Y-37729
X27881Y-33346
X27958Y-32334
X28010Y-31960
X28051Y-29823
X28072Y-38198
X28091Y-38642
X28228Y-39764
X28262Y-38899
X28406Y-40965
X28563Y-39311
X28619Y-39597
X28808Y-30560
X29000Y-45100
X29182Y-40564
X29470Y-46500
X29804Y-39302
X30014Y-40270
X30024Y-32884
X30034Y-31784
X30098Y-39173
X30162Y-38069
X30328Y-39700
X30350Y-46150
X30357Y-38869
X30531Y-29744
X30561Y-40650
X30807Y-28839
X31095Y-33296
X31479Y-33802
X31479Y-37008
X31516Y-30256
X31692Y-37729
X31713Y-37185
X31956Y-38584
X31991Y-33802
X32150Y-45100
X32176Y-32334
X32228Y-31960
X32502Y-33802
X32537Y-38584
X32596Y-46450
X32758Y-34744
X32758Y-37067
X32776Y-28484
X32801Y-37729
X33047Y-30568
X33257Y-28498
X33505Y-46150
X33574Y-33591
X33574Y-34705
X33957Y-62790
X34262Y-31792
X34262Y-32892
X34300Y-34714
X35138Y-62028
X35276Y-28484
X35604Y-31076
X35608Y-62937
X35919Y-28478
X37495Y-34143
X37495Y-36043
X37618Y-32067
X37776Y-32539
X37776Y-39783
X37822Y-29259
X37972Y-36831
X38012Y-32303
X38124Y-29160
X38209Y-36988
X38406Y-28957
X38760Y-28169
X39350Y-29850
X39390Y-28169
X39503Y-39547
X39569Y-34705
X39572Y-32796
X40020Y-57146
X40059Y-58091
X40571Y-33878
X40571Y-35689
X40787Y-58362
X40800Y-29950
X40965Y-28346
X41007Y-35856
X41081Y-30971
X41107Y-33156
X41150Y-31650
X41200Y-29950
X41226Y-34967
X41762Y-59174
X41870Y-32815
X43117Y-43298
X43117Y-47198
X43322Y-44089
X43322Y-48008
X43362Y-46048
X43362Y-48848
X43372Y-44948
X43372Y-49948
X43562Y-31429
X43562Y-33229
X43562Y-35029
X43562Y-36679
X43652Y-53509
X43654Y-57703
X43662Y-40268
X43662Y-40729
X43912Y-45148
X43912Y-45448
X43912Y-49048
X43912Y-49348
X44362Y-40268
X44362Y-40729
X44407Y-43298
X44407Y-47198
X44469Y-57343
X44547Y-53130
X44625Y-41886
X44672Y-48579
X44682Y-46198
X44682Y-50098
X44695Y-44656
X44792Y-56409
X44793Y-60603
X45062Y-40268
X45062Y-40729
X45300Y-41861
X45325Y-39111
X45482Y-27948
X45722Y-44089
X45722Y-48008
X45762Y-40268
X45762Y-40729
X45825Y-57703
X45906Y-31398
X45906Y-33198
X45906Y-34998
X45906Y-36648
X45907Y-26923
X45921Y-53530
X46025Y-39111
X46117Y-44104
X46127Y-48004
X46236Y-45694
X46236Y-49598
X46362Y-43248
X46362Y-47148
X46676Y-46134
X46676Y-50038
X46694Y-39739
X46713Y-57303
X46823Y-53104
X46882Y-26948
X46962Y-36168
X46962Y-37818
X46965Y-60603
X47060Y-56430
X47106Y-28547
X47562Y-32568
X47562Y-34368
X47562Y-36168
X47562Y-37818
X47718Y-41993
X47722Y-26889
X47972Y-42146
X47974Y-39739
X48106Y-32598
X48106Y-34404
X48106Y-36204
X48106Y-37854
X48107Y-43998
X48107Y-47898
X48522Y-44298
X48522Y-48198
X48536Y-45505
X48541Y-49397
X48973Y-45937
X48973Y-49829
X49152Y-35048
X49162Y-31448
X49162Y-33248
X49162Y-36698
X49162Y-40268
X49162Y-41848
X49172Y-40748
X49622Y-44298
X49622Y-48198
X50757Y-29348
X50807Y-62498
T2
X23740Y-36341
X23740Y-36734
X23740Y-37128
X24134Y-36341
X24134Y-36734
X24134Y-37128
X24528Y-36341
X24528Y-36734
X24528Y-37128
T3
X18907Y-52579
X18917Y-58602
X23917Y-52579
X23917Y-58602
X25557Y-42148
X28057Y-41148
X28917Y-52579
X28917Y-58602
X29007Y-42148
X30807Y-41148
X31161Y-61398
X31161Y-61870
X31161Y-62382
X31307Y-42148
X33157Y-42348
X33207Y-41648
X33857Y-42748
X33917Y-52579
X33917Y-58602
X34257Y-41948
X34350Y-43300
X35335Y-55610
X39114Y-60886
X39114Y-61398
X39114Y-61870
X39503Y-43894
X40650Y-37461
X40650Y-37972
X41161Y-37461
X41161Y-37972
X41673Y-37461
X41673Y-37972
X42224Y-60374
X42224Y-60886
X42224Y-61358
X42224Y-61870
X44114Y-62697
X44862Y-62697
X50728Y-27815
T4
X22057Y-47465
X22057Y-62701
X27215Y-47701
X37057Y-47701
T5
X17807Y-63098
X19303Y-29346
X48303Y-29346
X49303Y-63098
T0
M30
