G04 #@! TF.GenerationSoftware,KiCad,Pcbnew,(6.0.5)*
G04 #@! TF.CreationDate,2022-06-17T13:42:06-04:00*
G04 #@! TF.ProjectId,FP Interface Card,46502049-6e74-4657-9266-616365204361,rev?*
G04 #@! TF.SameCoordinates,Original*
G04 #@! TF.FileFunction,Paste,Top*
G04 #@! TF.FilePolarity,Positive*
%FSLAX46Y46*%
G04 Gerber Fmt 4.6, Leading zero omitted, Abs format (unit mm)*
G04 Created by KiCad (PCBNEW (6.0.5)) date 2022-06-17 13:42:06*
%MOMM*%
%LPD*%
G01*
G04 APERTURE LIST*
G04 Aperture macros list*
%AMRoundRect*
0 Rectangle with rounded corners*
0 $1 Rounding radius*
0 $2 $3 $4 $5 $6 $7 $8 $9 X,Y pos of 4 corners*
0 Add a 4 corners polygon primitive as box body*
4,1,4,$2,$3,$4,$5,$6,$7,$8,$9,$2,$3,0*
0 Add four circle primitives for the rounded corners*
1,1,$1+$1,$2,$3*
1,1,$1+$1,$4,$5*
1,1,$1+$1,$6,$7*
1,1,$1+$1,$8,$9*
0 Add four rect primitives between the rounded corners*
20,1,$1+$1,$2,$3,$4,$5,0*
20,1,$1+$1,$4,$5,$6,$7,0*
20,1,$1+$1,$6,$7,$8,$9,0*
20,1,$1+$1,$8,$9,$2,$3,0*%
G04 Aperture macros list end*
%ADD10R,0.370000X1.000000*%
%ADD11R,1.400000X1.050000*%
%ADD12RoundRect,0.140000X-0.140000X-0.170000X0.140000X-0.170000X0.140000X0.170000X-0.140000X0.170000X0*%
%ADD13RoundRect,0.140000X0.140000X0.170000X-0.140000X0.170000X-0.140000X-0.170000X0.140000X-0.170000X0*%
%ADD14RoundRect,0.140000X-0.170000X0.140000X-0.170000X-0.140000X0.170000X-0.140000X0.170000X0.140000X0*%
%ADD15RoundRect,0.225000X-0.250000X0.225000X-0.250000X-0.225000X0.250000X-0.225000X0.250000X0.225000X0*%
%ADD16RoundRect,0.250000X-0.650000X0.325000X-0.650000X-0.325000X0.650000X-0.325000X0.650000X0.325000X0*%
%ADD17R,0.400000X0.450000*%
%ADD18R,0.500000X0.450000*%
%ADD19RoundRect,0.135000X0.185000X-0.135000X0.185000X0.135000X-0.185000X0.135000X-0.185000X-0.135000X0*%
%ADD20RoundRect,0.135000X-0.135000X-0.185000X0.135000X-0.185000X0.135000X0.185000X-0.135000X0.185000X0*%
%ADD21RoundRect,0.150000X-0.512500X-0.150000X0.512500X-0.150000X0.512500X0.150000X-0.512500X0.150000X0*%
%ADD22RoundRect,0.200000X0.275000X-0.200000X0.275000X0.200000X-0.275000X0.200000X-0.275000X-0.200000X0*%
%ADD23RoundRect,0.100000X-0.712500X-0.100000X0.712500X-0.100000X0.712500X0.100000X-0.712500X0.100000X0*%
%ADD24RoundRect,0.200000X-0.200000X-0.275000X0.200000X-0.275000X0.200000X0.275000X-0.200000X0.275000X0*%
%ADD25R,0.300000X0.450000*%
%ADD26R,0.450000X0.300000*%
%ADD27RoundRect,0.225000X0.225000X0.250000X-0.225000X0.250000X-0.225000X-0.250000X0.225000X-0.250000X0*%
%ADD28RoundRect,0.225000X-0.225000X-0.250000X0.225000X-0.250000X0.225000X0.250000X-0.225000X0.250000X0*%
%ADD29R,0.350000X0.375000*%
%ADD30R,0.375000X0.350000*%
%ADD31RoundRect,0.250000X0.250000X0.475000X-0.250000X0.475000X-0.250000X-0.475000X0.250000X-0.475000X0*%
%ADD32RoundRect,0.250000X-0.250000X-0.475000X0.250000X-0.475000X0.250000X0.475000X-0.250000X0.475000X0*%
%ADD33RoundRect,0.200000X0.200000X0.275000X-0.200000X0.275000X-0.200000X-0.275000X0.200000X-0.275000X0*%
%ADD34RoundRect,0.200000X-0.275000X0.200000X-0.275000X-0.200000X0.275000X-0.200000X0.275000X0.200000X0*%
%ADD35RoundRect,0.150000X-0.150000X0.587500X-0.150000X-0.587500X0.150000X-0.587500X0.150000X0.587500X0*%
%ADD36R,0.400000X0.650000*%
%ADD37R,0.450000X1.750000*%
%ADD38RoundRect,0.225000X0.250000X-0.225000X0.250000X0.225000X-0.250000X0.225000X-0.250000X-0.225000X0*%
%ADD39RoundRect,0.150000X-0.587500X-0.150000X0.587500X-0.150000X0.587500X0.150000X-0.587500X0.150000X0*%
%ADD40RoundRect,0.150000X0.150000X-0.587500X0.150000X0.587500X-0.150000X0.587500X-0.150000X-0.587500X0*%
%ADD41RoundRect,0.100000X-0.100000X0.637500X-0.100000X-0.637500X0.100000X-0.637500X0.100000X0.637500X0*%
%ADD42RoundRect,0.014000X-0.231000X-0.161000X0.231000X-0.161000X0.231000X0.161000X-0.231000X0.161000X0*%
%ADD43RoundRect,0.014000X-0.161000X-0.231000X0.161000X-0.231000X0.161000X0.231000X-0.161000X0.231000X0*%
%ADD44R,0.600000X2.075000*%
%ADD45R,0.800000X2.325000*%
%ADD46RoundRect,0.150000X-0.150000X0.725000X-0.150000X-0.725000X0.150000X-0.725000X0.150000X0.725000X0*%
G04 APERTURE END LIST*
D10*
X48773778Y-64974280D03*
X50633778Y-64974280D03*
D11*
X52203770Y-65599167D03*
X55803770Y-65599167D03*
X52203770Y-67049167D03*
X55803770Y-67049167D03*
D12*
X42908500Y-74418000D03*
X43868500Y-74418000D03*
D13*
X128450500Y-74545000D03*
X127490500Y-74545000D03*
D14*
X129050000Y-159282000D03*
X129050000Y-160242000D03*
X41293000Y-159345500D03*
X41293000Y-160305500D03*
D15*
X122852400Y-66810400D03*
X122852400Y-68360400D03*
D14*
X121557000Y-66826000D03*
X121557000Y-67786000D03*
X116578600Y-66826000D03*
X116578600Y-67786000D03*
D16*
X114953000Y-66847000D03*
X114953000Y-69797000D03*
D17*
X47090600Y-66128400D03*
X47890600Y-66128400D03*
D18*
X47490600Y-64978400D03*
D19*
X50945000Y-68895500D03*
X50945000Y-67875500D03*
D20*
X47082200Y-67077400D03*
X48102200Y-67077400D03*
D19*
X49573400Y-67358800D03*
X49573400Y-66338800D03*
D20*
X117643400Y-70481000D03*
X118663400Y-70481000D03*
D21*
X117930300Y-66838600D03*
X117930300Y-67788600D03*
X117930300Y-68738600D03*
X120205300Y-68738600D03*
X120205300Y-66838600D03*
D20*
X120158000Y-70100000D03*
X121178000Y-70100000D03*
D22*
X91682000Y-89104000D03*
X91682000Y-87454000D03*
D23*
X96566500Y-78019000D03*
X96566500Y-78669000D03*
X96566500Y-79319000D03*
X96566500Y-79969000D03*
X100791500Y-79969000D03*
X100791500Y-79319000D03*
X100791500Y-78669000D03*
X100791500Y-78019000D03*
D22*
X119284000Y-91245000D03*
X119284000Y-89595000D03*
D24*
X60604400Y-100475800D03*
X62254400Y-100475800D03*
D25*
X118558000Y-126503000D03*
X119058000Y-126503000D03*
X119558000Y-126503000D03*
X120058000Y-126503000D03*
D26*
X120583000Y-125978000D03*
X120583000Y-125478000D03*
X120583000Y-124978000D03*
X120583000Y-124478000D03*
D25*
X120058000Y-123953000D03*
X119558000Y-123953000D03*
X119058000Y-123953000D03*
X118558000Y-123953000D03*
D26*
X118033000Y-124478000D03*
X118033000Y-124978000D03*
X118033000Y-125478000D03*
X118033000Y-125978000D03*
D27*
X43522600Y-86268200D03*
X41972600Y-86268200D03*
D28*
X113961000Y-112010000D03*
X115511000Y-112010000D03*
D29*
X123892000Y-116074500D03*
X124392000Y-116074500D03*
X124892000Y-116074500D03*
X125392000Y-116074500D03*
D30*
X125404500Y-115562000D03*
X125404500Y-115062000D03*
D29*
X125392000Y-114549500D03*
X124892000Y-114549500D03*
X124392000Y-114549500D03*
X123892000Y-114549500D03*
D30*
X123879500Y-115062000D03*
X123879500Y-115562000D03*
D22*
X119284000Y-86673000D03*
X119284000Y-85023000D03*
D31*
X112130000Y-109978000D03*
X110230000Y-109978000D03*
D32*
X119628000Y-111756000D03*
X121528000Y-111756000D03*
D24*
X104827000Y-91073000D03*
X106477000Y-91073000D03*
D33*
X118910611Y-143332402D03*
X117260611Y-143332402D03*
D24*
X117018611Y-146566402D03*
X118668611Y-146566402D03*
D33*
X113152611Y-152154402D03*
X111502611Y-152154402D03*
D15*
X77000000Y-101525000D03*
X77000000Y-103075000D03*
D33*
X118910611Y-141554402D03*
X117260611Y-141554402D03*
D34*
X47212200Y-82338400D03*
X47212200Y-83988400D03*
X110648000Y-85023000D03*
X110648000Y-86673000D03*
X48094200Y-105710400D03*
X48094200Y-107360400D03*
X112172000Y-80451000D03*
X112172000Y-82101000D03*
X53469800Y-108168600D03*
X53469800Y-109818600D03*
D22*
X66167000Y-98107000D03*
X66167000Y-96457000D03*
X113696000Y-82101000D03*
X113696000Y-80451000D03*
X87120800Y-87552600D03*
X87120800Y-85902600D03*
X120808000Y-91245000D03*
X120808000Y-89595000D03*
D35*
X100506000Y-84293500D03*
X98606000Y-84293500D03*
X99556000Y-86168500D03*
D34*
X85279200Y-85899400D03*
X85279200Y-87549400D03*
X112172000Y-89595000D03*
X112172000Y-91245000D03*
X112172000Y-93786000D03*
X112172000Y-95436000D03*
D29*
X123892000Y-125980500D03*
X124392000Y-125980500D03*
X124892000Y-125980500D03*
X125392000Y-125980500D03*
D30*
X125404500Y-125468000D03*
X125404500Y-124968000D03*
D29*
X125392000Y-124455500D03*
X124892000Y-124455500D03*
X124392000Y-124455500D03*
X123892000Y-124455500D03*
D30*
X123879500Y-124968000D03*
X123879500Y-125468000D03*
D34*
X102096000Y-84406000D03*
X102096000Y-86056000D03*
D24*
X41847000Y-84455000D03*
X43497000Y-84455000D03*
D34*
X110648000Y-93786000D03*
X110648000Y-95436000D03*
D22*
X119284000Y-95436000D03*
X119284000Y-93786000D03*
D36*
X123490000Y-80326000D03*
X122840000Y-80326000D03*
X122190000Y-80326000D03*
X122190000Y-82226000D03*
X122840000Y-82226000D03*
X123490000Y-82226000D03*
X123490000Y-84898000D03*
X122840000Y-84898000D03*
X122190000Y-84898000D03*
X122190000Y-86798000D03*
X122840000Y-86798000D03*
X123490000Y-86798000D03*
D37*
X43501200Y-96083400D03*
X44151200Y-96083400D03*
X44801200Y-96083400D03*
X45451200Y-96083400D03*
X46101200Y-96083400D03*
X46751200Y-96083400D03*
X47401200Y-96083400D03*
X48051200Y-96083400D03*
X48701200Y-96083400D03*
X49351200Y-96083400D03*
X50001200Y-96083400D03*
X50651200Y-96083400D03*
X50651200Y-88883400D03*
X50001200Y-88883400D03*
X49351200Y-88883400D03*
X48701200Y-88883400D03*
X48051200Y-88883400D03*
X47401200Y-88883400D03*
X46751200Y-88883400D03*
X46101200Y-88883400D03*
X45451200Y-88883400D03*
X44801200Y-88883400D03*
X44151200Y-88883400D03*
X43501200Y-88883400D03*
D22*
X119284000Y-82101000D03*
X119284000Y-80451000D03*
D33*
X113152611Y-153932402D03*
X111502611Y-153932402D03*
D38*
X117784000Y-112023000D03*
X117784000Y-110473000D03*
D24*
X45325600Y-111364200D03*
X46975600Y-111364200D03*
D22*
X113696000Y-91245000D03*
X113696000Y-89595000D03*
X95949000Y-100257000D03*
X95949000Y-98607000D03*
D28*
X96507000Y-76327000D03*
X98057000Y-76327000D03*
D39*
X117148111Y-137810402D03*
X117148111Y-139710402D03*
X119023111Y-138760402D03*
D40*
X97793000Y-98083500D03*
X99693000Y-98083500D03*
X98743000Y-96208500D03*
D39*
X111390111Y-148410402D03*
X111390111Y-150310402D03*
X113265111Y-149360402D03*
X104714500Y-87583000D03*
X104714500Y-89483000D03*
X106589500Y-88533000D03*
D34*
X93430000Y-84382000D03*
X93430000Y-86032000D03*
D24*
X117260611Y-135966402D03*
X118910611Y-135966402D03*
D38*
X124872000Y-91195000D03*
X124872000Y-89645000D03*
D33*
X118668611Y-152154402D03*
X117018611Y-152154402D03*
D34*
X114458000Y-104073000D03*
X114458000Y-105723000D03*
D38*
X124872000Y-86623000D03*
X124872000Y-85073000D03*
D24*
X111502611Y-146566402D03*
X113152611Y-146566402D03*
D22*
X97016000Y-86056000D03*
X97016000Y-84406000D03*
D41*
X122504000Y-100003500D03*
X121854000Y-100003500D03*
X121204000Y-100003500D03*
X120554000Y-100003500D03*
X119904000Y-100003500D03*
X119254000Y-100003500D03*
X118604000Y-100003500D03*
X118604000Y-105728500D03*
X119254000Y-105728500D03*
X119904000Y-105728500D03*
X120554000Y-105728500D03*
X121204000Y-105728500D03*
X121854000Y-105728500D03*
X122504000Y-105728500D03*
D24*
X68075000Y-99526000D03*
X69725000Y-99526000D03*
D22*
X120808000Y-86673000D03*
X120808000Y-85023000D03*
D38*
X124872000Y-95386000D03*
X124872000Y-93836000D03*
D35*
X100506000Y-89119500D03*
X98606000Y-89119500D03*
X99556000Y-90994500D03*
D15*
X71682000Y-101728000D03*
X71682000Y-103278000D03*
D38*
X117784000Y-121929000D03*
X117784000Y-120379000D03*
D22*
X124872000Y-101659000D03*
X124872000Y-100009000D03*
D24*
X73404400Y-101349800D03*
X75054400Y-101349800D03*
D36*
X123490000Y-89470000D03*
X122840000Y-89470000D03*
X122190000Y-89470000D03*
X122190000Y-91370000D03*
X122840000Y-91370000D03*
X123490000Y-91370000D03*
D34*
X93472000Y-77026000D03*
X93472000Y-78676000D03*
X112680000Y-104073000D03*
X112680000Y-105723000D03*
D38*
X110164000Y-126247000D03*
X110164000Y-124697000D03*
X124872000Y-105673000D03*
X124872000Y-104123000D03*
D34*
X110648000Y-89595000D03*
X110648000Y-91245000D03*
D27*
X112209000Y-121916000D03*
X110659000Y-121916000D03*
D33*
X106731000Y-85993000D03*
X105081000Y-85993000D03*
D34*
X101422000Y-93876000D03*
X101422000Y-95526000D03*
D22*
X113696000Y-95436000D03*
X113696000Y-93786000D03*
D24*
X68075000Y-101050000D03*
X69725000Y-101050000D03*
D34*
X115220000Y-85023000D03*
X115220000Y-86673000D03*
X116236000Y-104073000D03*
X116236000Y-105723000D03*
D27*
X125417000Y-112518000D03*
X123867000Y-112518000D03*
D34*
X45386200Y-82388400D03*
X45386200Y-84038400D03*
D42*
X112206000Y-124218000D03*
X112206000Y-124718000D03*
X112206000Y-125218000D03*
X112206000Y-125718000D03*
X112206000Y-126218000D03*
D43*
X112966000Y-126478000D03*
X113466000Y-126478000D03*
X113966000Y-126478000D03*
D42*
X114726000Y-126218000D03*
X114726000Y-125718000D03*
X114726000Y-125218000D03*
X114726000Y-124718000D03*
X114726000Y-124218000D03*
D43*
X113966000Y-123958000D03*
X113466000Y-123958000D03*
X112966000Y-123958000D03*
D33*
X106731000Y-84215000D03*
X105081000Y-84215000D03*
D25*
X118558000Y-116587000D03*
X119058000Y-116587000D03*
X119558000Y-116587000D03*
X120058000Y-116587000D03*
D26*
X120583000Y-116062000D03*
X120583000Y-115562000D03*
X120583000Y-115062000D03*
X120583000Y-114562000D03*
D25*
X120058000Y-114037000D03*
X119558000Y-114037000D03*
X119058000Y-114037000D03*
X118558000Y-114037000D03*
D26*
X118033000Y-114562000D03*
X118033000Y-115062000D03*
X118033000Y-115562000D03*
X118033000Y-116062000D03*
D34*
X112172000Y-85023000D03*
X112172000Y-86673000D03*
D22*
X112680000Y-101659000D03*
X112680000Y-100009000D03*
D34*
X115220000Y-93786000D03*
X115220000Y-95436000D03*
X110648000Y-80451000D03*
X110648000Y-82101000D03*
D38*
X124872000Y-82051000D03*
X124872000Y-80501000D03*
D44*
X104970000Y-161160502D03*
X105970000Y-161160502D03*
X106970000Y-161160502D03*
X107970000Y-161160502D03*
X108970000Y-161160502D03*
X109970000Y-161160502D03*
X110970000Y-161160502D03*
X111970000Y-161160502D03*
X112970000Y-161160502D03*
X113970000Y-161160502D03*
D45*
X103670000Y-158060502D03*
X115270000Y-158060502D03*
D22*
X43520200Y-100674400D03*
X43520200Y-99024400D03*
D28*
X113961000Y-121916000D03*
X115511000Y-121916000D03*
D31*
X112130000Y-119884000D03*
X110230000Y-119884000D03*
D27*
X125417000Y-122424000D03*
X123867000Y-122424000D03*
D33*
X113148611Y-141500402D03*
X111498611Y-141500402D03*
D24*
X73404400Y-99825800D03*
X75054400Y-99825800D03*
D34*
X110902000Y-104073000D03*
X110902000Y-105723000D03*
D24*
X60604400Y-101999800D03*
X62254400Y-101999800D03*
X73470000Y-96647000D03*
X75120000Y-96647000D03*
D42*
X112206000Y-114312000D03*
X112206000Y-114812000D03*
X112206000Y-115312000D03*
X112206000Y-115812000D03*
X112206000Y-116312000D03*
D43*
X112966000Y-116572000D03*
X113466000Y-116572000D03*
X113966000Y-116572000D03*
D42*
X114726000Y-116312000D03*
X114726000Y-115812000D03*
X114726000Y-115312000D03*
X114726000Y-114812000D03*
X114726000Y-114312000D03*
D43*
X113966000Y-114052000D03*
X113466000Y-114052000D03*
X112966000Y-114052000D03*
D39*
X116906111Y-148410402D03*
X116906111Y-150310402D03*
X118781111Y-149360402D03*
D24*
X79603600Y-84572200D03*
X81253600Y-84572200D03*
D22*
X110902000Y-101659000D03*
X110902000Y-100009000D03*
D44*
X91015000Y-109856500D03*
X92015000Y-109856500D03*
X93015000Y-109856500D03*
X94015000Y-109856500D03*
X95015000Y-109856500D03*
X96015000Y-109856500D03*
X97015000Y-109856500D03*
X98015000Y-109856500D03*
X99015000Y-109856500D03*
X100015000Y-109856500D03*
D45*
X89715000Y-106756500D03*
X101315000Y-106756500D03*
D33*
X70196400Y-84699800D03*
X68546400Y-84699800D03*
D22*
X120808000Y-82101000D03*
X120808000Y-80451000D03*
D39*
X111386111Y-137756402D03*
X111386111Y-139656402D03*
X113261111Y-138706402D03*
D24*
X68075000Y-102574000D03*
X69725000Y-102574000D03*
D46*
X105757000Y-98118000D03*
X104487000Y-98118000D03*
X103217000Y-98118000D03*
X101947000Y-98118000D03*
X101947000Y-103268000D03*
X103217000Y-103268000D03*
X104487000Y-103268000D03*
X105757000Y-103268000D03*
D34*
X91682000Y-84406000D03*
X91682000Y-86056000D03*
D22*
X120808000Y-95436000D03*
X120808000Y-93786000D03*
D36*
X117902000Y-80326000D03*
X117252000Y-80326000D03*
X116602000Y-80326000D03*
X116602000Y-82226000D03*
X117252000Y-82226000D03*
X117902000Y-82226000D03*
D22*
X95238000Y-86056000D03*
X95238000Y-84406000D03*
D33*
X113148611Y-143278402D03*
X111498611Y-143278402D03*
D36*
X117902000Y-84898000D03*
X117252000Y-84898000D03*
X116602000Y-84898000D03*
X116602000Y-86798000D03*
X117252000Y-86798000D03*
X117902000Y-86798000D03*
D33*
X118668611Y-153932402D03*
X117018611Y-153932402D03*
D34*
X102096000Y-89232000D03*
X102096000Y-90882000D03*
D38*
X110164000Y-116341000D03*
X110164000Y-114791000D03*
D22*
X95238000Y-90882000D03*
X95238000Y-89232000D03*
D24*
X111498611Y-135912402D03*
X113148611Y-135912402D03*
X60643000Y-98933000D03*
X62293000Y-98933000D03*
X73404400Y-98301800D03*
X75054400Y-98301800D03*
D22*
X93460000Y-89104000D03*
X93460000Y-87454000D03*
D34*
X115220000Y-89595000D03*
X115220000Y-91245000D03*
D15*
X64421000Y-101561000D03*
X64421000Y-103111000D03*
D36*
X123490000Y-93661000D03*
X122840000Y-93661000D03*
X122190000Y-93661000D03*
X122190000Y-95561000D03*
X122840000Y-95561000D03*
X123490000Y-95561000D03*
D32*
X119628000Y-121662000D03*
X121528000Y-121662000D03*
D36*
X117902000Y-89470000D03*
X117252000Y-89470000D03*
X116602000Y-89470000D03*
X116602000Y-91370000D03*
X117252000Y-91370000D03*
X117902000Y-91370000D03*
D24*
X60604400Y-103523800D03*
X62254400Y-103523800D03*
D22*
X113696000Y-86673000D03*
X113696000Y-85023000D03*
D27*
X112209000Y-112010000D03*
X110659000Y-112010000D03*
D36*
X117902000Y-93661000D03*
X117252000Y-93661000D03*
X116602000Y-93661000D03*
X116602000Y-95561000D03*
X117252000Y-95561000D03*
X117902000Y-95561000D03*
D34*
X103378000Y-77026000D03*
X103378000Y-78676000D03*
D22*
X116236000Y-101659000D03*
X116236000Y-100009000D03*
X97016000Y-90882000D03*
X97016000Y-89232000D03*
D34*
X115220000Y-80451000D03*
X115220000Y-82101000D03*
D24*
X97918000Y-100448000D03*
X99568000Y-100448000D03*
X46925600Y-113238200D03*
X48575600Y-113238200D03*
D22*
X114458000Y-101659000D03*
X114458000Y-100009000D03*
M02*
