%TF.GenerationSoftware,KiCad,Pcbnew,(6.0.1-0)*%
%TF.CreationDate,2022-02-08T16:02:54-05:00*%
%TF.ProjectId,FP Interface Card,46502049-6e74-4657-9266-616365204361,rev?*%
%TF.SameCoordinates,Original*%
%TF.FileFunction,Paste,Top*%
%TF.FilePolarity,Positive*%
%FSLAX46Y46*%
G04 Gerber Fmt 4.6, Leading zero omitted, Abs format (unit mm)*
G04 Created by KiCad (PCBNEW (6.0.1-0)) date 2022-02-08 16:02:54*
%MOMM*%
%LPD*%
G01*
G04 APERTURE LIST*
G04 Aperture macros list*
%AMRoundRect*
0 Rectangle with rounded corners*
0 $1 Rounding radius*
0 $2 $3 $4 $5 $6 $7 $8 $9 X,Y pos of 4 corners*
0 Add a 4 corners polygon primitive as box body*
4,1,4,$2,$3,$4,$5,$6,$7,$8,$9,$2,$3,0*
0 Add four circle primitives for the rounded corners*
1,1,$1+$1,$2,$3*
1,1,$1+$1,$4,$5*
1,1,$1+$1,$6,$7*
1,1,$1+$1,$8,$9*
0 Add four rect primitives between the rounded corners*
20,1,$1+$1,$2,$3,$4,$5,0*
20,1,$1+$1,$4,$5,$6,$7,0*
20,1,$1+$1,$6,$7,$8,$9,0*
20,1,$1+$1,$8,$9,$2,$3,0*%
G04 Aperture macros list end*
%ADD10R,0.370000X1.000000*%
%ADD11R,1.400000X1.050000*%
%ADD12RoundRect,0.140000X-0.140000X-0.170000X0.140000X-0.170000X0.140000X0.170000X-0.140000X0.170000X0*%
%ADD13RoundRect,0.140000X0.140000X0.170000X-0.140000X0.170000X-0.140000X-0.170000X0.140000X-0.170000X0*%
%ADD14RoundRect,0.140000X-0.170000X0.140000X-0.170000X-0.140000X0.170000X-0.140000X0.170000X0.140000X0*%
%ADD15RoundRect,0.225000X-0.250000X0.225000X-0.250000X-0.225000X0.250000X-0.225000X0.250000X0.225000X0*%
%ADD16RoundRect,0.250000X-0.650000X0.325000X-0.650000X-0.325000X0.650000X-0.325000X0.650000X0.325000X0*%
%ADD17R,0.400000X0.450000*%
%ADD18R,0.500000X0.450000*%
%ADD19RoundRect,0.135000X0.185000X-0.135000X0.185000X0.135000X-0.185000X0.135000X-0.185000X-0.135000X0*%
%ADD20RoundRect,0.135000X-0.135000X-0.185000X0.135000X-0.185000X0.135000X0.185000X-0.135000X0.185000X0*%
%ADD21R,1.060000X0.650000*%
%ADD22RoundRect,0.237500X0.237500X-0.250000X0.237500X0.250000X-0.237500X0.250000X-0.237500X-0.250000X0*%
%ADD23RoundRect,0.150000X0.150000X-0.587500X0.150000X0.587500X-0.150000X0.587500X-0.150000X-0.587500X0*%
%ADD24RoundRect,0.237500X-0.250000X-0.237500X0.250000X-0.237500X0.250000X0.237500X-0.250000X0.237500X0*%
G04 APERTURE END LIST*
D10*
%TO.C,D3*%
X8623778Y100375720D03*
X10483778Y100375720D03*
%TD*%
D11*
%TO.C,SW1*%
X15653770Y99750833D03*
X15653770Y98300833D03*
X12053770Y99750833D03*
X12053770Y98300833D03*
%TD*%
D12*
%TO.C,C7*%
X2758500Y90932000D03*
X3718500Y90932000D03*
%TD*%
D13*
%TO.C,C8*%
X88300500Y90805000D03*
X87340500Y90805000D03*
%TD*%
D14*
%TO.C,C9*%
X88900000Y6068000D03*
X88900000Y5108000D03*
%TD*%
%TO.C,C10*%
X1143000Y6004500D03*
X1143000Y5044500D03*
%TD*%
D15*
%TO.C,C3*%
X82702400Y98539600D03*
X82702400Y96989600D03*
%TD*%
D14*
%TO.C,C4*%
X81407000Y98524000D03*
X81407000Y97564000D03*
%TD*%
%TO.C,C1*%
X76428600Y98524000D03*
X76428600Y97564000D03*
%TD*%
D16*
%TO.C,C2*%
X74803000Y98503000D03*
X74803000Y95553000D03*
%TD*%
D17*
%TO.C,Q7*%
X6940600Y99221600D03*
X7740600Y99221600D03*
D18*
X7340600Y100371600D03*
%TD*%
D19*
%TO.C,R24*%
X10795000Y96454500D03*
X10795000Y97474500D03*
%TD*%
D20*
%TO.C,R22*%
X6932200Y98272600D03*
X7952200Y98272600D03*
%TD*%
D19*
%TO.C,R18*%
X9423400Y97991200D03*
X9423400Y99011200D03*
%TD*%
D20*
%TO.C,R13*%
X77493400Y94869000D03*
X78513400Y94869000D03*
%TD*%
D21*
%TO.C,U1*%
X77817800Y98511400D03*
X77817800Y97561400D03*
X77817800Y96611400D03*
X80017800Y96611400D03*
X80017800Y98511400D03*
%TD*%
D20*
%TO.C,R14*%
X80008000Y95250000D03*
X81028000Y95250000D03*
%TD*%
D22*
%TO.C,R12*%
X60500000Y38587500D03*
X60500000Y40412500D03*
%TD*%
D23*
%TO.C,Q4*%
X56550000Y38562500D03*
X58450000Y38562500D03*
X57500000Y40437500D03*
%TD*%
D24*
%TO.C,R9*%
X55587500Y43000000D03*
X57412500Y43000000D03*
%TD*%
D23*
%TO.C,Q3*%
X42550000Y38562500D03*
X44450000Y38562500D03*
X43500000Y40437500D03*
%TD*%
D24*
%TO.C,R3*%
X48587500Y43000000D03*
X50412500Y43000000D03*
%TD*%
D23*
%TO.C,Q2*%
X49550000Y38562500D03*
X51450000Y38562500D03*
X50500000Y40437500D03*
%TD*%
%TO.C,Q1*%
X35550000Y38562500D03*
X37450000Y38562500D03*
X36500000Y40437500D03*
%TD*%
D24*
%TO.C,R10*%
X56587500Y35500000D03*
X58412500Y35500000D03*
%TD*%
D22*
%TO.C,R11*%
X46500000Y38587500D03*
X46500000Y40412500D03*
%TD*%
D24*
%TO.C,R7*%
X41587500Y43000000D03*
X43412500Y43000000D03*
%TD*%
%TO.C,R8*%
X42587500Y35500000D03*
X44412500Y35500000D03*
%TD*%
%TO.C,R4*%
X49587500Y35500000D03*
X51412500Y35500000D03*
%TD*%
%TO.C,R2*%
X35587500Y35500000D03*
X37412500Y35500000D03*
%TD*%
%TO.C,R1*%
X34587500Y43000000D03*
X36412500Y43000000D03*
%TD*%
D22*
%TO.C,R6*%
X53500000Y38587500D03*
X53500000Y40412500D03*
%TD*%
%TO.C,R5*%
X39500000Y38587500D03*
X39500000Y40412500D03*
%TD*%
M02*
