%TF.GenerationSoftware,KiCad,Pcbnew,(6.0.1-0)*%
%TF.CreationDate,2022-02-08T16:02:55-05:00*%
%TF.ProjectId,FP Interface Card,46502049-6e74-4657-9266-616365204361,rev?*%
%TF.SameCoordinates,Original*%
%TF.FileFunction,Legend,Bot*%
%TF.FilePolarity,Positive*%
%FSLAX46Y46*%
G04 Gerber Fmt 4.6, Leading zero omitted, Abs format (unit mm)*
G04 Created by KiCad (PCBNEW (6.0.1-0)) date 2022-02-08 16:02:55*
%MOMM*%
%LPD*%
G01*
G04 APERTURE LIST*
%ADD10C,0.090932*%
%ADD11C,0.120000*%
%ADD12C,0.060000*%
G04 APERTURE END LIST*
D10*
%TO.C,D1*%
X6446761Y100163690D02*
X5811761Y100163690D01*
X5811761Y100012500D01*
X5842000Y99921785D01*
X5902476Y99861309D01*
X5962952Y99831071D01*
X6083904Y99800833D01*
X6174619Y99800833D01*
X6295571Y99831071D01*
X6356047Y99861309D01*
X6416523Y99921785D01*
X6446761Y100012500D01*
X6446761Y100163690D01*
X6446761Y99196071D02*
X6446761Y99558928D01*
X6446761Y99377500D02*
X5811761Y99377500D01*
X5902476Y99437976D01*
X5962952Y99498452D01*
X5993190Y99558928D01*
%TO.C,D2*%
X10129761Y100100190D02*
X9494761Y100100190D01*
X9494761Y99949000D01*
X9525000Y99858285D01*
X9585476Y99797809D01*
X9645952Y99767571D01*
X9766904Y99737333D01*
X9857619Y99737333D01*
X9978571Y99767571D01*
X10039047Y99797809D01*
X10099523Y99858285D01*
X10129761Y99949000D01*
X10129761Y100100190D01*
X9555238Y99495428D02*
X9525000Y99465190D01*
X9494761Y99404714D01*
X9494761Y99253523D01*
X9525000Y99193047D01*
X9555238Y99162809D01*
X9615714Y99132571D01*
X9676190Y99132571D01*
X9766904Y99162809D01*
X10129761Y99525666D01*
X10129761Y99132571D01*
%TO.C,D4*%
X14193761Y100227190D02*
X13558761Y100227190D01*
X13558761Y100076000D01*
X13589000Y99985285D01*
X13649476Y99924809D01*
X13709952Y99894571D01*
X13830904Y99864333D01*
X13921619Y99864333D01*
X14042571Y99894571D01*
X14103047Y99924809D01*
X14163523Y99985285D01*
X14193761Y100076000D01*
X14193761Y100227190D01*
X13770428Y99320047D02*
X14193761Y99320047D01*
X13528523Y99471238D02*
X13982095Y99622428D01*
X13982095Y99229333D01*
%TO.C,J2*%
X73693261Y93937666D02*
X74146833Y93937666D01*
X74237547Y93967904D01*
X74298023Y94028380D01*
X74328261Y94119095D01*
X74328261Y94179571D01*
X73753738Y93665523D02*
X73723500Y93635285D01*
X73693261Y93574809D01*
X73693261Y93423619D01*
X73723500Y93363142D01*
X73753738Y93332904D01*
X73814214Y93302666D01*
X73874690Y93302666D01*
X73965404Y93332904D01*
X74328261Y93695761D01*
X74328261Y93302666D01*
%TO.C,C5*%
X86967785Y91990333D02*
X86998023Y92020571D01*
X87028261Y92111285D01*
X87028261Y92171761D01*
X86998023Y92262476D01*
X86937547Y92322952D01*
X86877071Y92353190D01*
X86756119Y92383428D01*
X86665404Y92383428D01*
X86544452Y92353190D01*
X86483976Y92322952D01*
X86423500Y92262476D01*
X86393261Y92171761D01*
X86393261Y92111285D01*
X86423500Y92020571D01*
X86453738Y91990333D01*
X86393261Y91415809D02*
X86393261Y91718190D01*
X86695642Y91748428D01*
X86665404Y91718190D01*
X86635166Y91657714D01*
X86635166Y91506523D01*
X86665404Y91446047D01*
X86695642Y91415809D01*
X86756119Y91385571D01*
X86907309Y91385571D01*
X86967785Y91415809D01*
X86998023Y91446047D01*
X87028261Y91506523D01*
X87028261Y91657714D01*
X86998023Y91718190D01*
X86967785Y91748428D01*
%TO.C,C6*%
X87983785Y91990333D02*
X88014023Y92020571D01*
X88044261Y92111285D01*
X88044261Y92171761D01*
X88014023Y92262476D01*
X87953547Y92322952D01*
X87893071Y92353190D01*
X87772119Y92383428D01*
X87681404Y92383428D01*
X87560452Y92353190D01*
X87499976Y92322952D01*
X87439500Y92262476D01*
X87409261Y92171761D01*
X87409261Y92111285D01*
X87439500Y92020571D01*
X87469738Y91990333D01*
X87409261Y91446047D02*
X87409261Y91567000D01*
X87439500Y91627476D01*
X87469738Y91657714D01*
X87560452Y91718190D01*
X87681404Y91748428D01*
X87923309Y91748428D01*
X87983785Y91718190D01*
X88014023Y91687952D01*
X88044261Y91627476D01*
X88044261Y91506523D01*
X88014023Y91446047D01*
X87983785Y91415809D01*
X87923309Y91385571D01*
X87772119Y91385571D01*
X87711642Y91415809D01*
X87681404Y91446047D01*
X87651166Y91506523D01*
X87651166Y91627476D01*
X87681404Y91687952D01*
X87711642Y91718190D01*
X87772119Y91748428D01*
%TO.C,Q5*%
X10126738Y97088476D02*
X10096500Y97148952D01*
X10036023Y97209428D01*
X9945309Y97300142D01*
X9915071Y97360619D01*
X9915071Y97421095D01*
X10066261Y97390857D02*
X10036023Y97451333D01*
X9975547Y97511809D01*
X9854595Y97542047D01*
X9642928Y97542047D01*
X9521976Y97511809D01*
X9461500Y97451333D01*
X9431261Y97390857D01*
X9431261Y97269904D01*
X9461500Y97209428D01*
X9521976Y97148952D01*
X9642928Y97118714D01*
X9854595Y97118714D01*
X9975547Y97148952D01*
X10036023Y97209428D01*
X10066261Y97269904D01*
X10066261Y97390857D01*
X9431261Y96544190D02*
X9431261Y96846571D01*
X9733642Y96876809D01*
X9703404Y96846571D01*
X9673166Y96786095D01*
X9673166Y96634904D01*
X9703404Y96574428D01*
X9733642Y96544190D01*
X9794119Y96513952D01*
X9945309Y96513952D01*
X10005785Y96544190D01*
X10036023Y96574428D01*
X10066261Y96634904D01*
X10066261Y96786095D01*
X10036023Y96846571D01*
X10005785Y96876809D01*
%TO.C,Q6*%
X13111238Y95564476D02*
X13081000Y95624952D01*
X13020523Y95685428D01*
X12929809Y95776142D01*
X12899571Y95836619D01*
X12899571Y95897095D01*
X13050761Y95866857D02*
X13020523Y95927333D01*
X12960047Y95987809D01*
X12839095Y96018047D01*
X12627428Y96018047D01*
X12506476Y95987809D01*
X12446000Y95927333D01*
X12415761Y95866857D01*
X12415761Y95745904D01*
X12446000Y95685428D01*
X12506476Y95624952D01*
X12627428Y95594714D01*
X12839095Y95594714D01*
X12960047Y95624952D01*
X13020523Y95685428D01*
X13050761Y95745904D01*
X13050761Y95866857D01*
X12415761Y95050428D02*
X12415761Y95171380D01*
X12446000Y95231857D01*
X12476238Y95262095D01*
X12566952Y95322571D01*
X12687904Y95352809D01*
X12929809Y95352809D01*
X12990285Y95322571D01*
X13020523Y95292333D01*
X13050761Y95231857D01*
X13050761Y95110904D01*
X13020523Y95050428D01*
X12990285Y95020190D01*
X12929809Y94989952D01*
X12778619Y94989952D01*
X12718142Y95020190D01*
X12687904Y95050428D01*
X12657666Y95110904D01*
X12657666Y95231857D01*
X12687904Y95292333D01*
X12718142Y95322571D01*
X12778619Y95352809D01*
%TO.C,Q8*%
X16730738Y95500976D02*
X16700500Y95561452D01*
X16640023Y95621928D01*
X16549309Y95712642D01*
X16519071Y95773119D01*
X16519071Y95833595D01*
X16670261Y95803357D02*
X16640023Y95863833D01*
X16579547Y95924309D01*
X16458595Y95954547D01*
X16246928Y95954547D01*
X16125976Y95924309D01*
X16065500Y95863833D01*
X16035261Y95803357D01*
X16035261Y95682404D01*
X16065500Y95621928D01*
X16125976Y95561452D01*
X16246928Y95531214D01*
X16458595Y95531214D01*
X16579547Y95561452D01*
X16640023Y95621928D01*
X16670261Y95682404D01*
X16670261Y95803357D01*
X16307404Y95168357D02*
X16277166Y95228833D01*
X16246928Y95259071D01*
X16186452Y95289309D01*
X16156214Y95289309D01*
X16095738Y95259071D01*
X16065500Y95228833D01*
X16035261Y95168357D01*
X16035261Y95047404D01*
X16065500Y94986928D01*
X16095738Y94956690D01*
X16156214Y94926452D01*
X16186452Y94926452D01*
X16246928Y94956690D01*
X16277166Y94986928D01*
X16307404Y95047404D01*
X16307404Y95168357D01*
X16337642Y95228833D01*
X16367880Y95259071D01*
X16428357Y95289309D01*
X16549309Y95289309D01*
X16609785Y95259071D01*
X16640023Y95228833D01*
X16670261Y95168357D01*
X16670261Y95047404D01*
X16640023Y94986928D01*
X16609785Y94956690D01*
X16549309Y94926452D01*
X16428357Y94926452D01*
X16367880Y94956690D01*
X16337642Y94986928D01*
X16307404Y95047404D01*
%TO.C,R20*%
X9113761Y95912214D02*
X8811380Y96123880D01*
X9113761Y96275071D02*
X8478761Y96275071D01*
X8478761Y96033166D01*
X8509000Y95972690D01*
X8539238Y95942452D01*
X8599714Y95912214D01*
X8690428Y95912214D01*
X8750904Y95942452D01*
X8781142Y95972690D01*
X8811380Y96033166D01*
X8811380Y96275071D01*
X8539238Y95670309D02*
X8509000Y95640071D01*
X8478761Y95579595D01*
X8478761Y95428404D01*
X8509000Y95367928D01*
X8539238Y95337690D01*
X8599714Y95307452D01*
X8660190Y95307452D01*
X8750904Y95337690D01*
X9113761Y95700547D01*
X9113761Y95307452D01*
X8478761Y94914357D02*
X8478761Y94853880D01*
X8509000Y94793404D01*
X8539238Y94763166D01*
X8599714Y94732928D01*
X8720666Y94702690D01*
X8871857Y94702690D01*
X8992809Y94732928D01*
X9053285Y94763166D01*
X9083523Y94793404D01*
X9113761Y94853880D01*
X9113761Y94914357D01*
X9083523Y94974833D01*
X9053285Y95005071D01*
X8992809Y95035309D01*
X8871857Y95065547D01*
X8720666Y95065547D01*
X8599714Y95035309D01*
X8539238Y95005071D01*
X8509000Y94974833D01*
X8478761Y94914357D01*
%TO.C,R15*%
X86075761Y92292714D02*
X85773380Y92504380D01*
X86075761Y92655571D02*
X85440761Y92655571D01*
X85440761Y92413666D01*
X85471000Y92353190D01*
X85501238Y92322952D01*
X85561714Y92292714D01*
X85652428Y92292714D01*
X85712904Y92322952D01*
X85743142Y92353190D01*
X85773380Y92413666D01*
X85773380Y92655571D01*
X86075761Y91687952D02*
X86075761Y92050809D01*
X86075761Y91869380D02*
X85440761Y91869380D01*
X85531476Y91929857D01*
X85591952Y91990333D01*
X85622190Y92050809D01*
X85440761Y91113428D02*
X85440761Y91415809D01*
X85743142Y91446047D01*
X85712904Y91415809D01*
X85682666Y91355333D01*
X85682666Y91204142D01*
X85712904Y91143666D01*
X85743142Y91113428D01*
X85803619Y91083190D01*
X85954809Y91083190D01*
X86015285Y91113428D01*
X86045523Y91143666D01*
X86075761Y91204142D01*
X86075761Y91355333D01*
X86045523Y91415809D01*
X86015285Y91446047D01*
%TO.C,R16*%
X7272261Y96801214D02*
X6969880Y97012880D01*
X7272261Y97164071D02*
X6637261Y97164071D01*
X6637261Y96922166D01*
X6667500Y96861690D01*
X6697738Y96831452D01*
X6758214Y96801214D01*
X6848928Y96801214D01*
X6909404Y96831452D01*
X6939642Y96861690D01*
X6969880Y96922166D01*
X6969880Y97164071D01*
X7272261Y96196452D02*
X7272261Y96559309D01*
X7272261Y96377880D02*
X6637261Y96377880D01*
X6727976Y96438357D01*
X6788452Y96498833D01*
X6818690Y96559309D01*
X6637261Y95652166D02*
X6637261Y95773119D01*
X6667500Y95833595D01*
X6697738Y95863833D01*
X6788452Y95924309D01*
X6909404Y95954547D01*
X7151309Y95954547D01*
X7211785Y95924309D01*
X7242023Y95894071D01*
X7272261Y95833595D01*
X7272261Y95712642D01*
X7242023Y95652166D01*
X7211785Y95621928D01*
X7151309Y95591690D01*
X7000119Y95591690D01*
X6939642Y95621928D01*
X6909404Y95652166D01*
X6879166Y95712642D01*
X6879166Y95833595D01*
X6909404Y95894071D01*
X6939642Y95924309D01*
X7000119Y95954547D01*
%TO.C,R21*%
X12161761Y95975714D02*
X11859380Y96187380D01*
X12161761Y96338571D02*
X11526761Y96338571D01*
X11526761Y96096666D01*
X11557000Y96036190D01*
X11587238Y96005952D01*
X11647714Y95975714D01*
X11738428Y95975714D01*
X11798904Y96005952D01*
X11829142Y96036190D01*
X11859380Y96096666D01*
X11859380Y96338571D01*
X11587238Y95733809D02*
X11557000Y95703571D01*
X11526761Y95643095D01*
X11526761Y95491904D01*
X11557000Y95431428D01*
X11587238Y95401190D01*
X11647714Y95370952D01*
X11708190Y95370952D01*
X11798904Y95401190D01*
X12161761Y95764047D01*
X12161761Y95370952D01*
X12161761Y94766190D02*
X12161761Y95129047D01*
X12161761Y94947619D02*
X11526761Y94947619D01*
X11617476Y95008095D01*
X11677952Y95068571D01*
X11708190Y95129047D01*
%TO.C,R17*%
X11082261Y96801214D02*
X10779880Y97012880D01*
X11082261Y97164071D02*
X10447261Y97164071D01*
X10447261Y96922166D01*
X10477500Y96861690D01*
X10507738Y96831452D01*
X10568214Y96801214D01*
X10658928Y96801214D01*
X10719404Y96831452D01*
X10749642Y96861690D01*
X10779880Y96922166D01*
X10779880Y97164071D01*
X11082261Y96196452D02*
X11082261Y96559309D01*
X11082261Y96377880D02*
X10447261Y96377880D01*
X10537976Y96438357D01*
X10598452Y96498833D01*
X10628690Y96559309D01*
X10447261Y95984785D02*
X10447261Y95561452D01*
X11082261Y95833595D01*
%TO.C,R23*%
X15781261Y95848714D02*
X15478880Y96060380D01*
X15781261Y96211571D02*
X15146261Y96211571D01*
X15146261Y95969666D01*
X15176500Y95909190D01*
X15206738Y95878952D01*
X15267214Y95848714D01*
X15357928Y95848714D01*
X15418404Y95878952D01*
X15448642Y95909190D01*
X15478880Y95969666D01*
X15478880Y96211571D01*
X15206738Y95606809D02*
X15176500Y95576571D01*
X15146261Y95516095D01*
X15146261Y95364904D01*
X15176500Y95304428D01*
X15206738Y95274190D01*
X15267214Y95243952D01*
X15327690Y95243952D01*
X15418404Y95274190D01*
X15781261Y95637047D01*
X15781261Y95243952D01*
X15146261Y95032285D02*
X15146261Y94639190D01*
X15388166Y94850857D01*
X15388166Y94760142D01*
X15418404Y94699666D01*
X15448642Y94669428D01*
X15509119Y94639190D01*
X15660309Y94639190D01*
X15720785Y94669428D01*
X15751023Y94699666D01*
X15781261Y94760142D01*
X15781261Y94941571D01*
X15751023Y95002047D01*
X15720785Y95032285D01*
%TO.C,R19*%
X14638261Y95023214D02*
X14335880Y95234880D01*
X14638261Y95386071D02*
X14003261Y95386071D01*
X14003261Y95144166D01*
X14033500Y95083690D01*
X14063738Y95053452D01*
X14124214Y95023214D01*
X14214928Y95023214D01*
X14275404Y95053452D01*
X14305642Y95083690D01*
X14335880Y95144166D01*
X14335880Y95386071D01*
X14638261Y94418452D02*
X14638261Y94781309D01*
X14638261Y94599880D02*
X14003261Y94599880D01*
X14093976Y94660357D01*
X14154452Y94720833D01*
X14184690Y94781309D01*
X14638261Y94116071D02*
X14638261Y93995119D01*
X14608023Y93934642D01*
X14577785Y93904404D01*
X14487071Y93843928D01*
X14366119Y93813690D01*
X14124214Y93813690D01*
X14063738Y93843928D01*
X14033500Y93874166D01*
X14003261Y93934642D01*
X14003261Y94055595D01*
X14033500Y94116071D01*
X14063738Y94146309D01*
X14124214Y94176547D01*
X14275404Y94176547D01*
X14335880Y94146309D01*
X14366119Y94116071D01*
X14396357Y94055595D01*
X14396357Y93934642D01*
X14366119Y93874166D01*
X14335880Y93843928D01*
X14275404Y93813690D01*
%TO.C,Z1*%
X79533447Y93184738D02*
X79110114Y93184738D01*
X79533447Y92549738D01*
X79110114Y92549738D01*
X78535590Y92549738D02*
X78898447Y92549738D01*
X78717019Y92549738D02*
X78717019Y93184738D01*
X78777495Y93094023D01*
X78837971Y93033547D01*
X78898447Y93003309D01*
%TO.C,Z2*%
X76714047Y93184738D02*
X76290714Y93184738D01*
X76714047Y92549738D01*
X76290714Y92549738D01*
X76079047Y93124261D02*
X76048809Y93154500D01*
X75988333Y93184738D01*
X75837142Y93184738D01*
X75776666Y93154500D01*
X75746428Y93124261D01*
X75716190Y93063785D01*
X75716190Y93003309D01*
X75746428Y92912595D01*
X76109285Y92549738D01*
X75716190Y92549738D01*
D11*
%TO.C,D1*%
X7953781Y100775720D02*
X7953781Y99975720D01*
X8353781Y100775720D02*
X8353781Y99975720D01*
D12*
X8553781Y100875720D02*
X8553781Y101075720D01*
D11*
X8353781Y100375720D02*
X8553781Y100375720D01*
D12*
X7753781Y101075720D02*
X7853781Y100975720D01*
D11*
X8353781Y100375720D02*
X7953781Y100775720D01*
D12*
X8553781Y101075720D02*
X8653781Y100975720D01*
D11*
X7953781Y99975720D02*
X8353781Y100375720D01*
D12*
X7653781Y100975720D02*
X7753781Y101075720D01*
X8453781Y100975720D02*
X8553781Y101075720D01*
D11*
X7953781Y100375720D02*
X7753781Y100375720D01*
D12*
X7753781Y100875720D02*
X7753781Y101075720D01*
%TO.C,D2*%
X11453773Y100975720D02*
X11553773Y101075720D01*
D11*
X11753773Y100375720D02*
X11553773Y100375720D01*
D12*
X12353773Y101075720D02*
X12453773Y100975720D01*
D11*
X12153773Y100775720D02*
X12153773Y99975720D01*
D12*
X12253773Y100975720D02*
X12353773Y101075720D01*
X12353773Y100875720D02*
X12353773Y101075720D01*
D11*
X12153773Y100375720D02*
X12353773Y100375720D01*
X11753773Y100775720D02*
X11753773Y99975720D01*
X12153773Y100375720D02*
X11753773Y100775720D01*
D12*
X11553773Y101075720D02*
X11653773Y100975720D01*
X11553773Y100875720D02*
X11553773Y101075720D01*
D11*
X11753773Y99975720D02*
X12153773Y100375720D01*
D12*
%TO.C,D4*%
X16153791Y100875720D02*
X16153791Y101075720D01*
X15353791Y101075720D02*
X15453791Y100975720D01*
D11*
X15553791Y99975720D02*
X15953791Y100375720D01*
D12*
X15353791Y100875720D02*
X15353791Y101075720D01*
X16053791Y100975720D02*
X16153791Y101075720D01*
D11*
X15553791Y100775720D02*
X15553791Y99975720D01*
X15553791Y100375720D02*
X15353791Y100375720D01*
X15953791Y100775720D02*
X15953791Y99975720D01*
D12*
X15253791Y100975720D02*
X15353791Y101075720D01*
X16153791Y101075720D02*
X16253791Y100975720D01*
D11*
X15953791Y100375720D02*
X16153791Y100375720D01*
X15953791Y100375720D02*
X15553791Y100775720D01*
%TO.C,C5*%
X87088300Y94341836D02*
X87088300Y94126164D01*
X86368300Y94341836D02*
X86368300Y94126164D01*
%TO.C,C6*%
X87358900Y94341836D02*
X87358900Y94126164D01*
X88078900Y94341836D02*
X88078900Y94126164D01*
%TO.C,Q5*%
X8809000Y99480600D02*
X8209000Y99480600D01*
X9009000Y98080600D02*
X7809000Y98080600D01*
X7809000Y98080600D02*
X7809000Y98080600D01*
%TO.C,Q6*%
X11593600Y98080600D02*
X11593600Y98080600D01*
X12593600Y99480600D02*
X11993600Y99480600D01*
X12793600Y98080600D02*
X11593600Y98080600D01*
%TO.C,Q8*%
X15302000Y98080600D02*
X15302000Y98080600D01*
X16302000Y99480600D02*
X15702000Y99480600D01*
X16502000Y98080600D02*
X15302000Y98080600D01*
%TO.C,R20*%
X8279159Y96851200D02*
X8586441Y96851200D01*
X8279159Y97611200D02*
X8586441Y97611200D01*
%TO.C,R15*%
X86117700Y94362241D02*
X86117700Y94054959D01*
X85357700Y94362241D02*
X85357700Y94054959D01*
%TO.C,R16*%
X7339600Y98525359D02*
X7339600Y98832641D01*
X6579600Y98525359D02*
X6579600Y98832641D01*
%TO.C,R21*%
X12089159Y97611200D02*
X12396441Y97611200D01*
X12089159Y96851200D02*
X12396441Y96851200D01*
%TO.C,R17*%
X11175000Y98525359D02*
X11175000Y98832641D01*
X10415000Y98525359D02*
X10415000Y98832641D01*
%TO.C,R23*%
X15772159Y96851200D02*
X16079441Y96851200D01*
X15772159Y97611200D02*
X16079441Y97611200D01*
%TO.C,R19*%
X14756400Y96569559D02*
X14756400Y96876841D01*
X13996400Y96569559D02*
X13996400Y96876841D01*
%TO.C,Z1*%
X78911564Y93493000D02*
X79127236Y93493000D01*
X78911564Y94213000D02*
X79127236Y94213000D01*
%TO.C,Z2*%
X77146036Y94213000D02*
X76930364Y94213000D01*
X77146036Y93493000D02*
X76930364Y93493000D01*
%TD*%
M02*
