%TF.GenerationSoftware,KiCad,Pcbnew,(6.0.5)*%
%TF.CreationDate,2022-05-20T09:36:28-04:00*%
%TF.ProjectId,FP Interface Card,46502049-6e74-4657-9266-616365204361,rev?*%
%TF.SameCoordinates,Original*%
%TF.FileFunction,Legend,Top*%
%TF.FilePolarity,Positive*%
%FSLAX46Y46*%
G04 Gerber Fmt 4.6, Leading zero omitted, Abs format (unit mm)*
G04 Created by KiCad (PCBNEW (6.0.5)) date 2022-05-20 09:36:28*
%MOMM*%
%LPD*%
G01*
G04 APERTURE LIST*
%ADD10C,0.090932*%
%ADD11C,0.150000*%
%ADD12C,0.100000*%
%ADD13C,0.127000*%
%ADD14C,0.120000*%
%ADD15C,0.060000*%
%ADD16C,0.203200*%
%ADD17C,0.200000*%
%ADD18C,0.750000*%
G04 APERTURE END LIST*
D10*
%TO.C,D4*%
X51746309Y-64926261D02*
X51746309Y-64291261D01*
X51897500Y-64291261D01*
X51988214Y-64321500D01*
X52048690Y-64381976D01*
X52078928Y-64442452D01*
X52109166Y-64563404D01*
X52109166Y-64654119D01*
X52078928Y-64775071D01*
X52048690Y-64835547D01*
X51988214Y-64896023D01*
X51897500Y-64926261D01*
X51746309Y-64926261D01*
X52653452Y-64502928D02*
X52653452Y-64926261D01*
X52502261Y-64261023D02*
X52351071Y-64714595D01*
X52744166Y-64714595D01*
%TO.C,SW1*%
X53273333Y-68579023D02*
X53364047Y-68609261D01*
X53515238Y-68609261D01*
X53575714Y-68579023D01*
X53605952Y-68548785D01*
X53636190Y-68488309D01*
X53636190Y-68427833D01*
X53605952Y-68367357D01*
X53575714Y-68337119D01*
X53515238Y-68306880D01*
X53394285Y-68276642D01*
X53333809Y-68246404D01*
X53303571Y-68216166D01*
X53273333Y-68155690D01*
X53273333Y-68095214D01*
X53303571Y-68034738D01*
X53333809Y-68004500D01*
X53394285Y-67974261D01*
X53545476Y-67974261D01*
X53636190Y-68004500D01*
X53847857Y-67974261D02*
X53999047Y-68609261D01*
X54120000Y-68155690D01*
X54240952Y-68609261D01*
X54392142Y-67974261D01*
X54966666Y-68609261D02*
X54603809Y-68609261D01*
X54785238Y-68609261D02*
X54785238Y-67974261D01*
X54724761Y-68064976D01*
X54664285Y-68125452D01*
X54603809Y-68155690D01*
D11*
%TO.C,C4*%
X43285333Y-73251142D02*
X43237714Y-73298761D01*
X43094857Y-73346380D01*
X42999619Y-73346380D01*
X42856761Y-73298761D01*
X42761523Y-73203523D01*
X42713904Y-73108285D01*
X42666285Y-72917809D01*
X42666285Y-72774952D01*
X42713904Y-72584476D01*
X42761523Y-72489238D01*
X42856761Y-72394000D01*
X42999619Y-72346380D01*
X43094857Y-72346380D01*
X43237714Y-72394000D01*
X43285333Y-72441619D01*
X44142476Y-72679714D02*
X44142476Y-73346380D01*
X43904380Y-72298761D02*
X43666285Y-73013047D01*
X44285333Y-73013047D01*
%TO.C,C5*%
X127867333Y-73441642D02*
X127819714Y-73489261D01*
X127676857Y-73536880D01*
X127581619Y-73536880D01*
X127438761Y-73489261D01*
X127343523Y-73394023D01*
X127295904Y-73298785D01*
X127248285Y-73108309D01*
X127248285Y-72965452D01*
X127295904Y-72774976D01*
X127343523Y-72679738D01*
X127438761Y-72584500D01*
X127581619Y-72536880D01*
X127676857Y-72536880D01*
X127819714Y-72584500D01*
X127867333Y-72632119D01*
X128772095Y-72536880D02*
X128295904Y-72536880D01*
X128248285Y-73013071D01*
X128295904Y-72965452D01*
X128391142Y-72917833D01*
X128629238Y-72917833D01*
X128724476Y-72965452D01*
X128772095Y-73013071D01*
X128819714Y-73108309D01*
X128819714Y-73346404D01*
X128772095Y-73441642D01*
X128724476Y-73489261D01*
X128629238Y-73536880D01*
X128391142Y-73536880D01*
X128295904Y-73489261D01*
X128248285Y-73441642D01*
%TO.C,C6*%
X129407142Y-156626666D02*
X129454761Y-156674285D01*
X129502380Y-156817142D01*
X129502380Y-156912380D01*
X129454761Y-157055238D01*
X129359523Y-157150476D01*
X129264285Y-157198095D01*
X129073809Y-157245714D01*
X128930952Y-157245714D01*
X128740476Y-157198095D01*
X128645238Y-157150476D01*
X128550000Y-157055238D01*
X128502380Y-156912380D01*
X128502380Y-156817142D01*
X128550000Y-156674285D01*
X128597619Y-156626666D01*
X128502380Y-155769523D02*
X128502380Y-155960000D01*
X128550000Y-156055238D01*
X128597619Y-156102857D01*
X128740476Y-156198095D01*
X128930952Y-156245714D01*
X129311904Y-156245714D01*
X129407142Y-156198095D01*
X129454761Y-156150476D01*
X129502380Y-156055238D01*
X129502380Y-155864761D01*
X129454761Y-155769523D01*
X129407142Y-155721904D01*
X129311904Y-155674285D01*
X129073809Y-155674285D01*
X128978571Y-155721904D01*
X128930952Y-155769523D01*
X128883333Y-155864761D01*
X128883333Y-156055238D01*
X128930952Y-156150476D01*
X128978571Y-156198095D01*
X129073809Y-156245714D01*
%TO.C,C7*%
X41650142Y-156690166D02*
X41697761Y-156737785D01*
X41745380Y-156880642D01*
X41745380Y-156975880D01*
X41697761Y-157118738D01*
X41602523Y-157213976D01*
X41507285Y-157261595D01*
X41316809Y-157309214D01*
X41173952Y-157309214D01*
X40983476Y-157261595D01*
X40888238Y-157213976D01*
X40793000Y-157118738D01*
X40745380Y-156975880D01*
X40745380Y-156880642D01*
X40793000Y-156737785D01*
X40840619Y-156690166D01*
X40745380Y-156356833D02*
X40745380Y-155690166D01*
X41745380Y-156118738D01*
D10*
%TO.C,C10*%
X123176785Y-70158214D02*
X123207023Y-70188452D01*
X123237261Y-70279166D01*
X123237261Y-70339642D01*
X123207023Y-70430357D01*
X123146547Y-70490833D01*
X123086071Y-70521071D01*
X122965119Y-70551309D01*
X122874404Y-70551309D01*
X122753452Y-70521071D01*
X122692976Y-70490833D01*
X122632500Y-70430357D01*
X122602261Y-70339642D01*
X122602261Y-70279166D01*
X122632500Y-70188452D01*
X122662738Y-70158214D01*
X123237261Y-69553452D02*
X123237261Y-69916309D01*
X123237261Y-69734880D02*
X122602261Y-69734880D01*
X122692976Y-69795357D01*
X122753452Y-69855833D01*
X122783690Y-69916309D01*
X122602261Y-69160357D02*
X122602261Y-69099880D01*
X122632500Y-69039404D01*
X122662738Y-69009166D01*
X122723214Y-68978928D01*
X122844166Y-68948690D01*
X122995357Y-68948690D01*
X123116309Y-68978928D01*
X123176785Y-69009166D01*
X123207023Y-69039404D01*
X123237261Y-69099880D01*
X123237261Y-69160357D01*
X123207023Y-69220833D01*
X123176785Y-69251071D01*
X123116309Y-69281309D01*
X122995357Y-69311547D01*
X122844166Y-69311547D01*
X122723214Y-69281309D01*
X122662738Y-69251071D01*
X122632500Y-69220833D01*
X122602261Y-69160357D01*
%TO.C,C11*%
X121191785Y-69326785D02*
X121161547Y-69357023D01*
X121070833Y-69387261D01*
X121010357Y-69387261D01*
X120919642Y-69357023D01*
X120859166Y-69296547D01*
X120828928Y-69236071D01*
X120798690Y-69115119D01*
X120798690Y-69024404D01*
X120828928Y-68903452D01*
X120859166Y-68842976D01*
X120919642Y-68782500D01*
X121010357Y-68752261D01*
X121070833Y-68752261D01*
X121161547Y-68782500D01*
X121191785Y-68812738D01*
X121796547Y-69387261D02*
X121433690Y-69387261D01*
X121615119Y-69387261D02*
X121615119Y-68752261D01*
X121554642Y-68842976D01*
X121494166Y-68903452D01*
X121433690Y-68933690D01*
X122401309Y-69387261D02*
X122038452Y-69387261D01*
X122219880Y-69387261D02*
X122219880Y-68752261D01*
X122159404Y-68842976D01*
X122098928Y-68903452D01*
X122038452Y-68933690D01*
%TO.C,C12*%
X115433785Y-66072285D02*
X115403547Y-66102523D01*
X115312833Y-66132761D01*
X115252357Y-66132761D01*
X115161642Y-66102523D01*
X115101166Y-66042047D01*
X115070928Y-65981571D01*
X115040690Y-65860619D01*
X115040690Y-65769904D01*
X115070928Y-65648952D01*
X115101166Y-65588476D01*
X115161642Y-65528000D01*
X115252357Y-65497761D01*
X115312833Y-65497761D01*
X115403547Y-65528000D01*
X115433785Y-65558238D01*
X116038547Y-66132761D02*
X115675690Y-66132761D01*
X115857119Y-66132761D02*
X115857119Y-65497761D01*
X115796642Y-65588476D01*
X115736166Y-65648952D01*
X115675690Y-65679190D01*
X116280452Y-65558238D02*
X116310690Y-65528000D01*
X116371166Y-65497761D01*
X116522357Y-65497761D01*
X116582833Y-65528000D01*
X116613071Y-65558238D01*
X116643309Y-65618714D01*
X116643309Y-65679190D01*
X116613071Y-65769904D01*
X116250214Y-66132761D01*
X116643309Y-66132761D01*
%TO.C,C13*%
X114481285Y-71342785D02*
X114451047Y-71373023D01*
X114360333Y-71403261D01*
X114299857Y-71403261D01*
X114209142Y-71373023D01*
X114148666Y-71312547D01*
X114118428Y-71252071D01*
X114088190Y-71131119D01*
X114088190Y-71040404D01*
X114118428Y-70919452D01*
X114148666Y-70858976D01*
X114209142Y-70798500D01*
X114299857Y-70768261D01*
X114360333Y-70768261D01*
X114451047Y-70798500D01*
X114481285Y-70828738D01*
X115086047Y-71403261D02*
X114723190Y-71403261D01*
X114904619Y-71403261D02*
X114904619Y-70768261D01*
X114844142Y-70858976D01*
X114783666Y-70919452D01*
X114723190Y-70949690D01*
X115297714Y-70768261D02*
X115690809Y-70768261D01*
X115479142Y-71010166D01*
X115569857Y-71010166D01*
X115630333Y-71040404D01*
X115660571Y-71070642D01*
X115690809Y-71131119D01*
X115690809Y-71282309D01*
X115660571Y-71342785D01*
X115630333Y-71373023D01*
X115569857Y-71403261D01*
X115388428Y-71403261D01*
X115327952Y-71373023D01*
X115297714Y-71342785D01*
%TO.C,Q3*%
X46593738Y-66159976D02*
X46563500Y-66220452D01*
X46503023Y-66280928D01*
X46412309Y-66371642D01*
X46382071Y-66432119D01*
X46382071Y-66492595D01*
X46533261Y-66462357D02*
X46503023Y-66522833D01*
X46442547Y-66583309D01*
X46321595Y-66613547D01*
X46109928Y-66613547D01*
X45988976Y-66583309D01*
X45928500Y-66522833D01*
X45898261Y-66462357D01*
X45898261Y-66341404D01*
X45928500Y-66280928D01*
X45988976Y-66220452D01*
X46109928Y-66190214D01*
X46321595Y-66190214D01*
X46442547Y-66220452D01*
X46503023Y-66280928D01*
X46533261Y-66341404D01*
X46533261Y-66462357D01*
X45898261Y-65978547D02*
X45898261Y-65585452D01*
X46140166Y-65797119D01*
X46140166Y-65706404D01*
X46170404Y-65645928D01*
X46200642Y-65615690D01*
X46261119Y-65585452D01*
X46412309Y-65585452D01*
X46472785Y-65615690D01*
X46503023Y-65645928D01*
X46533261Y-65706404D01*
X46533261Y-65887833D01*
X46503023Y-65948309D01*
X46472785Y-65978547D01*
%TO.C,R6*%
X51232261Y-70650333D02*
X50929880Y-70862000D01*
X51232261Y-71013190D02*
X50597261Y-71013190D01*
X50597261Y-70771285D01*
X50627500Y-70710809D01*
X50657738Y-70680571D01*
X50718214Y-70650333D01*
X50808928Y-70650333D01*
X50869404Y-70680571D01*
X50899642Y-70710809D01*
X50929880Y-70771285D01*
X50929880Y-71013190D01*
X50597261Y-70106047D02*
X50597261Y-70227000D01*
X50627500Y-70287476D01*
X50657738Y-70317714D01*
X50748452Y-70378190D01*
X50869404Y-70408428D01*
X51111309Y-70408428D01*
X51171785Y-70378190D01*
X51202023Y-70347952D01*
X51232261Y-70287476D01*
X51232261Y-70166523D01*
X51202023Y-70106047D01*
X51171785Y-70075809D01*
X51111309Y-70045571D01*
X50960119Y-70045571D01*
X50899642Y-70075809D01*
X50869404Y-70106047D01*
X50839166Y-70166523D01*
X50839166Y-70287476D01*
X50869404Y-70347952D01*
X50899642Y-70378190D01*
X50960119Y-70408428D01*
%TO.C,R11*%
X48311261Y-69174714D02*
X48008880Y-69386380D01*
X48311261Y-69537571D02*
X47676261Y-69537571D01*
X47676261Y-69295666D01*
X47706500Y-69235190D01*
X47736738Y-69204952D01*
X47797214Y-69174714D01*
X47887928Y-69174714D01*
X47948404Y-69204952D01*
X47978642Y-69235190D01*
X48008880Y-69295666D01*
X48008880Y-69537571D01*
X48311261Y-68569952D02*
X48311261Y-68932809D01*
X48311261Y-68751380D02*
X47676261Y-68751380D01*
X47766976Y-68811857D01*
X47827452Y-68872333D01*
X47857690Y-68932809D01*
X48311261Y-67965190D02*
X48311261Y-68328047D01*
X48311261Y-68146619D02*
X47676261Y-68146619D01*
X47766976Y-68207095D01*
X47827452Y-68267571D01*
X47857690Y-68328047D01*
%TO.C,R12*%
X49898761Y-69174714D02*
X49596380Y-69386380D01*
X49898761Y-69537571D02*
X49263761Y-69537571D01*
X49263761Y-69295666D01*
X49294000Y-69235190D01*
X49324238Y-69204952D01*
X49384714Y-69174714D01*
X49475428Y-69174714D01*
X49535904Y-69204952D01*
X49566142Y-69235190D01*
X49596380Y-69295666D01*
X49596380Y-69537571D01*
X49898761Y-68569952D02*
X49898761Y-68932809D01*
X49898761Y-68751380D02*
X49263761Y-68751380D01*
X49354476Y-68811857D01*
X49414952Y-68872333D01*
X49445190Y-68932809D01*
X49324238Y-68328047D02*
X49294000Y-68297809D01*
X49263761Y-68237333D01*
X49263761Y-68086142D01*
X49294000Y-68025666D01*
X49324238Y-67995428D01*
X49384714Y-67965190D01*
X49445190Y-67965190D01*
X49535904Y-67995428D01*
X49898761Y-68358285D01*
X49898761Y-67965190D01*
%TO.C,R13*%
X118164285Y-71720761D02*
X117952619Y-71418380D01*
X117801428Y-71720761D02*
X117801428Y-71085761D01*
X118043333Y-71085761D01*
X118103809Y-71116000D01*
X118134047Y-71146238D01*
X118164285Y-71206714D01*
X118164285Y-71297428D01*
X118134047Y-71357904D01*
X118103809Y-71388142D01*
X118043333Y-71418380D01*
X117801428Y-71418380D01*
X118769047Y-71720761D02*
X118406190Y-71720761D01*
X118587619Y-71720761D02*
X118587619Y-71085761D01*
X118527142Y-71176476D01*
X118466666Y-71236952D01*
X118406190Y-71267190D01*
X118980714Y-71085761D02*
X119373809Y-71085761D01*
X119162142Y-71327666D01*
X119252857Y-71327666D01*
X119313333Y-71357904D01*
X119343571Y-71388142D01*
X119373809Y-71448619D01*
X119373809Y-71599809D01*
X119343571Y-71660285D01*
X119313333Y-71690523D01*
X119252857Y-71720761D01*
X119071428Y-71720761D01*
X119010952Y-71690523D01*
X118980714Y-71660285D01*
%TO.C,U2*%
X118279190Y-65561261D02*
X118279190Y-66075309D01*
X118309428Y-66135785D01*
X118339666Y-66166023D01*
X118400142Y-66196261D01*
X118521095Y-66196261D01*
X118581571Y-66166023D01*
X118611809Y-66135785D01*
X118642047Y-66075309D01*
X118642047Y-65561261D01*
X118914190Y-65621738D02*
X118944428Y-65591500D01*
X119004904Y-65561261D01*
X119156095Y-65561261D01*
X119216571Y-65591500D01*
X119246809Y-65621738D01*
X119277047Y-65682214D01*
X119277047Y-65742690D01*
X119246809Y-65833404D01*
X118883952Y-66196261D01*
X119277047Y-66196261D01*
%TO.C,R10*%
X120241785Y-71587261D02*
X120030119Y-71284880D01*
X119878928Y-71587261D02*
X119878928Y-70952261D01*
X120120833Y-70952261D01*
X120181309Y-70982500D01*
X120211547Y-71012738D01*
X120241785Y-71073214D01*
X120241785Y-71163928D01*
X120211547Y-71224404D01*
X120181309Y-71254642D01*
X120120833Y-71284880D01*
X119878928Y-71284880D01*
X120846547Y-71587261D02*
X120483690Y-71587261D01*
X120665119Y-71587261D02*
X120665119Y-70952261D01*
X120604642Y-71042976D01*
X120544166Y-71103452D01*
X120483690Y-71133690D01*
X121239642Y-70952261D02*
X121300119Y-70952261D01*
X121360595Y-70982500D01*
X121390833Y-71012738D01*
X121421071Y-71073214D01*
X121451309Y-71194166D01*
X121451309Y-71345357D01*
X121421071Y-71466309D01*
X121390833Y-71526785D01*
X121360595Y-71557023D01*
X121300119Y-71587261D01*
X121239642Y-71587261D01*
X121179166Y-71557023D01*
X121148928Y-71526785D01*
X121118690Y-71466309D01*
X121088452Y-71345357D01*
X121088452Y-71194166D01*
X121118690Y-71073214D01*
X121148928Y-71012738D01*
X121179166Y-70982500D01*
X121239642Y-70952261D01*
D11*
%TO.C,R95*%
X92204380Y-91921857D02*
X91728190Y-92255190D01*
X92204380Y-92493285D02*
X91204380Y-92493285D01*
X91204380Y-92112333D01*
X91252000Y-92017095D01*
X91299619Y-91969476D01*
X91394857Y-91921857D01*
X91537714Y-91921857D01*
X91632952Y-91969476D01*
X91680571Y-92017095D01*
X91728190Y-92112333D01*
X91728190Y-92493285D01*
X92204380Y-91445666D02*
X92204380Y-91255190D01*
X92156761Y-91159952D01*
X92109142Y-91112333D01*
X91966285Y-91017095D01*
X91775809Y-90969476D01*
X91394857Y-90969476D01*
X91299619Y-91017095D01*
X91252000Y-91064714D01*
X91204380Y-91159952D01*
X91204380Y-91350428D01*
X91252000Y-91445666D01*
X91299619Y-91493285D01*
X91394857Y-91540904D01*
X91632952Y-91540904D01*
X91728190Y-91493285D01*
X91775809Y-91445666D01*
X91823428Y-91350428D01*
X91823428Y-91159952D01*
X91775809Y-91064714D01*
X91728190Y-91017095D01*
X91632952Y-90969476D01*
X91204380Y-90064714D02*
X91204380Y-90540904D01*
X91680571Y-90588523D01*
X91632952Y-90540904D01*
X91585333Y-90445666D01*
X91585333Y-90207571D01*
X91632952Y-90112333D01*
X91680571Y-90064714D01*
X91775809Y-90017095D01*
X92013904Y-90017095D01*
X92109142Y-90064714D01*
X92156761Y-90112333D01*
X92204380Y-90207571D01*
X92204380Y-90445666D01*
X92156761Y-90540904D01*
X92109142Y-90588523D01*
D12*
%TO.C,R86*%
X119625428Y-88555714D02*
X119339714Y-88755714D01*
X119625428Y-88898571D02*
X119025428Y-88898571D01*
X119025428Y-88670000D01*
X119054000Y-88612857D01*
X119082571Y-88584285D01*
X119139714Y-88555714D01*
X119225428Y-88555714D01*
X119282571Y-88584285D01*
X119311142Y-88612857D01*
X119339714Y-88670000D01*
X119339714Y-88898571D01*
X119282571Y-88212857D02*
X119254000Y-88270000D01*
X119225428Y-88298571D01*
X119168285Y-88327142D01*
X119139714Y-88327142D01*
X119082571Y-88298571D01*
X119054000Y-88270000D01*
X119025428Y-88212857D01*
X119025428Y-88098571D01*
X119054000Y-88041428D01*
X119082571Y-88012857D01*
X119139714Y-87984285D01*
X119168285Y-87984285D01*
X119225428Y-88012857D01*
X119254000Y-88041428D01*
X119282571Y-88098571D01*
X119282571Y-88212857D01*
X119311142Y-88270000D01*
X119339714Y-88298571D01*
X119396857Y-88327142D01*
X119511142Y-88327142D01*
X119568285Y-88298571D01*
X119596857Y-88270000D01*
X119625428Y-88212857D01*
X119625428Y-88098571D01*
X119596857Y-88041428D01*
X119568285Y-88012857D01*
X119511142Y-87984285D01*
X119396857Y-87984285D01*
X119339714Y-88012857D01*
X119311142Y-88041428D01*
X119282571Y-88098571D01*
X119025428Y-87470000D02*
X119025428Y-87584285D01*
X119054000Y-87641428D01*
X119082571Y-87670000D01*
X119168285Y-87727142D01*
X119282571Y-87755714D01*
X119511142Y-87755714D01*
X119568285Y-87727142D01*
X119596857Y-87698571D01*
X119625428Y-87641428D01*
X119625428Y-87527142D01*
X119596857Y-87470000D01*
X119568285Y-87441428D01*
X119511142Y-87412857D01*
X119368285Y-87412857D01*
X119311142Y-87441428D01*
X119282571Y-87470000D01*
X119254000Y-87527142D01*
X119254000Y-87641428D01*
X119282571Y-87698571D01*
X119311142Y-87727142D01*
X119368285Y-87755714D01*
D11*
%TO.C,R59*%
X57536542Y-100998180D02*
X57203209Y-100521990D01*
X56965114Y-100998180D02*
X56965114Y-99998180D01*
X57346066Y-99998180D01*
X57441304Y-100045800D01*
X57488923Y-100093419D01*
X57536542Y-100188657D01*
X57536542Y-100331514D01*
X57488923Y-100426752D01*
X57441304Y-100474371D01*
X57346066Y-100521990D01*
X56965114Y-100521990D01*
X58441304Y-99998180D02*
X57965114Y-99998180D01*
X57917495Y-100474371D01*
X57965114Y-100426752D01*
X58060352Y-100379133D01*
X58298447Y-100379133D01*
X58393685Y-100426752D01*
X58441304Y-100474371D01*
X58488923Y-100569609D01*
X58488923Y-100807704D01*
X58441304Y-100902942D01*
X58393685Y-100950561D01*
X58298447Y-100998180D01*
X58060352Y-100998180D01*
X57965114Y-100950561D01*
X57917495Y-100902942D01*
X58965114Y-100998180D02*
X59155590Y-100998180D01*
X59250828Y-100950561D01*
X59298447Y-100902942D01*
X59393685Y-100760085D01*
X59441304Y-100569609D01*
X59441304Y-100188657D01*
X59393685Y-100093419D01*
X59346066Y-100045800D01*
X59250828Y-99998180D01*
X59060352Y-99998180D01*
X58965114Y-100045800D01*
X58917495Y-100093419D01*
X58869876Y-100188657D01*
X58869876Y-100426752D01*
X58917495Y-100521990D01*
X58965114Y-100569609D01*
X59060352Y-100617228D01*
X59250828Y-100617228D01*
X59346066Y-100569609D01*
X59393685Y-100521990D01*
X59441304Y-100426752D01*
D12*
%TO.C,U6*%
X118029428Y-129685142D02*
X118515142Y-129685142D01*
X118572285Y-129656571D01*
X118600857Y-129628000D01*
X118629428Y-129570857D01*
X118629428Y-129456571D01*
X118600857Y-129399428D01*
X118572285Y-129370857D01*
X118515142Y-129342285D01*
X118029428Y-129342285D01*
X118029428Y-128799428D02*
X118029428Y-128913714D01*
X118058000Y-128970857D01*
X118086571Y-128999428D01*
X118172285Y-129056571D01*
X118286571Y-129085142D01*
X118515142Y-129085142D01*
X118572285Y-129056571D01*
X118600857Y-129028000D01*
X118629428Y-128970857D01*
X118629428Y-128856571D01*
X118600857Y-128799428D01*
X118572285Y-128770857D01*
X118515142Y-128742285D01*
X118372285Y-128742285D01*
X118315142Y-128770857D01*
X118286571Y-128799428D01*
X118258000Y-128856571D01*
X118258000Y-128970857D01*
X118286571Y-129028000D01*
X118315142Y-129056571D01*
X118372285Y-129085142D01*
D13*
X116853357Y-126741688D02*
X116853357Y-126257879D01*
X117095261Y-126530021D02*
X116611452Y-126469545D01*
X116671928Y-125993295D02*
X117095261Y-125895021D01*
X116671928Y-125690914D02*
X117095261Y-125895021D01*
X117246452Y-125974396D01*
X117276690Y-126008414D01*
X117306928Y-126072670D01*
X117053357Y-128956807D02*
X117053357Y-128472998D01*
X116871928Y-128208414D02*
X116871928Y-127875795D01*
X117295261Y-128261331D01*
X117295261Y-127928712D01*
X117779192Y-127773357D02*
X118263001Y-127773357D01*
X117990859Y-128015261D02*
X118051335Y-127531452D01*
X118474668Y-128015261D02*
X118860204Y-127591928D01*
X118527585Y-127591928D02*
X118807287Y-128015261D01*
D11*
%TO.C,C29*%
X45104742Y-86555342D02*
X45057123Y-86602961D01*
X44914266Y-86650580D01*
X44819028Y-86650580D01*
X44676171Y-86602961D01*
X44580933Y-86507723D01*
X44533314Y-86412485D01*
X44485695Y-86222009D01*
X44485695Y-86079152D01*
X44533314Y-85888676D01*
X44580933Y-85793438D01*
X44676171Y-85698200D01*
X44819028Y-85650580D01*
X44914266Y-85650580D01*
X45057123Y-85698200D01*
X45104742Y-85745819D01*
X45485695Y-85745819D02*
X45533314Y-85698200D01*
X45628552Y-85650580D01*
X45866647Y-85650580D01*
X45961885Y-85698200D01*
X46009504Y-85745819D01*
X46057123Y-85841057D01*
X46057123Y-85936295D01*
X46009504Y-86079152D01*
X45438076Y-86650580D01*
X46057123Y-86650580D01*
X46533314Y-86650580D02*
X46723790Y-86650580D01*
X46819028Y-86602961D01*
X46866647Y-86555342D01*
X46961885Y-86412485D01*
X47009504Y-86222009D01*
X47009504Y-85841057D01*
X46961885Y-85745819D01*
X46914266Y-85698200D01*
X46819028Y-85650580D01*
X46628552Y-85650580D01*
X46533314Y-85698200D01*
X46485695Y-85745819D01*
X46438076Y-85841057D01*
X46438076Y-86079152D01*
X46485695Y-86174390D01*
X46533314Y-86222009D01*
X46628552Y-86269628D01*
X46819028Y-86269628D01*
X46914266Y-86222009D01*
X46961885Y-86174390D01*
X47009504Y-86079152D01*
D12*
%TO.C,C22*%
X114350285Y-110794285D02*
X114321714Y-110822857D01*
X114236000Y-110851428D01*
X114178857Y-110851428D01*
X114093142Y-110822857D01*
X114036000Y-110765714D01*
X114007428Y-110708571D01*
X113978857Y-110594285D01*
X113978857Y-110508571D01*
X114007428Y-110394285D01*
X114036000Y-110337142D01*
X114093142Y-110280000D01*
X114178857Y-110251428D01*
X114236000Y-110251428D01*
X114321714Y-110280000D01*
X114350285Y-110308571D01*
X114578857Y-110308571D02*
X114607428Y-110280000D01*
X114664571Y-110251428D01*
X114807428Y-110251428D01*
X114864571Y-110280000D01*
X114893142Y-110308571D01*
X114921714Y-110365714D01*
X114921714Y-110422857D01*
X114893142Y-110508571D01*
X114550285Y-110851428D01*
X114921714Y-110851428D01*
X115150285Y-110308571D02*
X115178857Y-110280000D01*
X115236000Y-110251428D01*
X115378857Y-110251428D01*
X115436000Y-110280000D01*
X115464571Y-110308571D01*
X115493142Y-110365714D01*
X115493142Y-110422857D01*
X115464571Y-110508571D01*
X115121714Y-110851428D01*
X115493142Y-110851428D01*
%TO.C,U9*%
X125404857Y-117129428D02*
X125404857Y-117615142D01*
X125433428Y-117672285D01*
X125462000Y-117700857D01*
X125519142Y-117729428D01*
X125633428Y-117729428D01*
X125690571Y-117700857D01*
X125719142Y-117672285D01*
X125747714Y-117615142D01*
X125747714Y-117129428D01*
X126062000Y-117729428D02*
X126176285Y-117729428D01*
X126233428Y-117700857D01*
X126262000Y-117672285D01*
X126319142Y-117586571D01*
X126347714Y-117472285D01*
X126347714Y-117243714D01*
X126319142Y-117186571D01*
X126290571Y-117158000D01*
X126233428Y-117129428D01*
X126119142Y-117129428D01*
X126062000Y-117158000D01*
X126033428Y-117186571D01*
X126004857Y-117243714D01*
X126004857Y-117386571D01*
X126033428Y-117443714D01*
X126062000Y-117472285D01*
X126119142Y-117500857D01*
X126233428Y-117500857D01*
X126290571Y-117472285D01*
X126319142Y-117443714D01*
X126347714Y-117386571D01*
D13*
X124813192Y-113557357D02*
X125297001Y-113557357D01*
X125024859Y-113799261D02*
X125085335Y-113315452D01*
X125508668Y-113799261D02*
X125894204Y-113375928D01*
X125561585Y-113375928D02*
X125841287Y-113799261D01*
X126387357Y-115125688D02*
X126387357Y-114641879D01*
X126629261Y-114914021D02*
X126145452Y-114853545D01*
X126205928Y-114377295D02*
X126629261Y-114279021D01*
X126205928Y-114074914D02*
X126629261Y-114279021D01*
X126780452Y-114358396D01*
X126810690Y-114392414D01*
X126840928Y-114456670D01*
X126487357Y-113240807D02*
X126487357Y-112756998D01*
X126729261Y-113029140D02*
X126245452Y-112968664D01*
X126305928Y-112492414D02*
X126305928Y-112159795D01*
X126729261Y-112545331D01*
X126729261Y-112212712D01*
D12*
%TO.C,R51*%
X119625428Y-83983714D02*
X119339714Y-84183714D01*
X119625428Y-84326571D02*
X119025428Y-84326571D01*
X119025428Y-84098000D01*
X119054000Y-84040857D01*
X119082571Y-84012285D01*
X119139714Y-83983714D01*
X119225428Y-83983714D01*
X119282571Y-84012285D01*
X119311142Y-84040857D01*
X119339714Y-84098000D01*
X119339714Y-84326571D01*
X119025428Y-83440857D02*
X119025428Y-83726571D01*
X119311142Y-83755142D01*
X119282571Y-83726571D01*
X119254000Y-83669428D01*
X119254000Y-83526571D01*
X119282571Y-83469428D01*
X119311142Y-83440857D01*
X119368285Y-83412285D01*
X119511142Y-83412285D01*
X119568285Y-83440857D01*
X119596857Y-83469428D01*
X119625428Y-83526571D01*
X119625428Y-83669428D01*
X119596857Y-83726571D01*
X119568285Y-83755142D01*
X119625428Y-82840857D02*
X119625428Y-83183714D01*
X119625428Y-83012285D02*
X119025428Y-83012285D01*
X119111142Y-83069428D01*
X119168285Y-83126571D01*
X119196857Y-83183714D01*
%TO.C,C15*%
X107794285Y-110122285D02*
X107765714Y-110150857D01*
X107680000Y-110179428D01*
X107622857Y-110179428D01*
X107537142Y-110150857D01*
X107480000Y-110093714D01*
X107451428Y-110036571D01*
X107422857Y-109922285D01*
X107422857Y-109836571D01*
X107451428Y-109722285D01*
X107480000Y-109665142D01*
X107537142Y-109608000D01*
X107622857Y-109579428D01*
X107680000Y-109579428D01*
X107765714Y-109608000D01*
X107794285Y-109636571D01*
X108365714Y-110179428D02*
X108022857Y-110179428D01*
X108194285Y-110179428D02*
X108194285Y-109579428D01*
X108137142Y-109665142D01*
X108080000Y-109722285D01*
X108022857Y-109750857D01*
X108908571Y-109579428D02*
X108622857Y-109579428D01*
X108594285Y-109865142D01*
X108622857Y-109836571D01*
X108680000Y-109808000D01*
X108822857Y-109808000D01*
X108880000Y-109836571D01*
X108908571Y-109865142D01*
X108937142Y-109922285D01*
X108937142Y-110065142D01*
X108908571Y-110122285D01*
X108880000Y-110150857D01*
X108822857Y-110179428D01*
X108680000Y-110179428D01*
X108622857Y-110150857D01*
X108594285Y-110122285D01*
%TO.C,C26*%
X120192285Y-110290285D02*
X120163714Y-110318857D01*
X120078000Y-110347428D01*
X120020857Y-110347428D01*
X119935142Y-110318857D01*
X119878000Y-110261714D01*
X119849428Y-110204571D01*
X119820857Y-110090285D01*
X119820857Y-110004571D01*
X119849428Y-109890285D01*
X119878000Y-109833142D01*
X119935142Y-109776000D01*
X120020857Y-109747428D01*
X120078000Y-109747428D01*
X120163714Y-109776000D01*
X120192285Y-109804571D01*
X120420857Y-109804571D02*
X120449428Y-109776000D01*
X120506571Y-109747428D01*
X120649428Y-109747428D01*
X120706571Y-109776000D01*
X120735142Y-109804571D01*
X120763714Y-109861714D01*
X120763714Y-109918857D01*
X120735142Y-110004571D01*
X120392285Y-110347428D01*
X120763714Y-110347428D01*
X121278000Y-109747428D02*
X121163714Y-109747428D01*
X121106571Y-109776000D01*
X121078000Y-109804571D01*
X121020857Y-109890285D01*
X120992285Y-110004571D01*
X120992285Y-110233142D01*
X121020857Y-110290285D01*
X121049428Y-110318857D01*
X121106571Y-110347428D01*
X121220857Y-110347428D01*
X121278000Y-110318857D01*
X121306571Y-110290285D01*
X121335142Y-110233142D01*
X121335142Y-110090285D01*
X121306571Y-110033142D01*
X121278000Y-110004571D01*
X121220857Y-109976000D01*
X121106571Y-109976000D01*
X121049428Y-110004571D01*
X121020857Y-110033142D01*
X120992285Y-110090285D01*
D11*
%TO.C,R94*%
X107759142Y-91595380D02*
X107425809Y-91119190D01*
X107187714Y-91595380D02*
X107187714Y-90595380D01*
X107568666Y-90595380D01*
X107663904Y-90643000D01*
X107711523Y-90690619D01*
X107759142Y-90785857D01*
X107759142Y-90928714D01*
X107711523Y-91023952D01*
X107663904Y-91071571D01*
X107568666Y-91119190D01*
X107187714Y-91119190D01*
X108235333Y-91595380D02*
X108425809Y-91595380D01*
X108521047Y-91547761D01*
X108568666Y-91500142D01*
X108663904Y-91357285D01*
X108711523Y-91166809D01*
X108711523Y-90785857D01*
X108663904Y-90690619D01*
X108616285Y-90643000D01*
X108521047Y-90595380D01*
X108330571Y-90595380D01*
X108235333Y-90643000D01*
X108187714Y-90690619D01*
X108140095Y-90785857D01*
X108140095Y-91023952D01*
X108187714Y-91119190D01*
X108235333Y-91166809D01*
X108330571Y-91214428D01*
X108521047Y-91214428D01*
X108616285Y-91166809D01*
X108663904Y-91119190D01*
X108711523Y-91023952D01*
X109568666Y-90928714D02*
X109568666Y-91595380D01*
X109330571Y-90547761D02*
X109092476Y-91262047D01*
X109711523Y-91262047D01*
%TO.C,R73*%
X120442753Y-143812782D02*
X120109420Y-143336592D01*
X119871325Y-143812782D02*
X119871325Y-142812782D01*
X120252277Y-142812782D01*
X120347515Y-142860402D01*
X120395134Y-142908021D01*
X120442753Y-143003259D01*
X120442753Y-143146116D01*
X120395134Y-143241354D01*
X120347515Y-143288973D01*
X120252277Y-143336592D01*
X119871325Y-143336592D01*
X120776087Y-142812782D02*
X121442753Y-142812782D01*
X121014182Y-143812782D01*
X121728468Y-142812782D02*
X122347515Y-142812782D01*
X122014182Y-143193735D01*
X122157039Y-143193735D01*
X122252277Y-143241354D01*
X122299896Y-143288973D01*
X122347515Y-143384211D01*
X122347515Y-143622306D01*
X122299896Y-143717544D01*
X122252277Y-143765163D01*
X122157039Y-143812782D01*
X121871325Y-143812782D01*
X121776087Y-143765163D01*
X121728468Y-143717544D01*
%TO.C,R68*%
X117200753Y-145744782D02*
X116867420Y-145268592D01*
X116629325Y-145744782D02*
X116629325Y-144744782D01*
X117010277Y-144744782D01*
X117105515Y-144792402D01*
X117153134Y-144840021D01*
X117200753Y-144935259D01*
X117200753Y-145078116D01*
X117153134Y-145173354D01*
X117105515Y-145220973D01*
X117010277Y-145268592D01*
X116629325Y-145268592D01*
X118057896Y-144744782D02*
X117867420Y-144744782D01*
X117772182Y-144792402D01*
X117724563Y-144840021D01*
X117629325Y-144982878D01*
X117581706Y-145173354D01*
X117581706Y-145554306D01*
X117629325Y-145649544D01*
X117676944Y-145697163D01*
X117772182Y-145744782D01*
X117962658Y-145744782D01*
X118057896Y-145697163D01*
X118105515Y-145649544D01*
X118153134Y-145554306D01*
X118153134Y-145316211D01*
X118105515Y-145220973D01*
X118057896Y-145173354D01*
X117962658Y-145125735D01*
X117772182Y-145125735D01*
X117676944Y-145173354D01*
X117629325Y-145220973D01*
X117581706Y-145316211D01*
X118724563Y-145173354D02*
X118629325Y-145125735D01*
X118581706Y-145078116D01*
X118534087Y-144982878D01*
X118534087Y-144935259D01*
X118581706Y-144840021D01*
X118629325Y-144792402D01*
X118724563Y-144744782D01*
X118915039Y-144744782D01*
X119010277Y-144792402D01*
X119057896Y-144840021D01*
X119105515Y-144935259D01*
X119105515Y-144982878D01*
X119057896Y-145078116D01*
X119010277Y-145125735D01*
X118915039Y-145173354D01*
X118724563Y-145173354D01*
X118629325Y-145220973D01*
X118581706Y-145268592D01*
X118534087Y-145363830D01*
X118534087Y-145554306D01*
X118581706Y-145649544D01*
X118629325Y-145697163D01*
X118724563Y-145744782D01*
X118915039Y-145744782D01*
X119010277Y-145697163D01*
X119057896Y-145649544D01*
X119105515Y-145554306D01*
X119105515Y-145363830D01*
X119057896Y-145268592D01*
X119010277Y-145220973D01*
X118915039Y-145173354D01*
%TO.C,R75*%
X108573544Y-152664769D02*
X108240211Y-152188579D01*
X108002116Y-152664769D02*
X108002116Y-151664769D01*
X108383068Y-151664769D01*
X108478306Y-151712389D01*
X108525925Y-151760008D01*
X108573544Y-151855246D01*
X108573544Y-151998103D01*
X108525925Y-152093341D01*
X108478306Y-152140960D01*
X108383068Y-152188579D01*
X108002116Y-152188579D01*
X108906878Y-151664769D02*
X109573544Y-151664769D01*
X109144973Y-152664769D01*
X110430687Y-151664769D02*
X109954497Y-151664769D01*
X109906878Y-152140960D01*
X109954497Y-152093341D01*
X110049735Y-152045722D01*
X110287830Y-152045722D01*
X110383068Y-152093341D01*
X110430687Y-152140960D01*
X110478306Y-152236198D01*
X110478306Y-152474293D01*
X110430687Y-152569531D01*
X110383068Y-152617150D01*
X110287830Y-152664769D01*
X110049735Y-152664769D01*
X109954497Y-152617150D01*
X109906878Y-152569531D01*
%TO.C,C56*%
X78787142Y-102942857D02*
X78834761Y-102990476D01*
X78882380Y-103133333D01*
X78882380Y-103228571D01*
X78834761Y-103371428D01*
X78739523Y-103466666D01*
X78644285Y-103514285D01*
X78453809Y-103561904D01*
X78310952Y-103561904D01*
X78120476Y-103514285D01*
X78025238Y-103466666D01*
X77930000Y-103371428D01*
X77882380Y-103228571D01*
X77882380Y-103133333D01*
X77930000Y-102990476D01*
X77977619Y-102942857D01*
X77882380Y-102038095D02*
X77882380Y-102514285D01*
X78358571Y-102561904D01*
X78310952Y-102514285D01*
X78263333Y-102419047D01*
X78263333Y-102180952D01*
X78310952Y-102085714D01*
X78358571Y-102038095D01*
X78453809Y-101990476D01*
X78691904Y-101990476D01*
X78787142Y-102038095D01*
X78834761Y-102085714D01*
X78882380Y-102180952D01*
X78882380Y-102419047D01*
X78834761Y-102514285D01*
X78787142Y-102561904D01*
X77882380Y-101133333D02*
X77882380Y-101323809D01*
X77930000Y-101419047D01*
X77977619Y-101466666D01*
X78120476Y-101561904D01*
X78310952Y-101609523D01*
X78691904Y-101609523D01*
X78787142Y-101561904D01*
X78834761Y-101514285D01*
X78882380Y-101419047D01*
X78882380Y-101228571D01*
X78834761Y-101133333D01*
X78787142Y-101085714D01*
X78691904Y-101038095D01*
X78453809Y-101038095D01*
X78358571Y-101085714D01*
X78310952Y-101133333D01*
X78263333Y-101228571D01*
X78263333Y-101419047D01*
X78310952Y-101514285D01*
X78358571Y-101561904D01*
X78453809Y-101609523D01*
%TO.C,R72*%
X120473544Y-142160769D02*
X120140211Y-141684579D01*
X119902116Y-142160769D02*
X119902116Y-141160769D01*
X120283068Y-141160769D01*
X120378306Y-141208389D01*
X120425925Y-141256008D01*
X120473544Y-141351246D01*
X120473544Y-141494103D01*
X120425925Y-141589341D01*
X120378306Y-141636960D01*
X120283068Y-141684579D01*
X119902116Y-141684579D01*
X120806878Y-141160769D02*
X121473544Y-141160769D01*
X121044973Y-142160769D01*
X121806878Y-141256008D02*
X121854497Y-141208389D01*
X121949735Y-141160769D01*
X122187830Y-141160769D01*
X122283068Y-141208389D01*
X122330687Y-141256008D01*
X122378306Y-141351246D01*
X122378306Y-141446484D01*
X122330687Y-141589341D01*
X121759259Y-142160769D01*
X122378306Y-142160769D01*
%TO.C,R26*%
X49344580Y-83806257D02*
X48868390Y-84139590D01*
X49344580Y-84377685D02*
X48344580Y-84377685D01*
X48344580Y-83996733D01*
X48392200Y-83901495D01*
X48439819Y-83853876D01*
X48535057Y-83806257D01*
X48677914Y-83806257D01*
X48773152Y-83853876D01*
X48820771Y-83901495D01*
X48868390Y-83996733D01*
X48868390Y-84377685D01*
X48439819Y-83425304D02*
X48392200Y-83377685D01*
X48344580Y-83282447D01*
X48344580Y-83044352D01*
X48392200Y-82949114D01*
X48439819Y-82901495D01*
X48535057Y-82853876D01*
X48630295Y-82853876D01*
X48773152Y-82901495D01*
X49344580Y-83472923D01*
X49344580Y-82853876D01*
X48344580Y-81996733D02*
X48344580Y-82187209D01*
X48392200Y-82282447D01*
X48439819Y-82330066D01*
X48582676Y-82425304D01*
X48773152Y-82472923D01*
X49154104Y-82472923D01*
X49249342Y-82425304D01*
X49296961Y-82377685D01*
X49344580Y-82282447D01*
X49344580Y-82091971D01*
X49296961Y-81996733D01*
X49249342Y-81949114D01*
X49154104Y-81901495D01*
X48916009Y-81901495D01*
X48820771Y-81949114D01*
X48773152Y-81996733D01*
X48725533Y-82091971D01*
X48725533Y-82282447D01*
X48773152Y-82377685D01*
X48820771Y-82425304D01*
X48916009Y-82472923D01*
D12*
%TO.C,R50*%
X110849428Y-83983714D02*
X110563714Y-84183714D01*
X110849428Y-84326571D02*
X110249428Y-84326571D01*
X110249428Y-84098000D01*
X110278000Y-84040857D01*
X110306571Y-84012285D01*
X110363714Y-83983714D01*
X110449428Y-83983714D01*
X110506571Y-84012285D01*
X110535142Y-84040857D01*
X110563714Y-84098000D01*
X110563714Y-84326571D01*
X110249428Y-83440857D02*
X110249428Y-83726571D01*
X110535142Y-83755142D01*
X110506571Y-83726571D01*
X110478000Y-83669428D01*
X110478000Y-83526571D01*
X110506571Y-83469428D01*
X110535142Y-83440857D01*
X110592285Y-83412285D01*
X110735142Y-83412285D01*
X110792285Y-83440857D01*
X110820857Y-83469428D01*
X110849428Y-83526571D01*
X110849428Y-83669428D01*
X110820857Y-83726571D01*
X110792285Y-83755142D01*
X110249428Y-83040857D02*
X110249428Y-82983714D01*
X110278000Y-82926571D01*
X110306571Y-82898000D01*
X110363714Y-82869428D01*
X110478000Y-82840857D01*
X110620857Y-82840857D01*
X110735142Y-82869428D01*
X110792285Y-82898000D01*
X110820857Y-82926571D01*
X110849428Y-82983714D01*
X110849428Y-83040857D01*
X110820857Y-83098000D01*
X110792285Y-83126571D01*
X110735142Y-83155142D01*
X110620857Y-83183714D01*
X110478000Y-83183714D01*
X110363714Y-83155142D01*
X110306571Y-83126571D01*
X110278000Y-83098000D01*
X110249428Y-83040857D01*
D11*
%TO.C,R41*%
X49976580Y-107178257D02*
X49500390Y-107511590D01*
X49976580Y-107749685D02*
X48976580Y-107749685D01*
X48976580Y-107368733D01*
X49024200Y-107273495D01*
X49071819Y-107225876D01*
X49167057Y-107178257D01*
X49309914Y-107178257D01*
X49405152Y-107225876D01*
X49452771Y-107273495D01*
X49500390Y-107368733D01*
X49500390Y-107749685D01*
X49309914Y-106321114D02*
X49976580Y-106321114D01*
X48928961Y-106559209D02*
X49643247Y-106797304D01*
X49643247Y-106178257D01*
X49976580Y-105273495D02*
X49976580Y-105844923D01*
X49976580Y-105559209D02*
X48976580Y-105559209D01*
X49119438Y-105654447D01*
X49214676Y-105749685D01*
X49262295Y-105844923D01*
D12*
%TO.C,R54*%
X112623428Y-78411714D02*
X112337714Y-78611714D01*
X112623428Y-78754571D02*
X112023428Y-78754571D01*
X112023428Y-78526000D01*
X112052000Y-78468857D01*
X112080571Y-78440285D01*
X112137714Y-78411714D01*
X112223428Y-78411714D01*
X112280571Y-78440285D01*
X112309142Y-78468857D01*
X112337714Y-78526000D01*
X112337714Y-78754571D01*
X112023428Y-77868857D02*
X112023428Y-78154571D01*
X112309142Y-78183142D01*
X112280571Y-78154571D01*
X112252000Y-78097428D01*
X112252000Y-77954571D01*
X112280571Y-77897428D01*
X112309142Y-77868857D01*
X112366285Y-77840285D01*
X112509142Y-77840285D01*
X112566285Y-77868857D01*
X112594857Y-77897428D01*
X112623428Y-77954571D01*
X112623428Y-78097428D01*
X112594857Y-78154571D01*
X112566285Y-78183142D01*
X112223428Y-77326000D02*
X112623428Y-77326000D01*
X111994857Y-77468857D02*
X112423428Y-77611714D01*
X112423428Y-77240285D01*
D11*
%TO.C,R43*%
X55352180Y-109636457D02*
X54875990Y-109969790D01*
X55352180Y-110207885D02*
X54352180Y-110207885D01*
X54352180Y-109826933D01*
X54399800Y-109731695D01*
X54447419Y-109684076D01*
X54542657Y-109636457D01*
X54685514Y-109636457D01*
X54780752Y-109684076D01*
X54828371Y-109731695D01*
X54875990Y-109826933D01*
X54875990Y-110207885D01*
X54685514Y-108779314D02*
X55352180Y-108779314D01*
X54304561Y-109017409D02*
X55018847Y-109255504D01*
X55018847Y-108636457D01*
X54352180Y-108350742D02*
X54352180Y-107731695D01*
X54733133Y-108065028D01*
X54733133Y-107922171D01*
X54780752Y-107826933D01*
X54828371Y-107779314D01*
X54923609Y-107731695D01*
X55161704Y-107731695D01*
X55256942Y-107779314D01*
X55304561Y-107826933D01*
X55352180Y-107922171D01*
X55352180Y-108207885D01*
X55304561Y-108303123D01*
X55256942Y-108350742D01*
D12*
%TO.C,R58*%
X114037428Y-78411714D02*
X113751714Y-78611714D01*
X114037428Y-78754571D02*
X113437428Y-78754571D01*
X113437428Y-78526000D01*
X113466000Y-78468857D01*
X113494571Y-78440285D01*
X113551714Y-78411714D01*
X113637428Y-78411714D01*
X113694571Y-78440285D01*
X113723142Y-78468857D01*
X113751714Y-78526000D01*
X113751714Y-78754571D01*
X113437428Y-77868857D02*
X113437428Y-78154571D01*
X113723142Y-78183142D01*
X113694571Y-78154571D01*
X113666000Y-78097428D01*
X113666000Y-77954571D01*
X113694571Y-77897428D01*
X113723142Y-77868857D01*
X113780285Y-77840285D01*
X113923142Y-77840285D01*
X113980285Y-77868857D01*
X114008857Y-77897428D01*
X114037428Y-77954571D01*
X114037428Y-78097428D01*
X114008857Y-78154571D01*
X113980285Y-78183142D01*
X113694571Y-77497428D02*
X113666000Y-77554571D01*
X113637428Y-77583142D01*
X113580285Y-77611714D01*
X113551714Y-77611714D01*
X113494571Y-77583142D01*
X113466000Y-77554571D01*
X113437428Y-77497428D01*
X113437428Y-77383142D01*
X113466000Y-77326000D01*
X113494571Y-77297428D01*
X113551714Y-77268857D01*
X113580285Y-77268857D01*
X113637428Y-77297428D01*
X113666000Y-77326000D01*
X113694571Y-77383142D01*
X113694571Y-77497428D01*
X113723142Y-77554571D01*
X113751714Y-77583142D01*
X113808857Y-77611714D01*
X113923142Y-77611714D01*
X113980285Y-77583142D01*
X114008857Y-77554571D01*
X114037428Y-77497428D01*
X114037428Y-77383142D01*
X114008857Y-77326000D01*
X113980285Y-77297428D01*
X113923142Y-77268857D01*
X113808857Y-77268857D01*
X113751714Y-77297428D01*
X113723142Y-77326000D01*
X113694571Y-77383142D01*
D11*
%TO.C,R39*%
X84393180Y-87370457D02*
X83916990Y-87703790D01*
X84393180Y-87941885D02*
X83393180Y-87941885D01*
X83393180Y-87560933D01*
X83440800Y-87465695D01*
X83488419Y-87418076D01*
X83583657Y-87370457D01*
X83726514Y-87370457D01*
X83821752Y-87418076D01*
X83869371Y-87465695D01*
X83916990Y-87560933D01*
X83916990Y-87941885D01*
X83393180Y-87037123D02*
X83393180Y-86418076D01*
X83774133Y-86751409D01*
X83774133Y-86608552D01*
X83821752Y-86513314D01*
X83869371Y-86465695D01*
X83964609Y-86418076D01*
X84202704Y-86418076D01*
X84297942Y-86465695D01*
X84345561Y-86513314D01*
X84393180Y-86608552D01*
X84393180Y-86894266D01*
X84345561Y-86989504D01*
X84297942Y-87037123D01*
X84393180Y-85941885D02*
X84393180Y-85751409D01*
X84345561Y-85656171D01*
X84297942Y-85608552D01*
X84155085Y-85513314D01*
X83964609Y-85465695D01*
X83583657Y-85465695D01*
X83488419Y-85513314D01*
X83440800Y-85560933D01*
X83393180Y-85656171D01*
X83393180Y-85846647D01*
X83440800Y-85941885D01*
X83488419Y-85989504D01*
X83583657Y-86037123D01*
X83821752Y-86037123D01*
X83916990Y-85989504D01*
X83964609Y-85941885D01*
X84012228Y-85846647D01*
X84012228Y-85656171D01*
X83964609Y-85560933D01*
X83916990Y-85513314D01*
X83821752Y-85465695D01*
D12*
%TO.C,R82*%
X121149428Y-88555714D02*
X120863714Y-88755714D01*
X121149428Y-88898571D02*
X120549428Y-88898571D01*
X120549428Y-88670000D01*
X120578000Y-88612857D01*
X120606571Y-88584285D01*
X120663714Y-88555714D01*
X120749428Y-88555714D01*
X120806571Y-88584285D01*
X120835142Y-88612857D01*
X120863714Y-88670000D01*
X120863714Y-88898571D01*
X120806571Y-88212857D02*
X120778000Y-88270000D01*
X120749428Y-88298571D01*
X120692285Y-88327142D01*
X120663714Y-88327142D01*
X120606571Y-88298571D01*
X120578000Y-88270000D01*
X120549428Y-88212857D01*
X120549428Y-88098571D01*
X120578000Y-88041428D01*
X120606571Y-88012857D01*
X120663714Y-87984285D01*
X120692285Y-87984285D01*
X120749428Y-88012857D01*
X120778000Y-88041428D01*
X120806571Y-88098571D01*
X120806571Y-88212857D01*
X120835142Y-88270000D01*
X120863714Y-88298571D01*
X120920857Y-88327142D01*
X121035142Y-88327142D01*
X121092285Y-88298571D01*
X121120857Y-88270000D01*
X121149428Y-88212857D01*
X121149428Y-88098571D01*
X121120857Y-88041428D01*
X121092285Y-88012857D01*
X121035142Y-87984285D01*
X120920857Y-87984285D01*
X120863714Y-88012857D01*
X120835142Y-88041428D01*
X120806571Y-88098571D01*
X120606571Y-87755714D02*
X120578000Y-87727142D01*
X120549428Y-87670000D01*
X120549428Y-87527142D01*
X120578000Y-87470000D01*
X120606571Y-87441428D01*
X120663714Y-87412857D01*
X120720857Y-87412857D01*
X120806571Y-87441428D01*
X121149428Y-87784285D01*
X121149428Y-87412857D01*
D11*
%TO.C,Q24*%
X100141619Y-81790428D02*
X100094000Y-81885666D01*
X99998761Y-81980904D01*
X99855904Y-82123761D01*
X99808285Y-82219000D01*
X99808285Y-82314238D01*
X100046380Y-82266619D02*
X99998761Y-82361857D01*
X99903523Y-82457095D01*
X99713047Y-82504714D01*
X99379714Y-82504714D01*
X99189238Y-82457095D01*
X99094000Y-82361857D01*
X99046380Y-82266619D01*
X99046380Y-82076142D01*
X99094000Y-81980904D01*
X99189238Y-81885666D01*
X99379714Y-81838047D01*
X99713047Y-81838047D01*
X99903523Y-81885666D01*
X99998761Y-81980904D01*
X100046380Y-82076142D01*
X100046380Y-82266619D01*
X99141619Y-81457095D02*
X99094000Y-81409476D01*
X99046380Y-81314238D01*
X99046380Y-81076142D01*
X99094000Y-80980904D01*
X99141619Y-80933285D01*
X99236857Y-80885666D01*
X99332095Y-80885666D01*
X99474952Y-80933285D01*
X100046380Y-81504714D01*
X100046380Y-80885666D01*
X99379714Y-80028523D02*
X100046380Y-80028523D01*
X98998761Y-80266619D02*
X99713047Y-80504714D01*
X99713047Y-79885666D01*
%TO.C,R40*%
X89161580Y-87367257D02*
X88685390Y-87700590D01*
X89161580Y-87938685D02*
X88161580Y-87938685D01*
X88161580Y-87557733D01*
X88209200Y-87462495D01*
X88256819Y-87414876D01*
X88352057Y-87367257D01*
X88494914Y-87367257D01*
X88590152Y-87414876D01*
X88637771Y-87462495D01*
X88685390Y-87557733D01*
X88685390Y-87938685D01*
X88494914Y-86510114D02*
X89161580Y-86510114D01*
X88113961Y-86748209D02*
X88828247Y-86986304D01*
X88828247Y-86367257D01*
X88161580Y-85795828D02*
X88161580Y-85700590D01*
X88209200Y-85605352D01*
X88256819Y-85557733D01*
X88352057Y-85510114D01*
X88542533Y-85462495D01*
X88780628Y-85462495D01*
X88971104Y-85510114D01*
X89066342Y-85557733D01*
X89113961Y-85605352D01*
X89161580Y-85700590D01*
X89161580Y-85795828D01*
X89113961Y-85891066D01*
X89066342Y-85938685D01*
X88971104Y-85986304D01*
X88780628Y-86033923D01*
X88542533Y-86033923D01*
X88352057Y-85986304D01*
X88256819Y-85938685D01*
X88209200Y-85891066D01*
X88161580Y-85795828D01*
D12*
%TO.C,R84*%
X112373428Y-88555714D02*
X112087714Y-88755714D01*
X112373428Y-88898571D02*
X111773428Y-88898571D01*
X111773428Y-88670000D01*
X111802000Y-88612857D01*
X111830571Y-88584285D01*
X111887714Y-88555714D01*
X111973428Y-88555714D01*
X112030571Y-88584285D01*
X112059142Y-88612857D01*
X112087714Y-88670000D01*
X112087714Y-88898571D01*
X112030571Y-88212857D02*
X112002000Y-88270000D01*
X111973428Y-88298571D01*
X111916285Y-88327142D01*
X111887714Y-88327142D01*
X111830571Y-88298571D01*
X111802000Y-88270000D01*
X111773428Y-88212857D01*
X111773428Y-88098571D01*
X111802000Y-88041428D01*
X111830571Y-88012857D01*
X111887714Y-87984285D01*
X111916285Y-87984285D01*
X111973428Y-88012857D01*
X112002000Y-88041428D01*
X112030571Y-88098571D01*
X112030571Y-88212857D01*
X112059142Y-88270000D01*
X112087714Y-88298571D01*
X112144857Y-88327142D01*
X112259142Y-88327142D01*
X112316285Y-88298571D01*
X112344857Y-88270000D01*
X112373428Y-88212857D01*
X112373428Y-88098571D01*
X112344857Y-88041428D01*
X112316285Y-88012857D01*
X112259142Y-87984285D01*
X112144857Y-87984285D01*
X112087714Y-88012857D01*
X112059142Y-88041428D01*
X112030571Y-88098571D01*
X111973428Y-87470000D02*
X112373428Y-87470000D01*
X111744857Y-87612857D02*
X112173428Y-87755714D01*
X112173428Y-87384285D01*
%TO.C,R79*%
X112623428Y-92996714D02*
X112337714Y-93196714D01*
X112623428Y-93339571D02*
X112023428Y-93339571D01*
X112023428Y-93111000D01*
X112052000Y-93053857D01*
X112080571Y-93025285D01*
X112137714Y-92996714D01*
X112223428Y-92996714D01*
X112280571Y-93025285D01*
X112309142Y-93053857D01*
X112337714Y-93111000D01*
X112337714Y-93339571D01*
X112023428Y-92796714D02*
X112023428Y-92396714D01*
X112623428Y-92653857D01*
X112623428Y-92139571D02*
X112623428Y-92025285D01*
X112594857Y-91968142D01*
X112566285Y-91939571D01*
X112480571Y-91882428D01*
X112366285Y-91853857D01*
X112137714Y-91853857D01*
X112080571Y-91882428D01*
X112052000Y-91911000D01*
X112023428Y-91968142D01*
X112023428Y-92082428D01*
X112052000Y-92139571D01*
X112080571Y-92168142D01*
X112137714Y-92196714D01*
X112280571Y-92196714D01*
X112337714Y-92168142D01*
X112366285Y-92139571D01*
X112394857Y-92082428D01*
X112394857Y-91968142D01*
X112366285Y-91911000D01*
X112337714Y-91882428D01*
X112280571Y-91853857D01*
%TO.C,U8*%
X125179428Y-127939142D02*
X125665142Y-127939142D01*
X125722285Y-127910571D01*
X125750857Y-127882000D01*
X125779428Y-127824857D01*
X125779428Y-127710571D01*
X125750857Y-127653428D01*
X125722285Y-127624857D01*
X125665142Y-127596285D01*
X125179428Y-127596285D01*
X125436571Y-127224857D02*
X125408000Y-127282000D01*
X125379428Y-127310571D01*
X125322285Y-127339142D01*
X125293714Y-127339142D01*
X125236571Y-127310571D01*
X125208000Y-127282000D01*
X125179428Y-127224857D01*
X125179428Y-127110571D01*
X125208000Y-127053428D01*
X125236571Y-127024857D01*
X125293714Y-126996285D01*
X125322285Y-126996285D01*
X125379428Y-127024857D01*
X125408000Y-127053428D01*
X125436571Y-127110571D01*
X125436571Y-127224857D01*
X125465142Y-127282000D01*
X125493714Y-127310571D01*
X125550857Y-127339142D01*
X125665142Y-127339142D01*
X125722285Y-127310571D01*
X125750857Y-127282000D01*
X125779428Y-127224857D01*
X125779428Y-127110571D01*
X125750857Y-127053428D01*
X125722285Y-127024857D01*
X125665142Y-126996285D01*
X125550857Y-126996285D01*
X125493714Y-127024857D01*
X125465142Y-127053428D01*
X125436571Y-127110571D01*
D13*
X124813192Y-123463357D02*
X125297001Y-123463357D01*
X125024859Y-123705261D02*
X125085335Y-123221452D01*
X125508668Y-123705261D02*
X125894204Y-123281928D01*
X125561585Y-123281928D02*
X125841287Y-123705261D01*
X126487357Y-123146807D02*
X126487357Y-122662998D01*
X126729261Y-122935140D02*
X126245452Y-122874664D01*
X126305928Y-122398414D02*
X126305928Y-122065795D01*
X126729261Y-122451331D01*
X126729261Y-122118712D01*
X126387357Y-125031688D02*
X126387357Y-124547879D01*
X126629261Y-124820021D02*
X126145452Y-124759545D01*
X126205928Y-124283295D02*
X126629261Y-124185021D01*
X126205928Y-123980914D02*
X126629261Y-124185021D01*
X126780452Y-124264396D01*
X126810690Y-124298414D01*
X126840928Y-124362670D01*
D11*
%TO.C,R108*%
X102728380Y-82850047D02*
X102252190Y-83183380D01*
X102728380Y-83421476D02*
X101728380Y-83421476D01*
X101728380Y-83040523D01*
X101776000Y-82945285D01*
X101823619Y-82897666D01*
X101918857Y-82850047D01*
X102061714Y-82850047D01*
X102156952Y-82897666D01*
X102204571Y-82945285D01*
X102252190Y-83040523D01*
X102252190Y-83421476D01*
X102728380Y-81897666D02*
X102728380Y-82469095D01*
X102728380Y-82183380D02*
X101728380Y-82183380D01*
X101871238Y-82278619D01*
X101966476Y-82373857D01*
X102014095Y-82469095D01*
X101728380Y-81278619D02*
X101728380Y-81183380D01*
X101776000Y-81088142D01*
X101823619Y-81040523D01*
X101918857Y-80992904D01*
X102109333Y-80945285D01*
X102347428Y-80945285D01*
X102537904Y-80992904D01*
X102633142Y-81040523D01*
X102680761Y-81088142D01*
X102728380Y-81183380D01*
X102728380Y-81278619D01*
X102680761Y-81373857D01*
X102633142Y-81421476D01*
X102537904Y-81469095D01*
X102347428Y-81516714D01*
X102109333Y-81516714D01*
X101918857Y-81469095D01*
X101823619Y-81421476D01*
X101776000Y-81373857D01*
X101728380Y-81278619D01*
X102156952Y-80373857D02*
X102109333Y-80469095D01*
X102061714Y-80516714D01*
X101966476Y-80564333D01*
X101918857Y-80564333D01*
X101823619Y-80516714D01*
X101776000Y-80469095D01*
X101728380Y-80373857D01*
X101728380Y-80183380D01*
X101776000Y-80088142D01*
X101823619Y-80040523D01*
X101918857Y-79992904D01*
X101966476Y-79992904D01*
X102061714Y-80040523D01*
X102109333Y-80088142D01*
X102156952Y-80183380D01*
X102156952Y-80373857D01*
X102204571Y-80469095D01*
X102252190Y-80516714D01*
X102347428Y-80564333D01*
X102537904Y-80564333D01*
X102633142Y-80516714D01*
X102680761Y-80469095D01*
X102728380Y-80373857D01*
X102728380Y-80183380D01*
X102680761Y-80088142D01*
X102633142Y-80040523D01*
X102537904Y-79992904D01*
X102347428Y-79992904D01*
X102252190Y-80040523D01*
X102204571Y-80088142D01*
X102156952Y-80183380D01*
D12*
%TO.C,R80*%
X110849428Y-92996714D02*
X110563714Y-93196714D01*
X110849428Y-93339571D02*
X110249428Y-93339571D01*
X110249428Y-93111000D01*
X110278000Y-93053857D01*
X110306571Y-93025285D01*
X110363714Y-92996714D01*
X110449428Y-92996714D01*
X110506571Y-93025285D01*
X110535142Y-93053857D01*
X110563714Y-93111000D01*
X110563714Y-93339571D01*
X110506571Y-92653857D02*
X110478000Y-92711000D01*
X110449428Y-92739571D01*
X110392285Y-92768142D01*
X110363714Y-92768142D01*
X110306571Y-92739571D01*
X110278000Y-92711000D01*
X110249428Y-92653857D01*
X110249428Y-92539571D01*
X110278000Y-92482428D01*
X110306571Y-92453857D01*
X110363714Y-92425285D01*
X110392285Y-92425285D01*
X110449428Y-92453857D01*
X110478000Y-92482428D01*
X110506571Y-92539571D01*
X110506571Y-92653857D01*
X110535142Y-92711000D01*
X110563714Y-92739571D01*
X110620857Y-92768142D01*
X110735142Y-92768142D01*
X110792285Y-92739571D01*
X110820857Y-92711000D01*
X110849428Y-92653857D01*
X110849428Y-92539571D01*
X110820857Y-92482428D01*
X110792285Y-92453857D01*
X110735142Y-92425285D01*
X110620857Y-92425285D01*
X110563714Y-92453857D01*
X110535142Y-92482428D01*
X110506571Y-92539571D01*
X110249428Y-92053857D02*
X110249428Y-91996714D01*
X110278000Y-91939571D01*
X110306571Y-91911000D01*
X110363714Y-91882428D01*
X110478000Y-91853857D01*
X110620857Y-91853857D01*
X110735142Y-91882428D01*
X110792285Y-91911000D01*
X110820857Y-91939571D01*
X110849428Y-91996714D01*
X110849428Y-92053857D01*
X110820857Y-92111000D01*
X110792285Y-92139571D01*
X110735142Y-92168142D01*
X110620857Y-92196714D01*
X110478000Y-92196714D01*
X110363714Y-92168142D01*
X110306571Y-92139571D01*
X110278000Y-92111000D01*
X110249428Y-92053857D01*
%TO.C,R81*%
X119625428Y-92996714D02*
X119339714Y-93196714D01*
X119625428Y-93339571D02*
X119025428Y-93339571D01*
X119025428Y-93111000D01*
X119054000Y-93053857D01*
X119082571Y-93025285D01*
X119139714Y-92996714D01*
X119225428Y-92996714D01*
X119282571Y-93025285D01*
X119311142Y-93053857D01*
X119339714Y-93111000D01*
X119339714Y-93339571D01*
X119282571Y-92653857D02*
X119254000Y-92711000D01*
X119225428Y-92739571D01*
X119168285Y-92768142D01*
X119139714Y-92768142D01*
X119082571Y-92739571D01*
X119054000Y-92711000D01*
X119025428Y-92653857D01*
X119025428Y-92539571D01*
X119054000Y-92482428D01*
X119082571Y-92453857D01*
X119139714Y-92425285D01*
X119168285Y-92425285D01*
X119225428Y-92453857D01*
X119254000Y-92482428D01*
X119282571Y-92539571D01*
X119282571Y-92653857D01*
X119311142Y-92711000D01*
X119339714Y-92739571D01*
X119396857Y-92768142D01*
X119511142Y-92768142D01*
X119568285Y-92739571D01*
X119596857Y-92711000D01*
X119625428Y-92653857D01*
X119625428Y-92539571D01*
X119596857Y-92482428D01*
X119568285Y-92453857D01*
X119511142Y-92425285D01*
X119396857Y-92425285D01*
X119339714Y-92453857D01*
X119311142Y-92482428D01*
X119282571Y-92539571D01*
X119625428Y-91853857D02*
X119625428Y-92196714D01*
X119625428Y-92025285D02*
X119025428Y-92025285D01*
X119111142Y-92082428D01*
X119168285Y-92139571D01*
X119196857Y-92196714D01*
%TO.C,Q7*%
X122768857Y-79238571D02*
X122711714Y-79210000D01*
X122654571Y-79152857D01*
X122568857Y-79067142D01*
X122511714Y-79038571D01*
X122454571Y-79038571D01*
X122483142Y-79181428D02*
X122426000Y-79152857D01*
X122368857Y-79095714D01*
X122340285Y-78981428D01*
X122340285Y-78781428D01*
X122368857Y-78667142D01*
X122426000Y-78610000D01*
X122483142Y-78581428D01*
X122597428Y-78581428D01*
X122654571Y-78610000D01*
X122711714Y-78667142D01*
X122740285Y-78781428D01*
X122740285Y-78981428D01*
X122711714Y-79095714D01*
X122654571Y-79152857D01*
X122597428Y-79181428D01*
X122483142Y-79181428D01*
X122940285Y-78581428D02*
X123340285Y-78581428D01*
X123083142Y-79181428D01*
%TO.C,Q5*%
X122840857Y-83988571D02*
X122783714Y-83960000D01*
X122726571Y-83902857D01*
X122640857Y-83817142D01*
X122583714Y-83788571D01*
X122526571Y-83788571D01*
X122555142Y-83931428D02*
X122498000Y-83902857D01*
X122440857Y-83845714D01*
X122412285Y-83731428D01*
X122412285Y-83531428D01*
X122440857Y-83417142D01*
X122498000Y-83360000D01*
X122555142Y-83331428D01*
X122669428Y-83331428D01*
X122726571Y-83360000D01*
X122783714Y-83417142D01*
X122812285Y-83531428D01*
X122812285Y-83731428D01*
X122783714Y-83845714D01*
X122726571Y-83902857D01*
X122669428Y-83931428D01*
X122555142Y-83931428D01*
X123355142Y-83331428D02*
X123069428Y-83331428D01*
X123040857Y-83617142D01*
X123069428Y-83588571D01*
X123126571Y-83560000D01*
X123269428Y-83560000D01*
X123326571Y-83588571D01*
X123355142Y-83617142D01*
X123383714Y-83674285D01*
X123383714Y-83817142D01*
X123355142Y-83874285D01*
X123326571Y-83902857D01*
X123269428Y-83931428D01*
X123126571Y-83931428D01*
X123069428Y-83902857D01*
X123040857Y-83874285D01*
D11*
%TO.C,U10*%
X41278580Y-95221495D02*
X42088104Y-95221495D01*
X42183342Y-95173876D01*
X42230961Y-95126257D01*
X42278580Y-95031019D01*
X42278580Y-94840542D01*
X42230961Y-94745304D01*
X42183342Y-94697685D01*
X42088104Y-94650066D01*
X41278580Y-94650066D01*
X42278580Y-93650066D02*
X42278580Y-94221495D01*
X42278580Y-93935780D02*
X41278580Y-93935780D01*
X41421438Y-94031019D01*
X41516676Y-94126257D01*
X41564295Y-94221495D01*
X41278580Y-93031019D02*
X41278580Y-92935780D01*
X41326200Y-92840542D01*
X41373819Y-92792923D01*
X41469057Y-92745304D01*
X41659533Y-92697685D01*
X41897628Y-92697685D01*
X42088104Y-92745304D01*
X42183342Y-92792923D01*
X42230961Y-92840542D01*
X42278580Y-92935780D01*
X42278580Y-93031019D01*
X42230961Y-93126257D01*
X42183342Y-93173876D01*
X42088104Y-93221495D01*
X41897628Y-93269114D01*
X41659533Y-93269114D01*
X41469057Y-93221495D01*
X41373819Y-93173876D01*
X41326200Y-93126257D01*
X41278580Y-93031019D01*
D12*
%TO.C,R56*%
X119625428Y-78661714D02*
X119339714Y-78861714D01*
X119625428Y-79004571D02*
X119025428Y-79004571D01*
X119025428Y-78776000D01*
X119054000Y-78718857D01*
X119082571Y-78690285D01*
X119139714Y-78661714D01*
X119225428Y-78661714D01*
X119282571Y-78690285D01*
X119311142Y-78718857D01*
X119339714Y-78776000D01*
X119339714Y-79004571D01*
X119025428Y-78118857D02*
X119025428Y-78404571D01*
X119311142Y-78433142D01*
X119282571Y-78404571D01*
X119254000Y-78347428D01*
X119254000Y-78204571D01*
X119282571Y-78147428D01*
X119311142Y-78118857D01*
X119368285Y-78090285D01*
X119511142Y-78090285D01*
X119568285Y-78118857D01*
X119596857Y-78147428D01*
X119625428Y-78204571D01*
X119625428Y-78347428D01*
X119596857Y-78404571D01*
X119568285Y-78433142D01*
X119025428Y-77576000D02*
X119025428Y-77690285D01*
X119054000Y-77747428D01*
X119082571Y-77776000D01*
X119168285Y-77833142D01*
X119282571Y-77861714D01*
X119511142Y-77861714D01*
X119568285Y-77833142D01*
X119596857Y-77804571D01*
X119625428Y-77747428D01*
X119625428Y-77633142D01*
X119596857Y-77576000D01*
X119568285Y-77547428D01*
X119511142Y-77518857D01*
X119368285Y-77518857D01*
X119311142Y-77547428D01*
X119282571Y-77576000D01*
X119254000Y-77633142D01*
X119254000Y-77747428D01*
X119282571Y-77804571D01*
X119311142Y-77833142D01*
X119368285Y-77861714D01*
D11*
%TO.C,R76*%
X108684753Y-154412782D02*
X108351420Y-153936592D01*
X108113325Y-154412782D02*
X108113325Y-153412782D01*
X108494277Y-153412782D01*
X108589515Y-153460402D01*
X108637134Y-153508021D01*
X108684753Y-153603259D01*
X108684753Y-153746116D01*
X108637134Y-153841354D01*
X108589515Y-153888973D01*
X108494277Y-153936592D01*
X108113325Y-153936592D01*
X109018087Y-153412782D02*
X109684753Y-153412782D01*
X109256182Y-154412782D01*
X110494277Y-153412782D02*
X110303801Y-153412782D01*
X110208563Y-153460402D01*
X110160944Y-153508021D01*
X110065706Y-153650878D01*
X110018087Y-153841354D01*
X110018087Y-154222306D01*
X110065706Y-154317544D01*
X110113325Y-154365163D01*
X110208563Y-154412782D01*
X110399039Y-154412782D01*
X110494277Y-154365163D01*
X110541896Y-154317544D01*
X110589515Y-154222306D01*
X110589515Y-153984211D01*
X110541896Y-153888973D01*
X110494277Y-153841354D01*
X110399039Y-153793735D01*
X110208563Y-153793735D01*
X110113325Y-153841354D01*
X110065706Y-153888973D01*
X110018087Y-153984211D01*
D12*
%TO.C,C24*%
X117412285Y-109110285D02*
X117383714Y-109138857D01*
X117298000Y-109167428D01*
X117240857Y-109167428D01*
X117155142Y-109138857D01*
X117098000Y-109081714D01*
X117069428Y-109024571D01*
X117040857Y-108910285D01*
X117040857Y-108824571D01*
X117069428Y-108710285D01*
X117098000Y-108653142D01*
X117155142Y-108596000D01*
X117240857Y-108567428D01*
X117298000Y-108567428D01*
X117383714Y-108596000D01*
X117412285Y-108624571D01*
X117640857Y-108624571D02*
X117669428Y-108596000D01*
X117726571Y-108567428D01*
X117869428Y-108567428D01*
X117926571Y-108596000D01*
X117955142Y-108624571D01*
X117983714Y-108681714D01*
X117983714Y-108738857D01*
X117955142Y-108824571D01*
X117612285Y-109167428D01*
X117983714Y-109167428D01*
X118498000Y-108767428D02*
X118498000Y-109167428D01*
X118355142Y-108538857D02*
X118212285Y-108967428D01*
X118583714Y-108967428D01*
D11*
%TO.C,R46*%
X45507742Y-110386580D02*
X45174409Y-109910390D01*
X44936314Y-110386580D02*
X44936314Y-109386580D01*
X45317266Y-109386580D01*
X45412504Y-109434200D01*
X45460123Y-109481819D01*
X45507742Y-109577057D01*
X45507742Y-109719914D01*
X45460123Y-109815152D01*
X45412504Y-109862771D01*
X45317266Y-109910390D01*
X44936314Y-109910390D01*
X46364885Y-109719914D02*
X46364885Y-110386580D01*
X46126790Y-109338961D02*
X45888695Y-110053247D01*
X46507742Y-110053247D01*
X47317266Y-109386580D02*
X47126790Y-109386580D01*
X47031552Y-109434200D01*
X46983933Y-109481819D01*
X46888695Y-109624676D01*
X46841076Y-109815152D01*
X46841076Y-110196104D01*
X46888695Y-110291342D01*
X46936314Y-110338961D01*
X47031552Y-110386580D01*
X47222028Y-110386580D01*
X47317266Y-110338961D01*
X47364885Y-110291342D01*
X47412504Y-110196104D01*
X47412504Y-109958009D01*
X47364885Y-109862771D01*
X47317266Y-109815152D01*
X47222028Y-109767533D01*
X47031552Y-109767533D01*
X46936314Y-109815152D01*
X46888695Y-109862771D01*
X46841076Y-109958009D01*
D12*
%TO.C,R88*%
X114037428Y-88555714D02*
X113751714Y-88755714D01*
X114037428Y-88898571D02*
X113437428Y-88898571D01*
X113437428Y-88670000D01*
X113466000Y-88612857D01*
X113494571Y-88584285D01*
X113551714Y-88555714D01*
X113637428Y-88555714D01*
X113694571Y-88584285D01*
X113723142Y-88612857D01*
X113751714Y-88670000D01*
X113751714Y-88898571D01*
X113694571Y-88212857D02*
X113666000Y-88270000D01*
X113637428Y-88298571D01*
X113580285Y-88327142D01*
X113551714Y-88327142D01*
X113494571Y-88298571D01*
X113466000Y-88270000D01*
X113437428Y-88212857D01*
X113437428Y-88098571D01*
X113466000Y-88041428D01*
X113494571Y-88012857D01*
X113551714Y-87984285D01*
X113580285Y-87984285D01*
X113637428Y-88012857D01*
X113666000Y-88041428D01*
X113694571Y-88098571D01*
X113694571Y-88212857D01*
X113723142Y-88270000D01*
X113751714Y-88298571D01*
X113808857Y-88327142D01*
X113923142Y-88327142D01*
X113980285Y-88298571D01*
X114008857Y-88270000D01*
X114037428Y-88212857D01*
X114037428Y-88098571D01*
X114008857Y-88041428D01*
X113980285Y-88012857D01*
X113923142Y-87984285D01*
X113808857Y-87984285D01*
X113751714Y-88012857D01*
X113723142Y-88041428D01*
X113694571Y-88098571D01*
X113694571Y-87641428D02*
X113666000Y-87698571D01*
X113637428Y-87727142D01*
X113580285Y-87755714D01*
X113551714Y-87755714D01*
X113494571Y-87727142D01*
X113466000Y-87698571D01*
X113437428Y-87641428D01*
X113437428Y-87527142D01*
X113466000Y-87470000D01*
X113494571Y-87441428D01*
X113551714Y-87412857D01*
X113580285Y-87412857D01*
X113637428Y-87441428D01*
X113666000Y-87470000D01*
X113694571Y-87527142D01*
X113694571Y-87641428D01*
X113723142Y-87698571D01*
X113751714Y-87727142D01*
X113808857Y-87755714D01*
X113923142Y-87755714D01*
X113980285Y-87727142D01*
X114008857Y-87698571D01*
X114037428Y-87641428D01*
X114037428Y-87527142D01*
X114008857Y-87470000D01*
X113980285Y-87441428D01*
X113923142Y-87412857D01*
X113808857Y-87412857D01*
X113751714Y-87441428D01*
X113723142Y-87470000D01*
X113694571Y-87527142D01*
D11*
%TO.C,R100*%
X94971380Y-100551047D02*
X94495190Y-100884380D01*
X94971380Y-101122476D02*
X93971380Y-101122476D01*
X93971380Y-100741523D01*
X94019000Y-100646285D01*
X94066619Y-100598666D01*
X94161857Y-100551047D01*
X94304714Y-100551047D01*
X94399952Y-100598666D01*
X94447571Y-100646285D01*
X94495190Y-100741523D01*
X94495190Y-101122476D01*
X94971380Y-99598666D02*
X94971380Y-100170095D01*
X94971380Y-99884380D02*
X93971380Y-99884380D01*
X94114238Y-99979619D01*
X94209476Y-100074857D01*
X94257095Y-100170095D01*
X93971380Y-98979619D02*
X93971380Y-98884380D01*
X94019000Y-98789142D01*
X94066619Y-98741523D01*
X94161857Y-98693904D01*
X94352333Y-98646285D01*
X94590428Y-98646285D01*
X94780904Y-98693904D01*
X94876142Y-98741523D01*
X94923761Y-98789142D01*
X94971380Y-98884380D01*
X94971380Y-98979619D01*
X94923761Y-99074857D01*
X94876142Y-99122476D01*
X94780904Y-99170095D01*
X94590428Y-99217714D01*
X94352333Y-99217714D01*
X94161857Y-99170095D01*
X94066619Y-99122476D01*
X94019000Y-99074857D01*
X93971380Y-98979619D01*
X93971380Y-98027238D02*
X93971380Y-97932000D01*
X94019000Y-97836761D01*
X94066619Y-97789142D01*
X94161857Y-97741523D01*
X94352333Y-97693904D01*
X94590428Y-97693904D01*
X94780904Y-97741523D01*
X94876142Y-97789142D01*
X94923761Y-97836761D01*
X94971380Y-97932000D01*
X94971380Y-98027238D01*
X94923761Y-98122476D01*
X94876142Y-98170095D01*
X94780904Y-98217714D01*
X94590428Y-98265333D01*
X94352333Y-98265333D01*
X94161857Y-98217714D01*
X94066619Y-98170095D01*
X94019000Y-98122476D01*
X93971380Y-98027238D01*
%TO.C,Q11*%
X115839230Y-139331830D02*
X115791611Y-139427068D01*
X115696372Y-139522306D01*
X115553515Y-139665163D01*
X115505896Y-139760402D01*
X115505896Y-139855640D01*
X115743991Y-139808021D02*
X115696372Y-139903259D01*
X115601134Y-139998497D01*
X115410658Y-140046116D01*
X115077325Y-140046116D01*
X114886849Y-139998497D01*
X114791611Y-139903259D01*
X114743991Y-139808021D01*
X114743991Y-139617544D01*
X114791611Y-139522306D01*
X114886849Y-139427068D01*
X115077325Y-139379449D01*
X115410658Y-139379449D01*
X115601134Y-139427068D01*
X115696372Y-139522306D01*
X115743991Y-139617544D01*
X115743991Y-139808021D01*
X115743991Y-138427068D02*
X115743991Y-138998497D01*
X115743991Y-138712782D02*
X114743991Y-138712782D01*
X114886849Y-138808021D01*
X114982087Y-138903259D01*
X115029706Y-138998497D01*
X115743991Y-137474687D02*
X115743991Y-138046116D01*
X115743991Y-137760402D02*
X114743991Y-137760402D01*
X114886849Y-137855640D01*
X114982087Y-137950878D01*
X115029706Y-138046116D01*
%TO.C,Q18*%
X94874571Y-96704619D02*
X94779333Y-96657000D01*
X94684095Y-96561761D01*
X94541238Y-96418904D01*
X94446000Y-96371285D01*
X94350761Y-96371285D01*
X94398380Y-96609380D02*
X94303142Y-96561761D01*
X94207904Y-96466523D01*
X94160285Y-96276047D01*
X94160285Y-95942714D01*
X94207904Y-95752238D01*
X94303142Y-95657000D01*
X94398380Y-95609380D01*
X94588857Y-95609380D01*
X94684095Y-95657000D01*
X94779333Y-95752238D01*
X94826952Y-95942714D01*
X94826952Y-96276047D01*
X94779333Y-96466523D01*
X94684095Y-96561761D01*
X94588857Y-96609380D01*
X94398380Y-96609380D01*
X95779333Y-96609380D02*
X95207904Y-96609380D01*
X95493619Y-96609380D02*
X95493619Y-95609380D01*
X95398380Y-95752238D01*
X95303142Y-95847476D01*
X95207904Y-95895095D01*
X96350761Y-96037952D02*
X96255523Y-95990333D01*
X96207904Y-95942714D01*
X96160285Y-95847476D01*
X96160285Y-95799857D01*
X96207904Y-95704619D01*
X96255523Y-95657000D01*
X96350761Y-95609380D01*
X96541238Y-95609380D01*
X96636476Y-95657000D01*
X96684095Y-95704619D01*
X96731714Y-95799857D01*
X96731714Y-95847476D01*
X96684095Y-95942714D01*
X96636476Y-95990333D01*
X96541238Y-96037952D01*
X96350761Y-96037952D01*
X96255523Y-96085571D01*
X96207904Y-96133190D01*
X96160285Y-96228428D01*
X96160285Y-96418904D01*
X96207904Y-96514142D01*
X96255523Y-96561761D01*
X96350761Y-96609380D01*
X96541238Y-96609380D01*
X96636476Y-96561761D01*
X96684095Y-96514142D01*
X96731714Y-96418904D01*
X96731714Y-96228428D01*
X96684095Y-96133190D01*
X96636476Y-96085571D01*
X96541238Y-96037952D01*
%TO.C,Q12*%
X110081230Y-149931830D02*
X110033611Y-150027068D01*
X109938372Y-150122306D01*
X109795515Y-150265163D01*
X109747896Y-150360402D01*
X109747896Y-150455640D01*
X109985991Y-150408021D02*
X109938372Y-150503259D01*
X109843134Y-150598497D01*
X109652658Y-150646116D01*
X109319325Y-150646116D01*
X109128849Y-150598497D01*
X109033611Y-150503259D01*
X108985991Y-150408021D01*
X108985991Y-150217544D01*
X109033611Y-150122306D01*
X109128849Y-150027068D01*
X109319325Y-149979449D01*
X109652658Y-149979449D01*
X109843134Y-150027068D01*
X109938372Y-150122306D01*
X109985991Y-150217544D01*
X109985991Y-150408021D01*
X109985991Y-149027068D02*
X109985991Y-149598497D01*
X109985991Y-149312782D02*
X108985991Y-149312782D01*
X109128849Y-149408021D01*
X109224087Y-149503259D01*
X109271706Y-149598497D01*
X109081230Y-148646116D02*
X109033611Y-148598497D01*
X108985991Y-148503259D01*
X108985991Y-148265163D01*
X109033611Y-148169925D01*
X109081230Y-148122306D01*
X109176468Y-148074687D01*
X109271706Y-148074687D01*
X109414563Y-148122306D01*
X109985991Y-148693735D01*
X109985991Y-148074687D01*
%TO.C,Q17*%
X108576571Y-89114619D02*
X108481333Y-89067000D01*
X108386095Y-88971761D01*
X108243238Y-88828904D01*
X108148000Y-88781285D01*
X108052761Y-88781285D01*
X108100380Y-89019380D02*
X108005142Y-88971761D01*
X107909904Y-88876523D01*
X107862285Y-88686047D01*
X107862285Y-88352714D01*
X107909904Y-88162238D01*
X108005142Y-88067000D01*
X108100380Y-88019380D01*
X108290857Y-88019380D01*
X108386095Y-88067000D01*
X108481333Y-88162238D01*
X108528952Y-88352714D01*
X108528952Y-88686047D01*
X108481333Y-88876523D01*
X108386095Y-88971761D01*
X108290857Y-89019380D01*
X108100380Y-89019380D01*
X109481333Y-89019380D02*
X108909904Y-89019380D01*
X109195619Y-89019380D02*
X109195619Y-88019380D01*
X109100380Y-88162238D01*
X109005142Y-88257476D01*
X108909904Y-88305095D01*
X109814666Y-88019380D02*
X110481333Y-88019380D01*
X110052761Y-89019380D01*
%TO.C,R98*%
X94062380Y-82849857D02*
X93586190Y-83183190D01*
X94062380Y-83421285D02*
X93062380Y-83421285D01*
X93062380Y-83040333D01*
X93110000Y-82945095D01*
X93157619Y-82897476D01*
X93252857Y-82849857D01*
X93395714Y-82849857D01*
X93490952Y-82897476D01*
X93538571Y-82945095D01*
X93586190Y-83040333D01*
X93586190Y-83421285D01*
X94062380Y-82373666D02*
X94062380Y-82183190D01*
X94014761Y-82087952D01*
X93967142Y-82040333D01*
X93824285Y-81945095D01*
X93633809Y-81897476D01*
X93252857Y-81897476D01*
X93157619Y-81945095D01*
X93110000Y-81992714D01*
X93062380Y-82087952D01*
X93062380Y-82278428D01*
X93110000Y-82373666D01*
X93157619Y-82421285D01*
X93252857Y-82468904D01*
X93490952Y-82468904D01*
X93586190Y-82421285D01*
X93633809Y-82373666D01*
X93681428Y-82278428D01*
X93681428Y-82087952D01*
X93633809Y-81992714D01*
X93586190Y-81945095D01*
X93490952Y-81897476D01*
X93490952Y-81326047D02*
X93443333Y-81421285D01*
X93395714Y-81468904D01*
X93300476Y-81516523D01*
X93252857Y-81516523D01*
X93157619Y-81468904D01*
X93110000Y-81421285D01*
X93062380Y-81326047D01*
X93062380Y-81135571D01*
X93110000Y-81040333D01*
X93157619Y-80992714D01*
X93252857Y-80945095D01*
X93300476Y-80945095D01*
X93395714Y-80992714D01*
X93443333Y-81040333D01*
X93490952Y-81135571D01*
X93490952Y-81326047D01*
X93538571Y-81421285D01*
X93586190Y-81468904D01*
X93681428Y-81516523D01*
X93871904Y-81516523D01*
X93967142Y-81468904D01*
X94014761Y-81421285D01*
X94062380Y-81326047D01*
X94062380Y-81135571D01*
X94014761Y-81040333D01*
X93967142Y-80992714D01*
X93871904Y-80945095D01*
X93681428Y-80945095D01*
X93586190Y-80992714D01*
X93538571Y-81040333D01*
X93490952Y-81135571D01*
%TO.C,R71*%
X117442753Y-134894782D02*
X117109420Y-134418592D01*
X116871325Y-134894782D02*
X116871325Y-133894782D01*
X117252277Y-133894782D01*
X117347515Y-133942402D01*
X117395134Y-133990021D01*
X117442753Y-134085259D01*
X117442753Y-134228116D01*
X117395134Y-134323354D01*
X117347515Y-134370973D01*
X117252277Y-134418592D01*
X116871325Y-134418592D01*
X117776087Y-133894782D02*
X118442753Y-133894782D01*
X118014182Y-134894782D01*
X119347515Y-134894782D02*
X118776087Y-134894782D01*
X119061801Y-134894782D02*
X119061801Y-133894782D01*
X118966563Y-134037640D01*
X118871325Y-134132878D01*
X118776087Y-134180497D01*
D12*
%TO.C,C71*%
X125072285Y-88415714D02*
X125100857Y-88444285D01*
X125129428Y-88530000D01*
X125129428Y-88587142D01*
X125100857Y-88672857D01*
X125043714Y-88730000D01*
X124986571Y-88758571D01*
X124872285Y-88787142D01*
X124786571Y-88787142D01*
X124672285Y-88758571D01*
X124615142Y-88730000D01*
X124558000Y-88672857D01*
X124529428Y-88587142D01*
X124529428Y-88530000D01*
X124558000Y-88444285D01*
X124586571Y-88415714D01*
X124529428Y-88215714D02*
X124529428Y-87815714D01*
X125129428Y-88072857D01*
X125129428Y-87272857D02*
X125129428Y-87615714D01*
X125129428Y-87444285D02*
X124529428Y-87444285D01*
X124615142Y-87501428D01*
X124672285Y-87558571D01*
X124700857Y-87615714D01*
D11*
%TO.C,R69*%
X120323544Y-152652769D02*
X119990211Y-152176579D01*
X119752116Y-152652769D02*
X119752116Y-151652769D01*
X120133068Y-151652769D01*
X120228306Y-151700389D01*
X120275925Y-151748008D01*
X120323544Y-151843246D01*
X120323544Y-151986103D01*
X120275925Y-152081341D01*
X120228306Y-152128960D01*
X120133068Y-152176579D01*
X119752116Y-152176579D01*
X121180687Y-151652769D02*
X120990211Y-151652769D01*
X120894973Y-151700389D01*
X120847354Y-151748008D01*
X120752116Y-151890865D01*
X120704497Y-152081341D01*
X120704497Y-152462293D01*
X120752116Y-152557531D01*
X120799735Y-152605150D01*
X120894973Y-152652769D01*
X121085449Y-152652769D01*
X121180687Y-152605150D01*
X121228306Y-152557531D01*
X121275925Y-152462293D01*
X121275925Y-152224198D01*
X121228306Y-152128960D01*
X121180687Y-152081341D01*
X121085449Y-152033722D01*
X120894973Y-152033722D01*
X120799735Y-152081341D01*
X120752116Y-152128960D01*
X120704497Y-152224198D01*
X121752116Y-152652769D02*
X121942592Y-152652769D01*
X122037830Y-152605150D01*
X122085449Y-152557531D01*
X122180687Y-152414674D01*
X122228306Y-152224198D01*
X122228306Y-151843246D01*
X122180687Y-151748008D01*
X122133068Y-151700389D01*
X122037830Y-151652769D01*
X121847354Y-151652769D01*
X121752116Y-151700389D01*
X121704497Y-151748008D01*
X121656878Y-151843246D01*
X121656878Y-152081341D01*
X121704497Y-152176579D01*
X121752116Y-152224198D01*
X121847354Y-152271817D01*
X122037830Y-152271817D01*
X122133068Y-152224198D01*
X122180687Y-152176579D01*
X122228306Y-152081341D01*
D12*
%TO.C,R24*%
X114659428Y-107783714D02*
X114373714Y-107983714D01*
X114659428Y-108126571D02*
X114059428Y-108126571D01*
X114059428Y-107898000D01*
X114088000Y-107840857D01*
X114116571Y-107812285D01*
X114173714Y-107783714D01*
X114259428Y-107783714D01*
X114316571Y-107812285D01*
X114345142Y-107840857D01*
X114373714Y-107898000D01*
X114373714Y-108126571D01*
X114116571Y-107555142D02*
X114088000Y-107526571D01*
X114059428Y-107469428D01*
X114059428Y-107326571D01*
X114088000Y-107269428D01*
X114116571Y-107240857D01*
X114173714Y-107212285D01*
X114230857Y-107212285D01*
X114316571Y-107240857D01*
X114659428Y-107583714D01*
X114659428Y-107212285D01*
X114259428Y-106698000D02*
X114659428Y-106698000D01*
X114030857Y-106840857D02*
X114459428Y-106983714D01*
X114459428Y-106612285D01*
%TO.C,C47*%
X125072285Y-83987714D02*
X125100857Y-84016285D01*
X125129428Y-84102000D01*
X125129428Y-84159142D01*
X125100857Y-84244857D01*
X125043714Y-84302000D01*
X124986571Y-84330571D01*
X124872285Y-84359142D01*
X124786571Y-84359142D01*
X124672285Y-84330571D01*
X124615142Y-84302000D01*
X124558000Y-84244857D01*
X124529428Y-84159142D01*
X124529428Y-84102000D01*
X124558000Y-84016285D01*
X124586571Y-83987714D01*
X124729428Y-83473428D02*
X125129428Y-83473428D01*
X124500857Y-83616285D02*
X124929428Y-83759142D01*
X124929428Y-83387714D01*
X124529428Y-83216285D02*
X124529428Y-82816285D01*
X125129428Y-83073428D01*
D11*
%TO.C,R74*%
X111684753Y-145838782D02*
X111351420Y-145362592D01*
X111113325Y-145838782D02*
X111113325Y-144838782D01*
X111494277Y-144838782D01*
X111589515Y-144886402D01*
X111637134Y-144934021D01*
X111684753Y-145029259D01*
X111684753Y-145172116D01*
X111637134Y-145267354D01*
X111589515Y-145314973D01*
X111494277Y-145362592D01*
X111113325Y-145362592D01*
X112018087Y-144838782D02*
X112684753Y-144838782D01*
X112256182Y-145838782D01*
X113494277Y-145172116D02*
X113494277Y-145838782D01*
X113256182Y-144791163D02*
X113018087Y-145505449D01*
X113637134Y-145505449D01*
%TO.C,R109*%
X97538380Y-82850047D02*
X97062190Y-83183380D01*
X97538380Y-83421476D02*
X96538380Y-83421476D01*
X96538380Y-83040523D01*
X96586000Y-82945285D01*
X96633619Y-82897666D01*
X96728857Y-82850047D01*
X96871714Y-82850047D01*
X96966952Y-82897666D01*
X97014571Y-82945285D01*
X97062190Y-83040523D01*
X97062190Y-83421476D01*
X97538380Y-81897666D02*
X97538380Y-82469095D01*
X97538380Y-82183380D02*
X96538380Y-82183380D01*
X96681238Y-82278619D01*
X96776476Y-82373857D01*
X96824095Y-82469095D01*
X96538380Y-81278619D02*
X96538380Y-81183380D01*
X96586000Y-81088142D01*
X96633619Y-81040523D01*
X96728857Y-80992904D01*
X96919333Y-80945285D01*
X97157428Y-80945285D01*
X97347904Y-80992904D01*
X97443142Y-81040523D01*
X97490761Y-81088142D01*
X97538380Y-81183380D01*
X97538380Y-81278619D01*
X97490761Y-81373857D01*
X97443142Y-81421476D01*
X97347904Y-81469095D01*
X97157428Y-81516714D01*
X96919333Y-81516714D01*
X96728857Y-81469095D01*
X96633619Y-81421476D01*
X96586000Y-81373857D01*
X96538380Y-81278619D01*
X97538380Y-80469095D02*
X97538380Y-80278619D01*
X97490761Y-80183380D01*
X97443142Y-80135761D01*
X97300285Y-80040523D01*
X97109809Y-79992904D01*
X96728857Y-79992904D01*
X96633619Y-80040523D01*
X96586000Y-80088142D01*
X96538380Y-80183380D01*
X96538380Y-80373857D01*
X96586000Y-80469095D01*
X96633619Y-80516714D01*
X96728857Y-80564333D01*
X96966952Y-80564333D01*
X97062190Y-80516714D01*
X97109809Y-80469095D01*
X97157428Y-80373857D01*
X97157428Y-80183380D01*
X97109809Y-80088142D01*
X97062190Y-80040523D01*
X96966952Y-79992904D01*
D12*
%TO.C,U5*%
X121708857Y-97667428D02*
X121708857Y-98153142D01*
X121737428Y-98210285D01*
X121766000Y-98238857D01*
X121823142Y-98267428D01*
X121937428Y-98267428D01*
X121994571Y-98238857D01*
X122023142Y-98210285D01*
X122051714Y-98153142D01*
X122051714Y-97667428D01*
X122623142Y-97667428D02*
X122337428Y-97667428D01*
X122308857Y-97953142D01*
X122337428Y-97924571D01*
X122394571Y-97896000D01*
X122537428Y-97896000D01*
X122594571Y-97924571D01*
X122623142Y-97953142D01*
X122651714Y-98010285D01*
X122651714Y-98153142D01*
X122623142Y-98210285D01*
X122594571Y-98238857D01*
X122537428Y-98267428D01*
X122394571Y-98267428D01*
X122337428Y-98238857D01*
X122308857Y-98210285D01*
D11*
%TO.C,R1*%
X66233333Y-100048380D02*
X65900000Y-99572190D01*
X65661904Y-100048380D02*
X65661904Y-99048380D01*
X66042857Y-99048380D01*
X66138095Y-99096000D01*
X66185714Y-99143619D01*
X66233333Y-99238857D01*
X66233333Y-99381714D01*
X66185714Y-99476952D01*
X66138095Y-99524571D01*
X66042857Y-99572190D01*
X65661904Y-99572190D01*
X67185714Y-100048380D02*
X66614285Y-100048380D01*
X66900000Y-100048380D02*
X66900000Y-99048380D01*
X66804761Y-99191238D01*
X66709523Y-99286476D01*
X66614285Y-99334095D01*
D12*
%TO.C,R47*%
X121193428Y-83987714D02*
X120907714Y-84187714D01*
X121193428Y-84330571D02*
X120593428Y-84330571D01*
X120593428Y-84102000D01*
X120622000Y-84044857D01*
X120650571Y-84016285D01*
X120707714Y-83987714D01*
X120793428Y-83987714D01*
X120850571Y-84016285D01*
X120879142Y-84044857D01*
X120907714Y-84102000D01*
X120907714Y-84330571D01*
X120793428Y-83473428D02*
X121193428Y-83473428D01*
X120564857Y-83616285D02*
X120993428Y-83759142D01*
X120993428Y-83387714D01*
X120593428Y-83216285D02*
X120593428Y-82816285D01*
X121193428Y-83073428D01*
%TO.C,C70*%
X125156285Y-92996714D02*
X125184857Y-93025285D01*
X125213428Y-93111000D01*
X125213428Y-93168142D01*
X125184857Y-93253857D01*
X125127714Y-93311000D01*
X125070571Y-93339571D01*
X124956285Y-93368142D01*
X124870571Y-93368142D01*
X124756285Y-93339571D01*
X124699142Y-93311000D01*
X124642000Y-93253857D01*
X124613428Y-93168142D01*
X124613428Y-93111000D01*
X124642000Y-93025285D01*
X124670571Y-92996714D01*
X124613428Y-92796714D02*
X124613428Y-92396714D01*
X125213428Y-92653857D01*
X124613428Y-92053857D02*
X124613428Y-91996714D01*
X124642000Y-91939571D01*
X124670571Y-91911000D01*
X124727714Y-91882428D01*
X124842000Y-91853857D01*
X124984857Y-91853857D01*
X125099142Y-91882428D01*
X125156285Y-91911000D01*
X125184857Y-91939571D01*
X125213428Y-91996714D01*
X125213428Y-92053857D01*
X125184857Y-92111000D01*
X125156285Y-92139571D01*
X125099142Y-92168142D01*
X124984857Y-92196714D01*
X124842000Y-92196714D01*
X124727714Y-92168142D01*
X124670571Y-92139571D01*
X124642000Y-92111000D01*
X124613428Y-92053857D01*
D11*
%TO.C,Q26*%
X99891619Y-94214428D02*
X99844000Y-94309666D01*
X99748761Y-94404904D01*
X99605904Y-94547761D01*
X99558285Y-94643000D01*
X99558285Y-94738238D01*
X99796380Y-94690619D02*
X99748761Y-94785857D01*
X99653523Y-94881095D01*
X99463047Y-94928714D01*
X99129714Y-94928714D01*
X98939238Y-94881095D01*
X98844000Y-94785857D01*
X98796380Y-94690619D01*
X98796380Y-94500142D01*
X98844000Y-94404904D01*
X98939238Y-94309666D01*
X99129714Y-94262047D01*
X99463047Y-94262047D01*
X99653523Y-94309666D01*
X99748761Y-94404904D01*
X99796380Y-94500142D01*
X99796380Y-94690619D01*
X98891619Y-93881095D02*
X98844000Y-93833476D01*
X98796380Y-93738238D01*
X98796380Y-93500142D01*
X98844000Y-93404904D01*
X98891619Y-93357285D01*
X98986857Y-93309666D01*
X99082095Y-93309666D01*
X99224952Y-93357285D01*
X99796380Y-93928714D01*
X99796380Y-93309666D01*
X98796380Y-92452523D02*
X98796380Y-92643000D01*
X98844000Y-92738238D01*
X98891619Y-92785857D01*
X99034476Y-92881095D01*
X99224952Y-92928714D01*
X99605904Y-92928714D01*
X99701142Y-92881095D01*
X99748761Y-92833476D01*
X99796380Y-92738238D01*
X99796380Y-92547761D01*
X99748761Y-92452523D01*
X99701142Y-92404904D01*
X99605904Y-92357285D01*
X99367809Y-92357285D01*
X99272571Y-92404904D01*
X99224952Y-92452523D01*
X99177333Y-92547761D01*
X99177333Y-92738238D01*
X99224952Y-92833476D01*
X99272571Y-92881095D01*
X99367809Y-92928714D01*
%TO.C,C1*%
X71969142Y-99919666D02*
X72016761Y-99967285D01*
X72064380Y-100110142D01*
X72064380Y-100205380D01*
X72016761Y-100348238D01*
X71921523Y-100443476D01*
X71826285Y-100491095D01*
X71635809Y-100538714D01*
X71492952Y-100538714D01*
X71302476Y-100491095D01*
X71207238Y-100443476D01*
X71112000Y-100348238D01*
X71064380Y-100205380D01*
X71064380Y-100110142D01*
X71112000Y-99967285D01*
X71159619Y-99919666D01*
X72064380Y-98967285D02*
X72064380Y-99538714D01*
X72064380Y-99253000D02*
X71064380Y-99253000D01*
X71207238Y-99348238D01*
X71302476Y-99443476D01*
X71350095Y-99538714D01*
D12*
%TO.C,C23*%
X117568285Y-119110285D02*
X117539714Y-119138857D01*
X117454000Y-119167428D01*
X117396857Y-119167428D01*
X117311142Y-119138857D01*
X117254000Y-119081714D01*
X117225428Y-119024571D01*
X117196857Y-118910285D01*
X117196857Y-118824571D01*
X117225428Y-118710285D01*
X117254000Y-118653142D01*
X117311142Y-118596000D01*
X117396857Y-118567428D01*
X117454000Y-118567428D01*
X117539714Y-118596000D01*
X117568285Y-118624571D01*
X117796857Y-118624571D02*
X117825428Y-118596000D01*
X117882571Y-118567428D01*
X118025428Y-118567428D01*
X118082571Y-118596000D01*
X118111142Y-118624571D01*
X118139714Y-118681714D01*
X118139714Y-118738857D01*
X118111142Y-118824571D01*
X117768285Y-119167428D01*
X118139714Y-119167428D01*
X118339714Y-118567428D02*
X118711142Y-118567428D01*
X118511142Y-118796000D01*
X118596857Y-118796000D01*
X118654000Y-118824571D01*
X118682571Y-118853142D01*
X118711142Y-118910285D01*
X118711142Y-119053142D01*
X118682571Y-119110285D01*
X118654000Y-119138857D01*
X118596857Y-119167428D01*
X118425428Y-119167428D01*
X118368285Y-119138857D01*
X118339714Y-119110285D01*
%TO.C,R20*%
X126713428Y-101219714D02*
X126427714Y-101419714D01*
X126713428Y-101562571D02*
X126113428Y-101562571D01*
X126113428Y-101334000D01*
X126142000Y-101276857D01*
X126170571Y-101248285D01*
X126227714Y-101219714D01*
X126313428Y-101219714D01*
X126370571Y-101248285D01*
X126399142Y-101276857D01*
X126427714Y-101334000D01*
X126427714Y-101562571D01*
X126170571Y-100991142D02*
X126142000Y-100962571D01*
X126113428Y-100905428D01*
X126113428Y-100762571D01*
X126142000Y-100705428D01*
X126170571Y-100676857D01*
X126227714Y-100648285D01*
X126284857Y-100648285D01*
X126370571Y-100676857D01*
X126713428Y-101019714D01*
X126713428Y-100648285D01*
X126113428Y-100276857D02*
X126113428Y-100219714D01*
X126142000Y-100162571D01*
X126170571Y-100134000D01*
X126227714Y-100105428D01*
X126342000Y-100076857D01*
X126484857Y-100076857D01*
X126599142Y-100105428D01*
X126656285Y-100134000D01*
X126684857Y-100162571D01*
X126713428Y-100219714D01*
X126713428Y-100276857D01*
X126684857Y-100334000D01*
X126656285Y-100362571D01*
X126599142Y-100391142D01*
X126484857Y-100419714D01*
X126342000Y-100419714D01*
X126227714Y-100391142D01*
X126170571Y-100362571D01*
X126142000Y-100334000D01*
X126113428Y-100276857D01*
D11*
%TO.C,R64*%
X73586542Y-103372180D02*
X73253209Y-102895990D01*
X73015114Y-103372180D02*
X73015114Y-102372180D01*
X73396066Y-102372180D01*
X73491304Y-102419800D01*
X73538923Y-102467419D01*
X73586542Y-102562657D01*
X73586542Y-102705514D01*
X73538923Y-102800752D01*
X73491304Y-102848371D01*
X73396066Y-102895990D01*
X73015114Y-102895990D01*
X74443685Y-102372180D02*
X74253209Y-102372180D01*
X74157971Y-102419800D01*
X74110352Y-102467419D01*
X74015114Y-102610276D01*
X73967495Y-102800752D01*
X73967495Y-103181704D01*
X74015114Y-103276942D01*
X74062733Y-103324561D01*
X74157971Y-103372180D01*
X74348447Y-103372180D01*
X74443685Y-103324561D01*
X74491304Y-103276942D01*
X74538923Y-103181704D01*
X74538923Y-102943609D01*
X74491304Y-102848371D01*
X74443685Y-102800752D01*
X74348447Y-102753133D01*
X74157971Y-102753133D01*
X74062733Y-102800752D01*
X74015114Y-102848371D01*
X73967495Y-102943609D01*
X75396066Y-102705514D02*
X75396066Y-103372180D01*
X75157971Y-102324561D02*
X74919876Y-103038847D01*
X75538923Y-103038847D01*
D12*
%TO.C,Q15*%
X122627142Y-88738571D02*
X122570000Y-88710000D01*
X122512857Y-88652857D01*
X122427142Y-88567142D01*
X122370000Y-88538571D01*
X122312857Y-88538571D01*
X122341428Y-88681428D02*
X122284285Y-88652857D01*
X122227142Y-88595714D01*
X122198571Y-88481428D01*
X122198571Y-88281428D01*
X122227142Y-88167142D01*
X122284285Y-88110000D01*
X122341428Y-88081428D01*
X122455714Y-88081428D01*
X122512857Y-88110000D01*
X122570000Y-88167142D01*
X122598571Y-88281428D01*
X122598571Y-88481428D01*
X122570000Y-88595714D01*
X122512857Y-88652857D01*
X122455714Y-88681428D01*
X122341428Y-88681428D01*
X123170000Y-88681428D02*
X122827142Y-88681428D01*
X122998571Y-88681428D02*
X122998571Y-88081428D01*
X122941428Y-88167142D01*
X122884285Y-88224285D01*
X122827142Y-88252857D01*
X123712857Y-88081428D02*
X123427142Y-88081428D01*
X123398571Y-88367142D01*
X123427142Y-88338571D01*
X123484285Y-88310000D01*
X123627142Y-88310000D01*
X123684285Y-88338571D01*
X123712857Y-88367142D01*
X123741428Y-88424285D01*
X123741428Y-88567142D01*
X123712857Y-88624285D01*
X123684285Y-88652857D01*
X123627142Y-88681428D01*
X123484285Y-88681428D01*
X123427142Y-88652857D01*
X123398571Y-88624285D01*
%TO.C,R23*%
X112881428Y-107783714D02*
X112595714Y-107983714D01*
X112881428Y-108126571D02*
X112281428Y-108126571D01*
X112281428Y-107898000D01*
X112310000Y-107840857D01*
X112338571Y-107812285D01*
X112395714Y-107783714D01*
X112481428Y-107783714D01*
X112538571Y-107812285D01*
X112567142Y-107840857D01*
X112595714Y-107898000D01*
X112595714Y-108126571D01*
X112338571Y-107555142D02*
X112310000Y-107526571D01*
X112281428Y-107469428D01*
X112281428Y-107326571D01*
X112310000Y-107269428D01*
X112338571Y-107240857D01*
X112395714Y-107212285D01*
X112452857Y-107212285D01*
X112538571Y-107240857D01*
X112881428Y-107583714D01*
X112881428Y-107212285D01*
X112281428Y-107012285D02*
X112281428Y-106640857D01*
X112510000Y-106840857D01*
X112510000Y-106755142D01*
X112538571Y-106698000D01*
X112567142Y-106669428D01*
X112624285Y-106640857D01*
X112767142Y-106640857D01*
X112824285Y-106669428D01*
X112852857Y-106698000D01*
X112881428Y-106755142D01*
X112881428Y-106926571D01*
X112852857Y-106983714D01*
X112824285Y-107012285D01*
%TO.C,C19*%
X110448285Y-128607714D02*
X110476857Y-128636285D01*
X110505428Y-128722000D01*
X110505428Y-128779142D01*
X110476857Y-128864857D01*
X110419714Y-128922000D01*
X110362571Y-128950571D01*
X110248285Y-128979142D01*
X110162571Y-128979142D01*
X110048285Y-128950571D01*
X109991142Y-128922000D01*
X109934000Y-128864857D01*
X109905428Y-128779142D01*
X109905428Y-128722000D01*
X109934000Y-128636285D01*
X109962571Y-128607714D01*
X110505428Y-128036285D02*
X110505428Y-128379142D01*
X110505428Y-128207714D02*
X109905428Y-128207714D01*
X109991142Y-128264857D01*
X110048285Y-128322000D01*
X110076857Y-128379142D01*
X110505428Y-127750571D02*
X110505428Y-127636285D01*
X110476857Y-127579142D01*
X110448285Y-127550571D01*
X110362571Y-127493428D01*
X110248285Y-127464857D01*
X110019714Y-127464857D01*
X109962571Y-127493428D01*
X109934000Y-127522000D01*
X109905428Y-127579142D01*
X109905428Y-127693428D01*
X109934000Y-127750571D01*
X109962571Y-127779142D01*
X110019714Y-127807714D01*
X110162571Y-127807714D01*
X110219714Y-127779142D01*
X110248285Y-127750571D01*
X110276857Y-127693428D01*
X110276857Y-127579142D01*
X110248285Y-127522000D01*
X110219714Y-127493428D01*
X110162571Y-127464857D01*
%TO.C,C16*%
X126656285Y-105222294D02*
X126684857Y-105250865D01*
X126713428Y-105336580D01*
X126713428Y-105393722D01*
X126684857Y-105479437D01*
X126627714Y-105536580D01*
X126570571Y-105565151D01*
X126456285Y-105593722D01*
X126370571Y-105593722D01*
X126256285Y-105565151D01*
X126199142Y-105536580D01*
X126142000Y-105479437D01*
X126113428Y-105393722D01*
X126113428Y-105336580D01*
X126142000Y-105250865D01*
X126170571Y-105222294D01*
X126713428Y-104650865D02*
X126713428Y-104993722D01*
X126713428Y-104822294D02*
X126113428Y-104822294D01*
X126199142Y-104879437D01*
X126256285Y-104936580D01*
X126284857Y-104993722D01*
X126113428Y-104136580D02*
X126113428Y-104250865D01*
X126142000Y-104308008D01*
X126170571Y-104336580D01*
X126256285Y-104393722D01*
X126370571Y-104422294D01*
X126599142Y-104422294D01*
X126656285Y-104393722D01*
X126684857Y-104365151D01*
X126713428Y-104308008D01*
X126713428Y-104193722D01*
X126684857Y-104136580D01*
X126656285Y-104108008D01*
X126599142Y-104079437D01*
X126456285Y-104079437D01*
X126399142Y-104108008D01*
X126370571Y-104136580D01*
X126342000Y-104193722D01*
X126342000Y-104308008D01*
X126370571Y-104365151D01*
X126399142Y-104393722D01*
X126456285Y-104422294D01*
%TO.C,R85*%
X111099428Y-88555714D02*
X110813714Y-88755714D01*
X111099428Y-88898571D02*
X110499428Y-88898571D01*
X110499428Y-88670000D01*
X110528000Y-88612857D01*
X110556571Y-88584285D01*
X110613714Y-88555714D01*
X110699428Y-88555714D01*
X110756571Y-88584285D01*
X110785142Y-88612857D01*
X110813714Y-88670000D01*
X110813714Y-88898571D01*
X110756571Y-88212857D02*
X110728000Y-88270000D01*
X110699428Y-88298571D01*
X110642285Y-88327142D01*
X110613714Y-88327142D01*
X110556571Y-88298571D01*
X110528000Y-88270000D01*
X110499428Y-88212857D01*
X110499428Y-88098571D01*
X110528000Y-88041428D01*
X110556571Y-88012857D01*
X110613714Y-87984285D01*
X110642285Y-87984285D01*
X110699428Y-88012857D01*
X110728000Y-88041428D01*
X110756571Y-88098571D01*
X110756571Y-88212857D01*
X110785142Y-88270000D01*
X110813714Y-88298571D01*
X110870857Y-88327142D01*
X110985142Y-88327142D01*
X111042285Y-88298571D01*
X111070857Y-88270000D01*
X111099428Y-88212857D01*
X111099428Y-88098571D01*
X111070857Y-88041428D01*
X111042285Y-88012857D01*
X110985142Y-87984285D01*
X110870857Y-87984285D01*
X110813714Y-88012857D01*
X110785142Y-88041428D01*
X110756571Y-88098571D01*
X110499428Y-87441428D02*
X110499428Y-87727142D01*
X110785142Y-87755714D01*
X110756571Y-87727142D01*
X110728000Y-87670000D01*
X110728000Y-87527142D01*
X110756571Y-87470000D01*
X110785142Y-87441428D01*
X110842285Y-87412857D01*
X110985142Y-87412857D01*
X111042285Y-87441428D01*
X111070857Y-87470000D01*
X111099428Y-87527142D01*
X111099428Y-87670000D01*
X111070857Y-87727142D01*
X111042285Y-87755714D01*
%TO.C,C17*%
X107798285Y-122060285D02*
X107769714Y-122088857D01*
X107684000Y-122117428D01*
X107626857Y-122117428D01*
X107541142Y-122088857D01*
X107484000Y-122031714D01*
X107455428Y-121974571D01*
X107426857Y-121860285D01*
X107426857Y-121774571D01*
X107455428Y-121660285D01*
X107484000Y-121603142D01*
X107541142Y-121546000D01*
X107626857Y-121517428D01*
X107684000Y-121517428D01*
X107769714Y-121546000D01*
X107798285Y-121574571D01*
X108369714Y-122117428D02*
X108026857Y-122117428D01*
X108198285Y-122117428D02*
X108198285Y-121517428D01*
X108141142Y-121603142D01*
X108084000Y-121660285D01*
X108026857Y-121688857D01*
X108569714Y-121517428D02*
X108969714Y-121517428D01*
X108712571Y-122117428D01*
D11*
%TO.C,R89*%
X108001142Y-86479380D02*
X107667809Y-86003190D01*
X107429714Y-86479380D02*
X107429714Y-85479380D01*
X107810666Y-85479380D01*
X107905904Y-85527000D01*
X107953523Y-85574619D01*
X108001142Y-85669857D01*
X108001142Y-85812714D01*
X107953523Y-85907952D01*
X107905904Y-85955571D01*
X107810666Y-86003190D01*
X107429714Y-86003190D01*
X108572571Y-85907952D02*
X108477333Y-85860333D01*
X108429714Y-85812714D01*
X108382095Y-85717476D01*
X108382095Y-85669857D01*
X108429714Y-85574619D01*
X108477333Y-85527000D01*
X108572571Y-85479380D01*
X108763047Y-85479380D01*
X108858285Y-85527000D01*
X108905904Y-85574619D01*
X108953523Y-85669857D01*
X108953523Y-85717476D01*
X108905904Y-85812714D01*
X108858285Y-85860333D01*
X108763047Y-85907952D01*
X108572571Y-85907952D01*
X108477333Y-85955571D01*
X108429714Y-86003190D01*
X108382095Y-86098428D01*
X108382095Y-86288904D01*
X108429714Y-86384142D01*
X108477333Y-86431761D01*
X108572571Y-86479380D01*
X108763047Y-86479380D01*
X108858285Y-86431761D01*
X108905904Y-86384142D01*
X108953523Y-86288904D01*
X108953523Y-86098428D01*
X108905904Y-86003190D01*
X108858285Y-85955571D01*
X108763047Y-85907952D01*
X109429714Y-86479380D02*
X109620190Y-86479380D01*
X109715428Y-86431761D01*
X109763047Y-86384142D01*
X109858285Y-86241285D01*
X109905904Y-86050809D01*
X109905904Y-85669857D01*
X109858285Y-85574619D01*
X109810666Y-85527000D01*
X109715428Y-85479380D01*
X109524952Y-85479380D01*
X109429714Y-85527000D01*
X109382095Y-85574619D01*
X109334476Y-85669857D01*
X109334476Y-85907952D01*
X109382095Y-86003190D01*
X109429714Y-86050809D01*
X109524952Y-86098428D01*
X109715428Y-86098428D01*
X109810666Y-86050809D01*
X109858285Y-86003190D01*
X109905904Y-85907952D01*
%TO.C,R101*%
X103131952Y-94600380D02*
X102798619Y-94124190D01*
X102560523Y-94600380D02*
X102560523Y-93600380D01*
X102941476Y-93600380D01*
X103036714Y-93648000D01*
X103084333Y-93695619D01*
X103131952Y-93790857D01*
X103131952Y-93933714D01*
X103084333Y-94028952D01*
X103036714Y-94076571D01*
X102941476Y-94124190D01*
X102560523Y-94124190D01*
X104084333Y-94600380D02*
X103512904Y-94600380D01*
X103798619Y-94600380D02*
X103798619Y-93600380D01*
X103703380Y-93743238D01*
X103608142Y-93838476D01*
X103512904Y-93886095D01*
X104703380Y-93600380D02*
X104798619Y-93600380D01*
X104893857Y-93648000D01*
X104941476Y-93695619D01*
X104989095Y-93790857D01*
X105036714Y-93981333D01*
X105036714Y-94219428D01*
X104989095Y-94409904D01*
X104941476Y-94505142D01*
X104893857Y-94552761D01*
X104798619Y-94600380D01*
X104703380Y-94600380D01*
X104608142Y-94552761D01*
X104560523Y-94505142D01*
X104512904Y-94409904D01*
X104465285Y-94219428D01*
X104465285Y-93981333D01*
X104512904Y-93790857D01*
X104560523Y-93695619D01*
X104608142Y-93648000D01*
X104703380Y-93600380D01*
X105989095Y-94600380D02*
X105417666Y-94600380D01*
X105703380Y-94600380D02*
X105703380Y-93600380D01*
X105608142Y-93743238D01*
X105512904Y-93838476D01*
X105417666Y-93886095D01*
D12*
%TO.C,R87*%
X114037428Y-92996714D02*
X113751714Y-93196714D01*
X114037428Y-93339571D02*
X113437428Y-93339571D01*
X113437428Y-93111000D01*
X113466000Y-93053857D01*
X113494571Y-93025285D01*
X113551714Y-92996714D01*
X113637428Y-92996714D01*
X113694571Y-93025285D01*
X113723142Y-93053857D01*
X113751714Y-93111000D01*
X113751714Y-93339571D01*
X113694571Y-92653857D02*
X113666000Y-92711000D01*
X113637428Y-92739571D01*
X113580285Y-92768142D01*
X113551714Y-92768142D01*
X113494571Y-92739571D01*
X113466000Y-92711000D01*
X113437428Y-92653857D01*
X113437428Y-92539571D01*
X113466000Y-92482428D01*
X113494571Y-92453857D01*
X113551714Y-92425285D01*
X113580285Y-92425285D01*
X113637428Y-92453857D01*
X113666000Y-92482428D01*
X113694571Y-92539571D01*
X113694571Y-92653857D01*
X113723142Y-92711000D01*
X113751714Y-92739571D01*
X113808857Y-92768142D01*
X113923142Y-92768142D01*
X113980285Y-92739571D01*
X114008857Y-92711000D01*
X114037428Y-92653857D01*
X114037428Y-92539571D01*
X114008857Y-92482428D01*
X113980285Y-92453857D01*
X113923142Y-92425285D01*
X113808857Y-92425285D01*
X113751714Y-92453857D01*
X113723142Y-92482428D01*
X113694571Y-92539571D01*
X113437428Y-92225285D02*
X113437428Y-91825285D01*
X114037428Y-92082428D01*
D11*
%TO.C,R2*%
X66233333Y-101572380D02*
X65900000Y-101096190D01*
X65661904Y-101572380D02*
X65661904Y-100572380D01*
X66042857Y-100572380D01*
X66138095Y-100620000D01*
X66185714Y-100667619D01*
X66233333Y-100762857D01*
X66233333Y-100905714D01*
X66185714Y-101000952D01*
X66138095Y-101048571D01*
X66042857Y-101096190D01*
X65661904Y-101096190D01*
X66614285Y-100667619D02*
X66661904Y-100620000D01*
X66757142Y-100572380D01*
X66995238Y-100572380D01*
X67090476Y-100620000D01*
X67138095Y-100667619D01*
X67185714Y-100762857D01*
X67185714Y-100858095D01*
X67138095Y-101000952D01*
X66566666Y-101572380D01*
X67185714Y-101572380D01*
D12*
%TO.C,R48*%
X115421428Y-83983714D02*
X115135714Y-84183714D01*
X115421428Y-84326571D02*
X114821428Y-84326571D01*
X114821428Y-84098000D01*
X114850000Y-84040857D01*
X114878571Y-84012285D01*
X114935714Y-83983714D01*
X115021428Y-83983714D01*
X115078571Y-84012285D01*
X115107142Y-84040857D01*
X115135714Y-84098000D01*
X115135714Y-84326571D01*
X115021428Y-83469428D02*
X115421428Y-83469428D01*
X114792857Y-83612285D02*
X115221428Y-83755142D01*
X115221428Y-83383714D01*
X115078571Y-83069428D02*
X115050000Y-83126571D01*
X115021428Y-83155142D01*
X114964285Y-83183714D01*
X114935714Y-83183714D01*
X114878571Y-83155142D01*
X114850000Y-83126571D01*
X114821428Y-83069428D01*
X114821428Y-82955142D01*
X114850000Y-82898000D01*
X114878571Y-82869428D01*
X114935714Y-82840857D01*
X114964285Y-82840857D01*
X115021428Y-82869428D01*
X115050000Y-82898000D01*
X115078571Y-82955142D01*
X115078571Y-83069428D01*
X115107142Y-83126571D01*
X115135714Y-83155142D01*
X115192857Y-83183714D01*
X115307142Y-83183714D01*
X115364285Y-83155142D01*
X115392857Y-83126571D01*
X115421428Y-83069428D01*
X115421428Y-82955142D01*
X115392857Y-82898000D01*
X115364285Y-82869428D01*
X115307142Y-82840857D01*
X115192857Y-82840857D01*
X115135714Y-82869428D01*
X115107142Y-82898000D01*
X115078571Y-82955142D01*
%TO.C,R22*%
X116687428Y-107783714D02*
X116401714Y-107983714D01*
X116687428Y-108126571D02*
X116087428Y-108126571D01*
X116087428Y-107898000D01*
X116116000Y-107840857D01*
X116144571Y-107812285D01*
X116201714Y-107783714D01*
X116287428Y-107783714D01*
X116344571Y-107812285D01*
X116373142Y-107840857D01*
X116401714Y-107898000D01*
X116401714Y-108126571D01*
X116144571Y-107555142D02*
X116116000Y-107526571D01*
X116087428Y-107469428D01*
X116087428Y-107326571D01*
X116116000Y-107269428D01*
X116144571Y-107240857D01*
X116201714Y-107212285D01*
X116258857Y-107212285D01*
X116344571Y-107240857D01*
X116687428Y-107583714D01*
X116687428Y-107212285D01*
X116144571Y-106983714D02*
X116116000Y-106955142D01*
X116087428Y-106898000D01*
X116087428Y-106755142D01*
X116116000Y-106698000D01*
X116144571Y-106669428D01*
X116201714Y-106640857D01*
X116258857Y-106640857D01*
X116344571Y-106669428D01*
X116687428Y-107012285D01*
X116687428Y-106640857D01*
%TO.C,C28*%
X124256285Y-111162285D02*
X124227714Y-111190857D01*
X124142000Y-111219428D01*
X124084857Y-111219428D01*
X123999142Y-111190857D01*
X123942000Y-111133714D01*
X123913428Y-111076571D01*
X123884857Y-110962285D01*
X123884857Y-110876571D01*
X123913428Y-110762285D01*
X123942000Y-110705142D01*
X123999142Y-110648000D01*
X124084857Y-110619428D01*
X124142000Y-110619428D01*
X124227714Y-110648000D01*
X124256285Y-110676571D01*
X124484857Y-110676571D02*
X124513428Y-110648000D01*
X124570571Y-110619428D01*
X124713428Y-110619428D01*
X124770571Y-110648000D01*
X124799142Y-110676571D01*
X124827714Y-110733714D01*
X124827714Y-110790857D01*
X124799142Y-110876571D01*
X124456285Y-111219428D01*
X124827714Y-111219428D01*
X125170571Y-110876571D02*
X125113428Y-110848000D01*
X125084857Y-110819428D01*
X125056285Y-110762285D01*
X125056285Y-110733714D01*
X125084857Y-110676571D01*
X125113428Y-110648000D01*
X125170571Y-110619428D01*
X125284857Y-110619428D01*
X125342000Y-110648000D01*
X125370571Y-110676571D01*
X125399142Y-110733714D01*
X125399142Y-110762285D01*
X125370571Y-110819428D01*
X125342000Y-110848000D01*
X125284857Y-110876571D01*
X125170571Y-110876571D01*
X125113428Y-110905142D01*
X125084857Y-110933714D01*
X125056285Y-110990857D01*
X125056285Y-111105142D01*
X125084857Y-111162285D01*
X125113428Y-111190857D01*
X125170571Y-111219428D01*
X125284857Y-111219428D01*
X125342000Y-111190857D01*
X125370571Y-111162285D01*
X125399142Y-111105142D01*
X125399142Y-110990857D01*
X125370571Y-110933714D01*
X125342000Y-110905142D01*
X125284857Y-110876571D01*
D11*
%TO.C,R27*%
X44268580Y-83719657D02*
X43792390Y-84052990D01*
X44268580Y-84291085D02*
X43268580Y-84291085D01*
X43268580Y-83910133D01*
X43316200Y-83814895D01*
X43363819Y-83767276D01*
X43459057Y-83719657D01*
X43601914Y-83719657D01*
X43697152Y-83767276D01*
X43744771Y-83814895D01*
X43792390Y-83910133D01*
X43792390Y-84291085D01*
X43363819Y-83338704D02*
X43316200Y-83291085D01*
X43268580Y-83195847D01*
X43268580Y-82957752D01*
X43316200Y-82862514D01*
X43363819Y-82814895D01*
X43459057Y-82767276D01*
X43554295Y-82767276D01*
X43697152Y-82814895D01*
X44268580Y-83386323D01*
X44268580Y-82767276D01*
X43268580Y-82433942D02*
X43268580Y-81767276D01*
X44268580Y-82195847D01*
D12*
%TO.C,U3*%
X112008857Y-127339428D02*
X112008857Y-127825142D01*
X112037428Y-127882285D01*
X112066000Y-127910857D01*
X112123142Y-127939428D01*
X112237428Y-127939428D01*
X112294571Y-127910857D01*
X112323142Y-127882285D01*
X112351714Y-127825142D01*
X112351714Y-127339428D01*
X112580285Y-127339428D02*
X112951714Y-127339428D01*
X112751714Y-127568000D01*
X112837428Y-127568000D01*
X112894571Y-127596571D01*
X112923142Y-127625142D01*
X112951714Y-127682285D01*
X112951714Y-127825142D01*
X112923142Y-127882285D01*
X112894571Y-127910857D01*
X112837428Y-127939428D01*
X112666000Y-127939428D01*
X112608857Y-127910857D01*
X112580285Y-127882285D01*
D13*
X111937192Y-122863357D02*
X112421001Y-122863357D01*
X112148859Y-123105261D02*
X112209335Y-122621452D01*
X112632668Y-123105261D02*
X113018204Y-122681928D01*
X112685585Y-122681928D02*
X112965287Y-123105261D01*
X116337192Y-122963357D02*
X116821001Y-122963357D01*
X116548859Y-123205261D02*
X116609335Y-122721452D01*
X117085585Y-122781928D02*
X117418204Y-122781928D01*
X117032668Y-123205261D01*
X117365287Y-123205261D01*
X116020642Y-125504311D02*
X116020642Y-125988120D01*
X115778738Y-125715978D02*
X116262547Y-125776454D01*
X116202071Y-126252704D02*
X115778738Y-126350978D01*
X116202071Y-126555085D02*
X115778738Y-126350978D01*
X115627547Y-126271603D01*
X115597309Y-126237585D01*
X115567071Y-126173329D01*
D11*
%TO.C,R44*%
X108013142Y-84597380D02*
X107679809Y-84121190D01*
X107441714Y-84597380D02*
X107441714Y-83597380D01*
X107822666Y-83597380D01*
X107917904Y-83645000D01*
X107965523Y-83692619D01*
X108013142Y-83787857D01*
X108013142Y-83930714D01*
X107965523Y-84025952D01*
X107917904Y-84073571D01*
X107822666Y-84121190D01*
X107441714Y-84121190D01*
X108870285Y-83930714D02*
X108870285Y-84597380D01*
X108632190Y-83549761D02*
X108394095Y-84264047D01*
X109013142Y-84264047D01*
X109822666Y-83930714D02*
X109822666Y-84597380D01*
X109584571Y-83549761D02*
X109346476Y-84264047D01*
X109965523Y-84264047D01*
D12*
%TO.C,U7*%
X115779428Y-118519142D02*
X116265142Y-118519142D01*
X116322285Y-118490571D01*
X116350857Y-118462000D01*
X116379428Y-118404857D01*
X116379428Y-118290571D01*
X116350857Y-118233428D01*
X116322285Y-118204857D01*
X116265142Y-118176285D01*
X115779428Y-118176285D01*
X115779428Y-117947714D02*
X115779428Y-117547714D01*
X116379428Y-117804857D01*
D13*
X117053357Y-119040807D02*
X117053357Y-118556998D01*
X116871928Y-118292414D02*
X116871928Y-117959795D01*
X117295261Y-118345331D01*
X117295261Y-118012712D01*
X117779192Y-117857357D02*
X118263001Y-117857357D01*
X117990859Y-118099261D02*
X118051335Y-117615452D01*
X118474668Y-118099261D02*
X118860204Y-117675928D01*
X118527585Y-117675928D02*
X118807287Y-118099261D01*
X116853357Y-116825688D02*
X116853357Y-116341879D01*
X117095261Y-116614021D02*
X116611452Y-116553545D01*
X116671928Y-116077295D02*
X117095261Y-115979021D01*
X116671928Y-115774914D02*
X117095261Y-115979021D01*
X117246452Y-116058396D01*
X117276690Y-116092414D01*
X117306928Y-116156670D01*
D12*
%TO.C,R49*%
X112373428Y-83983714D02*
X112087714Y-84183714D01*
X112373428Y-84326571D02*
X111773428Y-84326571D01*
X111773428Y-84098000D01*
X111802000Y-84040857D01*
X111830571Y-84012285D01*
X111887714Y-83983714D01*
X111973428Y-83983714D01*
X112030571Y-84012285D01*
X112059142Y-84040857D01*
X112087714Y-84098000D01*
X112087714Y-84326571D01*
X111973428Y-83469428D02*
X112373428Y-83469428D01*
X111744857Y-83612285D02*
X112173428Y-83755142D01*
X112173428Y-83383714D01*
X112373428Y-83126571D02*
X112373428Y-83012285D01*
X112344857Y-82955142D01*
X112316285Y-82926571D01*
X112230571Y-82869428D01*
X112116285Y-82840857D01*
X111887714Y-82840857D01*
X111830571Y-82869428D01*
X111802000Y-82898000D01*
X111773428Y-82955142D01*
X111773428Y-83069428D01*
X111802000Y-83126571D01*
X111830571Y-83155142D01*
X111887714Y-83183714D01*
X112030571Y-83183714D01*
X112087714Y-83155142D01*
X112116285Y-83126571D01*
X112144857Y-83069428D01*
X112144857Y-82955142D01*
X112116285Y-82898000D01*
X112087714Y-82869428D01*
X112030571Y-82840857D01*
%TO.C,R18*%
X113021428Y-98719714D02*
X112735714Y-98919714D01*
X113021428Y-99062571D02*
X112421428Y-99062571D01*
X112421428Y-98834000D01*
X112450000Y-98776857D01*
X112478571Y-98748285D01*
X112535714Y-98719714D01*
X112621428Y-98719714D01*
X112678571Y-98748285D01*
X112707142Y-98776857D01*
X112735714Y-98834000D01*
X112735714Y-99062571D01*
X113021428Y-98148285D02*
X113021428Y-98491142D01*
X113021428Y-98319714D02*
X112421428Y-98319714D01*
X112507142Y-98376857D01*
X112564285Y-98434000D01*
X112592857Y-98491142D01*
X112678571Y-97805428D02*
X112650000Y-97862571D01*
X112621428Y-97891142D01*
X112564285Y-97919714D01*
X112535714Y-97919714D01*
X112478571Y-97891142D01*
X112450000Y-97862571D01*
X112421428Y-97805428D01*
X112421428Y-97691142D01*
X112450000Y-97634000D01*
X112478571Y-97605428D01*
X112535714Y-97576857D01*
X112564285Y-97576857D01*
X112621428Y-97605428D01*
X112650000Y-97634000D01*
X112678571Y-97691142D01*
X112678571Y-97805428D01*
X112707142Y-97862571D01*
X112735714Y-97891142D01*
X112792857Y-97919714D01*
X112907142Y-97919714D01*
X112964285Y-97891142D01*
X112992857Y-97862571D01*
X113021428Y-97805428D01*
X113021428Y-97691142D01*
X112992857Y-97634000D01*
X112964285Y-97605428D01*
X112907142Y-97576857D01*
X112792857Y-97576857D01*
X112735714Y-97605428D01*
X112707142Y-97634000D01*
X112678571Y-97691142D01*
%TO.C,R78*%
X115421428Y-92996714D02*
X115135714Y-93196714D01*
X115421428Y-93339571D02*
X114821428Y-93339571D01*
X114821428Y-93111000D01*
X114850000Y-93053857D01*
X114878571Y-93025285D01*
X114935714Y-92996714D01*
X115021428Y-92996714D01*
X115078571Y-93025285D01*
X115107142Y-93053857D01*
X115135714Y-93111000D01*
X115135714Y-93339571D01*
X114821428Y-92796714D02*
X114821428Y-92396714D01*
X115421428Y-92653857D01*
X115078571Y-92082428D02*
X115050000Y-92139571D01*
X115021428Y-92168142D01*
X114964285Y-92196714D01*
X114935714Y-92196714D01*
X114878571Y-92168142D01*
X114850000Y-92139571D01*
X114821428Y-92082428D01*
X114821428Y-91968142D01*
X114850000Y-91911000D01*
X114878571Y-91882428D01*
X114935714Y-91853857D01*
X114964285Y-91853857D01*
X115021428Y-91882428D01*
X115050000Y-91911000D01*
X115078571Y-91968142D01*
X115078571Y-92082428D01*
X115107142Y-92139571D01*
X115135714Y-92168142D01*
X115192857Y-92196714D01*
X115307142Y-92196714D01*
X115364285Y-92168142D01*
X115392857Y-92139571D01*
X115421428Y-92082428D01*
X115421428Y-91968142D01*
X115392857Y-91911000D01*
X115364285Y-91882428D01*
X115307142Y-91853857D01*
X115192857Y-91853857D01*
X115135714Y-91882428D01*
X115107142Y-91911000D01*
X115078571Y-91968142D01*
%TO.C,R55*%
X111099428Y-78411714D02*
X110813714Y-78611714D01*
X111099428Y-78754571D02*
X110499428Y-78754571D01*
X110499428Y-78526000D01*
X110528000Y-78468857D01*
X110556571Y-78440285D01*
X110613714Y-78411714D01*
X110699428Y-78411714D01*
X110756571Y-78440285D01*
X110785142Y-78468857D01*
X110813714Y-78526000D01*
X110813714Y-78754571D01*
X110499428Y-77868857D02*
X110499428Y-78154571D01*
X110785142Y-78183142D01*
X110756571Y-78154571D01*
X110728000Y-78097428D01*
X110728000Y-77954571D01*
X110756571Y-77897428D01*
X110785142Y-77868857D01*
X110842285Y-77840285D01*
X110985142Y-77840285D01*
X111042285Y-77868857D01*
X111070857Y-77897428D01*
X111099428Y-77954571D01*
X111099428Y-78097428D01*
X111070857Y-78154571D01*
X111042285Y-78183142D01*
X110499428Y-77297428D02*
X110499428Y-77583142D01*
X110785142Y-77611714D01*
X110756571Y-77583142D01*
X110728000Y-77526000D01*
X110728000Y-77383142D01*
X110756571Y-77326000D01*
X110785142Y-77297428D01*
X110842285Y-77268857D01*
X110985142Y-77268857D01*
X111042285Y-77297428D01*
X111070857Y-77326000D01*
X111099428Y-77383142D01*
X111099428Y-77526000D01*
X111070857Y-77583142D01*
X111042285Y-77611714D01*
%TO.C,C48*%
X125156285Y-78411714D02*
X125184857Y-78440285D01*
X125213428Y-78526000D01*
X125213428Y-78583142D01*
X125184857Y-78668857D01*
X125127714Y-78726000D01*
X125070571Y-78754571D01*
X124956285Y-78783142D01*
X124870571Y-78783142D01*
X124756285Y-78754571D01*
X124699142Y-78726000D01*
X124642000Y-78668857D01*
X124613428Y-78583142D01*
X124613428Y-78526000D01*
X124642000Y-78440285D01*
X124670571Y-78411714D01*
X124813428Y-77897428D02*
X125213428Y-77897428D01*
X124584857Y-78040285D02*
X125013428Y-78183142D01*
X125013428Y-77811714D01*
X124870571Y-77497428D02*
X124842000Y-77554571D01*
X124813428Y-77583142D01*
X124756285Y-77611714D01*
X124727714Y-77611714D01*
X124670571Y-77583142D01*
X124642000Y-77554571D01*
X124613428Y-77497428D01*
X124613428Y-77383142D01*
X124642000Y-77326000D01*
X124670571Y-77297428D01*
X124727714Y-77268857D01*
X124756285Y-77268857D01*
X124813428Y-77297428D01*
X124842000Y-77326000D01*
X124870571Y-77383142D01*
X124870571Y-77497428D01*
X124899142Y-77554571D01*
X124927714Y-77583142D01*
X124984857Y-77611714D01*
X125099142Y-77611714D01*
X125156285Y-77583142D01*
X125184857Y-77554571D01*
X125213428Y-77497428D01*
X125213428Y-77383142D01*
X125184857Y-77326000D01*
X125156285Y-77297428D01*
X125099142Y-77268857D01*
X124984857Y-77268857D01*
X124927714Y-77297428D01*
X124899142Y-77326000D01*
X124870571Y-77383142D01*
D11*
%TO.C,J5*%
X108861666Y-163325382D02*
X108861666Y-164039668D01*
X108814047Y-164182525D01*
X108718809Y-164277763D01*
X108575952Y-164325382D01*
X108480714Y-164325382D01*
X109814047Y-163325382D02*
X109337857Y-163325382D01*
X109290238Y-163801573D01*
X109337857Y-163753954D01*
X109433095Y-163706335D01*
X109671190Y-163706335D01*
X109766428Y-163753954D01*
X109814047Y-163801573D01*
X109861666Y-163896811D01*
X109861666Y-164134906D01*
X109814047Y-164230144D01*
X109766428Y-164277763D01*
X109671190Y-164325382D01*
X109433095Y-164325382D01*
X109337857Y-164277763D01*
X109290238Y-164230144D01*
%TO.C,R25*%
X42542580Y-100492257D02*
X42066390Y-100825590D01*
X42542580Y-101063685D02*
X41542580Y-101063685D01*
X41542580Y-100682733D01*
X41590200Y-100587495D01*
X41637819Y-100539876D01*
X41733057Y-100492257D01*
X41875914Y-100492257D01*
X41971152Y-100539876D01*
X42018771Y-100587495D01*
X42066390Y-100682733D01*
X42066390Y-101063685D01*
X41637819Y-100111304D02*
X41590200Y-100063685D01*
X41542580Y-99968447D01*
X41542580Y-99730352D01*
X41590200Y-99635114D01*
X41637819Y-99587495D01*
X41733057Y-99539876D01*
X41828295Y-99539876D01*
X41971152Y-99587495D01*
X42542580Y-100158923D01*
X42542580Y-99539876D01*
X41542580Y-98635114D02*
X41542580Y-99111304D01*
X42018771Y-99158923D01*
X41971152Y-99111304D01*
X41923533Y-99016066D01*
X41923533Y-98777971D01*
X41971152Y-98682733D01*
X42018771Y-98635114D01*
X42114009Y-98587495D01*
X42352104Y-98587495D01*
X42447342Y-98635114D01*
X42494961Y-98682733D01*
X42542580Y-98777971D01*
X42542580Y-99016066D01*
X42494961Y-99111304D01*
X42447342Y-99158923D01*
D12*
%TO.C,C21*%
X114350285Y-120950285D02*
X114321714Y-120978857D01*
X114236000Y-121007428D01*
X114178857Y-121007428D01*
X114093142Y-120978857D01*
X114036000Y-120921714D01*
X114007428Y-120864571D01*
X113978857Y-120750285D01*
X113978857Y-120664571D01*
X114007428Y-120550285D01*
X114036000Y-120493142D01*
X114093142Y-120436000D01*
X114178857Y-120407428D01*
X114236000Y-120407428D01*
X114321714Y-120436000D01*
X114350285Y-120464571D01*
X114578857Y-120464571D02*
X114607428Y-120436000D01*
X114664571Y-120407428D01*
X114807428Y-120407428D01*
X114864571Y-120436000D01*
X114893142Y-120464571D01*
X114921714Y-120521714D01*
X114921714Y-120578857D01*
X114893142Y-120664571D01*
X114550285Y-121007428D01*
X114921714Y-121007428D01*
X115493142Y-121007428D02*
X115150285Y-121007428D01*
X115321714Y-121007428D02*
X115321714Y-120407428D01*
X115264571Y-120493142D01*
X115207428Y-120550285D01*
X115150285Y-120578857D01*
%TO.C,C14*%
X107794285Y-120028285D02*
X107765714Y-120056857D01*
X107680000Y-120085428D01*
X107622857Y-120085428D01*
X107537142Y-120056857D01*
X107480000Y-119999714D01*
X107451428Y-119942571D01*
X107422857Y-119828285D01*
X107422857Y-119742571D01*
X107451428Y-119628285D01*
X107480000Y-119571142D01*
X107537142Y-119514000D01*
X107622857Y-119485428D01*
X107680000Y-119485428D01*
X107765714Y-119514000D01*
X107794285Y-119542571D01*
X108365714Y-120085428D02*
X108022857Y-120085428D01*
X108194285Y-120085428D02*
X108194285Y-119485428D01*
X108137142Y-119571142D01*
X108080000Y-119628285D01*
X108022857Y-119656857D01*
X108880000Y-119685428D02*
X108880000Y-120085428D01*
X108737142Y-119456857D02*
X108594285Y-119885428D01*
X108965714Y-119885428D01*
%TO.C,C27*%
X124006285Y-121318285D02*
X123977714Y-121346857D01*
X123892000Y-121375428D01*
X123834857Y-121375428D01*
X123749142Y-121346857D01*
X123692000Y-121289714D01*
X123663428Y-121232571D01*
X123634857Y-121118285D01*
X123634857Y-121032571D01*
X123663428Y-120918285D01*
X123692000Y-120861142D01*
X123749142Y-120804000D01*
X123834857Y-120775428D01*
X123892000Y-120775428D01*
X123977714Y-120804000D01*
X124006285Y-120832571D01*
X124234857Y-120832571D02*
X124263428Y-120804000D01*
X124320571Y-120775428D01*
X124463428Y-120775428D01*
X124520571Y-120804000D01*
X124549142Y-120832571D01*
X124577714Y-120889714D01*
X124577714Y-120946857D01*
X124549142Y-121032571D01*
X124206285Y-121375428D01*
X124577714Y-121375428D01*
X124777714Y-120775428D02*
X125177714Y-120775428D01*
X124920571Y-121375428D01*
D11*
%TO.C,R66*%
X108919544Y-141922769D02*
X108586211Y-141446579D01*
X108348116Y-141922769D02*
X108348116Y-140922769D01*
X108729068Y-140922769D01*
X108824306Y-140970389D01*
X108871925Y-141018008D01*
X108919544Y-141113246D01*
X108919544Y-141256103D01*
X108871925Y-141351341D01*
X108824306Y-141398960D01*
X108729068Y-141446579D01*
X108348116Y-141446579D01*
X109776687Y-140922769D02*
X109586211Y-140922769D01*
X109490973Y-140970389D01*
X109443354Y-141018008D01*
X109348116Y-141160865D01*
X109300497Y-141351341D01*
X109300497Y-141732293D01*
X109348116Y-141827531D01*
X109395735Y-141875150D01*
X109490973Y-141922769D01*
X109681449Y-141922769D01*
X109776687Y-141875150D01*
X109824306Y-141827531D01*
X109871925Y-141732293D01*
X109871925Y-141494198D01*
X109824306Y-141398960D01*
X109776687Y-141351341D01*
X109681449Y-141303722D01*
X109490973Y-141303722D01*
X109395735Y-141351341D01*
X109348116Y-141398960D01*
X109300497Y-141494198D01*
X110729068Y-140922769D02*
X110538592Y-140922769D01*
X110443354Y-140970389D01*
X110395735Y-141018008D01*
X110300497Y-141160865D01*
X110252878Y-141351341D01*
X110252878Y-141732293D01*
X110300497Y-141827531D01*
X110348116Y-141875150D01*
X110443354Y-141922769D01*
X110633830Y-141922769D01*
X110729068Y-141875150D01*
X110776687Y-141827531D01*
X110824306Y-141732293D01*
X110824306Y-141494198D01*
X110776687Y-141398960D01*
X110729068Y-141351341D01*
X110633830Y-141303722D01*
X110443354Y-141303722D01*
X110348116Y-141351341D01*
X110300497Y-141398960D01*
X110252878Y-141494198D01*
%TO.C,R63*%
X76836542Y-100348180D02*
X76503209Y-99871990D01*
X76265114Y-100348180D02*
X76265114Y-99348180D01*
X76646066Y-99348180D01*
X76741304Y-99395800D01*
X76788923Y-99443419D01*
X76836542Y-99538657D01*
X76836542Y-99681514D01*
X76788923Y-99776752D01*
X76741304Y-99824371D01*
X76646066Y-99871990D01*
X76265114Y-99871990D01*
X77693685Y-99348180D02*
X77503209Y-99348180D01*
X77407971Y-99395800D01*
X77360352Y-99443419D01*
X77265114Y-99586276D01*
X77217495Y-99776752D01*
X77217495Y-100157704D01*
X77265114Y-100252942D01*
X77312733Y-100300561D01*
X77407971Y-100348180D01*
X77598447Y-100348180D01*
X77693685Y-100300561D01*
X77741304Y-100252942D01*
X77788923Y-100157704D01*
X77788923Y-99919609D01*
X77741304Y-99824371D01*
X77693685Y-99776752D01*
X77598447Y-99729133D01*
X77407971Y-99729133D01*
X77312733Y-99776752D01*
X77265114Y-99824371D01*
X77217495Y-99919609D01*
X78122257Y-99348180D02*
X78741304Y-99348180D01*
X78407971Y-99729133D01*
X78550828Y-99729133D01*
X78646066Y-99776752D01*
X78693685Y-99824371D01*
X78741304Y-99919609D01*
X78741304Y-100157704D01*
X78693685Y-100252942D01*
X78646066Y-100300561D01*
X78550828Y-100348180D01*
X78265114Y-100348180D01*
X78169876Y-100300561D01*
X78122257Y-100252942D01*
D12*
%TO.C,R16*%
X111103428Y-107783714D02*
X110817714Y-107983714D01*
X111103428Y-108126571D02*
X110503428Y-108126571D01*
X110503428Y-107898000D01*
X110532000Y-107840857D01*
X110560571Y-107812285D01*
X110617714Y-107783714D01*
X110703428Y-107783714D01*
X110760571Y-107812285D01*
X110789142Y-107840857D01*
X110817714Y-107898000D01*
X110817714Y-108126571D01*
X111103428Y-107212285D02*
X111103428Y-107555142D01*
X111103428Y-107383714D02*
X110503428Y-107383714D01*
X110589142Y-107440857D01*
X110646285Y-107498000D01*
X110674857Y-107555142D01*
X110503428Y-106698000D02*
X110503428Y-106812285D01*
X110532000Y-106869428D01*
X110560571Y-106898000D01*
X110646285Y-106955142D01*
X110760571Y-106983714D01*
X110989142Y-106983714D01*
X111046285Y-106955142D01*
X111074857Y-106926571D01*
X111103428Y-106869428D01*
X111103428Y-106755142D01*
X111074857Y-106698000D01*
X111046285Y-106669428D01*
X110989142Y-106640857D01*
X110846285Y-106640857D01*
X110789142Y-106669428D01*
X110760571Y-106698000D01*
X110732000Y-106755142D01*
X110732000Y-106869428D01*
X110760571Y-106926571D01*
X110789142Y-106955142D01*
X110846285Y-106983714D01*
D11*
%TO.C,R60*%
X57536542Y-102522180D02*
X57203209Y-102045990D01*
X56965114Y-102522180D02*
X56965114Y-101522180D01*
X57346066Y-101522180D01*
X57441304Y-101569800D01*
X57488923Y-101617419D01*
X57536542Y-101712657D01*
X57536542Y-101855514D01*
X57488923Y-101950752D01*
X57441304Y-101998371D01*
X57346066Y-102045990D01*
X56965114Y-102045990D01*
X58393685Y-101522180D02*
X58203209Y-101522180D01*
X58107971Y-101569800D01*
X58060352Y-101617419D01*
X57965114Y-101760276D01*
X57917495Y-101950752D01*
X57917495Y-102331704D01*
X57965114Y-102426942D01*
X58012733Y-102474561D01*
X58107971Y-102522180D01*
X58298447Y-102522180D01*
X58393685Y-102474561D01*
X58441304Y-102426942D01*
X58488923Y-102331704D01*
X58488923Y-102093609D01*
X58441304Y-101998371D01*
X58393685Y-101950752D01*
X58298447Y-101903133D01*
X58107971Y-101903133D01*
X58012733Y-101950752D01*
X57965114Y-101998371D01*
X57917495Y-102093609D01*
X59107971Y-101522180D02*
X59203209Y-101522180D01*
X59298447Y-101569800D01*
X59346066Y-101617419D01*
X59393685Y-101712657D01*
X59441304Y-101903133D01*
X59441304Y-102141228D01*
X59393685Y-102331704D01*
X59346066Y-102426942D01*
X59298447Y-102474561D01*
X59203209Y-102522180D01*
X59107971Y-102522180D01*
X59012733Y-102474561D01*
X58965114Y-102426942D01*
X58917495Y-102331704D01*
X58869876Y-102141228D01*
X58869876Y-101903133D01*
X58917495Y-101712657D01*
X58965114Y-101617419D01*
X59012733Y-101569800D01*
X59107971Y-101522180D01*
D12*
%TO.C,U4*%
X112008857Y-117183428D02*
X112008857Y-117669142D01*
X112037428Y-117726285D01*
X112066000Y-117754857D01*
X112123142Y-117783428D01*
X112237428Y-117783428D01*
X112294571Y-117754857D01*
X112323142Y-117726285D01*
X112351714Y-117669142D01*
X112351714Y-117183428D01*
X112894571Y-117383428D02*
X112894571Y-117783428D01*
X112751714Y-117154857D02*
X112608857Y-117583428D01*
X112980285Y-117583428D01*
D13*
X116020642Y-115598311D02*
X116020642Y-116082120D01*
X115778738Y-115809978D02*
X116262547Y-115870454D01*
X116202071Y-116346704D02*
X115778738Y-116444978D01*
X116202071Y-116649085D02*
X115778738Y-116444978D01*
X115627547Y-116365603D01*
X115597309Y-116331585D01*
X115567071Y-116267329D01*
X116337192Y-113057357D02*
X116821001Y-113057357D01*
X116548859Y-113299261D02*
X116609335Y-112815452D01*
X117085585Y-112875928D02*
X117418204Y-112875928D01*
X117032668Y-113299261D01*
X117365287Y-113299261D01*
X111937192Y-112957357D02*
X112421001Y-112957357D01*
X112148859Y-113199261D02*
X112209335Y-112715452D01*
X112632668Y-113199261D02*
X113018204Y-112775928D01*
X112685585Y-112775928D02*
X112965287Y-113199261D01*
D11*
%TO.C,Q10*%
X115597230Y-149931830D02*
X115549611Y-150027068D01*
X115454372Y-150122306D01*
X115311515Y-150265163D01*
X115263896Y-150360402D01*
X115263896Y-150455640D01*
X115501991Y-150408021D02*
X115454372Y-150503259D01*
X115359134Y-150598497D01*
X115168658Y-150646116D01*
X114835325Y-150646116D01*
X114644849Y-150598497D01*
X114549611Y-150503259D01*
X114501991Y-150408021D01*
X114501991Y-150217544D01*
X114549611Y-150122306D01*
X114644849Y-150027068D01*
X114835325Y-149979449D01*
X115168658Y-149979449D01*
X115359134Y-150027068D01*
X115454372Y-150122306D01*
X115501991Y-150217544D01*
X115501991Y-150408021D01*
X115501991Y-149027068D02*
X115501991Y-149598497D01*
X115501991Y-149312782D02*
X114501991Y-149312782D01*
X114644849Y-149408021D01*
X114740087Y-149503259D01*
X114787706Y-149598497D01*
X114501991Y-148408021D02*
X114501991Y-148312782D01*
X114549611Y-148217544D01*
X114597230Y-148169925D01*
X114692468Y-148122306D01*
X114882944Y-148074687D01*
X115121039Y-148074687D01*
X115311515Y-148122306D01*
X115406753Y-148169925D01*
X115454372Y-148217544D01*
X115501991Y-148312782D01*
X115501991Y-148408021D01*
X115454372Y-148503259D01*
X115406753Y-148550878D01*
X115311515Y-148598497D01*
X115121039Y-148646116D01*
X114882944Y-148646116D01*
X114692468Y-148598497D01*
X114597230Y-148550878D01*
X114549611Y-148503259D01*
X114501991Y-148408021D01*
%TO.C,R42*%
X79785742Y-83594580D02*
X79452409Y-83118390D01*
X79214314Y-83594580D02*
X79214314Y-82594580D01*
X79595266Y-82594580D01*
X79690504Y-82642200D01*
X79738123Y-82689819D01*
X79785742Y-82785057D01*
X79785742Y-82927914D01*
X79738123Y-83023152D01*
X79690504Y-83070771D01*
X79595266Y-83118390D01*
X79214314Y-83118390D01*
X80642885Y-82927914D02*
X80642885Y-83594580D01*
X80404790Y-82546961D02*
X80166695Y-83261247D01*
X80785742Y-83261247D01*
X81119076Y-82689819D02*
X81166695Y-82642200D01*
X81261933Y-82594580D01*
X81500028Y-82594580D01*
X81595266Y-82642200D01*
X81642885Y-82689819D01*
X81690504Y-82785057D01*
X81690504Y-82880295D01*
X81642885Y-83023152D01*
X81071457Y-83594580D01*
X81690504Y-83594580D01*
D12*
%TO.C,R17*%
X111243428Y-98719714D02*
X110957714Y-98919714D01*
X111243428Y-99062571D02*
X110643428Y-99062571D01*
X110643428Y-98834000D01*
X110672000Y-98776857D01*
X110700571Y-98748285D01*
X110757714Y-98719714D01*
X110843428Y-98719714D01*
X110900571Y-98748285D01*
X110929142Y-98776857D01*
X110957714Y-98834000D01*
X110957714Y-99062571D01*
X111243428Y-98148285D02*
X111243428Y-98491142D01*
X111243428Y-98319714D02*
X110643428Y-98319714D01*
X110729142Y-98376857D01*
X110786285Y-98434000D01*
X110814857Y-98491142D01*
X110643428Y-97948285D02*
X110643428Y-97548285D01*
X111243428Y-97805428D01*
D11*
%TO.C,J1*%
X91156666Y-103021380D02*
X91156666Y-103735666D01*
X91109047Y-103878523D01*
X91013809Y-103973761D01*
X90870952Y-104021380D01*
X90775714Y-104021380D01*
X92156666Y-104021380D02*
X91585238Y-104021380D01*
X91870952Y-104021380D02*
X91870952Y-103021380D01*
X91775714Y-103164238D01*
X91680476Y-103259476D01*
X91585238Y-103307095D01*
%TO.C,R35*%
X68728542Y-83832180D02*
X68395209Y-83355990D01*
X68157114Y-83832180D02*
X68157114Y-82832180D01*
X68538066Y-82832180D01*
X68633304Y-82879800D01*
X68680923Y-82927419D01*
X68728542Y-83022657D01*
X68728542Y-83165514D01*
X68680923Y-83260752D01*
X68633304Y-83308371D01*
X68538066Y-83355990D01*
X68157114Y-83355990D01*
X69061876Y-82832180D02*
X69680923Y-82832180D01*
X69347590Y-83213133D01*
X69490447Y-83213133D01*
X69585685Y-83260752D01*
X69633304Y-83308371D01*
X69680923Y-83403609D01*
X69680923Y-83641704D01*
X69633304Y-83736942D01*
X69585685Y-83784561D01*
X69490447Y-83832180D01*
X69204733Y-83832180D01*
X69109495Y-83784561D01*
X69061876Y-83736942D01*
X70585685Y-82832180D02*
X70109495Y-82832180D01*
X70061876Y-83308371D01*
X70109495Y-83260752D01*
X70204733Y-83213133D01*
X70442828Y-83213133D01*
X70538066Y-83260752D01*
X70585685Y-83308371D01*
X70633304Y-83403609D01*
X70633304Y-83641704D01*
X70585685Y-83736942D01*
X70538066Y-83784561D01*
X70442828Y-83832180D01*
X70204733Y-83832180D01*
X70109495Y-83784561D01*
X70061876Y-83736942D01*
D12*
%TO.C,R52*%
X121149428Y-78661714D02*
X120863714Y-78861714D01*
X121149428Y-79004571D02*
X120549428Y-79004571D01*
X120549428Y-78776000D01*
X120578000Y-78718857D01*
X120606571Y-78690285D01*
X120663714Y-78661714D01*
X120749428Y-78661714D01*
X120806571Y-78690285D01*
X120835142Y-78718857D01*
X120863714Y-78776000D01*
X120863714Y-79004571D01*
X120549428Y-78118857D02*
X120549428Y-78404571D01*
X120835142Y-78433142D01*
X120806571Y-78404571D01*
X120778000Y-78347428D01*
X120778000Y-78204571D01*
X120806571Y-78147428D01*
X120835142Y-78118857D01*
X120892285Y-78090285D01*
X121035142Y-78090285D01*
X121092285Y-78118857D01*
X121120857Y-78147428D01*
X121149428Y-78204571D01*
X121149428Y-78347428D01*
X121120857Y-78404571D01*
X121092285Y-78433142D01*
X120606571Y-77861714D02*
X120578000Y-77833142D01*
X120549428Y-77776000D01*
X120549428Y-77633142D01*
X120578000Y-77576000D01*
X120606571Y-77547428D01*
X120663714Y-77518857D01*
X120720857Y-77518857D01*
X120806571Y-77547428D01*
X121149428Y-77890285D01*
X121149428Y-77518857D01*
D11*
%TO.C,Q9*%
X110077230Y-138801640D02*
X110029611Y-138896878D01*
X109934372Y-138992116D01*
X109791515Y-139134973D01*
X109743896Y-139230211D01*
X109743896Y-139325449D01*
X109981991Y-139277830D02*
X109934372Y-139373068D01*
X109839134Y-139468306D01*
X109648658Y-139515925D01*
X109315325Y-139515925D01*
X109124849Y-139468306D01*
X109029611Y-139373068D01*
X108981991Y-139277830D01*
X108981991Y-139087354D01*
X109029611Y-138992116D01*
X109124849Y-138896878D01*
X109315325Y-138849259D01*
X109648658Y-138849259D01*
X109839134Y-138896878D01*
X109934372Y-138992116D01*
X109981991Y-139087354D01*
X109981991Y-139277830D01*
X109981991Y-138373068D02*
X109981991Y-138182592D01*
X109934372Y-138087354D01*
X109886753Y-138039735D01*
X109743896Y-137944497D01*
X109553420Y-137896878D01*
X109172468Y-137896878D01*
X109077230Y-137944497D01*
X109029611Y-137992116D01*
X108981991Y-138087354D01*
X108981991Y-138277830D01*
X109029611Y-138373068D01*
X109077230Y-138420687D01*
X109172468Y-138468306D01*
X109410563Y-138468306D01*
X109505801Y-138420687D01*
X109553420Y-138373068D01*
X109601039Y-138277830D01*
X109601039Y-138087354D01*
X109553420Y-137992116D01*
X109505801Y-137944497D01*
X109410563Y-137896878D01*
%TO.C,R3*%
X66233333Y-103096380D02*
X65900000Y-102620190D01*
X65661904Y-103096380D02*
X65661904Y-102096380D01*
X66042857Y-102096380D01*
X66138095Y-102144000D01*
X66185714Y-102191619D01*
X66233333Y-102286857D01*
X66233333Y-102429714D01*
X66185714Y-102524952D01*
X66138095Y-102572571D01*
X66042857Y-102620190D01*
X65661904Y-102620190D01*
X66566666Y-102096380D02*
X67185714Y-102096380D01*
X66852380Y-102477333D01*
X66995238Y-102477333D01*
X67090476Y-102524952D01*
X67138095Y-102572571D01*
X67185714Y-102667809D01*
X67185714Y-102905904D01*
X67138095Y-103001142D01*
X67090476Y-103048761D01*
X66995238Y-103096380D01*
X66709523Y-103096380D01*
X66614285Y-103048761D01*
X66566666Y-103001142D01*
%TO.C,Q19*%
X108049619Y-99264428D02*
X108002000Y-99359666D01*
X107906761Y-99454904D01*
X107763904Y-99597761D01*
X107716285Y-99693000D01*
X107716285Y-99788238D01*
X107954380Y-99740619D02*
X107906761Y-99835857D01*
X107811523Y-99931095D01*
X107621047Y-99978714D01*
X107287714Y-99978714D01*
X107097238Y-99931095D01*
X107002000Y-99835857D01*
X106954380Y-99740619D01*
X106954380Y-99550142D01*
X107002000Y-99454904D01*
X107097238Y-99359666D01*
X107287714Y-99312047D01*
X107621047Y-99312047D01*
X107811523Y-99359666D01*
X107906761Y-99454904D01*
X107954380Y-99550142D01*
X107954380Y-99740619D01*
X107954380Y-98359666D02*
X107954380Y-98931095D01*
X107954380Y-98645380D02*
X106954380Y-98645380D01*
X107097238Y-98740619D01*
X107192476Y-98835857D01*
X107240095Y-98931095D01*
X107954380Y-97883476D02*
X107954380Y-97693000D01*
X107906761Y-97597761D01*
X107859142Y-97550142D01*
X107716285Y-97454904D01*
X107525809Y-97407285D01*
X107144857Y-97407285D01*
X107049619Y-97454904D01*
X107002000Y-97502523D01*
X106954380Y-97597761D01*
X106954380Y-97788238D01*
X107002000Y-97883476D01*
X107049619Y-97931095D01*
X107144857Y-97978714D01*
X107382952Y-97978714D01*
X107478190Y-97931095D01*
X107525809Y-97883476D01*
X107573428Y-97788238D01*
X107573428Y-97597761D01*
X107525809Y-97502523D01*
X107478190Y-97454904D01*
X107382952Y-97407285D01*
%TO.C,R97*%
X92314380Y-82873857D02*
X91838190Y-83207190D01*
X92314380Y-83445285D02*
X91314380Y-83445285D01*
X91314380Y-83064333D01*
X91362000Y-82969095D01*
X91409619Y-82921476D01*
X91504857Y-82873857D01*
X91647714Y-82873857D01*
X91742952Y-82921476D01*
X91790571Y-82969095D01*
X91838190Y-83064333D01*
X91838190Y-83445285D01*
X92314380Y-82397666D02*
X92314380Y-82207190D01*
X92266761Y-82111952D01*
X92219142Y-82064333D01*
X92076285Y-81969095D01*
X91885809Y-81921476D01*
X91504857Y-81921476D01*
X91409619Y-81969095D01*
X91362000Y-82016714D01*
X91314380Y-82111952D01*
X91314380Y-82302428D01*
X91362000Y-82397666D01*
X91409619Y-82445285D01*
X91504857Y-82492904D01*
X91742952Y-82492904D01*
X91838190Y-82445285D01*
X91885809Y-82397666D01*
X91933428Y-82302428D01*
X91933428Y-82111952D01*
X91885809Y-82016714D01*
X91838190Y-81969095D01*
X91742952Y-81921476D01*
X91314380Y-81588142D02*
X91314380Y-80921476D01*
X92314380Y-81350047D01*
D12*
%TO.C,R77*%
X121149428Y-92996714D02*
X120863714Y-93196714D01*
X121149428Y-93339571D02*
X120549428Y-93339571D01*
X120549428Y-93111000D01*
X120578000Y-93053857D01*
X120606571Y-93025285D01*
X120663714Y-92996714D01*
X120749428Y-92996714D01*
X120806571Y-93025285D01*
X120835142Y-93053857D01*
X120863714Y-93111000D01*
X120863714Y-93339571D01*
X120549428Y-92796714D02*
X120549428Y-92396714D01*
X121149428Y-92653857D01*
X120549428Y-92225285D02*
X120549428Y-91825285D01*
X121149428Y-92082428D01*
%TO.C,Q8*%
X117268857Y-79076571D02*
X117211714Y-79048000D01*
X117154571Y-78990857D01*
X117068857Y-78905142D01*
X117011714Y-78876571D01*
X116954571Y-78876571D01*
X116983142Y-79019428D02*
X116926000Y-78990857D01*
X116868857Y-78933714D01*
X116840285Y-78819428D01*
X116840285Y-78619428D01*
X116868857Y-78505142D01*
X116926000Y-78448000D01*
X116983142Y-78419428D01*
X117097428Y-78419428D01*
X117154571Y-78448000D01*
X117211714Y-78505142D01*
X117240285Y-78619428D01*
X117240285Y-78819428D01*
X117211714Y-78933714D01*
X117154571Y-78990857D01*
X117097428Y-79019428D01*
X116983142Y-79019428D01*
X117583142Y-78676571D02*
X117526000Y-78648000D01*
X117497428Y-78619428D01*
X117468857Y-78562285D01*
X117468857Y-78533714D01*
X117497428Y-78476571D01*
X117526000Y-78448000D01*
X117583142Y-78419428D01*
X117697428Y-78419428D01*
X117754571Y-78448000D01*
X117783142Y-78476571D01*
X117811714Y-78533714D01*
X117811714Y-78562285D01*
X117783142Y-78619428D01*
X117754571Y-78648000D01*
X117697428Y-78676571D01*
X117583142Y-78676571D01*
X117526000Y-78705142D01*
X117497428Y-78733714D01*
X117468857Y-78790857D01*
X117468857Y-78905142D01*
X117497428Y-78962285D01*
X117526000Y-78990857D01*
X117583142Y-79019428D01*
X117697428Y-79019428D01*
X117754571Y-78990857D01*
X117783142Y-78962285D01*
X117811714Y-78905142D01*
X117811714Y-78790857D01*
X117783142Y-78733714D01*
X117754571Y-78705142D01*
X117697428Y-78676571D01*
D11*
%TO.C,R110*%
X95760380Y-82850047D02*
X95284190Y-83183380D01*
X95760380Y-83421476D02*
X94760380Y-83421476D01*
X94760380Y-83040523D01*
X94808000Y-82945285D01*
X94855619Y-82897666D01*
X94950857Y-82850047D01*
X95093714Y-82850047D01*
X95188952Y-82897666D01*
X95236571Y-82945285D01*
X95284190Y-83040523D01*
X95284190Y-83421476D01*
X95760380Y-81897666D02*
X95760380Y-82469095D01*
X95760380Y-82183380D02*
X94760380Y-82183380D01*
X94903238Y-82278619D01*
X94998476Y-82373857D01*
X95046095Y-82469095D01*
X95760380Y-80945285D02*
X95760380Y-81516714D01*
X95760380Y-81231000D02*
X94760380Y-81231000D01*
X94903238Y-81326238D01*
X94998476Y-81421476D01*
X95046095Y-81516714D01*
X94760380Y-80326238D02*
X94760380Y-80231000D01*
X94808000Y-80135761D01*
X94855619Y-80088142D01*
X94950857Y-80040523D01*
X95141333Y-79992904D01*
X95379428Y-79992904D01*
X95569904Y-80040523D01*
X95665142Y-80088142D01*
X95712761Y-80135761D01*
X95760380Y-80231000D01*
X95760380Y-80326238D01*
X95712761Y-80421476D01*
X95665142Y-80469095D01*
X95569904Y-80516714D01*
X95379428Y-80564333D01*
X95141333Y-80564333D01*
X94950857Y-80516714D01*
X94855619Y-80469095D01*
X94808000Y-80421476D01*
X94760380Y-80326238D01*
%TO.C,R67*%
X108930753Y-143762782D02*
X108597420Y-143286592D01*
X108359325Y-143762782D02*
X108359325Y-142762782D01*
X108740277Y-142762782D01*
X108835515Y-142810402D01*
X108883134Y-142858021D01*
X108930753Y-142953259D01*
X108930753Y-143096116D01*
X108883134Y-143191354D01*
X108835515Y-143238973D01*
X108740277Y-143286592D01*
X108359325Y-143286592D01*
X109787896Y-142762782D02*
X109597420Y-142762782D01*
X109502182Y-142810402D01*
X109454563Y-142858021D01*
X109359325Y-143000878D01*
X109311706Y-143191354D01*
X109311706Y-143572306D01*
X109359325Y-143667544D01*
X109406944Y-143715163D01*
X109502182Y-143762782D01*
X109692658Y-143762782D01*
X109787896Y-143715163D01*
X109835515Y-143667544D01*
X109883134Y-143572306D01*
X109883134Y-143334211D01*
X109835515Y-143238973D01*
X109787896Y-143191354D01*
X109692658Y-143143735D01*
X109502182Y-143143735D01*
X109406944Y-143191354D01*
X109359325Y-143238973D01*
X109311706Y-143334211D01*
X110216468Y-142762782D02*
X110883134Y-142762782D01*
X110454563Y-143762782D01*
D12*
%TO.C,Q6*%
X117340857Y-84076571D02*
X117283714Y-84048000D01*
X117226571Y-83990857D01*
X117140857Y-83905142D01*
X117083714Y-83876571D01*
X117026571Y-83876571D01*
X117055142Y-84019428D02*
X116998000Y-83990857D01*
X116940857Y-83933714D01*
X116912285Y-83819428D01*
X116912285Y-83619428D01*
X116940857Y-83505142D01*
X116998000Y-83448000D01*
X117055142Y-83419428D01*
X117169428Y-83419428D01*
X117226571Y-83448000D01*
X117283714Y-83505142D01*
X117312285Y-83619428D01*
X117312285Y-83819428D01*
X117283714Y-83933714D01*
X117226571Y-83990857D01*
X117169428Y-84019428D01*
X117055142Y-84019428D01*
X117826571Y-83419428D02*
X117712285Y-83419428D01*
X117655142Y-83448000D01*
X117626571Y-83476571D01*
X117569428Y-83562285D01*
X117540857Y-83676571D01*
X117540857Y-83905142D01*
X117569428Y-83962285D01*
X117598000Y-83990857D01*
X117655142Y-84019428D01*
X117769428Y-84019428D01*
X117826571Y-83990857D01*
X117855142Y-83962285D01*
X117883714Y-83905142D01*
X117883714Y-83762285D01*
X117855142Y-83705142D01*
X117826571Y-83676571D01*
X117769428Y-83648000D01*
X117655142Y-83648000D01*
X117598000Y-83676571D01*
X117569428Y-83705142D01*
X117540857Y-83762285D01*
D11*
%TO.C,R70*%
X120200753Y-154412782D02*
X119867420Y-153936592D01*
X119629325Y-154412782D02*
X119629325Y-153412782D01*
X120010277Y-153412782D01*
X120105515Y-153460402D01*
X120153134Y-153508021D01*
X120200753Y-153603259D01*
X120200753Y-153746116D01*
X120153134Y-153841354D01*
X120105515Y-153888973D01*
X120010277Y-153936592D01*
X119629325Y-153936592D01*
X120534087Y-153412782D02*
X121200753Y-153412782D01*
X120772182Y-154412782D01*
X121772182Y-153412782D02*
X121867420Y-153412782D01*
X121962658Y-153460402D01*
X122010277Y-153508021D01*
X122057896Y-153603259D01*
X122105515Y-153793735D01*
X122105515Y-154031830D01*
X122057896Y-154222306D01*
X122010277Y-154317544D01*
X121962658Y-154365163D01*
X121867420Y-154412782D01*
X121772182Y-154412782D01*
X121676944Y-154365163D01*
X121629325Y-154317544D01*
X121581706Y-154222306D01*
X121534087Y-154031830D01*
X121534087Y-153793735D01*
X121581706Y-153603259D01*
X121629325Y-153508021D01*
X121676944Y-153460402D01*
X121772182Y-153412782D01*
%TO.C,R114*%
X100987952Y-92676380D02*
X100654619Y-92200190D01*
X100416523Y-92676380D02*
X100416523Y-91676380D01*
X100797476Y-91676380D01*
X100892714Y-91724000D01*
X100940333Y-91771619D01*
X100987952Y-91866857D01*
X100987952Y-92009714D01*
X100940333Y-92104952D01*
X100892714Y-92152571D01*
X100797476Y-92200190D01*
X100416523Y-92200190D01*
X101940333Y-92676380D02*
X101368904Y-92676380D01*
X101654619Y-92676380D02*
X101654619Y-91676380D01*
X101559380Y-91819238D01*
X101464142Y-91914476D01*
X101368904Y-91962095D01*
X102892714Y-92676380D02*
X102321285Y-92676380D01*
X102607000Y-92676380D02*
X102607000Y-91676380D01*
X102511761Y-91819238D01*
X102416523Y-91914476D01*
X102321285Y-91962095D01*
X103749857Y-92009714D02*
X103749857Y-92676380D01*
X103511761Y-91628761D02*
X103273666Y-92343047D01*
X103892714Y-92343047D01*
D12*
%TO.C,C20*%
X108948285Y-115951714D02*
X108976857Y-115980285D01*
X109005428Y-116066000D01*
X109005428Y-116123142D01*
X108976857Y-116208857D01*
X108919714Y-116266000D01*
X108862571Y-116294571D01*
X108748285Y-116323142D01*
X108662571Y-116323142D01*
X108548285Y-116294571D01*
X108491142Y-116266000D01*
X108434000Y-116208857D01*
X108405428Y-116123142D01*
X108405428Y-116066000D01*
X108434000Y-115980285D01*
X108462571Y-115951714D01*
X108462571Y-115723142D02*
X108434000Y-115694571D01*
X108405428Y-115637428D01*
X108405428Y-115494571D01*
X108434000Y-115437428D01*
X108462571Y-115408857D01*
X108519714Y-115380285D01*
X108576857Y-115380285D01*
X108662571Y-115408857D01*
X109005428Y-115751714D01*
X109005428Y-115380285D01*
X108405428Y-115008857D02*
X108405428Y-114951714D01*
X108434000Y-114894571D01*
X108462571Y-114866000D01*
X108519714Y-114837428D01*
X108634000Y-114808857D01*
X108776857Y-114808857D01*
X108891142Y-114837428D01*
X108948285Y-114866000D01*
X108976857Y-114894571D01*
X109005428Y-114951714D01*
X109005428Y-115008857D01*
X108976857Y-115066000D01*
X108948285Y-115094571D01*
X108891142Y-115123142D01*
X108776857Y-115151714D01*
X108634000Y-115151714D01*
X108519714Y-115123142D01*
X108462571Y-115094571D01*
X108434000Y-115066000D01*
X108405428Y-115008857D01*
D11*
%TO.C,R116*%
X95510380Y-94676047D02*
X95034190Y-95009380D01*
X95510380Y-95247476D02*
X94510380Y-95247476D01*
X94510380Y-94866523D01*
X94558000Y-94771285D01*
X94605619Y-94723666D01*
X94700857Y-94676047D01*
X94843714Y-94676047D01*
X94938952Y-94723666D01*
X94986571Y-94771285D01*
X95034190Y-94866523D01*
X95034190Y-95247476D01*
X95510380Y-93723666D02*
X95510380Y-94295095D01*
X95510380Y-94009380D02*
X94510380Y-94009380D01*
X94653238Y-94104619D01*
X94748476Y-94199857D01*
X94796095Y-94295095D01*
X95510380Y-92771285D02*
X95510380Y-93342714D01*
X95510380Y-93057000D02*
X94510380Y-93057000D01*
X94653238Y-93152238D01*
X94748476Y-93247476D01*
X94796095Y-93342714D01*
X94510380Y-91914142D02*
X94510380Y-92104619D01*
X94558000Y-92199857D01*
X94605619Y-92247476D01*
X94748476Y-92342714D01*
X94938952Y-92390333D01*
X95319904Y-92390333D01*
X95415142Y-92342714D01*
X95462761Y-92295095D01*
X95510380Y-92199857D01*
X95510380Y-92009380D01*
X95462761Y-91914142D01*
X95415142Y-91866523D01*
X95319904Y-91818904D01*
X95081809Y-91818904D01*
X94986571Y-91866523D01*
X94938952Y-91914142D01*
X94891333Y-92009380D01*
X94891333Y-92199857D01*
X94938952Y-92295095D01*
X94986571Y-92342714D01*
X95081809Y-92390333D01*
%TO.C,R65*%
X111680753Y-134934782D02*
X111347420Y-134458592D01*
X111109325Y-134934782D02*
X111109325Y-133934782D01*
X111490277Y-133934782D01*
X111585515Y-133982402D01*
X111633134Y-134030021D01*
X111680753Y-134125259D01*
X111680753Y-134268116D01*
X111633134Y-134363354D01*
X111585515Y-134410973D01*
X111490277Y-134458592D01*
X111109325Y-134458592D01*
X112537896Y-133934782D02*
X112347420Y-133934782D01*
X112252182Y-133982402D01*
X112204563Y-134030021D01*
X112109325Y-134172878D01*
X112061706Y-134363354D01*
X112061706Y-134744306D01*
X112109325Y-134839544D01*
X112156944Y-134887163D01*
X112252182Y-134934782D01*
X112442658Y-134934782D01*
X112537896Y-134887163D01*
X112585515Y-134839544D01*
X112633134Y-134744306D01*
X112633134Y-134506211D01*
X112585515Y-134410973D01*
X112537896Y-134363354D01*
X112442658Y-134315735D01*
X112252182Y-134315735D01*
X112156944Y-134363354D01*
X112109325Y-134410973D01*
X112061706Y-134506211D01*
X113537896Y-133934782D02*
X113061706Y-133934782D01*
X113014087Y-134410973D01*
X113061706Y-134363354D01*
X113156944Y-134315735D01*
X113395039Y-134315735D01*
X113490277Y-134363354D01*
X113537896Y-134410973D01*
X113585515Y-134506211D01*
X113585515Y-134744306D01*
X113537896Y-134839544D01*
X113490277Y-134887163D01*
X113395039Y-134934782D01*
X113156944Y-134934782D01*
X113061706Y-134887163D01*
X113014087Y-134839544D01*
%TO.C,R62*%
X76836542Y-98824180D02*
X76503209Y-98347990D01*
X76265114Y-98824180D02*
X76265114Y-97824180D01*
X76646066Y-97824180D01*
X76741304Y-97871800D01*
X76788923Y-97919419D01*
X76836542Y-98014657D01*
X76836542Y-98157514D01*
X76788923Y-98252752D01*
X76741304Y-98300371D01*
X76646066Y-98347990D01*
X76265114Y-98347990D01*
X77693685Y-97824180D02*
X77503209Y-97824180D01*
X77407971Y-97871800D01*
X77360352Y-97919419D01*
X77265114Y-98062276D01*
X77217495Y-98252752D01*
X77217495Y-98633704D01*
X77265114Y-98728942D01*
X77312733Y-98776561D01*
X77407971Y-98824180D01*
X77598447Y-98824180D01*
X77693685Y-98776561D01*
X77741304Y-98728942D01*
X77788923Y-98633704D01*
X77788923Y-98395609D01*
X77741304Y-98300371D01*
X77693685Y-98252752D01*
X77598447Y-98205133D01*
X77407971Y-98205133D01*
X77312733Y-98252752D01*
X77265114Y-98300371D01*
X77217495Y-98395609D01*
X78169876Y-97919419D02*
X78217495Y-97871800D01*
X78312733Y-97824180D01*
X78550828Y-97824180D01*
X78646066Y-97871800D01*
X78693685Y-97919419D01*
X78741304Y-98014657D01*
X78741304Y-98109895D01*
X78693685Y-98252752D01*
X78122257Y-98824180D01*
X78741304Y-98824180D01*
%TO.C,R96*%
X93982380Y-91671857D02*
X93506190Y-92005190D01*
X93982380Y-92243285D02*
X92982380Y-92243285D01*
X92982380Y-91862333D01*
X93030000Y-91767095D01*
X93077619Y-91719476D01*
X93172857Y-91671857D01*
X93315714Y-91671857D01*
X93410952Y-91719476D01*
X93458571Y-91767095D01*
X93506190Y-91862333D01*
X93506190Y-92243285D01*
X93982380Y-91195666D02*
X93982380Y-91005190D01*
X93934761Y-90909952D01*
X93887142Y-90862333D01*
X93744285Y-90767095D01*
X93553809Y-90719476D01*
X93172857Y-90719476D01*
X93077619Y-90767095D01*
X93030000Y-90814714D01*
X92982380Y-90909952D01*
X92982380Y-91100428D01*
X93030000Y-91195666D01*
X93077619Y-91243285D01*
X93172857Y-91290904D01*
X93410952Y-91290904D01*
X93506190Y-91243285D01*
X93553809Y-91195666D01*
X93601428Y-91100428D01*
X93601428Y-90909952D01*
X93553809Y-90814714D01*
X93506190Y-90767095D01*
X93410952Y-90719476D01*
X92982380Y-89862333D02*
X92982380Y-90052809D01*
X93030000Y-90148047D01*
X93077619Y-90195666D01*
X93220476Y-90290904D01*
X93410952Y-90338523D01*
X93791904Y-90338523D01*
X93887142Y-90290904D01*
X93934761Y-90243285D01*
X93982380Y-90148047D01*
X93982380Y-89957571D01*
X93934761Y-89862333D01*
X93887142Y-89814714D01*
X93791904Y-89767095D01*
X93553809Y-89767095D01*
X93458571Y-89814714D01*
X93410952Y-89862333D01*
X93363333Y-89957571D01*
X93363333Y-90148047D01*
X93410952Y-90243285D01*
X93458571Y-90290904D01*
X93553809Y-90338523D01*
D12*
%TO.C,R83*%
X115421428Y-88555714D02*
X115135714Y-88755714D01*
X115421428Y-88898571D02*
X114821428Y-88898571D01*
X114821428Y-88670000D01*
X114850000Y-88612857D01*
X114878571Y-88584285D01*
X114935714Y-88555714D01*
X115021428Y-88555714D01*
X115078571Y-88584285D01*
X115107142Y-88612857D01*
X115135714Y-88670000D01*
X115135714Y-88898571D01*
X115078571Y-88212857D02*
X115050000Y-88270000D01*
X115021428Y-88298571D01*
X114964285Y-88327142D01*
X114935714Y-88327142D01*
X114878571Y-88298571D01*
X114850000Y-88270000D01*
X114821428Y-88212857D01*
X114821428Y-88098571D01*
X114850000Y-88041428D01*
X114878571Y-88012857D01*
X114935714Y-87984285D01*
X114964285Y-87984285D01*
X115021428Y-88012857D01*
X115050000Y-88041428D01*
X115078571Y-88098571D01*
X115078571Y-88212857D01*
X115107142Y-88270000D01*
X115135714Y-88298571D01*
X115192857Y-88327142D01*
X115307142Y-88327142D01*
X115364285Y-88298571D01*
X115392857Y-88270000D01*
X115421428Y-88212857D01*
X115421428Y-88098571D01*
X115392857Y-88041428D01*
X115364285Y-88012857D01*
X115307142Y-87984285D01*
X115192857Y-87984285D01*
X115135714Y-88012857D01*
X115107142Y-88041428D01*
X115078571Y-88098571D01*
X114821428Y-87784285D02*
X114821428Y-87412857D01*
X115050000Y-87612857D01*
X115050000Y-87527142D01*
X115078571Y-87470000D01*
X115107142Y-87441428D01*
X115164285Y-87412857D01*
X115307142Y-87412857D01*
X115364285Y-87441428D01*
X115392857Y-87470000D01*
X115421428Y-87527142D01*
X115421428Y-87698571D01*
X115392857Y-87755714D01*
X115364285Y-87784285D01*
D11*
%TO.C,C49*%
X64708142Y-99978857D02*
X64755761Y-100026476D01*
X64803380Y-100169333D01*
X64803380Y-100264571D01*
X64755761Y-100407428D01*
X64660523Y-100502666D01*
X64565285Y-100550285D01*
X64374809Y-100597904D01*
X64231952Y-100597904D01*
X64041476Y-100550285D01*
X63946238Y-100502666D01*
X63851000Y-100407428D01*
X63803380Y-100264571D01*
X63803380Y-100169333D01*
X63851000Y-100026476D01*
X63898619Y-99978857D01*
X64136714Y-99121714D02*
X64803380Y-99121714D01*
X63755761Y-99359809D02*
X64470047Y-99597904D01*
X64470047Y-98978857D01*
X64803380Y-98550285D02*
X64803380Y-98359809D01*
X64755761Y-98264571D01*
X64708142Y-98216952D01*
X64565285Y-98121714D01*
X64374809Y-98074095D01*
X63993857Y-98074095D01*
X63898619Y-98121714D01*
X63851000Y-98169333D01*
X63803380Y-98264571D01*
X63803380Y-98455047D01*
X63851000Y-98550285D01*
X63898619Y-98597904D01*
X63993857Y-98645523D01*
X64231952Y-98645523D01*
X64327190Y-98597904D01*
X64374809Y-98550285D01*
X64422428Y-98455047D01*
X64422428Y-98264571D01*
X64374809Y-98169333D01*
X64327190Y-98121714D01*
X64231952Y-98074095D01*
D12*
%TO.C,Q13*%
X122568142Y-92988571D02*
X122511000Y-92960000D01*
X122453857Y-92902857D01*
X122368142Y-92817142D01*
X122311000Y-92788571D01*
X122253857Y-92788571D01*
X122282428Y-92931428D02*
X122225285Y-92902857D01*
X122168142Y-92845714D01*
X122139571Y-92731428D01*
X122139571Y-92531428D01*
X122168142Y-92417142D01*
X122225285Y-92360000D01*
X122282428Y-92331428D01*
X122396714Y-92331428D01*
X122453857Y-92360000D01*
X122511000Y-92417142D01*
X122539571Y-92531428D01*
X122539571Y-92731428D01*
X122511000Y-92845714D01*
X122453857Y-92902857D01*
X122396714Y-92931428D01*
X122282428Y-92931428D01*
X123111000Y-92931428D02*
X122768142Y-92931428D01*
X122939571Y-92931428D02*
X122939571Y-92331428D01*
X122882428Y-92417142D01*
X122825285Y-92474285D01*
X122768142Y-92502857D01*
X123311000Y-92331428D02*
X123682428Y-92331428D01*
X123482428Y-92560000D01*
X123568142Y-92560000D01*
X123625285Y-92588571D01*
X123653857Y-92617142D01*
X123682428Y-92674285D01*
X123682428Y-92817142D01*
X123653857Y-92874285D01*
X123625285Y-92902857D01*
X123568142Y-92931428D01*
X123396714Y-92931428D01*
X123339571Y-92902857D01*
X123311000Y-92874285D01*
D11*
%TO.C,U24*%
X49137904Y-118362380D02*
X49137904Y-119171904D01*
X49185523Y-119267142D01*
X49233142Y-119314761D01*
X49328380Y-119362380D01*
X49518857Y-119362380D01*
X49614095Y-119314761D01*
X49661714Y-119267142D01*
X49709333Y-119171904D01*
X49709333Y-118362380D01*
X50137904Y-118457619D02*
X50185523Y-118410000D01*
X50280761Y-118362380D01*
X50518857Y-118362380D01*
X50614095Y-118410000D01*
X50661714Y-118457619D01*
X50709333Y-118552857D01*
X50709333Y-118648095D01*
X50661714Y-118790952D01*
X50090285Y-119362380D01*
X50709333Y-119362380D01*
X51566476Y-118695714D02*
X51566476Y-119362380D01*
X51328380Y-118314761D02*
X51090285Y-119029047D01*
X51709333Y-119029047D01*
D12*
%TO.C,C25*%
X120192285Y-120196285D02*
X120163714Y-120224857D01*
X120078000Y-120253428D01*
X120020857Y-120253428D01*
X119935142Y-120224857D01*
X119878000Y-120167714D01*
X119849428Y-120110571D01*
X119820857Y-119996285D01*
X119820857Y-119910571D01*
X119849428Y-119796285D01*
X119878000Y-119739142D01*
X119935142Y-119682000D01*
X120020857Y-119653428D01*
X120078000Y-119653428D01*
X120163714Y-119682000D01*
X120192285Y-119710571D01*
X120420857Y-119710571D02*
X120449428Y-119682000D01*
X120506571Y-119653428D01*
X120649428Y-119653428D01*
X120706571Y-119682000D01*
X120735142Y-119710571D01*
X120763714Y-119767714D01*
X120763714Y-119824857D01*
X120735142Y-119910571D01*
X120392285Y-120253428D01*
X120763714Y-120253428D01*
X121306571Y-119653428D02*
X121020857Y-119653428D01*
X120992285Y-119939142D01*
X121020857Y-119910571D01*
X121078000Y-119882000D01*
X121220857Y-119882000D01*
X121278000Y-119910571D01*
X121306571Y-119939142D01*
X121335142Y-119996285D01*
X121335142Y-120139142D01*
X121306571Y-120196285D01*
X121278000Y-120224857D01*
X121220857Y-120253428D01*
X121078000Y-120253428D01*
X121020857Y-120224857D01*
X120992285Y-120196285D01*
%TO.C,Q16*%
X116877142Y-88576571D02*
X116820000Y-88548000D01*
X116762857Y-88490857D01*
X116677142Y-88405142D01*
X116620000Y-88376571D01*
X116562857Y-88376571D01*
X116591428Y-88519428D02*
X116534285Y-88490857D01*
X116477142Y-88433714D01*
X116448571Y-88319428D01*
X116448571Y-88119428D01*
X116477142Y-88005142D01*
X116534285Y-87948000D01*
X116591428Y-87919428D01*
X116705714Y-87919428D01*
X116762857Y-87948000D01*
X116820000Y-88005142D01*
X116848571Y-88119428D01*
X116848571Y-88319428D01*
X116820000Y-88433714D01*
X116762857Y-88490857D01*
X116705714Y-88519428D01*
X116591428Y-88519428D01*
X117420000Y-88519428D02*
X117077142Y-88519428D01*
X117248571Y-88519428D02*
X117248571Y-87919428D01*
X117191428Y-88005142D01*
X117134285Y-88062285D01*
X117077142Y-88090857D01*
X117934285Y-87919428D02*
X117820000Y-87919428D01*
X117762857Y-87948000D01*
X117734285Y-87976571D01*
X117677142Y-88062285D01*
X117648571Y-88176571D01*
X117648571Y-88405142D01*
X117677142Y-88462285D01*
X117705714Y-88490857D01*
X117762857Y-88519428D01*
X117877142Y-88519428D01*
X117934285Y-88490857D01*
X117962857Y-88462285D01*
X117991428Y-88405142D01*
X117991428Y-88262285D01*
X117962857Y-88205142D01*
X117934285Y-88176571D01*
X117877142Y-88148000D01*
X117762857Y-88148000D01*
X117705714Y-88176571D01*
X117677142Y-88205142D01*
X117648571Y-88262285D01*
D11*
%TO.C,R61*%
X57536542Y-104046180D02*
X57203209Y-103569990D01*
X56965114Y-104046180D02*
X56965114Y-103046180D01*
X57346066Y-103046180D01*
X57441304Y-103093800D01*
X57488923Y-103141419D01*
X57536542Y-103236657D01*
X57536542Y-103379514D01*
X57488923Y-103474752D01*
X57441304Y-103522371D01*
X57346066Y-103569990D01*
X56965114Y-103569990D01*
X58393685Y-103046180D02*
X58203209Y-103046180D01*
X58107971Y-103093800D01*
X58060352Y-103141419D01*
X57965114Y-103284276D01*
X57917495Y-103474752D01*
X57917495Y-103855704D01*
X57965114Y-103950942D01*
X58012733Y-103998561D01*
X58107971Y-104046180D01*
X58298447Y-104046180D01*
X58393685Y-103998561D01*
X58441304Y-103950942D01*
X58488923Y-103855704D01*
X58488923Y-103617609D01*
X58441304Y-103522371D01*
X58393685Y-103474752D01*
X58298447Y-103427133D01*
X58107971Y-103427133D01*
X58012733Y-103474752D01*
X57965114Y-103522371D01*
X57917495Y-103617609D01*
X59441304Y-104046180D02*
X58869876Y-104046180D01*
X59155590Y-104046180D02*
X59155590Y-103046180D01*
X59060352Y-103189038D01*
X58965114Y-103284276D01*
X58869876Y-103331895D01*
D12*
%TO.C,R57*%
X114037428Y-83983714D02*
X113751714Y-84183714D01*
X114037428Y-84326571D02*
X113437428Y-84326571D01*
X113437428Y-84098000D01*
X113466000Y-84040857D01*
X113494571Y-84012285D01*
X113551714Y-83983714D01*
X113637428Y-83983714D01*
X113694571Y-84012285D01*
X113723142Y-84040857D01*
X113751714Y-84098000D01*
X113751714Y-84326571D01*
X113437428Y-83440857D02*
X113437428Y-83726571D01*
X113723142Y-83755142D01*
X113694571Y-83726571D01*
X113666000Y-83669428D01*
X113666000Y-83526571D01*
X113694571Y-83469428D01*
X113723142Y-83440857D01*
X113780285Y-83412285D01*
X113923142Y-83412285D01*
X113980285Y-83440857D01*
X114008857Y-83469428D01*
X114037428Y-83526571D01*
X114037428Y-83669428D01*
X114008857Y-83726571D01*
X113980285Y-83755142D01*
X113437428Y-83212285D02*
X113437428Y-82812285D01*
X114037428Y-83069428D01*
%TO.C,C18*%
X107798285Y-112154285D02*
X107769714Y-112182857D01*
X107684000Y-112211428D01*
X107626857Y-112211428D01*
X107541142Y-112182857D01*
X107484000Y-112125714D01*
X107455428Y-112068571D01*
X107426857Y-111954285D01*
X107426857Y-111868571D01*
X107455428Y-111754285D01*
X107484000Y-111697142D01*
X107541142Y-111640000D01*
X107626857Y-111611428D01*
X107684000Y-111611428D01*
X107769714Y-111640000D01*
X107798285Y-111668571D01*
X108369714Y-112211428D02*
X108026857Y-112211428D01*
X108198285Y-112211428D02*
X108198285Y-111611428D01*
X108141142Y-111697142D01*
X108084000Y-111754285D01*
X108026857Y-111782857D01*
X108712571Y-111868571D02*
X108655428Y-111840000D01*
X108626857Y-111811428D01*
X108598285Y-111754285D01*
X108598285Y-111725714D01*
X108626857Y-111668571D01*
X108655428Y-111640000D01*
X108712571Y-111611428D01*
X108826857Y-111611428D01*
X108884000Y-111640000D01*
X108912571Y-111668571D01*
X108941142Y-111725714D01*
X108941142Y-111754285D01*
X108912571Y-111811428D01*
X108884000Y-111840000D01*
X108826857Y-111868571D01*
X108712571Y-111868571D01*
X108655428Y-111897142D01*
X108626857Y-111925714D01*
X108598285Y-111982857D01*
X108598285Y-112097142D01*
X108626857Y-112154285D01*
X108655428Y-112182857D01*
X108712571Y-112211428D01*
X108826857Y-112211428D01*
X108884000Y-112182857D01*
X108912571Y-112154285D01*
X108941142Y-112097142D01*
X108941142Y-111982857D01*
X108912571Y-111925714D01*
X108884000Y-111897142D01*
X108826857Y-111868571D01*
%TO.C,Q14*%
X116818142Y-92826571D02*
X116761000Y-92798000D01*
X116703857Y-92740857D01*
X116618142Y-92655142D01*
X116561000Y-92626571D01*
X116503857Y-92626571D01*
X116532428Y-92769428D02*
X116475285Y-92740857D01*
X116418142Y-92683714D01*
X116389571Y-92569428D01*
X116389571Y-92369428D01*
X116418142Y-92255142D01*
X116475285Y-92198000D01*
X116532428Y-92169428D01*
X116646714Y-92169428D01*
X116703857Y-92198000D01*
X116761000Y-92255142D01*
X116789571Y-92369428D01*
X116789571Y-92569428D01*
X116761000Y-92683714D01*
X116703857Y-92740857D01*
X116646714Y-92769428D01*
X116532428Y-92769428D01*
X117361000Y-92769428D02*
X117018142Y-92769428D01*
X117189571Y-92769428D02*
X117189571Y-92169428D01*
X117132428Y-92255142D01*
X117075285Y-92312285D01*
X117018142Y-92340857D01*
X117875285Y-92369428D02*
X117875285Y-92769428D01*
X117732428Y-92140857D02*
X117589571Y-92569428D01*
X117961000Y-92569428D01*
%TO.C,R19*%
X116577428Y-98719714D02*
X116291714Y-98919714D01*
X116577428Y-99062571D02*
X115977428Y-99062571D01*
X115977428Y-98834000D01*
X116006000Y-98776857D01*
X116034571Y-98748285D01*
X116091714Y-98719714D01*
X116177428Y-98719714D01*
X116234571Y-98748285D01*
X116263142Y-98776857D01*
X116291714Y-98834000D01*
X116291714Y-99062571D01*
X116577428Y-98148285D02*
X116577428Y-98491142D01*
X116577428Y-98319714D02*
X115977428Y-98319714D01*
X116063142Y-98376857D01*
X116120285Y-98434000D01*
X116148857Y-98491142D01*
X116577428Y-97862571D02*
X116577428Y-97748285D01*
X116548857Y-97691142D01*
X116520285Y-97662571D01*
X116434571Y-97605428D01*
X116320285Y-97576857D01*
X116091714Y-97576857D01*
X116034571Y-97605428D01*
X116006000Y-97634000D01*
X115977428Y-97691142D01*
X115977428Y-97805428D01*
X116006000Y-97862571D01*
X116034571Y-97891142D01*
X116091714Y-97919714D01*
X116234571Y-97919714D01*
X116291714Y-97891142D01*
X116320285Y-97862571D01*
X116348857Y-97805428D01*
X116348857Y-97691142D01*
X116320285Y-97634000D01*
X116291714Y-97605428D01*
X116234571Y-97576857D01*
D11*
%TO.C,R115*%
X97538380Y-94676047D02*
X97062190Y-95009380D01*
X97538380Y-95247476D02*
X96538380Y-95247476D01*
X96538380Y-94866523D01*
X96586000Y-94771285D01*
X96633619Y-94723666D01*
X96728857Y-94676047D01*
X96871714Y-94676047D01*
X96966952Y-94723666D01*
X97014571Y-94771285D01*
X97062190Y-94866523D01*
X97062190Y-95247476D01*
X97538380Y-93723666D02*
X97538380Y-94295095D01*
X97538380Y-94009380D02*
X96538380Y-94009380D01*
X96681238Y-94104619D01*
X96776476Y-94199857D01*
X96824095Y-94295095D01*
X97538380Y-92771285D02*
X97538380Y-93342714D01*
X97538380Y-93057000D02*
X96538380Y-93057000D01*
X96681238Y-93152238D01*
X96776476Y-93247476D01*
X96824095Y-93342714D01*
X96538380Y-91866523D02*
X96538380Y-92342714D01*
X97014571Y-92390333D01*
X96966952Y-92342714D01*
X96919333Y-92247476D01*
X96919333Y-92009380D01*
X96966952Y-91914142D01*
X97014571Y-91866523D01*
X97109809Y-91818904D01*
X97347904Y-91818904D01*
X97443142Y-91866523D01*
X97490761Y-91914142D01*
X97538380Y-92009380D01*
X97538380Y-92247476D01*
X97490761Y-92342714D01*
X97443142Y-92390333D01*
D12*
%TO.C,R53*%
X115671428Y-78411714D02*
X115385714Y-78611714D01*
X115671428Y-78754571D02*
X115071428Y-78754571D01*
X115071428Y-78526000D01*
X115100000Y-78468857D01*
X115128571Y-78440285D01*
X115185714Y-78411714D01*
X115271428Y-78411714D01*
X115328571Y-78440285D01*
X115357142Y-78468857D01*
X115385714Y-78526000D01*
X115385714Y-78754571D01*
X115071428Y-77868857D02*
X115071428Y-78154571D01*
X115357142Y-78183142D01*
X115328571Y-78154571D01*
X115300000Y-78097428D01*
X115300000Y-77954571D01*
X115328571Y-77897428D01*
X115357142Y-77868857D01*
X115414285Y-77840285D01*
X115557142Y-77840285D01*
X115614285Y-77868857D01*
X115642857Y-77897428D01*
X115671428Y-77954571D01*
X115671428Y-78097428D01*
X115642857Y-78154571D01*
X115614285Y-78183142D01*
X115071428Y-77640285D02*
X115071428Y-77268857D01*
X115300000Y-77468857D01*
X115300000Y-77383142D01*
X115328571Y-77326000D01*
X115357142Y-77297428D01*
X115414285Y-77268857D01*
X115557142Y-77268857D01*
X115614285Y-77297428D01*
X115642857Y-77326000D01*
X115671428Y-77383142D01*
X115671428Y-77554571D01*
X115642857Y-77611714D01*
X115614285Y-77640285D01*
D11*
%TO.C,R99*%
X98100142Y-102470380D02*
X97766809Y-101994190D01*
X97528714Y-102470380D02*
X97528714Y-101470380D01*
X97909666Y-101470380D01*
X98004904Y-101518000D01*
X98052523Y-101565619D01*
X98100142Y-101660857D01*
X98100142Y-101803714D01*
X98052523Y-101898952D01*
X98004904Y-101946571D01*
X97909666Y-101994190D01*
X97528714Y-101994190D01*
X98576333Y-102470380D02*
X98766809Y-102470380D01*
X98862047Y-102422761D01*
X98909666Y-102375142D01*
X99004904Y-102232285D01*
X99052523Y-102041809D01*
X99052523Y-101660857D01*
X99004904Y-101565619D01*
X98957285Y-101518000D01*
X98862047Y-101470380D01*
X98671571Y-101470380D01*
X98576333Y-101518000D01*
X98528714Y-101565619D01*
X98481095Y-101660857D01*
X98481095Y-101898952D01*
X98528714Y-101994190D01*
X98576333Y-102041809D01*
X98671571Y-102089428D01*
X98862047Y-102089428D01*
X98957285Y-102041809D01*
X99004904Y-101994190D01*
X99052523Y-101898952D01*
X99528714Y-102470380D02*
X99719190Y-102470380D01*
X99814428Y-102422761D01*
X99862047Y-102375142D01*
X99957285Y-102232285D01*
X100004904Y-102041809D01*
X100004904Y-101660857D01*
X99957285Y-101565619D01*
X99909666Y-101518000D01*
X99814428Y-101470380D01*
X99623952Y-101470380D01*
X99528714Y-101518000D01*
X99481095Y-101565619D01*
X99433476Y-101660857D01*
X99433476Y-101898952D01*
X99481095Y-101994190D01*
X99528714Y-102041809D01*
X99623952Y-102089428D01*
X99814428Y-102089428D01*
X99909666Y-102041809D01*
X99957285Y-101994190D01*
X100004904Y-101898952D01*
%TO.C,R45*%
X47107742Y-115010580D02*
X46774409Y-114534390D01*
X46536314Y-115010580D02*
X46536314Y-114010580D01*
X46917266Y-114010580D01*
X47012504Y-114058200D01*
X47060123Y-114105819D01*
X47107742Y-114201057D01*
X47107742Y-114343914D01*
X47060123Y-114439152D01*
X47012504Y-114486771D01*
X46917266Y-114534390D01*
X46536314Y-114534390D01*
X47964885Y-114343914D02*
X47964885Y-115010580D01*
X47726790Y-113962961D02*
X47488695Y-114677247D01*
X48107742Y-114677247D01*
X48964885Y-114010580D02*
X48488695Y-114010580D01*
X48441076Y-114486771D01*
X48488695Y-114439152D01*
X48583933Y-114391533D01*
X48822028Y-114391533D01*
X48917266Y-114439152D01*
X48964885Y-114486771D01*
X49012504Y-114582009D01*
X49012504Y-114820104D01*
X48964885Y-114915342D01*
X48917266Y-114962961D01*
X48822028Y-115010580D01*
X48583933Y-115010580D01*
X48488695Y-114962961D01*
X48441076Y-114915342D01*
D12*
%TO.C,R21*%
X114799428Y-98719714D02*
X114513714Y-98919714D01*
X114799428Y-99062571D02*
X114199428Y-99062571D01*
X114199428Y-98834000D01*
X114228000Y-98776857D01*
X114256571Y-98748285D01*
X114313714Y-98719714D01*
X114399428Y-98719714D01*
X114456571Y-98748285D01*
X114485142Y-98776857D01*
X114513714Y-98834000D01*
X114513714Y-99062571D01*
X114256571Y-98491142D02*
X114228000Y-98462571D01*
X114199428Y-98405428D01*
X114199428Y-98262571D01*
X114228000Y-98205428D01*
X114256571Y-98176857D01*
X114313714Y-98148285D01*
X114370857Y-98148285D01*
X114456571Y-98176857D01*
X114799428Y-98519714D01*
X114799428Y-98148285D01*
X114799428Y-97576857D02*
X114799428Y-97919714D01*
X114799428Y-97748285D02*
X114199428Y-97748285D01*
X114285142Y-97805428D01*
X114342285Y-97862571D01*
X114370857Y-97919714D01*
D14*
%TO.C,D4*%
X49503778Y-64974280D02*
X49303778Y-64974280D01*
X49903778Y-65374280D02*
X49503778Y-64974280D01*
D15*
X49303778Y-64474280D02*
X49303778Y-64274280D01*
X50103778Y-64474280D02*
X50103778Y-64274280D01*
D14*
X49503778Y-64974280D02*
X49903778Y-64574280D01*
X49903778Y-64974280D02*
X50103778Y-64974280D01*
D15*
X49403778Y-64374280D02*
X49303778Y-64274280D01*
D14*
X49503778Y-64574280D02*
X49503778Y-65374280D01*
D15*
X50203778Y-64374280D02*
X50103778Y-64274280D01*
X50103778Y-64274280D02*
X50003778Y-64374280D01*
X49303778Y-64274280D02*
X49203778Y-64374280D01*
D14*
X49903778Y-64574280D02*
X49903778Y-65374280D01*
%TO.C,C4*%
X43280664Y-74778000D02*
X43496336Y-74778000D01*
X43280664Y-74058000D02*
X43496336Y-74058000D01*
%TO.C,C5*%
X128078336Y-74185000D02*
X127862664Y-74185000D01*
X128078336Y-74905000D02*
X127862664Y-74905000D01*
%TO.C,C6*%
X128690000Y-159654164D02*
X128690000Y-159869836D01*
X129410000Y-159654164D02*
X129410000Y-159869836D01*
%TO.C,C7*%
X41653000Y-159717664D02*
X41653000Y-159933336D01*
X40933000Y-159717664D02*
X40933000Y-159933336D01*
%TO.C,C10*%
X123362400Y-67444820D02*
X123362400Y-67725980D01*
X122342400Y-67444820D02*
X122342400Y-67725980D01*
%TO.C,C11*%
X121197000Y-67198164D02*
X121197000Y-67413836D01*
X121917000Y-67198164D02*
X121917000Y-67413836D01*
%TO.C,C12*%
X116938600Y-67198164D02*
X116938600Y-67413836D01*
X116218600Y-67198164D02*
X116218600Y-67413836D01*
%TO.C,C13*%
X115863000Y-67610748D02*
X115863000Y-69033252D01*
X114043000Y-67610748D02*
X114043000Y-69033252D01*
%TO.C,Q3*%
X46790600Y-65053400D02*
X46790600Y-66253400D01*
X46790600Y-66253400D02*
X46790600Y-66253400D01*
X48190600Y-65253400D02*
X48190600Y-65853400D01*
%TO.C,R6*%
X51325000Y-68539141D02*
X51325000Y-68231859D01*
X50565000Y-68539141D02*
X50565000Y-68231859D01*
%TO.C,R11*%
X47438559Y-66697400D02*
X47745841Y-66697400D01*
X47438559Y-67457400D02*
X47745841Y-67457400D01*
%TO.C,R12*%
X49953400Y-67002441D02*
X49953400Y-66695159D01*
X49193400Y-67002441D02*
X49193400Y-66695159D01*
%TO.C,R13*%
X117999759Y-70101000D02*
X118307041Y-70101000D01*
X117999759Y-70861000D02*
X118307041Y-70861000D01*
%TO.C,U2*%
X119067800Y-69348600D02*
X118267800Y-69348600D01*
X119067800Y-69348600D02*
X119867800Y-69348600D01*
X119067800Y-66228600D02*
X119867800Y-66228600D01*
X119067800Y-66228600D02*
X117267800Y-66228600D01*
%TO.C,R10*%
X120514359Y-70480000D02*
X120821641Y-70480000D01*
X120514359Y-69720000D02*
X120821641Y-69720000D01*
%TO.C,R95*%
X91159500Y-88516258D02*
X91159500Y-88041742D01*
X92204500Y-88516258D02*
X92204500Y-88041742D01*
%TO.C,R86*%
X118761500Y-90657258D02*
X118761500Y-90182742D01*
X119806500Y-90657258D02*
X119806500Y-90182742D01*
%TO.C,R59*%
X61192142Y-100998300D02*
X61666658Y-100998300D01*
X61192142Y-99953300D02*
X61666658Y-99953300D01*
%TO.C,U6*%
X120908000Y-127528000D02*
X120608000Y-127328000D01*
D12*
X117708000Y-126828000D02*
X118208000Y-126828000D01*
X120908000Y-126828000D02*
X120408000Y-126828000D01*
X117708000Y-123628000D02*
X118208000Y-123628000D01*
D14*
X117108000Y-123628000D02*
X117308000Y-123928000D01*
X119108000Y-127528000D02*
X120908000Y-127528000D01*
D12*
X117708000Y-124128000D02*
X117708000Y-123628000D01*
X120408000Y-123628000D02*
X120908000Y-123628000D01*
D14*
X117108000Y-125428000D02*
X117108000Y-123628000D01*
D12*
X120908000Y-123628000D02*
X120408000Y-123628000D01*
D14*
X120908000Y-127528000D02*
X120608000Y-127728000D01*
X117108000Y-123628000D02*
X116908000Y-123928000D01*
D12*
X120908000Y-126828000D02*
X120908000Y-126328000D01*
X120908000Y-123628000D02*
X120908000Y-124128000D01*
D16*
X117184200Y-127428000D02*
G75*
G03*
X117184200Y-127428000I-76200J0D01*
G01*
D14*
%TO.C,C29*%
X42888180Y-86778200D02*
X42607020Y-86778200D01*
X42888180Y-85758200D02*
X42607020Y-85758200D01*
%TO.C,C22*%
X114595420Y-111500000D02*
X114876580Y-111500000D01*
X114595420Y-112520000D02*
X114876580Y-112520000D01*
%TO.C,U9*%
X125742000Y-114712000D02*
X125742000Y-114712000D01*
X123642000Y-113612000D02*
X123842000Y-113512000D01*
X126342000Y-116312000D02*
X126242000Y-116112000D01*
X123542000Y-114712000D02*
X123542000Y-114212000D01*
X125242000Y-116412000D02*
X125242000Y-116412000D01*
X123542000Y-116412000D02*
X123542000Y-116412000D01*
X126342000Y-116312000D02*
X126442000Y-116112000D01*
X125242000Y-114212000D02*
X125742000Y-114212000D01*
X123642000Y-113612000D02*
X123842000Y-113712000D01*
X124642000Y-113612000D02*
X123642000Y-113612000D01*
X124042000Y-114212000D02*
X124042000Y-114212000D01*
X123542000Y-115912000D02*
X123542000Y-116412000D01*
X125742000Y-115912000D02*
X125742000Y-116412000D01*
X126342000Y-115312000D02*
X126342000Y-116312000D01*
X123542000Y-114212000D02*
X124042000Y-114212000D01*
X125742000Y-114212000D02*
X125742000Y-114712000D01*
X125742000Y-116412000D02*
X125242000Y-116412000D01*
D16*
X126418200Y-113612000D02*
G75*
G03*
X126418200Y-113612000I-76200J0D01*
G01*
D14*
%TO.C,R51*%
X118761500Y-86085258D02*
X118761500Y-85610742D01*
X119806500Y-86085258D02*
X119806500Y-85610742D01*
%TO.C,C15*%
X111441252Y-110713000D02*
X110918748Y-110713000D01*
X111441252Y-109243000D02*
X110918748Y-109243000D01*
%TO.C,C26*%
X120316748Y-111021000D02*
X120839252Y-111021000D01*
X120316748Y-112491000D02*
X120839252Y-112491000D01*
%TO.C,R94*%
X105414742Y-91595500D02*
X105889258Y-91595500D01*
X105414742Y-90550500D02*
X105889258Y-90550500D01*
%TO.C,R73*%
X118322869Y-142809902D02*
X117848353Y-142809902D01*
X118322869Y-143854902D02*
X117848353Y-143854902D01*
%TO.C,R68*%
X117606353Y-146043902D02*
X118080869Y-146043902D01*
X117606353Y-147088902D02*
X118080869Y-147088902D01*
%TO.C,R75*%
X112564869Y-152676902D02*
X112090353Y-152676902D01*
X112564869Y-151631902D02*
X112090353Y-151631902D01*
%TO.C,C56*%
X77510000Y-102159420D02*
X77510000Y-102440580D01*
X76490000Y-102159420D02*
X76490000Y-102440580D01*
%TO.C,R72*%
X118322869Y-142076902D02*
X117848353Y-142076902D01*
X118322869Y-141031902D02*
X117848353Y-141031902D01*
%TO.C,R26*%
X46689700Y-82926142D02*
X46689700Y-83400658D01*
X47734700Y-82926142D02*
X47734700Y-83400658D01*
%TO.C,R50*%
X110125500Y-85610742D02*
X110125500Y-86085258D01*
X111170500Y-85610742D02*
X111170500Y-86085258D01*
%TO.C,R41*%
X48616700Y-106298142D02*
X48616700Y-106772658D01*
X47571700Y-106298142D02*
X47571700Y-106772658D01*
%TO.C,R54*%
X112694500Y-81038742D02*
X112694500Y-81513258D01*
X111649500Y-81038742D02*
X111649500Y-81513258D01*
%TO.C,R43*%
X52947300Y-108756342D02*
X52947300Y-109230858D01*
X53992300Y-108756342D02*
X53992300Y-109230858D01*
%TO.C,R58*%
X114218500Y-81513258D02*
X114218500Y-81038742D01*
X113173500Y-81513258D02*
X113173500Y-81038742D01*
%TO.C,R39*%
X86598300Y-86964858D02*
X86598300Y-86490342D01*
X87643300Y-86964858D02*
X87643300Y-86490342D01*
%TO.C,R82*%
X121330500Y-90657258D02*
X121330500Y-90182742D01*
X120285500Y-90657258D02*
X120285500Y-90182742D01*
%TO.C,Q24*%
X101116000Y-85231000D02*
X101116000Y-85881000D01*
X97996000Y-85231000D02*
X97996000Y-85881000D01*
X97996000Y-85231000D02*
X97996000Y-84581000D01*
X101116000Y-85231000D02*
X101116000Y-83556000D01*
%TO.C,R40*%
X85801700Y-86487142D02*
X85801700Y-86961658D01*
X84756700Y-86487142D02*
X84756700Y-86961658D01*
%TO.C,R84*%
X112694500Y-90182742D02*
X112694500Y-90657258D01*
X111649500Y-90182742D02*
X111649500Y-90657258D01*
%TO.C,R79*%
X112694500Y-94373742D02*
X112694500Y-94848258D01*
X111649500Y-94373742D02*
X111649500Y-94848258D01*
%TO.C,U8*%
X123542000Y-126318000D02*
X123542000Y-126318000D01*
X123542000Y-124118000D02*
X124042000Y-124118000D01*
X126342000Y-126218000D02*
X126442000Y-126018000D01*
X126342000Y-126218000D02*
X126242000Y-126018000D01*
X125742000Y-124618000D02*
X125742000Y-124618000D01*
X124042000Y-124118000D02*
X124042000Y-124118000D01*
X123542000Y-124618000D02*
X123542000Y-124118000D01*
X125242000Y-124118000D02*
X125742000Y-124118000D01*
X123642000Y-123518000D02*
X123842000Y-123418000D01*
X123542000Y-125818000D02*
X123542000Y-126318000D01*
X125242000Y-126318000D02*
X125242000Y-126318000D01*
X124642000Y-123518000D02*
X123642000Y-123518000D01*
X125742000Y-125818000D02*
X125742000Y-126318000D01*
X123642000Y-123518000D02*
X123842000Y-123618000D01*
X125742000Y-126318000D02*
X125242000Y-126318000D01*
X126342000Y-125218000D02*
X126342000Y-126218000D01*
X125742000Y-124118000D02*
X125742000Y-124618000D01*
D16*
X126418200Y-123518000D02*
G75*
G03*
X126418200Y-123518000I-76200J0D01*
G01*
D14*
%TO.C,R108*%
X101573500Y-84993742D02*
X101573500Y-85468258D01*
X102618500Y-84993742D02*
X102618500Y-85468258D01*
%TO.C,R80*%
X111170500Y-94373742D02*
X111170500Y-94848258D01*
X110125500Y-94373742D02*
X110125500Y-94848258D01*
%TO.C,R81*%
X118761500Y-94848258D02*
X118761500Y-94373742D01*
X119806500Y-94848258D02*
X119806500Y-94373742D01*
%TO.C,Q7*%
X121680000Y-80576000D02*
X121680000Y-81976000D01*
X124000000Y-81976000D02*
X124000000Y-80076000D01*
%TO.C,Q5*%
X121680000Y-85148000D02*
X121680000Y-86548000D01*
X124000000Y-86548000D02*
X124000000Y-84648000D01*
D11*
%TO.C,U10*%
X42751200Y-95358400D02*
X42751200Y-89608400D01*
X42976200Y-95358400D02*
X42976200Y-96958400D01*
X42751200Y-95358400D02*
X42976200Y-95358400D01*
X51401200Y-95358400D02*
X51101200Y-95358400D01*
X42751200Y-89608400D02*
X43051200Y-89608400D01*
X51401200Y-95358400D02*
X51401200Y-89608400D01*
X51401200Y-89608400D02*
X51101200Y-89608400D01*
D14*
%TO.C,R56*%
X119806500Y-81513258D02*
X119806500Y-81038742D01*
X118761500Y-81513258D02*
X118761500Y-81038742D01*
%TO.C,R76*%
X112564869Y-154454902D02*
X112090353Y-154454902D01*
X112564869Y-153409902D02*
X112090353Y-153409902D01*
%TO.C,C24*%
X117274000Y-111388580D02*
X117274000Y-111107420D01*
X118294000Y-111388580D02*
X118294000Y-111107420D01*
%TO.C,R46*%
X45913342Y-111886700D02*
X46387858Y-111886700D01*
X45913342Y-110841700D02*
X46387858Y-110841700D01*
%TO.C,R88*%
X113173500Y-90657258D02*
X113173500Y-90182742D01*
X114218500Y-90657258D02*
X114218500Y-90182742D01*
%TO.C,R100*%
X95426500Y-99669258D02*
X95426500Y-99194742D01*
X96471500Y-99669258D02*
X96471500Y-99194742D01*
%TO.C,Q11*%
X118085611Y-137200402D02*
X118735611Y-137200402D01*
X118085611Y-140320402D02*
X117435611Y-140320402D01*
X118085611Y-140320402D02*
X118735611Y-140320402D01*
X118085611Y-137200402D02*
X116410611Y-137200402D01*
%TO.C,Q18*%
X100303000Y-97146000D02*
X100303000Y-97796000D01*
X97183000Y-97146000D02*
X97183000Y-98821000D01*
X100303000Y-97146000D02*
X100303000Y-96496000D01*
X97183000Y-97146000D02*
X97183000Y-96496000D01*
%TO.C,Q12*%
X112327611Y-147800402D02*
X112977611Y-147800402D01*
X112327611Y-147800402D02*
X110652611Y-147800402D01*
X112327611Y-150920402D02*
X112977611Y-150920402D01*
X112327611Y-150920402D02*
X111677611Y-150920402D01*
%TO.C,Q17*%
X105652000Y-90093000D02*
X106302000Y-90093000D01*
X105652000Y-86973000D02*
X106302000Y-86973000D01*
X105652000Y-86973000D02*
X103977000Y-86973000D01*
X105652000Y-90093000D02*
X105002000Y-90093000D01*
%TO.C,R98*%
X92907500Y-84969742D02*
X92907500Y-85444258D01*
X93952500Y-84969742D02*
X93952500Y-85444258D01*
%TO.C,R71*%
X117848353Y-136488902D02*
X118322869Y-136488902D01*
X117848353Y-135443902D02*
X118322869Y-135443902D01*
%TO.C,C71*%
X124362000Y-90560580D02*
X124362000Y-90279420D01*
X125382000Y-90560580D02*
X125382000Y-90279420D01*
%TO.C,R69*%
X118080869Y-152676902D02*
X117606353Y-152676902D01*
X118080869Y-151631902D02*
X117606353Y-151631902D01*
%TO.C,R24*%
X113935500Y-104660742D02*
X113935500Y-105135258D01*
X114980500Y-104660742D02*
X114980500Y-105135258D01*
%TO.C,C47*%
X124362000Y-85988580D02*
X124362000Y-85707420D01*
X125382000Y-85988580D02*
X125382000Y-85707420D01*
%TO.C,R74*%
X112090353Y-147088902D02*
X112564869Y-147088902D01*
X112090353Y-146043902D02*
X112564869Y-146043902D01*
%TO.C,R109*%
X97538500Y-85468258D02*
X97538500Y-84993742D01*
X96493500Y-85468258D02*
X96493500Y-84993742D01*
%TO.C,U5*%
X123164000Y-102866000D02*
X123164000Y-105066000D01*
X117944000Y-102866000D02*
X117944000Y-105066000D01*
X117944000Y-102866000D02*
X117944000Y-100666000D01*
X123164000Y-102866000D02*
X123164000Y-99266000D01*
%TO.C,R1*%
X68662742Y-100048500D02*
X69137258Y-100048500D01*
X68662742Y-99003500D02*
X69137258Y-99003500D01*
%TO.C,R47*%
X121330500Y-86085258D02*
X121330500Y-85610742D01*
X120285500Y-86085258D02*
X120285500Y-85610742D01*
%TO.C,C70*%
X124362000Y-94751580D02*
X124362000Y-94470420D01*
X125382000Y-94751580D02*
X125382000Y-94470420D01*
%TO.C,Q26*%
X97996000Y-90057000D02*
X97996000Y-89407000D01*
X97996000Y-90057000D02*
X97996000Y-90707000D01*
X101116000Y-90057000D02*
X101116000Y-88382000D01*
X101116000Y-90057000D02*
X101116000Y-90707000D01*
%TO.C,C1*%
X71172000Y-102362420D02*
X71172000Y-102643580D01*
X72192000Y-102362420D02*
X72192000Y-102643580D01*
%TO.C,C23*%
X118294000Y-121294580D02*
X118294000Y-121013420D01*
X117274000Y-121294580D02*
X117274000Y-121013420D01*
%TO.C,R20*%
X124349500Y-101071258D02*
X124349500Y-100596742D01*
X125394500Y-101071258D02*
X125394500Y-100596742D01*
%TO.C,R64*%
X73992142Y-101872300D02*
X74466658Y-101872300D01*
X73992142Y-100827300D02*
X74466658Y-100827300D01*
%TO.C,Q15*%
X124000000Y-91120000D02*
X124000000Y-89220000D01*
X121680000Y-89720000D02*
X121680000Y-91120000D01*
%TO.C,R23*%
X113202500Y-104660742D02*
X113202500Y-105135258D01*
X112157500Y-104660742D02*
X112157500Y-105135258D01*
%TO.C,C19*%
X110674000Y-125612580D02*
X110674000Y-125331420D01*
X109654000Y-125612580D02*
X109654000Y-125331420D01*
%TO.C,C16*%
X125382000Y-105038580D02*
X125382000Y-104757420D01*
X124362000Y-105038580D02*
X124362000Y-104757420D01*
%TO.C,R85*%
X110125500Y-90182742D02*
X110125500Y-90657258D01*
X111170500Y-90182742D02*
X111170500Y-90657258D01*
%TO.C,C17*%
X111574580Y-122426000D02*
X111293420Y-122426000D01*
X111574580Y-121406000D02*
X111293420Y-121406000D01*
%TO.C,R89*%
X106143258Y-86515500D02*
X105668742Y-86515500D01*
X106143258Y-85470500D02*
X105668742Y-85470500D01*
%TO.C,R101*%
X100899500Y-94463742D02*
X100899500Y-94938258D01*
X101944500Y-94463742D02*
X101944500Y-94938258D01*
%TO.C,R87*%
X114218500Y-94848258D02*
X114218500Y-94373742D01*
X113173500Y-94848258D02*
X113173500Y-94373742D01*
%TO.C,R2*%
X68662742Y-101572500D02*
X69137258Y-101572500D01*
X68662742Y-100527500D02*
X69137258Y-100527500D01*
%TO.C,R48*%
X114697500Y-85610742D02*
X114697500Y-86085258D01*
X115742500Y-85610742D02*
X115742500Y-86085258D01*
%TO.C,R22*%
X116758500Y-104660742D02*
X116758500Y-105135258D01*
X115713500Y-104660742D02*
X115713500Y-105135258D01*
%TO.C,C28*%
X124782580Y-113028000D02*
X124501420Y-113028000D01*
X124782580Y-112008000D02*
X124501420Y-112008000D01*
%TO.C,R27*%
X45908700Y-82976142D02*
X45908700Y-83450658D01*
X44863700Y-82976142D02*
X44863700Y-83450658D01*
D13*
%TO.C,U3*%
X114366000Y-123668000D02*
X115016000Y-123668000D01*
X111916000Y-123668000D02*
X112566000Y-123668000D01*
D14*
X115866000Y-123618000D02*
X115966000Y-123918000D01*
D13*
X115016000Y-126768000D02*
X115016000Y-126618000D01*
D14*
X115066000Y-122918000D02*
X114766000Y-123018000D01*
D13*
X111916000Y-123818000D02*
X111916000Y-123668000D01*
D14*
X114766000Y-122818000D02*
X115066000Y-122918000D01*
D13*
X111916000Y-126768000D02*
X112566000Y-126768000D01*
X111916000Y-126618000D02*
X111916000Y-126768000D01*
D14*
X115766000Y-123918000D02*
X115866000Y-123618000D01*
X113466000Y-122918000D02*
X115066000Y-122918000D01*
X115866000Y-125218000D02*
X115866000Y-123618000D01*
D13*
X114366000Y-126768000D02*
X115016000Y-126768000D01*
X115016000Y-123668000D02*
X115016000Y-123818000D01*
D16*
X115842200Y-122918000D02*
G75*
G03*
X115842200Y-122918000I-76200J0D01*
G01*
D12*
X111516000Y-124218000D02*
G75*
G03*
X111516000Y-124218000I-50000J0D01*
G01*
D14*
%TO.C,R44*%
X106143258Y-83692500D02*
X105668742Y-83692500D01*
X106143258Y-84737500D02*
X105668742Y-84737500D01*
%TO.C,U7*%
X117108000Y-115512000D02*
X117108000Y-113712000D01*
D12*
X117708000Y-114212000D02*
X117708000Y-113712000D01*
D14*
X117108000Y-113712000D02*
X117308000Y-114012000D01*
D12*
X120908000Y-113712000D02*
X120908000Y-114212000D01*
D14*
X117108000Y-113712000D02*
X116908000Y-114012000D01*
D12*
X117708000Y-113712000D02*
X118208000Y-113712000D01*
D14*
X120908000Y-117612000D02*
X120608000Y-117412000D01*
D12*
X120908000Y-116912000D02*
X120408000Y-116912000D01*
D14*
X120908000Y-117612000D02*
X120608000Y-117812000D01*
X119108000Y-117612000D02*
X120908000Y-117612000D01*
D12*
X120408000Y-113712000D02*
X120908000Y-113712000D01*
X120908000Y-113712000D02*
X120408000Y-113712000D01*
X117708000Y-116912000D02*
X118208000Y-116912000D01*
X120908000Y-116912000D02*
X120908000Y-116412000D01*
D16*
X117184200Y-117512000D02*
G75*
G03*
X117184200Y-117512000I-76200J0D01*
G01*
D14*
%TO.C,R49*%
X111649500Y-85610742D02*
X111649500Y-86085258D01*
X112694500Y-85610742D02*
X112694500Y-86085258D01*
%TO.C,R18*%
X112157500Y-101071258D02*
X112157500Y-100596742D01*
X113202500Y-101071258D02*
X113202500Y-100596742D01*
%TO.C,R78*%
X115742500Y-94373742D02*
X115742500Y-94848258D01*
X114697500Y-94373742D02*
X114697500Y-94848258D01*
%TO.C,R55*%
X110125500Y-81038742D02*
X110125500Y-81513258D01*
X111170500Y-81038742D02*
X111170500Y-81513258D01*
%TO.C,C48*%
X125382000Y-81416580D02*
X125382000Y-81135420D01*
X124362000Y-81416580D02*
X124362000Y-81135420D01*
D17*
%TO.C,J5*%
X103270000Y-160973002D02*
X103270000Y-159573002D01*
X104420000Y-157723002D02*
X106970000Y-157723002D01*
X115670000Y-160973002D02*
X115670000Y-159573002D01*
X103270000Y-160973002D02*
X104320000Y-160973002D01*
X106970000Y-157723002D02*
X106970000Y-156523002D01*
X115670000Y-160973002D02*
X114620000Y-160973002D01*
X114520000Y-157723002D02*
X111970000Y-157723002D01*
X111970000Y-157723002D02*
X111970000Y-156523002D01*
X106970000Y-156523002D02*
X111970000Y-156523002D01*
X104070000Y-161898002D02*
G75*
G03*
X104070000Y-161898002I-100000J0D01*
G01*
D14*
%TO.C,R25*%
X42997700Y-100086658D02*
X42997700Y-99612142D01*
X44042700Y-100086658D02*
X44042700Y-99612142D01*
%TO.C,C21*%
X114595420Y-122426000D02*
X114876580Y-122426000D01*
X114595420Y-121406000D02*
X114876580Y-121406000D01*
%TO.C,C14*%
X111441252Y-119149000D02*
X110918748Y-119149000D01*
X111441252Y-120619000D02*
X110918748Y-120619000D01*
%TO.C,C27*%
X124782580Y-122934000D02*
X124501420Y-122934000D01*
X124782580Y-121914000D02*
X124501420Y-121914000D01*
%TO.C,R66*%
X112560869Y-140977902D02*
X112086353Y-140977902D01*
X112560869Y-142022902D02*
X112086353Y-142022902D01*
%TO.C,R63*%
X73992142Y-99303300D02*
X74466658Y-99303300D01*
X73992142Y-100348300D02*
X74466658Y-100348300D01*
%TO.C,R16*%
X110379500Y-104660742D02*
X110379500Y-105135258D01*
X111424500Y-104660742D02*
X111424500Y-105135258D01*
%TO.C,R60*%
X61192142Y-102522300D02*
X61666658Y-102522300D01*
X61192142Y-101477300D02*
X61666658Y-101477300D01*
D13*
%TO.C,U4*%
X111916000Y-116862000D02*
X112566000Y-116862000D01*
X114366000Y-113762000D02*
X115016000Y-113762000D01*
D14*
X115766000Y-114012000D02*
X115866000Y-113712000D01*
D13*
X111916000Y-113912000D02*
X111916000Y-113762000D01*
D14*
X115866000Y-113712000D02*
X115966000Y-114012000D01*
X115066000Y-113012000D02*
X114766000Y-113112000D01*
X113466000Y-113012000D02*
X115066000Y-113012000D01*
D13*
X111916000Y-113762000D02*
X112566000Y-113762000D01*
X114366000Y-116862000D02*
X115016000Y-116862000D01*
X111916000Y-116712000D02*
X111916000Y-116862000D01*
D14*
X114766000Y-112912000D02*
X115066000Y-113012000D01*
X115866000Y-115312000D02*
X115866000Y-113712000D01*
D13*
X115016000Y-116862000D02*
X115016000Y-116712000D01*
X115016000Y-113762000D02*
X115016000Y-113912000D01*
D16*
X115842200Y-113012000D02*
G75*
G03*
X115842200Y-113012000I-76200J0D01*
G01*
D12*
X111516000Y-114312000D02*
G75*
G03*
X111516000Y-114312000I-50000J0D01*
G01*
D14*
%TO.C,Q10*%
X117843611Y-150920402D02*
X117193611Y-150920402D01*
X117843611Y-150920402D02*
X118493611Y-150920402D01*
X117843611Y-147800402D02*
X118493611Y-147800402D01*
X117843611Y-147800402D02*
X116168611Y-147800402D01*
%TO.C,R42*%
X80191342Y-84049700D02*
X80665858Y-84049700D01*
X80191342Y-85094700D02*
X80665858Y-85094700D01*
%TO.C,R17*%
X111424500Y-101071258D02*
X111424500Y-100596742D01*
X110379500Y-101071258D02*
X110379500Y-100596742D01*
D17*
%TO.C,J1*%
X89315000Y-109669000D02*
X90365000Y-109669000D01*
X100565000Y-106419000D02*
X98015000Y-106419000D01*
X93015000Y-106419000D02*
X93015000Y-105219000D01*
X89315000Y-109669000D02*
X89315000Y-108269000D01*
X90465000Y-106419000D02*
X93015000Y-106419000D01*
X101715000Y-109669000D02*
X100665000Y-109669000D01*
X101715000Y-109669000D02*
X101715000Y-108269000D01*
X93015000Y-105219000D02*
X98015000Y-105219000D01*
X98015000Y-106419000D02*
X98015000Y-105219000D01*
X90115000Y-110594000D02*
G75*
G03*
X90115000Y-110594000I-100000J0D01*
G01*
D14*
%TO.C,R35*%
X69608658Y-85222300D02*
X69134142Y-85222300D01*
X69608658Y-84177300D02*
X69134142Y-84177300D01*
%TO.C,R52*%
X121330500Y-81513258D02*
X121330500Y-81038742D01*
X120285500Y-81513258D02*
X120285500Y-81038742D01*
%TO.C,Q9*%
X112323611Y-140266402D02*
X112973611Y-140266402D01*
X112323611Y-140266402D02*
X111673611Y-140266402D01*
X112323611Y-137146402D02*
X112973611Y-137146402D01*
X112323611Y-137146402D02*
X110648611Y-137146402D01*
%TO.C,R3*%
X68662742Y-102051500D02*
X69137258Y-102051500D01*
X68662742Y-103096500D02*
X69137258Y-103096500D01*
%TO.C,Q19*%
X106412000Y-100693000D02*
X106412000Y-97243000D01*
X101292000Y-100693000D02*
X101292000Y-102643000D01*
X106412000Y-100693000D02*
X106412000Y-102643000D01*
X101292000Y-100693000D02*
X101292000Y-98743000D01*
%TO.C,R97*%
X91159500Y-84993742D02*
X91159500Y-85468258D01*
X92204500Y-84993742D02*
X92204500Y-85468258D01*
%TO.C,R77*%
X120285500Y-94848258D02*
X120285500Y-94373742D01*
X121330500Y-94848258D02*
X121330500Y-94373742D01*
%TO.C,Q8*%
X116092000Y-80576000D02*
X116092000Y-81976000D01*
X118412000Y-81976000D02*
X118412000Y-80076000D01*
%TO.C,R110*%
X94715500Y-85468258D02*
X94715500Y-84993742D01*
X95760500Y-85468258D02*
X95760500Y-84993742D01*
%TO.C,R67*%
X112560869Y-142755902D02*
X112086353Y-142755902D01*
X112560869Y-143800902D02*
X112086353Y-143800902D01*
%TO.C,Q6*%
X118412000Y-86548000D02*
X118412000Y-84648000D01*
X116092000Y-85148000D02*
X116092000Y-86548000D01*
%TO.C,R70*%
X118080869Y-153409902D02*
X117606353Y-153409902D01*
X118080869Y-154454902D02*
X117606353Y-154454902D01*
%TO.C,R114*%
X102618500Y-89819742D02*
X102618500Y-90294258D01*
X101573500Y-89819742D02*
X101573500Y-90294258D01*
%TO.C,C20*%
X110674000Y-115706580D02*
X110674000Y-115425420D01*
X109654000Y-115706580D02*
X109654000Y-115425420D01*
%TO.C,R116*%
X94715500Y-90294258D02*
X94715500Y-89819742D01*
X95760500Y-90294258D02*
X95760500Y-89819742D01*
%TO.C,R65*%
X112086353Y-136434902D02*
X112560869Y-136434902D01*
X112086353Y-135389902D02*
X112560869Y-135389902D01*
%TO.C,R62*%
X73992142Y-97779300D02*
X74466658Y-97779300D01*
X73992142Y-98824300D02*
X74466658Y-98824300D01*
%TO.C,R96*%
X93982500Y-88516258D02*
X93982500Y-88041742D01*
X92937500Y-88516258D02*
X92937500Y-88041742D01*
%TO.C,R83*%
X114697500Y-90182742D02*
X114697500Y-90657258D01*
X115742500Y-90182742D02*
X115742500Y-90657258D01*
%TO.C,C49*%
X63911000Y-102195420D02*
X63911000Y-102476580D01*
X64931000Y-102195420D02*
X64931000Y-102476580D01*
%TO.C,Q13*%
X124000000Y-95311000D02*
X124000000Y-93411000D01*
X121680000Y-93911000D02*
X121680000Y-95311000D01*
%TO.C,U24*%
X52876000Y-162410000D02*
X52876000Y-117410000D01*
X107876000Y-150410000D02*
X97876000Y-150410000D01*
X97876000Y-117410000D02*
X52876000Y-117410000D01*
X97876000Y-136410000D02*
X107876000Y-136410000D01*
X73376000Y-151910000D02*
X59876000Y-151910000D01*
X73376000Y-155910000D02*
X73376000Y-151910000D01*
X97876000Y-162410000D02*
X52876000Y-162410000D01*
X107876000Y-150410000D02*
X107876000Y-136410000D01*
X59876000Y-155910000D02*
X73376000Y-155910000D01*
X97876000Y-162410000D02*
X97876000Y-117410000D01*
X59876000Y-151910000D02*
X59876000Y-155910000D01*
D18*
X72376000Y-157410000D02*
G75*
G03*
X72376000Y-157410000I-250000J0D01*
G01*
D14*
%TO.C,C25*%
X120316748Y-122397000D02*
X120839252Y-122397000D01*
X120316748Y-120927000D02*
X120839252Y-120927000D01*
%TO.C,Q16*%
X118412000Y-91120000D02*
X118412000Y-89220000D01*
X116092000Y-89720000D02*
X116092000Y-91120000D01*
%TO.C,R61*%
X61192142Y-104046300D02*
X61666658Y-104046300D01*
X61192142Y-103001300D02*
X61666658Y-103001300D01*
%TO.C,R57*%
X113173500Y-86085258D02*
X113173500Y-85610742D01*
X114218500Y-86085258D02*
X114218500Y-85610742D01*
%TO.C,C18*%
X111574580Y-112520000D02*
X111293420Y-112520000D01*
X111574580Y-111500000D02*
X111293420Y-111500000D01*
%TO.C,Q14*%
X116092000Y-93911000D02*
X116092000Y-95311000D01*
X118412000Y-95311000D02*
X118412000Y-93411000D01*
%TO.C,R19*%
X115713500Y-101071258D02*
X115713500Y-100596742D01*
X116758500Y-101071258D02*
X116758500Y-100596742D01*
%TO.C,R115*%
X96493500Y-90294258D02*
X96493500Y-89819742D01*
X97538500Y-90294258D02*
X97538500Y-89819742D01*
%TO.C,R53*%
X115742500Y-81038742D02*
X115742500Y-81513258D01*
X114697500Y-81038742D02*
X114697500Y-81513258D01*
%TO.C,R99*%
X98505742Y-99925500D02*
X98980258Y-99925500D01*
X98505742Y-100970500D02*
X98980258Y-100970500D01*
%TO.C,R45*%
X47513342Y-113760700D02*
X47987858Y-113760700D01*
X47513342Y-112715700D02*
X47987858Y-112715700D01*
%TO.C,R21*%
X113935500Y-101071258D02*
X113935500Y-100596742D01*
X114980500Y-101071258D02*
X114980500Y-100596742D01*
%TD*%
M02*
