M48
; DRILL file {KiCad (6.0.1-0)} date Tuesday, February 08, 2022 at 04:02:58 PM
; FORMAT={-:-/ absolute / inch / decimal}
; #@! TF.CreationDate,2022-02-08T16:02:58-05:00
; #@! TF.GenerationSoftware,Kicad,Pcbnew,(6.0.1-0)
; #@! TF.FileFunction,Plated,1,4,PTH
FMAT,2
INCH
; #@! TA.AperFunction,Plated,PTH,ViaDrill
T1C0.0060
; #@! TA.AperFunction,Plated,PTH,ViaDrill
T2C0.0100
; #@! TA.AperFunction,Plated,PTH,ViaDrill
T3C0.0157
; #@! TA.AperFunction,Plated,PTH,ComponentDrill
T4C0.0320
; #@! TA.AperFunction,Plated,PTH,ComponentDrill
T5C0.0402
; #@! TA.AperFunction,Plated,PTH,ComponentDrill
T6C0.1250
%
G90
G05
T1
X0.045Y0.255
X0.09Y3.58
X0.274Y3.834
X0.328Y3.905
X0.3975Y3.865
X0.4825Y3.76
X0.5075Y3.859
X0.535Y3.81
X3.01Y3.8175
X3.1299Y3.6551
X3.495Y3.575
X3.5Y0.26
T2
X2.9675Y3.715
X3.1075Y3.815
X3.18Y3.8275
T3
X0.4646Y3.687
X0.9528Y3.5807
X1.0Y3.6102
X1.0Y3.5531
X1.0663Y3.6372
X1.1181Y3.5807
X1.1535Y3.6102
X1.1535Y3.5531
X1.3583Y1.3976
X1.378Y2.0669
X1.3996Y1.655
X1.4764Y3.6614
X1.5197Y3.5531
X1.5551Y1.8898
X1.6339Y1.3976
X1.6752Y1.655
X1.685Y3.5531
X1.6969Y3.6614
X1.7382Y3.6614
X1.9094Y1.3976
X1.9469Y3.6614
X1.9508Y1.655
X2.0112Y3.6621
X2.185Y1.3976
X2.2264Y1.655
X2.5157Y3.6752
T4
X1.6535Y0.4134
X1.6535Y0.3346
X1.7323Y0.4134
X1.7323Y0.3346
X1.811Y0.4134
X1.811Y0.3346
X1.8898Y0.4134
X1.8898Y0.3346
X1.9685Y0.4134
X1.9685Y0.3346
T5
X1.376Y0.449
X1.526Y0.449
X1.526Y0.299
X2.0961Y0.449
X2.0961Y0.299
X2.2461Y0.449
T6
X0.2Y0.2
X0.3496Y3.5752
X3.2496Y3.5752
X3.3496Y0.2
T0
M30
