%TF.GenerationSoftware,KiCad,Pcbnew,(6.0.5)*%
%TF.CreationDate,2022-05-20T09:36:28-04:00*%
%TF.ProjectId,FP Interface Card,46502049-6e74-4657-9266-616365204361,rev?*%
%TF.SameCoordinates,Original*%
%TF.FileFunction,Legend,Bot*%
%TF.FilePolarity,Positive*%
%FSLAX46Y46*%
G04 Gerber Fmt 4.6, Leading zero omitted, Abs format (unit mm)*
G04 Created by KiCad (PCBNEW (6.0.5)) date 2022-05-20 09:36:28*
%MOMM*%
%LPD*%
G01*
G04 APERTURE LIST*
%ADD10C,0.300000*%
%ADD11C,0.090932*%
%ADD12C,0.150000*%
%ADD13C,0.100000*%
%ADD14C,0.120000*%
%ADD15C,0.060000*%
%ADD16C,0.200000*%
G04 APERTURE END LIST*
D10*
X120791714Y-120976357D02*
X121291714Y-120976357D01*
X121291714Y-121762071D02*
X121291714Y-120262071D01*
X120577428Y-120262071D01*
X119791714Y-121762071D02*
X119934571Y-121690642D01*
X120006000Y-121619214D01*
X120077428Y-121476357D01*
X120077428Y-121047785D01*
X120006000Y-120904928D01*
X119934571Y-120833500D01*
X119791714Y-120762071D01*
X119577428Y-120762071D01*
X119434571Y-120833500D01*
X119363142Y-120904928D01*
X119291714Y-121047785D01*
X119291714Y-121476357D01*
X119363142Y-121619214D01*
X119434571Y-121690642D01*
X119577428Y-121762071D01*
X119791714Y-121762071D01*
X118648857Y-121762071D02*
X118648857Y-120762071D01*
X118648857Y-121047785D02*
X118577428Y-120904928D01*
X118506000Y-120833500D01*
X118363142Y-120762071D01*
X118220285Y-120762071D01*
X117077428Y-121762071D02*
X117077428Y-120976357D01*
X117148857Y-120833500D01*
X117291714Y-120762071D01*
X117577428Y-120762071D01*
X117720285Y-120833500D01*
X117077428Y-121690642D02*
X117220285Y-121762071D01*
X117577428Y-121762071D01*
X117720285Y-121690642D01*
X117791714Y-121547785D01*
X117791714Y-121404928D01*
X117720285Y-121262071D01*
X117577428Y-121190642D01*
X117220285Y-121190642D01*
X117077428Y-121119214D01*
X116434571Y-121690642D02*
X116291714Y-121762071D01*
X116006000Y-121762071D01*
X115863142Y-121690642D01*
X115791714Y-121547785D01*
X115791714Y-121476357D01*
X115863142Y-121333500D01*
X116006000Y-121262071D01*
X116220285Y-121262071D01*
X116363142Y-121190642D01*
X116434571Y-121047785D01*
X116434571Y-120976357D01*
X116363142Y-120833500D01*
X116220285Y-120762071D01*
X116006000Y-120762071D01*
X115863142Y-120833500D01*
X114006000Y-121762071D02*
X114006000Y-120262071D01*
X113434571Y-120262071D01*
X113291714Y-120333500D01*
X113220285Y-120404928D01*
X113148857Y-120547785D01*
X113148857Y-120762071D01*
X113220285Y-120904928D01*
X113291714Y-120976357D01*
X113434571Y-121047785D01*
X114006000Y-121047785D01*
X112506000Y-121762071D02*
X112506000Y-120762071D01*
X112506000Y-121047785D02*
X112434571Y-120904928D01*
X112363142Y-120833500D01*
X112220285Y-120762071D01*
X112077428Y-120762071D01*
X111363142Y-121762071D02*
X111506000Y-121690642D01*
X111577428Y-121619214D01*
X111648857Y-121476357D01*
X111648857Y-121047785D01*
X111577428Y-120904928D01*
X111506000Y-120833500D01*
X111363142Y-120762071D01*
X111148857Y-120762071D01*
X111006000Y-120833500D01*
X110934571Y-120904928D01*
X110863142Y-121047785D01*
X110863142Y-121476357D01*
X110934571Y-121619214D01*
X111006000Y-121690642D01*
X111148857Y-121762071D01*
X111363142Y-121762071D01*
X110220285Y-121762071D02*
X110220285Y-120762071D01*
X110220285Y-120904928D02*
X110148857Y-120833500D01*
X110006000Y-120762071D01*
X109791714Y-120762071D01*
X109648857Y-120833500D01*
X109577428Y-120976357D01*
X109577428Y-121762071D01*
X109577428Y-120976357D02*
X109506000Y-120833500D01*
X109363142Y-120762071D01*
X109148857Y-120762071D01*
X109006000Y-120833500D01*
X108934571Y-120976357D01*
X108934571Y-121762071D01*
X108220285Y-121762071D02*
X108220285Y-120762071D01*
X108220285Y-120262071D02*
X108291714Y-120333500D01*
X108220285Y-120404928D01*
X108148857Y-120333500D01*
X108220285Y-120262071D01*
X108220285Y-120404928D01*
X107506000Y-120762071D02*
X107506000Y-121762071D01*
X107506000Y-120904928D02*
X107434571Y-120833500D01*
X107291714Y-120762071D01*
X107077428Y-120762071D01*
X106934571Y-120833500D01*
X106863142Y-120976357D01*
X106863142Y-121762071D01*
X105577428Y-121690642D02*
X105720285Y-121762071D01*
X106006000Y-121762071D01*
X106148857Y-121690642D01*
X106220285Y-121547785D01*
X106220285Y-120976357D01*
X106148857Y-120833500D01*
X106006000Y-120762071D01*
X105720285Y-120762071D01*
X105577428Y-120833500D01*
X105506000Y-120976357D01*
X105506000Y-121119214D01*
X106220285Y-121262071D01*
X104648857Y-121762071D02*
X104791714Y-121690642D01*
X104863142Y-121619214D01*
X104934571Y-121476357D01*
X104934571Y-121047785D01*
X104863142Y-120904928D01*
X104791714Y-120833500D01*
X104648857Y-120762071D01*
X104434571Y-120762071D01*
X104291714Y-120833500D01*
X104220285Y-120904928D01*
X104148857Y-121047785D01*
X104148857Y-121476357D01*
X104220285Y-121619214D01*
X104291714Y-121690642D01*
X104434571Y-121762071D01*
X104648857Y-121762071D01*
X126184571Y-124177071D02*
X126184571Y-122677071D01*
X125613142Y-122677071D01*
X125470285Y-122748500D01*
X125398857Y-122819928D01*
X125327428Y-122962785D01*
X125327428Y-123177071D01*
X125398857Y-123319928D01*
X125470285Y-123391357D01*
X125613142Y-123462785D01*
X126184571Y-123462785D01*
X124041714Y-124177071D02*
X124041714Y-123391357D01*
X124113142Y-123248500D01*
X124256000Y-123177071D01*
X124541714Y-123177071D01*
X124684571Y-123248500D01*
X124041714Y-124105642D02*
X124184571Y-124177071D01*
X124541714Y-124177071D01*
X124684571Y-124105642D01*
X124756000Y-123962785D01*
X124756000Y-123819928D01*
X124684571Y-123677071D01*
X124541714Y-123605642D01*
X124184571Y-123605642D01*
X124041714Y-123534214D01*
X123470285Y-123177071D02*
X123113142Y-124177071D01*
X122756000Y-123177071D02*
X123113142Y-124177071D01*
X123256000Y-124534214D01*
X123327428Y-124605642D01*
X123470285Y-124677071D01*
X121970285Y-124177071D02*
X122113142Y-124105642D01*
X122184571Y-123962785D01*
X122184571Y-122677071D01*
X121184571Y-124177071D02*
X121327428Y-124105642D01*
X121398857Y-124034214D01*
X121470285Y-123891357D01*
X121470285Y-123462785D01*
X121398857Y-123319928D01*
X121327428Y-123248500D01*
X121184571Y-123177071D01*
X120970285Y-123177071D01*
X120827428Y-123248500D01*
X120756000Y-123319928D01*
X120684571Y-123462785D01*
X120684571Y-123891357D01*
X120756000Y-124034214D01*
X120827428Y-124105642D01*
X120970285Y-124177071D01*
X121184571Y-124177071D01*
X119398857Y-124177071D02*
X119398857Y-123391357D01*
X119470285Y-123248500D01*
X119613142Y-123177071D01*
X119898857Y-123177071D01*
X120041714Y-123248500D01*
X119398857Y-124105642D02*
X119541714Y-124177071D01*
X119898857Y-124177071D01*
X120041714Y-124105642D01*
X120113142Y-123962785D01*
X120113142Y-123819928D01*
X120041714Y-123677071D01*
X119898857Y-123605642D01*
X119541714Y-123605642D01*
X119398857Y-123534214D01*
X118041714Y-124177071D02*
X118041714Y-122677071D01*
X118041714Y-124105642D02*
X118184571Y-124177071D01*
X118470285Y-124177071D01*
X118613142Y-124105642D01*
X118684571Y-124034214D01*
X118756000Y-123891357D01*
X118756000Y-123462785D01*
X118684571Y-123319928D01*
X118613142Y-123248500D01*
X118470285Y-123177071D01*
X118184571Y-123177071D01*
X118041714Y-123248500D01*
X116184571Y-124177071D02*
X116184571Y-122677071D01*
X115470285Y-123177071D02*
X115470285Y-124177071D01*
X115470285Y-123319928D02*
X115398857Y-123248500D01*
X115256000Y-123177071D01*
X115041714Y-123177071D01*
X114898857Y-123248500D01*
X114827428Y-123391357D01*
X114827428Y-124177071D01*
X114327428Y-123177071D02*
X113756000Y-123177071D01*
X114113142Y-122677071D02*
X114113142Y-123962785D01*
X114041714Y-124105642D01*
X113898857Y-124177071D01*
X113756000Y-124177071D01*
X112684571Y-124105642D02*
X112827428Y-124177071D01*
X113113142Y-124177071D01*
X113256000Y-124105642D01*
X113327428Y-123962785D01*
X113327428Y-123391357D01*
X113256000Y-123248500D01*
X113113142Y-123177071D01*
X112827428Y-123177071D01*
X112684571Y-123248500D01*
X112613142Y-123391357D01*
X112613142Y-123534214D01*
X113327428Y-123677071D01*
X111970285Y-124177071D02*
X111970285Y-123177071D01*
X111970285Y-123462785D02*
X111898857Y-123319928D01*
X111827428Y-123248500D01*
X111684571Y-123177071D01*
X111541714Y-123177071D01*
X111256000Y-123177071D02*
X110684571Y-123177071D01*
X111041714Y-124177071D02*
X111041714Y-122891357D01*
X110970285Y-122748500D01*
X110827428Y-122677071D01*
X110684571Y-122677071D01*
X109541714Y-124177071D02*
X109541714Y-123391357D01*
X109613142Y-123248500D01*
X109756000Y-123177071D01*
X110041714Y-123177071D01*
X110184571Y-123248500D01*
X109541714Y-124105642D02*
X109684571Y-124177071D01*
X110041714Y-124177071D01*
X110184571Y-124105642D01*
X110256000Y-123962785D01*
X110256000Y-123819928D01*
X110184571Y-123677071D01*
X110041714Y-123605642D01*
X109684571Y-123605642D01*
X109541714Y-123534214D01*
X108184571Y-124105642D02*
X108327428Y-124177071D01*
X108613142Y-124177071D01*
X108756000Y-124105642D01*
X108827428Y-124034214D01*
X108898857Y-123891357D01*
X108898857Y-123462785D01*
X108827428Y-123319928D01*
X108756000Y-123248500D01*
X108613142Y-123177071D01*
X108327428Y-123177071D01*
X108184571Y-123248500D01*
X106970285Y-124105642D02*
X107113142Y-124177071D01*
X107398857Y-124177071D01*
X107541714Y-124105642D01*
X107613142Y-123962785D01*
X107613142Y-123391357D01*
X107541714Y-123248500D01*
X107398857Y-123177071D01*
X107113142Y-123177071D01*
X106970285Y-123248500D01*
X106898857Y-123391357D01*
X106898857Y-123534214D01*
X107613142Y-123677071D01*
X104613142Y-123391357D02*
X104398857Y-123462785D01*
X104327428Y-123534214D01*
X104256000Y-123677071D01*
X104256000Y-123891357D01*
X104327428Y-124034214D01*
X104398857Y-124105642D01*
X104541714Y-124177071D01*
X105113142Y-124177071D01*
X105113142Y-122677071D01*
X104613142Y-122677071D01*
X104470285Y-122748500D01*
X104398857Y-122819928D01*
X104327428Y-122962785D01*
X104327428Y-123105642D01*
X104398857Y-123248500D01*
X104470285Y-123319928D01*
X104613142Y-123391357D01*
X105113142Y-123391357D01*
X103398857Y-124177071D02*
X103541714Y-124105642D01*
X103613142Y-124034214D01*
X103684571Y-123891357D01*
X103684571Y-123462785D01*
X103613142Y-123319928D01*
X103541714Y-123248500D01*
X103398857Y-123177071D01*
X103184571Y-123177071D01*
X103041714Y-123248500D01*
X102970285Y-123319928D01*
X102898857Y-123462785D01*
X102898857Y-123891357D01*
X102970285Y-124034214D01*
X103041714Y-124105642D01*
X103184571Y-124177071D01*
X103398857Y-124177071D01*
X101613142Y-124177071D02*
X101613142Y-123391357D01*
X101684571Y-123248500D01*
X101827428Y-123177071D01*
X102113142Y-123177071D01*
X102256000Y-123248500D01*
X101613142Y-124105642D02*
X101756000Y-124177071D01*
X102113142Y-124177071D01*
X102256000Y-124105642D01*
X102327428Y-123962785D01*
X102327428Y-123819928D01*
X102256000Y-123677071D01*
X102113142Y-123605642D01*
X101756000Y-123605642D01*
X101613142Y-123534214D01*
X100898857Y-124177071D02*
X100898857Y-123177071D01*
X100898857Y-123462785D02*
X100827428Y-123319928D01*
X100756000Y-123248500D01*
X100613142Y-123177071D01*
X100470285Y-123177071D01*
X99327428Y-124177071D02*
X99327428Y-122677071D01*
X99327428Y-124105642D02*
X99470285Y-124177071D01*
X99756000Y-124177071D01*
X99898857Y-124105642D01*
X99970285Y-124034214D01*
X100041714Y-123891357D01*
X100041714Y-123462785D01*
X99970285Y-123319928D01*
X99898857Y-123248500D01*
X99756000Y-123177071D01*
X99470285Y-123177071D01*
X99327428Y-123248500D01*
X115541714Y-126449214D02*
X115613142Y-126520642D01*
X115827428Y-126592071D01*
X115970285Y-126592071D01*
X116184571Y-126520642D01*
X116327428Y-126377785D01*
X116398857Y-126234928D01*
X116470285Y-125949214D01*
X116470285Y-125734928D01*
X116398857Y-125449214D01*
X116327428Y-125306357D01*
X116184571Y-125163500D01*
X115970285Y-125092071D01*
X115827428Y-125092071D01*
X115613142Y-125163500D01*
X115541714Y-125234928D01*
X114898857Y-126449214D02*
X114827428Y-126520642D01*
X114898857Y-126592071D01*
X114970285Y-126520642D01*
X114898857Y-126449214D01*
X114898857Y-126592071D01*
X114184571Y-126592071D02*
X114184571Y-125092071D01*
X114184571Y-125806357D02*
X113327428Y-125806357D01*
X113327428Y-126592071D02*
X113327428Y-125092071D01*
X112613142Y-126592071D02*
X112613142Y-125592071D01*
X112613142Y-125092071D02*
X112684571Y-125163500D01*
X112613142Y-125234928D01*
X112541714Y-125163500D01*
X112613142Y-125092071D01*
X112613142Y-125234928D01*
X111684571Y-126592071D02*
X111827428Y-126520642D01*
X111898857Y-126377785D01*
X111898857Y-125092071D01*
X110898857Y-126592071D02*
X111041714Y-126520642D01*
X111113142Y-126377785D01*
X111113142Y-125092071D01*
X110327428Y-126592071D02*
X110327428Y-125592071D01*
X110327428Y-125092071D02*
X110398857Y-125163500D01*
X110327428Y-125234928D01*
X110256000Y-125163500D01*
X110327428Y-125092071D01*
X110327428Y-125234928D01*
X109684571Y-126520642D02*
X109541714Y-126592071D01*
X109256000Y-126592071D01*
X109113142Y-126520642D01*
X109041714Y-126377785D01*
X109041714Y-126306357D01*
X109113142Y-126163500D01*
X109256000Y-126092071D01*
X109470285Y-126092071D01*
X109613142Y-126020642D01*
X109684571Y-125877785D01*
X109684571Y-125806357D01*
X109613142Y-125663500D01*
X109470285Y-125592071D01*
X109256000Y-125592071D01*
X109113142Y-125663500D01*
X115398857Y-127649928D02*
X115327428Y-127578500D01*
X115184571Y-127507071D01*
X114827428Y-127507071D01*
X114684571Y-127578500D01*
X114613142Y-127649928D01*
X114541714Y-127792785D01*
X114541714Y-127935642D01*
X114613142Y-128149928D01*
X115470285Y-129007071D01*
X114541714Y-129007071D01*
X112827428Y-127435642D02*
X114113142Y-129364214D01*
X112398857Y-127649928D02*
X112327428Y-127578500D01*
X112184571Y-127507071D01*
X111827428Y-127507071D01*
X111684571Y-127578500D01*
X111613142Y-127649928D01*
X111541714Y-127792785D01*
X111541714Y-127935642D01*
X111613142Y-128149928D01*
X112470285Y-129007071D01*
X111541714Y-129007071D01*
X110113142Y-129007071D02*
X110970285Y-129007071D01*
X110541714Y-129007071D02*
X110541714Y-127507071D01*
X110684571Y-127721357D01*
X110827428Y-127864214D01*
X110970285Y-127935642D01*
D11*
%TO.C,D2*%
X46846761Y-64686309D02*
X46211761Y-64686309D01*
X46211761Y-64837500D01*
X46242000Y-64928214D01*
X46302476Y-64988690D01*
X46362952Y-65018928D01*
X46483904Y-65049166D01*
X46574619Y-65049166D01*
X46695571Y-65018928D01*
X46756047Y-64988690D01*
X46816523Y-64928214D01*
X46846761Y-64837500D01*
X46846761Y-64686309D01*
X46272238Y-65291071D02*
X46242000Y-65321309D01*
X46211761Y-65381785D01*
X46211761Y-65532976D01*
X46242000Y-65593452D01*
X46272238Y-65623690D01*
X46332714Y-65653928D01*
X46393190Y-65653928D01*
X46483904Y-65623690D01*
X46846761Y-65260833D01*
X46846761Y-65653928D01*
%TO.C,D3*%
X50529761Y-64499809D02*
X49894761Y-64499809D01*
X49894761Y-64651000D01*
X49925000Y-64741714D01*
X49985476Y-64802190D01*
X50045952Y-64832428D01*
X50166904Y-64862666D01*
X50257619Y-64862666D01*
X50378571Y-64832428D01*
X50439047Y-64802190D01*
X50499523Y-64741714D01*
X50529761Y-64651000D01*
X50529761Y-64499809D01*
X49894761Y-65074333D02*
X49894761Y-65467428D01*
X50136666Y-65255761D01*
X50136666Y-65346476D01*
X50166904Y-65406952D01*
X50197142Y-65437190D01*
X50257619Y-65467428D01*
X50408809Y-65467428D01*
X50469285Y-65437190D01*
X50499523Y-65406952D01*
X50529761Y-65346476D01*
X50529761Y-65165047D01*
X50499523Y-65104571D01*
X50469285Y-65074333D01*
%TO.C,D5*%
X54343761Y-65872809D02*
X53708761Y-65872809D01*
X53708761Y-66024000D01*
X53739000Y-66114714D01*
X53799476Y-66175190D01*
X53859952Y-66205428D01*
X53980904Y-66235666D01*
X54071619Y-66235666D01*
X54192571Y-66205428D01*
X54253047Y-66175190D01*
X54313523Y-66114714D01*
X54343761Y-66024000D01*
X54343761Y-65872809D01*
X53708761Y-66810190D02*
X53708761Y-66507809D01*
X54011142Y-66477571D01*
X53980904Y-66507809D01*
X53950666Y-66568285D01*
X53950666Y-66719476D01*
X53980904Y-66779952D01*
X54011142Y-66810190D01*
X54071619Y-66840428D01*
X54222809Y-66840428D01*
X54283285Y-66810190D01*
X54313523Y-66779952D01*
X54343761Y-66719476D01*
X54343761Y-66568285D01*
X54313523Y-66507809D01*
X54283285Y-66477571D01*
%TO.C,J3*%
X113843261Y-71412333D02*
X114296833Y-71412333D01*
X114387547Y-71382095D01*
X114448023Y-71321619D01*
X114478261Y-71230904D01*
X114478261Y-71170428D01*
X113843261Y-71654238D02*
X113843261Y-72047333D01*
X114085166Y-71835666D01*
X114085166Y-71926380D01*
X114115404Y-71986857D01*
X114145642Y-72017095D01*
X114206119Y-72047333D01*
X114357309Y-72047333D01*
X114417785Y-72017095D01*
X114448023Y-71986857D01*
X114478261Y-71926380D01*
X114478261Y-71744952D01*
X114448023Y-71684476D01*
X114417785Y-71654238D01*
%TO.C,C8*%
X127117785Y-73359666D02*
X127148023Y-73329428D01*
X127178261Y-73238714D01*
X127178261Y-73178238D01*
X127148023Y-73087523D01*
X127087547Y-73027047D01*
X127027071Y-72996809D01*
X126906119Y-72966571D01*
X126815404Y-72966571D01*
X126694452Y-72996809D01*
X126633976Y-73027047D01*
X126573500Y-73087523D01*
X126543261Y-73178238D01*
X126543261Y-73238714D01*
X126573500Y-73329428D01*
X126603738Y-73359666D01*
X126815404Y-73722523D02*
X126785166Y-73662047D01*
X126754928Y-73631809D01*
X126694452Y-73601571D01*
X126664214Y-73601571D01*
X126603738Y-73631809D01*
X126573500Y-73662047D01*
X126543261Y-73722523D01*
X126543261Y-73843476D01*
X126573500Y-73903952D01*
X126603738Y-73934190D01*
X126664214Y-73964428D01*
X126694452Y-73964428D01*
X126754928Y-73934190D01*
X126785166Y-73903952D01*
X126815404Y-73843476D01*
X126815404Y-73722523D01*
X126845642Y-73662047D01*
X126875880Y-73631809D01*
X126936357Y-73601571D01*
X127057309Y-73601571D01*
X127117785Y-73631809D01*
X127148023Y-73662047D01*
X127178261Y-73722523D01*
X127178261Y-73843476D01*
X127148023Y-73903952D01*
X127117785Y-73934190D01*
X127057309Y-73964428D01*
X126936357Y-73964428D01*
X126875880Y-73934190D01*
X126845642Y-73903952D01*
X126815404Y-73843476D01*
%TO.C,C9*%
X128133785Y-73359666D02*
X128164023Y-73329428D01*
X128194261Y-73238714D01*
X128194261Y-73178238D01*
X128164023Y-73087523D01*
X128103547Y-73027047D01*
X128043071Y-72996809D01*
X127922119Y-72966571D01*
X127831404Y-72966571D01*
X127710452Y-72996809D01*
X127649976Y-73027047D01*
X127589500Y-73087523D01*
X127559261Y-73178238D01*
X127559261Y-73238714D01*
X127589500Y-73329428D01*
X127619738Y-73359666D01*
X128194261Y-73662047D02*
X128194261Y-73783000D01*
X128164023Y-73843476D01*
X128133785Y-73873714D01*
X128043071Y-73934190D01*
X127922119Y-73964428D01*
X127680214Y-73964428D01*
X127619738Y-73934190D01*
X127589500Y-73903952D01*
X127559261Y-73843476D01*
X127559261Y-73722523D01*
X127589500Y-73662047D01*
X127619738Y-73631809D01*
X127680214Y-73601571D01*
X127831404Y-73601571D01*
X127891880Y-73631809D01*
X127922119Y-73662047D01*
X127952357Y-73722523D01*
X127952357Y-73843476D01*
X127922119Y-73903952D01*
X127891880Y-73934190D01*
X127831404Y-73964428D01*
%TO.C,Q1*%
X48276738Y-69261523D02*
X48246500Y-69201047D01*
X48186023Y-69140571D01*
X48095309Y-69049857D01*
X48065071Y-68989380D01*
X48065071Y-68928904D01*
X48216261Y-68959142D02*
X48186023Y-68898666D01*
X48125547Y-68838190D01*
X48004595Y-68807952D01*
X47792928Y-68807952D01*
X47671976Y-68838190D01*
X47611500Y-68898666D01*
X47581261Y-68959142D01*
X47581261Y-69080095D01*
X47611500Y-69140571D01*
X47671976Y-69201047D01*
X47792928Y-69231285D01*
X48004595Y-69231285D01*
X48125547Y-69201047D01*
X48186023Y-69140571D01*
X48216261Y-69080095D01*
X48216261Y-68959142D01*
X48216261Y-69836047D02*
X48216261Y-69473190D01*
X48216261Y-69654619D02*
X47581261Y-69654619D01*
X47671976Y-69594142D01*
X47732452Y-69533666D01*
X47762690Y-69473190D01*
%TO.C,Q2*%
X53261238Y-69285523D02*
X53231000Y-69225047D01*
X53170523Y-69164571D01*
X53079809Y-69073857D01*
X53049571Y-69013380D01*
X53049571Y-68952904D01*
X53200761Y-68983142D02*
X53170523Y-68922666D01*
X53110047Y-68862190D01*
X52989095Y-68831952D01*
X52777428Y-68831952D01*
X52656476Y-68862190D01*
X52596000Y-68922666D01*
X52565761Y-68983142D01*
X52565761Y-69104095D01*
X52596000Y-69164571D01*
X52656476Y-69225047D01*
X52777428Y-69255285D01*
X52989095Y-69255285D01*
X53110047Y-69225047D01*
X53170523Y-69164571D01*
X53200761Y-69104095D01*
X53200761Y-68983142D01*
X52626238Y-69497190D02*
X52596000Y-69527428D01*
X52565761Y-69587904D01*
X52565761Y-69739095D01*
X52596000Y-69799571D01*
X52626238Y-69829809D01*
X52686714Y-69860047D01*
X52747190Y-69860047D01*
X52837904Y-69829809D01*
X53200761Y-69466952D01*
X53200761Y-69860047D01*
%TO.C,Q4*%
X55130738Y-66599023D02*
X55100500Y-66538547D01*
X55040023Y-66478071D01*
X54949309Y-66387357D01*
X54919071Y-66326880D01*
X54919071Y-66266404D01*
X55070261Y-66296642D02*
X55040023Y-66236166D01*
X54979547Y-66175690D01*
X54858595Y-66145452D01*
X54646928Y-66145452D01*
X54525976Y-66175690D01*
X54465500Y-66236166D01*
X54435261Y-66296642D01*
X54435261Y-66417595D01*
X54465500Y-66478071D01*
X54525976Y-66538547D01*
X54646928Y-66568785D01*
X54858595Y-66568785D01*
X54979547Y-66538547D01*
X55040023Y-66478071D01*
X55070261Y-66417595D01*
X55070261Y-66296642D01*
X54646928Y-67113071D02*
X55070261Y-67113071D01*
X54405023Y-66961880D02*
X54858595Y-66810690D01*
X54858595Y-67203785D01*
%TO.C,R4*%
X49263761Y-69240166D02*
X48961380Y-69028500D01*
X49263761Y-68877309D02*
X48628761Y-68877309D01*
X48628761Y-69119214D01*
X48659000Y-69179690D01*
X48689238Y-69209928D01*
X48749714Y-69240166D01*
X48840428Y-69240166D01*
X48900904Y-69209928D01*
X48931142Y-69179690D01*
X48961380Y-69119214D01*
X48961380Y-68877309D01*
X48840428Y-69784452D02*
X49263761Y-69784452D01*
X48598523Y-69633261D02*
X49052095Y-69482071D01*
X49052095Y-69875166D01*
%TO.C,R5*%
X126225761Y-73359666D02*
X125923380Y-73148000D01*
X126225761Y-72996809D02*
X125590761Y-72996809D01*
X125590761Y-73238714D01*
X125621000Y-73299190D01*
X125651238Y-73329428D01*
X125711714Y-73359666D01*
X125802428Y-73359666D01*
X125862904Y-73329428D01*
X125893142Y-73299190D01*
X125923380Y-73238714D01*
X125923380Y-72996809D01*
X125590761Y-73934190D02*
X125590761Y-73631809D01*
X125893142Y-73601571D01*
X125862904Y-73631809D01*
X125832666Y-73692285D01*
X125832666Y-73843476D01*
X125862904Y-73903952D01*
X125893142Y-73934190D01*
X125953619Y-73964428D01*
X126104809Y-73964428D01*
X126165285Y-73934190D01*
X126195523Y-73903952D01*
X126225761Y-73843476D01*
X126225761Y-73692285D01*
X126195523Y-73631809D01*
X126165285Y-73601571D01*
%TO.C,R7*%
X47422261Y-68351166D02*
X47119880Y-68139500D01*
X47422261Y-67988309D02*
X46787261Y-67988309D01*
X46787261Y-68230214D01*
X46817500Y-68290690D01*
X46847738Y-68320928D01*
X46908214Y-68351166D01*
X46998928Y-68351166D01*
X47059404Y-68320928D01*
X47089642Y-68290690D01*
X47119880Y-68230214D01*
X47119880Y-67988309D01*
X46787261Y-68562833D02*
X46787261Y-68986166D01*
X47422261Y-68714023D01*
%TO.C,R8*%
X52311761Y-69176666D02*
X52009380Y-68965000D01*
X52311761Y-68813809D02*
X51676761Y-68813809D01*
X51676761Y-69055714D01*
X51707000Y-69116190D01*
X51737238Y-69146428D01*
X51797714Y-69176666D01*
X51888428Y-69176666D01*
X51948904Y-69146428D01*
X51979142Y-69116190D01*
X52009380Y-69055714D01*
X52009380Y-68813809D01*
X51948904Y-69539523D02*
X51918666Y-69479047D01*
X51888428Y-69448809D01*
X51827952Y-69418571D01*
X51797714Y-69418571D01*
X51737238Y-69448809D01*
X51707000Y-69479047D01*
X51676761Y-69539523D01*
X51676761Y-69660476D01*
X51707000Y-69720952D01*
X51737238Y-69751190D01*
X51797714Y-69781428D01*
X51827952Y-69781428D01*
X51888428Y-69751190D01*
X51918666Y-69720952D01*
X51948904Y-69660476D01*
X51948904Y-69539523D01*
X51979142Y-69479047D01*
X52009380Y-69448809D01*
X52069857Y-69418571D01*
X52190809Y-69418571D01*
X52251285Y-69448809D01*
X52281523Y-69479047D01*
X52311761Y-69539523D01*
X52311761Y-69660476D01*
X52281523Y-69720952D01*
X52251285Y-69751190D01*
X52190809Y-69781428D01*
X52069857Y-69781428D01*
X52009380Y-69751190D01*
X51979142Y-69720952D01*
X51948904Y-69660476D01*
%TO.C,R9*%
X51232261Y-68101166D02*
X50929880Y-67889500D01*
X51232261Y-67738309D02*
X50597261Y-67738309D01*
X50597261Y-67980214D01*
X50627500Y-68040690D01*
X50657738Y-68070928D01*
X50718214Y-68101166D01*
X50808928Y-68101166D01*
X50869404Y-68070928D01*
X50899642Y-68040690D01*
X50929880Y-67980214D01*
X50929880Y-67738309D01*
X51232261Y-68403547D02*
X51232261Y-68524500D01*
X51202023Y-68584976D01*
X51171785Y-68615214D01*
X51081071Y-68675690D01*
X50960119Y-68705928D01*
X50718214Y-68705928D01*
X50657738Y-68675690D01*
X50627500Y-68645452D01*
X50597261Y-68584976D01*
X50597261Y-68464023D01*
X50627500Y-68403547D01*
X50657738Y-68373309D01*
X50718214Y-68343071D01*
X50869404Y-68343071D01*
X50929880Y-68373309D01*
X50960119Y-68403547D01*
X50990357Y-68464023D01*
X50990357Y-68584976D01*
X50960119Y-68645452D01*
X50929880Y-68675690D01*
X50869404Y-68705928D01*
%TO.C,R14*%
X56024261Y-70356685D02*
X55721880Y-70145019D01*
X56024261Y-69993828D02*
X55389261Y-69993828D01*
X55389261Y-70235733D01*
X55419500Y-70296209D01*
X55449738Y-70326447D01*
X55510214Y-70356685D01*
X55600928Y-70356685D01*
X55661404Y-70326447D01*
X55691642Y-70296209D01*
X55721880Y-70235733D01*
X55721880Y-69993828D01*
X56024261Y-70961447D02*
X56024261Y-70598590D01*
X56024261Y-70780019D02*
X55389261Y-70780019D01*
X55479976Y-70719542D01*
X55540452Y-70659066D01*
X55570690Y-70598590D01*
X55600928Y-71505733D02*
X56024261Y-71505733D01*
X55359023Y-71354542D02*
X55812595Y-71203352D01*
X55812595Y-71596447D01*
%TO.C,R15*%
X54788261Y-70326785D02*
X54485880Y-70115119D01*
X54788261Y-69963928D02*
X54153261Y-69963928D01*
X54153261Y-70205833D01*
X54183500Y-70266309D01*
X54213738Y-70296547D01*
X54274214Y-70326785D01*
X54364928Y-70326785D01*
X54425404Y-70296547D01*
X54455642Y-70266309D01*
X54485880Y-70205833D01*
X54485880Y-69963928D01*
X54788261Y-70931547D02*
X54788261Y-70568690D01*
X54788261Y-70750119D02*
X54153261Y-70750119D01*
X54243976Y-70689642D01*
X54304452Y-70629166D01*
X54334690Y-70568690D01*
X54153261Y-71506071D02*
X54153261Y-71203690D01*
X54455642Y-71173452D01*
X54425404Y-71203690D01*
X54395166Y-71264166D01*
X54395166Y-71415357D01*
X54425404Y-71475833D01*
X54455642Y-71506071D01*
X54516119Y-71536309D01*
X54667309Y-71536309D01*
X54727785Y-71506071D01*
X54758023Y-71475833D01*
X54788261Y-71415357D01*
X54788261Y-71264166D01*
X54758023Y-71203690D01*
X54727785Y-71173452D01*
%TO.C,Z1*%
X119683447Y-72165261D02*
X119260114Y-72165261D01*
X119683447Y-72800261D01*
X119260114Y-72800261D01*
X118685590Y-72800261D02*
X119048447Y-72800261D01*
X118867019Y-72800261D02*
X118867019Y-72165261D01*
X118927495Y-72255976D01*
X118987971Y-72316452D01*
X119048447Y-72346690D01*
%TO.C,Z2*%
X116864047Y-72165261D02*
X116440714Y-72165261D01*
X116864047Y-72800261D01*
X116440714Y-72800261D01*
X116229047Y-72225738D02*
X116198809Y-72195500D01*
X116138333Y-72165261D01*
X115987142Y-72165261D01*
X115926666Y-72195500D01*
X115896428Y-72225738D01*
X115866190Y-72286214D01*
X115866190Y-72346690D01*
X115896428Y-72437404D01*
X116259285Y-72800261D01*
X115866190Y-72800261D01*
D12*
%TO.C,C59*%
X87095857Y-119930142D02*
X87143476Y-119977761D01*
X87286333Y-120025380D01*
X87381571Y-120025380D01*
X87524428Y-119977761D01*
X87619666Y-119882523D01*
X87667285Y-119787285D01*
X87714904Y-119596809D01*
X87714904Y-119453952D01*
X87667285Y-119263476D01*
X87619666Y-119168238D01*
X87524428Y-119073000D01*
X87381571Y-119025380D01*
X87286333Y-119025380D01*
X87143476Y-119073000D01*
X87095857Y-119120619D01*
X86191095Y-119025380D02*
X86667285Y-119025380D01*
X86714904Y-119501571D01*
X86667285Y-119453952D01*
X86572047Y-119406333D01*
X86333952Y-119406333D01*
X86238714Y-119453952D01*
X86191095Y-119501571D01*
X86143476Y-119596809D01*
X86143476Y-119834904D01*
X86191095Y-119930142D01*
X86238714Y-119977761D01*
X86333952Y-120025380D01*
X86572047Y-120025380D01*
X86667285Y-119977761D01*
X86714904Y-119930142D01*
X85667285Y-120025380D02*
X85476809Y-120025380D01*
X85381571Y-119977761D01*
X85333952Y-119930142D01*
X85238714Y-119787285D01*
X85191095Y-119596809D01*
X85191095Y-119215857D01*
X85238714Y-119120619D01*
X85286333Y-119073000D01*
X85381571Y-119025380D01*
X85572047Y-119025380D01*
X85667285Y-119073000D01*
X85714904Y-119120619D01*
X85762523Y-119215857D01*
X85762523Y-119453952D01*
X85714904Y-119549190D01*
X85667285Y-119596809D01*
X85572047Y-119644428D01*
X85381571Y-119644428D01*
X85286333Y-119596809D01*
X85238714Y-119549190D01*
X85191095Y-119453952D01*
%TO.C,U17*%
X62237380Y-109156904D02*
X63046904Y-109156904D01*
X63142142Y-109204523D01*
X63189761Y-109252142D01*
X63237380Y-109347380D01*
X63237380Y-109537857D01*
X63189761Y-109633095D01*
X63142142Y-109680714D01*
X63046904Y-109728333D01*
X62237380Y-109728333D01*
X63237380Y-110728333D02*
X63237380Y-110156904D01*
X63237380Y-110442619D02*
X62237380Y-110442619D01*
X62380238Y-110347380D01*
X62475476Y-110252142D01*
X62523095Y-110156904D01*
X62237380Y-111061666D02*
X62237380Y-111728333D01*
X63237380Y-111299761D01*
D13*
%TO.C,C2*%
X75253333Y-99050571D02*
X75277142Y-99074380D01*
X75348571Y-99098190D01*
X75396190Y-99098190D01*
X75467619Y-99074380D01*
X75515238Y-99026761D01*
X75539047Y-98979142D01*
X75562857Y-98883904D01*
X75562857Y-98812476D01*
X75539047Y-98717238D01*
X75515238Y-98669619D01*
X75467619Y-98622000D01*
X75396190Y-98598190D01*
X75348571Y-98598190D01*
X75277142Y-98622000D01*
X75253333Y-98645809D01*
X75062857Y-98645809D02*
X75039047Y-98622000D01*
X74991428Y-98598190D01*
X74872380Y-98598190D01*
X74824761Y-98622000D01*
X74800952Y-98645809D01*
X74777142Y-98693428D01*
X74777142Y-98741047D01*
X74800952Y-98812476D01*
X75086666Y-99098190D01*
X74777142Y-99098190D01*
D12*
%TO.C,U23*%
X85190295Y-83981780D02*
X85190295Y-84791304D01*
X85142676Y-84886542D01*
X85095057Y-84934161D01*
X84999819Y-84981780D01*
X84809342Y-84981780D01*
X84714104Y-84934161D01*
X84666485Y-84886542D01*
X84618866Y-84791304D01*
X84618866Y-83981780D01*
X84190295Y-84077019D02*
X84142676Y-84029400D01*
X84047438Y-83981780D01*
X83809342Y-83981780D01*
X83714104Y-84029400D01*
X83666485Y-84077019D01*
X83618866Y-84172257D01*
X83618866Y-84267495D01*
X83666485Y-84410352D01*
X84237914Y-84981780D01*
X83618866Y-84981780D01*
X83285533Y-83981780D02*
X82666485Y-83981780D01*
X82999819Y-84362733D01*
X82856961Y-84362733D01*
X82761723Y-84410352D01*
X82714104Y-84457971D01*
X82666485Y-84553209D01*
X82666485Y-84791304D01*
X82714104Y-84886542D01*
X82761723Y-84934161D01*
X82856961Y-84981780D01*
X83142676Y-84981780D01*
X83237914Y-84934161D01*
X83285533Y-84886542D01*
%TO.C,R34*%
X85193857Y-107609380D02*
X85527190Y-107133190D01*
X85765285Y-107609380D02*
X85765285Y-106609380D01*
X85384333Y-106609380D01*
X85289095Y-106657000D01*
X85241476Y-106704619D01*
X85193857Y-106799857D01*
X85193857Y-106942714D01*
X85241476Y-107037952D01*
X85289095Y-107085571D01*
X85384333Y-107133190D01*
X85765285Y-107133190D01*
X84860523Y-106609380D02*
X84241476Y-106609380D01*
X84574809Y-106990333D01*
X84431952Y-106990333D01*
X84336714Y-107037952D01*
X84289095Y-107085571D01*
X84241476Y-107180809D01*
X84241476Y-107418904D01*
X84289095Y-107514142D01*
X84336714Y-107561761D01*
X84431952Y-107609380D01*
X84717666Y-107609380D01*
X84812904Y-107561761D01*
X84860523Y-107514142D01*
X83384333Y-106942714D02*
X83384333Y-107609380D01*
X83622428Y-106561761D02*
X83860523Y-107276047D01*
X83241476Y-107276047D01*
%TO.C,J4*%
X95275180Y-106841266D02*
X95989466Y-106841266D01*
X96132323Y-106793647D01*
X96227561Y-106698409D01*
X96275180Y-106555552D01*
X96275180Y-106460314D01*
X95608514Y-107746028D02*
X96275180Y-107746028D01*
X95227561Y-107507933D02*
X95941847Y-107269838D01*
X95941847Y-107888885D01*
D13*
%TO.C,C50*%
X63752428Y-99069571D02*
X63776238Y-99093380D01*
X63847666Y-99117190D01*
X63895285Y-99117190D01*
X63966714Y-99093380D01*
X64014333Y-99045761D01*
X64038142Y-98998142D01*
X64061952Y-98902904D01*
X64061952Y-98831476D01*
X64038142Y-98736238D01*
X64014333Y-98688619D01*
X63966714Y-98641000D01*
X63895285Y-98617190D01*
X63847666Y-98617190D01*
X63776238Y-98641000D01*
X63752428Y-98664809D01*
X63300047Y-98617190D02*
X63538142Y-98617190D01*
X63561952Y-98855285D01*
X63538142Y-98831476D01*
X63490523Y-98807666D01*
X63371476Y-98807666D01*
X63323857Y-98831476D01*
X63300047Y-98855285D01*
X63276238Y-98902904D01*
X63276238Y-99021952D01*
X63300047Y-99069571D01*
X63323857Y-99093380D01*
X63371476Y-99117190D01*
X63490523Y-99117190D01*
X63538142Y-99093380D01*
X63561952Y-99069571D01*
X62966714Y-98617190D02*
X62919095Y-98617190D01*
X62871476Y-98641000D01*
X62847666Y-98664809D01*
X62823857Y-98712428D01*
X62800047Y-98807666D01*
X62800047Y-98926714D01*
X62823857Y-99021952D01*
X62847666Y-99069571D01*
X62871476Y-99093380D01*
X62919095Y-99117190D01*
X62966714Y-99117190D01*
X63014333Y-99093380D01*
X63038142Y-99069571D01*
X63061952Y-99021952D01*
X63085761Y-98926714D01*
X63085761Y-98807666D01*
X63061952Y-98712428D01*
X63038142Y-98664809D01*
X63014333Y-98641000D01*
X62966714Y-98617190D01*
D12*
%TO.C,Q23*%
X101956428Y-159196619D02*
X102051666Y-159149000D01*
X102146904Y-159053761D01*
X102289761Y-158910904D01*
X102385000Y-158863285D01*
X102480238Y-158863285D01*
X102432619Y-159101380D02*
X102527857Y-159053761D01*
X102623095Y-158958523D01*
X102670714Y-158768047D01*
X102670714Y-158434714D01*
X102623095Y-158244238D01*
X102527857Y-158149000D01*
X102432619Y-158101380D01*
X102242142Y-158101380D01*
X102146904Y-158149000D01*
X102051666Y-158244238D01*
X102004047Y-158434714D01*
X102004047Y-158768047D01*
X102051666Y-158958523D01*
X102146904Y-159053761D01*
X102242142Y-159101380D01*
X102432619Y-159101380D01*
X101623095Y-158196619D02*
X101575476Y-158149000D01*
X101480238Y-158101380D01*
X101242142Y-158101380D01*
X101146904Y-158149000D01*
X101099285Y-158196619D01*
X101051666Y-158291857D01*
X101051666Y-158387095D01*
X101099285Y-158529952D01*
X101670714Y-159101380D01*
X101051666Y-159101380D01*
X100718333Y-158101380D02*
X100099285Y-158101380D01*
X100432619Y-158482333D01*
X100289761Y-158482333D01*
X100194523Y-158529952D01*
X100146904Y-158577571D01*
X100099285Y-158672809D01*
X100099285Y-158910904D01*
X100146904Y-159006142D01*
X100194523Y-159053761D01*
X100289761Y-159101380D01*
X100575476Y-159101380D01*
X100670714Y-159053761D01*
X100718333Y-159006142D01*
D13*
%TO.C,C63*%
X70298771Y-84057971D02*
X70322580Y-84034161D01*
X70346390Y-83962733D01*
X70346390Y-83915114D01*
X70322580Y-83843685D01*
X70274961Y-83796066D01*
X70227342Y-83772257D01*
X70132104Y-83748447D01*
X70060676Y-83748447D01*
X69965438Y-83772257D01*
X69917819Y-83796066D01*
X69870200Y-83843685D01*
X69846390Y-83915114D01*
X69846390Y-83962733D01*
X69870200Y-84034161D01*
X69894009Y-84057971D01*
X69846390Y-84486542D02*
X69846390Y-84391304D01*
X69870200Y-84343685D01*
X69894009Y-84319876D01*
X69965438Y-84272257D01*
X70060676Y-84248447D01*
X70251152Y-84248447D01*
X70298771Y-84272257D01*
X70322580Y-84296066D01*
X70346390Y-84343685D01*
X70346390Y-84438923D01*
X70322580Y-84486542D01*
X70298771Y-84510352D01*
X70251152Y-84534161D01*
X70132104Y-84534161D01*
X70084485Y-84510352D01*
X70060676Y-84486542D01*
X70036866Y-84438923D01*
X70036866Y-84343685D01*
X70060676Y-84296066D01*
X70084485Y-84272257D01*
X70132104Y-84248447D01*
X69846390Y-84700828D02*
X69846390Y-85010352D01*
X70036866Y-84843685D01*
X70036866Y-84915114D01*
X70060676Y-84962733D01*
X70084485Y-84986542D01*
X70132104Y-85010352D01*
X70251152Y-85010352D01*
X70298771Y-84986542D01*
X70322580Y-84962733D01*
X70346390Y-84915114D01*
X70346390Y-84772257D01*
X70322580Y-84724638D01*
X70298771Y-84700828D01*
D12*
%TO.C,C46*%
X50919342Y-100846542D02*
X50966961Y-100798923D01*
X51014580Y-100656066D01*
X51014580Y-100560828D01*
X50966961Y-100417971D01*
X50871723Y-100322733D01*
X50776485Y-100275114D01*
X50586009Y-100227495D01*
X50443152Y-100227495D01*
X50252676Y-100275114D01*
X50157438Y-100322733D01*
X50062200Y-100417971D01*
X50014580Y-100560828D01*
X50014580Y-100656066D01*
X50062200Y-100798923D01*
X50109819Y-100846542D01*
X50347914Y-101703685D02*
X51014580Y-101703685D01*
X49966961Y-101465590D02*
X50681247Y-101227495D01*
X50681247Y-101846542D01*
X50014580Y-102656066D02*
X50014580Y-102465590D01*
X50062200Y-102370352D01*
X50109819Y-102322733D01*
X50252676Y-102227495D01*
X50443152Y-102179876D01*
X50824104Y-102179876D01*
X50919342Y-102227495D01*
X50966961Y-102275114D01*
X51014580Y-102370352D01*
X51014580Y-102560828D01*
X50966961Y-102656066D01*
X50919342Y-102703685D01*
X50824104Y-102751304D01*
X50586009Y-102751304D01*
X50490771Y-102703685D01*
X50443152Y-102656066D01*
X50395533Y-102560828D01*
X50395533Y-102370352D01*
X50443152Y-102275114D01*
X50490771Y-102227495D01*
X50586009Y-102179876D01*
%TO.C,U15*%
X77908580Y-86515304D02*
X78718104Y-86515304D01*
X78813342Y-86562923D01*
X78860961Y-86610542D01*
X78908580Y-86705780D01*
X78908580Y-86896257D01*
X78860961Y-86991495D01*
X78813342Y-87039114D01*
X78718104Y-87086733D01*
X77908580Y-87086733D01*
X78908580Y-88086733D02*
X78908580Y-87515304D01*
X78908580Y-87801019D02*
X77908580Y-87801019D01*
X78051438Y-87705780D01*
X78146676Y-87610542D01*
X78194295Y-87515304D01*
X77908580Y-88991495D02*
X77908580Y-88515304D01*
X78384771Y-88467685D01*
X78337152Y-88515304D01*
X78289533Y-88610542D01*
X78289533Y-88848638D01*
X78337152Y-88943876D01*
X78384771Y-88991495D01*
X78480009Y-89039114D01*
X78718104Y-89039114D01*
X78813342Y-88991495D01*
X78860961Y-88943876D01*
X78908580Y-88848638D01*
X78908580Y-88610542D01*
X78860961Y-88515304D01*
X78813342Y-88467685D01*
%TO.C,C69*%
X79437342Y-81506542D02*
X79484961Y-81458923D01*
X79532580Y-81316066D01*
X79532580Y-81220828D01*
X79484961Y-81077971D01*
X79389723Y-80982733D01*
X79294485Y-80935114D01*
X79104009Y-80887495D01*
X78961152Y-80887495D01*
X78770676Y-80935114D01*
X78675438Y-80982733D01*
X78580200Y-81077971D01*
X78532580Y-81220828D01*
X78532580Y-81316066D01*
X78580200Y-81458923D01*
X78627819Y-81506542D01*
X78532580Y-82363685D02*
X78532580Y-82173209D01*
X78580200Y-82077971D01*
X78627819Y-82030352D01*
X78770676Y-81935114D01*
X78961152Y-81887495D01*
X79342104Y-81887495D01*
X79437342Y-81935114D01*
X79484961Y-81982733D01*
X79532580Y-82077971D01*
X79532580Y-82268447D01*
X79484961Y-82363685D01*
X79437342Y-82411304D01*
X79342104Y-82458923D01*
X79104009Y-82458923D01*
X79008771Y-82411304D01*
X78961152Y-82363685D01*
X78913533Y-82268447D01*
X78913533Y-82077971D01*
X78961152Y-81982733D01*
X79008771Y-81935114D01*
X79104009Y-81887495D01*
X79532580Y-82935114D02*
X79532580Y-83125590D01*
X79484961Y-83220828D01*
X79437342Y-83268447D01*
X79294485Y-83363685D01*
X79104009Y-83411304D01*
X78723057Y-83411304D01*
X78627819Y-83363685D01*
X78580200Y-83316066D01*
X78532580Y-83220828D01*
X78532580Y-83030352D01*
X78580200Y-82935114D01*
X78627819Y-82887495D01*
X78723057Y-82839876D01*
X78961152Y-82839876D01*
X79056390Y-82887495D01*
X79104009Y-82935114D01*
X79151628Y-83030352D01*
X79151628Y-83220828D01*
X79104009Y-83316066D01*
X79056390Y-83363685D01*
X78961152Y-83411304D01*
%TO.C,C60*%
X87095857Y-118406142D02*
X87143476Y-118453761D01*
X87286333Y-118501380D01*
X87381571Y-118501380D01*
X87524428Y-118453761D01*
X87619666Y-118358523D01*
X87667285Y-118263285D01*
X87714904Y-118072809D01*
X87714904Y-117929952D01*
X87667285Y-117739476D01*
X87619666Y-117644238D01*
X87524428Y-117549000D01*
X87381571Y-117501380D01*
X87286333Y-117501380D01*
X87143476Y-117549000D01*
X87095857Y-117596619D01*
X86238714Y-117501380D02*
X86429190Y-117501380D01*
X86524428Y-117549000D01*
X86572047Y-117596619D01*
X86667285Y-117739476D01*
X86714904Y-117929952D01*
X86714904Y-118310904D01*
X86667285Y-118406142D01*
X86619666Y-118453761D01*
X86524428Y-118501380D01*
X86333952Y-118501380D01*
X86238714Y-118453761D01*
X86191095Y-118406142D01*
X86143476Y-118310904D01*
X86143476Y-118072809D01*
X86191095Y-117977571D01*
X86238714Y-117929952D01*
X86333952Y-117882333D01*
X86524428Y-117882333D01*
X86619666Y-117929952D01*
X86667285Y-117977571D01*
X86714904Y-118072809D01*
X85524428Y-117501380D02*
X85429190Y-117501380D01*
X85333952Y-117549000D01*
X85286333Y-117596619D01*
X85238714Y-117691857D01*
X85191095Y-117882333D01*
X85191095Y-118120428D01*
X85238714Y-118310904D01*
X85286333Y-118406142D01*
X85333952Y-118453761D01*
X85429190Y-118501380D01*
X85524428Y-118501380D01*
X85619666Y-118453761D01*
X85667285Y-118406142D01*
X85714904Y-118310904D01*
X85762523Y-118120428D01*
X85762523Y-117882333D01*
X85714904Y-117691857D01*
X85667285Y-117596619D01*
X85619666Y-117549000D01*
X85524428Y-117501380D01*
%TO.C,R92*%
X81912857Y-160818380D02*
X82246190Y-160342190D01*
X82484285Y-160818380D02*
X82484285Y-159818380D01*
X82103333Y-159818380D01*
X82008095Y-159866000D01*
X81960476Y-159913619D01*
X81912857Y-160008857D01*
X81912857Y-160151714D01*
X81960476Y-160246952D01*
X82008095Y-160294571D01*
X82103333Y-160342190D01*
X82484285Y-160342190D01*
X81436666Y-160818380D02*
X81246190Y-160818380D01*
X81150952Y-160770761D01*
X81103333Y-160723142D01*
X81008095Y-160580285D01*
X80960476Y-160389809D01*
X80960476Y-160008857D01*
X81008095Y-159913619D01*
X81055714Y-159866000D01*
X81150952Y-159818380D01*
X81341428Y-159818380D01*
X81436666Y-159866000D01*
X81484285Y-159913619D01*
X81531904Y-160008857D01*
X81531904Y-160246952D01*
X81484285Y-160342190D01*
X81436666Y-160389809D01*
X81341428Y-160437428D01*
X81150952Y-160437428D01*
X81055714Y-160389809D01*
X81008095Y-160342190D01*
X80960476Y-160246952D01*
X80579523Y-159913619D02*
X80531904Y-159866000D01*
X80436666Y-159818380D01*
X80198571Y-159818380D01*
X80103333Y-159866000D01*
X80055714Y-159913619D01*
X80008095Y-160008857D01*
X80008095Y-160104095D01*
X80055714Y-160246952D01*
X80627142Y-160818380D01*
X80008095Y-160818380D01*
D13*
%TO.C,C57*%
X76631571Y-98382571D02*
X76655380Y-98358761D01*
X76679190Y-98287333D01*
X76679190Y-98239714D01*
X76655380Y-98168285D01*
X76607761Y-98120666D01*
X76560142Y-98096857D01*
X76464904Y-98073047D01*
X76393476Y-98073047D01*
X76298238Y-98096857D01*
X76250619Y-98120666D01*
X76203000Y-98168285D01*
X76179190Y-98239714D01*
X76179190Y-98287333D01*
X76203000Y-98358761D01*
X76226809Y-98382571D01*
X76179190Y-98834952D02*
X76179190Y-98596857D01*
X76417285Y-98573047D01*
X76393476Y-98596857D01*
X76369666Y-98644476D01*
X76369666Y-98763523D01*
X76393476Y-98811142D01*
X76417285Y-98834952D01*
X76464904Y-98858761D01*
X76583952Y-98858761D01*
X76631571Y-98834952D01*
X76655380Y-98811142D01*
X76679190Y-98763523D01*
X76679190Y-98644476D01*
X76655380Y-98596857D01*
X76631571Y-98573047D01*
X76179190Y-99025428D02*
X76179190Y-99358761D01*
X76679190Y-99144476D01*
D12*
%TO.C,R37*%
X48025057Y-116433780D02*
X48358390Y-115957590D01*
X48596485Y-116433780D02*
X48596485Y-115433780D01*
X48215533Y-115433780D01*
X48120295Y-115481400D01*
X48072676Y-115529019D01*
X48025057Y-115624257D01*
X48025057Y-115767114D01*
X48072676Y-115862352D01*
X48120295Y-115909971D01*
X48215533Y-115957590D01*
X48596485Y-115957590D01*
X47691723Y-115433780D02*
X47072676Y-115433780D01*
X47406009Y-115814733D01*
X47263152Y-115814733D01*
X47167914Y-115862352D01*
X47120295Y-115909971D01*
X47072676Y-116005209D01*
X47072676Y-116243304D01*
X47120295Y-116338542D01*
X47167914Y-116386161D01*
X47263152Y-116433780D01*
X47548866Y-116433780D01*
X47644104Y-116386161D01*
X47691723Y-116338542D01*
X46739342Y-115433780D02*
X46072676Y-115433780D01*
X46501247Y-116433780D01*
%TO.C,D1*%
X73328095Y-104874380D02*
X73328095Y-103874380D01*
X73090000Y-103874380D01*
X72947142Y-103922000D01*
X72851904Y-104017238D01*
X72804285Y-104112476D01*
X72756666Y-104302952D01*
X72756666Y-104445809D01*
X72804285Y-104636285D01*
X72851904Y-104731523D01*
X72947142Y-104826761D01*
X73090000Y-104874380D01*
X73328095Y-104874380D01*
X71804285Y-104874380D02*
X72375714Y-104874380D01*
X72090000Y-104874380D02*
X72090000Y-103874380D01*
X72185238Y-104017238D01*
X72280476Y-104112476D01*
X72375714Y-104160095D01*
%TO.C,R105*%
X105621380Y-145130952D02*
X105145190Y-144797619D01*
X105621380Y-144559523D02*
X104621380Y-144559523D01*
X104621380Y-144940476D01*
X104669000Y-145035714D01*
X104716619Y-145083333D01*
X104811857Y-145130952D01*
X104954714Y-145130952D01*
X105049952Y-145083333D01*
X105097571Y-145035714D01*
X105145190Y-144940476D01*
X105145190Y-144559523D01*
X105621380Y-146083333D02*
X105621380Y-145511904D01*
X105621380Y-145797619D02*
X104621380Y-145797619D01*
X104764238Y-145702380D01*
X104859476Y-145607142D01*
X104907095Y-145511904D01*
X104621380Y-146702380D02*
X104621380Y-146797619D01*
X104669000Y-146892857D01*
X104716619Y-146940476D01*
X104811857Y-146988095D01*
X105002333Y-147035714D01*
X105240428Y-147035714D01*
X105430904Y-146988095D01*
X105526142Y-146940476D01*
X105573761Y-146892857D01*
X105621380Y-146797619D01*
X105621380Y-146702380D01*
X105573761Y-146607142D01*
X105526142Y-146559523D01*
X105430904Y-146511904D01*
X105240428Y-146464285D01*
X105002333Y-146464285D01*
X104811857Y-146511904D01*
X104716619Y-146559523D01*
X104669000Y-146607142D01*
X104621380Y-146702380D01*
X104621380Y-147940476D02*
X104621380Y-147464285D01*
X105097571Y-147416666D01*
X105049952Y-147464285D01*
X105002333Y-147559523D01*
X105002333Y-147797619D01*
X105049952Y-147892857D01*
X105097571Y-147940476D01*
X105192809Y-147988095D01*
X105430904Y-147988095D01*
X105526142Y-147940476D01*
X105573761Y-147892857D01*
X105621380Y-147797619D01*
X105621380Y-147559523D01*
X105573761Y-147464285D01*
X105526142Y-147416666D01*
%TO.C,C44*%
X55706942Y-113867762D02*
X55754561Y-113820143D01*
X55802180Y-113677286D01*
X55802180Y-113582048D01*
X55754561Y-113439191D01*
X55659323Y-113343953D01*
X55564085Y-113296334D01*
X55373609Y-113248715D01*
X55230752Y-113248715D01*
X55040276Y-113296334D01*
X54945038Y-113343953D01*
X54849800Y-113439191D01*
X54802180Y-113582048D01*
X54802180Y-113677286D01*
X54849800Y-113820143D01*
X54897419Y-113867762D01*
X55135514Y-114724905D02*
X55802180Y-114724905D01*
X54754561Y-114486810D02*
X55468847Y-114248715D01*
X55468847Y-114867762D01*
X55135514Y-115677286D02*
X55802180Y-115677286D01*
X54754561Y-115439191D02*
X55468847Y-115201096D01*
X55468847Y-115820143D01*
%TO.C,C55*%
X79733857Y-118406142D02*
X79781476Y-118453761D01*
X79924333Y-118501380D01*
X80019571Y-118501380D01*
X80162428Y-118453761D01*
X80257666Y-118358523D01*
X80305285Y-118263285D01*
X80352904Y-118072809D01*
X80352904Y-117929952D01*
X80305285Y-117739476D01*
X80257666Y-117644238D01*
X80162428Y-117549000D01*
X80019571Y-117501380D01*
X79924333Y-117501380D01*
X79781476Y-117549000D01*
X79733857Y-117596619D01*
X78829095Y-117501380D02*
X79305285Y-117501380D01*
X79352904Y-117977571D01*
X79305285Y-117929952D01*
X79210047Y-117882333D01*
X78971952Y-117882333D01*
X78876714Y-117929952D01*
X78829095Y-117977571D01*
X78781476Y-118072809D01*
X78781476Y-118310904D01*
X78829095Y-118406142D01*
X78876714Y-118453761D01*
X78971952Y-118501380D01*
X79210047Y-118501380D01*
X79305285Y-118453761D01*
X79352904Y-118406142D01*
X77876714Y-117501380D02*
X78352904Y-117501380D01*
X78400523Y-117977571D01*
X78352904Y-117929952D01*
X78257666Y-117882333D01*
X78019571Y-117882333D01*
X77924333Y-117929952D01*
X77876714Y-117977571D01*
X77829095Y-118072809D01*
X77829095Y-118310904D01*
X77876714Y-118406142D01*
X77924333Y-118453761D01*
X78019571Y-118501380D01*
X78257666Y-118501380D01*
X78352904Y-118453761D01*
X78400523Y-118406142D01*
%TO.C,R90*%
X91812857Y-156688380D02*
X92146190Y-156212190D01*
X92384285Y-156688380D02*
X92384285Y-155688380D01*
X92003333Y-155688380D01*
X91908095Y-155736000D01*
X91860476Y-155783619D01*
X91812857Y-155878857D01*
X91812857Y-156021714D01*
X91860476Y-156116952D01*
X91908095Y-156164571D01*
X92003333Y-156212190D01*
X92384285Y-156212190D01*
X91336666Y-156688380D02*
X91146190Y-156688380D01*
X91050952Y-156640761D01*
X91003333Y-156593142D01*
X90908095Y-156450285D01*
X90860476Y-156259809D01*
X90860476Y-155878857D01*
X90908095Y-155783619D01*
X90955714Y-155736000D01*
X91050952Y-155688380D01*
X91241428Y-155688380D01*
X91336666Y-155736000D01*
X91384285Y-155783619D01*
X91431904Y-155878857D01*
X91431904Y-156116952D01*
X91384285Y-156212190D01*
X91336666Y-156259809D01*
X91241428Y-156307428D01*
X91050952Y-156307428D01*
X90955714Y-156259809D01*
X90908095Y-156212190D01*
X90860476Y-156116952D01*
X90241428Y-155688380D02*
X90146190Y-155688380D01*
X90050952Y-155736000D01*
X90003333Y-155783619D01*
X89955714Y-155878857D01*
X89908095Y-156069333D01*
X89908095Y-156307428D01*
X89955714Y-156497904D01*
X90003333Y-156593142D01*
X90050952Y-156640761D01*
X90146190Y-156688380D01*
X90241428Y-156688380D01*
X90336666Y-156640761D01*
X90384285Y-156593142D01*
X90431904Y-156497904D01*
X90479523Y-156307428D01*
X90479523Y-156069333D01*
X90431904Y-155878857D01*
X90384285Y-155783619D01*
X90336666Y-155736000D01*
X90241428Y-155688380D01*
%TO.C,D8*%
X64886095Y-159528380D02*
X64886095Y-158528380D01*
X64648000Y-158528380D01*
X64505142Y-158576000D01*
X64409904Y-158671238D01*
X64362285Y-158766476D01*
X64314666Y-158956952D01*
X64314666Y-159099809D01*
X64362285Y-159290285D01*
X64409904Y-159385523D01*
X64505142Y-159480761D01*
X64648000Y-159528380D01*
X64886095Y-159528380D01*
X63743238Y-158956952D02*
X63838476Y-158909333D01*
X63886095Y-158861714D01*
X63933714Y-158766476D01*
X63933714Y-158718857D01*
X63886095Y-158623619D01*
X63838476Y-158576000D01*
X63743238Y-158528380D01*
X63552761Y-158528380D01*
X63457523Y-158576000D01*
X63409904Y-158623619D01*
X63362285Y-158718857D01*
X63362285Y-158766476D01*
X63409904Y-158861714D01*
X63457523Y-158909333D01*
X63552761Y-158956952D01*
X63743238Y-158956952D01*
X63838476Y-159004571D01*
X63886095Y-159052190D01*
X63933714Y-159147428D01*
X63933714Y-159337904D01*
X63886095Y-159433142D01*
X63838476Y-159480761D01*
X63743238Y-159528380D01*
X63552761Y-159528380D01*
X63457523Y-159480761D01*
X63409904Y-159433142D01*
X63362285Y-159337904D01*
X63362285Y-159147428D01*
X63409904Y-159052190D01*
X63457523Y-159004571D01*
X63552761Y-158956952D01*
D13*
%TO.C,U16*%
X67170047Y-99799190D02*
X67170047Y-100203952D01*
X67146238Y-100251571D01*
X67122428Y-100275380D01*
X67074809Y-100299190D01*
X66979571Y-100299190D01*
X66931952Y-100275380D01*
X66908142Y-100251571D01*
X66884333Y-100203952D01*
X66884333Y-99799190D01*
X66384333Y-100299190D02*
X66670047Y-100299190D01*
X66527190Y-100299190D02*
X66527190Y-99799190D01*
X66574809Y-99870619D01*
X66622428Y-99918238D01*
X66670047Y-99942047D01*
X65955761Y-99799190D02*
X66051000Y-99799190D01*
X66098619Y-99823000D01*
X66122428Y-99846809D01*
X66170047Y-99918238D01*
X66193857Y-100013476D01*
X66193857Y-100203952D01*
X66170047Y-100251571D01*
X66146238Y-100275380D01*
X66098619Y-100299190D01*
X66003380Y-100299190D01*
X65955761Y-100275380D01*
X65931952Y-100251571D01*
X65908142Y-100203952D01*
X65908142Y-100084904D01*
X65931952Y-100037285D01*
X65955761Y-100013476D01*
X66003380Y-99989666D01*
X66098619Y-99989666D01*
X66146238Y-100013476D01*
X66170047Y-100037285D01*
X66193857Y-100084904D01*
D12*
%TO.C,U13*%
X58138695Y-116372580D02*
X58138695Y-117182104D01*
X58091076Y-117277342D01*
X58043457Y-117324961D01*
X57948219Y-117372580D01*
X57757742Y-117372580D01*
X57662504Y-117324961D01*
X57614885Y-117277342D01*
X57567266Y-117182104D01*
X57567266Y-116372580D01*
X56567266Y-117372580D02*
X57138695Y-117372580D01*
X56852980Y-117372580D02*
X56852980Y-116372580D01*
X56948219Y-116515438D01*
X57043457Y-116610676D01*
X57138695Y-116658295D01*
X56233933Y-116372580D02*
X55614885Y-116372580D01*
X55948219Y-116753533D01*
X55805361Y-116753533D01*
X55710123Y-116801152D01*
X55662504Y-116848771D01*
X55614885Y-116944009D01*
X55614885Y-117182104D01*
X55662504Y-117277342D01*
X55710123Y-117324961D01*
X55805361Y-117372580D01*
X56091076Y-117372580D01*
X56186314Y-117324961D01*
X56233933Y-117277342D01*
D13*
%TO.C,U14*%
X47349590Y-107302752D02*
X47754352Y-107302752D01*
X47801971Y-107326561D01*
X47825780Y-107350371D01*
X47849590Y-107397990D01*
X47849590Y-107493228D01*
X47825780Y-107540847D01*
X47801971Y-107564657D01*
X47754352Y-107588466D01*
X47349590Y-107588466D01*
X47849590Y-108088466D02*
X47849590Y-107802752D01*
X47849590Y-107945609D02*
X47349590Y-107945609D01*
X47421019Y-107897990D01*
X47468638Y-107850371D01*
X47492447Y-107802752D01*
X47516257Y-108517038D02*
X47849590Y-108517038D01*
X47325780Y-108397990D02*
X47682923Y-108278942D01*
X47682923Y-108588466D01*
D12*
%TO.C,R28*%
X52851057Y-96223780D02*
X53184390Y-95747590D01*
X53422485Y-96223780D02*
X53422485Y-95223780D01*
X53041533Y-95223780D01*
X52946295Y-95271400D01*
X52898676Y-95319019D01*
X52851057Y-95414257D01*
X52851057Y-95557114D01*
X52898676Y-95652352D01*
X52946295Y-95699971D01*
X53041533Y-95747590D01*
X53422485Y-95747590D01*
X52470104Y-95319019D02*
X52422485Y-95271400D01*
X52327247Y-95223780D01*
X52089152Y-95223780D01*
X51993914Y-95271400D01*
X51946295Y-95319019D01*
X51898676Y-95414257D01*
X51898676Y-95509495D01*
X51946295Y-95652352D01*
X52517723Y-96223780D01*
X51898676Y-96223780D01*
X51327247Y-95652352D02*
X51422485Y-95604733D01*
X51470104Y-95557114D01*
X51517723Y-95461876D01*
X51517723Y-95414257D01*
X51470104Y-95319019D01*
X51422485Y-95271400D01*
X51327247Y-95223780D01*
X51136771Y-95223780D01*
X51041533Y-95271400D01*
X50993914Y-95319019D01*
X50946295Y-95414257D01*
X50946295Y-95461876D01*
X50993914Y-95557114D01*
X51041533Y-95604733D01*
X51136771Y-95652352D01*
X51327247Y-95652352D01*
X51422485Y-95699971D01*
X51470104Y-95747590D01*
X51517723Y-95842828D01*
X51517723Y-96033304D01*
X51470104Y-96128542D01*
X51422485Y-96176161D01*
X51327247Y-96223780D01*
X51136771Y-96223780D01*
X51041533Y-96176161D01*
X50993914Y-96128542D01*
X50946295Y-96033304D01*
X50946295Y-95842828D01*
X50993914Y-95747590D01*
X51041533Y-95699971D01*
X51136771Y-95652352D01*
%TO.C,R32*%
X70588857Y-107609380D02*
X70922190Y-107133190D01*
X71160285Y-107609380D02*
X71160285Y-106609380D01*
X70779333Y-106609380D01*
X70684095Y-106657000D01*
X70636476Y-106704619D01*
X70588857Y-106799857D01*
X70588857Y-106942714D01*
X70636476Y-107037952D01*
X70684095Y-107085571D01*
X70779333Y-107133190D01*
X71160285Y-107133190D01*
X70255523Y-106609380D02*
X69636476Y-106609380D01*
X69969809Y-106990333D01*
X69826952Y-106990333D01*
X69731714Y-107037952D01*
X69684095Y-107085571D01*
X69636476Y-107180809D01*
X69636476Y-107418904D01*
X69684095Y-107514142D01*
X69731714Y-107561761D01*
X69826952Y-107609380D01*
X70112666Y-107609380D01*
X70207904Y-107561761D01*
X70255523Y-107514142D01*
X69255523Y-106704619D02*
X69207904Y-106657000D01*
X69112666Y-106609380D01*
X68874571Y-106609380D01*
X68779333Y-106657000D01*
X68731714Y-106704619D01*
X68684095Y-106799857D01*
X68684095Y-106895095D01*
X68731714Y-107037952D01*
X69303142Y-107609380D01*
X68684095Y-107609380D01*
D13*
%TO.C,C64*%
X68774771Y-84057971D02*
X68798580Y-84034161D01*
X68822390Y-83962733D01*
X68822390Y-83915114D01*
X68798580Y-83843685D01*
X68750961Y-83796066D01*
X68703342Y-83772257D01*
X68608104Y-83748447D01*
X68536676Y-83748447D01*
X68441438Y-83772257D01*
X68393819Y-83796066D01*
X68346200Y-83843685D01*
X68322390Y-83915114D01*
X68322390Y-83962733D01*
X68346200Y-84034161D01*
X68370009Y-84057971D01*
X68322390Y-84486542D02*
X68322390Y-84391304D01*
X68346200Y-84343685D01*
X68370009Y-84319876D01*
X68441438Y-84272257D01*
X68536676Y-84248447D01*
X68727152Y-84248447D01*
X68774771Y-84272257D01*
X68798580Y-84296066D01*
X68822390Y-84343685D01*
X68822390Y-84438923D01*
X68798580Y-84486542D01*
X68774771Y-84510352D01*
X68727152Y-84534161D01*
X68608104Y-84534161D01*
X68560485Y-84510352D01*
X68536676Y-84486542D01*
X68512866Y-84438923D01*
X68512866Y-84343685D01*
X68536676Y-84296066D01*
X68560485Y-84272257D01*
X68608104Y-84248447D01*
X68489057Y-84962733D02*
X68822390Y-84962733D01*
X68298580Y-84843685D02*
X68655723Y-84724638D01*
X68655723Y-85034161D01*
D12*
%TO.C,R36*%
X56598580Y-103128542D02*
X56122390Y-102795209D01*
X56598580Y-102557114D02*
X55598580Y-102557114D01*
X55598580Y-102938066D01*
X55646200Y-103033304D01*
X55693819Y-103080923D01*
X55789057Y-103128542D01*
X55931914Y-103128542D01*
X56027152Y-103080923D01*
X56074771Y-103033304D01*
X56122390Y-102938066D01*
X56122390Y-102557114D01*
X55598580Y-103461876D02*
X55598580Y-104080923D01*
X55979533Y-103747590D01*
X55979533Y-103890447D01*
X56027152Y-103985685D01*
X56074771Y-104033304D01*
X56170009Y-104080923D01*
X56408104Y-104080923D01*
X56503342Y-104033304D01*
X56550961Y-103985685D01*
X56598580Y-103890447D01*
X56598580Y-103604733D01*
X56550961Y-103509495D01*
X56503342Y-103461876D01*
X55598580Y-104938066D02*
X55598580Y-104747590D01*
X55646200Y-104652352D01*
X55693819Y-104604733D01*
X55836676Y-104509495D01*
X56027152Y-104461876D01*
X56408104Y-104461876D01*
X56503342Y-104509495D01*
X56550961Y-104557114D01*
X56598580Y-104652352D01*
X56598580Y-104842828D01*
X56550961Y-104938066D01*
X56503342Y-104985685D01*
X56408104Y-105033304D01*
X56170009Y-105033304D01*
X56074771Y-104985685D01*
X56027152Y-104938066D01*
X55979533Y-104842828D01*
X55979533Y-104652352D01*
X56027152Y-104557114D01*
X56074771Y-104509495D01*
X56170009Y-104461876D01*
%TO.C,R93*%
X60772380Y-110007142D02*
X60296190Y-109673809D01*
X60772380Y-109435714D02*
X59772380Y-109435714D01*
X59772380Y-109816666D01*
X59820000Y-109911904D01*
X59867619Y-109959523D01*
X59962857Y-110007142D01*
X60105714Y-110007142D01*
X60200952Y-109959523D01*
X60248571Y-109911904D01*
X60296190Y-109816666D01*
X60296190Y-109435714D01*
X60772380Y-110483333D02*
X60772380Y-110673809D01*
X60724761Y-110769047D01*
X60677142Y-110816666D01*
X60534285Y-110911904D01*
X60343809Y-110959523D01*
X59962857Y-110959523D01*
X59867619Y-110911904D01*
X59820000Y-110864285D01*
X59772380Y-110769047D01*
X59772380Y-110578571D01*
X59820000Y-110483333D01*
X59867619Y-110435714D01*
X59962857Y-110388095D01*
X60200952Y-110388095D01*
X60296190Y-110435714D01*
X60343809Y-110483333D01*
X60391428Y-110578571D01*
X60391428Y-110769047D01*
X60343809Y-110864285D01*
X60296190Y-110911904D01*
X60200952Y-110959523D01*
X59772380Y-111292857D02*
X59772380Y-111911904D01*
X60153333Y-111578571D01*
X60153333Y-111721428D01*
X60200952Y-111816666D01*
X60248571Y-111864285D01*
X60343809Y-111911904D01*
X60581904Y-111911904D01*
X60677142Y-111864285D01*
X60724761Y-111816666D01*
X60772380Y-111721428D01*
X60772380Y-111435714D01*
X60724761Y-111340476D01*
X60677142Y-111292857D01*
%TO.C,C65*%
X61357342Y-77794522D02*
X61404961Y-77746903D01*
X61452580Y-77604046D01*
X61452580Y-77508808D01*
X61404961Y-77365951D01*
X61309723Y-77270713D01*
X61214485Y-77223094D01*
X61024009Y-77175475D01*
X60881152Y-77175475D01*
X60690676Y-77223094D01*
X60595438Y-77270713D01*
X60500200Y-77365951D01*
X60452580Y-77508808D01*
X60452580Y-77604046D01*
X60500200Y-77746903D01*
X60547819Y-77794522D01*
X60452580Y-78651665D02*
X60452580Y-78461189D01*
X60500200Y-78365951D01*
X60547819Y-78318332D01*
X60690676Y-78223094D01*
X60881152Y-78175475D01*
X61262104Y-78175475D01*
X61357342Y-78223094D01*
X61404961Y-78270713D01*
X61452580Y-78365951D01*
X61452580Y-78556427D01*
X61404961Y-78651665D01*
X61357342Y-78699284D01*
X61262104Y-78746903D01*
X61024009Y-78746903D01*
X60928771Y-78699284D01*
X60881152Y-78651665D01*
X60833533Y-78556427D01*
X60833533Y-78365951D01*
X60881152Y-78270713D01*
X60928771Y-78223094D01*
X61024009Y-78175475D01*
X60452580Y-79651665D02*
X60452580Y-79175475D01*
X60928771Y-79127856D01*
X60881152Y-79175475D01*
X60833533Y-79270713D01*
X60833533Y-79508808D01*
X60881152Y-79604046D01*
X60928771Y-79651665D01*
X61024009Y-79699284D01*
X61262104Y-79699284D01*
X61357342Y-79651665D01*
X61404961Y-79604046D01*
X61452580Y-79508808D01*
X61452580Y-79270713D01*
X61404961Y-79175475D01*
X61357342Y-79127856D01*
%TO.C,C42*%
X54229342Y-112911942D02*
X54276961Y-112864323D01*
X54324580Y-112721466D01*
X54324580Y-112626228D01*
X54276961Y-112483371D01*
X54181723Y-112388133D01*
X54086485Y-112340514D01*
X53896009Y-112292895D01*
X53753152Y-112292895D01*
X53562676Y-112340514D01*
X53467438Y-112388133D01*
X53372200Y-112483371D01*
X53324580Y-112626228D01*
X53324580Y-112721466D01*
X53372200Y-112864323D01*
X53419819Y-112911942D01*
X53657914Y-113769085D02*
X54324580Y-113769085D01*
X53276961Y-113530990D02*
X53991247Y-113292895D01*
X53991247Y-113911942D01*
X53419819Y-114245276D02*
X53372200Y-114292895D01*
X53324580Y-114388133D01*
X53324580Y-114626228D01*
X53372200Y-114721466D01*
X53419819Y-114769085D01*
X53515057Y-114816704D01*
X53610295Y-114816704D01*
X53753152Y-114769085D01*
X54324580Y-114197657D01*
X54324580Y-114816704D01*
D13*
%TO.C,C41*%
X81392771Y-99035971D02*
X81416580Y-99012161D01*
X81440390Y-98940733D01*
X81440390Y-98893114D01*
X81416580Y-98821685D01*
X81368961Y-98774066D01*
X81321342Y-98750257D01*
X81226104Y-98726447D01*
X81154676Y-98726447D01*
X81059438Y-98750257D01*
X81011819Y-98774066D01*
X80964200Y-98821685D01*
X80940390Y-98893114D01*
X80940390Y-98940733D01*
X80964200Y-99012161D01*
X80988009Y-99035971D01*
X81107057Y-99464542D02*
X81440390Y-99464542D01*
X80916580Y-99345495D02*
X81273723Y-99226447D01*
X81273723Y-99535971D01*
X81440390Y-99988352D02*
X81440390Y-99702638D01*
X81440390Y-99845495D02*
X80940390Y-99845495D01*
X81011819Y-99797876D01*
X81059438Y-99750257D01*
X81083247Y-99702638D01*
%TO.C,C58*%
X78571428Y-95193571D02*
X78595238Y-95217380D01*
X78666666Y-95241190D01*
X78714285Y-95241190D01*
X78785714Y-95217380D01*
X78833333Y-95169761D01*
X78857142Y-95122142D01*
X78880952Y-95026904D01*
X78880952Y-94955476D01*
X78857142Y-94860238D01*
X78833333Y-94812619D01*
X78785714Y-94765000D01*
X78714285Y-94741190D01*
X78666666Y-94741190D01*
X78595238Y-94765000D01*
X78571428Y-94788809D01*
X78119047Y-94741190D02*
X78357142Y-94741190D01*
X78380952Y-94979285D01*
X78357142Y-94955476D01*
X78309523Y-94931666D01*
X78190476Y-94931666D01*
X78142857Y-94955476D01*
X78119047Y-94979285D01*
X78095238Y-95026904D01*
X78095238Y-95145952D01*
X78119047Y-95193571D01*
X78142857Y-95217380D01*
X78190476Y-95241190D01*
X78309523Y-95241190D01*
X78357142Y-95217380D01*
X78380952Y-95193571D01*
X77809523Y-94955476D02*
X77857142Y-94931666D01*
X77880952Y-94907857D01*
X77904761Y-94860238D01*
X77904761Y-94836428D01*
X77880952Y-94788809D01*
X77857142Y-94765000D01*
X77809523Y-94741190D01*
X77714285Y-94741190D01*
X77666666Y-94765000D01*
X77642857Y-94788809D01*
X77619047Y-94836428D01*
X77619047Y-94860238D01*
X77642857Y-94907857D01*
X77666666Y-94931666D01*
X77714285Y-94955476D01*
X77809523Y-94955476D01*
X77857142Y-94979285D01*
X77880952Y-95003095D01*
X77904761Y-95050714D01*
X77904761Y-95145952D01*
X77880952Y-95193571D01*
X77857142Y-95217380D01*
X77809523Y-95241190D01*
X77714285Y-95241190D01*
X77666666Y-95217380D01*
X77642857Y-95193571D01*
X77619047Y-95145952D01*
X77619047Y-95050714D01*
X77642857Y-95003095D01*
X77666666Y-94979285D01*
X77714285Y-94955476D01*
D12*
%TO.C,C43*%
X60903477Y-118737342D02*
X60951096Y-118784961D01*
X61093953Y-118832580D01*
X61189191Y-118832580D01*
X61332048Y-118784961D01*
X61427286Y-118689723D01*
X61474905Y-118594485D01*
X61522524Y-118404009D01*
X61522524Y-118261152D01*
X61474905Y-118070676D01*
X61427286Y-117975438D01*
X61332048Y-117880200D01*
X61189191Y-117832580D01*
X61093953Y-117832580D01*
X60951096Y-117880200D01*
X60903477Y-117927819D01*
X60046334Y-118165914D02*
X60046334Y-118832580D01*
X60284429Y-117784961D02*
X60522524Y-118499247D01*
X59903477Y-118499247D01*
X59617762Y-117832580D02*
X58998715Y-117832580D01*
X59332048Y-118213533D01*
X59189191Y-118213533D01*
X59093953Y-118261152D01*
X59046334Y-118308771D01*
X58998715Y-118404009D01*
X58998715Y-118642104D01*
X59046334Y-118737342D01*
X59093953Y-118784961D01*
X59189191Y-118832580D01*
X59474905Y-118832580D01*
X59570143Y-118784961D01*
X59617762Y-118737342D01*
%TO.C,C36*%
X45231057Y-104400542D02*
X45278676Y-104448161D01*
X45421533Y-104495780D01*
X45516771Y-104495780D01*
X45659628Y-104448161D01*
X45754866Y-104352923D01*
X45802485Y-104257685D01*
X45850104Y-104067209D01*
X45850104Y-103924352D01*
X45802485Y-103733876D01*
X45754866Y-103638638D01*
X45659628Y-103543400D01*
X45516771Y-103495780D01*
X45421533Y-103495780D01*
X45278676Y-103543400D01*
X45231057Y-103591019D01*
X44897723Y-103495780D02*
X44278676Y-103495780D01*
X44612009Y-103876733D01*
X44469152Y-103876733D01*
X44373914Y-103924352D01*
X44326295Y-103971971D01*
X44278676Y-104067209D01*
X44278676Y-104305304D01*
X44326295Y-104400542D01*
X44373914Y-104448161D01*
X44469152Y-104495780D01*
X44754866Y-104495780D01*
X44850104Y-104448161D01*
X44897723Y-104400542D01*
X43421533Y-103495780D02*
X43612009Y-103495780D01*
X43707247Y-103543400D01*
X43754866Y-103591019D01*
X43850104Y-103733876D01*
X43897723Y-103924352D01*
X43897723Y-104305304D01*
X43850104Y-104400542D01*
X43802485Y-104448161D01*
X43707247Y-104495780D01*
X43516771Y-104495780D01*
X43421533Y-104448161D01*
X43373914Y-104400542D01*
X43326295Y-104305304D01*
X43326295Y-104067209D01*
X43373914Y-103971971D01*
X43421533Y-103924352D01*
X43516771Y-103876733D01*
X43707247Y-103876733D01*
X43802485Y-103924352D01*
X43850104Y-103971971D01*
X43897723Y-104067209D01*
%TO.C,RN3*%
X84642676Y-76695780D02*
X84976009Y-76219590D01*
X85214104Y-76695780D02*
X85214104Y-75695780D01*
X84833152Y-75695780D01*
X84737914Y-75743400D01*
X84690295Y-75791019D01*
X84642676Y-75886257D01*
X84642676Y-76029114D01*
X84690295Y-76124352D01*
X84737914Y-76171971D01*
X84833152Y-76219590D01*
X85214104Y-76219590D01*
X84214104Y-76695780D02*
X84214104Y-75695780D01*
X83642676Y-76695780D01*
X83642676Y-75695780D01*
X83261723Y-75695780D02*
X82642676Y-75695780D01*
X82976009Y-76076733D01*
X82833152Y-76076733D01*
X82737914Y-76124352D01*
X82690295Y-76171971D01*
X82642676Y-76267209D01*
X82642676Y-76505304D01*
X82690295Y-76600542D01*
X82737914Y-76648161D01*
X82833152Y-76695780D01*
X83118866Y-76695780D01*
X83214104Y-76648161D01*
X83261723Y-76600542D01*
%TO.C,D7*%
X83670095Y-103124380D02*
X83670095Y-102124380D01*
X83432000Y-102124380D01*
X83289142Y-102172000D01*
X83193904Y-102267238D01*
X83146285Y-102362476D01*
X83098666Y-102552952D01*
X83098666Y-102695809D01*
X83146285Y-102886285D01*
X83193904Y-102981523D01*
X83289142Y-103076761D01*
X83432000Y-103124380D01*
X83670095Y-103124380D01*
X82765333Y-102124380D02*
X82098666Y-102124380D01*
X82527238Y-103124380D01*
%TO.C,C66*%
X61357342Y-81406522D02*
X61404961Y-81358903D01*
X61452580Y-81216046D01*
X61452580Y-81120808D01*
X61404961Y-80977951D01*
X61309723Y-80882713D01*
X61214485Y-80835094D01*
X61024009Y-80787475D01*
X60881152Y-80787475D01*
X60690676Y-80835094D01*
X60595438Y-80882713D01*
X60500200Y-80977951D01*
X60452580Y-81120808D01*
X60452580Y-81216046D01*
X60500200Y-81358903D01*
X60547819Y-81406522D01*
X60452580Y-82263665D02*
X60452580Y-82073189D01*
X60500200Y-81977951D01*
X60547819Y-81930332D01*
X60690676Y-81835094D01*
X60881152Y-81787475D01*
X61262104Y-81787475D01*
X61357342Y-81835094D01*
X61404961Y-81882713D01*
X61452580Y-81977951D01*
X61452580Y-82168427D01*
X61404961Y-82263665D01*
X61357342Y-82311284D01*
X61262104Y-82358903D01*
X61024009Y-82358903D01*
X60928771Y-82311284D01*
X60881152Y-82263665D01*
X60833533Y-82168427D01*
X60833533Y-81977951D01*
X60881152Y-81882713D01*
X60928771Y-81835094D01*
X61024009Y-81787475D01*
X60452580Y-83216046D02*
X60452580Y-83025570D01*
X60500200Y-82930332D01*
X60547819Y-82882713D01*
X60690676Y-82787475D01*
X60881152Y-82739856D01*
X61262104Y-82739856D01*
X61357342Y-82787475D01*
X61404961Y-82835094D01*
X61452580Y-82930332D01*
X61452580Y-83120808D01*
X61404961Y-83216046D01*
X61357342Y-83263665D01*
X61262104Y-83311284D01*
X61024009Y-83311284D01*
X60928771Y-83263665D01*
X60881152Y-83216046D01*
X60833533Y-83120808D01*
X60833533Y-82930332D01*
X60881152Y-82835094D01*
X60928771Y-82787475D01*
X61024009Y-82739856D01*
%TO.C,U25*%
X43776380Y-125731904D02*
X44585904Y-125731904D01*
X44681142Y-125779523D01*
X44728761Y-125827142D01*
X44776380Y-125922380D01*
X44776380Y-126112857D01*
X44728761Y-126208095D01*
X44681142Y-126255714D01*
X44585904Y-126303333D01*
X43776380Y-126303333D01*
X43871619Y-126731904D02*
X43824000Y-126779523D01*
X43776380Y-126874761D01*
X43776380Y-127112857D01*
X43824000Y-127208095D01*
X43871619Y-127255714D01*
X43966857Y-127303333D01*
X44062095Y-127303333D01*
X44204952Y-127255714D01*
X44776380Y-126684285D01*
X44776380Y-127303333D01*
X43776380Y-128208095D02*
X43776380Y-127731904D01*
X44252571Y-127684285D01*
X44204952Y-127731904D01*
X44157333Y-127827142D01*
X44157333Y-128065238D01*
X44204952Y-128160476D01*
X44252571Y-128208095D01*
X44347809Y-128255714D01*
X44585904Y-128255714D01*
X44681142Y-128208095D01*
X44728761Y-128160476D01*
X44776380Y-128065238D01*
X44776380Y-127827142D01*
X44728761Y-127731904D01*
X44681142Y-127684285D01*
%TO.C,C37*%
X48025057Y-114674542D02*
X48072676Y-114722161D01*
X48215533Y-114769780D01*
X48310771Y-114769780D01*
X48453628Y-114722161D01*
X48548866Y-114626923D01*
X48596485Y-114531685D01*
X48644104Y-114341209D01*
X48644104Y-114198352D01*
X48596485Y-114007876D01*
X48548866Y-113912638D01*
X48453628Y-113817400D01*
X48310771Y-113769780D01*
X48215533Y-113769780D01*
X48072676Y-113817400D01*
X48025057Y-113865019D01*
X47691723Y-113769780D02*
X47072676Y-113769780D01*
X47406009Y-114150733D01*
X47263152Y-114150733D01*
X47167914Y-114198352D01*
X47120295Y-114245971D01*
X47072676Y-114341209D01*
X47072676Y-114579304D01*
X47120295Y-114674542D01*
X47167914Y-114722161D01*
X47263152Y-114769780D01*
X47548866Y-114769780D01*
X47644104Y-114722161D01*
X47691723Y-114674542D01*
X46739342Y-113769780D02*
X46072676Y-113769780D01*
X46501247Y-114769780D01*
%TO.C,C67*%
X88787342Y-81506542D02*
X88834961Y-81458923D01*
X88882580Y-81316066D01*
X88882580Y-81220828D01*
X88834961Y-81077971D01*
X88739723Y-80982733D01*
X88644485Y-80935114D01*
X88454009Y-80887495D01*
X88311152Y-80887495D01*
X88120676Y-80935114D01*
X88025438Y-80982733D01*
X87930200Y-81077971D01*
X87882580Y-81220828D01*
X87882580Y-81316066D01*
X87930200Y-81458923D01*
X87977819Y-81506542D01*
X87882580Y-82363685D02*
X87882580Y-82173209D01*
X87930200Y-82077971D01*
X87977819Y-82030352D01*
X88120676Y-81935114D01*
X88311152Y-81887495D01*
X88692104Y-81887495D01*
X88787342Y-81935114D01*
X88834961Y-81982733D01*
X88882580Y-82077971D01*
X88882580Y-82268447D01*
X88834961Y-82363685D01*
X88787342Y-82411304D01*
X88692104Y-82458923D01*
X88454009Y-82458923D01*
X88358771Y-82411304D01*
X88311152Y-82363685D01*
X88263533Y-82268447D01*
X88263533Y-82077971D01*
X88311152Y-81982733D01*
X88358771Y-81935114D01*
X88454009Y-81887495D01*
X87882580Y-82792257D02*
X87882580Y-83458923D01*
X88882580Y-83030352D01*
%TO.C,R29*%
X52851057Y-94699780D02*
X53184390Y-94223590D01*
X53422485Y-94699780D02*
X53422485Y-93699780D01*
X53041533Y-93699780D01*
X52946295Y-93747400D01*
X52898676Y-93795019D01*
X52851057Y-93890257D01*
X52851057Y-94033114D01*
X52898676Y-94128352D01*
X52946295Y-94175971D01*
X53041533Y-94223590D01*
X53422485Y-94223590D01*
X52470104Y-93795019D02*
X52422485Y-93747400D01*
X52327247Y-93699780D01*
X52089152Y-93699780D01*
X51993914Y-93747400D01*
X51946295Y-93795019D01*
X51898676Y-93890257D01*
X51898676Y-93985495D01*
X51946295Y-94128352D01*
X52517723Y-94699780D01*
X51898676Y-94699780D01*
X51422485Y-94699780D02*
X51232009Y-94699780D01*
X51136771Y-94652161D01*
X51089152Y-94604542D01*
X50993914Y-94461685D01*
X50946295Y-94271209D01*
X50946295Y-93890257D01*
X50993914Y-93795019D01*
X51041533Y-93747400D01*
X51136771Y-93699780D01*
X51327247Y-93699780D01*
X51422485Y-93747400D01*
X51470104Y-93795019D01*
X51517723Y-93890257D01*
X51517723Y-94128352D01*
X51470104Y-94223590D01*
X51422485Y-94271209D01*
X51327247Y-94318828D01*
X51136771Y-94318828D01*
X51041533Y-94271209D01*
X50993914Y-94223590D01*
X50946295Y-94128352D01*
%TO.C,R30*%
X52851057Y-93175780D02*
X53184390Y-92699590D01*
X53422485Y-93175780D02*
X53422485Y-92175780D01*
X53041533Y-92175780D01*
X52946295Y-92223400D01*
X52898676Y-92271019D01*
X52851057Y-92366257D01*
X52851057Y-92509114D01*
X52898676Y-92604352D01*
X52946295Y-92651971D01*
X53041533Y-92699590D01*
X53422485Y-92699590D01*
X52517723Y-92175780D02*
X51898676Y-92175780D01*
X52232009Y-92556733D01*
X52089152Y-92556733D01*
X51993914Y-92604352D01*
X51946295Y-92651971D01*
X51898676Y-92747209D01*
X51898676Y-92985304D01*
X51946295Y-93080542D01*
X51993914Y-93128161D01*
X52089152Y-93175780D01*
X52374866Y-93175780D01*
X52470104Y-93128161D01*
X52517723Y-93080542D01*
X51279628Y-92175780D02*
X51184390Y-92175780D01*
X51089152Y-92223400D01*
X51041533Y-92271019D01*
X50993914Y-92366257D01*
X50946295Y-92556733D01*
X50946295Y-92794828D01*
X50993914Y-92985304D01*
X51041533Y-93080542D01*
X51089152Y-93128161D01*
X51184390Y-93175780D01*
X51279628Y-93175780D01*
X51374866Y-93128161D01*
X51422485Y-93080542D01*
X51470104Y-92985304D01*
X51517723Y-92794828D01*
X51517723Y-92556733D01*
X51470104Y-92366257D01*
X51422485Y-92271019D01*
X51374866Y-92223400D01*
X51279628Y-92175780D01*
%TO.C,R33*%
X79101857Y-107609380D02*
X79435190Y-107133190D01*
X79673285Y-107609380D02*
X79673285Y-106609380D01*
X79292333Y-106609380D01*
X79197095Y-106657000D01*
X79149476Y-106704619D01*
X79101857Y-106799857D01*
X79101857Y-106942714D01*
X79149476Y-107037952D01*
X79197095Y-107085571D01*
X79292333Y-107133190D01*
X79673285Y-107133190D01*
X78768523Y-106609380D02*
X78149476Y-106609380D01*
X78482809Y-106990333D01*
X78339952Y-106990333D01*
X78244714Y-107037952D01*
X78197095Y-107085571D01*
X78149476Y-107180809D01*
X78149476Y-107418904D01*
X78197095Y-107514142D01*
X78244714Y-107561761D01*
X78339952Y-107609380D01*
X78625666Y-107609380D01*
X78720904Y-107561761D01*
X78768523Y-107514142D01*
X77816142Y-106609380D02*
X77197095Y-106609380D01*
X77530428Y-106990333D01*
X77387571Y-106990333D01*
X77292333Y-107037952D01*
X77244714Y-107085571D01*
X77197095Y-107180809D01*
X77197095Y-107418904D01*
X77244714Y-107514142D01*
X77292333Y-107561761D01*
X77387571Y-107609380D01*
X77673285Y-107609380D01*
X77768523Y-107561761D01*
X77816142Y-107514142D01*
%TO.C,D6*%
X66093095Y-105124380D02*
X66093095Y-104124380D01*
X65855000Y-104124380D01*
X65712142Y-104172000D01*
X65616904Y-104267238D01*
X65569285Y-104362476D01*
X65521666Y-104552952D01*
X65521666Y-104695809D01*
X65569285Y-104886285D01*
X65616904Y-104981523D01*
X65712142Y-105076761D01*
X65855000Y-105124380D01*
X66093095Y-105124380D01*
X64664523Y-104124380D02*
X64855000Y-104124380D01*
X64950238Y-104172000D01*
X64997857Y-104219619D01*
X65093095Y-104362476D01*
X65140714Y-104552952D01*
X65140714Y-104933904D01*
X65093095Y-105029142D01*
X65045476Y-105076761D01*
X64950238Y-105124380D01*
X64759761Y-105124380D01*
X64664523Y-105076761D01*
X64616904Y-105029142D01*
X64569285Y-104933904D01*
X64569285Y-104695809D01*
X64616904Y-104600571D01*
X64664523Y-104552952D01*
X64759761Y-104505333D01*
X64950238Y-104505333D01*
X65045476Y-104552952D01*
X65093095Y-104600571D01*
X65140714Y-104695809D01*
D13*
%TO.C,C51*%
X63248428Y-97291571D02*
X63272238Y-97315380D01*
X63343666Y-97339190D01*
X63391285Y-97339190D01*
X63462714Y-97315380D01*
X63510333Y-97267761D01*
X63534142Y-97220142D01*
X63557952Y-97124904D01*
X63557952Y-97053476D01*
X63534142Y-96958238D01*
X63510333Y-96910619D01*
X63462714Y-96863000D01*
X63391285Y-96839190D01*
X63343666Y-96839190D01*
X63272238Y-96863000D01*
X63248428Y-96886809D01*
X62796047Y-96839190D02*
X63034142Y-96839190D01*
X63057952Y-97077285D01*
X63034142Y-97053476D01*
X62986523Y-97029666D01*
X62867476Y-97029666D01*
X62819857Y-97053476D01*
X62796047Y-97077285D01*
X62772238Y-97124904D01*
X62772238Y-97243952D01*
X62796047Y-97291571D01*
X62819857Y-97315380D01*
X62867476Y-97339190D01*
X62986523Y-97339190D01*
X63034142Y-97315380D01*
X63057952Y-97291571D01*
X62296047Y-97339190D02*
X62581761Y-97339190D01*
X62438904Y-97339190D02*
X62438904Y-96839190D01*
X62486523Y-96910619D01*
X62534142Y-96958238D01*
X62581761Y-96982047D01*
D12*
%TO.C,R106*%
X101943047Y-144972380D02*
X102276380Y-144496190D01*
X102514476Y-144972380D02*
X102514476Y-143972380D01*
X102133523Y-143972380D01*
X102038285Y-144020000D01*
X101990666Y-144067619D01*
X101943047Y-144162857D01*
X101943047Y-144305714D01*
X101990666Y-144400952D01*
X102038285Y-144448571D01*
X102133523Y-144496190D01*
X102514476Y-144496190D01*
X100990666Y-144972380D02*
X101562095Y-144972380D01*
X101276380Y-144972380D02*
X101276380Y-143972380D01*
X101371619Y-144115238D01*
X101466857Y-144210476D01*
X101562095Y-144258095D01*
X100371619Y-143972380D02*
X100276380Y-143972380D01*
X100181142Y-144020000D01*
X100133523Y-144067619D01*
X100085904Y-144162857D01*
X100038285Y-144353333D01*
X100038285Y-144591428D01*
X100085904Y-144781904D01*
X100133523Y-144877142D01*
X100181142Y-144924761D01*
X100276380Y-144972380D01*
X100371619Y-144972380D01*
X100466857Y-144924761D01*
X100514476Y-144877142D01*
X100562095Y-144781904D01*
X100609714Y-144591428D01*
X100609714Y-144353333D01*
X100562095Y-144162857D01*
X100514476Y-144067619D01*
X100466857Y-144020000D01*
X100371619Y-143972380D01*
X99181142Y-143972380D02*
X99371619Y-143972380D01*
X99466857Y-144020000D01*
X99514476Y-144067619D01*
X99609714Y-144210476D01*
X99657333Y-144400952D01*
X99657333Y-144781904D01*
X99609714Y-144877142D01*
X99562095Y-144924761D01*
X99466857Y-144972380D01*
X99276380Y-144972380D01*
X99181142Y-144924761D01*
X99133523Y-144877142D01*
X99085904Y-144781904D01*
X99085904Y-144543809D01*
X99133523Y-144448571D01*
X99181142Y-144400952D01*
X99276380Y-144353333D01*
X99466857Y-144353333D01*
X99562095Y-144400952D01*
X99609714Y-144448571D01*
X99657333Y-144543809D01*
%TO.C,C40*%
X45485057Y-106432542D02*
X45532676Y-106480161D01*
X45675533Y-106527780D01*
X45770771Y-106527780D01*
X45913628Y-106480161D01*
X46008866Y-106384923D01*
X46056485Y-106289685D01*
X46104104Y-106099209D01*
X46104104Y-105956352D01*
X46056485Y-105765876D01*
X46008866Y-105670638D01*
X45913628Y-105575400D01*
X45770771Y-105527780D01*
X45675533Y-105527780D01*
X45532676Y-105575400D01*
X45485057Y-105623019D01*
X44627914Y-105861114D02*
X44627914Y-106527780D01*
X44866009Y-105480161D02*
X45104104Y-106194447D01*
X44485057Y-106194447D01*
X43913628Y-105527780D02*
X43818390Y-105527780D01*
X43723152Y-105575400D01*
X43675533Y-105623019D01*
X43627914Y-105718257D01*
X43580295Y-105908733D01*
X43580295Y-106146828D01*
X43627914Y-106337304D01*
X43675533Y-106432542D01*
X43723152Y-106480161D01*
X43818390Y-106527780D01*
X43913628Y-106527780D01*
X44008866Y-106480161D01*
X44056485Y-106432542D01*
X44104104Y-106337304D01*
X44151723Y-106146828D01*
X44151723Y-105908733D01*
X44104104Y-105718257D01*
X44056485Y-105623019D01*
X44008866Y-105575400D01*
X43913628Y-105527780D01*
%TO.C,C62*%
X68977342Y-77680542D02*
X69024961Y-77632923D01*
X69072580Y-77490066D01*
X69072580Y-77394828D01*
X69024961Y-77251971D01*
X68929723Y-77156733D01*
X68834485Y-77109114D01*
X68644009Y-77061495D01*
X68501152Y-77061495D01*
X68310676Y-77109114D01*
X68215438Y-77156733D01*
X68120200Y-77251971D01*
X68072580Y-77394828D01*
X68072580Y-77490066D01*
X68120200Y-77632923D01*
X68167819Y-77680542D01*
X68072580Y-78537685D02*
X68072580Y-78347209D01*
X68120200Y-78251971D01*
X68167819Y-78204352D01*
X68310676Y-78109114D01*
X68501152Y-78061495D01*
X68882104Y-78061495D01*
X68977342Y-78109114D01*
X69024961Y-78156733D01*
X69072580Y-78251971D01*
X69072580Y-78442447D01*
X69024961Y-78537685D01*
X68977342Y-78585304D01*
X68882104Y-78632923D01*
X68644009Y-78632923D01*
X68548771Y-78585304D01*
X68501152Y-78537685D01*
X68453533Y-78442447D01*
X68453533Y-78251971D01*
X68501152Y-78156733D01*
X68548771Y-78109114D01*
X68644009Y-78061495D01*
X68167819Y-79013876D02*
X68120200Y-79061495D01*
X68072580Y-79156733D01*
X68072580Y-79394828D01*
X68120200Y-79490066D01*
X68167819Y-79537685D01*
X68263057Y-79585304D01*
X68358295Y-79585304D01*
X68501152Y-79537685D01*
X69072580Y-78966257D01*
X69072580Y-79585304D01*
%TO.C,C34*%
X54869342Y-103128542D02*
X54916961Y-103080923D01*
X54964580Y-102938066D01*
X54964580Y-102842828D01*
X54916961Y-102699971D01*
X54821723Y-102604733D01*
X54726485Y-102557114D01*
X54536009Y-102509495D01*
X54393152Y-102509495D01*
X54202676Y-102557114D01*
X54107438Y-102604733D01*
X54012200Y-102699971D01*
X53964580Y-102842828D01*
X53964580Y-102938066D01*
X54012200Y-103080923D01*
X54059819Y-103128542D01*
X53964580Y-103461876D02*
X53964580Y-104080923D01*
X54345533Y-103747590D01*
X54345533Y-103890447D01*
X54393152Y-103985685D01*
X54440771Y-104033304D01*
X54536009Y-104080923D01*
X54774104Y-104080923D01*
X54869342Y-104033304D01*
X54916961Y-103985685D01*
X54964580Y-103890447D01*
X54964580Y-103604733D01*
X54916961Y-103509495D01*
X54869342Y-103461876D01*
X54297914Y-104938066D02*
X54964580Y-104938066D01*
X53916961Y-104699971D02*
X54631247Y-104461876D01*
X54631247Y-105080923D01*
%TO.C,R31*%
X52851057Y-91651780D02*
X53184390Y-91175590D01*
X53422485Y-91651780D02*
X53422485Y-90651780D01*
X53041533Y-90651780D01*
X52946295Y-90699400D01*
X52898676Y-90747019D01*
X52851057Y-90842257D01*
X52851057Y-90985114D01*
X52898676Y-91080352D01*
X52946295Y-91127971D01*
X53041533Y-91175590D01*
X53422485Y-91175590D01*
X52517723Y-90651780D02*
X51898676Y-90651780D01*
X52232009Y-91032733D01*
X52089152Y-91032733D01*
X51993914Y-91080352D01*
X51946295Y-91127971D01*
X51898676Y-91223209D01*
X51898676Y-91461304D01*
X51946295Y-91556542D01*
X51993914Y-91604161D01*
X52089152Y-91651780D01*
X52374866Y-91651780D01*
X52470104Y-91604161D01*
X52517723Y-91556542D01*
X50946295Y-91651780D02*
X51517723Y-91651780D01*
X51232009Y-91651780D02*
X51232009Y-90651780D01*
X51327247Y-90794638D01*
X51422485Y-90889876D01*
X51517723Y-90937495D01*
%TO.C,U18*%
X71127380Y-109156904D02*
X71936904Y-109156904D01*
X72032142Y-109204523D01*
X72079761Y-109252142D01*
X72127380Y-109347380D01*
X72127380Y-109537857D01*
X72079761Y-109633095D01*
X72032142Y-109680714D01*
X71936904Y-109728333D01*
X71127380Y-109728333D01*
X72127380Y-110728333D02*
X72127380Y-110156904D01*
X72127380Y-110442619D02*
X71127380Y-110442619D01*
X71270238Y-110347380D01*
X71365476Y-110252142D01*
X71413095Y-110156904D01*
X71555952Y-111299761D02*
X71508333Y-111204523D01*
X71460714Y-111156904D01*
X71365476Y-111109285D01*
X71317857Y-111109285D01*
X71222619Y-111156904D01*
X71175000Y-111204523D01*
X71127380Y-111299761D01*
X71127380Y-111490238D01*
X71175000Y-111585476D01*
X71222619Y-111633095D01*
X71317857Y-111680714D01*
X71365476Y-111680714D01*
X71460714Y-111633095D01*
X71508333Y-111585476D01*
X71555952Y-111490238D01*
X71555952Y-111299761D01*
X71603571Y-111204523D01*
X71651190Y-111156904D01*
X71746428Y-111109285D01*
X71936904Y-111109285D01*
X72032142Y-111156904D01*
X72079761Y-111204523D01*
X72127380Y-111299761D01*
X72127380Y-111490238D01*
X72079761Y-111585476D01*
X72032142Y-111633095D01*
X71936904Y-111680714D01*
X71746428Y-111680714D01*
X71651190Y-111633095D01*
X71603571Y-111585476D01*
X71555952Y-111490238D01*
%TO.C,RN1*%
X73928676Y-76425780D02*
X74262009Y-75949590D01*
X74500104Y-76425780D02*
X74500104Y-75425780D01*
X74119152Y-75425780D01*
X74023914Y-75473400D01*
X73976295Y-75521019D01*
X73928676Y-75616257D01*
X73928676Y-75759114D01*
X73976295Y-75854352D01*
X74023914Y-75901971D01*
X74119152Y-75949590D01*
X74500104Y-75949590D01*
X73500104Y-76425780D02*
X73500104Y-75425780D01*
X72928676Y-76425780D01*
X72928676Y-75425780D01*
X71928676Y-76425780D02*
X72500104Y-76425780D01*
X72214390Y-76425780D02*
X72214390Y-75425780D01*
X72309628Y-75568638D01*
X72404866Y-75663876D01*
X72500104Y-75711495D01*
%TO.C,C68*%
X79437342Y-77950542D02*
X79484961Y-77902923D01*
X79532580Y-77760066D01*
X79532580Y-77664828D01*
X79484961Y-77521971D01*
X79389723Y-77426733D01*
X79294485Y-77379114D01*
X79104009Y-77331495D01*
X78961152Y-77331495D01*
X78770676Y-77379114D01*
X78675438Y-77426733D01*
X78580200Y-77521971D01*
X78532580Y-77664828D01*
X78532580Y-77760066D01*
X78580200Y-77902923D01*
X78627819Y-77950542D01*
X78532580Y-78807685D02*
X78532580Y-78617209D01*
X78580200Y-78521971D01*
X78627819Y-78474352D01*
X78770676Y-78379114D01*
X78961152Y-78331495D01*
X79342104Y-78331495D01*
X79437342Y-78379114D01*
X79484961Y-78426733D01*
X79532580Y-78521971D01*
X79532580Y-78712447D01*
X79484961Y-78807685D01*
X79437342Y-78855304D01*
X79342104Y-78902923D01*
X79104009Y-78902923D01*
X79008771Y-78855304D01*
X78961152Y-78807685D01*
X78913533Y-78712447D01*
X78913533Y-78521971D01*
X78961152Y-78426733D01*
X79008771Y-78379114D01*
X79104009Y-78331495D01*
X78961152Y-79474352D02*
X78913533Y-79379114D01*
X78865914Y-79331495D01*
X78770676Y-79283876D01*
X78723057Y-79283876D01*
X78627819Y-79331495D01*
X78580200Y-79379114D01*
X78532580Y-79474352D01*
X78532580Y-79664828D01*
X78580200Y-79760066D01*
X78627819Y-79807685D01*
X78723057Y-79855304D01*
X78770676Y-79855304D01*
X78865914Y-79807685D01*
X78913533Y-79760066D01*
X78961152Y-79664828D01*
X78961152Y-79474352D01*
X79008771Y-79379114D01*
X79056390Y-79331495D01*
X79151628Y-79283876D01*
X79342104Y-79283876D01*
X79437342Y-79331495D01*
X79484961Y-79379114D01*
X79532580Y-79474352D01*
X79532580Y-79664828D01*
X79484961Y-79760066D01*
X79437342Y-79807685D01*
X79342104Y-79855304D01*
X79151628Y-79855304D01*
X79056390Y-79807685D01*
X79008771Y-79760066D01*
X78961152Y-79664828D01*
%TO.C,R107*%
X109454047Y-150823380D02*
X109787380Y-150347190D01*
X110025476Y-150823380D02*
X110025476Y-149823380D01*
X109644523Y-149823380D01*
X109549285Y-149871000D01*
X109501666Y-149918619D01*
X109454047Y-150013857D01*
X109454047Y-150156714D01*
X109501666Y-150251952D01*
X109549285Y-150299571D01*
X109644523Y-150347190D01*
X110025476Y-150347190D01*
X108501666Y-150823380D02*
X109073095Y-150823380D01*
X108787380Y-150823380D02*
X108787380Y-149823380D01*
X108882619Y-149966238D01*
X108977857Y-150061476D01*
X109073095Y-150109095D01*
X107882619Y-149823380D02*
X107787380Y-149823380D01*
X107692142Y-149871000D01*
X107644523Y-149918619D01*
X107596904Y-150013857D01*
X107549285Y-150204333D01*
X107549285Y-150442428D01*
X107596904Y-150632904D01*
X107644523Y-150728142D01*
X107692142Y-150775761D01*
X107787380Y-150823380D01*
X107882619Y-150823380D01*
X107977857Y-150775761D01*
X108025476Y-150728142D01*
X108073095Y-150632904D01*
X108120714Y-150442428D01*
X108120714Y-150204333D01*
X108073095Y-150013857D01*
X108025476Y-149918619D01*
X107977857Y-149871000D01*
X107882619Y-149823380D01*
X107215952Y-149823380D02*
X106549285Y-149823380D01*
X106977857Y-150823380D01*
%TO.C,C30*%
X56665057Y-87492542D02*
X56712676Y-87540161D01*
X56855533Y-87587780D01*
X56950771Y-87587780D01*
X57093628Y-87540161D01*
X57188866Y-87444923D01*
X57236485Y-87349685D01*
X57284104Y-87159209D01*
X57284104Y-87016352D01*
X57236485Y-86825876D01*
X57188866Y-86730638D01*
X57093628Y-86635400D01*
X56950771Y-86587780D01*
X56855533Y-86587780D01*
X56712676Y-86635400D01*
X56665057Y-86683019D01*
X56331723Y-86587780D02*
X55712676Y-86587780D01*
X56046009Y-86968733D01*
X55903152Y-86968733D01*
X55807914Y-87016352D01*
X55760295Y-87063971D01*
X55712676Y-87159209D01*
X55712676Y-87397304D01*
X55760295Y-87492542D01*
X55807914Y-87540161D01*
X55903152Y-87587780D01*
X56188866Y-87587780D01*
X56284104Y-87540161D01*
X56331723Y-87492542D01*
X55093628Y-86587780D02*
X54998390Y-86587780D01*
X54903152Y-86635400D01*
X54855533Y-86683019D01*
X54807914Y-86778257D01*
X54760295Y-86968733D01*
X54760295Y-87206828D01*
X54807914Y-87397304D01*
X54855533Y-87492542D01*
X54903152Y-87540161D01*
X54998390Y-87587780D01*
X55093628Y-87587780D01*
X55188866Y-87540161D01*
X55236485Y-87492542D01*
X55284104Y-87397304D01*
X55331723Y-87206828D01*
X55331723Y-86968733D01*
X55284104Y-86778257D01*
X55236485Y-86683019D01*
X55188866Y-86635400D01*
X55093628Y-86587780D01*
%TO.C,R91*%
X88062857Y-156724380D02*
X88396190Y-156248190D01*
X88634285Y-156724380D02*
X88634285Y-155724380D01*
X88253333Y-155724380D01*
X88158095Y-155772000D01*
X88110476Y-155819619D01*
X88062857Y-155914857D01*
X88062857Y-156057714D01*
X88110476Y-156152952D01*
X88158095Y-156200571D01*
X88253333Y-156248190D01*
X88634285Y-156248190D01*
X87586666Y-156724380D02*
X87396190Y-156724380D01*
X87300952Y-156676761D01*
X87253333Y-156629142D01*
X87158095Y-156486285D01*
X87110476Y-156295809D01*
X87110476Y-155914857D01*
X87158095Y-155819619D01*
X87205714Y-155772000D01*
X87300952Y-155724380D01*
X87491428Y-155724380D01*
X87586666Y-155772000D01*
X87634285Y-155819619D01*
X87681904Y-155914857D01*
X87681904Y-156152952D01*
X87634285Y-156248190D01*
X87586666Y-156295809D01*
X87491428Y-156343428D01*
X87300952Y-156343428D01*
X87205714Y-156295809D01*
X87158095Y-156248190D01*
X87110476Y-156152952D01*
X86158095Y-156724380D02*
X86729523Y-156724380D01*
X86443809Y-156724380D02*
X86443809Y-155724380D01*
X86539047Y-155867238D01*
X86634285Y-155962476D01*
X86729523Y-156010095D01*
%TO.C,C52*%
X71219857Y-117379142D02*
X71267476Y-117426761D01*
X71410333Y-117474380D01*
X71505571Y-117474380D01*
X71648428Y-117426761D01*
X71743666Y-117331523D01*
X71791285Y-117236285D01*
X71838904Y-117045809D01*
X71838904Y-116902952D01*
X71791285Y-116712476D01*
X71743666Y-116617238D01*
X71648428Y-116522000D01*
X71505571Y-116474380D01*
X71410333Y-116474380D01*
X71267476Y-116522000D01*
X71219857Y-116569619D01*
X70315095Y-116474380D02*
X70791285Y-116474380D01*
X70838904Y-116950571D01*
X70791285Y-116902952D01*
X70696047Y-116855333D01*
X70457952Y-116855333D01*
X70362714Y-116902952D01*
X70315095Y-116950571D01*
X70267476Y-117045809D01*
X70267476Y-117283904D01*
X70315095Y-117379142D01*
X70362714Y-117426761D01*
X70457952Y-117474380D01*
X70696047Y-117474380D01*
X70791285Y-117426761D01*
X70838904Y-117379142D01*
X69886523Y-116569619D02*
X69838904Y-116522000D01*
X69743666Y-116474380D01*
X69505571Y-116474380D01*
X69410333Y-116522000D01*
X69362714Y-116569619D01*
X69315095Y-116664857D01*
X69315095Y-116760095D01*
X69362714Y-116902952D01*
X69934142Y-117474380D01*
X69315095Y-117474380D01*
%TO.C,C53*%
X70155142Y-110780142D02*
X70202761Y-110732523D01*
X70250380Y-110589666D01*
X70250380Y-110494428D01*
X70202761Y-110351571D01*
X70107523Y-110256333D01*
X70012285Y-110208714D01*
X69821809Y-110161095D01*
X69678952Y-110161095D01*
X69488476Y-110208714D01*
X69393238Y-110256333D01*
X69298000Y-110351571D01*
X69250380Y-110494428D01*
X69250380Y-110589666D01*
X69298000Y-110732523D01*
X69345619Y-110780142D01*
X69250380Y-111684904D02*
X69250380Y-111208714D01*
X69726571Y-111161095D01*
X69678952Y-111208714D01*
X69631333Y-111303952D01*
X69631333Y-111542047D01*
X69678952Y-111637285D01*
X69726571Y-111684904D01*
X69821809Y-111732523D01*
X70059904Y-111732523D01*
X70155142Y-111684904D01*
X70202761Y-111637285D01*
X70250380Y-111542047D01*
X70250380Y-111303952D01*
X70202761Y-111208714D01*
X70155142Y-111161095D01*
X69250380Y-112065857D02*
X69250380Y-112684904D01*
X69631333Y-112351571D01*
X69631333Y-112494428D01*
X69678952Y-112589666D01*
X69726571Y-112637285D01*
X69821809Y-112684904D01*
X70059904Y-112684904D01*
X70155142Y-112637285D01*
X70202761Y-112589666D01*
X70250380Y-112494428D01*
X70250380Y-112208714D01*
X70202761Y-112113476D01*
X70155142Y-112065857D01*
%TO.C,C61*%
X78073342Y-81486542D02*
X78120961Y-81438923D01*
X78168580Y-81296066D01*
X78168580Y-81200828D01*
X78120961Y-81057971D01*
X78025723Y-80962733D01*
X77930485Y-80915114D01*
X77740009Y-80867495D01*
X77597152Y-80867495D01*
X77406676Y-80915114D01*
X77311438Y-80962733D01*
X77216200Y-81057971D01*
X77168580Y-81200828D01*
X77168580Y-81296066D01*
X77216200Y-81438923D01*
X77263819Y-81486542D01*
X77168580Y-82343685D02*
X77168580Y-82153209D01*
X77216200Y-82057971D01*
X77263819Y-82010352D01*
X77406676Y-81915114D01*
X77597152Y-81867495D01*
X77978104Y-81867495D01*
X78073342Y-81915114D01*
X78120961Y-81962733D01*
X78168580Y-82057971D01*
X78168580Y-82248447D01*
X78120961Y-82343685D01*
X78073342Y-82391304D01*
X77978104Y-82438923D01*
X77740009Y-82438923D01*
X77644771Y-82391304D01*
X77597152Y-82343685D01*
X77549533Y-82248447D01*
X77549533Y-82057971D01*
X77597152Y-81962733D01*
X77644771Y-81915114D01*
X77740009Y-81867495D01*
X78168580Y-83391304D02*
X78168580Y-82819876D01*
X78168580Y-83105590D02*
X77168580Y-83105590D01*
X77311438Y-83010352D01*
X77406676Y-82915114D01*
X77454295Y-82819876D01*
%TO.C,Q21*%
X78351428Y-154997619D02*
X78446666Y-154950000D01*
X78541904Y-154854761D01*
X78684761Y-154711904D01*
X78780000Y-154664285D01*
X78875238Y-154664285D01*
X78827619Y-154902380D02*
X78922857Y-154854761D01*
X79018095Y-154759523D01*
X79065714Y-154569047D01*
X79065714Y-154235714D01*
X79018095Y-154045238D01*
X78922857Y-153950000D01*
X78827619Y-153902380D01*
X78637142Y-153902380D01*
X78541904Y-153950000D01*
X78446666Y-154045238D01*
X78399047Y-154235714D01*
X78399047Y-154569047D01*
X78446666Y-154759523D01*
X78541904Y-154854761D01*
X78637142Y-154902380D01*
X78827619Y-154902380D01*
X78018095Y-153997619D02*
X77970476Y-153950000D01*
X77875238Y-153902380D01*
X77637142Y-153902380D01*
X77541904Y-153950000D01*
X77494285Y-153997619D01*
X77446666Y-154092857D01*
X77446666Y-154188095D01*
X77494285Y-154330952D01*
X78065714Y-154902380D01*
X77446666Y-154902380D01*
X76494285Y-154902380D02*
X77065714Y-154902380D01*
X76780000Y-154902380D02*
X76780000Y-153902380D01*
X76875238Y-154045238D01*
X76970476Y-154140476D01*
X77065714Y-154188095D01*
%TO.C,U21*%
X74476295Y-83981780D02*
X74476295Y-84791304D01*
X74428676Y-84886542D01*
X74381057Y-84934161D01*
X74285819Y-84981780D01*
X74095342Y-84981780D01*
X74000104Y-84934161D01*
X73952485Y-84886542D01*
X73904866Y-84791304D01*
X73904866Y-83981780D01*
X73476295Y-84077019D02*
X73428676Y-84029400D01*
X73333438Y-83981780D01*
X73095342Y-83981780D01*
X73000104Y-84029400D01*
X72952485Y-84077019D01*
X72904866Y-84172257D01*
X72904866Y-84267495D01*
X72952485Y-84410352D01*
X73523914Y-84981780D01*
X72904866Y-84981780D01*
X71952485Y-84981780D02*
X72523914Y-84981780D01*
X72238200Y-84981780D02*
X72238200Y-83981780D01*
X72333438Y-84124638D01*
X72428676Y-84219876D01*
X72523914Y-84267495D01*
%TO.C,Q20*%
X84941428Y-156683619D02*
X85036666Y-156636000D01*
X85131904Y-156540761D01*
X85274761Y-156397904D01*
X85370000Y-156350285D01*
X85465238Y-156350285D01*
X85417619Y-156588380D02*
X85512857Y-156540761D01*
X85608095Y-156445523D01*
X85655714Y-156255047D01*
X85655714Y-155921714D01*
X85608095Y-155731238D01*
X85512857Y-155636000D01*
X85417619Y-155588380D01*
X85227142Y-155588380D01*
X85131904Y-155636000D01*
X85036666Y-155731238D01*
X84989047Y-155921714D01*
X84989047Y-156255047D01*
X85036666Y-156445523D01*
X85131904Y-156540761D01*
X85227142Y-156588380D01*
X85417619Y-156588380D01*
X84608095Y-155683619D02*
X84560476Y-155636000D01*
X84465238Y-155588380D01*
X84227142Y-155588380D01*
X84131904Y-155636000D01*
X84084285Y-155683619D01*
X84036666Y-155778857D01*
X84036666Y-155874095D01*
X84084285Y-156016952D01*
X84655714Y-156588380D01*
X84036666Y-156588380D01*
X83417619Y-155588380D02*
X83322380Y-155588380D01*
X83227142Y-155636000D01*
X83179523Y-155683619D01*
X83131904Y-155778857D01*
X83084285Y-155969333D01*
X83084285Y-156207428D01*
X83131904Y-156397904D01*
X83179523Y-156493142D01*
X83227142Y-156540761D01*
X83322380Y-156588380D01*
X83417619Y-156588380D01*
X83512857Y-156540761D01*
X83560476Y-156493142D01*
X83608095Y-156397904D01*
X83655714Y-156207428D01*
X83655714Y-155969333D01*
X83608095Y-155778857D01*
X83560476Y-155683619D01*
X83512857Y-155636000D01*
X83417619Y-155588380D01*
%TO.C,C39*%
X46601342Y-111414542D02*
X46648961Y-111366923D01*
X46696580Y-111224066D01*
X46696580Y-111128828D01*
X46648961Y-110985971D01*
X46553723Y-110890733D01*
X46458485Y-110843114D01*
X46268009Y-110795495D01*
X46125152Y-110795495D01*
X45934676Y-110843114D01*
X45839438Y-110890733D01*
X45744200Y-110985971D01*
X45696580Y-111128828D01*
X45696580Y-111224066D01*
X45744200Y-111366923D01*
X45791819Y-111414542D01*
X45696580Y-111747876D02*
X45696580Y-112366923D01*
X46077533Y-112033590D01*
X46077533Y-112176447D01*
X46125152Y-112271685D01*
X46172771Y-112319304D01*
X46268009Y-112366923D01*
X46506104Y-112366923D01*
X46601342Y-112319304D01*
X46648961Y-112271685D01*
X46696580Y-112176447D01*
X46696580Y-111890733D01*
X46648961Y-111795495D01*
X46601342Y-111747876D01*
X46696580Y-112843114D02*
X46696580Y-113033590D01*
X46648961Y-113128828D01*
X46601342Y-113176447D01*
X46458485Y-113271685D01*
X46268009Y-113319304D01*
X45887057Y-113319304D01*
X45791819Y-113271685D01*
X45744200Y-113224066D01*
X45696580Y-113128828D01*
X45696580Y-112938352D01*
X45744200Y-112843114D01*
X45791819Y-112795495D01*
X45887057Y-112747876D01*
X46125152Y-112747876D01*
X46220390Y-112795495D01*
X46268009Y-112843114D01*
X46315628Y-112938352D01*
X46315628Y-113128828D01*
X46268009Y-113224066D01*
X46220390Y-113271685D01*
X46125152Y-113319304D01*
%TO.C,RN2*%
X66201876Y-76425780D02*
X66535209Y-75949590D01*
X66773304Y-76425780D02*
X66773304Y-75425780D01*
X66392352Y-75425780D01*
X66297114Y-75473400D01*
X66249495Y-75521019D01*
X66201876Y-75616257D01*
X66201876Y-75759114D01*
X66249495Y-75854352D01*
X66297114Y-75901971D01*
X66392352Y-75949590D01*
X66773304Y-75949590D01*
X65773304Y-76425780D02*
X65773304Y-75425780D01*
X65201876Y-76425780D01*
X65201876Y-75425780D01*
X64773304Y-75521019D02*
X64725685Y-75473400D01*
X64630447Y-75425780D01*
X64392352Y-75425780D01*
X64297114Y-75473400D01*
X64249495Y-75521019D01*
X64201876Y-75616257D01*
X64201876Y-75711495D01*
X64249495Y-75854352D01*
X64820923Y-76425780D01*
X64201876Y-76425780D01*
%TO.C,Q22*%
X98971619Y-148878571D02*
X98924000Y-148783333D01*
X98828761Y-148688095D01*
X98685904Y-148545238D01*
X98638285Y-148450000D01*
X98638285Y-148354761D01*
X98876380Y-148402380D02*
X98828761Y-148307142D01*
X98733523Y-148211904D01*
X98543047Y-148164285D01*
X98209714Y-148164285D01*
X98019238Y-148211904D01*
X97924000Y-148307142D01*
X97876380Y-148402380D01*
X97876380Y-148592857D01*
X97924000Y-148688095D01*
X98019238Y-148783333D01*
X98209714Y-148830952D01*
X98543047Y-148830952D01*
X98733523Y-148783333D01*
X98828761Y-148688095D01*
X98876380Y-148592857D01*
X98876380Y-148402380D01*
X97971619Y-149211904D02*
X97924000Y-149259523D01*
X97876380Y-149354761D01*
X97876380Y-149592857D01*
X97924000Y-149688095D01*
X97971619Y-149735714D01*
X98066857Y-149783333D01*
X98162095Y-149783333D01*
X98304952Y-149735714D01*
X98876380Y-149164285D01*
X98876380Y-149783333D01*
X97971619Y-150164285D02*
X97924000Y-150211904D01*
X97876380Y-150307142D01*
X97876380Y-150545238D01*
X97924000Y-150640476D01*
X97971619Y-150688095D01*
X98066857Y-150735714D01*
X98162095Y-150735714D01*
X98304952Y-150688095D01*
X98876380Y-150116666D01*
X98876380Y-150735714D01*
D13*
%TO.C,U1*%
X74670952Y-99926190D02*
X74670952Y-100330952D01*
X74647142Y-100378571D01*
X74623333Y-100402380D01*
X74575714Y-100426190D01*
X74480476Y-100426190D01*
X74432857Y-100402380D01*
X74409047Y-100378571D01*
X74385238Y-100330952D01*
X74385238Y-99926190D01*
X73885238Y-100426190D02*
X74170952Y-100426190D01*
X74028095Y-100426190D02*
X74028095Y-99926190D01*
X74075714Y-99997619D01*
X74123333Y-100045238D01*
X74170952Y-100069047D01*
%TO.C,C38*%
X82916771Y-99035971D02*
X82940580Y-99012161D01*
X82964390Y-98940733D01*
X82964390Y-98893114D01*
X82940580Y-98821685D01*
X82892961Y-98774066D01*
X82845342Y-98750257D01*
X82750104Y-98726447D01*
X82678676Y-98726447D01*
X82583438Y-98750257D01*
X82535819Y-98774066D01*
X82488200Y-98821685D01*
X82464390Y-98893114D01*
X82464390Y-98940733D01*
X82488200Y-99012161D01*
X82512009Y-99035971D01*
X82464390Y-99202638D02*
X82464390Y-99512161D01*
X82654866Y-99345495D01*
X82654866Y-99416923D01*
X82678676Y-99464542D01*
X82702485Y-99488352D01*
X82750104Y-99512161D01*
X82869152Y-99512161D01*
X82916771Y-99488352D01*
X82940580Y-99464542D01*
X82964390Y-99416923D01*
X82964390Y-99274066D01*
X82940580Y-99226447D01*
X82916771Y-99202638D01*
X82678676Y-99797876D02*
X82654866Y-99750257D01*
X82631057Y-99726447D01*
X82583438Y-99702638D01*
X82559628Y-99702638D01*
X82512009Y-99726447D01*
X82488200Y-99750257D01*
X82464390Y-99797876D01*
X82464390Y-99893114D01*
X82488200Y-99940733D01*
X82512009Y-99964542D01*
X82559628Y-99988352D01*
X82583438Y-99988352D01*
X82631057Y-99964542D01*
X82654866Y-99940733D01*
X82678676Y-99893114D01*
X82678676Y-99797876D01*
X82702485Y-99750257D01*
X82726295Y-99726447D01*
X82773914Y-99702638D01*
X82869152Y-99702638D01*
X82916771Y-99726447D01*
X82940580Y-99750257D01*
X82964390Y-99797876D01*
X82964390Y-99893114D01*
X82940580Y-99940733D01*
X82916771Y-99964542D01*
X82869152Y-99988352D01*
X82773914Y-99988352D01*
X82726295Y-99964542D01*
X82702485Y-99940733D01*
X82678676Y-99893114D01*
D12*
%TO.C,U12*%
X65176580Y-86515304D02*
X65986104Y-86515304D01*
X66081342Y-86562923D01*
X66128961Y-86610542D01*
X66176580Y-86705780D01*
X66176580Y-86896257D01*
X66128961Y-86991495D01*
X66081342Y-87039114D01*
X65986104Y-87086733D01*
X65176580Y-87086733D01*
X66176580Y-88086733D02*
X66176580Y-87515304D01*
X66176580Y-87801019D02*
X65176580Y-87801019D01*
X65319438Y-87705780D01*
X65414676Y-87610542D01*
X65462295Y-87515304D01*
X65271819Y-88467685D02*
X65224200Y-88515304D01*
X65176580Y-88610542D01*
X65176580Y-88848638D01*
X65224200Y-88943876D01*
X65271819Y-88991495D01*
X65367057Y-89039114D01*
X65462295Y-89039114D01*
X65605152Y-88991495D01*
X66176580Y-88420066D01*
X66176580Y-89039114D01*
%TO.C,C45*%
X53201342Y-100846542D02*
X53248961Y-100798923D01*
X53296580Y-100656066D01*
X53296580Y-100560828D01*
X53248961Y-100417971D01*
X53153723Y-100322733D01*
X53058485Y-100275114D01*
X52868009Y-100227495D01*
X52725152Y-100227495D01*
X52534676Y-100275114D01*
X52439438Y-100322733D01*
X52344200Y-100417971D01*
X52296580Y-100560828D01*
X52296580Y-100656066D01*
X52344200Y-100798923D01*
X52391819Y-100846542D01*
X52629914Y-101703685D02*
X53296580Y-101703685D01*
X52248961Y-101465590D02*
X52963247Y-101227495D01*
X52963247Y-101846542D01*
X52296580Y-102703685D02*
X52296580Y-102227495D01*
X52772771Y-102179876D01*
X52725152Y-102227495D01*
X52677533Y-102322733D01*
X52677533Y-102560828D01*
X52725152Y-102656066D01*
X52772771Y-102703685D01*
X52868009Y-102751304D01*
X53106104Y-102751304D01*
X53201342Y-102703685D01*
X53248961Y-102656066D01*
X53296580Y-102560828D01*
X53296580Y-102322733D01*
X53248961Y-102227495D01*
X53201342Y-102179876D01*
D13*
%TO.C,C3*%
X75249333Y-97272571D02*
X75273142Y-97296380D01*
X75344571Y-97320190D01*
X75392190Y-97320190D01*
X75463619Y-97296380D01*
X75511238Y-97248761D01*
X75535047Y-97201142D01*
X75558857Y-97105904D01*
X75558857Y-97034476D01*
X75535047Y-96939238D01*
X75511238Y-96891619D01*
X75463619Y-96844000D01*
X75392190Y-96820190D01*
X75344571Y-96820190D01*
X75273142Y-96844000D01*
X75249333Y-96867809D01*
X75082666Y-96820190D02*
X74773142Y-96820190D01*
X74939809Y-97010666D01*
X74868380Y-97010666D01*
X74820761Y-97034476D01*
X74796952Y-97058285D01*
X74773142Y-97105904D01*
X74773142Y-97224952D01*
X74796952Y-97272571D01*
X74820761Y-97296380D01*
X74868380Y-97320190D01*
X75011238Y-97320190D01*
X75058857Y-97296380D01*
X75082666Y-97272571D01*
%TO.C,C33*%
X68660771Y-98785971D02*
X68684580Y-98762161D01*
X68708390Y-98690733D01*
X68708390Y-98643114D01*
X68684580Y-98571685D01*
X68636961Y-98524066D01*
X68589342Y-98500257D01*
X68494104Y-98476447D01*
X68422676Y-98476447D01*
X68327438Y-98500257D01*
X68279819Y-98524066D01*
X68232200Y-98571685D01*
X68208390Y-98643114D01*
X68208390Y-98690733D01*
X68232200Y-98762161D01*
X68256009Y-98785971D01*
X68208390Y-98952638D02*
X68208390Y-99262161D01*
X68398866Y-99095495D01*
X68398866Y-99166923D01*
X68422676Y-99214542D01*
X68446485Y-99238352D01*
X68494104Y-99262161D01*
X68613152Y-99262161D01*
X68660771Y-99238352D01*
X68684580Y-99214542D01*
X68708390Y-99166923D01*
X68708390Y-99024066D01*
X68684580Y-98976447D01*
X68660771Y-98952638D01*
X68208390Y-99428828D02*
X68208390Y-99738352D01*
X68398866Y-99571685D01*
X68398866Y-99643114D01*
X68422676Y-99690733D01*
X68446485Y-99714542D01*
X68494104Y-99738352D01*
X68613152Y-99738352D01*
X68660771Y-99714542D01*
X68684580Y-99690733D01*
X68708390Y-99643114D01*
X68708390Y-99500257D01*
X68684580Y-99452638D01*
X68660771Y-99428828D01*
D12*
%TO.C,U20*%
X78239380Y-109156904D02*
X79048904Y-109156904D01*
X79144142Y-109204523D01*
X79191761Y-109252142D01*
X79239380Y-109347380D01*
X79239380Y-109537857D01*
X79191761Y-109633095D01*
X79144142Y-109680714D01*
X79048904Y-109728333D01*
X78239380Y-109728333D01*
X78334619Y-110156904D02*
X78287000Y-110204523D01*
X78239380Y-110299761D01*
X78239380Y-110537857D01*
X78287000Y-110633095D01*
X78334619Y-110680714D01*
X78429857Y-110728333D01*
X78525095Y-110728333D01*
X78667952Y-110680714D01*
X79239380Y-110109285D01*
X79239380Y-110728333D01*
X78239380Y-111347380D02*
X78239380Y-111442619D01*
X78287000Y-111537857D01*
X78334619Y-111585476D01*
X78429857Y-111633095D01*
X78620333Y-111680714D01*
X78858428Y-111680714D01*
X79048904Y-111633095D01*
X79144142Y-111585476D01*
X79191761Y-111537857D01*
X79239380Y-111442619D01*
X79239380Y-111347380D01*
X79191761Y-111252142D01*
X79144142Y-111204523D01*
X79048904Y-111156904D01*
X78858428Y-111109285D01*
X78620333Y-111109285D01*
X78429857Y-111156904D01*
X78334619Y-111204523D01*
X78287000Y-111252142D01*
X78239380Y-111347380D01*
D13*
%TO.C,C32*%
X70184771Y-98785971D02*
X70208580Y-98762161D01*
X70232390Y-98690733D01*
X70232390Y-98643114D01*
X70208580Y-98571685D01*
X70160961Y-98524066D01*
X70113342Y-98500257D01*
X70018104Y-98476447D01*
X69946676Y-98476447D01*
X69851438Y-98500257D01*
X69803819Y-98524066D01*
X69756200Y-98571685D01*
X69732390Y-98643114D01*
X69732390Y-98690733D01*
X69756200Y-98762161D01*
X69780009Y-98785971D01*
X69732390Y-98952638D02*
X69732390Y-99262161D01*
X69922866Y-99095495D01*
X69922866Y-99166923D01*
X69946676Y-99214542D01*
X69970485Y-99238352D01*
X70018104Y-99262161D01*
X70137152Y-99262161D01*
X70184771Y-99238352D01*
X70208580Y-99214542D01*
X70232390Y-99166923D01*
X70232390Y-99024066D01*
X70208580Y-98976447D01*
X70184771Y-98952638D01*
X69780009Y-99452638D02*
X69756200Y-99476447D01*
X69732390Y-99524066D01*
X69732390Y-99643114D01*
X69756200Y-99690733D01*
X69780009Y-99714542D01*
X69827628Y-99738352D01*
X69875247Y-99738352D01*
X69946676Y-99714542D01*
X70232390Y-99428828D01*
X70232390Y-99738352D01*
D12*
%TO.C,C72*%
X68810857Y-161805142D02*
X68858476Y-161852761D01*
X69001333Y-161900380D01*
X69096571Y-161900380D01*
X69239428Y-161852761D01*
X69334666Y-161757523D01*
X69382285Y-161662285D01*
X69429904Y-161471809D01*
X69429904Y-161328952D01*
X69382285Y-161138476D01*
X69334666Y-161043238D01*
X69239428Y-160948000D01*
X69096571Y-160900380D01*
X69001333Y-160900380D01*
X68858476Y-160948000D01*
X68810857Y-160995619D01*
X68477523Y-160900380D02*
X67810857Y-160900380D01*
X68239428Y-161900380D01*
X67477523Y-160995619D02*
X67429904Y-160948000D01*
X67334666Y-160900380D01*
X67096571Y-160900380D01*
X67001333Y-160948000D01*
X66953714Y-160995619D01*
X66906095Y-161090857D01*
X66906095Y-161186095D01*
X66953714Y-161328952D01*
X67525142Y-161900380D01*
X66906095Y-161900380D01*
D13*
%TO.C,U19*%
X79743047Y-99851190D02*
X79743047Y-100255952D01*
X79719238Y-100303571D01*
X79695428Y-100327380D01*
X79647809Y-100351190D01*
X79552571Y-100351190D01*
X79504952Y-100327380D01*
X79481142Y-100303571D01*
X79457333Y-100255952D01*
X79457333Y-99851190D01*
X78957333Y-100351190D02*
X79243047Y-100351190D01*
X79100190Y-100351190D02*
X79100190Y-99851190D01*
X79147809Y-99922619D01*
X79195428Y-99970238D01*
X79243047Y-99994047D01*
X78719238Y-100351190D02*
X78624000Y-100351190D01*
X78576380Y-100327380D01*
X78552571Y-100303571D01*
X78504952Y-100232142D01*
X78481142Y-100136904D01*
X78481142Y-99946428D01*
X78504952Y-99898809D01*
X78528761Y-99875000D01*
X78576380Y-99851190D01*
X78671619Y-99851190D01*
X78719238Y-99875000D01*
X78743047Y-99898809D01*
X78766857Y-99946428D01*
X78766857Y-100065476D01*
X78743047Y-100113095D01*
X78719238Y-100136904D01*
X78671619Y-100160714D01*
X78576380Y-100160714D01*
X78528761Y-100136904D01*
X78504952Y-100113095D01*
X78481142Y-100065476D01*
D12*
%TO.C,C31*%
X56661057Y-89524542D02*
X56708676Y-89572161D01*
X56851533Y-89619780D01*
X56946771Y-89619780D01*
X57089628Y-89572161D01*
X57184866Y-89476923D01*
X57232485Y-89381685D01*
X57280104Y-89191209D01*
X57280104Y-89048352D01*
X57232485Y-88857876D01*
X57184866Y-88762638D01*
X57089628Y-88667400D01*
X56946771Y-88619780D01*
X56851533Y-88619780D01*
X56708676Y-88667400D01*
X56661057Y-88715019D01*
X56327723Y-88619780D02*
X55708676Y-88619780D01*
X56042009Y-89000733D01*
X55899152Y-89000733D01*
X55803914Y-89048352D01*
X55756295Y-89095971D01*
X55708676Y-89191209D01*
X55708676Y-89429304D01*
X55756295Y-89524542D01*
X55803914Y-89572161D01*
X55899152Y-89619780D01*
X56184866Y-89619780D01*
X56280104Y-89572161D01*
X56327723Y-89524542D01*
X54756295Y-89619780D02*
X55327723Y-89619780D01*
X55042009Y-89619780D02*
X55042009Y-88619780D01*
X55137247Y-88762638D01*
X55232485Y-88857876D01*
X55327723Y-88905495D01*
%TO.C,U22*%
X66856295Y-83981780D02*
X66856295Y-84791304D01*
X66808676Y-84886542D01*
X66761057Y-84934161D01*
X66665819Y-84981780D01*
X66475342Y-84981780D01*
X66380104Y-84934161D01*
X66332485Y-84886542D01*
X66284866Y-84791304D01*
X66284866Y-83981780D01*
X65856295Y-84077019D02*
X65808676Y-84029400D01*
X65713438Y-83981780D01*
X65475342Y-83981780D01*
X65380104Y-84029400D01*
X65332485Y-84077019D01*
X65284866Y-84172257D01*
X65284866Y-84267495D01*
X65332485Y-84410352D01*
X65903914Y-84981780D01*
X65284866Y-84981780D01*
X64903914Y-84077019D02*
X64856295Y-84029400D01*
X64761057Y-83981780D01*
X64522961Y-83981780D01*
X64427723Y-84029400D01*
X64380104Y-84077019D01*
X64332485Y-84172257D01*
X64332485Y-84267495D01*
X64380104Y-84410352D01*
X64951533Y-84981780D01*
X64332485Y-84981780D01*
%TO.C,R38*%
X57966180Y-109957142D02*
X57489990Y-109623809D01*
X57966180Y-109385714D02*
X56966180Y-109385714D01*
X56966180Y-109766666D01*
X57013800Y-109861904D01*
X57061419Y-109909523D01*
X57156657Y-109957142D01*
X57299514Y-109957142D01*
X57394752Y-109909523D01*
X57442371Y-109861904D01*
X57489990Y-109766666D01*
X57489990Y-109385714D01*
X56966180Y-110290476D02*
X56966180Y-110909523D01*
X57347133Y-110576190D01*
X57347133Y-110719047D01*
X57394752Y-110814285D01*
X57442371Y-110861904D01*
X57537609Y-110909523D01*
X57775704Y-110909523D01*
X57870942Y-110861904D01*
X57918561Y-110814285D01*
X57966180Y-110719047D01*
X57966180Y-110433333D01*
X57918561Y-110338095D01*
X57870942Y-110290476D01*
X57394752Y-111480952D02*
X57347133Y-111385714D01*
X57299514Y-111338095D01*
X57204276Y-111290476D01*
X57156657Y-111290476D01*
X57061419Y-111338095D01*
X57013800Y-111385714D01*
X56966180Y-111480952D01*
X56966180Y-111671428D01*
X57013800Y-111766666D01*
X57061419Y-111814285D01*
X57156657Y-111861904D01*
X57204276Y-111861904D01*
X57299514Y-111814285D01*
X57347133Y-111766666D01*
X57394752Y-111671428D01*
X57394752Y-111480952D01*
X57442371Y-111385714D01*
X57489990Y-111338095D01*
X57585228Y-111290476D01*
X57775704Y-111290476D01*
X57870942Y-111338095D01*
X57918561Y-111385714D01*
X57966180Y-111480952D01*
X57966180Y-111671428D01*
X57918561Y-111766666D01*
X57870942Y-111814285D01*
X57775704Y-111861904D01*
X57585228Y-111861904D01*
X57489990Y-111814285D01*
X57442371Y-111766666D01*
X57394752Y-111671428D01*
%TO.C,C54*%
X79733857Y-119930142D02*
X79781476Y-119977761D01*
X79924333Y-120025380D01*
X80019571Y-120025380D01*
X80162428Y-119977761D01*
X80257666Y-119882523D01*
X80305285Y-119787285D01*
X80352904Y-119596809D01*
X80352904Y-119453952D01*
X80305285Y-119263476D01*
X80257666Y-119168238D01*
X80162428Y-119073000D01*
X80019571Y-119025380D01*
X79924333Y-119025380D01*
X79781476Y-119073000D01*
X79733857Y-119120619D01*
X78829095Y-119025380D02*
X79305285Y-119025380D01*
X79352904Y-119501571D01*
X79305285Y-119453952D01*
X79210047Y-119406333D01*
X78971952Y-119406333D01*
X78876714Y-119453952D01*
X78829095Y-119501571D01*
X78781476Y-119596809D01*
X78781476Y-119834904D01*
X78829095Y-119930142D01*
X78876714Y-119977761D01*
X78971952Y-120025380D01*
X79210047Y-120025380D01*
X79305285Y-119977761D01*
X79352904Y-119930142D01*
X77924333Y-119358714D02*
X77924333Y-120025380D01*
X78162428Y-118977761D02*
X78400523Y-119692047D01*
X77781476Y-119692047D01*
%TO.C,C35*%
X44569342Y-111410542D02*
X44616961Y-111362923D01*
X44664580Y-111220066D01*
X44664580Y-111124828D01*
X44616961Y-110981971D01*
X44521723Y-110886733D01*
X44426485Y-110839114D01*
X44236009Y-110791495D01*
X44093152Y-110791495D01*
X43902676Y-110839114D01*
X43807438Y-110886733D01*
X43712200Y-110981971D01*
X43664580Y-111124828D01*
X43664580Y-111220066D01*
X43712200Y-111362923D01*
X43759819Y-111410542D01*
X43664580Y-111743876D02*
X43664580Y-112362923D01*
X44045533Y-112029590D01*
X44045533Y-112172447D01*
X44093152Y-112267685D01*
X44140771Y-112315304D01*
X44236009Y-112362923D01*
X44474104Y-112362923D01*
X44569342Y-112315304D01*
X44616961Y-112267685D01*
X44664580Y-112172447D01*
X44664580Y-111886733D01*
X44616961Y-111791495D01*
X44569342Y-111743876D01*
X43664580Y-113267685D02*
X43664580Y-112791495D01*
X44140771Y-112743876D01*
X44093152Y-112791495D01*
X44045533Y-112886733D01*
X44045533Y-113124828D01*
X44093152Y-113220066D01*
X44140771Y-113267685D01*
X44236009Y-113315304D01*
X44474104Y-113315304D01*
X44569342Y-113267685D01*
X44616961Y-113220066D01*
X44664580Y-113124828D01*
X44664580Y-112886733D01*
X44616961Y-112791495D01*
X44569342Y-112743876D01*
D13*
%TO.C,U11*%
X57845990Y-90275552D02*
X58250752Y-90275552D01*
X58298371Y-90299361D01*
X58322180Y-90323171D01*
X58345990Y-90370790D01*
X58345990Y-90466028D01*
X58322180Y-90513647D01*
X58298371Y-90537457D01*
X58250752Y-90561266D01*
X57845990Y-90561266D01*
X58345990Y-91061266D02*
X58345990Y-90775552D01*
X58345990Y-90918409D02*
X57845990Y-90918409D01*
X57917419Y-90870790D01*
X57965038Y-90823171D01*
X57988847Y-90775552D01*
X58345990Y-91537457D02*
X58345990Y-91251742D01*
X58345990Y-91394600D02*
X57845990Y-91394600D01*
X57917419Y-91346980D01*
X57965038Y-91299361D01*
X57988847Y-91251742D01*
D14*
%TO.C,D2*%
X48503781Y-64974280D02*
X48103781Y-64574280D01*
X48503781Y-64974280D02*
X48703781Y-64974280D01*
D15*
X48703781Y-64274280D02*
X48803781Y-64374280D01*
X48603781Y-64374280D02*
X48703781Y-64274280D01*
X47903781Y-64274280D02*
X48003781Y-64374280D01*
D14*
X48103781Y-65374280D02*
X48503781Y-64974280D01*
X48103781Y-64574280D02*
X48103781Y-65374280D01*
D15*
X47903781Y-64474280D02*
X47903781Y-64274280D01*
X48703781Y-64474280D02*
X48703781Y-64274280D01*
D14*
X48103781Y-64974280D02*
X47903781Y-64974280D01*
X48503781Y-64574280D02*
X48503781Y-65374280D01*
D15*
X47803781Y-64374280D02*
X47903781Y-64274280D01*
%TO.C,D3*%
X51703773Y-64274280D02*
X51803773Y-64374280D01*
X52403773Y-64374280D02*
X52503773Y-64274280D01*
D14*
X51903773Y-65374280D02*
X52303773Y-64974280D01*
X51903773Y-64574280D02*
X51903773Y-65374280D01*
X52303773Y-64974280D02*
X51903773Y-64574280D01*
X51903773Y-64974280D02*
X51703773Y-64974280D01*
X52303773Y-64974280D02*
X52503773Y-64974280D01*
D15*
X52503773Y-64474280D02*
X52503773Y-64274280D01*
X51603773Y-64374280D02*
X51703773Y-64274280D01*
X51703773Y-64474280D02*
X51703773Y-64274280D01*
D14*
X52303773Y-64574280D02*
X52303773Y-65374280D01*
D15*
X52503773Y-64274280D02*
X52603773Y-64374280D01*
D14*
%TO.C,D5*%
X55703791Y-64574280D02*
X55703791Y-65374280D01*
X55703791Y-64974280D02*
X55503791Y-64974280D01*
X55703791Y-65374280D02*
X56103791Y-64974280D01*
D15*
X56303791Y-64474280D02*
X56303791Y-64274280D01*
D14*
X56103791Y-64974280D02*
X56303791Y-64974280D01*
D15*
X56203791Y-64374280D02*
X56303791Y-64274280D01*
X56303791Y-64274280D02*
X56403791Y-64374280D01*
D14*
X56103791Y-64974280D02*
X55703791Y-64574280D01*
X56103791Y-64574280D02*
X56103791Y-65374280D01*
D15*
X55403791Y-64374280D02*
X55503791Y-64274280D01*
X55503791Y-64474280D02*
X55503791Y-64274280D01*
X55503791Y-64274280D02*
X55603791Y-64374280D01*
D14*
%TO.C,C8*%
X127238300Y-71008164D02*
X127238300Y-71223836D01*
X126518300Y-71008164D02*
X126518300Y-71223836D01*
%TO.C,C9*%
X128228900Y-71008164D02*
X128228900Y-71223836D01*
X127508900Y-71008164D02*
X127508900Y-71223836D01*
%TO.C,Q1*%
X47959000Y-67269400D02*
X47959000Y-67269400D01*
X48959000Y-65869400D02*
X48359000Y-65869400D01*
X49159000Y-67269400D02*
X47959000Y-67269400D01*
%TO.C,Q2*%
X52943600Y-67269400D02*
X51743600Y-67269400D01*
X52743600Y-65869400D02*
X52143600Y-65869400D01*
X51743600Y-67269400D02*
X51743600Y-67269400D01*
%TO.C,Q4*%
X56452000Y-65869400D02*
X55852000Y-65869400D01*
X55452000Y-67269400D02*
X55452000Y-67269400D01*
X56652000Y-67269400D02*
X55452000Y-67269400D01*
%TO.C,R4*%
X48429159Y-67738800D02*
X48736441Y-67738800D01*
X48429159Y-68498800D02*
X48736441Y-68498800D01*
%TO.C,R5*%
X125507700Y-70987759D02*
X125507700Y-71295041D01*
X126267700Y-70987759D02*
X126267700Y-71295041D01*
%TO.C,R7*%
X47489600Y-66824641D02*
X47489600Y-66517359D01*
X46729600Y-66824641D02*
X46729600Y-66517359D01*
%TO.C,R8*%
X52239159Y-68498800D02*
X52546441Y-68498800D01*
X52239159Y-67738800D02*
X52546441Y-67738800D01*
%TO.C,R9*%
X51325000Y-66824641D02*
X51325000Y-66517359D01*
X50565000Y-66824641D02*
X50565000Y-66517359D01*
%TO.C,R14*%
X56155800Y-68465159D02*
X56155800Y-68772441D01*
X55395800Y-68465159D02*
X55395800Y-68772441D01*
%TO.C,R15*%
X54906400Y-68780441D02*
X54906400Y-68473159D01*
X54146400Y-68780441D02*
X54146400Y-68473159D01*
%TO.C,Z1*%
X119061564Y-71857000D02*
X119277236Y-71857000D01*
X119061564Y-71137000D02*
X119277236Y-71137000D01*
%TO.C,Z2*%
X117296036Y-71857000D02*
X117080364Y-71857000D01*
X117296036Y-71137000D02*
X117080364Y-71137000D01*
%TO.C,C59*%
X83343580Y-120013000D02*
X83062420Y-120013000D01*
X83343580Y-118993000D02*
X83062420Y-118993000D01*
%TO.C,U17*%
X63625000Y-112645000D02*
X63625000Y-109195000D01*
X68745000Y-112645000D02*
X68745000Y-110695000D01*
X68745000Y-112645000D02*
X68745000Y-114595000D01*
X63625000Y-112645000D02*
X63625000Y-114595000D01*
%TO.C,C2*%
X73310580Y-98292000D02*
X73029420Y-98292000D01*
X73310580Y-99312000D02*
X73029420Y-99312000D01*
%TO.C,U23*%
X83952200Y-80569400D02*
X83152200Y-80569400D01*
X83952200Y-80569400D02*
X84752200Y-80569400D01*
X83952200Y-83689400D02*
X84752200Y-83689400D01*
X83952200Y-83689400D02*
X82152200Y-83689400D01*
%TO.C,R34*%
X81528064Y-106322000D02*
X81073936Y-106322000D01*
X81528064Y-107792000D02*
X81073936Y-107792000D01*
D16*
%TO.C,J4*%
X89360000Y-111257000D02*
X89360000Y-110207000D01*
X89360000Y-111257000D02*
X90760000Y-111257000D01*
X92610000Y-104557000D02*
X93810000Y-104557000D01*
X92610000Y-109557000D02*
X93810000Y-109557000D01*
X92610000Y-104007000D02*
X92610000Y-104557000D01*
X89360000Y-102857000D02*
X90760000Y-102857000D01*
X92610000Y-110107000D02*
X92610000Y-109557000D01*
X89360000Y-102857000D02*
X89360000Y-103907000D01*
X93810000Y-109557000D02*
X93810000Y-104557000D01*
X88585000Y-110657000D02*
G75*
G03*
X88585000Y-110657000I-100000J0D01*
G01*
D14*
%TO.C,C50*%
X66071580Y-98311000D02*
X65790420Y-98311000D01*
X66071580Y-99331000D02*
X65790420Y-99331000D01*
%TO.C,Q23*%
X103385000Y-152689000D02*
X105335000Y-152689000D01*
X103385000Y-157809000D02*
X99935000Y-157809000D01*
X103385000Y-157809000D02*
X105335000Y-157809000D01*
X103385000Y-152689000D02*
X101435000Y-152689000D01*
%TO.C,C63*%
X69680200Y-82269980D02*
X69680200Y-81988820D01*
X70700200Y-82269980D02*
X70700200Y-81988820D01*
%TO.C,C46*%
X49897200Y-105250652D02*
X49897200Y-104728148D01*
X51367200Y-105250652D02*
X51367200Y-104728148D01*
%TO.C,U15*%
X79296200Y-91938984D02*
X79296200Y-92203400D01*
X84516200Y-91938984D02*
X84516200Y-92203400D01*
X79296200Y-88067816D02*
X79296200Y-86353400D01*
X84516200Y-88067816D02*
X84516200Y-87803400D01*
%TO.C,C69*%
X80140200Y-82289980D02*
X80140200Y-82008820D01*
X81160200Y-82289980D02*
X81160200Y-82008820D01*
%TO.C,C60*%
X83343580Y-118489000D02*
X83062420Y-118489000D01*
X83343580Y-117469000D02*
X83062420Y-117469000D01*
%TO.C,R92*%
X81336500Y-157482742D02*
X81336500Y-157957258D01*
X80291500Y-157482742D02*
X80291500Y-157957258D01*
%TO.C,C57*%
X78644580Y-98217000D02*
X78363420Y-98217000D01*
X78644580Y-99237000D02*
X78363420Y-99237000D01*
%TO.C,R37*%
X50869458Y-115388900D02*
X50394942Y-115388900D01*
X50869458Y-116433900D02*
X50394942Y-116433900D01*
%TO.C,D1*%
X73767000Y-105517000D02*
X73767000Y-103517000D01*
X73767000Y-103517000D02*
X77617000Y-103517000D01*
X73767000Y-105517000D02*
X77617000Y-105517000D01*
%TO.C,R105*%
X104121500Y-146512742D02*
X104121500Y-146987258D01*
X103076500Y-146512742D02*
X103076500Y-146987258D01*
%TO.C,C44*%
X56159800Y-114641180D02*
X56159800Y-114360020D01*
X57179800Y-114641180D02*
X57179800Y-114360020D01*
%TO.C,C55*%
X76231580Y-118489000D02*
X75950420Y-118489000D01*
X76231580Y-117469000D02*
X75950420Y-117469000D01*
%TO.C,R90*%
X90966500Y-158132742D02*
X90966500Y-158607258D01*
X89921500Y-158132742D02*
X89921500Y-158607258D01*
%TO.C,D8*%
X63498000Y-154676000D02*
X68898000Y-154676000D01*
X63498000Y-157976000D02*
X63498000Y-154676000D01*
X63498000Y-157976000D02*
X68898000Y-157976000D01*
%TO.C,U16*%
X67431000Y-100603000D02*
X65431000Y-100603000D01*
X65431000Y-102843000D02*
X66431000Y-102843000D01*
%TO.C,U13*%
X59900600Y-112710200D02*
X59100600Y-112710200D01*
X59900600Y-112710200D02*
X60700600Y-112710200D01*
X59900600Y-115830200D02*
X58100600Y-115830200D01*
X59900600Y-115830200D02*
X60700600Y-115830200D01*
%TO.C,U14*%
X48268200Y-111708400D02*
X48268200Y-112433400D01*
X48268200Y-108938400D02*
X48268200Y-108213400D01*
X52488200Y-108938400D02*
X52488200Y-108213400D01*
X52488200Y-108213400D02*
X51763200Y-108213400D01*
X52488200Y-112433400D02*
X51763200Y-112433400D01*
X52488200Y-111708400D02*
X52488200Y-112433400D01*
X48268200Y-112433400D02*
X48993200Y-112433400D01*
%TO.C,R28*%
X55220942Y-96113900D02*
X55695458Y-96113900D01*
X55220942Y-95068900D02*
X55695458Y-95068900D01*
%TO.C,R32*%
X66923064Y-107792000D02*
X66468936Y-107792000D01*
X66923064Y-106322000D02*
X66468936Y-106322000D01*
%TO.C,C64*%
X69176200Y-82269980D02*
X69176200Y-81988820D01*
X68156200Y-82269980D02*
X68156200Y-81988820D01*
%TO.C,R36*%
X55443700Y-107258658D02*
X55443700Y-106784142D01*
X56488700Y-107258658D02*
X56488700Y-106784142D01*
%TO.C,R93*%
X58227500Y-110412742D02*
X58227500Y-110887258D01*
X59272500Y-110412742D02*
X59272500Y-110887258D01*
%TO.C,C65*%
X63080200Y-78713980D02*
X63080200Y-78432820D01*
X62060200Y-78713980D02*
X62060200Y-78432820D01*
%TO.C,C42*%
X54952200Y-110717980D02*
X54952200Y-110436820D01*
X53932200Y-110717980D02*
X53932200Y-110436820D01*
%TO.C,G\u002A\u002A\u002A*%
G36*
X114397155Y-135810783D02*
G01*
X114397266Y-135869959D01*
X114397333Y-135926824D01*
X114397357Y-135980845D01*
X114397340Y-136031492D01*
X114397282Y-136078231D01*
X114397186Y-136120532D01*
X114397053Y-136157861D01*
X114396884Y-136189687D01*
X114396682Y-136215479D01*
X114396447Y-136234703D01*
X114396181Y-136246827D01*
X114395886Y-136251321D01*
X114395146Y-136251712D01*
X114387994Y-136252755D01*
X114374332Y-136253653D01*
X114355385Y-136254356D01*
X114332377Y-136254815D01*
X114306533Y-136254979D01*
X114281150Y-136254932D01*
X114258105Y-136254716D01*
X114241349Y-136254256D01*
X114229869Y-136253480D01*
X114222652Y-136252314D01*
X114218688Y-136250685D01*
X114216963Y-136248522D01*
X114216667Y-136246488D01*
X114216167Y-136236968D01*
X114215719Y-136220653D01*
X114215333Y-136198423D01*
X114215020Y-136171155D01*
X114214792Y-136139728D01*
X114214660Y-136105020D01*
X114214636Y-136067909D01*
X114214653Y-136046806D01*
X114214676Y-136011001D01*
X114214691Y-135978123D01*
X114214698Y-135949045D01*
X114214695Y-135924640D01*
X114214684Y-135905781D01*
X114214665Y-135893340D01*
X114214636Y-135888190D01*
X114214630Y-135888062D01*
X114212967Y-135885854D01*
X114207621Y-135884440D01*
X114197477Y-135883741D01*
X114181415Y-135883676D01*
X114158321Y-135884167D01*
X114141229Y-135884693D01*
X114122690Y-135885601D01*
X114109107Y-135886972D01*
X114098600Y-135889110D01*
X114089287Y-135892316D01*
X114079290Y-135896894D01*
X114075066Y-135899024D01*
X114065934Y-135904219D01*
X114056973Y-135910404D01*
X114047763Y-135918111D01*
X114037883Y-135927871D01*
X114026914Y-135940218D01*
X114014435Y-135955683D01*
X114000025Y-135974799D01*
X113983265Y-135998097D01*
X113963734Y-136026109D01*
X113941013Y-136059368D01*
X113914680Y-136098406D01*
X113884315Y-136143755D01*
X113810014Y-136254979D01*
X113704037Y-136254979D01*
X113677769Y-136254898D01*
X113651934Y-136254641D01*
X113629973Y-136254235D01*
X113612959Y-136253705D01*
X113601964Y-136253078D01*
X113598060Y-136252380D01*
X113598710Y-136250798D01*
X113603011Y-136243105D01*
X113610842Y-136229986D01*
X113621618Y-136212366D01*
X113634756Y-136191167D01*
X113649671Y-136167313D01*
X113665780Y-136141727D01*
X113682498Y-136115334D01*
X113699241Y-136089055D01*
X113715427Y-136063816D01*
X113730469Y-136040538D01*
X113743786Y-136020147D01*
X113754791Y-136003564D01*
X113762903Y-135991714D01*
X113768871Y-135983402D01*
X113802511Y-135941816D01*
X113837536Y-135907017D01*
X113873266Y-135879694D01*
X113901119Y-135861552D01*
X113863869Y-135852416D01*
X113860103Y-135851457D01*
X113837809Y-135844763D01*
X113814625Y-135836451D01*
X113795005Y-135828095D01*
X113780198Y-135820237D01*
X113747709Y-135796864D01*
X113720402Y-135768153D01*
X113698539Y-135734995D01*
X113682381Y-135698280D01*
X113672192Y-135658898D01*
X113668231Y-135617740D01*
X113668685Y-135610191D01*
X113855283Y-135610191D01*
X113855420Y-135634467D01*
X113858679Y-135657949D01*
X113864950Y-135677428D01*
X113874554Y-135694509D01*
X113887070Y-135708945D01*
X113902954Y-135719782D01*
X113923382Y-135727609D01*
X113949528Y-135733018D01*
X113982569Y-135736601D01*
X113984623Y-135736755D01*
X114005378Y-135737949D01*
X114031827Y-135738993D01*
X114061772Y-135739825D01*
X114093015Y-135740382D01*
X114123355Y-135740601D01*
X114131634Y-135740607D01*
X114159352Y-135740551D01*
X114180154Y-135740315D01*
X114195033Y-135739828D01*
X114204983Y-135739018D01*
X114211000Y-135737811D01*
X114214076Y-135736135D01*
X114215207Y-135733919D01*
X114215502Y-135728704D01*
X114215708Y-135716311D01*
X114215799Y-135697990D01*
X114215775Y-135674893D01*
X114215634Y-135648170D01*
X114215374Y-135618975D01*
X114214221Y-135510806D01*
X114077851Y-135513467D01*
X114045748Y-135514119D01*
X114014227Y-135514860D01*
X113989115Y-135515621D01*
X113969459Y-135516470D01*
X113954304Y-135517471D01*
X113942698Y-135518689D01*
X113933686Y-135520190D01*
X113926314Y-135522040D01*
X113919629Y-135524303D01*
X113913703Y-135526770D01*
X113892057Y-135540133D01*
X113873899Y-135558040D01*
X113861567Y-135578318D01*
X113858376Y-135588329D01*
X113855283Y-135610191D01*
X113668685Y-135610191D01*
X113670761Y-135575696D01*
X113680044Y-135533657D01*
X113696342Y-135492512D01*
X113704826Y-135477485D01*
X113722443Y-135453343D01*
X113743407Y-135430648D01*
X113765709Y-135411486D01*
X113787339Y-135397948D01*
X113791091Y-135396143D01*
X113804705Y-135390030D01*
X113818409Y-135384756D01*
X113832877Y-135380266D01*
X113848781Y-135376503D01*
X113866794Y-135373410D01*
X113887588Y-135370932D01*
X113911837Y-135369011D01*
X113940213Y-135367591D01*
X113973388Y-135366615D01*
X114012036Y-135366028D01*
X114056829Y-135365773D01*
X114108439Y-135365793D01*
X114167539Y-135366031D01*
X114396148Y-135367224D01*
X114396899Y-135697990D01*
X114397147Y-135807443D01*
X114397155Y-135810783D01*
G37*
G36*
X115565723Y-136254979D02*
G01*
X115386103Y-136254979D01*
X115386103Y-135365183D01*
X115565723Y-135365183D01*
X115565723Y-136254979D01*
G37*
G36*
X108819137Y-135911310D02*
G01*
X108806632Y-135964737D01*
X108789233Y-136014490D01*
X108766919Y-136059359D01*
X108740946Y-136097885D01*
X108704617Y-136138769D01*
X108662923Y-136173874D01*
X108616356Y-136202901D01*
X108565407Y-136225552D01*
X108510570Y-136241528D01*
X108452335Y-136250529D01*
X108445392Y-136251157D01*
X108425477Y-136252887D01*
X108410500Y-136253893D01*
X108397976Y-136254181D01*
X108385420Y-136253758D01*
X108370349Y-136252631D01*
X108350278Y-136250806D01*
X108335838Y-136249287D01*
X108275582Y-136238672D01*
X108220315Y-136221624D01*
X108170059Y-136198152D01*
X108124836Y-136168266D01*
X108084666Y-136131976D01*
X108067170Y-136112490D01*
X108035894Y-136070144D01*
X108010729Y-136024222D01*
X107991485Y-135974171D01*
X107977972Y-135919444D01*
X107969998Y-135859488D01*
X107967950Y-135808235D01*
X108154746Y-135808235D01*
X108154921Y-135832609D01*
X108155477Y-135851573D01*
X108156543Y-135866759D01*
X108158247Y-135879803D01*
X108160719Y-135892339D01*
X108164085Y-135906000D01*
X108168604Y-135921983D01*
X108185100Y-135965273D01*
X108206344Y-136002297D01*
X108232662Y-136033551D01*
X108264378Y-136059533D01*
X108265382Y-136060211D01*
X108283176Y-136070953D01*
X108302551Y-136080815D01*
X108319489Y-136087740D01*
X108338706Y-136092686D01*
X108367295Y-136096833D01*
X108397910Y-136098563D01*
X108427331Y-136097719D01*
X108452335Y-136094146D01*
X108488253Y-136082791D01*
X108525774Y-136063212D01*
X108558883Y-136037088D01*
X108586954Y-136004923D01*
X108609363Y-135967224D01*
X108615834Y-135952801D01*
X108630474Y-135908992D01*
X108639601Y-135860631D01*
X108643298Y-135807157D01*
X108641647Y-135748007D01*
X108641221Y-135742220D01*
X108635275Y-135694267D01*
X108625225Y-135652511D01*
X108610689Y-135615969D01*
X108591287Y-135583660D01*
X108566639Y-135554604D01*
X108548641Y-135537966D01*
X108516259Y-135515418D01*
X108480821Y-135499747D01*
X108441439Y-135490603D01*
X108397224Y-135487632D01*
X108376643Y-135488251D01*
X108333887Y-135494248D01*
X108295523Y-135506816D01*
X108260935Y-135526192D01*
X108229508Y-135552615D01*
X108221269Y-135561291D01*
X108197469Y-135592971D01*
X108178506Y-135630016D01*
X108163881Y-135673347D01*
X108162791Y-135677476D01*
X108159917Y-135689924D01*
X108157827Y-135702628D01*
X108156394Y-135717170D01*
X108155492Y-135735131D01*
X108154997Y-135758091D01*
X108154781Y-135787632D01*
X108154746Y-135808235D01*
X107967950Y-135808235D01*
X107967372Y-135793755D01*
X107968667Y-135748400D01*
X107975721Y-135683438D01*
X107988940Y-135623766D01*
X108008363Y-135569304D01*
X108034024Y-135519973D01*
X108065961Y-135475694D01*
X108104211Y-135436388D01*
X108148810Y-135401977D01*
X108181200Y-135382790D01*
X108230146Y-135361335D01*
X108283347Y-135345714D01*
X108339747Y-135336154D01*
X108398287Y-135332880D01*
X108457912Y-135336116D01*
X108493903Y-135341171D01*
X108549237Y-135354089D01*
X108599306Y-135372912D01*
X108644650Y-135397959D01*
X108685812Y-135429551D01*
X108723330Y-135468007D01*
X108757746Y-135513648D01*
X108771355Y-135535992D01*
X108792537Y-135581287D01*
X108808968Y-135631370D01*
X108820627Y-135685034D01*
X108827494Y-135741070D01*
X108829548Y-135798267D01*
X108829116Y-135807157D01*
X108826769Y-135855416D01*
X108819137Y-135911310D01*
G37*
G36*
X111373213Y-136254979D02*
G01*
X110748623Y-136254979D01*
X110748623Y-136103959D01*
X111193548Y-136103959D01*
X111194591Y-135737632D01*
X111195633Y-135371306D01*
X111373213Y-135369106D01*
X111373213Y-136254979D01*
G37*
G36*
X112594986Y-135993925D02*
G01*
X112613323Y-136041902D01*
X112630191Y-136086123D01*
X112645406Y-136126105D01*
X112658786Y-136161366D01*
X112670146Y-136191422D01*
X112679303Y-136215791D01*
X112686073Y-136233991D01*
X112690274Y-136245540D01*
X112691721Y-136249954D01*
X112691644Y-136250392D01*
X112689167Y-136252001D01*
X112682605Y-136253161D01*
X112671142Y-136253909D01*
X112653964Y-136254279D01*
X112630256Y-136254310D01*
X112599203Y-136254035D01*
X112506613Y-136252938D01*
X112480866Y-136181510D01*
X112473851Y-136162051D01*
X112464804Y-136136954D01*
X112456417Y-136113688D01*
X112449392Y-136094202D01*
X112444433Y-136080446D01*
X112433748Y-136050812D01*
X112258000Y-136051875D01*
X112082251Y-136052938D01*
X112058218Y-136116204D01*
X112054472Y-136126060D01*
X112044742Y-136151618D01*
X112035064Y-136176986D01*
X112026386Y-136199681D01*
X112019655Y-136217224D01*
X112005124Y-136254979D01*
X111909612Y-136254979D01*
X111892617Y-136254947D01*
X111867364Y-136254768D01*
X111845756Y-136254454D01*
X111828922Y-136254030D01*
X111817994Y-136253518D01*
X111814100Y-136252944D01*
X111814294Y-136252310D01*
X111816769Y-136245669D01*
X111821871Y-136232411D01*
X111829321Y-136213253D01*
X111838838Y-136188908D01*
X111850143Y-136160092D01*
X111862956Y-136127519D01*
X111876997Y-136091905D01*
X111891987Y-136053965D01*
X111900228Y-136033124D01*
X111919605Y-135984111D01*
X111940512Y-135931213D01*
X111955083Y-135894338D01*
X112142213Y-135894338D01*
X112142976Y-135896061D01*
X112145990Y-135897386D01*
X112152098Y-135898364D01*
X112162145Y-135899047D01*
X112176978Y-135899488D01*
X112197440Y-135899739D01*
X112224376Y-135899851D01*
X112258633Y-135899877D01*
X112266964Y-135899871D01*
X112296504Y-135899748D01*
X112322945Y-135899482D01*
X112345274Y-135899094D01*
X112362478Y-135898605D01*
X112373542Y-135898037D01*
X112377456Y-135897410D01*
X112376702Y-135894005D01*
X112373488Y-135883720D01*
X112368074Y-135867764D01*
X112360815Y-135847091D01*
X112352064Y-135822655D01*
X112342178Y-135795409D01*
X112331509Y-135766307D01*
X112320413Y-135736303D01*
X112309244Y-135706351D01*
X112298357Y-135677404D01*
X112288106Y-135650416D01*
X112278846Y-135626340D01*
X112270931Y-135606131D01*
X112264717Y-135590743D01*
X112260557Y-135581128D01*
X112258806Y-135578241D01*
X112258539Y-135578820D01*
X112255862Y-135585593D01*
X112250791Y-135598952D01*
X112243645Y-135618042D01*
X112234743Y-135642006D01*
X112224403Y-135669987D01*
X112212943Y-135701128D01*
X112200683Y-135734571D01*
X112197504Y-135743258D01*
X112185406Y-135776302D01*
X112174194Y-135806900D01*
X112164188Y-135834180D01*
X112155708Y-135857274D01*
X112149073Y-135875311D01*
X112144603Y-135887421D01*
X112142616Y-135892734D01*
X112142213Y-135894338D01*
X111955083Y-135894338D01*
X111962194Y-135876343D01*
X111983896Y-135821412D01*
X112004861Y-135768334D01*
X112024334Y-135719022D01*
X112041559Y-135675387D01*
X112052653Y-135647282D01*
X112068141Y-135608068D01*
X112083286Y-135569737D01*
X112097647Y-135533409D01*
X112110783Y-135500202D01*
X112122250Y-135471234D01*
X112131606Y-135447624D01*
X112138409Y-135430489D01*
X112163575Y-135367224D01*
X112354138Y-135367224D01*
X112522894Y-135806000D01*
X112532997Y-135832277D01*
X112554640Y-135888629D01*
X112558007Y-135897410D01*
X112575364Y-135942673D01*
X112594986Y-135993925D01*
G37*
G36*
X112625852Y-131392177D02*
G01*
X112629734Y-131396233D01*
X112644665Y-131411737D01*
X112663426Y-131431112D01*
X112684597Y-131452895D01*
X112706756Y-131475624D01*
X112728483Y-131497836D01*
X112736033Y-131505554D01*
X112751361Y-131521257D01*
X112771639Y-131542060D01*
X112796434Y-131567518D01*
X112825312Y-131597183D01*
X112857839Y-131630612D01*
X112893583Y-131667357D01*
X112932109Y-131706974D01*
X112972984Y-131749016D01*
X113015775Y-131793039D01*
X113060048Y-131838596D01*
X113105369Y-131885242D01*
X113151306Y-131932530D01*
X113168344Y-131950071D01*
X113216554Y-131999699D01*
X113265245Y-132049815D01*
X113313855Y-132099842D01*
X113361825Y-132149202D01*
X113408593Y-132197320D01*
X113453599Y-132243619D01*
X113496281Y-132287520D01*
X113536080Y-132328449D01*
X113572435Y-132365828D01*
X113604784Y-132399080D01*
X113632567Y-132427629D01*
X113655224Y-132450898D01*
X113674479Y-132470670D01*
X113703940Y-132500936D01*
X113737819Y-132535753D01*
X113775399Y-132574382D01*
X113815963Y-132616088D01*
X113858794Y-132660133D01*
X113903175Y-132705779D01*
X113948389Y-132752290D01*
X113993720Y-132798928D01*
X114038450Y-132844955D01*
X114081863Y-132889636D01*
X114156518Y-132966478D01*
X114228412Y-133040476D01*
X114295058Y-133109073D01*
X114356682Y-133172497D01*
X114413508Y-133230981D01*
X114465760Y-133284756D01*
X114513662Y-133334050D01*
X114557440Y-133379097D01*
X114597316Y-133420126D01*
X114633517Y-133457368D01*
X114666265Y-133491054D01*
X114695786Y-133521415D01*
X114722304Y-133548681D01*
X114746043Y-133573084D01*
X114767228Y-133594853D01*
X114786083Y-133614221D01*
X114802832Y-133631417D01*
X114817700Y-133646672D01*
X114830912Y-133660218D01*
X114842691Y-133672285D01*
X114853262Y-133683103D01*
X114862850Y-133692904D01*
X114871679Y-133701918D01*
X114876179Y-133706515D01*
X114890953Y-133721644D01*
X114910701Y-133741900D01*
X114934915Y-133766765D01*
X114963092Y-133795719D01*
X114994726Y-133828243D01*
X115029312Y-133863817D01*
X115066346Y-133901922D01*
X115105322Y-133942039D01*
X115145736Y-133983648D01*
X115187082Y-134026230D01*
X115228856Y-134069265D01*
X115245994Y-134086923D01*
X115287652Y-134129835D01*
X115328675Y-134172080D01*
X115368557Y-134213140D01*
X115406795Y-134252495D01*
X115442882Y-134289625D01*
X115476314Y-134324012D01*
X115506587Y-134355136D01*
X115533194Y-134382477D01*
X115555633Y-134405516D01*
X115573396Y-134423734D01*
X115585980Y-134436612D01*
X115601019Y-134451991D01*
X115622248Y-134473742D01*
X115647423Y-134499568D01*
X115675632Y-134528531D01*
X115705963Y-134559696D01*
X115737503Y-134592123D01*
X115769340Y-134624877D01*
X115800561Y-134657020D01*
X115847359Y-134705218D01*
X115902462Y-134761963D01*
X115952449Y-134813434D01*
X115997640Y-134859960D01*
X116038354Y-134901868D01*
X116074912Y-134939487D01*
X116107633Y-134973145D01*
X116136836Y-135003172D01*
X116162841Y-135029895D01*
X116185969Y-135053643D01*
X116206537Y-135074744D01*
X116224867Y-135093527D01*
X116241278Y-135110320D01*
X116256089Y-135125451D01*
X116269621Y-135139250D01*
X116282192Y-135152045D01*
X116294122Y-135164163D01*
X116363505Y-135234571D01*
X114292817Y-135234571D01*
X114242034Y-135182530D01*
X114221398Y-135161285D01*
X114181319Y-135119508D01*
X114141064Y-135076917D01*
X114101379Y-135034333D01*
X114063011Y-134992575D01*
X114026705Y-134952467D01*
X113993208Y-134914827D01*
X113963266Y-134880477D01*
X113937624Y-134850239D01*
X113917029Y-134824932D01*
X113904704Y-134808827D01*
X113890929Y-134789016D01*
X113881928Y-134773446D01*
X113878001Y-134762660D01*
X113879448Y-134757199D01*
X113880394Y-134756846D01*
X113888122Y-134755218D01*
X113902266Y-134752849D01*
X113921572Y-134749933D01*
X113944783Y-134746662D01*
X113970645Y-134743227D01*
X113979518Y-134742077D01*
X114004775Y-134738730D01*
X114027056Y-134735673D01*
X114045081Y-134733089D01*
X114057568Y-134731159D01*
X114063235Y-134730065D01*
X114063424Y-134729895D01*
X114061127Y-134725610D01*
X114053017Y-134715783D01*
X114039174Y-134700497D01*
X114019675Y-134679835D01*
X113994598Y-134653881D01*
X113964022Y-134622718D01*
X113928025Y-134586428D01*
X113905759Y-134564042D01*
X113872255Y-134530144D01*
X113843942Y-134501123D01*
X113820399Y-134476470D01*
X113801204Y-134455677D01*
X113785936Y-134438236D01*
X113774173Y-134423637D01*
X113765494Y-134411373D01*
X113759478Y-134400935D01*
X113755702Y-134391814D01*
X113753746Y-134383503D01*
X113753187Y-134375492D01*
X113753770Y-134371575D01*
X113759972Y-134361341D01*
X113771216Y-134352482D01*
X113785325Y-134346930D01*
X113785453Y-134346905D01*
X113791909Y-134346538D01*
X113805747Y-134346322D01*
X113826227Y-134346254D01*
X113852607Y-134346327D01*
X113884148Y-134346538D01*
X113920109Y-134346882D01*
X113959750Y-134347353D01*
X114002331Y-134347946D01*
X114047112Y-134348658D01*
X114051454Y-134348731D01*
X114095676Y-134349449D01*
X114137357Y-134350083D01*
X114175793Y-134350625D01*
X114210283Y-134351067D01*
X114240123Y-134351401D01*
X114264611Y-134351619D01*
X114283044Y-134351713D01*
X114294719Y-134351675D01*
X114298934Y-134351497D01*
X114298696Y-134351050D01*
X114294179Y-134346368D01*
X114284549Y-134337176D01*
X114270541Y-134324152D01*
X114252887Y-134307975D01*
X114232322Y-134289323D01*
X114209579Y-134268875D01*
X114196153Y-134256816D01*
X114160517Y-134224441D01*
X114126206Y-134192759D01*
X114093823Y-134162356D01*
X114063971Y-134133817D01*
X114037251Y-134107727D01*
X114014265Y-134084673D01*
X113995616Y-134065238D01*
X113981906Y-134050010D01*
X113973737Y-134039573D01*
X113961352Y-134020878D01*
X113972594Y-134013391D01*
X113975360Y-134011662D01*
X113979741Y-134009338D01*
X113985616Y-134006724D01*
X113993617Y-134003615D01*
X114004377Y-133999805D01*
X114018529Y-133995089D01*
X114036705Y-133989260D01*
X114059538Y-133982114D01*
X114087660Y-133973444D01*
X114121705Y-133963046D01*
X114162305Y-133950714D01*
X114210093Y-133936242D01*
X114239569Y-133927320D01*
X114272664Y-133917262D01*
X114299088Y-133909138D01*
X114319496Y-133902700D01*
X114334541Y-133897705D01*
X114344880Y-133893906D01*
X114351167Y-133891060D01*
X114354056Y-133888921D01*
X114354204Y-133887243D01*
X114352263Y-133885782D01*
X114348891Y-133884292D01*
X114345765Y-133883094D01*
X114335092Y-133879127D01*
X114317643Y-133872701D01*
X114293953Y-133864012D01*
X114264554Y-133853253D01*
X114229979Y-133840620D01*
X114190762Y-133826306D01*
X114147436Y-133810508D01*
X114100534Y-133793419D01*
X114050590Y-133775235D01*
X113998137Y-133756149D01*
X113943708Y-133736357D01*
X113907030Y-133723007D01*
X113853709Y-133703536D01*
X113802662Y-133684822D01*
X113754430Y-133667067D01*
X113709552Y-133650473D01*
X113668569Y-133635240D01*
X113632022Y-133621571D01*
X113600452Y-133609667D01*
X113574398Y-133599731D01*
X113554402Y-133591963D01*
X113541003Y-133586566D01*
X113534742Y-133583742D01*
X113533535Y-133583029D01*
X113524340Y-133576823D01*
X113518097Y-133569933D01*
X113513156Y-133559950D01*
X113507868Y-133544462D01*
X113507641Y-133543747D01*
X113498309Y-133520660D01*
X113484481Y-133495982D01*
X113465813Y-133469319D01*
X113441959Y-133440276D01*
X113412576Y-133408460D01*
X113377320Y-133373474D01*
X113335844Y-133334926D01*
X113287806Y-133292420D01*
X113239116Y-133250916D01*
X113186916Y-133207935D01*
X113131531Y-133163829D01*
X113072312Y-133118104D01*
X113008614Y-133070269D01*
X112939787Y-133019829D01*
X112865185Y-132966293D01*
X112784161Y-132909167D01*
X112776852Y-132904051D01*
X112750242Y-132885360D01*
X112725008Y-132867547D01*
X112702216Y-132851369D01*
X112682930Y-132837584D01*
X112668214Y-132826949D01*
X112659134Y-132820222D01*
X112651758Y-132814663D01*
X112627537Y-132797412D01*
X112602665Y-132781003D01*
X112578887Y-132766514D01*
X112557949Y-132755025D01*
X112541596Y-132747612D01*
X112540003Y-132747023D01*
X112533223Y-132744687D01*
X112526373Y-132742828D01*
X112518552Y-132741413D01*
X112508862Y-132740410D01*
X112496405Y-132739790D01*
X112480279Y-132739520D01*
X112459588Y-132739568D01*
X112433432Y-132739905D01*
X112400911Y-132740497D01*
X112361127Y-132741315D01*
X112357191Y-132741392D01*
X112328828Y-132741525D01*
X112305995Y-132740647D01*
X112286379Y-132738609D01*
X112267671Y-132735262D01*
X112267629Y-132735253D01*
X112256657Y-132732752D01*
X112245884Y-132729858D01*
X112234906Y-132726314D01*
X112223320Y-132721868D01*
X112210722Y-132716264D01*
X112196708Y-132709247D01*
X112180876Y-132700565D01*
X112162820Y-132689961D01*
X112142139Y-132677182D01*
X112118427Y-132661974D01*
X112091283Y-132644081D01*
X112060301Y-132623250D01*
X112025079Y-132599227D01*
X111985213Y-132571755D01*
X111940299Y-132540583D01*
X111889934Y-132505454D01*
X111833714Y-132466114D01*
X111771236Y-132422310D01*
X111743399Y-132402799D01*
X111684174Y-132361442D01*
X111631021Y-132324560D01*
X111583580Y-132291913D01*
X111541491Y-132263262D01*
X111504395Y-132238365D01*
X111471930Y-132216983D01*
X111443738Y-132198874D01*
X111419458Y-132183799D01*
X111398731Y-132171517D01*
X111381196Y-132161788D01*
X111365252Y-132153579D01*
X111330081Y-132137792D01*
X111300007Y-132128014D01*
X111274752Y-132124224D01*
X111254040Y-132126397D01*
X111237591Y-132134509D01*
X111225130Y-132148537D01*
X111221108Y-132157373D01*
X111217032Y-132177369D01*
X111215876Y-132203993D01*
X111217625Y-132236641D01*
X111222260Y-132274705D01*
X111229766Y-132317580D01*
X111232371Y-132330962D01*
X111236417Y-132352803D01*
X111239654Y-132371638D01*
X111241801Y-132385804D01*
X111242580Y-132393638D01*
X111241004Y-132402666D01*
X111234952Y-132418777D01*
X111224953Y-132439157D01*
X111211642Y-132462631D01*
X111195652Y-132488025D01*
X111177616Y-132514163D01*
X111175924Y-132516522D01*
X111163475Y-132534754D01*
X111152642Y-132552066D01*
X111144536Y-132566603D01*
X111140270Y-132576506D01*
X111136779Y-132599270D01*
X111139200Y-132628619D01*
X111148356Y-132659955D01*
X111163911Y-132692439D01*
X111185528Y-132725234D01*
X111212872Y-132757499D01*
X111234624Y-132780426D01*
X111207746Y-132883450D01*
X111201069Y-132909230D01*
X111194658Y-132934399D01*
X111189300Y-132955874D01*
X111185253Y-132972606D01*
X111182776Y-132983545D01*
X111182127Y-132987641D01*
X111183327Y-132987273D01*
X111190509Y-132983836D01*
X111203264Y-132977270D01*
X111220568Y-132968114D01*
X111241399Y-132956906D01*
X111264735Y-132944183D01*
X111277134Y-132937434D01*
X111299668Y-132925450D01*
X111319395Y-132915323D01*
X111335237Y-132907587D01*
X111346115Y-132902776D01*
X111350951Y-132901426D01*
X111353146Y-132903308D01*
X111360119Y-132910790D01*
X111370914Y-132923109D01*
X111384763Y-132939372D01*
X111400901Y-132958686D01*
X111418560Y-132980157D01*
X111425604Y-132988749D01*
X111446344Y-133013678D01*
X111467518Y-133038659D01*
X111487745Y-133062083D01*
X111505640Y-133082345D01*
X111519821Y-133097836D01*
X111533509Y-133112650D01*
X111576944Y-133164808D01*
X111612472Y-133216535D01*
X111640260Y-133268132D01*
X111660477Y-133319900D01*
X111673293Y-133372141D01*
X111675537Y-133386678D01*
X111678777Y-133426904D01*
X111677718Y-133465572D01*
X111672580Y-133501490D01*
X111663580Y-133533470D01*
X111650939Y-133560322D01*
X111634875Y-133580854D01*
X111613202Y-133600005D01*
X111568738Y-133630926D01*
X111518844Y-133655760D01*
X111463508Y-133674511D01*
X111460527Y-133675313D01*
X111447117Y-133678723D01*
X111434992Y-133681241D01*
X111422576Y-133683002D01*
X111408295Y-133684139D01*
X111390574Y-133684787D01*
X111367838Y-133685079D01*
X111338513Y-133685150D01*
X111325023Y-133685113D01*
X111288161Y-133684431D01*
X111256637Y-133682677D01*
X111228343Y-133679575D01*
X111201168Y-133674849D01*
X111173002Y-133668224D01*
X111141737Y-133659423D01*
X111113412Y-133650988D01*
X111071382Y-133571009D01*
X111065419Y-133559757D01*
X111053590Y-133538030D01*
X111043163Y-133519656D01*
X111034716Y-133505612D01*
X111028829Y-133496878D01*
X111026080Y-133494433D01*
X111025040Y-133496179D01*
X111021236Y-133504557D01*
X111015481Y-133518426D01*
X111008351Y-133536382D01*
X111000423Y-133557020D01*
X110996848Y-133566457D01*
X110988610Y-133588117D01*
X110981132Y-133607657D01*
X110975121Y-133623236D01*
X110971281Y-133633016D01*
X110964525Y-133649828D01*
X110924718Y-133651745D01*
X110905801Y-133653314D01*
X110873554Y-133659889D01*
X110847602Y-133671015D01*
X110828183Y-133686573D01*
X110815531Y-133706447D01*
X110812553Y-133714716D01*
X110810429Y-133726490D01*
X110810929Y-133739976D01*
X110814180Y-133757134D01*
X110820309Y-133779923D01*
X110827381Y-133801822D01*
X110845122Y-133842035D01*
X110867019Y-133875364D01*
X110893013Y-133901728D01*
X110923045Y-133921045D01*
X110924485Y-133921751D01*
X110939133Y-133928270D01*
X110952352Y-133932307D01*
X110967339Y-133934598D01*
X110987290Y-133935883D01*
X111018006Y-133935763D01*
X111056289Y-133930991D01*
X111076238Y-133927574D01*
X111106513Y-133923932D01*
X111141764Y-133920945D01*
X111180249Y-133918709D01*
X111220226Y-133917322D01*
X111259954Y-133916881D01*
X111297690Y-133917485D01*
X111302950Y-133917658D01*
X111332369Y-133918900D01*
X111355963Y-133920531D01*
X111375751Y-133922772D01*
X111393754Y-133925845D01*
X111411995Y-133929970D01*
X111426491Y-133933714D01*
X111492106Y-133954762D01*
X111551516Y-133981044D01*
X111604858Y-134012663D01*
X111652269Y-134049722D01*
X111693883Y-134092325D01*
X111729836Y-134140573D01*
X111760264Y-134194571D01*
X111772344Y-134220932D01*
X111791179Y-134271094D01*
X111805547Y-134323929D01*
X111815848Y-134381041D01*
X111822483Y-134444032D01*
X111823823Y-134468535D01*
X111824356Y-134512784D01*
X111822893Y-134558721D01*
X111819564Y-134603114D01*
X111814498Y-134642734D01*
X111813096Y-134652110D01*
X111811980Y-134662071D01*
X111812031Y-134666444D01*
X111812609Y-134666355D01*
X111818760Y-134663805D01*
X111830736Y-134658267D01*
X111847459Y-134650255D01*
X111867851Y-134640282D01*
X111890834Y-134628864D01*
X111906629Y-134621000D01*
X111937494Y-134605991D01*
X111962788Y-134594374D01*
X111983595Y-134585753D01*
X112001001Y-134579734D01*
X112016090Y-134575923D01*
X112029950Y-134573925D01*
X112043664Y-134573347D01*
X112047228Y-134573376D01*
X112069201Y-134575580D01*
X112085741Y-134582075D01*
X112098733Y-134593971D01*
X112110066Y-134612376D01*
X112122313Y-134636612D01*
X112123733Y-134748857D01*
X112123899Y-134767632D01*
X112123900Y-134805373D01*
X112123533Y-134844837D01*
X112122837Y-134883552D01*
X112121849Y-134919049D01*
X112120609Y-134948857D01*
X112119319Y-134973242D01*
X112117344Y-135008919D01*
X112115252Y-135045111D01*
X112113104Y-135080855D01*
X112110963Y-135115187D01*
X112108892Y-135147146D01*
X112106954Y-135175768D01*
X112105211Y-135200091D01*
X112103727Y-135219151D01*
X112102564Y-135231986D01*
X112101785Y-135237632D01*
X112100464Y-135238001D01*
X112096217Y-135238380D01*
X112088867Y-135238741D01*
X112078232Y-135239082D01*
X112064133Y-135239404D01*
X112046388Y-135239709D01*
X112024816Y-135239995D01*
X111999236Y-135240265D01*
X111969469Y-135240517D01*
X111935333Y-135240753D01*
X111896647Y-135240974D01*
X111853231Y-135241179D01*
X111804904Y-135241368D01*
X111751485Y-135241544D01*
X111692794Y-135241705D01*
X111628649Y-135241852D01*
X111558870Y-135241986D01*
X111483276Y-135242108D01*
X111401687Y-135242217D01*
X111313922Y-135242314D01*
X111219799Y-135242400D01*
X111119138Y-135242475D01*
X111011759Y-135242540D01*
X110897481Y-135242594D01*
X110776122Y-135242639D01*
X110647503Y-135242674D01*
X110511442Y-135242701D01*
X110367759Y-135242720D01*
X110216273Y-135242731D01*
X110056803Y-135242734D01*
X109928746Y-135242730D01*
X109802042Y-135242717D01*
X109677639Y-135242695D01*
X109555783Y-135242664D01*
X109436716Y-135242626D01*
X109320684Y-135242580D01*
X109207931Y-135242527D01*
X109098700Y-135242466D01*
X108993237Y-135242398D01*
X108891786Y-135242324D01*
X108794591Y-135242243D01*
X108701896Y-135242156D01*
X108613945Y-135242063D01*
X108530983Y-135241965D01*
X108453254Y-135241861D01*
X108381003Y-135241752D01*
X108314473Y-135241639D01*
X108253910Y-135241521D01*
X108199556Y-135241399D01*
X108151657Y-135241273D01*
X108110457Y-135241143D01*
X108076200Y-135241010D01*
X108049131Y-135240873D01*
X108029493Y-135240734D01*
X108017531Y-135240592D01*
X108013489Y-135240448D01*
X108015873Y-135236749D01*
X108022612Y-135227458D01*
X108033055Y-135213442D01*
X108046556Y-135195563D01*
X108062465Y-135174685D01*
X108080134Y-135151673D01*
X108086189Y-135143810D01*
X108098816Y-135127405D01*
X108116046Y-135105013D01*
X108137659Y-135076917D01*
X108163440Y-135043402D01*
X108193168Y-135004750D01*
X108226627Y-134961245D01*
X108263598Y-134913171D01*
X108303863Y-134860812D01*
X108347204Y-134804451D01*
X108393403Y-134744372D01*
X108442243Y-134680857D01*
X108493504Y-134614192D01*
X108546968Y-134544659D01*
X108602419Y-134472543D01*
X108659638Y-134398126D01*
X108718406Y-134321693D01*
X108778505Y-134243526D01*
X108839718Y-134163911D01*
X108901827Y-134083129D01*
X108964613Y-134001465D01*
X109027859Y-133919203D01*
X109091345Y-133836626D01*
X109154856Y-133754017D01*
X109218171Y-133671661D01*
X109281073Y-133589840D01*
X109343344Y-133508839D01*
X109404767Y-133428942D01*
X109465122Y-133350430D01*
X109524192Y-133273590D01*
X109581759Y-133198703D01*
X109637605Y-133126054D01*
X109691512Y-133055925D01*
X109743261Y-132988602D01*
X109792635Y-132924367D01*
X109822465Y-132885562D01*
X109856825Y-132840875D01*
X109889527Y-132798358D01*
X109920237Y-132758440D01*
X109948626Y-132721554D01*
X109974362Y-132688128D01*
X109997112Y-132658593D01*
X110016546Y-132633380D01*
X110032333Y-132612919D01*
X110044140Y-132597640D01*
X110051636Y-132587975D01*
X110054490Y-132584353D01*
X110057089Y-132586182D01*
X110064475Y-132593640D01*
X110076081Y-132606232D01*
X110091376Y-132623357D01*
X110109829Y-132644413D01*
X110130911Y-132668802D01*
X110154089Y-132695920D01*
X110178835Y-132725169D01*
X110200795Y-132751187D01*
X110224232Y-132778808D01*
X110245636Y-132803874D01*
X110264472Y-132825767D01*
X110280205Y-132843871D01*
X110292302Y-132857567D01*
X110300227Y-132866238D01*
X110303448Y-132869265D01*
X110303469Y-132869257D01*
X110306487Y-132865794D01*
X110314299Y-132856280D01*
X110326645Y-132841046D01*
X110343260Y-132820421D01*
X110363882Y-132794736D01*
X110388250Y-132764320D01*
X110416099Y-132729504D01*
X110447167Y-132690617D01*
X110481193Y-132647990D01*
X110517912Y-132601953D01*
X110557063Y-132552835D01*
X110598383Y-132500968D01*
X110641609Y-132446680D01*
X110686479Y-132390302D01*
X110732730Y-132332164D01*
X110780099Y-132272597D01*
X110828324Y-132211929D01*
X110877142Y-132150491D01*
X110926291Y-132088614D01*
X110975507Y-132026627D01*
X111024529Y-131964860D01*
X111073094Y-131903643D01*
X111120938Y-131843307D01*
X111167800Y-131784181D01*
X111213417Y-131726595D01*
X111257526Y-131670881D01*
X111299864Y-131617366D01*
X111340169Y-131566383D01*
X111347370Y-131557293D01*
X111362986Y-131537746D01*
X111376581Y-131520953D01*
X111387402Y-131507834D01*
X111394695Y-131499305D01*
X111397707Y-131496284D01*
X111400513Y-131498977D01*
X111408588Y-131507222D01*
X111421558Y-131520636D01*
X111439053Y-131538833D01*
X111460706Y-131561430D01*
X111486149Y-131588039D01*
X111515012Y-131618275D01*
X111546928Y-131651754D01*
X111581529Y-131688089D01*
X111618446Y-131726895D01*
X111657310Y-131767786D01*
X111697755Y-131810377D01*
X111736677Y-131851351D01*
X111775622Y-131892280D01*
X111812643Y-131931121D01*
X111847372Y-131967489D01*
X111879440Y-132001000D01*
X111908478Y-132031271D01*
X111934118Y-132057916D01*
X111955989Y-132080553D01*
X111973724Y-132098797D01*
X111986953Y-132112264D01*
X111995308Y-132120571D01*
X111998419Y-132123332D01*
X111999648Y-132121939D01*
X112005456Y-132114703D01*
X112015732Y-132101651D01*
X112030167Y-132083182D01*
X112048451Y-132059696D01*
X112070275Y-132031592D01*
X112095329Y-131999269D01*
X112123303Y-131963127D01*
X112153889Y-131923566D01*
X112186776Y-131880984D01*
X112221654Y-131835783D01*
X112258215Y-131788360D01*
X112296149Y-131739116D01*
X112591222Y-131355905D01*
X112625852Y-131392177D01*
G37*
G36*
X110678798Y-135877428D02*
G01*
X110677719Y-135885771D01*
X110665761Y-135947001D01*
X110647449Y-136003386D01*
X110623027Y-136054681D01*
X110592741Y-136100645D01*
X110556836Y-136141035D01*
X110515557Y-136175607D01*
X110469150Y-136204118D01*
X110417860Y-136226327D01*
X110361932Y-136241989D01*
X110301612Y-136250862D01*
X110257156Y-136252878D01*
X110202522Y-136250646D01*
X110149853Y-136243468D01*
X110101580Y-136231578D01*
X110094794Y-136229391D01*
X110042576Y-136207991D01*
X109995213Y-136180183D01*
X109952975Y-136146298D01*
X109916129Y-136106662D01*
X109884945Y-136061605D01*
X109859691Y-136011455D01*
X109840635Y-135956540D01*
X109828047Y-135897188D01*
X109826305Y-135883399D01*
X109824021Y-135855049D01*
X109822621Y-135822706D01*
X109822171Y-135791714D01*
X110008325Y-135791714D01*
X110008398Y-135808652D01*
X110008709Y-135832998D01*
X110009394Y-135851946D01*
X110010612Y-135867259D01*
X110012526Y-135880700D01*
X110015298Y-135894031D01*
X110019089Y-135909015D01*
X110021115Y-135916222D01*
X110028387Y-135938391D01*
X110036828Y-135960253D01*
X110044995Y-135977970D01*
X110064928Y-136008822D01*
X110092258Y-136038430D01*
X110124260Y-136063220D01*
X110159480Y-136082078D01*
X110196463Y-136093891D01*
X110218806Y-136097686D01*
X110263086Y-136099549D01*
X110305608Y-136093783D01*
X110345721Y-136080570D01*
X110382775Y-136060092D01*
X110416119Y-136032530D01*
X110420153Y-136028446D01*
X110444501Y-135999337D01*
X110463792Y-135967125D01*
X110478481Y-135930712D01*
X110489027Y-135888999D01*
X110495886Y-135840888D01*
X110498320Y-135797925D01*
X110496816Y-135750105D01*
X110491083Y-135704062D01*
X110481377Y-135661230D01*
X110467956Y-135623041D01*
X110451076Y-135590929D01*
X110446023Y-135583483D01*
X110419493Y-135552570D01*
X110387808Y-135526607D01*
X110352455Y-135506656D01*
X110314921Y-135493778D01*
X110292329Y-135490072D01*
X110264883Y-135488156D01*
X110236154Y-135488147D01*
X110209217Y-135490043D01*
X110187145Y-135493843D01*
X110184479Y-135494538D01*
X110143782Y-135509257D01*
X110108143Y-135530368D01*
X110077614Y-135557814D01*
X110052248Y-135591537D01*
X110032097Y-135631483D01*
X110017214Y-135677593D01*
X110016647Y-135679891D01*
X110013466Y-135694083D01*
X110011184Y-135707732D01*
X110009664Y-135722579D01*
X110008771Y-135740365D01*
X110008370Y-135762830D01*
X110008325Y-135791714D01*
X109822171Y-135791714D01*
X109822128Y-135788789D01*
X109822562Y-135755716D01*
X109823947Y-135725908D01*
X109826303Y-135701783D01*
X109835533Y-135652608D01*
X109850563Y-135600980D01*
X109870145Y-135553279D01*
X109893654Y-135511274D01*
X109900952Y-135500826D01*
X109920073Y-135477213D01*
X109942703Y-135452956D01*
X109966896Y-135429955D01*
X109990710Y-135410113D01*
X110012200Y-135395330D01*
X110025511Y-135387813D01*
X110077674Y-135364082D01*
X110133759Y-135346863D01*
X110192720Y-135336361D01*
X110253513Y-135332777D01*
X110315095Y-135336317D01*
X110359624Y-135343188D01*
X110412254Y-135356676D01*
X110459656Y-135375604D01*
X110502566Y-135400280D01*
X110541721Y-135431011D01*
X110563949Y-135453039D01*
X110595881Y-135492147D01*
X110623880Y-135535668D01*
X110646620Y-135581453D01*
X110662778Y-135627355D01*
X110665091Y-135636197D01*
X110673948Y-135680451D01*
X110679912Y-135729274D01*
X110682818Y-135780093D01*
X110682706Y-135797925D01*
X110682502Y-135830335D01*
X110678798Y-135877428D01*
G37*
G36*
X108413864Y-134480858D02*
G01*
X108396382Y-134514193D01*
X108373286Y-134544132D01*
X108345148Y-134569712D01*
X108312539Y-134589973D01*
X108276030Y-134603952D01*
X108274616Y-134604320D01*
X108260000Y-134606927D01*
X108241373Y-134608857D01*
X108222406Y-134609716D01*
X108219550Y-134609728D01*
X108179564Y-134605737D01*
X108142030Y-134594424D01*
X108107767Y-134576432D01*
X108077592Y-134552403D01*
X108052323Y-134522979D01*
X108032778Y-134488803D01*
X108019775Y-134450518D01*
X108015363Y-134426474D01*
X108014267Y-134392753D01*
X108014689Y-134390021D01*
X108055282Y-134390021D01*
X108055895Y-134423212D01*
X108063147Y-134455490D01*
X108076840Y-134485866D01*
X108096779Y-134513352D01*
X108122769Y-134536958D01*
X108154613Y-134555695D01*
X108164606Y-134559962D01*
X108178794Y-134564345D01*
X108194711Y-134566811D01*
X108215563Y-134568008D01*
X108233612Y-134568084D01*
X108254028Y-134566693D01*
X108268632Y-134563772D01*
X108301042Y-134549520D01*
X108329820Y-134529352D01*
X108353153Y-134504734D01*
X108370783Y-134476626D01*
X108382454Y-134445987D01*
X108387909Y-134413775D01*
X108386890Y-134380950D01*
X108379141Y-134348471D01*
X108364404Y-134317296D01*
X108342423Y-134288386D01*
X108319060Y-134267913D01*
X108289374Y-134251139D01*
X108257175Y-134240893D01*
X108223696Y-134237179D01*
X108190165Y-134239999D01*
X108157816Y-134249358D01*
X108127879Y-134265259D01*
X108101585Y-134287706D01*
X108095223Y-134294866D01*
X108074749Y-134324859D01*
X108061501Y-134356907D01*
X108055282Y-134390021D01*
X108014689Y-134390021D01*
X108019635Y-134357999D01*
X108020069Y-134356193D01*
X108033496Y-134317362D01*
X108053316Y-134282903D01*
X108078782Y-134253410D01*
X108109147Y-134229477D01*
X108143664Y-134211698D01*
X108181585Y-134200668D01*
X108222162Y-134196980D01*
X108258778Y-134200168D01*
X108297335Y-134210702D01*
X108332360Y-134228082D01*
X108363183Y-134251782D01*
X108389133Y-134281273D01*
X108409538Y-134316028D01*
X108423728Y-134355518D01*
X108426906Y-134370092D01*
X108429697Y-134407846D01*
X108428975Y-134413775D01*
X108425159Y-134445089D01*
X108413864Y-134480858D01*
G37*
G36*
X116110360Y-135334199D02*
G01*
X116155378Y-135338596D01*
X116195910Y-135346466D01*
X116202600Y-135348226D01*
X116241010Y-135360567D01*
X116273660Y-135375638D01*
X116302506Y-135394489D01*
X116329502Y-135418171D01*
X116339214Y-135428260D01*
X116365413Y-135462309D01*
X116383922Y-135498945D01*
X116394886Y-135538509D01*
X116398450Y-135581347D01*
X116398229Y-135592127D01*
X116393076Y-135633776D01*
X116380833Y-135672014D01*
X116361159Y-135707692D01*
X116333709Y-135741660D01*
X116320234Y-135755100D01*
X116302792Y-135769911D01*
X116283436Y-135783340D01*
X116261291Y-135795783D01*
X116235479Y-135807633D01*
X116205125Y-135819287D01*
X116169353Y-135831141D01*
X116127287Y-135843588D01*
X116078050Y-135857025D01*
X116074975Y-135857841D01*
X116032695Y-135869384D01*
X115997637Y-135879755D01*
X115969062Y-135889329D01*
X115946228Y-135898480D01*
X115928395Y-135907583D01*
X115914824Y-135917013D01*
X115904773Y-135927143D01*
X115897502Y-135938349D01*
X115892271Y-135951005D01*
X115890004Y-135960726D01*
X115888981Y-135981716D01*
X115891701Y-136003671D01*
X115897862Y-136022702D01*
X115907649Y-136038014D01*
X115922036Y-136054449D01*
X115938310Y-136069212D01*
X115953786Y-136079575D01*
X115975222Y-136087963D01*
X116003397Y-136094640D01*
X116034752Y-136098808D01*
X116066858Y-136100258D01*
X116097291Y-136098781D01*
X116123623Y-136094169D01*
X116133951Y-136091101D01*
X116167629Y-136075935D01*
X116196503Y-136054321D01*
X116220284Y-136026576D01*
X116238682Y-135993016D01*
X116251410Y-135953959D01*
X116252409Y-135949847D01*
X116255870Y-135938978D01*
X116259829Y-135933830D01*
X116265518Y-135932530D01*
X116265797Y-135932532D01*
X116274085Y-135932984D01*
X116288623Y-135934118D01*
X116307660Y-135935766D01*
X116329441Y-135937761D01*
X116352212Y-135939937D01*
X116374219Y-135942124D01*
X116393708Y-135944157D01*
X116408926Y-135945868D01*
X116418117Y-135947089D01*
X116431601Y-135949308D01*
X116428819Y-135968470D01*
X116428404Y-135971074D01*
X116425466Y-135985575D01*
X116421116Y-136003763D01*
X116416137Y-136022326D01*
X116399105Y-136070124D01*
X116376084Y-136113561D01*
X116347494Y-136151067D01*
X116313301Y-136182667D01*
X116273474Y-136208385D01*
X116227981Y-136228246D01*
X116176789Y-136242274D01*
X116119867Y-136250496D01*
X116111451Y-136251245D01*
X116095163Y-136252697D01*
X116082617Y-136253817D01*
X116076009Y-136254408D01*
X116067434Y-136254562D01*
X116051205Y-136253804D01*
X116030505Y-136252204D01*
X116007309Y-136249971D01*
X115983598Y-136247314D01*
X115961351Y-136244442D01*
X115942544Y-136241565D01*
X115929158Y-136238890D01*
X115920920Y-136236750D01*
X115872069Y-136220189D01*
X115829556Y-136198535D01*
X115793270Y-136171692D01*
X115763099Y-136139562D01*
X115738933Y-136102051D01*
X115720659Y-136059061D01*
X115716722Y-136045618D01*
X115710460Y-136008842D01*
X115709067Y-135969130D01*
X115712397Y-135928945D01*
X115720305Y-135890754D01*
X115732643Y-135857020D01*
X115740871Y-135840955D01*
X115756012Y-135817207D01*
X115774003Y-135795873D01*
X115795506Y-135776571D01*
X115821180Y-135758918D01*
X115851688Y-135742532D01*
X115887691Y-135727031D01*
X115929849Y-135712031D01*
X115978824Y-135697152D01*
X116035277Y-135682010D01*
X116055543Y-135676765D01*
X116097914Y-135665087D01*
X116133062Y-135654112D01*
X116161585Y-135643480D01*
X116184079Y-135632832D01*
X116201144Y-135621810D01*
X116213376Y-135610055D01*
X116221373Y-135597206D01*
X116225733Y-135582907D01*
X116227054Y-135566796D01*
X116224849Y-135550262D01*
X116215460Y-135530719D01*
X116199192Y-135514049D01*
X116176577Y-135500552D01*
X116148152Y-135490528D01*
X116114451Y-135484277D01*
X116076009Y-135482098D01*
X116049930Y-135483013D01*
X116013711Y-135488472D01*
X115983513Y-135499104D01*
X115958934Y-135515202D01*
X115939569Y-135537059D01*
X115925016Y-135564969D01*
X115914872Y-135599225D01*
X115912377Y-135610818D01*
X115874786Y-135608480D01*
X115859016Y-135607541D01*
X115835108Y-135606204D01*
X115809216Y-135604828D01*
X115784730Y-135603595D01*
X115732265Y-135601048D01*
X115735035Y-135578014D01*
X115740787Y-135544741D01*
X115754846Y-135500258D01*
X115775495Y-135460513D01*
X115802550Y-135425730D01*
X115835826Y-135396133D01*
X115875139Y-135371946D01*
X115920304Y-135353392D01*
X115930833Y-135350194D01*
X115971094Y-135341271D01*
X116015949Y-135335593D01*
X116063128Y-135333217D01*
X116110360Y-135334199D01*
G37*
G36*
X112360690Y-132959536D02*
G01*
X112377771Y-132967484D01*
X112398330Y-132981971D01*
X112407004Y-132990564D01*
X112419115Y-133007404D01*
X112430563Y-133028122D01*
X112440076Y-133050344D01*
X112446383Y-133071697D01*
X112450780Y-133086720D01*
X112458622Y-133101783D01*
X112471290Y-133118636D01*
X112482257Y-133132077D01*
X112501712Y-133157783D01*
X112515210Y-133178700D01*
X112522687Y-133194702D01*
X112524077Y-133205664D01*
X112519315Y-133211460D01*
X112517192Y-133212229D01*
X112500530Y-133214114D01*
X112478744Y-133210566D01*
X112451649Y-133201525D01*
X112419056Y-133186932D01*
X112380779Y-133166725D01*
X112375376Y-133163673D01*
X112339499Y-133141477D01*
X112311519Y-133120355D01*
X112291481Y-133100349D01*
X112279426Y-133081499D01*
X112275399Y-133063849D01*
X112277324Y-133052061D01*
X112283140Y-133035050D01*
X112291707Y-133016000D01*
X112301868Y-132997232D01*
X112312462Y-132981066D01*
X112322334Y-132969822D01*
X112332358Y-132962521D01*
X112345936Y-132957943D01*
X112360690Y-132959536D01*
G37*
G36*
X109691205Y-135928577D02*
G01*
X109691086Y-135982599D01*
X109690926Y-136033219D01*
X109690730Y-136079910D01*
X109690500Y-136122141D01*
X109690239Y-136159385D01*
X109689950Y-136191111D01*
X109689638Y-136216791D01*
X109689305Y-136235894D01*
X109688954Y-136247893D01*
X109688588Y-136252258D01*
X109688518Y-136252311D01*
X109683253Y-136253065D01*
X109670755Y-136253676D01*
X109651899Y-136254146D01*
X109627559Y-136254478D01*
X109598609Y-136254676D01*
X109565925Y-136254741D01*
X109530379Y-136254678D01*
X109492847Y-136254489D01*
X109454204Y-136254176D01*
X109415323Y-136253744D01*
X109377080Y-136253194D01*
X109340348Y-136252530D01*
X109306002Y-136251755D01*
X109274916Y-136250872D01*
X109268124Y-136250649D01*
X109226520Y-136249057D01*
X109192581Y-136247301D01*
X109165871Y-136245351D01*
X109145954Y-136243177D01*
X109132396Y-136240746D01*
X109120921Y-136237644D01*
X109080945Y-136221707D01*
X109045070Y-136199197D01*
X109013833Y-136170776D01*
X108987771Y-136137107D01*
X108967422Y-136098851D01*
X108953323Y-136056670D01*
X108946011Y-136011226D01*
X108946184Y-135985831D01*
X109132560Y-135985831D01*
X109135084Y-136017467D01*
X109143868Y-136043939D01*
X109158993Y-136065339D01*
X109180541Y-136081758D01*
X109208597Y-136093288D01*
X109243241Y-136100021D01*
X109243502Y-136100050D01*
X109256779Y-136101072D01*
X109276731Y-136101993D01*
X109301910Y-136102777D01*
X109330868Y-136103386D01*
X109362155Y-136103782D01*
X109394323Y-136103928D01*
X109511689Y-136103959D01*
X109511689Y-135866571D01*
X109371871Y-135868205D01*
X109362397Y-135868318D01*
X109322886Y-135868874D01*
X109290420Y-135869572D01*
X109264079Y-135870541D01*
X109242941Y-135871908D01*
X109226086Y-135873799D01*
X109212592Y-135876342D01*
X109201537Y-135879665D01*
X109192001Y-135883894D01*
X109183063Y-135889158D01*
X109173800Y-135895583D01*
X109164056Y-135903508D01*
X109147693Y-135923393D01*
X109137451Y-135947744D01*
X109132876Y-135977468D01*
X109132560Y-135985831D01*
X108946184Y-135985831D01*
X108946274Y-135972560D01*
X108953861Y-135932574D01*
X108968520Y-135895278D01*
X108989719Y-135861503D01*
X109016928Y-135832081D01*
X109049618Y-135807845D01*
X109087257Y-135789626D01*
X109112170Y-135780311D01*
X109092825Y-135769014D01*
X109065360Y-135749268D01*
X109038699Y-135722004D01*
X109016642Y-135690412D01*
X109000748Y-135656401D01*
X109000535Y-135655799D01*
X108993515Y-135627777D01*
X108992624Y-135619496D01*
X109164585Y-135619496D01*
X109169715Y-135648383D01*
X109176964Y-135663667D01*
X109190880Y-135680910D01*
X109208701Y-135695805D01*
X109228246Y-135706199D01*
X109231408Y-135707327D01*
X109238206Y-135709255D01*
X109246450Y-135710801D01*
X109257100Y-135712022D01*
X109271116Y-135712975D01*
X109289458Y-135713718D01*
X109313086Y-135714307D01*
X109342958Y-135714801D01*
X109380035Y-135715256D01*
X109511689Y-135716716D01*
X109511689Y-135511536D01*
X109375953Y-135513165D01*
X109360021Y-135513361D01*
X109322764Y-135513906D01*
X109292433Y-135514599D01*
X109268130Y-135515582D01*
X109248953Y-135516999D01*
X109234003Y-135518995D01*
X109222379Y-135521713D01*
X109213182Y-135525297D01*
X109205511Y-135529891D01*
X109198466Y-135535638D01*
X109191147Y-135542682D01*
X109188926Y-135544988D01*
X109174489Y-135566321D01*
X109166276Y-135591649D01*
X109164585Y-135619496D01*
X108992624Y-135619496D01*
X108990125Y-135596254D01*
X108990535Y-135564741D01*
X108994918Y-135536752D01*
X109001268Y-135516530D01*
X109018844Y-135480177D01*
X109042864Y-135447237D01*
X109072281Y-135419027D01*
X109106051Y-135396862D01*
X109111210Y-135394152D01*
X109121437Y-135388886D01*
X109130970Y-135384375D01*
X109140489Y-135380554D01*
X109150677Y-135377363D01*
X109162214Y-135374737D01*
X109175782Y-135372615D01*
X109192063Y-135370935D01*
X109211739Y-135369632D01*
X109235490Y-135368646D01*
X109263997Y-135367912D01*
X109297944Y-135367370D01*
X109338010Y-135366955D01*
X109384878Y-135366606D01*
X109439229Y-135366259D01*
X109691310Y-135364678D01*
X109691310Y-135812450D01*
X109691284Y-135866571D01*
X109691281Y-135871685D01*
X109691205Y-135928577D01*
G37*
G36*
X115218729Y-136254979D02*
G01*
X114541069Y-136254979D01*
X114541069Y-136103959D01*
X115039108Y-136103959D01*
X115039108Y-135859131D01*
X114815603Y-135858075D01*
X114592097Y-135857020D01*
X114590856Y-135784571D01*
X114589616Y-135712122D01*
X115039108Y-135712122D01*
X115039108Y-135512122D01*
X114557398Y-135512122D01*
X114557398Y-135365183D01*
X115218729Y-135365183D01*
X115218729Y-136254979D01*
G37*
G36*
X113415378Y-136254038D02*
G01*
X113326588Y-136252938D01*
X113325525Y-136067783D01*
X113324463Y-135882627D01*
X113268373Y-135884355D01*
X113244189Y-135885302D01*
X113226165Y-135886605D01*
X113212613Y-135888520D01*
X113201682Y-135891309D01*
X113191521Y-135895236D01*
X113188476Y-135896621D01*
X113179388Y-135901395D01*
X113170336Y-135907369D01*
X113160912Y-135915056D01*
X113150707Y-135924969D01*
X113139314Y-135937621D01*
X113126325Y-135953524D01*
X113111331Y-135973192D01*
X113093925Y-135997137D01*
X113073697Y-136025873D01*
X113050241Y-136059911D01*
X113023147Y-136099766D01*
X112992008Y-136145950D01*
X112918695Y-136254979D01*
X112813408Y-136254979D01*
X112787752Y-136254887D01*
X112761958Y-136254586D01*
X112740027Y-136254108D01*
X112723032Y-136253483D01*
X112712051Y-136252742D01*
X112708159Y-136251918D01*
X112708652Y-136250650D01*
X112712671Y-136243363D01*
X112720251Y-136230582D01*
X112730807Y-136213234D01*
X112743754Y-136192249D01*
X112758507Y-136168553D01*
X112774483Y-136143076D01*
X112791095Y-136116744D01*
X112807760Y-136090486D01*
X112823894Y-136065230D01*
X112838910Y-136041905D01*
X112852225Y-136021437D01*
X112863254Y-136004755D01*
X112871413Y-135992787D01*
X112891906Y-135965602D01*
X112921593Y-135931906D01*
X112952452Y-135902671D01*
X112982808Y-135879601D01*
X113010516Y-135861389D01*
X112973598Y-135852334D01*
X112933725Y-135840151D01*
X112892287Y-135820913D01*
X112857123Y-135796457D01*
X112828227Y-135766777D01*
X112805589Y-135731865D01*
X112789202Y-135691714D01*
X112786688Y-135682500D01*
X112781905Y-135654981D01*
X112779528Y-135624043D01*
X112779538Y-135619556D01*
X112964039Y-135619556D01*
X112966211Y-135649735D01*
X112974167Y-135676971D01*
X112988063Y-135699127D01*
X112988068Y-135699134D01*
X113001133Y-135711744D01*
X113016760Y-135721302D01*
X113036331Y-135728304D01*
X113061230Y-135733244D01*
X113092840Y-135736617D01*
X113095073Y-135736784D01*
X113115804Y-135737970D01*
X113142219Y-135739006D01*
X113172133Y-135739831D01*
X113203361Y-135740383D01*
X113233716Y-135740601D01*
X113324547Y-135740694D01*
X113324547Y-135510801D01*
X113188811Y-135513498D01*
X113168049Y-135513954D01*
X113136034Y-135514830D01*
X113106749Y-135515840D01*
X113081281Y-135516933D01*
X113060716Y-135518062D01*
X113046142Y-135519177D01*
X113038646Y-135520230D01*
X113018740Y-135527889D01*
X112995925Y-135543616D01*
X112978804Y-135564668D01*
X112967975Y-135590247D01*
X112964039Y-135619556D01*
X112779538Y-135619556D01*
X112779595Y-135592480D01*
X112782141Y-135563086D01*
X112787204Y-135538653D01*
X112789407Y-135531727D01*
X112804022Y-135496733D01*
X112823128Y-135464318D01*
X112845163Y-135437218D01*
X112849130Y-135433233D01*
X112871247Y-135414012D01*
X112894926Y-135398953D01*
X112921796Y-135387323D01*
X112953482Y-135378394D01*
X112991611Y-135371434D01*
X112991983Y-135371379D01*
X113002897Y-135369988D01*
X113015672Y-135368812D01*
X113031010Y-135367832D01*
X113049610Y-135367035D01*
X113072173Y-135366403D01*
X113099400Y-135365922D01*
X113131989Y-135365575D01*
X113170642Y-135365347D01*
X113216059Y-135365222D01*
X113268939Y-135365183D01*
X113504167Y-135365183D01*
X113504167Y-136255138D01*
X113415378Y-136254038D01*
G37*
G36*
X108270673Y-134516204D02*
G01*
X108270673Y-134469265D01*
X108270653Y-134457144D01*
X108270417Y-134440922D01*
X108269716Y-134430712D01*
X108268305Y-134425132D01*
X108265941Y-134422797D01*
X108262378Y-134422326D01*
X108260487Y-134422400D01*
X108246447Y-134425796D01*
X108231724Y-134432840D01*
X108220576Y-134441571D01*
X108219047Y-134443486D01*
X108212831Y-134452821D01*
X108204723Y-134466378D01*
X108196073Y-134481930D01*
X108178804Y-134514163D01*
X108153298Y-134515378D01*
X108144588Y-134515693D01*
X108133121Y-134515006D01*
X108128510Y-134511627D01*
X108129926Y-134504406D01*
X108136538Y-134492196D01*
X108138025Y-134489691D01*
X108154816Y-134462355D01*
X108168329Y-134442300D01*
X108178530Y-134429574D01*
X108185383Y-134424228D01*
X108186489Y-134423837D01*
X108190916Y-134419914D01*
X108188687Y-134415964D01*
X108180794Y-134414163D01*
X108173047Y-134411821D01*
X108162120Y-134403954D01*
X108151302Y-134392570D01*
X108142550Y-134379782D01*
X108137820Y-134367707D01*
X108137159Y-134357024D01*
X108138341Y-134350972D01*
X108186014Y-134350972D01*
X108186143Y-134364716D01*
X108192749Y-134377996D01*
X108194486Y-134380019D01*
X108199540Y-134384102D01*
X108206742Y-134386626D01*
X108218098Y-134388110D01*
X108235613Y-134389071D01*
X108270673Y-134390511D01*
X108270673Y-134327425D01*
X108236090Y-134329240D01*
X108228205Y-134329717D01*
X108211324Y-134331522D01*
X108200240Y-134334341D01*
X108193226Y-134338548D01*
X108192330Y-134339404D01*
X108186014Y-134350972D01*
X108138341Y-134350972D01*
X108140896Y-134337894D01*
X108149531Y-134319911D01*
X108161757Y-134306420D01*
X108164136Y-134304744D01*
X108169249Y-134302032D01*
X108175904Y-134300070D01*
X108185424Y-134298699D01*
X108199134Y-134297761D01*
X108218359Y-134297099D01*
X108244423Y-134296553D01*
X108315579Y-134295269D01*
X108315579Y-134516204D01*
X108270673Y-134516204D01*
G37*
%TO.C,C41*%
X80634200Y-96466820D02*
X80634200Y-96747980D01*
X81654200Y-96466820D02*
X81654200Y-96747980D01*
%TO.C,C58*%
X78511252Y-95960000D02*
X77988748Y-95960000D01*
X78511252Y-97430000D02*
X77988748Y-97430000D01*
%TO.C,C43*%
X60291180Y-116300200D02*
X60010020Y-116300200D01*
X60291180Y-117320200D02*
X60010020Y-117320200D01*
%TO.C,C36*%
X48099452Y-104708400D02*
X47576948Y-104708400D01*
X48099452Y-103238400D02*
X47576948Y-103238400D01*
%TO.C,RN3*%
X83952200Y-80153400D02*
X82277200Y-80153400D01*
X83952200Y-80153400D02*
X84602200Y-80153400D01*
X83952200Y-77033400D02*
X83302200Y-77033400D01*
X83952200Y-77033400D02*
X84602200Y-77033400D01*
%TO.C,D7*%
X79609000Y-105517000D02*
X83459000Y-105517000D01*
X79609000Y-105517000D02*
X79609000Y-103517000D01*
X79609000Y-103517000D02*
X83459000Y-103517000D01*
%TO.C,C66*%
X62060200Y-82269980D02*
X62060200Y-81988820D01*
X63080200Y-82269980D02*
X63080200Y-81988820D01*
%TO.C,U25*%
X41574000Y-130720000D02*
X41574000Y-151720000D01*
X92574000Y-151720000D02*
X92574000Y-144920000D01*
X92574000Y-137520000D02*
X92574000Y-130720000D01*
X92574000Y-139720000D02*
X92574000Y-140120000D01*
X44241000Y-133727000D02*
X41574000Y-133727000D01*
X44241000Y-130720000D02*
X44241000Y-133727000D01*
X92574000Y-142320000D02*
X92574000Y-142720000D01*
%TO.C,C37*%
X50491620Y-114897400D02*
X50772780Y-114897400D01*
X50491620Y-113877400D02*
X50772780Y-113877400D01*
%TO.C,C67*%
X87510200Y-82289980D02*
X87510200Y-82008820D01*
X86490200Y-82289980D02*
X86490200Y-82008820D01*
%TO.C,R29*%
X55220942Y-94589900D02*
X55695458Y-94589900D01*
X55220942Y-93544900D02*
X55695458Y-93544900D01*
%TO.C,R30*%
X55220942Y-93065900D02*
X55695458Y-93065900D01*
X55220942Y-92020900D02*
X55695458Y-92020900D01*
%TO.C,R33*%
X75686064Y-107792000D02*
X75231936Y-107792000D01*
X75686064Y-106322000D02*
X75231936Y-106322000D01*
%TO.C,D6*%
X66782000Y-103517000D02*
X70632000Y-103517000D01*
X66782000Y-105517000D02*
X70632000Y-105517000D01*
X66782000Y-105517000D02*
X66782000Y-103517000D01*
%TO.C,C51*%
X65938252Y-97778000D02*
X65415748Y-97778000D01*
X65938252Y-96308000D02*
X65415748Y-96308000D01*
%TO.C,R106*%
X101061258Y-146472500D02*
X100586742Y-146472500D01*
X101061258Y-145427500D02*
X100586742Y-145427500D01*
%TO.C,C40*%
X48232780Y-105495400D02*
X47951620Y-105495400D01*
X48232780Y-106515400D02*
X47951620Y-106515400D01*
%TO.C,C62*%
X69680200Y-78713980D02*
X69680200Y-78432820D01*
X70700200Y-78713980D02*
X70700200Y-78432820D01*
%TO.C,C34*%
X54952200Y-106880820D02*
X54952200Y-107161980D01*
X53932200Y-106880820D02*
X53932200Y-107161980D01*
%TO.C,R31*%
X55220942Y-90496900D02*
X55695458Y-90496900D01*
X55220942Y-91541900D02*
X55695458Y-91541900D01*
%TO.C,U18*%
X77635000Y-112645000D02*
X77635000Y-114595000D01*
X72515000Y-112645000D02*
X72515000Y-114595000D01*
X77635000Y-112645000D02*
X77635000Y-110695000D01*
X72515000Y-112645000D02*
X72515000Y-109195000D01*
%TO.C,RN1*%
X73238200Y-77013400D02*
X73888200Y-77013400D01*
X73238200Y-80133400D02*
X71563200Y-80133400D01*
X73238200Y-77013400D02*
X72588200Y-77013400D01*
X73238200Y-80133400D02*
X73888200Y-80133400D01*
%TO.C,C68*%
X81160200Y-78733980D02*
X81160200Y-78452820D01*
X80140200Y-78733980D02*
X80140200Y-78452820D01*
%TO.C,R107*%
X104822258Y-150823500D02*
X104347742Y-150823500D01*
X104822258Y-149778500D02*
X104347742Y-149778500D01*
%TO.C,C30*%
X59260948Y-87690400D02*
X59783452Y-87690400D01*
X59260948Y-86220400D02*
X59783452Y-86220400D01*
%TO.C,R91*%
X87635500Y-158132742D02*
X87635500Y-158607258D01*
X88680500Y-158132742D02*
X88680500Y-158607258D01*
%TO.C,C52*%
X71902000Y-114563580D02*
X71902000Y-114282420D01*
X70882000Y-114563580D02*
X70882000Y-114282420D01*
%TO.C,C53*%
X70378000Y-114563580D02*
X70378000Y-114282420D01*
X69358000Y-114563580D02*
X69358000Y-114282420D01*
%TO.C,C61*%
X75776200Y-82269980D02*
X75776200Y-81988820D01*
X76796200Y-82269980D02*
X76796200Y-81988820D01*
%TO.C,Q21*%
X75280000Y-155290000D02*
X73330000Y-155290000D01*
X75280000Y-155290000D02*
X78730000Y-155290000D01*
X75280000Y-160410000D02*
X73330000Y-160410000D01*
X75280000Y-160410000D02*
X77230000Y-160410000D01*
%TO.C,U21*%
X73238200Y-80569400D02*
X74038200Y-80569400D01*
X73238200Y-80569400D02*
X72438200Y-80569400D01*
X73238200Y-83689400D02*
X71438200Y-83689400D01*
X73238200Y-83689400D02*
X74038200Y-83689400D01*
%TO.C,Q20*%
X84370000Y-160096000D02*
X83720000Y-160096000D01*
X84370000Y-156976000D02*
X83720000Y-156976000D01*
X84370000Y-156976000D02*
X86045000Y-156976000D01*
X84370000Y-160096000D02*
X85020000Y-160096000D01*
%TO.C,C39*%
X46824200Y-109447980D02*
X46824200Y-109166820D01*
X45804200Y-109447980D02*
X45804200Y-109166820D01*
%TO.C,RN2*%
X65618200Y-77013400D02*
X64968200Y-77013400D01*
X65618200Y-80133400D02*
X66268200Y-80133400D01*
X65618200Y-80133400D02*
X63943200Y-80133400D01*
X65618200Y-77013400D02*
X66268200Y-77013400D01*
%TO.C,Q22*%
X99264000Y-149450000D02*
X99264000Y-147775000D01*
X102384000Y-149450000D02*
X102384000Y-148800000D01*
X102384000Y-149450000D02*
X102384000Y-150100000D01*
X99264000Y-149450000D02*
X99264000Y-150100000D01*
%TO.C,U1*%
X72670000Y-102970000D02*
X73670000Y-102970000D01*
X74670000Y-100730000D02*
X72670000Y-100730000D01*
%TO.C,C38*%
X83178200Y-96466820D02*
X83178200Y-96747980D01*
X82158200Y-96466820D02*
X82158200Y-96747980D01*
%TO.C,U12*%
X66564200Y-88067816D02*
X66564200Y-86353400D01*
X71784200Y-88067816D02*
X71784200Y-87803400D01*
X71784200Y-91938984D02*
X71784200Y-92203400D01*
X66564200Y-91938984D02*
X66564200Y-92203400D01*
%TO.C,C45*%
X51929200Y-105250652D02*
X51929200Y-104728148D01*
X53399200Y-105250652D02*
X53399200Y-104728148D01*
%TO.C,C3*%
X73177252Y-96289000D02*
X72654748Y-96289000D01*
X73177252Y-97759000D02*
X72654748Y-97759000D01*
%TO.C,C33*%
X67902200Y-96466820D02*
X67902200Y-96747980D01*
X68922200Y-96466820D02*
X68922200Y-96747980D01*
%TO.C,U20*%
X79627000Y-112645000D02*
X79627000Y-114595000D01*
X79627000Y-112645000D02*
X79627000Y-109195000D01*
X84747000Y-112645000D02*
X84747000Y-114595000D01*
X84747000Y-112645000D02*
X84747000Y-110695000D01*
%TO.C,C32*%
X70446200Y-96466820D02*
X70446200Y-96747980D01*
X69426200Y-96466820D02*
X69426200Y-96747980D01*
%TO.C,C72*%
X68308580Y-159118000D02*
X68027420Y-159118000D01*
X68308580Y-160138000D02*
X68027420Y-160138000D01*
%TO.C,U19*%
X80004000Y-100655000D02*
X78004000Y-100655000D01*
X78004000Y-102895000D02*
X79004000Y-102895000D01*
%TO.C,C31*%
X59127620Y-89497400D02*
X59408780Y-89497400D01*
X59127620Y-88477400D02*
X59408780Y-88477400D01*
%TO.C,U22*%
X65618200Y-83689400D02*
X66418200Y-83689400D01*
X65618200Y-80569400D02*
X64818200Y-80569400D01*
X65618200Y-83689400D02*
X63818200Y-83689400D01*
X65618200Y-80569400D02*
X66418200Y-80569400D01*
%TO.C,R38*%
X56488700Y-110340142D02*
X56488700Y-110814658D01*
X55443700Y-110340142D02*
X55443700Y-110814658D01*
%TO.C,C54*%
X76231580Y-120013000D02*
X75950420Y-120013000D01*
X76231580Y-118993000D02*
X75950420Y-118993000D01*
%TO.C,C35*%
X43547200Y-109314652D02*
X43547200Y-108792148D01*
X45017200Y-109314652D02*
X45017200Y-108792148D01*
%TO.C,U11*%
X58800200Y-95105400D02*
X58800200Y-95805400D01*
X63100200Y-90805400D02*
X63800200Y-90805400D01*
X58800200Y-91505400D02*
X58800200Y-90805400D01*
X59500200Y-95805400D02*
X58800200Y-95805400D01*
X63800200Y-95105400D02*
X63800200Y-95805400D01*
X63100200Y-95805400D02*
X63800200Y-95805400D01*
X63800200Y-91505400D02*
X63800200Y-90805400D01*
%TD*%
M02*
