M48
; DRILL file {KiCad 7.0.1} date Thu Jun 22 14:27:18 2023
; FORMAT={-:-/ absolute / inch / decimal}
; #@! TF.CreationDate,2023-06-22T14:27:18-04:00
; #@! TF.GenerationSoftware,Kicad,Pcbnew,7.0.1
; #@! TF.FileFunction,Plated,1,4,PTH
FMAT,2
INCH
; #@! TA.AperFunction,Plated,PTH,ViaDrill
T1C0.0100
; #@! TA.AperFunction,Plated,PTH,ComponentDrill
T2C0.0360
; #@! TA.AperFunction,Plated,PTH,ComponentDrill
T3C0.0394
; #@! TA.AperFunction,Plated,PTH,ComponentDrill
T4C0.1250
%
G90
G05
T1
X1.78Y-4.308
X1.78Y-5.98
X1.825Y-2.79
X1.84Y-4.31
X1.8901Y-2.61
X1.8902Y-2.76
X1.93Y-3.25
X1.9598Y-2.6095
X1.9675Y-2.7127
X2.0Y-4.26
X2.03Y-2.61
X2.05Y-2.785
X2.105Y-2.84
X2.11Y-2.92
X2.13Y-2.69
X2.165Y-2.8
X2.17Y-2.57
X2.21Y-2.9249
X2.52Y-2.85
X2.58Y-2.84
X2.6Y-3.88
X2.6Y-3.92
X2.6Y-3.96
X2.6Y-4.0
X2.6Y-4.04
X2.6Y-4.08
X2.63Y-3.01
X2.63Y-3.86
X2.63Y-3.9
X2.63Y-3.94
X2.63Y-3.98
X2.63Y-4.02
X2.63Y-4.06
X2.63Y-4.1
X2.66Y-2.98
X2.66Y-3.442
X2.67Y-3.9773
X2.68Y-2.83
X2.69Y-2.94
X2.69Y-4.46
X2.77Y-4.17
X2.773Y-2.88
X2.805Y-2.91
X2.85Y-4.17
X2.87Y-4.2
X2.89Y-4.17
X2.899Y-2.81
X2.899Y-2.8458
X2.9098Y-4.2003
X2.93Y-4.17
X2.95Y-4.2
X3.0Y-3.702
X3.02Y-2.84
X3.07Y-3.71
X3.09Y-3.06
X3.09Y-3.18
X3.135Y-2.96
X3.18Y-3.68
X3.2Y-3.93
X3.23Y-3.08
X3.25Y-3.68
X3.2769Y-2.81
X3.2769Y-2.8478
X3.2769Y-2.89
X3.29Y-3.68
X3.32Y-3.058
X3.3399Y-2.81
X3.3399Y-2.8458
X3.34Y-3.55
X3.34Y-3.71
X3.39Y-3.058
X3.41Y-3.43
X3.41Y-3.702
X3.46Y-3.06
X3.46Y-3.18
X3.47Y-3.702
X3.49Y-3.21
X3.49Y-3.55
X3.5289Y-2.81
X3.5289Y-2.8458
X3.56Y-3.68
X3.57Y-3.08
X3.5919Y-2.81
X3.5919Y-2.8458
X3.6Y-3.68
X3.66Y-3.0797
X3.67Y-3.702
X3.6864Y-2.81
X3.6864Y-2.8458
X3.71Y-3.545
X3.73Y-3.702
X3.7494Y-2.81
X3.7494Y-2.8458
X3.75Y-2.96
X3.84Y-2.87
X3.8753Y-2.83
X3.88Y-3.02
X3.895Y-3.93
X3.9Y-3.07
X3.92Y-4.47
X3.92Y-4.52
X3.93Y-3.15
X3.9383Y-2.93
X3.99Y-3.19
X3.99Y-5.34
X4.0251Y-3.25
X4.04Y-5.19
X4.06Y-3.58
X4.075Y-2.96
X4.08Y-5.1656
X4.0958Y-2.81
X4.0958Y-2.8458
X4.2Y-5.5499
X4.24Y-5.4
X4.24Y-5.44
X4.24Y-5.48
X4.24Y-5.52
X4.24Y-5.56
X4.24Y-5.6
X4.24Y-5.64
X4.27Y-5.42
X4.27Y-5.46
X4.27Y-5.5
X4.27Y-5.54
X4.27Y-5.58
X4.27Y-5.62
X4.3Y-5.74
X4.31Y-4.81
X4.37Y-4.81
X4.41Y-4.16
X4.42Y-6.07
X4.42Y-6.2
X4.44Y-6.04
X4.46Y-3.0956
X4.46Y-3.2856
X4.46Y-5.7
X4.46Y-6.01
X4.46Y-6.07
X4.46Y-6.2
X4.47Y-4.8
X4.48Y-6.04
X4.5Y-3.65
X4.5Y-3.77
X4.5Y-5.53
X4.51Y-6.2
X4.5145Y-2.9345
X4.565Y-3.77
X4.58Y-3.4075
X4.58Y-3.2175
X4.59Y-4.65
X4.65Y-3.498
X4.6544Y-3.23
X4.6544Y-3.42
X4.7056Y-3.08
X4.7056Y-3.275
X4.72Y-3.498
X4.75Y-4.65
X4.76Y-4.47
X4.78Y-3.0956
X4.78Y-3.2856
X4.826Y-3.6716
X4.93Y-6.0
T2
X1.81Y-3.8
X4.91Y-4.91
X4.91Y-5.87
T3
X1.81Y-3.29
X1.81Y-3.46
X1.81Y-3.63
X1.81Y-3.97
X3.2725Y-4.04
X3.4725Y-4.04
X4.03Y-6.33
X4.2Y-6.33
X4.37Y-6.33
X4.54Y-6.33
X4.91Y-4.23
X4.91Y-4.4
X4.91Y-4.57
X4.91Y-4.74
X4.91Y-5.09
X4.91Y-5.53
X4.91Y-5.7
T4
X1.78Y-6.31
X1.93Y-2.935
X4.83Y-2.935
X4.93Y-6.31
T0
M30
