G04 #@! TF.GenerationSoftware,KiCad,Pcbnew,7.0.1*
G04 #@! TF.CreationDate,2023-06-22T14:27:13-04:00*
G04 #@! TF.ProjectId,payload-interface-board,7061796c-6f61-4642-9d69-6e7465726661,B*
G04 #@! TF.SameCoordinates,Original*
G04 #@! TF.FileFunction,Copper,L1,Top*
G04 #@! TF.FilePolarity,Positive*
%FSLAX46Y46*%
G04 Gerber Fmt 4.6, Leading zero omitted, Abs format (unit mm)*
G04 Created by KiCad (PCBNEW 7.0.1) date 2023-06-22 14:27:13*
%MOMM*%
%LPD*%
G01*
G04 APERTURE LIST*
G04 Aperture macros list*
%AMRoundRect*
0 Rectangle with rounded corners*
0 $1 Rounding radius*
0 $2 $3 $4 $5 $6 $7 $8 $9 X,Y pos of 4 corners*
0 Add a 4 corners polygon primitive as box body*
4,1,4,$2,$3,$4,$5,$6,$7,$8,$9,$2,$3,0*
0 Add four circle primitives for the rounded corners*
1,1,$1+$1,$2,$3*
1,1,$1+$1,$4,$5*
1,1,$1+$1,$6,$7*
1,1,$1+$1,$8,$9*
0 Add four rect primitives between the rounded corners*
20,1,$1+$1,$2,$3,$4,$5,0*
20,1,$1+$1,$4,$5,$6,$7,0*
20,1,$1+$1,$6,$7,$8,$9,0*
20,1,$1+$1,$8,$9,$2,$3,0*%
%AMFreePoly0*
4,1,12,0.105238,2.379067,0.194454,2.319454,0.254067,2.230238,0.275000,2.125000,0.275000,-1.400000,-0.275000,-1.400000,-0.275000,2.125000,-0.254067,2.230238,-0.194454,2.319454,-0.105238,2.379067,0.000000,2.400000,0.105238,2.379067,0.105238,2.379067,$1*%
G04 Aperture macros list end*
G04 #@! TA.AperFunction,SMDPad,CuDef*
%ADD10FreePoly0,0.000000*%
G04 #@! TD*
G04 #@! TA.AperFunction,ComponentPad*
%ADD11C,2.000000*%
G04 #@! TD*
G04 #@! TA.AperFunction,SMDPad,CuDef*
%ADD12R,0.400000X0.650000*%
G04 #@! TD*
G04 #@! TA.AperFunction,SMDPad,CuDef*
%ADD13RoundRect,0.135000X-0.185000X0.135000X-0.185000X-0.135000X0.185000X-0.135000X0.185000X0.135000X0*%
G04 #@! TD*
G04 #@! TA.AperFunction,SMDPad,CuDef*
%ADD14RoundRect,0.225000X-0.225000X-0.250000X0.225000X-0.250000X0.225000X0.250000X-0.225000X0.250000X0*%
G04 #@! TD*
G04 #@! TA.AperFunction,ComponentPad*
%ADD15C,1.524000*%
G04 #@! TD*
G04 #@! TA.AperFunction,SMDPad,CuDef*
%ADD16RoundRect,0.317500X-1.587500X-0.317500X1.587500X-0.317500X1.587500X0.317500X-1.587500X0.317500X0*%
G04 #@! TD*
G04 #@! TA.AperFunction,SMDPad,CuDef*
%ADD17RoundRect,0.200000X-0.275000X0.200000X-0.275000X-0.200000X0.275000X-0.200000X0.275000X0.200000X0*%
G04 #@! TD*
G04 #@! TA.AperFunction,SMDPad,CuDef*
%ADD18RoundRect,0.200000X0.275000X-0.200000X0.275000X0.200000X-0.275000X0.200000X-0.275000X-0.200000X0*%
G04 #@! TD*
G04 #@! TA.AperFunction,SMDPad,CuDef*
%ADD19RoundRect,0.200000X-0.200000X-0.275000X0.200000X-0.275000X0.200000X0.275000X-0.200000X0.275000X0*%
G04 #@! TD*
G04 #@! TA.AperFunction,SMDPad,CuDef*
%ADD20RoundRect,0.225000X-0.250000X0.225000X-0.250000X-0.225000X0.250000X-0.225000X0.250000X0.225000X0*%
G04 #@! TD*
G04 #@! TA.AperFunction,SMDPad,CuDef*
%ADD21RoundRect,0.225000X0.250000X-0.225000X0.250000X0.225000X-0.250000X0.225000X-0.250000X-0.225000X0*%
G04 #@! TD*
G04 #@! TA.AperFunction,SMDPad,CuDef*
%ADD22R,0.969500X1.638000*%
G04 #@! TD*
G04 #@! TA.AperFunction,SMDPad,CuDef*
%ADD23R,0.969500X0.340000*%
G04 #@! TD*
G04 #@! TA.AperFunction,SMDPad,CuDef*
%ADD24R,2.455000X2.290000*%
G04 #@! TD*
G04 #@! TA.AperFunction,SMDPad,CuDef*
%ADD25RoundRect,0.200000X0.200000X0.275000X-0.200000X0.275000X-0.200000X-0.275000X0.200000X-0.275000X0*%
G04 #@! TD*
G04 #@! TA.AperFunction,SMDPad,CuDef*
%ADD26R,0.400000X0.500000*%
G04 #@! TD*
G04 #@! TA.AperFunction,SMDPad,CuDef*
%ADD27R,0.300000X0.500000*%
G04 #@! TD*
G04 #@! TA.AperFunction,SMDPad,CuDef*
%ADD28R,0.370000X1.000000*%
G04 #@! TD*
G04 #@! TA.AperFunction,SMDPad,CuDef*
%ADD29R,1.778000X1.016000*%
G04 #@! TD*
G04 #@! TA.AperFunction,SMDPad,CuDef*
%ADD30RoundRect,0.100000X0.100000X-0.637500X0.100000X0.637500X-0.100000X0.637500X-0.100000X-0.637500X0*%
G04 #@! TD*
G04 #@! TA.AperFunction,SMDPad,CuDef*
%ADD31R,0.700000X0.450000*%
G04 #@! TD*
G04 #@! TA.AperFunction,ComponentPad*
%ADD32C,5.080000*%
G04 #@! TD*
G04 #@! TA.AperFunction,SMDPad,CuDef*
%ADD33RoundRect,0.135000X-0.135000X-0.185000X0.135000X-0.185000X0.135000X0.185000X-0.135000X0.185000X0*%
G04 #@! TD*
G04 #@! TA.AperFunction,SMDPad,CuDef*
%ADD34R,0.600000X2.075000*%
G04 #@! TD*
G04 #@! TA.AperFunction,SMDPad,CuDef*
%ADD35R,0.800000X2.325000*%
G04 #@! TD*
G04 #@! TA.AperFunction,SMDPad,CuDef*
%ADD36RoundRect,0.100000X-0.712500X-0.100000X0.712500X-0.100000X0.712500X0.100000X-0.712500X0.100000X0*%
G04 #@! TD*
G04 #@! TA.AperFunction,SMDPad,CuDef*
%ADD37RoundRect,0.250000X0.250000X0.475000X-0.250000X0.475000X-0.250000X-0.475000X0.250000X-0.475000X0*%
G04 #@! TD*
G04 #@! TA.AperFunction,SMDPad,CuDef*
%ADD38RoundRect,0.317500X1.587500X0.317500X-1.587500X0.317500X-1.587500X-0.317500X1.587500X-0.317500X0*%
G04 #@! TD*
G04 #@! TA.AperFunction,SMDPad,CuDef*
%ADD39R,0.650000X0.400000*%
G04 #@! TD*
G04 #@! TA.AperFunction,ViaPad*
%ADD40C,0.609600*%
G04 #@! TD*
G04 #@! TA.AperFunction,Conductor*
%ADD41C,0.254000*%
G04 #@! TD*
G04 #@! TA.AperFunction,Conductor*
%ADD42C,0.250000*%
G04 #@! TD*
G04 #@! TA.AperFunction,Conductor*
%ADD43C,0.508000*%
G04 #@! TD*
G04 #@! TA.AperFunction,Conductor*
%ADD44C,0.203200*%
G04 #@! TD*
G04 #@! TA.AperFunction,Profile*
%ADD45C,0.200000*%
G04 #@! TD*
G04 APERTURE END LIST*
D10*
X60033839Y-68787167D03*
X60833839Y-68787167D03*
X61633839Y-68787167D03*
X62433839Y-68787167D03*
X63233839Y-68787167D03*
X64033839Y-68787167D03*
X64833839Y-68787167D03*
X65633839Y-68787167D03*
X66433839Y-68787167D03*
X67233839Y-68787167D03*
X68033839Y-68787167D03*
X68833839Y-68787167D03*
X69633839Y-68787167D03*
X70433839Y-68787167D03*
X71233839Y-68787167D03*
X72033839Y-68787167D03*
X72833839Y-68787167D03*
X73633839Y-68787167D03*
X74433839Y-68787167D03*
X75233839Y-68787167D03*
X76033839Y-68787167D03*
X76833839Y-68787167D03*
X77633839Y-68787167D03*
X78433839Y-68787167D03*
X79233839Y-68787167D03*
X80033839Y-68787167D03*
X80833839Y-68787167D03*
X81633839Y-68787167D03*
X82433839Y-68787167D03*
X83233839Y-68787167D03*
X84033839Y-68787167D03*
X84833839Y-68787167D03*
X88833839Y-68787167D03*
X89633839Y-68787167D03*
X90433839Y-68787167D03*
X91233839Y-68787167D03*
X92033839Y-68787167D03*
X92833839Y-68787167D03*
X93633839Y-68787167D03*
X94433839Y-68787167D03*
X95233839Y-68787167D03*
X96033839Y-68787167D03*
X96833839Y-68787167D03*
X97633839Y-68787167D03*
X98433839Y-68787167D03*
X99233839Y-68787167D03*
X100033839Y-68787167D03*
X100833839Y-68787167D03*
X101633839Y-68787167D03*
X102433839Y-68787167D03*
X103233839Y-68787167D03*
X104033839Y-68787167D03*
X104833839Y-68787167D03*
X105633839Y-68787167D03*
X106433839Y-68787167D03*
X107233839Y-68787167D03*
X108033839Y-68787167D03*
X108833839Y-68787167D03*
X109633839Y-68787167D03*
X110433839Y-68787167D03*
D11*
X124714000Y-144780000D03*
D12*
X69454000Y-86802000D03*
X70104000Y-86802000D03*
X70754000Y-86802000D03*
X70754000Y-84902000D03*
X70104000Y-84902000D03*
X69454000Y-84902000D03*
D13*
X54864000Y-69467000D03*
X54864000Y-70487000D03*
D11*
X45974000Y-83566000D03*
D13*
X48641000Y-69086000D03*
X48641000Y-70106000D03*
D14*
X48501000Y-108204000D03*
X50051000Y-108204000D03*
D11*
X45974000Y-92202000D03*
D15*
X124714000Y-124714000D03*
D16*
X123266200Y-124714000D03*
D17*
X88138000Y-91631000D03*
X88138000Y-93281000D03*
D18*
X101346000Y-131381000D03*
X101346000Y-129731000D03*
D19*
X105601000Y-105664000D03*
X107251000Y-105664000D03*
D11*
X124714000Y-120396000D03*
D17*
X76200000Y-91631000D03*
X76200000Y-93281000D03*
D18*
X114808001Y-85852000D03*
X114808001Y-84202000D03*
D17*
X119888000Y-89599000D03*
X119888000Y-91249000D03*
D11*
X110998000Y-160782000D03*
D12*
X114188000Y-122748000D03*
X113538000Y-122748000D03*
X112888000Y-122748000D03*
X112888000Y-124648000D03*
X114188000Y-124648000D03*
D11*
X83121000Y-102616000D03*
D18*
X105155999Y-85852000D03*
X105155999Y-84202000D03*
D20*
X125222000Y-153530000D03*
X125222000Y-155080000D03*
D21*
X46736000Y-111773000D03*
X46736000Y-110223000D03*
D17*
X106680000Y-84202000D03*
X106680000Y-85852000D03*
D12*
X118222000Y-85976999D03*
X118872000Y-85976999D03*
X119522000Y-85976999D03*
X119522000Y-84076999D03*
X118872000Y-84076999D03*
X118222000Y-84076999D03*
D20*
X116331999Y-84252000D03*
X116331999Y-85802000D03*
D17*
X66802000Y-106871000D03*
X66802000Y-108521000D03*
X118110000Y-89599000D03*
X118110000Y-91249000D03*
D19*
X69279000Y-81280000D03*
X70929000Y-81280000D03*
D11*
X88201000Y-102616000D03*
D18*
X105156000Y-81026001D03*
X105156000Y-79376001D03*
D21*
X110998000Y-124473000D03*
X110998000Y-122923000D03*
D22*
X106056250Y-138560000D03*
D23*
X106056250Y-137259000D03*
D24*
X103704500Y-138234000D03*
D25*
X70929000Y-83058000D03*
X69279000Y-83058000D03*
D26*
X82792000Y-79256000D03*
D27*
X82292000Y-79256000D03*
X81792000Y-79256000D03*
D26*
X81292000Y-79256000D03*
X81292000Y-80256000D03*
D27*
X81792000Y-80256000D03*
X82292000Y-80256000D03*
D26*
X82792000Y-80256000D03*
D22*
X106067250Y-142624000D03*
D23*
X106067250Y-141323000D03*
D24*
X103715500Y-142298000D03*
D17*
X113283999Y-79376000D03*
X113283999Y-81026000D03*
D28*
X48727000Y-65405000D03*
X50587000Y-65405000D03*
D20*
X65024000Y-106921000D03*
X65024000Y-108471000D03*
D11*
X124714000Y-116078000D03*
D29*
X119507000Y-114808000D03*
X119507000Y-113538000D03*
X119507000Y-112268000D03*
X119507000Y-110998000D03*
X119507000Y-109728000D03*
X100965000Y-109728000D03*
X100965000Y-110998000D03*
X100965000Y-112268000D03*
X100965000Y-113538000D03*
X100965000Y-114808000D03*
D11*
X45974000Y-100838000D03*
D12*
X118222000Y-81151000D03*
X118872000Y-81151000D03*
X119522000Y-81151000D03*
X119522000Y-79251000D03*
X118872000Y-79251000D03*
X118222000Y-79251000D03*
D11*
X115316000Y-160782000D03*
D17*
X106680000Y-79376000D03*
X106680000Y-81026000D03*
D30*
X78609000Y-88714500D03*
X79259000Y-88714500D03*
X79909000Y-88714500D03*
X80559000Y-88714500D03*
X81209000Y-88714500D03*
X81859000Y-88714500D03*
X82509000Y-88714500D03*
X83159000Y-88714500D03*
X83809000Y-88714500D03*
X84459000Y-88714500D03*
X84459000Y-82989500D03*
X83809000Y-82989500D03*
X83159000Y-82989500D03*
X82509000Y-82989500D03*
X81859000Y-82989500D03*
X81209000Y-82989500D03*
X80559000Y-82989500D03*
X79909000Y-82989500D03*
X79259000Y-82989500D03*
X78609000Y-82989500D03*
D25*
X84645000Y-99060000D03*
X82995000Y-99060000D03*
D11*
X102362000Y-160782000D03*
D17*
X45212000Y-110173000D03*
X45212000Y-111823000D03*
D31*
X68342000Y-110856000D03*
X68342000Y-112156000D03*
X70342000Y-111506000D03*
D32*
X49022000Y-74549000D03*
D21*
X105410000Y-134887000D03*
X105410000Y-133337000D03*
D14*
X112763000Y-120904000D03*
X114313000Y-120904000D03*
D21*
X87884000Y-80023000D03*
X87884000Y-78473000D03*
D32*
X125222000Y-160274000D03*
D11*
X45974000Y-87884000D03*
D33*
X49147000Y-67056000D03*
X50167000Y-67056000D03*
D34*
X104720000Y-155828500D03*
X105720000Y-155828500D03*
X106720000Y-155828500D03*
X107720000Y-155828500D03*
X108720000Y-155828500D03*
X109720000Y-155828500D03*
X110720000Y-155828500D03*
X111720000Y-155828500D03*
X112720000Y-155828500D03*
X113720000Y-155828500D03*
D35*
X103420000Y-152728500D03*
X115020000Y-152728500D03*
D31*
X104410000Y-129906000D03*
X104410000Y-131206000D03*
X106410000Y-130556000D03*
D17*
X111760001Y-84202000D03*
X111760001Y-85852000D03*
D36*
X117013500Y-93259000D03*
X117013500Y-93909000D03*
X117013500Y-94559000D03*
X117013500Y-95209000D03*
X121238500Y-95209000D03*
X121238500Y-94559000D03*
X121238500Y-93909000D03*
X121238500Y-93259000D03*
D15*
X124714000Y-149098000D03*
D16*
X123266200Y-149098000D03*
D20*
X45212000Y-152895000D03*
X45212000Y-154445000D03*
X114300000Y-93459000D03*
X114300000Y-95009000D03*
D25*
X70929000Y-88646000D03*
X69279000Y-88646000D03*
D18*
X103378000Y-134937000D03*
X103378000Y-133287000D03*
D19*
X109411000Y-105664000D03*
X111061000Y-105664000D03*
D17*
X77978000Y-91631000D03*
X77978000Y-93281000D03*
D11*
X124714000Y-111760000D03*
D17*
X111760001Y-79375999D03*
X111760001Y-81025999D03*
D34*
X84002000Y-108044500D03*
X83002000Y-108044500D03*
X82002000Y-108044500D03*
X81002000Y-108044500D03*
X80002000Y-108044500D03*
X79002000Y-108044500D03*
X78002000Y-108044500D03*
X77002000Y-108044500D03*
X76002000Y-108044500D03*
X75002000Y-108044500D03*
D35*
X85302000Y-111144500D03*
X73702000Y-111144500D03*
D26*
X82308000Y-92448000D03*
D27*
X82808000Y-92448000D03*
X83308000Y-92448000D03*
D26*
X83808000Y-92448000D03*
X83808000Y-91448000D03*
D27*
X83308000Y-91448000D03*
X82808000Y-91448000D03*
D26*
X82308000Y-91448000D03*
X91682000Y-91448000D03*
D27*
X91182000Y-91448000D03*
X90682000Y-91448000D03*
D26*
X90182000Y-91448000D03*
X90182000Y-92448000D03*
D27*
X90682000Y-92448000D03*
X91182000Y-92448000D03*
D26*
X91682000Y-92448000D03*
D11*
X124714000Y-107442000D03*
D19*
X86551000Y-97028000D03*
X88201000Y-97028000D03*
D17*
X70358000Y-106871000D03*
X70358000Y-108521000D03*
D32*
X45212000Y-160274000D03*
D17*
X84328000Y-78423000D03*
X84328000Y-80073000D03*
D12*
X49926000Y-110048000D03*
X49276000Y-110048000D03*
X48626000Y-110048000D03*
X48626000Y-111948000D03*
X49926000Y-111948000D03*
D17*
X86614000Y-91631000D03*
X86614000Y-93281000D03*
D12*
X108569999Y-81151000D03*
X109219999Y-81151000D03*
X109869999Y-81151000D03*
X109869999Y-79251000D03*
X109219999Y-79251000D03*
X108569999Y-79251000D03*
D11*
X124714000Y-140462000D03*
X106680000Y-160782000D03*
D25*
X84645000Y-97028000D03*
X82995000Y-97028000D03*
D37*
X119568000Y-118110000D03*
X117668000Y-118110000D03*
D17*
X68580000Y-106871000D03*
X68580000Y-108521000D03*
X86106000Y-78423000D03*
X86106000Y-80073000D03*
D26*
X92214000Y-80248000D03*
D27*
X92714000Y-80248000D03*
X93214000Y-80248000D03*
D26*
X93714000Y-80248000D03*
X93714000Y-79248000D03*
D27*
X93214000Y-79248000D03*
X92714000Y-79248000D03*
D26*
X92214000Y-79248000D03*
D17*
X93218000Y-91631000D03*
X93218000Y-93281000D03*
D19*
X117793000Y-106680000D03*
X119443000Y-106680000D03*
D18*
X67564000Y-86677000D03*
X67564000Y-85027000D03*
D20*
X116332000Y-79426000D03*
X116332000Y-80976000D03*
D18*
X66548000Y-112331000D03*
X66548000Y-110681000D03*
D22*
X68495750Y-103306001D03*
D23*
X68495750Y-104607001D03*
D24*
X70847500Y-103632001D03*
D26*
X79514000Y-92448000D03*
D27*
X80014000Y-92448000D03*
X80514000Y-92448000D03*
D26*
X81014000Y-92448000D03*
X81014000Y-91448000D03*
D27*
X80514000Y-91448000D03*
X80014000Y-91448000D03*
D26*
X79514000Y-91448000D03*
D17*
X109474000Y-122873000D03*
X109474000Y-124523000D03*
D22*
X68484749Y-99242000D03*
D23*
X68484749Y-100543000D03*
D24*
X70836499Y-99568000D03*
D18*
X101346000Y-134937000D03*
X101346000Y-133287000D03*
D14*
X115671000Y-74536000D03*
X117221000Y-74536000D03*
D17*
X121412000Y-79376000D03*
X121412000Y-81026000D03*
X94742000Y-91631000D03*
X94742000Y-93281000D03*
D18*
X114808000Y-81026000D03*
X114808000Y-79376000D03*
D30*
X88007000Y-88714500D03*
X88657000Y-88714500D03*
X89307000Y-88714500D03*
X89957000Y-88714500D03*
X90607000Y-88714500D03*
X91257000Y-88714500D03*
X91907000Y-88714500D03*
X92557000Y-88714500D03*
X93207000Y-88714500D03*
X93857000Y-88714500D03*
X93857000Y-82989500D03*
X93207000Y-82989500D03*
X92557000Y-82989500D03*
X91907000Y-82989500D03*
X91257000Y-82989500D03*
X90607000Y-82989500D03*
X89957000Y-82989500D03*
X89307000Y-82989500D03*
X88657000Y-82989500D03*
X88007000Y-82989500D03*
D18*
X107442000Y-134937000D03*
X107442000Y-133287000D03*
D19*
X101791000Y-105664000D03*
X103441000Y-105664000D03*
D15*
X45974000Y-96520000D03*
D38*
X47421800Y-96520000D03*
D17*
X121412000Y-84202000D03*
X121412000Y-85852000D03*
X113284000Y-84202000D03*
X113284000Y-85852000D03*
D39*
X50876000Y-68946000D03*
X50876000Y-69596000D03*
X50876000Y-70246000D03*
X52776000Y-70246000D03*
X52776000Y-69596000D03*
X52776000Y-68946000D03*
D11*
X124714000Y-129286000D03*
D26*
X89420000Y-80256000D03*
D27*
X89920000Y-80256000D03*
X90420000Y-80256000D03*
D26*
X90920000Y-80256000D03*
X90920000Y-79256000D03*
D27*
X90420000Y-79256000D03*
X89920000Y-79256000D03*
D26*
X89420000Y-79256000D03*
D32*
X122682000Y-74549000D03*
D12*
X108570000Y-85977000D03*
X109220000Y-85977000D03*
X109870000Y-85977000D03*
X109870000Y-84077000D03*
X109220000Y-84077000D03*
X108570000Y-84077000D03*
D21*
X49022000Y-81547000D03*
X49022000Y-79997000D03*
X78486000Y-80023000D03*
X78486000Y-78473000D03*
D19*
X86551000Y-99060000D03*
X88201000Y-99060000D03*
D40*
X54991000Y-71120000D03*
X64008000Y-72390000D03*
X48011492Y-70104000D03*
X113284000Y-152654000D03*
X104033820Y-71374000D03*
X80772000Y-93472000D03*
X93218000Y-94030000D03*
X87884000Y-77724000D03*
X67564000Y-87426000D03*
X72390000Y-105918000D03*
X74930000Y-106680000D03*
X73633839Y-72283834D03*
X82042000Y-78232000D03*
X112014000Y-105664000D03*
X90678000Y-78232000D03*
X50800000Y-108204000D03*
X49022000Y-82550000D03*
X99568000Y-114808000D03*
X125222000Y-152400000D03*
X119522000Y-83185999D03*
X78486000Y-77724000D03*
X113284000Y-157480000D03*
X112776000Y-153416000D03*
X92964000Y-78224000D03*
X116331999Y-86551000D03*
X114668000Y-74536000D03*
X74422000Y-105918000D03*
X95233839Y-72283834D03*
X91440000Y-93472000D03*
X68326000Y-113284000D03*
X54102000Y-68326000D03*
X88138000Y-94030000D03*
X120904000Y-113538000D03*
X49974721Y-68903212D03*
X84328000Y-77674000D03*
X46736000Y-109474000D03*
X104033820Y-72283820D03*
X118222000Y-82042000D03*
X99568000Y-113538000D03*
X90424000Y-93472000D03*
X113538000Y-121920000D03*
X73908517Y-106687743D03*
X114554000Y-157480000D03*
X89633839Y-72283834D03*
X95233839Y-71374014D03*
X94234000Y-90043500D03*
X72898000Y-106680000D03*
X82550000Y-93472000D03*
X115950500Y-95758000D03*
X86106000Y-77674000D03*
X83566000Y-93472000D03*
X84836000Y-90170000D03*
X91233839Y-72283834D03*
X116586000Y-118110000D03*
X73406000Y-105918000D03*
X73633839Y-71374014D03*
X114300000Y-95758000D03*
X113284000Y-154178000D03*
X119522000Y-78232000D03*
X118222000Y-86867999D03*
X112268000Y-157480000D03*
X110998000Y-122174000D03*
X113792000Y-153416000D03*
X112268000Y-154178000D03*
X89633839Y-71374014D03*
X52070000Y-70739000D03*
X91233839Y-71374014D03*
X116332000Y-81725000D03*
X103632000Y-131206000D03*
X86614000Y-94030000D03*
X94742000Y-94030000D03*
X45212000Y-151892000D03*
X76200000Y-94030000D03*
X66040000Y-100584000D03*
X66040000Y-103632000D03*
X66040000Y-98552000D03*
X66040000Y-102616000D03*
X66040000Y-101600000D03*
X83233820Y-71374000D03*
X66802000Y-98044000D03*
X66802000Y-99060000D03*
X83233820Y-72333820D03*
X66802000Y-102108000D03*
X66802000Y-104140000D03*
X83233820Y-73406000D03*
X66802000Y-101092000D03*
X66040000Y-99568000D03*
X66802000Y-103124000D03*
X66802000Y-100076000D03*
X98433839Y-71882000D03*
X100033839Y-74422000D03*
X98552000Y-76708000D03*
X70433839Y-73152000D03*
X81280000Y-99822000D03*
X98932500Y-99822000D03*
X103124000Y-90932000D03*
X88646000Y-90170000D03*
X68326000Y-74676000D03*
X99822000Y-80010000D03*
X101346000Y-81026000D03*
X67564000Y-75692000D03*
X65532000Y-72136000D03*
X102616000Y-131826000D03*
X99060000Y-77978000D03*
X114300000Y-140462000D03*
X107696000Y-139192000D03*
X108458000Y-138684000D03*
X107696000Y-140208000D03*
X93633839Y-71374014D03*
X107696000Y-141224000D03*
X108458000Y-140716000D03*
X107696000Y-143256000D03*
X108458000Y-142748000D03*
X93633839Y-72283834D03*
X107696000Y-142240000D03*
X107696000Y-137160000D03*
X107696000Y-138176000D03*
X108458000Y-139700000D03*
X108458000Y-137668000D03*
X108458000Y-141732000D03*
X76708000Y-72136000D03*
X97536000Y-72898000D03*
X84836000Y-94234000D03*
X53594000Y-74168000D03*
X118110000Y-88850000D03*
X121412000Y-83453000D03*
X120650000Y-118110000D03*
X113284000Y-83453000D03*
X48008000Y-66294000D03*
X78486000Y-80772000D03*
X121412000Y-78627000D03*
X84833820Y-71374000D03*
X122580900Y-93259000D03*
X113283999Y-78627000D03*
X87884000Y-80772000D03*
X84833820Y-72283820D03*
X109474000Y-122174000D03*
X77978000Y-94234000D03*
X119888000Y-88850000D03*
X114300000Y-92710000D03*
X45212000Y-109424000D03*
X49778290Y-66280714D03*
X46355000Y-70866000D03*
X56134000Y-74292500D03*
X102237500Y-82550000D03*
X113284000Y-144780000D03*
X109220000Y-145796000D03*
X66802000Y-76454000D03*
X67818000Y-101023874D03*
X70358000Y-105918000D03*
X106680000Y-140967023D03*
X101346000Y-135636000D03*
X86614000Y-87122000D03*
X88646000Y-81534000D03*
X55118000Y-65278000D03*
X95250000Y-75184000D03*
X53467000Y-72136000D03*
X103505000Y-75184000D03*
X79629000Y-75184000D03*
X68072000Y-71882000D03*
X71247000Y-73914000D03*
X51562000Y-66294000D03*
D41*
X108720000Y-152900000D02*
X108720000Y-155828500D01*
X110490000Y-151130000D02*
X108720000Y-152900000D01*
X110490000Y-131826000D02*
X110490000Y-151130000D01*
X98932500Y-99822000D02*
X98933000Y-99822500D01*
X98933000Y-120269000D02*
X110490000Y-131826000D01*
X98933000Y-99822500D02*
X98933000Y-120269000D01*
X99885000Y-131381000D02*
X101346000Y-131381000D01*
X97790000Y-129286000D02*
X99885000Y-131381000D01*
X97790000Y-95758000D02*
X97790000Y-129286000D01*
X99060000Y-94488000D02*
X97790000Y-95758000D01*
X99060000Y-77978000D02*
X99060000Y-94488000D01*
X98298000Y-120550300D02*
X98298000Y-96520000D01*
X109982000Y-132234300D02*
X98298000Y-120550300D01*
X98298000Y-96520000D02*
X99822000Y-94996000D01*
X99822000Y-94996000D02*
X99822000Y-80010000D01*
X109982000Y-150622000D02*
X109982000Y-132234300D01*
X107720000Y-155828500D02*
X107720000Y-152884000D01*
X107720000Y-152884000D02*
X109982000Y-150622000D01*
X109720000Y-153170000D02*
X109720000Y-155828500D01*
X111252000Y-151638000D02*
X109720000Y-153170000D01*
X106362500Y-126682500D02*
X111252000Y-131572000D01*
X111252000Y-131572000D02*
X111252000Y-151638000D01*
X110617000Y-114681000D02*
X106362500Y-118935500D01*
X112649000Y-100457000D02*
X112649000Y-108077000D01*
X112649000Y-108077000D02*
X110617000Y-110109000D01*
X110617000Y-110109000D02*
X110617000Y-114681000D01*
X106362500Y-118935500D02*
X106362500Y-126682500D01*
X103124000Y-90932000D02*
X112649000Y-100457000D01*
X101346000Y-88011000D02*
X101346000Y-81026000D01*
X113284000Y-99949000D02*
X101346000Y-88011000D01*
X113284000Y-108331000D02*
X113284000Y-99949000D01*
X111252000Y-115316000D02*
X111252000Y-110363000D01*
X111252000Y-110363000D02*
X113284000Y-108331000D01*
X107121539Y-119446461D02*
X111252000Y-115316000D01*
X112014000Y-152146000D02*
X112014000Y-131196922D01*
X110720000Y-153440000D02*
X112014000Y-152146000D01*
X112014000Y-131196922D02*
X107121539Y-126304461D01*
X110720000Y-155828500D02*
X110720000Y-153440000D01*
X107121539Y-126304461D02*
X107121539Y-119446461D01*
X102237500Y-87376000D02*
X102237500Y-82550000D01*
X113842800Y-98981300D02*
X102237500Y-87376000D01*
X113842800Y-108534200D02*
X113842800Y-98981300D01*
X112141000Y-110236000D02*
X113842800Y-108534200D01*
X112141000Y-116205000D02*
X112141000Y-110236000D01*
X108140500Y-126174500D02*
X108140500Y-120205500D01*
X113284000Y-131318000D02*
X108140500Y-126174500D01*
X108140500Y-120205500D02*
X112141000Y-116205000D01*
X113284000Y-144780000D02*
X113284000Y-131318000D01*
X99568000Y-76708000D02*
X98552000Y-76708000D01*
X103124000Y-80264000D02*
X99568000Y-76708000D01*
X103124000Y-86995000D02*
X103124000Y-80264000D01*
X114300000Y-108723578D02*
X114300000Y-98171000D01*
X112763000Y-110260578D02*
X114300000Y-108723578D01*
X112763000Y-120904000D02*
X112763000Y-110260578D01*
X114300000Y-98171000D02*
X103124000Y-86995000D01*
D42*
X48013492Y-70106000D02*
X48641000Y-70106000D01*
X54991000Y-71120000D02*
X54991000Y-72771000D01*
X48011492Y-70104000D02*
X48013492Y-70106000D01*
X54864000Y-70487000D02*
X54864000Y-70993000D01*
X54991000Y-72771000D02*
X55880000Y-73660000D01*
X55880000Y-73660000D02*
X62738000Y-73660000D01*
X54864000Y-70993000D02*
X54991000Y-71120000D01*
X62738000Y-73660000D02*
X64008000Y-72390000D01*
X112522000Y-125476000D02*
X112001000Y-125476000D01*
X112888000Y-125110000D02*
X112522000Y-125476000D01*
X112888000Y-124648000D02*
X112888000Y-125110000D01*
X112001000Y-125476000D02*
X110998000Y-124473000D01*
X110998000Y-124473000D02*
X109524000Y-124473000D01*
D41*
X48626000Y-111948000D02*
X46911000Y-111948000D01*
X46736000Y-111773000D02*
X45262000Y-111773000D01*
X82792000Y-79256000D02*
X82792000Y-78474000D01*
X75002000Y-108044500D02*
X75002000Y-106752000D01*
X81292000Y-78474000D02*
X81292000Y-79256000D01*
X82292000Y-79256000D02*
X82292000Y-78482000D01*
X92964000Y-78224000D02*
X92714000Y-78474000D01*
X81792000Y-78482000D02*
X81792000Y-79256000D01*
X82042000Y-78232000D02*
X81792000Y-78482000D01*
X100965000Y-114808000D02*
X99568000Y-114808000D01*
D42*
X50876000Y-68946000D02*
X50017509Y-68946000D01*
D43*
X73633839Y-68787167D02*
X73633839Y-71374014D01*
D41*
X82792000Y-78474000D02*
X82550000Y-78232000D01*
D44*
X118222000Y-82042000D02*
X118222000Y-81151000D01*
D41*
X47511000Y-110998000D02*
X48861400Y-110998000D01*
X82550000Y-78232000D02*
X82042000Y-78232000D01*
X91682000Y-93230000D02*
X91440000Y-93472000D01*
D43*
X89633839Y-68787167D02*
X89633839Y-71374014D01*
X125222000Y-153530000D02*
X125222000Y-152400000D01*
X91233839Y-68787167D02*
X91233839Y-71374014D01*
X86106000Y-78423000D02*
X86106000Y-77674000D01*
D42*
X52070000Y-70739000D02*
X52283000Y-70739000D01*
D43*
X50051000Y-108204000D02*
X50800000Y-108204000D01*
D41*
X91182000Y-92448000D02*
X91182000Y-93214000D01*
D42*
X82308000Y-93230000D02*
X82550000Y-93472000D01*
D43*
X84328000Y-78423000D02*
X84328000Y-77674000D01*
D44*
X119522000Y-83185999D02*
X119522000Y-84076999D01*
D41*
X92964000Y-78224000D02*
X92456000Y-78224000D01*
D42*
X68342000Y-113268000D02*
X68326000Y-113284000D01*
D41*
X93214000Y-78474000D02*
X92964000Y-78224000D01*
D43*
X73633839Y-71374014D02*
X73633839Y-72283834D01*
D42*
X83308000Y-92448000D02*
X83308000Y-93214000D01*
D41*
X82042000Y-78232000D02*
X81534000Y-78232000D01*
D42*
X81014000Y-93230000D02*
X80772000Y-93472000D01*
D41*
X46736000Y-110223000D02*
X47511000Y-110998000D01*
X93214000Y-79248000D02*
X93214000Y-78474000D01*
D42*
X81014000Y-92448000D02*
X81014000Y-93230000D01*
D41*
X84459000Y-89793000D02*
X84836000Y-90170000D01*
X69454000Y-86802000D02*
X67689000Y-86802000D01*
X115950500Y-95758000D02*
X115950500Y-95631500D01*
D43*
X119507000Y-113538000D02*
X120904000Y-113538000D01*
D41*
X90182000Y-92448000D02*
X90182000Y-93230000D01*
D42*
X50017509Y-68946000D02*
X49974721Y-68903212D01*
X110998000Y-122923000D02*
X110998000Y-122174000D01*
D41*
X92714000Y-78474000D02*
X92714000Y-79248000D01*
D42*
X82808000Y-93214000D02*
X82550000Y-93472000D01*
X80514000Y-93214000D02*
X80772000Y-93472000D01*
X83808000Y-93230000D02*
X83566000Y-93472000D01*
X83308000Y-93214000D02*
X83566000Y-93472000D01*
D41*
X90920000Y-78474000D02*
X90920000Y-79256000D01*
X90420000Y-78490000D02*
X90420000Y-79256000D01*
D43*
X95233839Y-68787167D02*
X95233839Y-71374014D01*
D42*
X113538000Y-122748000D02*
X113538000Y-121920000D01*
D41*
X49276000Y-110583400D02*
X49276000Y-110048000D01*
D43*
X94742000Y-93281000D02*
X94742000Y-94030000D01*
D41*
X91182000Y-93214000D02*
X91440000Y-93472000D01*
X48861400Y-110998000D02*
X49276000Y-110583400D01*
X91682000Y-92448000D02*
X91682000Y-93230000D01*
D43*
X78486000Y-78473000D02*
X78486000Y-77724000D01*
X45212000Y-152895000D02*
X45212000Y-151892000D01*
D42*
X82808000Y-92448000D02*
X82808000Y-93214000D01*
X114313000Y-121145000D02*
X113538000Y-121920000D01*
D41*
X75002000Y-106752000D02*
X74930000Y-106680000D01*
X90678000Y-78232000D02*
X90920000Y-78474000D01*
D43*
X86614000Y-93281000D02*
X86614000Y-94030000D01*
D42*
X111061000Y-105664000D02*
X112014000Y-105664000D01*
D43*
X114300000Y-95009000D02*
X114300000Y-95758000D01*
D41*
X90182000Y-93230000D02*
X90424000Y-93472000D01*
D43*
X88138000Y-93281000D02*
X88138000Y-94030000D01*
D42*
X80514000Y-92448000D02*
X80514000Y-93214000D01*
D41*
X49276000Y-110048001D02*
X49276000Y-108978999D01*
D43*
X93218000Y-93281000D02*
X93218000Y-94030000D01*
D41*
X115950500Y-95631500D02*
X116373000Y-95209000D01*
X81534000Y-78232000D02*
X81292000Y-78474000D01*
X90682000Y-92448000D02*
X90682000Y-93214000D01*
X90678000Y-78232000D02*
X90420000Y-78490000D01*
X93714000Y-78466000D02*
X93472000Y-78224000D01*
X93472000Y-78224000D02*
X92964000Y-78224000D01*
D43*
X49022000Y-81547000D02*
X49022000Y-82550000D01*
D41*
X93857000Y-89666500D02*
X93857000Y-88714500D01*
X82292000Y-78482000D02*
X82042000Y-78232000D01*
X84459000Y-88714500D02*
X84459000Y-89793000D01*
X92456000Y-78224000D02*
X92214000Y-78466000D01*
D42*
X82308000Y-92448000D02*
X82308000Y-93230000D01*
D43*
X104033820Y-68787153D02*
X104033820Y-71374000D01*
D44*
X118222000Y-86867999D02*
X118222000Y-85976999D01*
D43*
X67564000Y-86677000D02*
X67564000Y-87426000D01*
D41*
X92214000Y-78466000D02*
X92214000Y-79248000D01*
D42*
X68342000Y-112156000D02*
X68342000Y-113268000D01*
D43*
X76200000Y-93281000D02*
X76200000Y-94030000D01*
D42*
X103632000Y-131206000D02*
X104410000Y-131206000D01*
D43*
X46736000Y-110223000D02*
X46736000Y-109474000D01*
D41*
X93714000Y-79248000D02*
X93714000Y-78466000D01*
D44*
X119522000Y-78232000D02*
X119522000Y-79251000D01*
D41*
X49276000Y-108978999D02*
X50051000Y-108204000D01*
D42*
X83808000Y-92448000D02*
X83808000Y-93230000D01*
D41*
X90682000Y-93214000D02*
X90424000Y-93472000D01*
D43*
X87884000Y-78473000D02*
X87884000Y-77724000D01*
D41*
X100965000Y-113538000D02*
X99568000Y-113538000D01*
D43*
X116331999Y-85802000D02*
X116331999Y-86551000D01*
D41*
X94234000Y-90043500D02*
X93857000Y-89666500D01*
D43*
X117668000Y-118110000D02*
X116586000Y-118110000D01*
X116332000Y-80976000D02*
X116332000Y-81725000D01*
D42*
X52283000Y-70739000D02*
X52776000Y-70246000D01*
D43*
X115671000Y-74536000D02*
X114668000Y-74536000D01*
X83233820Y-68787153D02*
X83233820Y-72333820D01*
X83233820Y-73406000D02*
X83233820Y-72333820D01*
D41*
X66802000Y-106871000D02*
X66802000Y-104902000D01*
D43*
X83233820Y-68787153D02*
X83233820Y-71374000D01*
D42*
X65024000Y-106921000D02*
X66752000Y-106921000D01*
D44*
X108569999Y-79251000D02*
X108569999Y-78628001D01*
X108569999Y-78628001D02*
X108712000Y-78486000D01*
X107525199Y-80295800D02*
X108569999Y-79251000D01*
X106075799Y-80295800D02*
X107525199Y-80295800D01*
X105156000Y-79376001D02*
X106075799Y-80295800D01*
X109640399Y-78486000D02*
X109869999Y-78715600D01*
X108712000Y-78486000D02*
X109640399Y-78486000D01*
X109869999Y-78715600D02*
X109869999Y-79251000D01*
D41*
X105156000Y-78604161D02*
X105156000Y-79376001D01*
X98433839Y-71882000D02*
X105156000Y-78604161D01*
X103632000Y-78020161D02*
X103632000Y-82678001D01*
X100033839Y-74422000D02*
X103632000Y-78020161D01*
D44*
X109768400Y-83447200D02*
X108712000Y-83447200D01*
X105860799Y-84906800D02*
X107740200Y-84906800D01*
X108712000Y-83447200D02*
X108570000Y-83589200D01*
X108570000Y-83589200D02*
X108570000Y-84077000D01*
D41*
X103632000Y-82678001D02*
X105155999Y-84202000D01*
D44*
X109870000Y-84077000D02*
X109870000Y-83548800D01*
X107740200Y-84906800D02*
X108570000Y-84077000D01*
X105155999Y-84202000D02*
X105860799Y-84906800D01*
X109870000Y-83548800D02*
X109768400Y-83447200D01*
D41*
X112888000Y-122748000D02*
X112888000Y-121029000D01*
X112888000Y-123279400D02*
X112888000Y-122748000D01*
X113306600Y-123698000D02*
X112888000Y-123279400D01*
X115824000Y-123698000D02*
X113306600Y-123698000D01*
X121412000Y-129286000D02*
X115824000Y-123698000D01*
X124714000Y-129286000D02*
X121412000Y-129286000D01*
X46228000Y-105931000D02*
X46228000Y-102870000D01*
X48626000Y-110048000D02*
X48626001Y-108329000D01*
X70433839Y-73152000D02*
X70433839Y-68787167D01*
X48501000Y-108204000D02*
X46228000Y-105931000D01*
X46228000Y-102870000D02*
X46228000Y-101092000D01*
D43*
X49022000Y-79997000D02*
X49022000Y-74549000D01*
D41*
X81280000Y-99822000D02*
X81280000Y-96520000D01*
D42*
X108720000Y-158742000D02*
X106680000Y-160782000D01*
X108720000Y-155828500D02*
X108720000Y-158742000D01*
D41*
X81280000Y-96520000D02*
X79514000Y-94754000D01*
X79514000Y-94754000D02*
X79514000Y-92448000D01*
X88646000Y-90170000D02*
X88646000Y-88725500D01*
D42*
X109720000Y-155828500D02*
X109720000Y-158742000D01*
X109720000Y-158742000D02*
X110998000Y-160020000D01*
X102362000Y-160782000D02*
X104648000Y-158496000D01*
X66433839Y-72783839D02*
X68326000Y-74676000D01*
X107720000Y-157710000D02*
X107720000Y-155828500D01*
X66433839Y-68787167D02*
X66433839Y-72783839D01*
X106934000Y-158496000D02*
X107720000Y-157710000D01*
X104648000Y-158496000D02*
X106934000Y-158496000D01*
X113792000Y-160782000D02*
X110720000Y-157710000D01*
X115316000Y-160782000D02*
X113792000Y-160782000D01*
D41*
X65532000Y-72136000D02*
X65532000Y-73660000D01*
X65532000Y-73660000D02*
X67564000Y-75692000D01*
D42*
X110720000Y-157710000D02*
X110720000Y-155828500D01*
D41*
X45974000Y-92202000D02*
X49022000Y-92202000D01*
X64833000Y-112331000D02*
X66294000Y-112331000D01*
X49022000Y-92202000D02*
X63246000Y-106426000D01*
X66548000Y-113284000D02*
X66548000Y-112331000D01*
X63246000Y-110744000D02*
X64833000Y-112331000D01*
X63246000Y-106426000D02*
X63246000Y-110744000D01*
D43*
X45212000Y-154445000D02*
X45212000Y-160274000D01*
D41*
X101346000Y-131381000D02*
X102171000Y-131381000D01*
X114300000Y-140462000D02*
X124714000Y-140462000D01*
X102171000Y-131381000D02*
X102616000Y-131826000D01*
D42*
X70342000Y-111506000D02*
X70342000Y-108537000D01*
X70358000Y-108521000D02*
X65074000Y-108521000D01*
D41*
X107442000Y-134937000D02*
X107442000Y-136906000D01*
D42*
X105410000Y-134887000D02*
X107392000Y-134887000D01*
D43*
X93633839Y-68787167D02*
X93633839Y-71374014D01*
D42*
X107442000Y-133287000D02*
X107442000Y-132588000D01*
X107442000Y-132588000D02*
X106410000Y-131556000D01*
X103378000Y-133287000D02*
X107442000Y-133287000D01*
X103378000Y-133287000D02*
X101346000Y-133287000D01*
X106410000Y-131556000D02*
X106410000Y-130556000D01*
D41*
X76708000Y-72136000D02*
X76708000Y-74663373D01*
X76708000Y-74663373D02*
X79909000Y-77864373D01*
X79909000Y-77864373D02*
X79909000Y-82989500D01*
X79665831Y-76454000D02*
X77633831Y-74422000D01*
D44*
X89408000Y-78994000D02*
X89408000Y-78486000D01*
D41*
X77633831Y-74422000D02*
X77633831Y-68787155D01*
X89408000Y-77748000D02*
X89408000Y-78486000D01*
X89420000Y-77736000D02*
X88138000Y-76454000D01*
X89420000Y-77736000D02*
X89408000Y-77748000D01*
X88138000Y-76454000D02*
X79665831Y-76454000D01*
D44*
X118753199Y-83447199D02*
X118872000Y-83566000D01*
X118872000Y-83566000D02*
X118872000Y-84076999D01*
X117136800Y-83447199D02*
X118753199Y-83447199D01*
X116331999Y-84252000D02*
X117136800Y-83447199D01*
X114808001Y-84202000D02*
X116281999Y-84202000D01*
D41*
X97536000Y-81026000D02*
X97536000Y-72898000D01*
X80559000Y-82989500D02*
X80559000Y-83861000D01*
X80559000Y-83861000D02*
X81026000Y-84328000D01*
X81026000Y-84328000D02*
X94234000Y-84328000D01*
X94234000Y-84328000D02*
X97536000Y-81026000D01*
D44*
X89916000Y-78994000D02*
X89916000Y-78486000D01*
D41*
X96833839Y-75378161D02*
X95250000Y-76962000D01*
X89916000Y-77724000D02*
X89916000Y-78486000D01*
X96833839Y-68787167D02*
X96833839Y-75378161D01*
X95250000Y-76962000D02*
X90678000Y-76962000D01*
X90678000Y-76962000D02*
X89916000Y-77724000D01*
X88007000Y-81534000D02*
X88007000Y-82989500D01*
D43*
X77978000Y-93281000D02*
X77978000Y-94234000D01*
X113284000Y-84202000D02*
X113284000Y-83453000D01*
D41*
X106680000Y-84202000D02*
X107866600Y-83015400D01*
X107866600Y-83015400D02*
X112846400Y-83015400D01*
D43*
X119568000Y-118110000D02*
X120650000Y-118110000D01*
X121412000Y-79376000D02*
X121412000Y-78627000D01*
X119888000Y-89599000D02*
X119888000Y-88850000D01*
D44*
X122580900Y-93259000D02*
X121238500Y-93259000D01*
D43*
X118110000Y-89599000D02*
X118110000Y-88850000D01*
D41*
X112711199Y-78054200D02*
X113283999Y-78627000D01*
D44*
X117013500Y-93259000D02*
X114500000Y-93259000D01*
D43*
X84833820Y-72025180D02*
X84833820Y-68787153D01*
X87884000Y-80023000D02*
X87884000Y-80772000D01*
X45212000Y-110173000D02*
X45212000Y-109424000D01*
D41*
X87884000Y-81411000D02*
X87884000Y-80023000D01*
D43*
X121412000Y-84202000D02*
X121412000Y-83453000D01*
D41*
X106680000Y-79376000D02*
X108001800Y-78054200D01*
D43*
X78486000Y-80023000D02*
X78486000Y-80772000D01*
D42*
X109474000Y-122873000D02*
X109474000Y-122174000D01*
D41*
X112846400Y-83015400D02*
X113284000Y-83453000D01*
D43*
X113283999Y-79376000D02*
X113283999Y-78627000D01*
D41*
X108001800Y-78054200D02*
X112711199Y-78054200D01*
D43*
X114300000Y-93459000D02*
X114300000Y-92710000D01*
D41*
X78486000Y-81665000D02*
X78486000Y-80023000D01*
D43*
X119507000Y-118049000D02*
X119507000Y-114808000D01*
D41*
X78609000Y-81788000D02*
X78609000Y-82989500D01*
X88007000Y-81534000D02*
X87884000Y-81411000D01*
X78609000Y-81788000D02*
X78486000Y-81665000D01*
D43*
X84833820Y-68787153D02*
X84833820Y-71374000D01*
D44*
X80010000Y-93218000D02*
X80018800Y-93209200D01*
D41*
X80010000Y-94234000D02*
X80010000Y-93218000D01*
X83375000Y-95758000D02*
X81534000Y-95758000D01*
X81534000Y-95758000D02*
X80010000Y-94234000D01*
X84645000Y-97028000D02*
X83375000Y-95758000D01*
D44*
X80018800Y-93209200D02*
X80018800Y-92448000D01*
D41*
X86551000Y-97028000D02*
X84645000Y-97028000D01*
X87376000Y-98235000D02*
X87376000Y-96012000D01*
X84645000Y-99060000D02*
X86551000Y-99060000D01*
X89307000Y-94081000D02*
X89307000Y-88714500D01*
X86551000Y-99060000D02*
X87376000Y-98235000D01*
X87376000Y-96012000D02*
X89307000Y-94081000D01*
D44*
X86106000Y-80264000D02*
X84459000Y-81911000D01*
X84459000Y-81911000D02*
X84459000Y-82989500D01*
D41*
X78609000Y-90047000D02*
X77978000Y-90678000D01*
X77978000Y-90678000D02*
X77978000Y-91631000D01*
X78609000Y-88714500D02*
X78609000Y-90047000D01*
X79259000Y-86476000D02*
X79259000Y-82989500D01*
X76200000Y-91631000D02*
X76200000Y-89535000D01*
X76200000Y-89535000D02*
X79259000Y-86476000D01*
D44*
X81014000Y-90436000D02*
X81014000Y-91448000D01*
X81209000Y-88714500D02*
X81209000Y-90241000D01*
X81209000Y-90241000D02*
X81014000Y-90436000D01*
X80509200Y-90217600D02*
X80509200Y-91448000D01*
X80559000Y-90167800D02*
X80509200Y-90217600D01*
X80559000Y-88714500D02*
X80559000Y-90167800D01*
X79909000Y-90069000D02*
X80018800Y-90178800D01*
X79909000Y-88714500D02*
X79909000Y-90069000D01*
X80018800Y-90178800D02*
X80018800Y-91448000D01*
X79514000Y-91448000D02*
X79514000Y-90309000D01*
X79248000Y-90043000D02*
X79248000Y-88725500D01*
X79514000Y-90309000D02*
X79248000Y-90043000D01*
X81796800Y-81788000D02*
X81796800Y-80256000D01*
X81859000Y-82989500D02*
X81859000Y-81850200D01*
X81859000Y-81850200D02*
X81796800Y-81788000D01*
X82509000Y-82989500D02*
X82509000Y-82001000D01*
X82509000Y-82001000D02*
X82287200Y-81779200D01*
X82287200Y-81779200D02*
X82287200Y-80256000D01*
X82792000Y-81522000D02*
X82792000Y-80256000D01*
X83159000Y-81889000D02*
X82792000Y-81522000D01*
X83159000Y-82989500D02*
X83159000Y-81889000D01*
X84328000Y-80073000D02*
X84328000Y-81280000D01*
X83809000Y-81799000D02*
X83809000Y-82989500D01*
X84328000Y-81280000D02*
X83809000Y-81799000D01*
X83808000Y-89928000D02*
X83808000Y-91448000D01*
X83808000Y-89904000D02*
X83809000Y-89905000D01*
X83808000Y-88715500D02*
X83808000Y-89904000D01*
X83303200Y-89907200D02*
X83303200Y-91448000D01*
X83159000Y-88714500D02*
X83159000Y-89763000D01*
X83159000Y-89763000D02*
X83303200Y-89907200D01*
X82812800Y-90028000D02*
X82812800Y-91448000D01*
X82509000Y-88714500D02*
X82509000Y-89724200D01*
X82509000Y-89724200D02*
X82812800Y-90028000D01*
X81859000Y-89985000D02*
X82308000Y-90434000D01*
X82308000Y-90434000D02*
X82308000Y-91448000D01*
X81859000Y-88714500D02*
X81859000Y-89985000D01*
X114808000Y-79376000D02*
X116282000Y-79376000D01*
X118872000Y-78722800D02*
X118635200Y-78486000D01*
X117272000Y-78486000D02*
X116332000Y-79426000D01*
X118872000Y-79251000D02*
X118872000Y-78722800D01*
X118635200Y-78486000D02*
X117272000Y-78486000D01*
D41*
X43688000Y-73533000D02*
X46355000Y-70866000D01*
D42*
X49147000Y-66912004D02*
X49778290Y-66280714D01*
D41*
X70401999Y-99568000D02*
X70401999Y-97325999D01*
X70401999Y-97325999D02*
X68834000Y-95758000D01*
X43688000Y-85598000D02*
X43688000Y-73533000D01*
X45974000Y-87884000D02*
X43688000Y-85598000D01*
X53848000Y-95758000D02*
X45974000Y-87884000D01*
X68834000Y-95758000D02*
X53848000Y-95758000D01*
D43*
X77002000Y-108044500D02*
X77002000Y-106172000D01*
D41*
X65024000Y-74676000D02*
X66802000Y-76454000D01*
X124714000Y-144780000D02*
X113284000Y-144780000D01*
X56517500Y-74676000D02*
X65024000Y-74676000D01*
X56134000Y-74292500D02*
X56517500Y-74676000D01*
X70104000Y-86802000D02*
X70104000Y-87821000D01*
X70104000Y-87821000D02*
X69279000Y-88646000D01*
X70754000Y-86802000D02*
X70754000Y-88471000D01*
X70104000Y-82105000D02*
X70929000Y-81280000D01*
X70104000Y-84902000D02*
X70104000Y-82105000D01*
D43*
X117234000Y-74549000D02*
X122682000Y-74549000D01*
X125222000Y-155080000D02*
X125222000Y-160274000D01*
D42*
X49151000Y-69596000D02*
X48641000Y-69086000D01*
X50876000Y-69596000D02*
X49151000Y-69596000D01*
X54735000Y-69596000D02*
X52776000Y-69596000D01*
X70358000Y-106871000D02*
X70358000Y-105918000D01*
X67818000Y-101023874D02*
X68298874Y-100543000D01*
X68170635Y-105508635D02*
X68170635Y-104647999D01*
X68580000Y-106871000D02*
X68580000Y-105918000D01*
X68580000Y-105918000D02*
X68170635Y-105508635D01*
X68342000Y-110856000D02*
X66723000Y-110856000D01*
D41*
X106680000Y-140967023D02*
X106324023Y-141323000D01*
X101346000Y-134937000D02*
X101346000Y-135636000D01*
D42*
X106426000Y-136398000D02*
X106426000Y-137160000D01*
X106172000Y-136144000D02*
X106426000Y-136398000D01*
X104585000Y-136144000D02*
X106172000Y-136144000D01*
X103378000Y-134937000D02*
X104585000Y-136144000D01*
X104410000Y-129906000D02*
X101521000Y-129906000D01*
D44*
X117251799Y-85047200D02*
X114088800Y-85047200D01*
X113284000Y-85852000D02*
X111760001Y-85852000D01*
X109220000Y-85448800D02*
X109324800Y-85344000D01*
X118222000Y-84076999D02*
X117251799Y-85047200D01*
X109220000Y-85977000D02*
X109220000Y-85448800D01*
X114088800Y-85047200D02*
X113284000Y-85852000D01*
X109324800Y-85344000D02*
X111252001Y-85344000D01*
X111252001Y-85344000D02*
X111760001Y-85852000D01*
X117251800Y-80221200D02*
X118222000Y-79251000D01*
X111229802Y-80495800D02*
X109296199Y-80495800D01*
X114088799Y-80221200D02*
X117251800Y-80221200D01*
X111760001Y-81025999D02*
X111229802Y-80495800D01*
X113283999Y-81026000D02*
X114088799Y-80221200D01*
X111760001Y-81025999D02*
X113283998Y-81025999D01*
X109219999Y-80572000D02*
X109219999Y-81151000D01*
X109296199Y-80495800D02*
X109219999Y-80572000D01*
X119646999Y-85852000D02*
X119522000Y-85976999D01*
X118872000Y-85976999D02*
X119522000Y-85976999D01*
X121412000Y-85852000D02*
X119646999Y-85852000D01*
X118872000Y-81151000D02*
X119522000Y-81151000D01*
X119522000Y-81151000D02*
X121287000Y-81151000D01*
D41*
X92557000Y-90271000D02*
X92557000Y-88714500D01*
X93218000Y-91631000D02*
X93218000Y-90932000D01*
X93218000Y-90932000D02*
X92557000Y-90271000D01*
X84002000Y-108044500D02*
X84002000Y-105482000D01*
X88201000Y-99060000D02*
X88201000Y-102616000D01*
X88201000Y-97028000D02*
X88201000Y-99123000D01*
X86868000Y-102616000D02*
X88201000Y-102616000D01*
X84002000Y-105482000D02*
X86868000Y-102616000D01*
X83121000Y-99186000D02*
X83121000Y-102616000D01*
X81534000Y-102616000D02*
X79002000Y-105148000D01*
X79002000Y-105148000D02*
X79002000Y-108044500D01*
X82995000Y-97028000D02*
X82995000Y-99060000D01*
X83121000Y-102616000D02*
X81534000Y-102616000D01*
X71120000Y-85852000D02*
X74676000Y-89408000D01*
X74676000Y-89408000D02*
X74676000Y-94742000D01*
X69454000Y-84902000D02*
X69454000Y-83233000D01*
X74676000Y-94742000D02*
X78002000Y-98068000D01*
X69454000Y-84902000D02*
X69454000Y-85481000D01*
X69825000Y-85852000D02*
X71120000Y-85852000D01*
X78002000Y-98068000D02*
X78002000Y-108839500D01*
X69454000Y-85481000D02*
X69825000Y-85852000D01*
X93207000Y-88714500D02*
X93207000Y-90096000D01*
X93207000Y-90096000D02*
X94742000Y-91631000D01*
X88007000Y-88714500D02*
X88007000Y-91500000D01*
X88657000Y-81545000D02*
X88657000Y-82989500D01*
X86614000Y-91631000D02*
X86614000Y-87122000D01*
X88646000Y-81534000D02*
X88657000Y-81545000D01*
X101791000Y-105664000D02*
X101791000Y-107315000D01*
X101791000Y-107315000D02*
X100965000Y-108141000D01*
X100965000Y-108141000D02*
X100965000Y-109601000D01*
D42*
X105601000Y-105664000D02*
X103441000Y-105664000D01*
D41*
X102104000Y-110998000D02*
X103441000Y-109661000D01*
X100965000Y-110998000D02*
X102104000Y-110998000D01*
X103441000Y-109661000D02*
X103441000Y-105664000D01*
X119507000Y-106744000D02*
X119507000Y-109728000D01*
X107251000Y-105664000D02*
X107251000Y-107887000D01*
X102870000Y-112268000D02*
X100965000Y-112268000D01*
X107251000Y-107887000D02*
X102870000Y-112268000D01*
D42*
X109411000Y-105664000D02*
X107251000Y-105664000D01*
D44*
X81292000Y-80256000D02*
X81292000Y-81788000D01*
X81209000Y-81871000D02*
X81209000Y-82989500D01*
X81292000Y-81788000D02*
X81209000Y-81871000D01*
X89307000Y-82989500D02*
X89307000Y-80885000D01*
X89307000Y-80885000D02*
X89420000Y-80772000D01*
X89420000Y-80772000D02*
X89420000Y-80256000D01*
X89957000Y-80772000D02*
X89924800Y-80739800D01*
X89957000Y-82989500D02*
X89957000Y-80772000D01*
X89924800Y-80739800D02*
X89924800Y-80256000D01*
X90607000Y-81021736D02*
X90415200Y-80829936D01*
X90607000Y-82989500D02*
X90607000Y-81021736D01*
X90415200Y-80829936D02*
X90415200Y-80256000D01*
X91257000Y-82989500D02*
X91257000Y-81097000D01*
X90920000Y-80760000D02*
X90920000Y-80256000D01*
X91257000Y-81097000D02*
X90920000Y-80760000D01*
X91907000Y-89957000D02*
X91682000Y-90182000D01*
X91907000Y-88714500D02*
X91907000Y-89957000D01*
X91682000Y-90182000D02*
X91682000Y-91448000D01*
X91273324Y-89916000D02*
X91177200Y-90012124D01*
X91177200Y-90012124D02*
X91177200Y-91448000D01*
X91273324Y-88730824D02*
X91273324Y-89916000D01*
X90607000Y-89916000D02*
X90686800Y-89995800D01*
X90686800Y-89995800D02*
X90686800Y-91448000D01*
X90607000Y-88714500D02*
X90607000Y-89916000D01*
X89957000Y-89957000D02*
X89957000Y-88714500D01*
X90182000Y-90182000D02*
X89957000Y-89957000D01*
X90182000Y-91448000D02*
X90182000Y-90182000D01*
D42*
X50876000Y-70246000D02*
X50383000Y-70739000D01*
X47371000Y-67826198D02*
X48727000Y-66470198D01*
X50383000Y-70739000D02*
X47752000Y-70739000D01*
X48727000Y-66470198D02*
X48727000Y-65405000D01*
X47371000Y-70358000D02*
X47371000Y-67826198D01*
X47752000Y-70739000D02*
X47371000Y-70358000D01*
D44*
X91907000Y-81243400D02*
X92214000Y-80936400D01*
X91907000Y-82989500D02*
X91907000Y-81243400D01*
X92214000Y-80936400D02*
X92214000Y-80248000D01*
D42*
X52776000Y-68946000D02*
X52776000Y-65969000D01*
X53467000Y-65278000D02*
X55118000Y-65278000D01*
X52776000Y-65969000D02*
X53467000Y-65278000D01*
D44*
X92557000Y-81179000D02*
X92759200Y-80976800D01*
X92759200Y-80976800D02*
X92759200Y-80264000D01*
X92557000Y-82989500D02*
X92557000Y-81179000D01*
X93209200Y-82987300D02*
X93209200Y-80248000D01*
X93714000Y-81026000D02*
X93714000Y-80248000D01*
X93857000Y-81169000D02*
X93714000Y-81026000D01*
X93857000Y-82989500D02*
X93857000Y-81169000D01*
D41*
X70754000Y-84902000D02*
X70754000Y-83233000D01*
X115895000Y-93909000D02*
X115316000Y-94488000D01*
D44*
X117013500Y-93909000D02*
X118181000Y-93909000D01*
D41*
X120904000Y-112268000D02*
X124714000Y-116078000D01*
D44*
X118364000Y-93726000D02*
X118364000Y-92106500D01*
X118364000Y-92106500D02*
X118110000Y-91852500D01*
D41*
X115316000Y-109474000D02*
X118110000Y-112268000D01*
X118110000Y-112268000D02*
X119507000Y-112268000D01*
D44*
X118110000Y-91852500D02*
X118110000Y-90934000D01*
D41*
X119507000Y-112268000D02*
X120904000Y-112268000D01*
X115316000Y-94488000D02*
X115316000Y-109474000D01*
X117013500Y-93909000D02*
X115895000Y-93909000D01*
D44*
X118181000Y-93909000D02*
X118364000Y-93726000D01*
X109220000Y-84077000D02*
X109220000Y-84605200D01*
X109220000Y-84605200D02*
X109450800Y-84836000D01*
X111126001Y-84836000D02*
X111760001Y-84202000D01*
X109450800Y-84836000D02*
X111126001Y-84836000D01*
X111126000Y-80010000D02*
X111760001Y-79375999D01*
X109443599Y-80010000D02*
X111126000Y-80010000D01*
X109219999Y-79786400D02*
X109443599Y-80010000D01*
X109219999Y-79251000D02*
X109219999Y-79786400D01*
D41*
X119888000Y-101600000D02*
X116332000Y-105156000D01*
D44*
X120071000Y-93909000D02*
X119888000Y-93726000D01*
D41*
X118110000Y-110998000D02*
X119507000Y-110998000D01*
X119888000Y-94163000D02*
X120142000Y-93909000D01*
D44*
X121238500Y-93909000D02*
X120071000Y-93909000D01*
D41*
X120142000Y-93909000D02*
X121238500Y-93909000D01*
X119507000Y-110998000D02*
X121920000Y-110998000D01*
X119888000Y-94163000D02*
X119888000Y-101600000D01*
X121920000Y-110998000D02*
X122682000Y-111760000D01*
X116332000Y-109220000D02*
X118110000Y-110998000D01*
X122682000Y-111760000D02*
X124714000Y-111760000D01*
X116332000Y-105156000D02*
X116332000Y-109220000D01*
D44*
X119888000Y-93726000D02*
X119888000Y-91249000D01*
X108570000Y-85977000D02*
X106805000Y-85977000D01*
X108570000Y-86472000D02*
X108570000Y-85977000D01*
X115316001Y-86360000D02*
X114808001Y-85852000D01*
X118293000Y-94559000D02*
X119108200Y-93743800D01*
X109870000Y-86505200D02*
X109761200Y-86614000D01*
X115316000Y-86397106D02*
X115316001Y-86360000D01*
X105155999Y-85852000D02*
X106680000Y-85852000D01*
X119108200Y-93743800D02*
X119108200Y-88882200D01*
X116079494Y-87160600D02*
X115316000Y-86397106D01*
X109761200Y-86614000D02*
X108712000Y-86614000D01*
X109761200Y-86614000D02*
X114046001Y-86614000D01*
X117386600Y-87160600D02*
X116079494Y-87160600D01*
X108712000Y-86614000D02*
X108570000Y-86472000D01*
X114046001Y-86614000D02*
X114808001Y-85852000D01*
X119108200Y-88882200D02*
X117386600Y-87160600D01*
X117013500Y-94559000D02*
X118293000Y-94559000D01*
X109870000Y-85977000D02*
X109870000Y-86505200D01*
X116548895Y-82804000D02*
X114808000Y-81063105D01*
X109869999Y-81730000D02*
X109869999Y-81151000D01*
X109793799Y-81806200D02*
X109869999Y-81730000D01*
X114808000Y-81026000D02*
X114027800Y-81806200D01*
X123444000Y-93472000D02*
X123444000Y-84074000D01*
X119380000Y-82296000D02*
X118872000Y-82804000D01*
X122357000Y-94559000D02*
X123444000Y-93472000D01*
X123444000Y-84074000D02*
X121666000Y-82296000D01*
X108569999Y-81151000D02*
X108569999Y-81645999D01*
X121666000Y-82296000D02*
X119380000Y-82296000D01*
X109474000Y-81806200D02*
X109793799Y-81806200D01*
X108569999Y-81645999D02*
X108730200Y-81806200D01*
X108569999Y-81151000D02*
X106805000Y-81151000D01*
X118872000Y-82804000D02*
X116548895Y-82804000D01*
X121238500Y-94559000D02*
X122357000Y-94559000D01*
X108730200Y-81806200D02*
X109474000Y-81806200D01*
X105156000Y-81026001D02*
X106679999Y-81026001D01*
X114027800Y-81806200D02*
X109474000Y-81806200D01*
D42*
X50587000Y-66636000D02*
X50167000Y-67056000D01*
X50587000Y-65405000D02*
X50587000Y-66636000D01*
D41*
X117793000Y-105664000D02*
X121412000Y-105664000D01*
X117793000Y-106680000D02*
X117793000Y-105664000D01*
X95250000Y-75184000D02*
X79629000Y-75184000D01*
X71233839Y-73900839D02*
X71233839Y-68787167D01*
X120396000Y-79629000D02*
X120396000Y-78114026D01*
X71247000Y-73914000D02*
X71233839Y-73900839D01*
X120396000Y-78114026D02*
X119761000Y-77479026D01*
X123190000Y-107442000D02*
X124714000Y-107442000D01*
X124460000Y-82423000D02*
X122301000Y-80264000D01*
X117793000Y-105219000D02*
X124460000Y-98552000D01*
X117793000Y-106680000D02*
X117793000Y-105219000D01*
X121412000Y-105664000D02*
X123190000Y-107442000D01*
X124460000Y-98552000D02*
X124460000Y-82423000D01*
X70104000Y-73914000D02*
X71247000Y-73914000D01*
X121031000Y-80264000D02*
X120396000Y-79629000D01*
X105800026Y-77479026D02*
X103505000Y-75184000D01*
X122301000Y-80264000D02*
X121031000Y-80264000D01*
X68072000Y-71882000D02*
X70104000Y-73914000D01*
X119761000Y-77479026D02*
X105800026Y-77479026D01*
X67564000Y-85027000D02*
X56833000Y-85027000D01*
X67564000Y-85027000D02*
X67564000Y-82995000D01*
X69279000Y-74359000D02*
X67310000Y-72390000D01*
X55372000Y-83566000D02*
X45974000Y-83566000D01*
X67564000Y-82995000D02*
X69279000Y-81280000D01*
X69279000Y-81280000D02*
X69279000Y-74359000D01*
X68033839Y-70613364D02*
X68033839Y-68787167D01*
X67310000Y-71337203D02*
X68033839Y-70613364D01*
X56833000Y-85027000D02*
X55372000Y-83566000D01*
X67310000Y-72390000D02*
X67310000Y-71337203D01*
G04 #@! TA.AperFunction,Conductor*
G36*
X69025000Y-97298881D02*
G01*
X69071119Y-97345000D01*
X69088000Y-97408000D01*
X69088000Y-99992500D01*
X69071119Y-100055500D01*
X69025000Y-100101619D01*
X68962000Y-100118500D01*
X67974930Y-100118500D01*
X67900698Y-100133265D01*
X67816514Y-100189515D01*
X67760265Y-100273698D01*
X67745499Y-100347934D01*
X67745499Y-100350545D01*
X67743709Y-100356929D01*
X67743078Y-100360105D01*
X67742833Y-100360056D01*
X67727147Y-100416026D01*
X67677438Y-100462433D01*
X67591542Y-100506912D01*
X67590383Y-100507818D01*
X67561046Y-100524925D01*
X67535935Y-100535327D01*
X67419102Y-100624976D01*
X67329454Y-100741808D01*
X67273095Y-100877868D01*
X67253874Y-101023873D01*
X67273095Y-101169879D01*
X67329454Y-101305939D01*
X67419102Y-101422771D01*
X67535934Y-101512419D01*
X67535937Y-101512421D01*
X67671993Y-101568778D01*
X67818000Y-101588000D01*
X67964007Y-101568778D01*
X68100063Y-101512421D01*
X68216897Y-101422771D01*
X68306547Y-101305937D01*
X68316946Y-101280829D01*
X68334059Y-101251483D01*
X68334960Y-101250331D01*
X68418620Y-101088770D01*
X68446176Y-101035559D01*
X68492583Y-100985850D01*
X68558064Y-100967499D01*
X68962000Y-100967499D01*
X69025000Y-100984380D01*
X69071119Y-101030499D01*
X69088000Y-101093499D01*
X69088000Y-104056501D01*
X69071119Y-104119501D01*
X69025000Y-104165620D01*
X68962000Y-104182501D01*
X67985931Y-104182501D01*
X67911699Y-104197266D01*
X67827515Y-104253516D01*
X67771266Y-104337699D01*
X67756500Y-104411934D01*
X67756500Y-104802069D01*
X67771554Y-104877756D01*
X67785710Y-104907684D01*
X67791135Y-104944260D01*
X67791135Y-105030000D01*
X67774254Y-105093000D01*
X67728135Y-105139119D01*
X67665135Y-105156000D01*
X65404000Y-105156000D01*
X65341000Y-105139119D01*
X65294881Y-105093000D01*
X65278000Y-105030000D01*
X65278000Y-97408000D01*
X65294881Y-97345000D01*
X65341000Y-97298881D01*
X65404000Y-97282000D01*
X68962000Y-97282000D01*
X69025000Y-97298881D01*
G37*
G04 #@! TD.AperFunction*
G04 #@! TA.AperFunction,Conductor*
G36*
X76672506Y-97291591D02*
G01*
X76713383Y-97318905D01*
X77583595Y-98189117D01*
X77610909Y-98229994D01*
X77620500Y-98278212D01*
X77620500Y-106554000D01*
X77603619Y-106617000D01*
X77557500Y-106663119D01*
X77494500Y-106680000D01*
X76506190Y-106680000D01*
X76457972Y-106670409D01*
X76417095Y-106643095D01*
X74930001Y-105156000D01*
X74930000Y-105156000D01*
X74655249Y-105156000D01*
X74639068Y-105154956D01*
X74604660Y-105150500D01*
X71754000Y-105150500D01*
X71720410Y-105154922D01*
X71703964Y-105156000D01*
X69722000Y-105156000D01*
X69659000Y-105139119D01*
X69612881Y-105093000D01*
X69596000Y-105030000D01*
X69596000Y-97408000D01*
X69612881Y-97345000D01*
X69659000Y-97298881D01*
X69722000Y-97282000D01*
X76624288Y-97282000D01*
X76672506Y-97291591D01*
G37*
G04 #@! TD.AperFunction*
G04 #@! TA.AperFunction,Conductor*
G36*
X114302500Y-151908881D02*
G01*
X114348619Y-151955000D01*
X114365500Y-152018000D01*
X114365500Y-153916068D01*
X114380265Y-153990300D01*
X114436515Y-154074484D01*
X114492765Y-154112068D01*
X114520699Y-154130734D01*
X114594933Y-154145500D01*
X115190001Y-154145499D01*
X115253000Y-154162380D01*
X115299119Y-154208499D01*
X115316000Y-154271499D01*
X115316000Y-158370000D01*
X115299119Y-158433000D01*
X115253000Y-158479119D01*
X115190000Y-158496000D01*
X112094884Y-158496000D01*
X112046666Y-158486409D01*
X112005789Y-158459095D01*
X111288905Y-157742211D01*
X111261591Y-157701334D01*
X111252000Y-157653116D01*
X111252000Y-157015098D01*
X111255712Y-156990054D01*
X111254845Y-156989882D01*
X111260895Y-156959460D01*
X111274500Y-156891067D01*
X111274499Y-154765934D01*
X111259734Y-154691699D01*
X111254845Y-154667118D01*
X111255712Y-154666945D01*
X111252000Y-154641903D01*
X111252000Y-153499712D01*
X111261591Y-153451494D01*
X111288902Y-153410619D01*
X112246546Y-152452974D01*
X112266713Y-152436598D01*
X112275956Y-152430560D01*
X112295709Y-152405179D01*
X112306050Y-152393471D01*
X112306113Y-152393409D01*
X112318400Y-152376197D01*
X112321488Y-152372058D01*
X112354158Y-152330085D01*
X112354158Y-152330082D01*
X112359080Y-152323760D01*
X112359188Y-152323551D01*
X112376644Y-152264915D01*
X112378225Y-152259975D01*
X112395500Y-152209661D01*
X112395500Y-152209659D01*
X112398102Y-152202080D01*
X112398136Y-152201849D01*
X112395608Y-152140727D01*
X112395500Y-152135520D01*
X112395500Y-152018000D01*
X112412381Y-151955000D01*
X112458500Y-151908881D01*
X112521500Y-151892000D01*
X114239500Y-151892000D01*
X114302500Y-151908881D01*
G37*
G04 #@! TD.AperFunction*
G04 #@! TA.AperFunction,Conductor*
G36*
X109537500Y-135906881D02*
G01*
X109583619Y-135953000D01*
X109600500Y-136016000D01*
X109600500Y-144654000D01*
X109583619Y-144717000D01*
X109537500Y-144763119D01*
X109474500Y-144780000D01*
X105536000Y-144780000D01*
X105473000Y-144763119D01*
X105426881Y-144717000D01*
X105410000Y-144654000D01*
X105410000Y-141871705D01*
X105422098Y-141817832D01*
X105456068Y-141774305D01*
X105505387Y-141749481D01*
X105545023Y-141748509D01*
X105545023Y-141747500D01*
X105557432Y-141747499D01*
X105557433Y-141747500D01*
X106576901Y-141747499D01*
X106577068Y-141747499D01*
X106626556Y-141737655D01*
X106651301Y-141732734D01*
X106735484Y-141676484D01*
X106791734Y-141592301D01*
X106791734Y-141592298D01*
X106792036Y-141591847D01*
X106817351Y-141537886D01*
X106865580Y-141501412D01*
X106888338Y-141491653D01*
X106898125Y-141484961D01*
X106921005Y-141472575D01*
X106962063Y-141455570D01*
X107078897Y-141365920D01*
X107168547Y-141249086D01*
X107224904Y-141113030D01*
X107244126Y-140967023D01*
X107224904Y-140821016D01*
X107168547Y-140684960D01*
X107168545Y-140684957D01*
X107078897Y-140568125D01*
X106962065Y-140478477D01*
X106826005Y-140422118D01*
X106680000Y-140402897D01*
X106533994Y-140422118D01*
X106397934Y-140478477D01*
X106281103Y-140568125D01*
X106191453Y-140684959D01*
X106174449Y-140726010D01*
X106162060Y-140748896D01*
X106155369Y-140758683D01*
X106128143Y-140822165D01*
X106100696Y-140862332D01*
X106060078Y-140889108D01*
X106012344Y-140898500D01*
X105545025Y-140898501D01*
X105545025Y-140897493D01*
X105505383Y-140896519D01*
X105456065Y-140871695D01*
X105422097Y-140828167D01*
X105410000Y-140774296D01*
X105410000Y-137809500D01*
X105426881Y-137746500D01*
X105473000Y-137700381D01*
X105536000Y-137683500D01*
X105546432Y-137683499D01*
X105546433Y-137683500D01*
X106565870Y-137683499D01*
X106566068Y-137683499D01*
X106615555Y-137673655D01*
X106640301Y-137668734D01*
X106724484Y-137612484D01*
X106780734Y-137528301D01*
X106795500Y-137454067D01*
X106795499Y-137273483D01*
X106802326Y-137232570D01*
X106805500Y-137223327D01*
X106805500Y-136450421D01*
X106808182Y-136424563D01*
X106810418Y-136413899D01*
X106806468Y-136382211D01*
X106805500Y-136366625D01*
X106805500Y-136366555D01*
X106802044Y-136345851D01*
X106801296Y-136340727D01*
X106794752Y-136288217D01*
X106794751Y-136288215D01*
X106793756Y-136280230D01*
X106793730Y-136280150D01*
X106764734Y-136226568D01*
X106762351Y-136221939D01*
X106735592Y-136167203D01*
X106735545Y-136167140D01*
X106729619Y-136161685D01*
X106729619Y-136161684D01*
X106690713Y-136125868D01*
X106686957Y-136122263D01*
X106669789Y-136105095D01*
X106639051Y-136054936D01*
X106634435Y-135996289D01*
X106656948Y-135941939D01*
X106701681Y-135903733D01*
X106758884Y-135890000D01*
X109474500Y-135890000D01*
X109537500Y-135906881D01*
G37*
G04 #@! TD.AperFunction*
G04 #@! TA.AperFunction,Conductor*
G36*
X74666740Y-105426355D02*
G01*
X74712703Y-105471172D01*
X75420044Y-106650074D01*
X75438000Y-106714899D01*
X75438000Y-109348000D01*
X75421119Y-109411000D01*
X75375000Y-109457119D01*
X75312000Y-109474000D01*
X71754000Y-109474000D01*
X71691000Y-109457119D01*
X71644881Y-109411000D01*
X71628000Y-109348000D01*
X71628000Y-105536000D01*
X71644881Y-105473000D01*
X71691000Y-105426881D01*
X71754000Y-105410000D01*
X74604660Y-105410000D01*
X74666740Y-105426355D01*
G37*
G04 #@! TD.AperFunction*
G04 #@! TA.AperFunction,Conductor*
G36*
X104839000Y-136668881D02*
G01*
X104885119Y-136715000D01*
X104902000Y-136778000D01*
X104902000Y-145034000D01*
X105485964Y-145034000D01*
X105502410Y-145035078D01*
X105536000Y-145039500D01*
X109474500Y-145039500D01*
X109537500Y-145056381D01*
X109583619Y-145102500D01*
X109600500Y-145165500D01*
X109600500Y-150411788D01*
X109590909Y-150460006D01*
X109563597Y-150500880D01*
X108523544Y-151540933D01*
X107487455Y-152577021D01*
X107467280Y-152593405D01*
X107458042Y-152599440D01*
X107438288Y-152624820D01*
X107427972Y-152636504D01*
X107427890Y-152636586D01*
X107415612Y-152653781D01*
X107412503Y-152657950D01*
X107374936Y-152706216D01*
X107374803Y-152706475D01*
X107357349Y-152765099D01*
X107355762Y-152770055D01*
X107335897Y-152827921D01*
X107335863Y-152828151D01*
X107338392Y-152889273D01*
X107338500Y-152894480D01*
X107338500Y-154472023D01*
X107323622Y-154531418D01*
X107282503Y-154576787D01*
X107236516Y-154607514D01*
X107180266Y-154691698D01*
X107165500Y-154765933D01*
X107165500Y-156891068D01*
X107180265Y-156965300D01*
X107223495Y-157029998D01*
X107244578Y-157093817D01*
X107229852Y-157159396D01*
X107183507Y-157208074D01*
X107118730Y-157226000D01*
X104266000Y-157226000D01*
X104203000Y-157209119D01*
X104156881Y-157163000D01*
X104140000Y-157100000D01*
X104140000Y-151130000D01*
X99948000Y-151130000D01*
X99885000Y-151113119D01*
X99838881Y-151067000D01*
X99822000Y-151004000D01*
X99822000Y-136778000D01*
X99838881Y-136715000D01*
X99885000Y-136668881D01*
X99948000Y-136652000D01*
X104776000Y-136652000D01*
X104839000Y-136668881D01*
G37*
G04 #@! TD.AperFunction*
G04 #@! TA.AperFunction,Conductor*
G36*
X98937009Y-99822883D02*
G01*
X99204260Y-99934532D01*
X99210354Y-99940386D01*
X99210916Y-99948818D01*
X99062567Y-100423292D01*
X99058330Y-100429228D01*
X99051400Y-100431501D01*
X98814583Y-100431501D01*
X98807662Y-100429234D01*
X98803423Y-100423313D01*
X98654108Y-99948830D01*
X98654658Y-99940388D01*
X98660757Y-99934524D01*
X98927990Y-99822883D01*
X98932500Y-99821980D01*
X98937009Y-99822883D01*
G37*
G04 #@! TD.AperFunction*
G04 #@! TA.AperFunction,Conductor*
G36*
X99064509Y-77978884D02*
G01*
X99331750Y-78090528D01*
X99337847Y-78096387D01*
X99338404Y-78104825D01*
X99189571Y-78579401D01*
X99185333Y-78585330D01*
X99178407Y-78587600D01*
X98941593Y-78587600D01*
X98934667Y-78585330D01*
X98930429Y-78579401D01*
X98874602Y-78401391D01*
X98781595Y-78104823D01*
X98782152Y-78096387D01*
X98788248Y-78090528D01*
X99055491Y-77978883D01*
X99059999Y-77977980D01*
X99064509Y-77978884D01*
G37*
G04 #@! TD.AperFunction*
G04 #@! TA.AperFunction,Conductor*
G36*
X99826510Y-80010884D02*
G01*
X100093750Y-80122528D01*
X100099847Y-80128387D01*
X100100404Y-80136825D01*
X99951571Y-80611401D01*
X99947333Y-80617330D01*
X99940407Y-80619600D01*
X99703593Y-80619600D01*
X99696667Y-80617330D01*
X99692429Y-80611401D01*
X99636602Y-80433391D01*
X99543595Y-80136823D01*
X99544152Y-80128387D01*
X99550248Y-80122528D01*
X99817490Y-80010883D01*
X99822000Y-80009980D01*
X99826510Y-80010884D01*
G37*
G04 #@! TD.AperFunction*
G04 #@! TA.AperFunction,Conductor*
G36*
X103410540Y-90824817D02*
G01*
X103466176Y-90931293D01*
X103613685Y-91213598D01*
X103640875Y-91265633D01*
X103642070Y-91272822D01*
X103638778Y-91279324D01*
X103471324Y-91446778D01*
X103464822Y-91450070D01*
X103457634Y-91448875D01*
X103237114Y-91333649D01*
X103016817Y-91218540D01*
X103011244Y-91212180D01*
X103011411Y-91203726D01*
X103121436Y-90935812D01*
X103123986Y-90931986D01*
X103127812Y-90929436D01*
X103395726Y-90819411D01*
X103404180Y-90819244D01*
X103410540Y-90824817D01*
G37*
G04 #@! TD.AperFunction*
G04 #@! TA.AperFunction,Conductor*
G36*
X101350510Y-81026884D02*
G01*
X101617750Y-81138528D01*
X101623847Y-81144387D01*
X101624404Y-81152825D01*
X101475571Y-81627401D01*
X101471333Y-81633330D01*
X101464407Y-81635600D01*
X101227593Y-81635600D01*
X101220667Y-81633330D01*
X101216429Y-81627401D01*
X101160602Y-81449391D01*
X101067595Y-81152823D01*
X101068152Y-81144387D01*
X101074248Y-81138528D01*
X101341490Y-81026883D01*
X101346000Y-81025980D01*
X101350510Y-81026884D01*
G37*
G04 #@! TD.AperFunction*
G04 #@! TA.AperFunction,Conductor*
G36*
X102242010Y-82550884D02*
G01*
X102509250Y-82662528D01*
X102515347Y-82668387D01*
X102515904Y-82676825D01*
X102367071Y-83151401D01*
X102362833Y-83157330D01*
X102355907Y-83159600D01*
X102119093Y-83159600D01*
X102112167Y-83157330D01*
X102107929Y-83151401D01*
X102052102Y-82973391D01*
X101959095Y-82676823D01*
X101959652Y-82668387D01*
X101965748Y-82662528D01*
X102232990Y-82550883D01*
X102237500Y-82549980D01*
X102242010Y-82550884D01*
G37*
G04 #@! TD.AperFunction*
G04 #@! TA.AperFunction,Conductor*
G36*
X113409333Y-144172670D02*
G01*
X113413571Y-144178599D01*
X113562404Y-144653174D01*
X113561847Y-144661612D01*
X113555750Y-144667471D01*
X113288510Y-144779115D01*
X113284000Y-144780019D01*
X113279490Y-144779115D01*
X113012249Y-144667471D01*
X113006152Y-144661612D01*
X113005595Y-144653176D01*
X113154428Y-144178599D01*
X113158667Y-144172670D01*
X113165593Y-144170400D01*
X113402407Y-144170400D01*
X113409333Y-144172670D01*
G37*
G04 #@! TD.AperFunction*
G04 #@! TA.AperFunction,Conductor*
G36*
X98975391Y-76522602D02*
G01*
X99153401Y-76578429D01*
X99159330Y-76582667D01*
X99161600Y-76589593D01*
X99161600Y-76826407D01*
X99159330Y-76833333D01*
X99153401Y-76837571D01*
X98678825Y-76986404D01*
X98670387Y-76985847D01*
X98664528Y-76979750D01*
X98552884Y-76712510D01*
X98551980Y-76708000D01*
X98552884Y-76703490D01*
X98664528Y-76436249D01*
X98670387Y-76430152D01*
X98678823Y-76429595D01*
X98975391Y-76522602D01*
G37*
G04 #@! TD.AperFunction*
G04 #@! TA.AperFunction,Conductor*
G36*
X48612580Y-69978387D02*
G01*
X48618450Y-69982634D01*
X48620694Y-69989524D01*
X48620694Y-70222409D01*
X48618425Y-70229333D01*
X48612498Y-70233572D01*
X48138319Y-70382401D01*
X48129880Y-70381846D01*
X48124019Y-70375748D01*
X48012376Y-70108510D01*
X48011472Y-70104000D01*
X48012376Y-70099490D01*
X48058316Y-69989524D01*
X48123988Y-69832324D01*
X48129888Y-69826209D01*
X48138370Y-69825698D01*
X48612580Y-69978387D01*
G37*
G04 #@! TD.AperFunction*
G04 #@! TA.AperFunction,Conductor*
G36*
X54995509Y-71120883D02*
G01*
X55262713Y-71232512D01*
X55268820Y-71238391D01*
X55269354Y-71246850D01*
X55118592Y-71721442D01*
X55114349Y-71727343D01*
X55107441Y-71729600D01*
X54874559Y-71729600D01*
X54867651Y-71727343D01*
X54863408Y-71721442D01*
X54712645Y-71246850D01*
X54713179Y-71238391D01*
X54719284Y-71232513D01*
X54986490Y-71120883D01*
X54991000Y-71119980D01*
X54995509Y-71120883D01*
G37*
G04 #@! TD.AperFunction*
G04 #@! TA.AperFunction,Conductor*
G36*
X54988164Y-70542015D02*
G01*
X54992423Y-70546110D01*
X55265462Y-70991713D01*
X55267182Y-70998121D01*
X55265142Y-71004434D01*
X55259996Y-71008622D01*
X54993182Y-71120088D01*
X54988634Y-71120992D01*
X54698973Y-71120041D01*
X54692835Y-71118278D01*
X54688537Y-71113555D01*
X54687359Y-71107279D01*
X54738031Y-70551161D01*
X54741794Y-70543583D01*
X54749683Y-70540523D01*
X54982447Y-70540523D01*
X54988164Y-70542015D01*
G37*
G04 #@! TD.AperFunction*
G04 #@! TA.AperFunction,Conductor*
G36*
X63736310Y-72277426D02*
G01*
X63964225Y-72371025D01*
X64004185Y-72387436D01*
X64008013Y-72389986D01*
X64010563Y-72393814D01*
X64120572Y-72661688D01*
X64120733Y-72670163D01*
X64115129Y-72676523D01*
X63672937Y-72905504D01*
X63665765Y-72906676D01*
X63659284Y-72903387D01*
X63494612Y-72738715D01*
X63491323Y-72732234D01*
X63492494Y-72725064D01*
X63721476Y-72282869D01*
X63727836Y-72277266D01*
X63736310Y-72277426D01*
G37*
G04 #@! TD.AperFunction*
G04 #@! TA.AperFunction,Conductor*
G36*
X92963626Y-78223904D02*
G01*
X92967446Y-78226462D01*
X93170638Y-78430597D01*
X93173725Y-78436128D01*
X93173476Y-78442457D01*
X93169966Y-78447730D01*
X92844287Y-78727226D01*
X92836667Y-78730047D01*
X92600488Y-78730047D01*
X92594166Y-78728192D01*
X92589849Y-78723215D01*
X92588905Y-78716694D01*
X92627279Y-78447730D01*
X92657771Y-78234012D01*
X92661673Y-78226840D01*
X92669313Y-78223966D01*
X92959116Y-78223016D01*
X92963626Y-78223904D01*
G37*
G04 #@! TD.AperFunction*
G04 #@! TA.AperFunction,Conductor*
G36*
X82041626Y-78231904D02*
G01*
X82045446Y-78234462D01*
X82248638Y-78438597D01*
X82251725Y-78444128D01*
X82251476Y-78450457D01*
X82247966Y-78455730D01*
X81922287Y-78735226D01*
X81914667Y-78738047D01*
X81678488Y-78738047D01*
X81672166Y-78736192D01*
X81667849Y-78731215D01*
X81666905Y-78724694D01*
X81705279Y-78455730D01*
X81735771Y-78242012D01*
X81739673Y-78234840D01*
X81747313Y-78231966D01*
X82037116Y-78231016D01*
X82041626Y-78231904D01*
G37*
G04 #@! TD.AperFunction*
G04 #@! TA.AperFunction,Conductor*
G36*
X99991391Y-114622602D02*
G01*
X100169401Y-114678429D01*
X100175330Y-114682667D01*
X100177600Y-114689593D01*
X100177600Y-114926407D01*
X100175330Y-114933333D01*
X100169401Y-114937571D01*
X99694825Y-115086404D01*
X99686387Y-115085847D01*
X99680528Y-115079750D01*
X99568884Y-114812509D01*
X99567980Y-114807999D01*
X99568883Y-114803491D01*
X99680528Y-114536248D01*
X99686387Y-114530152D01*
X99694823Y-114529595D01*
X99991391Y-114622602D01*
G37*
G04 #@! TD.AperFunction*
G04 #@! TA.AperFunction,Conductor*
G36*
X50568563Y-68818017D02*
G01*
X50573831Y-68822325D01*
X50575810Y-68828836D01*
X50575810Y-69061730D01*
X50573281Y-69068996D01*
X50566786Y-69073120D01*
X50101013Y-69182542D01*
X50093016Y-69181572D01*
X50087541Y-69175662D01*
X49975605Y-68907721D01*
X49974701Y-68903211D01*
X49975604Y-68898703D01*
X50086877Y-68632350D01*
X50093199Y-68626051D01*
X50102124Y-68626043D01*
X50568563Y-68818017D01*
G37*
G04 #@! TD.AperFunction*
G04 #@! TA.AperFunction,Conductor*
G36*
X73884995Y-70767504D02*
G01*
X73888733Y-70775142D01*
X73937586Y-71361383D01*
X73936373Y-71367623D01*
X73932076Y-71372308D01*
X73925964Y-71374055D01*
X73633877Y-71375013D01*
X73633801Y-71375013D01*
X73341713Y-71374055D01*
X73335601Y-71372308D01*
X73331304Y-71367623D01*
X73330091Y-71361385D01*
X73378945Y-70775141D01*
X73382683Y-70767504D01*
X73390605Y-70764414D01*
X73877073Y-70764414D01*
X73884995Y-70767504D01*
G37*
G04 #@! TD.AperFunction*
G04 #@! TA.AperFunction,Conductor*
G36*
X118322123Y-81434512D02*
G01*
X118326407Y-81440087D01*
X118499763Y-81914857D01*
X118499492Y-81923560D01*
X118493283Y-81929666D01*
X118226510Y-82041115D01*
X118222000Y-82042019D01*
X118217490Y-82041115D01*
X117950716Y-81929666D01*
X117944507Y-81923560D01*
X117944236Y-81914857D01*
X118117593Y-81440087D01*
X118121877Y-81434512D01*
X118128583Y-81432400D01*
X118315417Y-81432400D01*
X118322123Y-81434512D01*
G37*
G04 #@! TD.AperFunction*
G04 #@! TA.AperFunction,Conductor*
G36*
X82169733Y-77955689D02*
G01*
X82696697Y-78206914D01*
X82701992Y-78211981D01*
X82703234Y-78219204D01*
X82699935Y-78225748D01*
X82534040Y-78391643D01*
X82529345Y-78394509D01*
X82168891Y-78510304D01*
X82160404Y-78509785D01*
X82154509Y-78503656D01*
X82108779Y-78393644D01*
X82043163Y-78235793D01*
X82042268Y-78231294D01*
X82043171Y-78226796D01*
X82153905Y-77961738D01*
X82157759Y-77956832D01*
X82163589Y-77954604D01*
X82169733Y-77955689D01*
G37*
G04 #@! TD.AperFunction*
G04 #@! TA.AperFunction,Conductor*
G36*
X91802001Y-92964460D02*
G01*
X91806319Y-92969355D01*
X91807341Y-92975802D01*
X91746086Y-93461796D01*
X91742231Y-93469095D01*
X91734516Y-93472033D01*
X91444883Y-93472983D01*
X91440373Y-93472095D01*
X91436553Y-93469537D01*
X91233207Y-93265247D01*
X91230136Y-93259782D01*
X91230327Y-93253516D01*
X91233723Y-93248251D01*
X91551674Y-92965595D01*
X91559449Y-92962639D01*
X91795733Y-92962639D01*
X91802001Y-92964460D01*
G37*
G04 #@! TD.AperFunction*
G04 #@! TA.AperFunction,Conductor*
G36*
X89884995Y-70767504D02*
G01*
X89888733Y-70775142D01*
X89937586Y-71361383D01*
X89936373Y-71367623D01*
X89932076Y-71372308D01*
X89925964Y-71374055D01*
X89633877Y-71375013D01*
X89633801Y-71375013D01*
X89341713Y-71374055D01*
X89335601Y-71372308D01*
X89331304Y-71367623D01*
X89330091Y-71361385D01*
X89378945Y-70775141D01*
X89382683Y-70767504D01*
X89390605Y-70764414D01*
X89877073Y-70764414D01*
X89884995Y-70767504D01*
G37*
G04 #@! TD.AperFunction*
G04 #@! TA.AperFunction,Conductor*
G36*
X125514126Y-152399958D02*
G01*
X125520237Y-152401705D01*
X125524534Y-152406390D01*
X125525747Y-152412630D01*
X125476894Y-152998872D01*
X125473156Y-153006510D01*
X125465234Y-153009600D01*
X124978766Y-153009600D01*
X124970844Y-153006510D01*
X124967106Y-152998872D01*
X124918252Y-152412630D01*
X124919465Y-152406390D01*
X124923762Y-152401705D01*
X124929872Y-152399958D01*
X125222000Y-152399000D01*
X125514126Y-152399958D01*
G37*
G04 #@! TD.AperFunction*
G04 #@! TA.AperFunction,Conductor*
G36*
X91484995Y-70767504D02*
G01*
X91488733Y-70775142D01*
X91537586Y-71361383D01*
X91536373Y-71367623D01*
X91532076Y-71372308D01*
X91525964Y-71374055D01*
X91233877Y-71375013D01*
X91233801Y-71375013D01*
X90941713Y-71374055D01*
X90935601Y-71372308D01*
X90931304Y-71367623D01*
X90930091Y-71361385D01*
X90978945Y-70775141D01*
X90982683Y-70767504D01*
X90990605Y-70764414D01*
X91477073Y-70764414D01*
X91484995Y-70767504D01*
G37*
G04 #@! TD.AperFunction*
G04 #@! TA.AperFunction,Conductor*
G36*
X86398126Y-77673958D02*
G01*
X86404237Y-77675705D01*
X86408534Y-77680390D01*
X86409747Y-77686630D01*
X86360894Y-78272872D01*
X86357156Y-78280510D01*
X86349234Y-78283600D01*
X85862766Y-78283600D01*
X85854844Y-78280510D01*
X85851106Y-78272872D01*
X85802252Y-77686630D01*
X85803465Y-77680390D01*
X85807762Y-77675705D01*
X85813872Y-77673958D01*
X86106000Y-77673000D01*
X86398126Y-77673958D01*
G37*
G04 #@! TD.AperFunction*
G04 #@! TA.AperFunction,Conductor*
G36*
X50793609Y-107901465D02*
G01*
X50798294Y-107905762D01*
X50800041Y-107911874D01*
X50801000Y-108204000D01*
X50801000Y-108204076D01*
X50800041Y-108496125D01*
X50798294Y-108502237D01*
X50793609Y-108506534D01*
X50787369Y-108507747D01*
X50201128Y-108458894D01*
X50193490Y-108455156D01*
X50190400Y-108447234D01*
X50190400Y-107960766D01*
X50193490Y-107952844D01*
X50201128Y-107949106D01*
X50201128Y-107949105D01*
X50787371Y-107900252D01*
X50793609Y-107901465D01*
G37*
G04 #@! TD.AperFunction*
G04 #@! TA.AperFunction,Conductor*
G36*
X82436319Y-92965572D02*
G01*
X82756222Y-93248253D01*
X82759640Y-93253520D01*
X82759841Y-93259797D01*
X82756767Y-93265273D01*
X82553446Y-93469537D01*
X82549626Y-93472095D01*
X82545116Y-93472983D01*
X82255524Y-93472033D01*
X82247792Y-93469080D01*
X82243948Y-93461751D01*
X82218520Y-93253520D01*
X82184601Y-92975757D01*
X82185643Y-92969328D01*
X82189961Y-92964452D01*
X82196216Y-92962639D01*
X82428572Y-92962639D01*
X82436319Y-92965572D01*
G37*
G04 #@! TD.AperFunction*
G04 #@! TA.AperFunction,Conductor*
G36*
X84620126Y-77673958D02*
G01*
X84626237Y-77675705D01*
X84630534Y-77680390D01*
X84631747Y-77686630D01*
X84582894Y-78272872D01*
X84579156Y-78280510D01*
X84571234Y-78283600D01*
X84084766Y-78283600D01*
X84076844Y-78280510D01*
X84073106Y-78272872D01*
X84024252Y-77686630D01*
X84025465Y-77680390D01*
X84029762Y-77675705D01*
X84035872Y-77673958D01*
X84328000Y-77673000D01*
X84620126Y-77673958D01*
G37*
G04 #@! TD.AperFunction*
G04 #@! TA.AperFunction,Conductor*
G36*
X119526510Y-83186883D02*
G01*
X119793283Y-83298332D01*
X119799492Y-83304438D01*
X119799763Y-83313141D01*
X119626407Y-83787912D01*
X119622123Y-83793487D01*
X119615417Y-83795599D01*
X119428583Y-83795599D01*
X119421877Y-83793487D01*
X119417593Y-83787912D01*
X119244236Y-83313141D01*
X119244507Y-83304438D01*
X119250716Y-83298332D01*
X119517490Y-83186883D01*
X119522000Y-83185979D01*
X119526510Y-83186883D01*
G37*
G04 #@! TD.AperFunction*
G04 #@! TA.AperFunction,Conductor*
G36*
X92848240Y-77948832D02*
G01*
X92852095Y-77953741D01*
X92962827Y-78218794D01*
X92963731Y-78223294D01*
X92962835Y-78227795D01*
X92851490Y-78495656D01*
X92845595Y-78501785D01*
X92837108Y-78502304D01*
X92476654Y-78386509D01*
X92471959Y-78383643D01*
X92306064Y-78217748D01*
X92302765Y-78211204D01*
X92304007Y-78203981D01*
X92309300Y-78198915D01*
X92836267Y-77947689D01*
X92842410Y-77946604D01*
X92848240Y-77948832D01*
G37*
G04 #@! TD.AperFunction*
G04 #@! TA.AperFunction,Conductor*
G36*
X93258685Y-78223966D02*
G01*
X93266326Y-78226840D01*
X93270228Y-78234013D01*
X93339095Y-78716694D01*
X93338151Y-78723215D01*
X93333834Y-78728192D01*
X93327512Y-78730047D01*
X93091333Y-78730047D01*
X93083713Y-78727226D01*
X93024533Y-78676438D01*
X92758032Y-78447728D01*
X92754523Y-78442457D01*
X92754274Y-78436128D01*
X92757360Y-78430598D01*
X92960555Y-78226460D01*
X92964373Y-78223904D01*
X92968882Y-78223016D01*
X93258685Y-78223966D01*
G37*
G04 #@! TD.AperFunction*
G04 #@! TA.AperFunction,Conductor*
G36*
X73884995Y-71677324D02*
G01*
X73888733Y-71684962D01*
X73937586Y-72271203D01*
X73936373Y-72277443D01*
X73932076Y-72282128D01*
X73925964Y-72283875D01*
X73633877Y-72284833D01*
X73633801Y-72284833D01*
X73341713Y-72283875D01*
X73335601Y-72282128D01*
X73331304Y-72277443D01*
X73330091Y-72271205D01*
X73378945Y-71684962D01*
X73382683Y-71677324D01*
X73390605Y-71674234D01*
X73877073Y-71674234D01*
X73884995Y-71677324D01*
G37*
G04 #@! TD.AperFunction*
G04 #@! TA.AperFunction,Conductor*
G36*
X73925965Y-71373972D02*
G01*
X73932076Y-71375719D01*
X73936373Y-71380404D01*
X73937586Y-71386644D01*
X73888733Y-71972886D01*
X73884995Y-71980524D01*
X73877073Y-71983614D01*
X73390605Y-71983614D01*
X73382683Y-71980524D01*
X73378945Y-71972886D01*
X73330091Y-71386644D01*
X73331304Y-71380404D01*
X73335601Y-71375719D01*
X73341711Y-71373972D01*
X73633839Y-71373014D01*
X73925965Y-71373972D01*
G37*
G04 #@! TD.AperFunction*
G04 #@! TA.AperFunction,Conductor*
G36*
X81926240Y-77956832D02*
G01*
X81930095Y-77961741D01*
X82040827Y-78226794D01*
X82041731Y-78231294D01*
X82040835Y-78235795D01*
X81929490Y-78503656D01*
X81923595Y-78509785D01*
X81915108Y-78510304D01*
X81554654Y-78394509D01*
X81549959Y-78391643D01*
X81384064Y-78225748D01*
X81380765Y-78219204D01*
X81382007Y-78211981D01*
X81387300Y-78206915D01*
X81914267Y-77955689D01*
X81920410Y-77954604D01*
X81926240Y-77956832D01*
G37*
G04 #@! TD.AperFunction*
G04 #@! TA.AperFunction,Conductor*
G36*
X81132039Y-92964452D02*
G01*
X81136357Y-92969328D01*
X81137398Y-92975757D01*
X81078051Y-93461751D01*
X81074207Y-93469080D01*
X81066475Y-93472033D01*
X80776883Y-93472983D01*
X80772373Y-93472095D01*
X80768553Y-93469537D01*
X80565232Y-93265273D01*
X80562158Y-93259797D01*
X80562359Y-93253520D01*
X80565773Y-93248256D01*
X80885682Y-92965570D01*
X80893428Y-92962639D01*
X81125784Y-92962639D01*
X81132039Y-92964452D01*
G37*
G04 #@! TD.AperFunction*
G04 #@! TA.AperFunction,Conductor*
G36*
X84588359Y-89717663D02*
G01*
X84942532Y-89883663D01*
X84948473Y-89890020D01*
X84948382Y-89898721D01*
X84837860Y-90166492D01*
X84835311Y-90170309D01*
X84831490Y-90172851D01*
X84565418Y-90282117D01*
X84559342Y-90282880D01*
X84553714Y-90280470D01*
X84550073Y-90275546D01*
X84338222Y-89732509D01*
X84337865Y-89725074D01*
X84342065Y-89718927D01*
X84349123Y-89716558D01*
X84583395Y-89716558D01*
X84588359Y-89717663D01*
G37*
G04 #@! TD.AperFunction*
G04 #@! TA.AperFunction,Conductor*
G36*
X120897609Y-113235465D02*
G01*
X120902294Y-113239762D01*
X120904041Y-113245874D01*
X120905000Y-113538000D01*
X120905000Y-113538076D01*
X120904041Y-113830125D01*
X120902294Y-113836237D01*
X120897609Y-113840534D01*
X120891369Y-113841747D01*
X120305128Y-113792894D01*
X120297490Y-113789156D01*
X120294400Y-113781234D01*
X120294400Y-113294766D01*
X120297490Y-113286844D01*
X120305128Y-113283106D01*
X120305127Y-113283106D01*
X120891371Y-113234252D01*
X120897609Y-113235465D01*
G37*
G04 #@! TD.AperFunction*
G04 #@! TA.AperFunction,Conductor*
G36*
X111002509Y-122174883D02*
G01*
X111269713Y-122286512D01*
X111275820Y-122292391D01*
X111276354Y-122300850D01*
X111125592Y-122775442D01*
X111121349Y-122781343D01*
X111114441Y-122783600D01*
X110881559Y-122783600D01*
X110874651Y-122781343D01*
X110870408Y-122775442D01*
X110719645Y-122300850D01*
X110720179Y-122292391D01*
X110726284Y-122286513D01*
X110993490Y-122174883D01*
X110998000Y-122173980D01*
X111002509Y-122174883D01*
G37*
G04 #@! TD.AperFunction*
G04 #@! TA.AperFunction,Conductor*
G36*
X82925702Y-92971149D02*
G01*
X82930019Y-92976188D01*
X82930900Y-92982765D01*
X82856335Y-93462130D01*
X82852399Y-93469206D01*
X82844812Y-93472032D01*
X82554883Y-93472983D01*
X82550373Y-93472095D01*
X82546553Y-93469537D01*
X82343541Y-93265583D01*
X82340436Y-93259976D01*
X82340752Y-93253575D01*
X82344390Y-93248302D01*
X82666620Y-92982765D01*
X82679759Y-92971938D01*
X82687200Y-92969267D01*
X82919339Y-92969267D01*
X82925702Y-92971149D01*
G37*
G04 #@! TD.AperFunction*
G04 #@! TA.AperFunction,Conductor*
G36*
X80642241Y-92971938D02*
G01*
X80977607Y-93248300D01*
X80981247Y-93253575D01*
X80981563Y-93259976D01*
X80978458Y-93265583D01*
X80775446Y-93469537D01*
X80771626Y-93472095D01*
X80767116Y-93472983D01*
X80477187Y-93472032D01*
X80469600Y-93469206D01*
X80465665Y-93462131D01*
X80391100Y-92982765D01*
X80391981Y-92976188D01*
X80396298Y-92971149D01*
X80402661Y-92969267D01*
X80634800Y-92969267D01*
X80642241Y-92971938D01*
G37*
G04 #@! TD.AperFunction*
G04 #@! TA.AperFunction,Conductor*
G36*
X83926039Y-92964452D02*
G01*
X83930357Y-92969328D01*
X83931398Y-92975757D01*
X83872051Y-93461751D01*
X83868207Y-93469080D01*
X83860475Y-93472033D01*
X83570883Y-93472983D01*
X83566373Y-93472095D01*
X83562553Y-93469537D01*
X83359232Y-93265273D01*
X83356158Y-93259797D01*
X83356359Y-93253520D01*
X83359773Y-93248256D01*
X83679682Y-92965570D01*
X83687428Y-92962639D01*
X83919784Y-92962639D01*
X83926039Y-92964452D01*
G37*
G04 #@! TD.AperFunction*
G04 #@! TA.AperFunction,Conductor*
G36*
X83436241Y-92971938D02*
G01*
X83771607Y-93248300D01*
X83775247Y-93253575D01*
X83775563Y-93259976D01*
X83772458Y-93265583D01*
X83569446Y-93469537D01*
X83565626Y-93472095D01*
X83561116Y-93472983D01*
X83271187Y-93472032D01*
X83263600Y-93469206D01*
X83259665Y-93462131D01*
X83185100Y-92982765D01*
X83185981Y-92976188D01*
X83190298Y-92971149D01*
X83196661Y-92969267D01*
X83428800Y-92969267D01*
X83436241Y-92971938D01*
G37*
G04 #@! TD.AperFunction*
G04 #@! TA.AperFunction,Conductor*
G36*
X95484995Y-70767504D02*
G01*
X95488733Y-70775142D01*
X95537586Y-71361383D01*
X95536373Y-71367623D01*
X95532076Y-71372308D01*
X95525964Y-71374055D01*
X95233877Y-71375013D01*
X95233801Y-71375013D01*
X94941713Y-71374055D01*
X94935601Y-71372308D01*
X94931304Y-71367623D01*
X94930091Y-71361385D01*
X94978945Y-70775141D01*
X94982683Y-70767504D01*
X94990605Y-70764414D01*
X95477073Y-70764414D01*
X95484995Y-70767504D01*
G37*
G04 #@! TD.AperFunction*
G04 #@! TA.AperFunction,Conductor*
G36*
X113542509Y-121920883D02*
G01*
X113809713Y-122032512D01*
X113815820Y-122038391D01*
X113816354Y-122046850D01*
X113665592Y-122521442D01*
X113661349Y-122527343D01*
X113654441Y-122529600D01*
X113421559Y-122529600D01*
X113414651Y-122527343D01*
X113410408Y-122521442D01*
X113259645Y-122046850D01*
X113260179Y-122038391D01*
X113266284Y-122032513D01*
X113533490Y-121920883D01*
X113538000Y-121919980D01*
X113542509Y-121920883D01*
G37*
G04 #@! TD.AperFunction*
G04 #@! TA.AperFunction,Conductor*
G36*
X94993156Y-93423490D02*
G01*
X94996894Y-93431128D01*
X95045747Y-94017369D01*
X95044534Y-94023609D01*
X95040237Y-94028294D01*
X95034125Y-94030041D01*
X94742038Y-94030999D01*
X94741962Y-94030999D01*
X94449874Y-94030041D01*
X94443762Y-94028294D01*
X94439465Y-94023609D01*
X94438252Y-94017371D01*
X94487106Y-93431127D01*
X94490844Y-93423490D01*
X94498766Y-93420400D01*
X94985234Y-93420400D01*
X94993156Y-93423490D01*
G37*
G04 #@! TD.AperFunction*
G04 #@! TA.AperFunction,Conductor*
G36*
X91312248Y-92971959D02*
G01*
X91645658Y-93248295D01*
X91649280Y-93253569D01*
X91649586Y-93259961D01*
X91646484Y-93265557D01*
X91443446Y-93469537D01*
X91439626Y-93472095D01*
X91435116Y-93472983D01*
X91145148Y-93472032D01*
X91137578Y-93469221D01*
X91133632Y-93462176D01*
X91057160Y-92982808D01*
X91058022Y-92976216D01*
X91062338Y-92971157D01*
X91068714Y-92969267D01*
X91304782Y-92969267D01*
X91312248Y-92971959D01*
G37*
G04 #@! TD.AperFunction*
G04 #@! TA.AperFunction,Conductor*
G36*
X78778126Y-77723958D02*
G01*
X78784237Y-77725705D01*
X78788534Y-77730390D01*
X78789747Y-77736630D01*
X78740894Y-78322872D01*
X78737156Y-78330510D01*
X78729234Y-78333600D01*
X78242766Y-78333600D01*
X78234844Y-78330510D01*
X78231106Y-78322872D01*
X78182252Y-77736630D01*
X78183465Y-77730390D01*
X78187762Y-77725705D01*
X78193872Y-77723958D01*
X78486000Y-77723000D01*
X78778126Y-77723958D01*
G37*
G04 #@! TD.AperFunction*
G04 #@! TA.AperFunction,Conductor*
G36*
X45504126Y-151891958D02*
G01*
X45510237Y-151893705D01*
X45514534Y-151898390D01*
X45515747Y-151904630D01*
X45466894Y-152490872D01*
X45463156Y-152498510D01*
X45455234Y-152501600D01*
X44968766Y-152501600D01*
X44960844Y-152498510D01*
X44957106Y-152490872D01*
X44908252Y-151904630D01*
X44909465Y-151898390D01*
X44913762Y-151893705D01*
X44919872Y-151891958D01*
X45212000Y-151891000D01*
X45504126Y-151891958D01*
G37*
G04 #@! TD.AperFunction*
G04 #@! TA.AperFunction,Conductor*
G36*
X113886715Y-121406612D02*
G01*
X114051387Y-121571284D01*
X114054676Y-121577765D01*
X114053504Y-121584937D01*
X113824523Y-122027129D01*
X113818163Y-122032733D01*
X113809688Y-122032572D01*
X113541814Y-121922563D01*
X113537986Y-121920013D01*
X113535436Y-121916185D01*
X113425427Y-121648311D01*
X113425266Y-121639836D01*
X113430869Y-121633476D01*
X113873064Y-121404494D01*
X113880234Y-121403323D01*
X113886715Y-121406612D01*
G37*
G04 #@! TD.AperFunction*
G04 #@! TA.AperFunction,Conductor*
G36*
X90972516Y-78231966D02*
G01*
X90980231Y-78234904D01*
X90984086Y-78242203D01*
X91045341Y-78728198D01*
X91044319Y-78734645D01*
X91040001Y-78739540D01*
X91033733Y-78741361D01*
X90797449Y-78741361D01*
X90789675Y-78738405D01*
X90471725Y-78455750D01*
X90468327Y-78450483D01*
X90468136Y-78444217D01*
X90471207Y-78438752D01*
X90674555Y-78234460D01*
X90678373Y-78231904D01*
X90682882Y-78231016D01*
X90972516Y-78231966D01*
G37*
G04 #@! TD.AperFunction*
G04 #@! TA.AperFunction,Conductor*
G36*
X86865156Y-93423490D02*
G01*
X86868894Y-93431128D01*
X86917747Y-94017369D01*
X86916534Y-94023609D01*
X86912237Y-94028294D01*
X86906125Y-94030041D01*
X86614038Y-94030999D01*
X86613962Y-94030999D01*
X86321874Y-94030041D01*
X86315762Y-94028294D01*
X86311465Y-94023609D01*
X86310252Y-94017371D01*
X86359106Y-93431127D01*
X86362844Y-93423490D01*
X86370766Y-93420400D01*
X86857234Y-93420400D01*
X86865156Y-93423490D01*
G37*
G04 #@! TD.AperFunction*
G04 #@! TA.AperFunction,Conductor*
G36*
X111895608Y-105386179D02*
G01*
X111901487Y-105392286D01*
X112013115Y-105659490D01*
X112014019Y-105664000D01*
X112013115Y-105668510D01*
X111901487Y-105935713D01*
X111895608Y-105941820D01*
X111887149Y-105942354D01*
X111569459Y-105841434D01*
X111412556Y-105791591D01*
X111406657Y-105787349D01*
X111404400Y-105780441D01*
X111404400Y-105547559D01*
X111406657Y-105540651D01*
X111412556Y-105536408D01*
X111887149Y-105385645D01*
X111895608Y-105386179D01*
G37*
G04 #@! TD.AperFunction*
G04 #@! TA.AperFunction,Conductor*
G36*
X114551156Y-95151490D02*
G01*
X114554894Y-95159128D01*
X114603747Y-95745369D01*
X114602534Y-95751609D01*
X114598237Y-95756294D01*
X114592125Y-95758041D01*
X114300038Y-95758999D01*
X114299962Y-95758999D01*
X114007874Y-95758041D01*
X114001762Y-95756294D01*
X113997465Y-95751609D01*
X113996252Y-95745371D01*
X114045105Y-95159128D01*
X114048844Y-95151490D01*
X114056766Y-95148400D01*
X114543234Y-95148400D01*
X114551156Y-95151490D01*
G37*
G04 #@! TD.AperFunction*
G04 #@! TA.AperFunction,Conductor*
G36*
X90312325Y-92965595D02*
G01*
X90630274Y-93248249D01*
X90633672Y-93253516D01*
X90633863Y-93259782D01*
X90630792Y-93265247D01*
X90427446Y-93469537D01*
X90423626Y-93472095D01*
X90419116Y-93472983D01*
X90129483Y-93472033D01*
X90121768Y-93469095D01*
X90117914Y-93461798D01*
X90056659Y-92975801D01*
X90057681Y-92969355D01*
X90061999Y-92964460D01*
X90068267Y-92962639D01*
X90304551Y-92962639D01*
X90312325Y-92965595D01*
G37*
G04 #@! TD.AperFunction*
G04 #@! TA.AperFunction,Conductor*
G36*
X88389156Y-93423490D02*
G01*
X88392894Y-93431128D01*
X88441747Y-94017369D01*
X88440534Y-94023609D01*
X88436237Y-94028294D01*
X88430125Y-94030041D01*
X88138038Y-94030999D01*
X88137962Y-94030999D01*
X87845874Y-94030041D01*
X87839762Y-94028294D01*
X87835465Y-94023609D01*
X87834252Y-94017371D01*
X87883106Y-93431127D01*
X87886844Y-93423490D01*
X87894766Y-93420400D01*
X88381234Y-93420400D01*
X88389156Y-93423490D01*
G37*
G04 #@! TD.AperFunction*
G04 #@! TA.AperFunction,Conductor*
G36*
X93469156Y-93423490D02*
G01*
X93472894Y-93431128D01*
X93521747Y-94017369D01*
X93520534Y-94023609D01*
X93516237Y-94028294D01*
X93510125Y-94030041D01*
X93218038Y-94030999D01*
X93217962Y-94030999D01*
X92925874Y-94030041D01*
X92919762Y-94028294D01*
X92915465Y-94023609D01*
X92914252Y-94017371D01*
X92963106Y-93431127D01*
X92966844Y-93423490D01*
X92974766Y-93420400D01*
X93461234Y-93420400D01*
X93469156Y-93423490D01*
G37*
G04 #@! TD.AperFunction*
G04 #@! TA.AperFunction,Conductor*
G36*
X116223047Y-95193606D02*
G01*
X116390471Y-95361030D01*
X116393570Y-95366553D01*
X116393337Y-95372882D01*
X116235971Y-95862588D01*
X116232459Y-95867882D01*
X116226698Y-95870559D01*
X116220387Y-95869832D01*
X115951980Y-95759605D01*
X115948125Y-95757028D01*
X115744510Y-95552073D01*
X115741368Y-95546268D01*
X115741867Y-95539687D01*
X115745846Y-95534425D01*
X116207816Y-95192474D01*
X116215640Y-95190211D01*
X116223047Y-95193606D01*
G37*
G04 #@! TD.AperFunction*
G04 #@! TA.AperFunction,Conductor*
G36*
X90677626Y-78231904D02*
G01*
X90681446Y-78234462D01*
X90884484Y-78438442D01*
X90887586Y-78444038D01*
X90887280Y-78450430D01*
X90883658Y-78455704D01*
X90550248Y-78732041D01*
X90542782Y-78734733D01*
X90306714Y-78734733D01*
X90300338Y-78732843D01*
X90296022Y-78727784D01*
X90295160Y-78721190D01*
X90371633Y-78241822D01*
X90375578Y-78234778D01*
X90383147Y-78231967D01*
X90673116Y-78231016D01*
X90677626Y-78231904D01*
G37*
G04 #@! TD.AperFunction*
G04 #@! TA.AperFunction,Conductor*
G36*
X93091733Y-77947689D02*
G01*
X93618697Y-78198914D01*
X93623992Y-78203981D01*
X93625234Y-78211204D01*
X93621935Y-78217748D01*
X93456040Y-78383643D01*
X93451345Y-78386509D01*
X93090891Y-78502304D01*
X93082404Y-78501785D01*
X93076509Y-78495656D01*
X93030779Y-78385644D01*
X92965163Y-78227793D01*
X92964268Y-78223294D01*
X92965171Y-78218796D01*
X93075905Y-77953738D01*
X93079759Y-77948832D01*
X93085589Y-77946604D01*
X93091733Y-77947689D01*
G37*
G04 #@! TD.AperFunction*
G04 #@! TA.AperFunction,Conductor*
G36*
X49273156Y-81943490D02*
G01*
X49276894Y-81951128D01*
X49325747Y-82537369D01*
X49324534Y-82543609D01*
X49320237Y-82548294D01*
X49314125Y-82550041D01*
X49022038Y-82550999D01*
X49021962Y-82550999D01*
X48729874Y-82550041D01*
X48723762Y-82548294D01*
X48719465Y-82543609D01*
X48718252Y-82537371D01*
X48767106Y-81951128D01*
X48770844Y-81943490D01*
X48778766Y-81940400D01*
X49265234Y-81940400D01*
X49273156Y-81943490D01*
G37*
G04 #@! TD.AperFunction*
G04 #@! TA.AperFunction,Conductor*
G36*
X82336685Y-78231966D02*
G01*
X82344326Y-78234840D01*
X82348228Y-78242013D01*
X82417095Y-78724694D01*
X82416151Y-78731215D01*
X82411834Y-78736192D01*
X82405512Y-78738047D01*
X82169333Y-78738047D01*
X82161713Y-78735226D01*
X82102533Y-78684438D01*
X81836032Y-78455728D01*
X81832523Y-78450457D01*
X81832274Y-78444128D01*
X81835360Y-78438598D01*
X82038555Y-78234460D01*
X82042373Y-78231904D01*
X82046882Y-78231016D01*
X82336685Y-78231966D01*
G37*
G04 #@! TD.AperFunction*
G04 #@! TA.AperFunction,Conductor*
G36*
X104284976Y-70767490D02*
G01*
X104288714Y-70775128D01*
X104337567Y-71361369D01*
X104336354Y-71367609D01*
X104332057Y-71372294D01*
X104325945Y-71374041D01*
X104033858Y-71374999D01*
X104033782Y-71374999D01*
X103741694Y-71374041D01*
X103735582Y-71372294D01*
X103731285Y-71367609D01*
X103730072Y-71361371D01*
X103778926Y-70775128D01*
X103782664Y-70767490D01*
X103790586Y-70764400D01*
X104277054Y-70764400D01*
X104284976Y-70767490D01*
G37*
G04 #@! TD.AperFunction*
G04 #@! TA.AperFunction,Conductor*
G36*
X118322123Y-86260511D02*
G01*
X118326407Y-86266086D01*
X118499763Y-86740856D01*
X118499492Y-86749559D01*
X118493283Y-86755665D01*
X118226509Y-86867114D01*
X118221999Y-86868018D01*
X118217489Y-86867114D01*
X117950716Y-86755665D01*
X117944507Y-86749559D01*
X117944236Y-86740856D01*
X118117593Y-86266086D01*
X118121877Y-86260511D01*
X118128583Y-86258399D01*
X118315417Y-86258399D01*
X118322123Y-86260511D01*
G37*
G04 #@! TD.AperFunction*
G04 #@! TA.AperFunction,Conductor*
G36*
X67815156Y-86819490D02*
G01*
X67818894Y-86827128D01*
X67867747Y-87413369D01*
X67866534Y-87419609D01*
X67862237Y-87424294D01*
X67856125Y-87426041D01*
X67564038Y-87426999D01*
X67563962Y-87426999D01*
X67271874Y-87426041D01*
X67265762Y-87424294D01*
X67261465Y-87419609D01*
X67260252Y-87413371D01*
X67309106Y-86827128D01*
X67312844Y-86819490D01*
X67320766Y-86816400D01*
X67807234Y-86816400D01*
X67815156Y-86819490D01*
G37*
G04 #@! TD.AperFunction*
G04 #@! TA.AperFunction,Conductor*
G36*
X68465226Y-112679938D02*
G01*
X68469432Y-112686055D01*
X68604724Y-113157348D01*
X68604025Y-113165641D01*
X68597988Y-113171372D01*
X68330510Y-113283115D01*
X68326000Y-113284019D01*
X68321490Y-113283115D01*
X68054600Y-113171618D01*
X68048418Y-113165573D01*
X68048075Y-113156935D01*
X68214247Y-112685393D01*
X68218522Y-112679733D01*
X68225282Y-112677583D01*
X68458186Y-112677583D01*
X68465226Y-112679938D01*
G37*
G04 #@! TD.AperFunction*
G04 #@! TA.AperFunction,Conductor*
G36*
X76451156Y-93423490D02*
G01*
X76454894Y-93431128D01*
X76503747Y-94017369D01*
X76502534Y-94023609D01*
X76498237Y-94028294D01*
X76492125Y-94030041D01*
X76200038Y-94030999D01*
X76199962Y-94030999D01*
X75907874Y-94030041D01*
X75901762Y-94028294D01*
X75897465Y-94023609D01*
X75896252Y-94017371D01*
X75945106Y-93431127D01*
X75948844Y-93423490D01*
X75956766Y-93420400D01*
X76443234Y-93420400D01*
X76451156Y-93423490D01*
G37*
G04 #@! TD.AperFunction*
G04 #@! TA.AperFunction,Conductor*
G36*
X103917127Y-130977924D02*
G01*
X104233443Y-131078408D01*
X104239343Y-131082651D01*
X104241600Y-131089559D01*
X104241600Y-131322441D01*
X104239343Y-131329349D01*
X104233443Y-131333591D01*
X104106358Y-131373962D01*
X103758850Y-131484354D01*
X103750391Y-131483820D01*
X103744512Y-131477713D01*
X103632884Y-131210509D01*
X103631980Y-131205999D01*
X103632883Y-131201491D01*
X103744513Y-130934284D01*
X103750391Y-130928179D01*
X103758850Y-130927645D01*
X103917127Y-130977924D01*
G37*
G04 #@! TD.AperFunction*
G04 #@! TA.AperFunction,Conductor*
G36*
X47028126Y-109473958D02*
G01*
X47034237Y-109475705D01*
X47038534Y-109480390D01*
X47039747Y-109486630D01*
X46990894Y-110072872D01*
X46987156Y-110080510D01*
X46979234Y-110083600D01*
X46492766Y-110083600D01*
X46484844Y-110080510D01*
X46481106Y-110072872D01*
X46432252Y-109486630D01*
X46433465Y-109480390D01*
X46437762Y-109475705D01*
X46443872Y-109473958D01*
X46736000Y-109473000D01*
X47028126Y-109473958D01*
G37*
G04 #@! TD.AperFunction*
G04 #@! TA.AperFunction,Conductor*
G36*
X119526509Y-78232884D02*
G01*
X119793283Y-78344333D01*
X119799492Y-78350439D01*
X119799763Y-78359142D01*
X119626407Y-78833913D01*
X119622123Y-78839488D01*
X119615417Y-78841600D01*
X119428583Y-78841600D01*
X119421877Y-78839488D01*
X119417593Y-78833913D01*
X119244236Y-78359142D01*
X119244507Y-78350439D01*
X119250716Y-78344333D01*
X119517491Y-78232883D01*
X119521999Y-78231980D01*
X119526509Y-78232884D01*
G37*
G04 #@! TD.AperFunction*
G04 #@! TA.AperFunction,Conductor*
G36*
X90801662Y-92971157D02*
G01*
X90805978Y-92976216D01*
X90806840Y-92982810D01*
X90730367Y-93462175D01*
X90726421Y-93469221D01*
X90718851Y-93472032D01*
X90428883Y-93472983D01*
X90424373Y-93472095D01*
X90420553Y-93469537D01*
X90217515Y-93265557D01*
X90214413Y-93259961D01*
X90214719Y-93253569D01*
X90218339Y-93248297D01*
X90551752Y-92971958D01*
X90559218Y-92969267D01*
X90795286Y-92969267D01*
X90801662Y-92971157D01*
G37*
G04 #@! TD.AperFunction*
G04 #@! TA.AperFunction,Conductor*
G36*
X88176126Y-77723958D02*
G01*
X88182237Y-77725705D01*
X88186534Y-77730390D01*
X88187747Y-77736630D01*
X88138894Y-78322872D01*
X88135156Y-78330510D01*
X88127234Y-78333600D01*
X87640766Y-78333600D01*
X87632844Y-78330510D01*
X87629106Y-78322872D01*
X87580252Y-77736630D01*
X87581465Y-77730390D01*
X87585762Y-77725705D01*
X87591872Y-77723958D01*
X87884000Y-77723000D01*
X88176126Y-77723958D01*
G37*
G04 #@! TD.AperFunction*
G04 #@! TA.AperFunction,Conductor*
G36*
X99991391Y-113352602D02*
G01*
X100169401Y-113408429D01*
X100175330Y-113412667D01*
X100177600Y-113419593D01*
X100177600Y-113656407D01*
X100175330Y-113663333D01*
X100169401Y-113667571D01*
X99694825Y-113816404D01*
X99686387Y-113815847D01*
X99680528Y-113809750D01*
X99568884Y-113542509D01*
X99567980Y-113537999D01*
X99568883Y-113533491D01*
X99680528Y-113266248D01*
X99686387Y-113260152D01*
X99694823Y-113259595D01*
X99991391Y-113352602D01*
G37*
G04 #@! TD.AperFunction*
G04 #@! TA.AperFunction,Conductor*
G36*
X116583155Y-85944490D02*
G01*
X116586893Y-85952128D01*
X116635746Y-86538369D01*
X116634533Y-86544609D01*
X116630236Y-86549294D01*
X116624124Y-86551041D01*
X116332037Y-86551999D01*
X116331961Y-86551999D01*
X116039873Y-86551041D01*
X116033761Y-86549294D01*
X116029464Y-86544609D01*
X116028251Y-86538371D01*
X116077105Y-85952127D01*
X116080843Y-85944490D01*
X116088765Y-85941400D01*
X116575233Y-85941400D01*
X116583155Y-85944490D01*
G37*
G04 #@! TD.AperFunction*
G04 #@! TA.AperFunction,Conductor*
G36*
X93986359Y-89591163D02*
G01*
X94340532Y-89757163D01*
X94346473Y-89763520D01*
X94346382Y-89772221D01*
X94235860Y-90039992D01*
X94233311Y-90043809D01*
X94229490Y-90046351D01*
X93963418Y-90155617D01*
X93957342Y-90156380D01*
X93951714Y-90153970D01*
X93948073Y-90149046D01*
X93736222Y-89606009D01*
X93735865Y-89598574D01*
X93740065Y-89592427D01*
X93747123Y-89590058D01*
X93981395Y-89590058D01*
X93986359Y-89591163D01*
G37*
G04 #@! TD.AperFunction*
G04 #@! TA.AperFunction,Conductor*
G36*
X117184872Y-117855106D02*
G01*
X117192510Y-117858844D01*
X117195600Y-117866766D01*
X117195600Y-118353234D01*
X117192510Y-118361156D01*
X117184872Y-118364894D01*
X116598630Y-118413747D01*
X116592390Y-118412534D01*
X116587705Y-118408237D01*
X116585958Y-118402125D01*
X116585000Y-118110076D01*
X116585000Y-118110000D01*
X116585958Y-117817874D01*
X116587705Y-117811762D01*
X116592390Y-117807465D01*
X116598628Y-117806252D01*
X117184872Y-117855106D01*
G37*
G04 #@! TD.AperFunction*
G04 #@! TA.AperFunction,Conductor*
G36*
X116583156Y-81118490D02*
G01*
X116586894Y-81126128D01*
X116635747Y-81712369D01*
X116634534Y-81718609D01*
X116630237Y-81723294D01*
X116624125Y-81725041D01*
X116332038Y-81725999D01*
X116331962Y-81725999D01*
X116039874Y-81725041D01*
X116033762Y-81723294D01*
X116029465Y-81718609D01*
X116028252Y-81712371D01*
X116077106Y-81126128D01*
X116080844Y-81118490D01*
X116088766Y-81115400D01*
X116575234Y-81115400D01*
X116583156Y-81118490D01*
G37*
G04 #@! TD.AperFunction*
G04 #@! TA.AperFunction,Conductor*
G36*
X52486257Y-70359957D02*
G01*
X52491040Y-70362851D01*
X52655627Y-70527438D01*
X52659050Y-70535408D01*
X52656044Y-70543545D01*
X52293749Y-70945404D01*
X52288487Y-70948756D01*
X52282251Y-70948928D01*
X52276813Y-70945870D01*
X52072758Y-70743149D01*
X52070197Y-70739332D01*
X52069304Y-70734822D01*
X52069747Y-70543545D01*
X52069977Y-70443941D01*
X52072704Y-70436462D01*
X52079583Y-70432459D01*
X52480676Y-70359612D01*
X52486257Y-70359957D01*
G37*
G04 #@! TD.AperFunction*
G04 #@! TA.AperFunction,Conductor*
G36*
X115266871Y-74281105D02*
G01*
X115266872Y-74281106D01*
X115274510Y-74284844D01*
X115277600Y-74292766D01*
X115277600Y-74779234D01*
X115274510Y-74787156D01*
X115266872Y-74790894D01*
X114680630Y-74839747D01*
X114674390Y-74838534D01*
X114669705Y-74834237D01*
X114667958Y-74828125D01*
X114667000Y-74536076D01*
X114667000Y-74536000D01*
X114667958Y-74243874D01*
X114669705Y-74237762D01*
X114674390Y-74233465D01*
X114680628Y-74232252D01*
X115266871Y-74281105D01*
G37*
G04 #@! TD.AperFunction*
G04 #@! TA.AperFunction,Conductor*
G36*
X83484976Y-71727310D02*
G01*
X83488714Y-71734948D01*
X83537567Y-72321189D01*
X83536354Y-72327429D01*
X83532057Y-72332114D01*
X83525945Y-72333861D01*
X83233858Y-72334819D01*
X83233782Y-72334819D01*
X82941694Y-72333861D01*
X82935582Y-72332114D01*
X82931285Y-72327429D01*
X82930072Y-72321191D01*
X82978926Y-71734948D01*
X82982664Y-71727310D01*
X82990586Y-71724220D01*
X83477054Y-71724220D01*
X83484976Y-71727310D01*
G37*
G04 #@! TD.AperFunction*
G04 #@! TA.AperFunction,Conductor*
G36*
X83525946Y-72333778D02*
G01*
X83532057Y-72335525D01*
X83536354Y-72340210D01*
X83537567Y-72346450D01*
X83488714Y-72932692D01*
X83484976Y-72940330D01*
X83477054Y-72943420D01*
X82990586Y-72943420D01*
X82982664Y-72940330D01*
X82978926Y-72932692D01*
X82930072Y-72346450D01*
X82931285Y-72340210D01*
X82935582Y-72335525D01*
X82941692Y-72333778D01*
X83233820Y-72332820D01*
X83525946Y-72333778D01*
G37*
G04 #@! TD.AperFunction*
G04 #@! TA.AperFunction,Conductor*
G36*
X83484976Y-72799490D02*
G01*
X83488714Y-72807128D01*
X83537567Y-73393369D01*
X83536354Y-73399609D01*
X83532057Y-73404294D01*
X83525945Y-73406041D01*
X83233858Y-73406999D01*
X83233782Y-73406999D01*
X82941694Y-73406041D01*
X82935582Y-73404294D01*
X82931285Y-73399609D01*
X82930072Y-73393371D01*
X82978926Y-72807127D01*
X82982664Y-72799490D01*
X82990586Y-72796400D01*
X83477054Y-72796400D01*
X83484976Y-72799490D01*
G37*
G04 #@! TD.AperFunction*
G04 #@! TA.AperFunction,Conductor*
G36*
X83484976Y-70767490D02*
G01*
X83488714Y-70775128D01*
X83537567Y-71361369D01*
X83536354Y-71367609D01*
X83532057Y-71372294D01*
X83525945Y-71374041D01*
X83233858Y-71374999D01*
X83233782Y-71374999D01*
X82941694Y-71374041D01*
X82935582Y-71372294D01*
X82931285Y-71367609D01*
X82930072Y-71361371D01*
X82978926Y-70775128D01*
X82982664Y-70767490D01*
X82990586Y-70764400D01*
X83477054Y-70764400D01*
X83484976Y-70767490D01*
G37*
G04 #@! TD.AperFunction*
G04 #@! TA.AperFunction,Conductor*
G36*
X98720379Y-71774817D02*
G01*
X98776015Y-71881293D01*
X98923524Y-72163598D01*
X98950714Y-72215633D01*
X98951909Y-72222822D01*
X98948617Y-72229324D01*
X98781163Y-72396778D01*
X98774661Y-72400070D01*
X98767473Y-72398875D01*
X98546953Y-72283649D01*
X98326656Y-72168540D01*
X98321083Y-72162180D01*
X98321250Y-72153726D01*
X98431275Y-71885812D01*
X98433825Y-71881986D01*
X98437651Y-71879436D01*
X98705565Y-71769411D01*
X98714019Y-71769244D01*
X98720379Y-71774817D01*
G37*
G04 #@! TD.AperFunction*
G04 #@! TA.AperFunction,Conductor*
G36*
X100320379Y-74314817D02*
G01*
X100376015Y-74421293D01*
X100523524Y-74703598D01*
X100550714Y-74755633D01*
X100551909Y-74762822D01*
X100548617Y-74769324D01*
X100381163Y-74936778D01*
X100374661Y-74940070D01*
X100367473Y-74938875D01*
X100146953Y-74823649D01*
X99926656Y-74708540D01*
X99921083Y-74702180D01*
X99921250Y-74693726D01*
X100031275Y-74425812D01*
X100033825Y-74421986D01*
X100037651Y-74419436D01*
X100305565Y-74309411D01*
X100314019Y-74309244D01*
X100320379Y-74314817D01*
G37*
G04 #@! TD.AperFunction*
G04 #@! TA.AperFunction,Conductor*
G36*
X124332211Y-128368689D02*
G01*
X124336102Y-128373641D01*
X124713136Y-129281512D01*
X124714031Y-129285999D01*
X124713136Y-129290486D01*
X124336102Y-130198358D01*
X124332211Y-130203310D01*
X124326316Y-130205527D01*
X124320126Y-130204366D01*
X122720529Y-129416217D01*
X122715765Y-129411902D01*
X122714000Y-129405722D01*
X122714000Y-129166278D01*
X122715765Y-129160098D01*
X122720529Y-129155783D01*
X124320129Y-128367632D01*
X124326316Y-128366472D01*
X124332211Y-128368689D01*
G37*
G04 #@! TD.AperFunction*
G04 #@! TA.AperFunction,Conductor*
G36*
X70559172Y-72544670D02*
G01*
X70563410Y-72550599D01*
X70712243Y-73025174D01*
X70711686Y-73033612D01*
X70705589Y-73039471D01*
X70438349Y-73151115D01*
X70433839Y-73152019D01*
X70429329Y-73151115D01*
X70162088Y-73039471D01*
X70155991Y-73033612D01*
X70155434Y-73025176D01*
X70304267Y-72550599D01*
X70308506Y-72544670D01*
X70315432Y-72542400D01*
X70552246Y-72542400D01*
X70559172Y-72544670D01*
G37*
G04 #@! TD.AperFunction*
G04 #@! TA.AperFunction,Conductor*
G36*
X45981230Y-100840002D02*
G01*
X46799586Y-101179862D01*
X46887704Y-101216457D01*
X46893891Y-101222472D01*
X46894272Y-101231093D01*
X46357727Y-102779608D01*
X46353457Y-102785309D01*
X46346672Y-102787477D01*
X46107238Y-102787477D01*
X46101734Y-102786102D01*
X46097524Y-102782299D01*
X45272253Y-101553091D01*
X45270322Y-101545439D01*
X45273688Y-101538302D01*
X45968467Y-100842540D01*
X45974464Y-100839333D01*
X45981230Y-100840002D01*
G37*
G04 #@! TD.AperFunction*
G04 #@! TA.AperFunction,Conductor*
G36*
X49032746Y-74572974D02*
G01*
X50019583Y-76866206D01*
X50020503Y-76871710D01*
X50018769Y-76877013D01*
X49279434Y-78064963D01*
X49275183Y-78069009D01*
X49269501Y-78070481D01*
X48774499Y-78070481D01*
X48768817Y-78069009D01*
X48764566Y-78064963D01*
X48600574Y-77801464D01*
X48025229Y-76877010D01*
X48023496Y-76871710D01*
X48024415Y-76866208D01*
X49011253Y-74572972D01*
X49017571Y-74566769D01*
X49026427Y-74566769D01*
X49032746Y-74572974D01*
G37*
G04 #@! TD.AperFunction*
G04 #@! TA.AperFunction,Conductor*
G36*
X81405333Y-99214670D02*
G01*
X81409571Y-99220599D01*
X81558404Y-99695174D01*
X81557847Y-99703612D01*
X81551750Y-99709471D01*
X81284510Y-99821115D01*
X81280000Y-99822019D01*
X81275490Y-99821115D01*
X81008249Y-99709471D01*
X81002152Y-99703612D01*
X81001595Y-99695176D01*
X81150428Y-99220599D01*
X81154667Y-99214670D01*
X81161593Y-99212400D01*
X81398407Y-99212400D01*
X81405333Y-99214670D01*
G37*
G04 #@! TD.AperFunction*
G04 #@! TA.AperFunction,Conductor*
G36*
X108010966Y-159284539D02*
G01*
X108177460Y-159451033D01*
X108180580Y-159456646D01*
X108180269Y-159463060D01*
X107607886Y-161152854D01*
X107604331Y-161158057D01*
X107598593Y-161160662D01*
X107592337Y-161159914D01*
X106683784Y-160784562D01*
X106679978Y-160782021D01*
X106677437Y-160778215D01*
X106302085Y-159869662D01*
X106301337Y-159863406D01*
X106303942Y-159857668D01*
X106309143Y-159854114D01*
X107998940Y-159281729D01*
X108005353Y-159281419D01*
X108010966Y-159284539D01*
G37*
G04 #@! TD.AperFunction*
G04 #@! TA.AperFunction,Conductor*
G36*
X88771333Y-89562670D02*
G01*
X88775571Y-89568599D01*
X88924404Y-90043174D01*
X88923847Y-90051612D01*
X88917750Y-90057471D01*
X88650510Y-90169115D01*
X88646000Y-90170019D01*
X88641490Y-90169115D01*
X88374249Y-90057471D01*
X88368152Y-90051612D01*
X88367595Y-90043176D01*
X88516428Y-89568599D01*
X88520667Y-89562670D01*
X88527593Y-89560400D01*
X88764407Y-89560400D01*
X88771333Y-89562670D01*
G37*
G04 #@! TD.AperFunction*
G04 #@! TA.AperFunction,Conductor*
G36*
X110188787Y-159031509D02*
G01*
X111693535Y-160066930D01*
X111697751Y-160072187D01*
X111698369Y-160078896D01*
X111695184Y-160084834D01*
X111002138Y-160779268D01*
X110998336Y-160781812D01*
X110993849Y-160782703D01*
X110009736Y-160782008D01*
X110003876Y-160780430D01*
X109999595Y-160776130D01*
X109998044Y-160770265D01*
X110003973Y-159207587D01*
X110007399Y-159199361D01*
X110173885Y-159032875D01*
X110181090Y-159029498D01*
X110188787Y-159031509D01*
G37*
G04 #@! TD.AperFunction*
G04 #@! TA.AperFunction,Conductor*
G36*
X103692966Y-159284539D02*
G01*
X103859460Y-159451033D01*
X103862580Y-159456646D01*
X103862269Y-159463060D01*
X103289886Y-161152854D01*
X103286331Y-161158057D01*
X103280593Y-161160662D01*
X103274337Y-161159914D01*
X102365784Y-160784562D01*
X102361978Y-160782021D01*
X102359437Y-160778215D01*
X101984085Y-159869662D01*
X101983337Y-159863406D01*
X101985942Y-159857668D01*
X101991143Y-159854114D01*
X103680940Y-159281729D01*
X103687353Y-159281419D01*
X103692966Y-159284539D01*
G37*
G04 #@! TD.AperFunction*
G04 #@! TA.AperFunction,Conductor*
G36*
X67990935Y-74160494D02*
G01*
X68313028Y-74327284D01*
X68433129Y-74389476D01*
X68438733Y-74395836D01*
X68438572Y-74404311D01*
X68328563Y-74672185D01*
X68326013Y-74676013D01*
X68322185Y-74678563D01*
X68054311Y-74788572D01*
X68045836Y-74788733D01*
X68039476Y-74783129D01*
X67843312Y-74404311D01*
X67810494Y-74340935D01*
X67809323Y-74333765D01*
X67812610Y-74327286D01*
X67977286Y-74162610D01*
X67983765Y-74159323D01*
X67990935Y-74160494D01*
G37*
G04 #@! TD.AperFunction*
G04 #@! TA.AperFunction,Conductor*
G36*
X114931511Y-159862199D02*
G01*
X114937586Y-159868417D01*
X115313708Y-160775474D01*
X115314374Y-160782242D01*
X115311165Y-160788237D01*
X114616157Y-161481856D01*
X114608644Y-161485251D01*
X114600758Y-161482849D01*
X113377590Y-160541930D01*
X113373726Y-160536649D01*
X113373302Y-160530119D01*
X113376449Y-160524385D01*
X113541954Y-160358880D01*
X113546267Y-160356145D01*
X114922825Y-159861887D01*
X114931511Y-159862199D01*
G37*
G04 #@! TD.AperFunction*
G04 #@! TA.AperFunction,Conductor*
G36*
X65536510Y-72136884D02*
G01*
X65803750Y-72248528D01*
X65809847Y-72254387D01*
X65810404Y-72262825D01*
X65661571Y-72737401D01*
X65657333Y-72743330D01*
X65650407Y-72745600D01*
X65413593Y-72745600D01*
X65406667Y-72743330D01*
X65402429Y-72737401D01*
X65346602Y-72559391D01*
X65253595Y-72262823D01*
X65254152Y-72254387D01*
X65260248Y-72248528D01*
X65527490Y-72136883D01*
X65532000Y-72135980D01*
X65536510Y-72136884D01*
G37*
G04 #@! TD.AperFunction*
G04 #@! TA.AperFunction,Conductor*
G36*
X67230363Y-75175123D02*
G01*
X67581055Y-75358366D01*
X67671182Y-75405459D01*
X67676755Y-75411819D01*
X67676587Y-75420274D01*
X67566563Y-75688185D01*
X67564013Y-75692013D01*
X67560185Y-75694563D01*
X67292274Y-75804587D01*
X67283819Y-75804755D01*
X67277459Y-75799182D01*
X67219461Y-75688185D01*
X67047123Y-75358363D01*
X67045929Y-75351177D01*
X67049219Y-75344677D01*
X67216677Y-75177219D01*
X67223177Y-75173929D01*
X67230363Y-75175123D01*
G37*
G04 #@! TD.AperFunction*
G04 #@! TA.AperFunction,Conductor*
G36*
X46367871Y-91283632D02*
G01*
X47967471Y-92071783D01*
X47972235Y-92076098D01*
X47974000Y-92082278D01*
X47974000Y-92321722D01*
X47972235Y-92327902D01*
X47967471Y-92332217D01*
X46367873Y-93120366D01*
X46361683Y-93121527D01*
X46355788Y-93119310D01*
X46351899Y-93114360D01*
X45974862Y-92206485D01*
X45973968Y-92202000D01*
X45974863Y-92197513D01*
X46351899Y-91289637D01*
X46355788Y-91284689D01*
X46361683Y-91282472D01*
X46367871Y-91283632D01*
G37*
G04 #@! TD.AperFunction*
G04 #@! TA.AperFunction,Conductor*
G36*
X45465183Y-156753991D02*
G01*
X45469434Y-156758037D01*
X46208769Y-157945986D01*
X46210503Y-157951289D01*
X46209583Y-157956793D01*
X45222747Y-160250025D01*
X45216428Y-160256230D01*
X45207572Y-160256230D01*
X45201253Y-160250025D01*
X44214416Y-157956793D01*
X44213496Y-157951289D01*
X44215228Y-157945990D01*
X44954565Y-156758037D01*
X44958817Y-156753991D01*
X44964499Y-156752519D01*
X45459501Y-156752519D01*
X45465183Y-156753991D01*
G37*
G04 #@! TD.AperFunction*
G04 #@! TA.AperFunction,Conductor*
G36*
X114723391Y-140276602D02*
G01*
X114901401Y-140332429D01*
X114907330Y-140336667D01*
X114909600Y-140343593D01*
X114909600Y-140580407D01*
X114907330Y-140587333D01*
X114901401Y-140591571D01*
X114426825Y-140740404D01*
X114418387Y-140739847D01*
X114412528Y-140733750D01*
X114300884Y-140466510D01*
X114299980Y-140462000D01*
X114300884Y-140457490D01*
X114412528Y-140190249D01*
X114418387Y-140184152D01*
X114426823Y-140183595D01*
X114723391Y-140276602D01*
G37*
G04 #@! TD.AperFunction*
G04 #@! TA.AperFunction,Conductor*
G36*
X124332211Y-139544689D02*
G01*
X124336102Y-139549641D01*
X124713136Y-140457513D01*
X124714031Y-140462000D01*
X124713136Y-140466487D01*
X124336102Y-141374358D01*
X124332211Y-141379310D01*
X124326316Y-141381527D01*
X124320126Y-141380366D01*
X122720529Y-140592217D01*
X122715765Y-140587902D01*
X122714000Y-140581722D01*
X122714000Y-140342278D01*
X122715765Y-140336098D01*
X122720529Y-140331783D01*
X124320129Y-139543632D01*
X124326316Y-139542472D01*
X124332211Y-139544689D01*
G37*
G04 #@! TD.AperFunction*
G04 #@! TA.AperFunction,Conductor*
G36*
X102282363Y-131309123D02*
G01*
X102633055Y-131492366D01*
X102723182Y-131539459D01*
X102728755Y-131545819D01*
X102728587Y-131554274D01*
X102618563Y-131822185D01*
X102616013Y-131826013D01*
X102612185Y-131828563D01*
X102344274Y-131938587D01*
X102335819Y-131938755D01*
X102329459Y-131933182D01*
X102271461Y-131822185D01*
X102099123Y-131492363D01*
X102097929Y-131485177D01*
X102101219Y-131478677D01*
X102268677Y-131311219D01*
X102275177Y-131307929D01*
X102282363Y-131309123D01*
G37*
G04 #@! TD.AperFunction*
G04 #@! TA.AperFunction,Conductor*
G36*
X93884995Y-70767504D02*
G01*
X93888733Y-70775142D01*
X93937586Y-71361383D01*
X93936373Y-71367623D01*
X93932076Y-71372308D01*
X93925964Y-71374055D01*
X93633877Y-71375013D01*
X93633801Y-71375013D01*
X93341713Y-71374055D01*
X93335601Y-71372308D01*
X93331304Y-71367623D01*
X93330091Y-71361385D01*
X93378945Y-70775141D01*
X93382683Y-70767504D01*
X93390605Y-70764414D01*
X93877073Y-70764414D01*
X93884995Y-70767504D01*
G37*
G04 #@! TD.AperFunction*
G04 #@! TA.AperFunction,Conductor*
G36*
X76712510Y-72136884D02*
G01*
X76979750Y-72248528D01*
X76985847Y-72254387D01*
X76986404Y-72262825D01*
X76837571Y-72737401D01*
X76833333Y-72743330D01*
X76826407Y-72745600D01*
X76589593Y-72745600D01*
X76582667Y-72743330D01*
X76578429Y-72737401D01*
X76522602Y-72559391D01*
X76429595Y-72262823D01*
X76430152Y-72254387D01*
X76436248Y-72248528D01*
X76703490Y-72136883D01*
X76708000Y-72135980D01*
X76712510Y-72136884D01*
G37*
G04 #@! TD.AperFunction*
G04 #@! TA.AperFunction,Conductor*
G36*
X97540510Y-72898884D02*
G01*
X97807750Y-73010528D01*
X97813847Y-73016387D01*
X97814404Y-73024825D01*
X97665571Y-73499401D01*
X97661333Y-73505330D01*
X97654407Y-73507600D01*
X97417593Y-73507600D01*
X97410667Y-73505330D01*
X97406429Y-73499401D01*
X97350602Y-73321391D01*
X97257595Y-73024823D01*
X97258152Y-73016387D01*
X97264248Y-73010528D01*
X97531490Y-72898883D01*
X97536000Y-72897980D01*
X97540510Y-72898884D01*
G37*
G04 #@! TD.AperFunction*
G04 #@! TA.AperFunction,Conductor*
G36*
X78229156Y-93627490D02*
G01*
X78232894Y-93635128D01*
X78281747Y-94221369D01*
X78280534Y-94227609D01*
X78276237Y-94232294D01*
X78270125Y-94234041D01*
X77978038Y-94234999D01*
X77977962Y-94234999D01*
X77685874Y-94234041D01*
X77679762Y-94232294D01*
X77675465Y-94227609D01*
X77674252Y-94221371D01*
X77723106Y-93635128D01*
X77726844Y-93627490D01*
X77734766Y-93624400D01*
X78221234Y-93624400D01*
X78229156Y-93627490D01*
G37*
G04 #@! TD.AperFunction*
G04 #@! TA.AperFunction,Conductor*
G36*
X113576126Y-83452958D02*
G01*
X113582237Y-83454705D01*
X113586534Y-83459390D01*
X113587747Y-83465630D01*
X113538894Y-84051872D01*
X113535156Y-84059510D01*
X113527234Y-84062600D01*
X113040766Y-84062600D01*
X113032844Y-84059510D01*
X113029106Y-84051872D01*
X112980252Y-83465630D01*
X112981465Y-83459390D01*
X112985762Y-83454705D01*
X112991872Y-83452958D01*
X113284000Y-83452000D01*
X113576126Y-83452958D01*
G37*
G04 #@! TD.AperFunction*
G04 #@! TA.AperFunction,Conductor*
G36*
X120643609Y-117807465D02*
G01*
X120648294Y-117811762D01*
X120650041Y-117817874D01*
X120651000Y-118110000D01*
X120651000Y-118110076D01*
X120650041Y-118402125D01*
X120648294Y-118408237D01*
X120643609Y-118412534D01*
X120637369Y-118413747D01*
X120051128Y-118364894D01*
X120043490Y-118361156D01*
X120040400Y-118353234D01*
X120040400Y-117866766D01*
X120043490Y-117858844D01*
X120051128Y-117855106D01*
X120051128Y-117855105D01*
X120637371Y-117806252D01*
X120643609Y-117807465D01*
G37*
G04 #@! TD.AperFunction*
G04 #@! TA.AperFunction,Conductor*
G36*
X121704126Y-78626958D02*
G01*
X121710237Y-78628705D01*
X121714534Y-78633390D01*
X121715747Y-78639630D01*
X121666894Y-79225872D01*
X121663156Y-79233510D01*
X121655234Y-79236600D01*
X121168766Y-79236600D01*
X121160844Y-79233510D01*
X121157106Y-79225872D01*
X121108252Y-78639630D01*
X121109465Y-78633390D01*
X121113762Y-78628705D01*
X121119872Y-78626958D01*
X121412000Y-78626000D01*
X121704126Y-78626958D01*
G37*
G04 #@! TD.AperFunction*
G04 #@! TA.AperFunction,Conductor*
G36*
X120180126Y-88849958D02*
G01*
X120186237Y-88851705D01*
X120190534Y-88856390D01*
X120191747Y-88862630D01*
X120142894Y-89448872D01*
X120139156Y-89456510D01*
X120131234Y-89459600D01*
X119644766Y-89459600D01*
X119636844Y-89456510D01*
X119633106Y-89448872D01*
X119584252Y-88862630D01*
X119585465Y-88856390D01*
X119589762Y-88851705D01*
X119595872Y-88849958D01*
X119888000Y-88849000D01*
X120180126Y-88849958D01*
G37*
G04 #@! TD.AperFunction*
G04 #@! TA.AperFunction,Conductor*
G36*
X122462460Y-92981507D02*
G01*
X122468566Y-92987716D01*
X122580015Y-93254490D01*
X122580919Y-93259000D01*
X122580015Y-93263510D01*
X122468566Y-93530283D01*
X122462460Y-93536492D01*
X122453757Y-93536763D01*
X121978987Y-93363407D01*
X121973412Y-93359123D01*
X121971300Y-93352417D01*
X121971300Y-93165583D01*
X121973412Y-93158877D01*
X121978987Y-93154593D01*
X122453757Y-92981236D01*
X122462460Y-92981507D01*
G37*
G04 #@! TD.AperFunction*
G04 #@! TA.AperFunction,Conductor*
G36*
X118402126Y-88849958D02*
G01*
X118408237Y-88851705D01*
X118412534Y-88856390D01*
X118413747Y-88862630D01*
X118364894Y-89448872D01*
X118361156Y-89456510D01*
X118353234Y-89459600D01*
X117866766Y-89459600D01*
X117858844Y-89456510D01*
X117855106Y-89448872D01*
X117806252Y-88862630D01*
X117807465Y-88856390D01*
X117811762Y-88851705D01*
X117817872Y-88849958D01*
X118110000Y-88849000D01*
X118402126Y-88849958D01*
G37*
G04 #@! TD.AperFunction*
G04 #@! TA.AperFunction,Conductor*
G36*
X112950362Y-78110123D02*
G01*
X113301054Y-78293366D01*
X113391181Y-78340459D01*
X113396754Y-78346819D01*
X113396586Y-78355274D01*
X113286562Y-78623185D01*
X113284012Y-78627013D01*
X113280184Y-78629563D01*
X113012273Y-78739587D01*
X113003818Y-78739755D01*
X112997458Y-78734182D01*
X112939460Y-78623185D01*
X112767122Y-78293363D01*
X112765928Y-78286177D01*
X112769218Y-78279677D01*
X112936676Y-78112219D01*
X112943176Y-78108929D01*
X112950362Y-78110123D01*
G37*
G04 #@! TD.AperFunction*
G04 #@! TA.AperFunction,Conductor*
G36*
X85084976Y-71677310D02*
G01*
X85088714Y-71684948D01*
X85137567Y-72271189D01*
X85136354Y-72277429D01*
X85132057Y-72282114D01*
X85125945Y-72283861D01*
X84833858Y-72284819D01*
X84833782Y-72284819D01*
X84541694Y-72283861D01*
X84535582Y-72282114D01*
X84531285Y-72277429D01*
X84530072Y-72271191D01*
X84578926Y-71684948D01*
X84582664Y-71677310D01*
X84590586Y-71674220D01*
X85077054Y-71674220D01*
X85084976Y-71677310D01*
G37*
G04 #@! TD.AperFunction*
G04 #@! TA.AperFunction,Conductor*
G36*
X88135156Y-80165490D02*
G01*
X88138894Y-80173128D01*
X88187747Y-80759369D01*
X88186534Y-80765609D01*
X88182237Y-80770294D01*
X88176125Y-80772041D01*
X87884038Y-80772999D01*
X87883962Y-80772999D01*
X87591874Y-80772041D01*
X87585762Y-80770294D01*
X87581465Y-80765609D01*
X87580252Y-80759371D01*
X87629106Y-80173128D01*
X87632844Y-80165490D01*
X87640766Y-80162400D01*
X88127234Y-80162400D01*
X88135156Y-80165490D01*
G37*
G04 #@! TD.AperFunction*
G04 #@! TA.AperFunction,Conductor*
G36*
X45504126Y-109423958D02*
G01*
X45510237Y-109425705D01*
X45514534Y-109430390D01*
X45515747Y-109436630D01*
X45466894Y-110022872D01*
X45463156Y-110030510D01*
X45455234Y-110033600D01*
X44968766Y-110033600D01*
X44960844Y-110030510D01*
X44957106Y-110022872D01*
X44908252Y-109436630D01*
X44909465Y-109430390D01*
X44913762Y-109425705D01*
X44919872Y-109423958D01*
X45212000Y-109423000D01*
X45504126Y-109423958D01*
G37*
G04 #@! TD.AperFunction*
G04 #@! TA.AperFunction,Conductor*
G36*
X121704126Y-83452958D02*
G01*
X121710237Y-83454705D01*
X121714534Y-83459390D01*
X121715747Y-83465630D01*
X121666894Y-84051872D01*
X121663156Y-84059510D01*
X121655234Y-84062600D01*
X121168766Y-84062600D01*
X121160844Y-84059510D01*
X121157106Y-84051872D01*
X121108252Y-83465630D01*
X121109465Y-83459390D01*
X121113762Y-83454705D01*
X121119872Y-83452958D01*
X121412000Y-83452000D01*
X121704126Y-83452958D01*
G37*
G04 #@! TD.AperFunction*
G04 #@! TA.AperFunction,Conductor*
G36*
X78737156Y-80165490D02*
G01*
X78740894Y-80173128D01*
X78789747Y-80759369D01*
X78788534Y-80765609D01*
X78784237Y-80770294D01*
X78778125Y-80772041D01*
X78486038Y-80772999D01*
X78485962Y-80772999D01*
X78193874Y-80772041D01*
X78187762Y-80770294D01*
X78183465Y-80765609D01*
X78182252Y-80759371D01*
X78231106Y-80173128D01*
X78234844Y-80165490D01*
X78242766Y-80162400D01*
X78729234Y-80162400D01*
X78737156Y-80165490D01*
G37*
G04 #@! TD.AperFunction*
G04 #@! TA.AperFunction,Conductor*
G36*
X109478509Y-122174883D02*
G01*
X109745713Y-122286512D01*
X109751820Y-122292391D01*
X109752354Y-122300850D01*
X109601592Y-122775442D01*
X109597349Y-122781343D01*
X109590441Y-122783600D01*
X109357559Y-122783600D01*
X109350651Y-122781343D01*
X109346408Y-122775442D01*
X109195645Y-122300850D01*
X109196179Y-122292391D01*
X109202284Y-122286513D01*
X109469490Y-122174883D01*
X109474000Y-122173980D01*
X109478509Y-122174883D01*
G37*
G04 #@! TD.AperFunction*
G04 #@! TA.AperFunction,Conductor*
G36*
X112950363Y-82936123D02*
G01*
X113301055Y-83119366D01*
X113391182Y-83166459D01*
X113396755Y-83172819D01*
X113396587Y-83181274D01*
X113286563Y-83449185D01*
X113284013Y-83453013D01*
X113280185Y-83455563D01*
X113012274Y-83565587D01*
X113003819Y-83565755D01*
X112997459Y-83560182D01*
X112939461Y-83449185D01*
X112767123Y-83119363D01*
X112765929Y-83112177D01*
X112769219Y-83105677D01*
X112936677Y-82938219D01*
X112943177Y-82934929D01*
X112950363Y-82936123D01*
G37*
G04 #@! TD.AperFunction*
G04 #@! TA.AperFunction,Conductor*
G36*
X113576125Y-78626958D02*
G01*
X113582236Y-78628705D01*
X113586533Y-78633390D01*
X113587746Y-78639630D01*
X113538893Y-79225872D01*
X113535155Y-79233510D01*
X113527233Y-79236600D01*
X113040765Y-79236600D01*
X113032843Y-79233510D01*
X113029105Y-79225872D01*
X112980251Y-78639630D01*
X112981464Y-78633390D01*
X112985761Y-78628705D01*
X112991871Y-78626958D01*
X113283999Y-78626000D01*
X113576125Y-78626958D01*
G37*
G04 #@! TD.AperFunction*
G04 #@! TA.AperFunction,Conductor*
G36*
X114592126Y-92709958D02*
G01*
X114598237Y-92711705D01*
X114602534Y-92716390D01*
X114603747Y-92722630D01*
X114554894Y-93308872D01*
X114551156Y-93316510D01*
X114543234Y-93319600D01*
X114056766Y-93319600D01*
X114048844Y-93316510D01*
X114045106Y-93308872D01*
X113996252Y-92722630D01*
X113997465Y-92716390D01*
X114001762Y-92711705D01*
X114007872Y-92709958D01*
X114300000Y-92709000D01*
X114592126Y-92709958D01*
G37*
G04 #@! TD.AperFunction*
G04 #@! TA.AperFunction,Conductor*
G36*
X85084976Y-70767490D02*
G01*
X85088714Y-70775128D01*
X85125290Y-71214040D01*
X85125330Y-71215012D01*
X85125330Y-71362382D01*
X85121917Y-71370642D01*
X85113668Y-71374081D01*
X85075924Y-71374205D01*
X84833858Y-71374999D01*
X84833782Y-71374999D01*
X84541694Y-71374041D01*
X84535582Y-71372294D01*
X84531285Y-71367609D01*
X84530072Y-71361371D01*
X84578926Y-70775128D01*
X84582664Y-70767490D01*
X84590586Y-70764400D01*
X85077054Y-70764400D01*
X85084976Y-70767490D01*
G37*
G04 #@! TD.AperFunction*
G04 #@! TA.AperFunction,Conductor*
G36*
X46083274Y-70753412D02*
G01*
X46351185Y-70863436D01*
X46355013Y-70865986D01*
X46357563Y-70869814D01*
X46467587Y-71137725D01*
X46467755Y-71146180D01*
X46462182Y-71152540D01*
X46021366Y-71382875D01*
X46014177Y-71384070D01*
X46007675Y-71380778D01*
X45840221Y-71213324D01*
X45836929Y-71206822D01*
X45838123Y-71199637D01*
X46068459Y-70758816D01*
X46074819Y-70753244D01*
X46083274Y-70753412D01*
G37*
G04 #@! TD.AperFunction*
G04 #@! TA.AperFunction,Conductor*
G36*
X49506600Y-66168140D02*
G01*
X49734515Y-66261739D01*
X49774475Y-66278150D01*
X49778303Y-66280700D01*
X49780853Y-66284528D01*
X49890306Y-66551050D01*
X49890381Y-66559752D01*
X49884428Y-66566099D01*
X49834731Y-66589274D01*
X49827278Y-66596726D01*
X49824386Y-66598842D01*
X49443227Y-66796218D01*
X49436055Y-66797390D01*
X49429574Y-66794101D01*
X49264902Y-66629429D01*
X49261613Y-66622948D01*
X49262784Y-66615778D01*
X49491766Y-66173583D01*
X49498126Y-66167980D01*
X49506600Y-66168140D01*
G37*
G04 #@! TD.AperFunction*
G04 #@! TA.AperFunction,Conductor*
G36*
X44656477Y-86382324D02*
G01*
X46344871Y-86956105D01*
X46350067Y-86959662D01*
X46352668Y-86965397D01*
X46351919Y-86971650D01*
X45976562Y-87880215D01*
X45974021Y-87884021D01*
X45970215Y-87886562D01*
X45061650Y-88261919D01*
X45055397Y-88262668D01*
X45049662Y-88260067D01*
X45046105Y-88254870D01*
X44920940Y-87886562D01*
X44472324Y-86566477D01*
X44472008Y-86560060D01*
X44475128Y-86554444D01*
X44644444Y-86385128D01*
X44650060Y-86382008D01*
X44656477Y-86382324D01*
G37*
G04 #@! TD.AperFunction*
G04 #@! TA.AperFunction,Conductor*
G36*
X46898337Y-87507932D02*
G01*
X46901894Y-87513129D01*
X47475674Y-89201519D01*
X47475991Y-89207939D01*
X47472869Y-89213557D01*
X47303557Y-89382869D01*
X47297939Y-89385991D01*
X47291519Y-89385674D01*
X47283265Y-89382869D01*
X46459013Y-89102756D01*
X45603129Y-88811894D01*
X45597932Y-88808337D01*
X45595331Y-88802602D01*
X45596079Y-88796351D01*
X45971438Y-87887781D01*
X45973978Y-87883978D01*
X45977781Y-87881438D01*
X46886351Y-87506079D01*
X46892602Y-87505331D01*
X46898337Y-87507932D01*
G37*
G04 #@! TD.AperFunction*
G04 #@! TA.AperFunction,Conductor*
G36*
X66468363Y-75937123D02*
G01*
X66819055Y-76120366D01*
X66909182Y-76167459D01*
X66914755Y-76173819D01*
X66914587Y-76182274D01*
X66804563Y-76450185D01*
X66802013Y-76454013D01*
X66798185Y-76456563D01*
X66530274Y-76566587D01*
X66521819Y-76566755D01*
X66515459Y-76561182D01*
X66457461Y-76450185D01*
X66285123Y-76120363D01*
X66283929Y-76113177D01*
X66287219Y-76106677D01*
X66454677Y-75939219D01*
X66461177Y-75935929D01*
X66468363Y-75937123D01*
G37*
G04 #@! TD.AperFunction*
G04 #@! TA.AperFunction,Conductor*
G36*
X113707391Y-144594602D02*
G01*
X113885401Y-144650429D01*
X113891330Y-144654667D01*
X113893600Y-144661593D01*
X113893600Y-144898407D01*
X113891330Y-144905333D01*
X113885401Y-144909571D01*
X113410825Y-145058404D01*
X113402387Y-145057847D01*
X113396528Y-145051750D01*
X113284884Y-144784510D01*
X113283980Y-144780000D01*
X113284884Y-144775490D01*
X113396528Y-144508249D01*
X113402387Y-144502152D01*
X113410823Y-144501595D01*
X113707391Y-144594602D01*
G37*
G04 #@! TD.AperFunction*
G04 #@! TA.AperFunction,Conductor*
G36*
X124332211Y-143862689D02*
G01*
X124336102Y-143867641D01*
X124713136Y-144775513D01*
X124714031Y-144780000D01*
X124713136Y-144784487D01*
X124336102Y-145692358D01*
X124332211Y-145697310D01*
X124326316Y-145699527D01*
X124320126Y-145698366D01*
X122720529Y-144910217D01*
X122715765Y-144905902D01*
X122714000Y-144899722D01*
X122714000Y-144660278D01*
X122715765Y-144654098D01*
X122720529Y-144649783D01*
X124320129Y-143861632D01*
X124326316Y-143860472D01*
X124332211Y-143862689D01*
G37*
G04 #@! TD.AperFunction*
G04 #@! TA.AperFunction,Conductor*
G36*
X56420265Y-74186154D02*
G01*
X56470518Y-74297009D01*
X56583705Y-74546697D01*
X56584749Y-74551528D01*
X56584749Y-74785664D01*
X56582353Y-74792758D01*
X56576147Y-74796946D01*
X56568672Y-74796514D01*
X56028276Y-74578502D01*
X56023422Y-74574841D01*
X56021061Y-74569238D01*
X56021829Y-74563208D01*
X56131148Y-74297007D01*
X56133690Y-74293188D01*
X56137504Y-74290640D01*
X56405148Y-74180170D01*
X56413916Y-74180107D01*
X56420265Y-74186154D01*
G37*
G04 #@! TD.AperFunction*
G04 #@! TA.AperFunction,Conductor*
G36*
X120370082Y-73551396D02*
G01*
X122014036Y-74260464D01*
X122658092Y-74538257D01*
X122664289Y-74544575D01*
X122664289Y-74553425D01*
X122658092Y-74559743D01*
X120370085Y-75546602D01*
X120364629Y-75547530D01*
X120359357Y-75545846D01*
X119147606Y-74806421D01*
X119143497Y-74802160D01*
X119142000Y-74796434D01*
X119142000Y-74301566D01*
X119143497Y-74295840D01*
X119147606Y-74291579D01*
X120359361Y-73552151D01*
X120364629Y-73550469D01*
X120370082Y-73551396D01*
G37*
G04 #@! TD.AperFunction*
G04 #@! TA.AperFunction,Conductor*
G36*
X125475183Y-156753991D02*
G01*
X125479434Y-156758037D01*
X126218769Y-157945986D01*
X126220503Y-157951289D01*
X126219583Y-157956793D01*
X125232747Y-160250025D01*
X125226428Y-160256230D01*
X125217572Y-160256230D01*
X125211253Y-160250025D01*
X124224416Y-157956793D01*
X124223496Y-157951289D01*
X124225228Y-157945990D01*
X124964565Y-156758037D01*
X124968817Y-156753991D01*
X124974499Y-156752519D01*
X125469501Y-156752519D01*
X125475183Y-156753991D01*
G37*
G04 #@! TD.AperFunction*
G04 #@! TA.AperFunction,Conductor*
G36*
X70362509Y-105918883D02*
G01*
X70629713Y-106030512D01*
X70635820Y-106036391D01*
X70636354Y-106044850D01*
X70485592Y-106519442D01*
X70481349Y-106525343D01*
X70474441Y-106527600D01*
X70241559Y-106527600D01*
X70234651Y-106525343D01*
X70230408Y-106519442D01*
X70079645Y-106044850D01*
X70080179Y-106036391D01*
X70086284Y-106030513D01*
X70353490Y-105918883D01*
X70358000Y-105917980D01*
X70362509Y-105918883D01*
G37*
G04 #@! TD.AperFunction*
G04 #@! TA.AperFunction,Conductor*
G36*
X68166715Y-100510486D02*
G01*
X68331387Y-100675158D01*
X68334676Y-100681639D01*
X68333504Y-100688811D01*
X68104523Y-101131003D01*
X68098163Y-101136607D01*
X68089688Y-101136446D01*
X67821814Y-101026437D01*
X67817986Y-101023887D01*
X67815436Y-101020059D01*
X67705427Y-100752185D01*
X67705266Y-100743710D01*
X67710869Y-100737350D01*
X68153064Y-100508368D01*
X68160234Y-100507197D01*
X68166715Y-100510486D01*
G37*
G04 #@! TD.AperFunction*
G04 #@! TA.AperFunction,Conductor*
G36*
X106409057Y-140854756D02*
G01*
X106648444Y-140953066D01*
X106676185Y-140964459D01*
X106680013Y-140967009D01*
X106682563Y-140970837D01*
X106792265Y-141237963D01*
X106792272Y-141246834D01*
X106786054Y-141253161D01*
X106421108Y-141409678D01*
X106414285Y-141410414D01*
X106408223Y-141407198D01*
X106239824Y-141238799D01*
X106236608Y-141232737D01*
X106237344Y-141225914D01*
X106346741Y-140970837D01*
X106393861Y-140860967D01*
X106400188Y-140854750D01*
X106409057Y-140854756D01*
G37*
G04 #@! TD.AperFunction*
G04 #@! TA.AperFunction,Conductor*
G36*
X101471333Y-135028670D02*
G01*
X101475571Y-135034599D01*
X101624404Y-135509174D01*
X101623847Y-135517612D01*
X101617750Y-135523471D01*
X101350510Y-135635115D01*
X101346000Y-135636019D01*
X101341490Y-135635115D01*
X101074249Y-135523471D01*
X101068152Y-135517612D01*
X101067595Y-135509176D01*
X101216428Y-135034599D01*
X101220667Y-135028670D01*
X101227593Y-135026400D01*
X101464407Y-135026400D01*
X101471333Y-135028670D01*
G37*
G04 #@! TD.AperFunction*
G04 #@! TA.AperFunction,Conductor*
G36*
X88326902Y-100617765D02*
G01*
X88331217Y-100622529D01*
X89119366Y-102222126D01*
X89120527Y-102228316D01*
X89118310Y-102234211D01*
X89113358Y-102238102D01*
X88205486Y-102615136D01*
X88200999Y-102616031D01*
X88196512Y-102615136D01*
X87935250Y-102506635D01*
X87288639Y-102238101D01*
X87283689Y-102234211D01*
X87281472Y-102228316D01*
X87282632Y-102222129D01*
X88070783Y-100622528D01*
X88075098Y-100617765D01*
X88081278Y-100616000D01*
X88320722Y-100616000D01*
X88326902Y-100617765D01*
G37*
G04 #@! TD.AperFunction*
G04 #@! TA.AperFunction,Conductor*
G36*
X87501816Y-101916800D02*
G01*
X88196165Y-102609762D01*
X88199374Y-102615757D01*
X88198708Y-102622525D01*
X87822260Y-103530368D01*
X87816605Y-103536390D01*
X87808380Y-103537176D01*
X86489163Y-103178258D01*
X86483962Y-103175241D01*
X86315196Y-103006475D01*
X86312125Y-103001067D01*
X86312260Y-102994850D01*
X86315559Y-102989581D01*
X87485645Y-101916457D01*
X87493798Y-101913384D01*
X87501816Y-101916800D01*
G37*
G04 #@! TD.AperFunction*
G04 #@! TA.AperFunction,Conductor*
G36*
X83246902Y-100617765D02*
G01*
X83251217Y-100622529D01*
X84039366Y-102222126D01*
X84040527Y-102228316D01*
X84038310Y-102234211D01*
X84033358Y-102238102D01*
X83125486Y-102615136D01*
X83120999Y-102616031D01*
X83116512Y-102615136D01*
X82855250Y-102506635D01*
X82208639Y-102238101D01*
X82203689Y-102234211D01*
X82201472Y-102228316D01*
X82202632Y-102222129D01*
X82990783Y-100622528D01*
X82995098Y-100617765D01*
X83001278Y-100616000D01*
X83240722Y-100616000D01*
X83246902Y-100617765D01*
G37*
G04 #@! TD.AperFunction*
G04 #@! TA.AperFunction,Conductor*
G36*
X82420930Y-101915916D02*
G01*
X83116165Y-102609762D01*
X83119374Y-102615757D01*
X83118708Y-102622525D01*
X82742686Y-103529342D01*
X82736487Y-103535614D01*
X82727671Y-103535777D01*
X81334081Y-102998728D01*
X81330015Y-102996084D01*
X81161887Y-102827956D01*
X81158713Y-102822101D01*
X81159248Y-102815462D01*
X81163317Y-102810192D01*
X82405828Y-101914705D01*
X82413601Y-101912535D01*
X82420930Y-101915916D01*
G37*
G04 #@! TD.AperFunction*
G04 #@! TA.AperFunction,Conductor*
G36*
X88650509Y-81534883D02*
G01*
X88917940Y-81646607D01*
X88923988Y-81652363D01*
X88924658Y-81660688D01*
X88786462Y-82132998D01*
X88782249Y-82139075D01*
X88775233Y-82141412D01*
X88538400Y-82141412D01*
X88531576Y-82139216D01*
X88527314Y-82133453D01*
X88367888Y-81660973D01*
X88368314Y-81652412D01*
X88374463Y-81646438D01*
X88641490Y-81534883D01*
X88646000Y-81533980D01*
X88650509Y-81534883D01*
G37*
G04 #@! TD.AperFunction*
G04 #@! TA.AperFunction,Conductor*
G36*
X86618509Y-87122884D02*
G01*
X86885750Y-87234528D01*
X86891847Y-87240387D01*
X86892404Y-87248825D01*
X86743571Y-87723401D01*
X86739333Y-87729330D01*
X86732407Y-87731600D01*
X86495593Y-87731600D01*
X86488667Y-87729330D01*
X86484429Y-87723401D01*
X86428602Y-87545391D01*
X86335595Y-87248823D01*
X86336152Y-87240387D01*
X86342248Y-87234528D01*
X86609491Y-87122883D01*
X86613999Y-87121980D01*
X86618509Y-87122884D01*
G37*
G04 #@! TD.AperFunction*
G04 #@! TA.AperFunction,Conductor*
G36*
X54999608Y-65000179D02*
G01*
X55005487Y-65006286D01*
X55117115Y-65273489D01*
X55118019Y-65277999D01*
X55117115Y-65282509D01*
X55005487Y-65549713D01*
X54999608Y-65555820D01*
X54991149Y-65556354D01*
X54673459Y-65455434D01*
X54516556Y-65405591D01*
X54510657Y-65401349D01*
X54508400Y-65394441D01*
X54508400Y-65161559D01*
X54510657Y-65154651D01*
X54516556Y-65150408D01*
X54991149Y-64999645D01*
X54999608Y-65000179D01*
G37*
G04 #@! TD.AperFunction*
G04 #@! TA.AperFunction,Conductor*
G36*
X123396477Y-114576324D02*
G01*
X125084871Y-115150105D01*
X125090067Y-115153662D01*
X125092668Y-115159397D01*
X125091919Y-115165650D01*
X124716562Y-116074215D01*
X124714021Y-116078021D01*
X124710215Y-116080562D01*
X123801650Y-116455919D01*
X123795397Y-116456668D01*
X123789662Y-116454067D01*
X123786105Y-116448870D01*
X123660940Y-116080562D01*
X123212324Y-114760477D01*
X123212008Y-114754060D01*
X123215128Y-114748444D01*
X123384444Y-114579128D01*
X123390060Y-114576008D01*
X123396477Y-114576324D01*
G37*
G04 #@! TD.AperFunction*
G04 #@! TA.AperFunction,Conductor*
G36*
X124332211Y-110842689D02*
G01*
X124336102Y-110847641D01*
X124713136Y-111755513D01*
X124714031Y-111760000D01*
X124713136Y-111764487D01*
X124336102Y-112672358D01*
X124332211Y-112677310D01*
X124326316Y-112679527D01*
X124320126Y-112678366D01*
X122720529Y-111890217D01*
X122715765Y-111885902D01*
X122714000Y-111879722D01*
X122714000Y-111640278D01*
X122715765Y-111634098D01*
X122720529Y-111629783D01*
X124320129Y-110841632D01*
X124326316Y-110840472D01*
X124332211Y-110842689D01*
G37*
G04 #@! TD.AperFunction*
G04 #@! TA.AperFunction,Conductor*
G36*
X95131612Y-74906152D02*
G01*
X95137471Y-74912249D01*
X95249115Y-75179489D01*
X95250019Y-75183999D01*
X95249115Y-75188509D01*
X95137471Y-75455750D01*
X95131612Y-75461847D01*
X95123174Y-75462404D01*
X94648599Y-75313571D01*
X94642670Y-75309333D01*
X94640400Y-75302407D01*
X94640400Y-75065593D01*
X94642670Y-75058667D01*
X94648599Y-75054429D01*
X94777910Y-75013874D01*
X95123176Y-74905595D01*
X95131612Y-74906152D01*
G37*
G04 #@! TD.AperFunction*
G04 #@! TA.AperFunction,Conductor*
G36*
X80052391Y-74998602D02*
G01*
X80230401Y-75054429D01*
X80236330Y-75058667D01*
X80238600Y-75065593D01*
X80238600Y-75302407D01*
X80236330Y-75309333D01*
X80230401Y-75313571D01*
X79755825Y-75462404D01*
X79747387Y-75461847D01*
X79741528Y-75455750D01*
X79629884Y-75188509D01*
X79628980Y-75183999D01*
X79629883Y-75179491D01*
X79741528Y-74912248D01*
X79747387Y-74906152D01*
X79755823Y-74905595D01*
X80052391Y-74998602D01*
G37*
G04 #@! TD.AperFunction*
G04 #@! TA.AperFunction,Conductor*
G36*
X71359280Y-73309200D02*
G01*
X71363546Y-73314931D01*
X71525053Y-73786996D01*
X71524653Y-73795583D01*
X71518493Y-73801579D01*
X71251510Y-73913115D01*
X71247000Y-73914019D01*
X71242490Y-73913115D01*
X70975024Y-73801377D01*
X70968984Y-73795640D01*
X70968292Y-73787338D01*
X71104400Y-73315475D01*
X71108608Y-73309368D01*
X71115642Y-73307018D01*
X71352476Y-73307018D01*
X71359280Y-73309200D01*
G37*
G04 #@! TD.AperFunction*
G04 #@! TA.AperFunction,Conductor*
G36*
X124329512Y-106522194D02*
G01*
X124335583Y-106528409D01*
X124615451Y-107203341D01*
X124711708Y-107435474D01*
X124712374Y-107442242D01*
X124709165Y-107448237D01*
X124014148Y-108141866D01*
X124006643Y-108145260D01*
X123998761Y-108142868D01*
X122774200Y-107203341D01*
X122770328Y-107198060D01*
X122769899Y-107191526D01*
X122773047Y-107185787D01*
X122941366Y-107017468D01*
X122945687Y-107014730D01*
X124320831Y-106521878D01*
X124329512Y-106522194D01*
G37*
G04 #@! TD.AperFunction*
G04 #@! TA.AperFunction,Conductor*
G36*
X71128612Y-73636152D02*
G01*
X71134471Y-73642249D01*
X71246115Y-73909489D01*
X71247019Y-73913999D01*
X71246115Y-73918509D01*
X71134471Y-74185750D01*
X71128612Y-74191847D01*
X71120174Y-74192404D01*
X70645599Y-74043571D01*
X70639670Y-74039333D01*
X70637400Y-74032407D01*
X70637400Y-73795593D01*
X70639670Y-73788667D01*
X70645599Y-73784429D01*
X70774910Y-73743874D01*
X71120176Y-73635595D01*
X71128612Y-73636152D01*
G37*
G04 #@! TD.AperFunction*
G04 #@! TA.AperFunction,Conductor*
G36*
X103791540Y-75076817D02*
G01*
X103847176Y-75183293D01*
X103994685Y-75465598D01*
X104021875Y-75517633D01*
X104023070Y-75524822D01*
X104019778Y-75531324D01*
X103852324Y-75698778D01*
X103845822Y-75702070D01*
X103838634Y-75700875D01*
X103618114Y-75585649D01*
X103397817Y-75470540D01*
X103392244Y-75464180D01*
X103392411Y-75455726D01*
X103502436Y-75187812D01*
X103504986Y-75183986D01*
X103508812Y-75181436D01*
X103776726Y-75071411D01*
X103785180Y-75071244D01*
X103791540Y-75076817D01*
G37*
G04 #@! TD.AperFunction*
G04 #@! TA.AperFunction,Conductor*
G36*
X68358540Y-71774817D02*
G01*
X68414176Y-71881293D01*
X68561685Y-72163598D01*
X68588875Y-72215633D01*
X68590070Y-72222822D01*
X68586778Y-72229324D01*
X68419324Y-72396778D01*
X68412822Y-72400070D01*
X68405634Y-72398875D01*
X68185114Y-72283649D01*
X67964817Y-72168540D01*
X67959244Y-72162180D01*
X67959411Y-72153726D01*
X68069436Y-71885812D01*
X68071986Y-71881986D01*
X68075812Y-71879436D01*
X68343726Y-71769411D01*
X68352180Y-71769244D01*
X68358540Y-71774817D01*
G37*
G04 #@! TD.AperFunction*
G04 #@! TA.AperFunction,Conductor*
G36*
X46367871Y-82647632D02*
G01*
X47967471Y-83435783D01*
X47972235Y-83440098D01*
X47974000Y-83446278D01*
X47974000Y-83685722D01*
X47972235Y-83691902D01*
X47967471Y-83696217D01*
X46367873Y-84484366D01*
X46361683Y-84485527D01*
X46355788Y-84483310D01*
X46351899Y-84478360D01*
X45974862Y-83570485D01*
X45973968Y-83565999D01*
X45974862Y-83561515D01*
X46351899Y-82653637D01*
X46355788Y-82648689D01*
X46361683Y-82646472D01*
X46367871Y-82647632D01*
G37*
G04 #@! TD.AperFunction*
D45*
X40150002Y-106498198D02*
G75*
G03*
X40912002Y-107260198I761998J-2D01*
G01*
X113333777Y-66287181D02*
X113333777Y-64205481D01*
X42055002Y-126792798D02*
X42055002Y-108022198D01*
X75024202Y-165350002D02*
G75*
G03*
X76218002Y-164156198I-2J1193802D01*
G01*
X51653814Y-64224163D02*
X56353749Y-64224163D01*
X40912002Y-107260198D02*
X41293002Y-107260198D01*
X129177002Y-107260198D02*
X129558002Y-107260198D01*
X129126202Y-165350002D02*
G75*
G03*
X130320002Y-164156198I-2J1193802D01*
G01*
X41250447Y-69707497D02*
X45250447Y-69707497D01*
X57133767Y-72337133D02*
G75*
G03*
X57708839Y-72912133I574933J-67D01*
G01*
X96538002Y-163622798D02*
G75*
G03*
X95344202Y-162428998I-1193802J-2D01*
G01*
X88033820Y-66387153D02*
X111333822Y-66387153D01*
X113333777Y-64205481D02*
X124165094Y-64205481D01*
X45250447Y-69707503D02*
G75*
G03*
X45733603Y-69224341I-47J483203D01*
G01*
X129558002Y-107260202D02*
G75*
G03*
X130320002Y-106498198I-2J762002D01*
G01*
X112533820Y-72962161D02*
X112758813Y-72962161D01*
X111333839Y-71762171D02*
G75*
G03*
X112533819Y-72962161I1199961J-29D01*
G01*
X129177002Y-107260202D02*
G75*
G03*
X128415002Y-108022198I-2J-761998D01*
G01*
X125217127Y-69707497D02*
X129217124Y-69707497D01*
X76218002Y-164156198D02*
X76218002Y-163622798D01*
X40150002Y-106498198D02*
X40150002Y-70807942D01*
X45733603Y-69224341D02*
X45733786Y-64799170D01*
X57933832Y-72912120D02*
G75*
G03*
X59133820Y-71712142I-32J1200020D01*
G01*
X130320000Y-70810375D02*
G75*
G03*
X129217124Y-69707500I-1102900J-25D01*
G01*
X40912002Y-127554802D02*
G75*
G03*
X40150002Y-128316798I-2J-761998D01*
G01*
X40912002Y-127554798D02*
X41293002Y-127554798D01*
X130320002Y-164156198D02*
X130320002Y-128316798D01*
X124733785Y-69224155D02*
X124733785Y-64774172D01*
X128415002Y-126792798D02*
X128415002Y-108022198D01*
X124733803Y-69224155D02*
G75*
G03*
X125217127Y-69707497I483297J-45D01*
G01*
X57133803Y-66237151D02*
X57133803Y-64224170D01*
X40149993Y-164079998D02*
X40150002Y-128316798D01*
X85633830Y-71762154D02*
X85633830Y-66387163D01*
X96538002Y-164156198D02*
G75*
G03*
X97731802Y-165349998I1193798J-2D01*
G01*
X97731802Y-165349998D02*
X129126202Y-165349998D01*
X129177002Y-127554798D02*
X129558002Y-127554798D01*
X59133820Y-66387150D02*
X85633820Y-66387153D01*
X112758813Y-72962113D02*
G75*
G03*
X113333813Y-72387164I87J574913D01*
G01*
X77411802Y-162428998D02*
X95344202Y-162428998D01*
X41293002Y-127554802D02*
G75*
G03*
X42055002Y-126792798I-2J762002D01*
G01*
X128415002Y-126792798D02*
G75*
G03*
X129177002Y-127554798I761998J-2D01*
G01*
X88033810Y-71762154D02*
X88033810Y-66387163D01*
X113333813Y-72387161D02*
X113333813Y-66287163D01*
X57133839Y-72337131D02*
X57133839Y-66237133D01*
X57708839Y-72912131D02*
X57933832Y-72912131D01*
X46308798Y-64224158D02*
X51653807Y-64224158D01*
X41250447Y-69707502D02*
G75*
G03*
X40150002Y-70807942I-47J-1100398D01*
G01*
X77411802Y-162429002D02*
G75*
G03*
X76218002Y-163622798I-2J-1193798D01*
G01*
X46308798Y-64224186D02*
G75*
G03*
X45733786Y-64799170I2J-575014D01*
G01*
X42055002Y-108022198D02*
G75*
G03*
X41293002Y-107260198I-762002J-2D01*
G01*
X41267602Y-165349995D02*
X75024202Y-165349998D01*
X40150003Y-164079998D02*
G75*
G03*
X41267602Y-165349998I1193797J-76202D01*
G01*
X85633790Y-71762154D02*
G75*
G03*
X88033810Y-71762170I1200010J-46D01*
G01*
X56353754Y-64224170D02*
X57133803Y-64224170D01*
X130320002Y-128316798D02*
G75*
G03*
X129558002Y-127554798I-762002J-2D01*
G01*
X59133820Y-71712123D02*
X59133820Y-66387153D01*
X111333832Y-71762154D02*
X111333832Y-66387163D01*
X96538002Y-164156198D02*
X96538002Y-163622798D01*
X124733719Y-64774172D02*
G75*
G03*
X124165094Y-64205481I-568619J72D01*
G01*
X130320002Y-106498198D02*
X130320002Y-70810375D01*
M02*
