G04 #@! TF.GenerationSoftware,KiCad,Pcbnew,7.0.1*
G04 #@! TF.CreationDate,2023-06-22T14:27:13-04:00*
G04 #@! TF.ProjectId,payload-interface-board,7061796c-6f61-4642-9d69-6e7465726661,B*
G04 #@! TF.SameCoordinates,Original*
G04 #@! TF.FileFunction,Soldermask,Bot*
G04 #@! TF.FilePolarity,Negative*
%FSLAX46Y46*%
G04 Gerber Fmt 4.6, Leading zero omitted, Abs format (unit mm)*
G04 Created by KiCad (PCBNEW 7.0.1) date 2023-06-22 14:27:13*
%MOMM*%
%LPD*%
G01*
G04 APERTURE LIST*
G04 Aperture macros list*
%AMRoundRect*
0 Rectangle with rounded corners*
0 $1 Rounding radius*
0 $2 $3 $4 $5 $6 $7 $8 $9 X,Y pos of 4 corners*
0 Add a 4 corners polygon primitive as box body*
4,1,4,$2,$3,$4,$5,$6,$7,$8,$9,$2,$3,0*
0 Add four circle primitives for the rounded corners*
1,1,$1+$1,$2,$3*
1,1,$1+$1,$4,$5*
1,1,$1+$1,$6,$7*
1,1,$1+$1,$8,$9*
0 Add four rect primitives between the rounded corners*
20,1,$1+$1,$2,$3,$4,$5,0*
20,1,$1+$1,$4,$5,$6,$7,0*
20,1,$1+$1,$6,$7,$8,$9,0*
20,1,$1+$1,$8,$9,$2,$3,0*%
%AMFreePoly0*
4,1,12,0.105238,2.379067,0.194454,2.319454,0.254067,2.230238,0.275000,2.125000,0.275000,-1.400000,-0.275000,-1.400000,-0.275000,2.125000,-0.254067,2.230238,-0.194454,2.319454,-0.105238,2.379067,0.000000,2.400000,0.105238,2.379067,0.105238,2.379067,$1*%
G04 Aperture macros list end*
%ADD10C,0.100000*%
%ADD11FreePoly0,0.000000*%
%ADD12C,2.000000*%
%ADD13C,1.524000*%
%ADD14C,5.080000*%
%ADD15C,6.000000*%
%ADD16C,5.000000*%
%ADD17RoundRect,0.135000X-0.185000X0.135000X-0.185000X-0.135000X0.185000X-0.135000X0.185000X0.135000X0*%
%ADD18RoundRect,0.135000X0.135000X0.185000X-0.135000X0.185000X-0.135000X-0.185000X0.135000X-0.185000X0*%
%ADD19R,0.370000X1.000000*%
%ADD20R,0.650000X0.400000*%
G04 #@! TA.AperFunction,Profile*
%ADD21C,0.200000*%
G04 #@! TD*
G04 APERTURE END LIST*
D10*
X111633839Y-70387167D02*
X58833839Y-70387167D01*
X58833839Y-66187167D01*
X111633839Y-66187167D01*
X111633839Y-70387167D01*
G36*
X111633839Y-70387167D02*
G01*
X58833839Y-70387167D01*
X58833839Y-66187167D01*
X111633839Y-66187167D01*
X111633839Y-70387167D01*
G37*
D11*
X60033839Y-68787167D03*
X60833839Y-68787167D03*
X61633839Y-68787167D03*
X62433839Y-68787167D03*
X63233839Y-68787167D03*
X64033839Y-68787167D03*
X64833839Y-68787167D03*
X65633839Y-68787167D03*
X66433839Y-68787167D03*
X67233839Y-68787167D03*
X68033839Y-68787167D03*
X68833839Y-68787167D03*
X69633839Y-68787167D03*
X70433839Y-68787167D03*
X71233839Y-68787167D03*
X72033839Y-68787167D03*
X72833839Y-68787167D03*
X73633839Y-68787167D03*
X74433839Y-68787167D03*
X75233839Y-68787167D03*
X76033839Y-68787167D03*
X76833839Y-68787167D03*
X77633839Y-68787167D03*
X78433839Y-68787167D03*
X79233839Y-68787167D03*
X80033839Y-68787167D03*
X80833839Y-68787167D03*
X81633839Y-68787167D03*
X82433839Y-68787167D03*
X83233839Y-68787167D03*
X84033839Y-68787167D03*
X84833839Y-68787167D03*
X88833839Y-68787167D03*
X89633839Y-68787167D03*
X90433839Y-68787167D03*
X91233839Y-68787167D03*
X92033839Y-68787167D03*
X92833839Y-68787167D03*
X93633839Y-68787167D03*
X94433839Y-68787167D03*
X95233839Y-68787167D03*
X96033839Y-68787167D03*
X96833839Y-68787167D03*
X97633839Y-68787167D03*
X98433839Y-68787167D03*
X99233839Y-68787167D03*
X100033839Y-68787167D03*
X100833839Y-68787167D03*
X101633839Y-68787167D03*
X102433839Y-68787167D03*
X103233839Y-68787167D03*
X104033839Y-68787167D03*
X104833839Y-68787167D03*
X105633839Y-68787167D03*
X106433839Y-68787167D03*
X107233839Y-68787167D03*
X108033839Y-68787167D03*
X108833839Y-68787167D03*
X109633839Y-68787167D03*
X110433839Y-68787167D03*
D12*
X124714000Y-144780000D03*
X45974000Y-83566000D03*
X45974000Y-92202000D03*
D13*
X124714000Y-124714000D03*
D12*
X124714000Y-120396000D03*
X110998000Y-160782000D03*
X83121000Y-102616000D03*
X88201000Y-102616000D03*
X124714000Y-116078000D03*
X45974000Y-100838000D03*
X115316000Y-160782000D03*
X102362000Y-160782000D03*
D14*
X49022000Y-74549000D03*
X125222000Y-160274000D03*
D12*
X45974000Y-87884000D03*
D15*
X55672000Y-157307000D03*
X80672000Y-157307000D03*
D16*
X93772000Y-119207000D03*
X93772000Y-157907000D03*
D13*
X124714000Y-149098000D03*
D12*
X124714000Y-111760000D03*
X124714000Y-107442000D03*
D14*
X45212000Y-160274000D03*
D12*
X124714000Y-140462000D03*
X106680000Y-160782000D03*
D13*
X45974000Y-96520000D03*
D12*
X124714000Y-129286000D03*
D14*
X122682000Y-74549000D03*
D17*
X49149000Y-69086000D03*
X49149000Y-70106000D03*
D18*
X55120000Y-67056000D03*
X54100000Y-67056000D03*
X51564000Y-67056000D03*
X50544000Y-67056000D03*
D19*
X48809000Y-65405000D03*
X46949000Y-65405000D03*
D20*
X53401000Y-68946000D03*
X53401000Y-69596000D03*
X53401000Y-70246000D03*
X51501000Y-70246000D03*
X51501000Y-69596000D03*
X51501000Y-68946000D03*
D18*
X48008000Y-67056000D03*
X46988000Y-67056000D03*
D17*
X55245000Y-69467000D03*
X55245000Y-70487000D03*
D19*
X52365000Y-65405000D03*
X50505000Y-65405000D03*
X55921000Y-65405000D03*
X54061000Y-65405000D03*
D21*
X40150002Y-106498198D02*
G75*
G03*
X40912002Y-107260198I761998J-2D01*
G01*
X113333777Y-66287181D02*
X113333777Y-64205481D01*
X42055002Y-126792798D02*
X42055002Y-108022198D01*
X75024202Y-165350002D02*
G75*
G03*
X76218002Y-164156198I-2J1193802D01*
G01*
X51653814Y-64224163D02*
X56353749Y-64224163D01*
X40912002Y-107260198D02*
X41293002Y-107260198D01*
X129177002Y-107260198D02*
X129558002Y-107260198D01*
X129126202Y-165350002D02*
G75*
G03*
X130320002Y-164156198I-2J1193802D01*
G01*
X41250447Y-69707497D02*
X45250447Y-69707497D01*
X57133767Y-72337133D02*
G75*
G03*
X57708839Y-72912133I574933J-67D01*
G01*
X96538002Y-163622798D02*
G75*
G03*
X95344202Y-162428998I-1193802J-2D01*
G01*
X88033820Y-66387153D02*
X111333822Y-66387153D01*
X113333777Y-64205481D02*
X124165094Y-64205481D01*
X45250447Y-69707503D02*
G75*
G03*
X45733603Y-69224341I-47J483203D01*
G01*
X129558002Y-107260202D02*
G75*
G03*
X130320002Y-106498198I-2J762002D01*
G01*
X112533820Y-72962161D02*
X112758813Y-72962161D01*
X111333839Y-71762171D02*
G75*
G03*
X112533819Y-72962161I1199961J-29D01*
G01*
X129177002Y-107260202D02*
G75*
G03*
X128415002Y-108022198I-2J-761998D01*
G01*
X125217127Y-69707497D02*
X129217124Y-69707497D01*
X76218002Y-164156198D02*
X76218002Y-163622798D01*
X40150002Y-106498198D02*
X40150002Y-70807942D01*
X45733603Y-69224341D02*
X45733786Y-64799170D01*
X57933832Y-72912120D02*
G75*
G03*
X59133820Y-71712142I-32J1200020D01*
G01*
X130320000Y-70810375D02*
G75*
G03*
X129217124Y-69707500I-1102900J-25D01*
G01*
X40912002Y-127554802D02*
G75*
G03*
X40150002Y-128316798I-2J-761998D01*
G01*
X40912002Y-127554798D02*
X41293002Y-127554798D01*
X130320002Y-164156198D02*
X130320002Y-128316798D01*
X124733785Y-69224155D02*
X124733785Y-64774172D01*
X128415002Y-126792798D02*
X128415002Y-108022198D01*
X124733803Y-69224155D02*
G75*
G03*
X125217127Y-69707497I483297J-45D01*
G01*
X57133803Y-66237151D02*
X57133803Y-64224170D01*
X40149993Y-164079998D02*
X40150002Y-128316798D01*
X85633830Y-71762154D02*
X85633830Y-66387163D01*
X96538002Y-164156198D02*
G75*
G03*
X97731802Y-165349998I1193798J-2D01*
G01*
X97731802Y-165349998D02*
X129126202Y-165349998D01*
X129177002Y-127554798D02*
X129558002Y-127554798D01*
X59133820Y-66387150D02*
X85633820Y-66387153D01*
X112758813Y-72962113D02*
G75*
G03*
X113333813Y-72387164I87J574913D01*
G01*
X77411802Y-162428998D02*
X95344202Y-162428998D01*
X41293002Y-127554802D02*
G75*
G03*
X42055002Y-126792798I-2J762002D01*
G01*
X128415002Y-126792798D02*
G75*
G03*
X129177002Y-127554798I761998J-2D01*
G01*
X88033810Y-71762154D02*
X88033810Y-66387163D01*
X113333813Y-72387161D02*
X113333813Y-66287163D01*
X57133839Y-72337131D02*
X57133839Y-66237133D01*
X57708839Y-72912131D02*
X57933832Y-72912131D01*
X46308798Y-64224158D02*
X51653807Y-64224158D01*
X41250447Y-69707502D02*
G75*
G03*
X40150002Y-70807942I-47J-1100398D01*
G01*
X77411802Y-162429002D02*
G75*
G03*
X76218002Y-163622798I-2J-1193798D01*
G01*
X46308798Y-64224186D02*
G75*
G03*
X45733786Y-64799170I2J-575014D01*
G01*
X42055002Y-108022198D02*
G75*
G03*
X41293002Y-107260198I-762002J-2D01*
G01*
X41267602Y-165349995D02*
X75024202Y-165349998D01*
X40150003Y-164079998D02*
G75*
G03*
X41267602Y-165349998I1193797J-76202D01*
G01*
X85633790Y-71762154D02*
G75*
G03*
X88033810Y-71762170I1200010J-46D01*
G01*
X56353754Y-64224170D02*
X57133803Y-64224170D01*
X130320002Y-128316798D02*
G75*
G03*
X129558002Y-127554798I-762002J-2D01*
G01*
X59133820Y-71712123D02*
X59133820Y-66387153D01*
X111333832Y-71762154D02*
X111333832Y-66387163D01*
X96538002Y-164156198D02*
X96538002Y-163622798D01*
X124733719Y-64774172D02*
G75*
G03*
X124165094Y-64205481I-568619J72D01*
G01*
X130320002Y-106498198D02*
X130320002Y-70810375D01*
M02*
