%TF.GenerationSoftware,KiCad,Pcbnew,7.0.1*%
%TF.CreationDate,2023-06-22T14:27:19-04:00*%
%TF.ProjectId,payload-interface-board,7061796c-6f61-4642-9d69-6e7465726661,B*%
%TF.SameCoordinates,Original*%
%TF.FileFunction,Drillmap*%
%TF.FilePolarity,Positive*%
%FSLAX45Y45*%
G04 Gerber Fmt 4.5, Leading zero omitted, Abs format (unit mm)*
G04 Created by KiCad (PCBNEW 7.0.1) date 2023-06-22 14:27:19*
%MOMM*%
%LPD*%
G01*
G04 APERTURE LIST*
%ADD10C,0.200000*%
%ADD11C,0.250000*%
G04 APERTURE END LIST*
D10*
X4015000Y-10649820D02*
G75*
G03*
X4091200Y-10726020I76200J0D01*
G01*
X11333378Y-6628718D02*
X11333378Y-6420548D01*
X4205500Y-12679280D02*
X4205500Y-10802220D01*
X7502420Y-16535000D02*
G75*
G03*
X7621800Y-16415620I0J119380D01*
G01*
X5165381Y-6422416D02*
X5635375Y-6422416D01*
X4091200Y-10726020D02*
X4129300Y-10726020D01*
X12917700Y-10726020D02*
X12955800Y-10726020D01*
X12912620Y-16535000D02*
G75*
G03*
X13032000Y-16415620I0J119380D01*
G01*
X4125045Y-6970750D02*
X4525045Y-6970750D01*
X5713377Y-7233713D02*
G75*
G03*
X5770884Y-7291213I57493J-7D01*
G01*
X9653800Y-16362280D02*
G75*
G03*
X9534420Y-16242900I-119380J0D01*
G01*
X8803382Y-6638715D02*
X11133382Y-6638715D01*
X11333378Y-6420548D02*
X12416509Y-6420548D01*
X4525045Y-6970750D02*
G75*
G03*
X4573360Y-6922434I-5J48320D01*
G01*
X12955800Y-10726020D02*
G75*
G03*
X13032000Y-10649820I0J76200D01*
G01*
X11253382Y-7296216D02*
X11275881Y-7296216D01*
X11133384Y-7176217D02*
G75*
G03*
X11253382Y-7296216I119996J-3D01*
G01*
X12917700Y-10726020D02*
G75*
G03*
X12841500Y-10802220I0J-76200D01*
G01*
X12521713Y-6970750D02*
X12921712Y-6970750D01*
X7621800Y-16415620D02*
X7621800Y-16362280D01*
X4015000Y-10649820D02*
X4015000Y-7080794D01*
X4573360Y-6922434D02*
X4573379Y-6479917D01*
X5793383Y-7291212D02*
G75*
G03*
X5913382Y-7171214I-3J120002D01*
G01*
X13032000Y-7081037D02*
G75*
G03*
X12921712Y-6970750I-110290J-3D01*
G01*
X4091200Y-12755480D02*
G75*
G03*
X4015000Y-12831680I0J-76200D01*
G01*
X4091200Y-12755480D02*
X4129300Y-12755480D01*
X13032000Y-16415620D02*
X13032000Y-12831680D01*
X12473378Y-6922415D02*
X12473378Y-6477417D01*
X12841500Y-12679280D02*
X12841500Y-10802220D01*
X12473380Y-6922415D02*
G75*
G03*
X12521713Y-6970750I48330J-5D01*
G01*
X5713380Y-6623715D02*
X5713380Y-6422417D01*
X4014999Y-16408000D02*
X4015000Y-12831680D01*
X8563383Y-7176215D02*
X8563383Y-6638716D01*
X9653800Y-16415620D02*
G75*
G03*
X9773180Y-16535000I119380J0D01*
G01*
X9773180Y-16535000D02*
X12912620Y-16535000D01*
X12917700Y-12755480D02*
X12955800Y-12755480D01*
X5913382Y-6638715D02*
X8563382Y-6638715D01*
X11275881Y-7296211D02*
G75*
G03*
X11333381Y-7238716I9J57491D01*
G01*
X7741180Y-16242900D02*
X9534420Y-16242900D01*
X4129300Y-12755480D02*
G75*
G03*
X4205500Y-12679280I0J76200D01*
G01*
X12841500Y-12679280D02*
G75*
G03*
X12917700Y-12755480I76200J0D01*
G01*
X8803381Y-7176215D02*
X8803381Y-6638716D01*
X11333381Y-7238716D02*
X11333381Y-6628716D01*
X5713384Y-7233713D02*
X5713384Y-6623713D01*
X5770884Y-7291213D02*
X5793383Y-7291213D01*
X4630880Y-6422416D02*
X5165381Y-6422416D01*
X4125045Y-6970750D02*
G75*
G03*
X4015000Y-7080794I-5J-110040D01*
G01*
X7741180Y-16242900D02*
G75*
G03*
X7621800Y-16362280I0J-119380D01*
G01*
X4630880Y-6422419D02*
G75*
G03*
X4573379Y-6479917I0J-57501D01*
G01*
X4205500Y-10802220D02*
G75*
G03*
X4129300Y-10726020I-76200J0D01*
G01*
X4126760Y-16534999D02*
X7502420Y-16535000D01*
X4015000Y-16408000D02*
G75*
G03*
X4126760Y-16535000I119380J-7620D01*
G01*
X8563379Y-7176215D02*
G75*
G03*
X8803381Y-7176217I120001J-5D01*
G01*
X5635375Y-6422417D02*
X5713380Y-6422417D01*
X13032000Y-12831680D02*
G75*
G03*
X12955800Y-12755480I-76200J0D01*
G01*
X5913382Y-7171212D02*
X5913382Y-6638715D01*
X11133383Y-7176215D02*
X11133383Y-6638716D01*
X9653800Y-16415620D02*
X9653800Y-16362280D01*
X12473372Y-6477417D02*
G75*
G03*
X12416509Y-6420548I-56862J7D01*
G01*
X13032000Y-10649820D02*
X13032000Y-7081037D01*
D11*
X5442200Y-15605700D02*
X5692200Y-15855700D01*
X5692200Y-15605700D02*
X5442200Y-15855700D01*
X7942200Y-15605700D02*
X8192200Y-15855700D01*
X8192200Y-15605700D02*
X7942200Y-15855700D01*
X9252200Y-11795700D02*
X9502200Y-12045700D01*
X9502200Y-11795700D02*
X9252200Y-12045700D01*
X9252200Y-15665700D02*
X9502200Y-15915700D01*
X9502200Y-15665700D02*
X9252200Y-15915700D01*
D10*
X4252376Y-16857524D02*
X4252376Y-16657524D01*
X4252376Y-16657524D02*
X4299995Y-16657524D01*
X4299995Y-16657524D02*
X4328567Y-16667047D01*
X4328567Y-16667047D02*
X4347614Y-16686095D01*
X4347614Y-16686095D02*
X4357138Y-16705143D01*
X4357138Y-16705143D02*
X4366662Y-16743238D01*
X4366662Y-16743238D02*
X4366662Y-16771809D01*
X4366662Y-16771809D02*
X4357138Y-16809905D01*
X4357138Y-16809905D02*
X4347614Y-16828952D01*
X4347614Y-16828952D02*
X4328567Y-16848000D01*
X4328567Y-16848000D02*
X4299995Y-16857524D01*
X4299995Y-16857524D02*
X4252376Y-16857524D01*
X4452376Y-16857524D02*
X4452376Y-16724190D01*
X4452376Y-16762285D02*
X4461900Y-16743238D01*
X4461900Y-16743238D02*
X4471424Y-16733714D01*
X4471424Y-16733714D02*
X4490472Y-16724190D01*
X4490472Y-16724190D02*
X4509519Y-16724190D01*
X4576186Y-16857524D02*
X4576186Y-16724190D01*
X4576186Y-16657524D02*
X4566662Y-16667047D01*
X4566662Y-16667047D02*
X4576186Y-16676571D01*
X4576186Y-16676571D02*
X4585710Y-16667047D01*
X4585710Y-16667047D02*
X4576186Y-16657524D01*
X4576186Y-16657524D02*
X4576186Y-16676571D01*
X4699995Y-16857524D02*
X4680948Y-16848000D01*
X4680948Y-16848000D02*
X4671424Y-16828952D01*
X4671424Y-16828952D02*
X4671424Y-16657524D01*
X4804757Y-16857524D02*
X4785710Y-16848000D01*
X4785710Y-16848000D02*
X4776186Y-16828952D01*
X4776186Y-16828952D02*
X4776186Y-16657524D01*
X5033329Y-16857524D02*
X5033329Y-16657524D01*
X5033329Y-16657524D02*
X5099995Y-16800381D01*
X5099995Y-16800381D02*
X5166662Y-16657524D01*
X5166662Y-16657524D02*
X5166662Y-16857524D01*
X5347614Y-16857524D02*
X5347614Y-16752762D01*
X5347614Y-16752762D02*
X5338091Y-16733714D01*
X5338091Y-16733714D02*
X5319043Y-16724190D01*
X5319043Y-16724190D02*
X5280948Y-16724190D01*
X5280948Y-16724190D02*
X5261900Y-16733714D01*
X5347614Y-16848000D02*
X5328567Y-16857524D01*
X5328567Y-16857524D02*
X5280948Y-16857524D01*
X5280948Y-16857524D02*
X5261900Y-16848000D01*
X5261900Y-16848000D02*
X5252376Y-16828952D01*
X5252376Y-16828952D02*
X5252376Y-16809905D01*
X5252376Y-16809905D02*
X5261900Y-16790857D01*
X5261900Y-16790857D02*
X5280948Y-16781333D01*
X5280948Y-16781333D02*
X5328567Y-16781333D01*
X5328567Y-16781333D02*
X5347614Y-16771809D01*
X5442853Y-16724190D02*
X5442853Y-16924190D01*
X5442853Y-16733714D02*
X5461900Y-16724190D01*
X5461900Y-16724190D02*
X5499995Y-16724190D01*
X5499995Y-16724190D02*
X5519043Y-16733714D01*
X5519043Y-16733714D02*
X5528567Y-16743238D01*
X5528567Y-16743238D02*
X5538091Y-16762285D01*
X5538091Y-16762285D02*
X5538091Y-16819428D01*
X5538091Y-16819428D02*
X5528567Y-16838476D01*
X5528567Y-16838476D02*
X5519043Y-16848000D01*
X5519043Y-16848000D02*
X5499995Y-16857524D01*
X5499995Y-16857524D02*
X5461900Y-16857524D01*
X5461900Y-16857524D02*
X5442853Y-16848000D01*
X5623805Y-16838476D02*
X5633329Y-16848000D01*
X5633329Y-16848000D02*
X5623805Y-16857524D01*
X5623805Y-16857524D02*
X5614281Y-16848000D01*
X5614281Y-16848000D02*
X5623805Y-16838476D01*
X5623805Y-16838476D02*
X5623805Y-16857524D01*
X5623805Y-16733714D02*
X5633329Y-16743238D01*
X5633329Y-16743238D02*
X5623805Y-16752762D01*
X5623805Y-16752762D02*
X5614281Y-16743238D01*
X5614281Y-16743238D02*
X5623805Y-16733714D01*
X5623805Y-16733714D02*
X5623805Y-16752762D01*
X3804757Y-17085000D02*
X4004757Y-17285000D01*
X4004757Y-17085000D02*
X3804757Y-17285000D01*
X4242853Y-17096571D02*
X4252376Y-17087047D01*
X4252376Y-17087047D02*
X4271424Y-17077524D01*
X4271424Y-17077524D02*
X4319043Y-17077524D01*
X4319043Y-17077524D02*
X4338091Y-17087047D01*
X4338091Y-17087047D02*
X4347614Y-17096571D01*
X4347614Y-17096571D02*
X4357138Y-17115619D01*
X4357138Y-17115619D02*
X4357138Y-17134666D01*
X4357138Y-17134666D02*
X4347614Y-17163238D01*
X4347614Y-17163238D02*
X4233329Y-17277524D01*
X4233329Y-17277524D02*
X4357138Y-17277524D01*
X4442853Y-17258476D02*
X4452376Y-17268000D01*
X4452376Y-17268000D02*
X4442853Y-17277524D01*
X4442853Y-17277524D02*
X4433329Y-17268000D01*
X4433329Y-17268000D02*
X4442853Y-17258476D01*
X4442853Y-17258476D02*
X4442853Y-17277524D01*
X4633329Y-17077524D02*
X4538091Y-17077524D01*
X4538091Y-17077524D02*
X4528567Y-17172762D01*
X4528567Y-17172762D02*
X4538091Y-17163238D01*
X4538091Y-17163238D02*
X4557138Y-17153714D01*
X4557138Y-17153714D02*
X4604757Y-17153714D01*
X4604757Y-17153714D02*
X4623805Y-17163238D01*
X4623805Y-17163238D02*
X4633329Y-17172762D01*
X4633329Y-17172762D02*
X4642853Y-17191809D01*
X4642853Y-17191809D02*
X4642853Y-17239428D01*
X4642853Y-17239428D02*
X4633329Y-17258476D01*
X4633329Y-17258476D02*
X4623805Y-17268000D01*
X4623805Y-17268000D02*
X4604757Y-17277524D01*
X4604757Y-17277524D02*
X4557138Y-17277524D01*
X4557138Y-17277524D02*
X4538091Y-17268000D01*
X4538091Y-17268000D02*
X4528567Y-17258476D01*
X4766662Y-17077524D02*
X4785710Y-17077524D01*
X4785710Y-17077524D02*
X4804757Y-17087047D01*
X4804757Y-17087047D02*
X4814281Y-17096571D01*
X4814281Y-17096571D02*
X4823805Y-17115619D01*
X4823805Y-17115619D02*
X4833329Y-17153714D01*
X4833329Y-17153714D02*
X4833329Y-17201333D01*
X4833329Y-17201333D02*
X4823805Y-17239428D01*
X4823805Y-17239428D02*
X4814281Y-17258476D01*
X4814281Y-17258476D02*
X4804757Y-17268000D01*
X4804757Y-17268000D02*
X4785710Y-17277524D01*
X4785710Y-17277524D02*
X4766662Y-17277524D01*
X4766662Y-17277524D02*
X4747614Y-17268000D01*
X4747614Y-17268000D02*
X4738091Y-17258476D01*
X4738091Y-17258476D02*
X4728567Y-17239428D01*
X4728567Y-17239428D02*
X4719043Y-17201333D01*
X4719043Y-17201333D02*
X4719043Y-17153714D01*
X4719043Y-17153714D02*
X4728567Y-17115619D01*
X4728567Y-17115619D02*
X4738091Y-17096571D01*
X4738091Y-17096571D02*
X4747614Y-17087047D01*
X4747614Y-17087047D02*
X4766662Y-17077524D01*
X4957138Y-17077524D02*
X4976186Y-17077524D01*
X4976186Y-17077524D02*
X4995234Y-17087047D01*
X4995234Y-17087047D02*
X5004757Y-17096571D01*
X5004757Y-17096571D02*
X5014281Y-17115619D01*
X5014281Y-17115619D02*
X5023805Y-17153714D01*
X5023805Y-17153714D02*
X5023805Y-17201333D01*
X5023805Y-17201333D02*
X5014281Y-17239428D01*
X5014281Y-17239428D02*
X5004757Y-17258476D01*
X5004757Y-17258476D02*
X4995234Y-17268000D01*
X4995234Y-17268000D02*
X4976186Y-17277524D01*
X4976186Y-17277524D02*
X4957138Y-17277524D01*
X4957138Y-17277524D02*
X4938091Y-17268000D01*
X4938091Y-17268000D02*
X4928567Y-17258476D01*
X4928567Y-17258476D02*
X4919043Y-17239428D01*
X4919043Y-17239428D02*
X4909519Y-17201333D01*
X4909519Y-17201333D02*
X4909519Y-17153714D01*
X4909519Y-17153714D02*
X4919043Y-17115619D01*
X4919043Y-17115619D02*
X4928567Y-17096571D01*
X4928567Y-17096571D02*
X4938091Y-17087047D01*
X4938091Y-17087047D02*
X4957138Y-17077524D01*
X5109519Y-17277524D02*
X5109519Y-17144190D01*
X5109519Y-17163238D02*
X5119043Y-17153714D01*
X5119043Y-17153714D02*
X5138091Y-17144190D01*
X5138091Y-17144190D02*
X5166662Y-17144190D01*
X5166662Y-17144190D02*
X5185710Y-17153714D01*
X5185710Y-17153714D02*
X5195234Y-17172762D01*
X5195234Y-17172762D02*
X5195234Y-17277524D01*
X5195234Y-17172762D02*
X5204757Y-17153714D01*
X5204757Y-17153714D02*
X5223805Y-17144190D01*
X5223805Y-17144190D02*
X5252376Y-17144190D01*
X5252376Y-17144190D02*
X5271424Y-17153714D01*
X5271424Y-17153714D02*
X5280948Y-17172762D01*
X5280948Y-17172762D02*
X5280948Y-17277524D01*
X5376186Y-17277524D02*
X5376186Y-17144190D01*
X5376186Y-17163238D02*
X5385710Y-17153714D01*
X5385710Y-17153714D02*
X5404757Y-17144190D01*
X5404757Y-17144190D02*
X5433329Y-17144190D01*
X5433329Y-17144190D02*
X5452376Y-17153714D01*
X5452376Y-17153714D02*
X5461900Y-17172762D01*
X5461900Y-17172762D02*
X5461900Y-17277524D01*
X5461900Y-17172762D02*
X5471424Y-17153714D01*
X5471424Y-17153714D02*
X5490472Y-17144190D01*
X5490472Y-17144190D02*
X5519043Y-17144190D01*
X5519043Y-17144190D02*
X5538091Y-17153714D01*
X5538091Y-17153714D02*
X5547615Y-17172762D01*
X5547615Y-17172762D02*
X5547615Y-17277524D01*
X5938091Y-17068000D02*
X5766662Y-17325143D01*
X6195234Y-17077524D02*
X6214281Y-17077524D01*
X6214281Y-17077524D02*
X6233329Y-17087047D01*
X6233329Y-17087047D02*
X6242853Y-17096571D01*
X6242853Y-17096571D02*
X6252376Y-17115619D01*
X6252376Y-17115619D02*
X6261900Y-17153714D01*
X6261900Y-17153714D02*
X6261900Y-17201333D01*
X6261900Y-17201333D02*
X6252376Y-17239428D01*
X6252376Y-17239428D02*
X6242853Y-17258476D01*
X6242853Y-17258476D02*
X6233329Y-17268000D01*
X6233329Y-17268000D02*
X6214281Y-17277524D01*
X6214281Y-17277524D02*
X6195234Y-17277524D01*
X6195234Y-17277524D02*
X6176186Y-17268000D01*
X6176186Y-17268000D02*
X6166662Y-17258476D01*
X6166662Y-17258476D02*
X6157138Y-17239428D01*
X6157138Y-17239428D02*
X6147615Y-17201333D01*
X6147615Y-17201333D02*
X6147615Y-17153714D01*
X6147615Y-17153714D02*
X6157138Y-17115619D01*
X6157138Y-17115619D02*
X6166662Y-17096571D01*
X6166662Y-17096571D02*
X6176186Y-17087047D01*
X6176186Y-17087047D02*
X6195234Y-17077524D01*
X6347615Y-17258476D02*
X6357138Y-17268000D01*
X6357138Y-17268000D02*
X6347615Y-17277524D01*
X6347615Y-17277524D02*
X6338091Y-17268000D01*
X6338091Y-17268000D02*
X6347615Y-17258476D01*
X6347615Y-17258476D02*
X6347615Y-17277524D01*
X6480948Y-17077524D02*
X6499996Y-17077524D01*
X6499996Y-17077524D02*
X6519043Y-17087047D01*
X6519043Y-17087047D02*
X6528567Y-17096571D01*
X6528567Y-17096571D02*
X6538091Y-17115619D01*
X6538091Y-17115619D02*
X6547615Y-17153714D01*
X6547615Y-17153714D02*
X6547615Y-17201333D01*
X6547615Y-17201333D02*
X6538091Y-17239428D01*
X6538091Y-17239428D02*
X6528567Y-17258476D01*
X6528567Y-17258476D02*
X6519043Y-17268000D01*
X6519043Y-17268000D02*
X6499996Y-17277524D01*
X6499996Y-17277524D02*
X6480948Y-17277524D01*
X6480948Y-17277524D02*
X6461900Y-17268000D01*
X6461900Y-17268000D02*
X6452376Y-17258476D01*
X6452376Y-17258476D02*
X6442853Y-17239428D01*
X6442853Y-17239428D02*
X6433329Y-17201333D01*
X6433329Y-17201333D02*
X6433329Y-17153714D01*
X6433329Y-17153714D02*
X6442853Y-17115619D01*
X6442853Y-17115619D02*
X6452376Y-17096571D01*
X6452376Y-17096571D02*
X6461900Y-17087047D01*
X6461900Y-17087047D02*
X6480948Y-17077524D01*
X6642853Y-17277524D02*
X6680948Y-17277524D01*
X6680948Y-17277524D02*
X6699996Y-17268000D01*
X6699996Y-17268000D02*
X6709519Y-17258476D01*
X6709519Y-17258476D02*
X6728567Y-17229905D01*
X6728567Y-17229905D02*
X6738091Y-17191809D01*
X6738091Y-17191809D02*
X6738091Y-17115619D01*
X6738091Y-17115619D02*
X6728567Y-17096571D01*
X6728567Y-17096571D02*
X6719043Y-17087047D01*
X6719043Y-17087047D02*
X6699996Y-17077524D01*
X6699996Y-17077524D02*
X6661900Y-17077524D01*
X6661900Y-17077524D02*
X6642853Y-17087047D01*
X6642853Y-17087047D02*
X6633329Y-17096571D01*
X6633329Y-17096571D02*
X6623805Y-17115619D01*
X6623805Y-17115619D02*
X6623805Y-17163238D01*
X6623805Y-17163238D02*
X6633329Y-17182286D01*
X6633329Y-17182286D02*
X6642853Y-17191809D01*
X6642853Y-17191809D02*
X6661900Y-17201333D01*
X6661900Y-17201333D02*
X6699996Y-17201333D01*
X6699996Y-17201333D02*
X6719043Y-17191809D01*
X6719043Y-17191809D02*
X6728567Y-17182286D01*
X6728567Y-17182286D02*
X6738091Y-17163238D01*
X6852376Y-17163238D02*
X6833329Y-17153714D01*
X6833329Y-17153714D02*
X6823805Y-17144190D01*
X6823805Y-17144190D02*
X6814281Y-17125143D01*
X6814281Y-17125143D02*
X6814281Y-17115619D01*
X6814281Y-17115619D02*
X6823805Y-17096571D01*
X6823805Y-17096571D02*
X6833329Y-17087047D01*
X6833329Y-17087047D02*
X6852376Y-17077524D01*
X6852376Y-17077524D02*
X6890472Y-17077524D01*
X6890472Y-17077524D02*
X6909519Y-17087047D01*
X6909519Y-17087047D02*
X6919043Y-17096571D01*
X6919043Y-17096571D02*
X6928567Y-17115619D01*
X6928567Y-17115619D02*
X6928567Y-17125143D01*
X6928567Y-17125143D02*
X6919043Y-17144190D01*
X6919043Y-17144190D02*
X6909519Y-17153714D01*
X6909519Y-17153714D02*
X6890472Y-17163238D01*
X6890472Y-17163238D02*
X6852376Y-17163238D01*
X6852376Y-17163238D02*
X6833329Y-17172762D01*
X6833329Y-17172762D02*
X6823805Y-17182286D01*
X6823805Y-17182286D02*
X6814281Y-17201333D01*
X6814281Y-17201333D02*
X6814281Y-17239428D01*
X6814281Y-17239428D02*
X6823805Y-17258476D01*
X6823805Y-17258476D02*
X6833329Y-17268000D01*
X6833329Y-17268000D02*
X6852376Y-17277524D01*
X6852376Y-17277524D02*
X6890472Y-17277524D01*
X6890472Y-17277524D02*
X6909519Y-17268000D01*
X6909519Y-17268000D02*
X6919043Y-17258476D01*
X6919043Y-17258476D02*
X6928567Y-17239428D01*
X6928567Y-17239428D02*
X6928567Y-17201333D01*
X6928567Y-17201333D02*
X6919043Y-17182286D01*
X6919043Y-17182286D02*
X6909519Y-17172762D01*
X6909519Y-17172762D02*
X6890472Y-17163238D01*
X7099996Y-17144190D02*
X7099996Y-17277524D01*
X7052376Y-17068000D02*
X7004757Y-17210857D01*
X7004757Y-17210857D02*
X7128567Y-17210857D01*
X7195234Y-17077524D02*
X7195234Y-17115619D01*
X7271424Y-17077524D02*
X7271424Y-17115619D01*
X7566662Y-17353714D02*
X7557138Y-17344190D01*
X7557138Y-17344190D02*
X7538091Y-17315619D01*
X7538091Y-17315619D02*
X7528567Y-17296571D01*
X7528567Y-17296571D02*
X7519043Y-17268000D01*
X7519043Y-17268000D02*
X7509519Y-17220381D01*
X7509519Y-17220381D02*
X7509519Y-17182286D01*
X7509519Y-17182286D02*
X7519043Y-17134666D01*
X7519043Y-17134666D02*
X7528567Y-17106095D01*
X7528567Y-17106095D02*
X7538091Y-17087047D01*
X7538091Y-17087047D02*
X7557138Y-17058476D01*
X7557138Y-17058476D02*
X7566662Y-17048952D01*
X7728567Y-17144190D02*
X7728567Y-17277524D01*
X7680948Y-17068000D02*
X7633329Y-17210857D01*
X7633329Y-17210857D02*
X7757138Y-17210857D01*
X7985710Y-17277524D02*
X7985710Y-17077524D01*
X8071424Y-17277524D02*
X8071424Y-17172762D01*
X8071424Y-17172762D02*
X8061900Y-17153714D01*
X8061900Y-17153714D02*
X8042853Y-17144190D01*
X8042853Y-17144190D02*
X8014281Y-17144190D01*
X8014281Y-17144190D02*
X7995234Y-17153714D01*
X7995234Y-17153714D02*
X7985710Y-17163238D01*
X8195234Y-17277524D02*
X8176186Y-17268000D01*
X8176186Y-17268000D02*
X8166662Y-17258476D01*
X8166662Y-17258476D02*
X8157139Y-17239428D01*
X8157139Y-17239428D02*
X8157139Y-17182286D01*
X8157139Y-17182286D02*
X8166662Y-17163238D01*
X8166662Y-17163238D02*
X8176186Y-17153714D01*
X8176186Y-17153714D02*
X8195234Y-17144190D01*
X8195234Y-17144190D02*
X8223805Y-17144190D01*
X8223805Y-17144190D02*
X8242853Y-17153714D01*
X8242853Y-17153714D02*
X8252377Y-17163238D01*
X8252377Y-17163238D02*
X8261900Y-17182286D01*
X8261900Y-17182286D02*
X8261900Y-17239428D01*
X8261900Y-17239428D02*
X8252377Y-17258476D01*
X8252377Y-17258476D02*
X8242853Y-17268000D01*
X8242853Y-17268000D02*
X8223805Y-17277524D01*
X8223805Y-17277524D02*
X8195234Y-17277524D01*
X8376186Y-17277524D02*
X8357139Y-17268000D01*
X8357139Y-17268000D02*
X8347615Y-17248952D01*
X8347615Y-17248952D02*
X8347615Y-17077524D01*
X8528567Y-17268000D02*
X8509520Y-17277524D01*
X8509520Y-17277524D02*
X8471424Y-17277524D01*
X8471424Y-17277524D02*
X8452377Y-17268000D01*
X8452377Y-17268000D02*
X8442853Y-17248952D01*
X8442853Y-17248952D02*
X8442853Y-17172762D01*
X8442853Y-17172762D02*
X8452377Y-17153714D01*
X8452377Y-17153714D02*
X8471424Y-17144190D01*
X8471424Y-17144190D02*
X8509520Y-17144190D01*
X8509520Y-17144190D02*
X8528567Y-17153714D01*
X8528567Y-17153714D02*
X8538091Y-17172762D01*
X8538091Y-17172762D02*
X8538091Y-17191809D01*
X8538091Y-17191809D02*
X8442853Y-17210857D01*
X8614282Y-17268000D02*
X8633329Y-17277524D01*
X8633329Y-17277524D02*
X8671424Y-17277524D01*
X8671424Y-17277524D02*
X8690472Y-17268000D01*
X8690472Y-17268000D02*
X8699996Y-17248952D01*
X8699996Y-17248952D02*
X8699996Y-17239428D01*
X8699996Y-17239428D02*
X8690472Y-17220381D01*
X8690472Y-17220381D02*
X8671424Y-17210857D01*
X8671424Y-17210857D02*
X8642853Y-17210857D01*
X8642853Y-17210857D02*
X8623805Y-17201333D01*
X8623805Y-17201333D02*
X8614282Y-17182286D01*
X8614282Y-17182286D02*
X8614282Y-17172762D01*
X8614282Y-17172762D02*
X8623805Y-17153714D01*
X8623805Y-17153714D02*
X8642853Y-17144190D01*
X8642853Y-17144190D02*
X8671424Y-17144190D01*
X8671424Y-17144190D02*
X8690472Y-17153714D01*
X8766663Y-17353714D02*
X8776186Y-17344190D01*
X8776186Y-17344190D02*
X8795234Y-17315619D01*
X8795234Y-17315619D02*
X8804758Y-17296571D01*
X8804758Y-17296571D02*
X8814282Y-17268000D01*
X8814282Y-17268000D02*
X8823805Y-17220381D01*
X8823805Y-17220381D02*
X8823805Y-17182286D01*
X8823805Y-17182286D02*
X8814282Y-17134666D01*
X8814282Y-17134666D02*
X8804758Y-17106095D01*
X8804758Y-17106095D02*
X8795234Y-17087047D01*
X8795234Y-17087047D02*
X8776186Y-17058476D01*
X8776186Y-17058476D02*
X8766663Y-17048952D01*
X9128567Y-17353714D02*
X9119043Y-17344190D01*
X9119043Y-17344190D02*
X9099996Y-17315619D01*
X9099996Y-17315619D02*
X9090472Y-17296571D01*
X9090472Y-17296571D02*
X9080948Y-17268000D01*
X9080948Y-17268000D02*
X9071424Y-17220381D01*
X9071424Y-17220381D02*
X9071424Y-17182286D01*
X9071424Y-17182286D02*
X9080948Y-17134666D01*
X9080948Y-17134666D02*
X9090472Y-17106095D01*
X9090472Y-17106095D02*
X9099996Y-17087047D01*
X9099996Y-17087047D02*
X9119043Y-17058476D01*
X9119043Y-17058476D02*
X9128567Y-17048952D01*
X9204758Y-17144190D02*
X9204758Y-17277524D01*
X9204758Y-17163238D02*
X9214282Y-17153714D01*
X9214282Y-17153714D02*
X9233329Y-17144190D01*
X9233329Y-17144190D02*
X9261901Y-17144190D01*
X9261901Y-17144190D02*
X9280948Y-17153714D01*
X9280948Y-17153714D02*
X9290472Y-17172762D01*
X9290472Y-17172762D02*
X9290472Y-17277524D01*
X9414282Y-17277524D02*
X9395234Y-17268000D01*
X9395234Y-17268000D02*
X9385710Y-17258476D01*
X9385710Y-17258476D02*
X9376186Y-17239428D01*
X9376186Y-17239428D02*
X9376186Y-17182286D01*
X9376186Y-17182286D02*
X9385710Y-17163238D01*
X9385710Y-17163238D02*
X9395234Y-17153714D01*
X9395234Y-17153714D02*
X9414282Y-17144190D01*
X9414282Y-17144190D02*
X9442853Y-17144190D01*
X9442853Y-17144190D02*
X9461901Y-17153714D01*
X9461901Y-17153714D02*
X9471424Y-17163238D01*
X9471424Y-17163238D02*
X9480948Y-17182286D01*
X9480948Y-17182286D02*
X9480948Y-17239428D01*
X9480948Y-17239428D02*
X9471424Y-17258476D01*
X9471424Y-17258476D02*
X9461901Y-17268000D01*
X9461901Y-17268000D02*
X9442853Y-17277524D01*
X9442853Y-17277524D02*
X9414282Y-17277524D01*
X9538091Y-17144190D02*
X9614282Y-17144190D01*
X9566663Y-17077524D02*
X9566663Y-17248952D01*
X9566663Y-17248952D02*
X9576186Y-17268000D01*
X9576186Y-17268000D02*
X9595234Y-17277524D01*
X9595234Y-17277524D02*
X9614282Y-17277524D01*
X9833329Y-17144190D02*
X9833329Y-17344190D01*
X9833329Y-17153714D02*
X9852377Y-17144190D01*
X9852377Y-17144190D02*
X9890472Y-17144190D01*
X9890472Y-17144190D02*
X9909520Y-17153714D01*
X9909520Y-17153714D02*
X9919044Y-17163238D01*
X9919044Y-17163238D02*
X9928567Y-17182286D01*
X9928567Y-17182286D02*
X9928567Y-17239428D01*
X9928567Y-17239428D02*
X9919044Y-17258476D01*
X9919044Y-17258476D02*
X9909520Y-17268000D01*
X9909520Y-17268000D02*
X9890472Y-17277524D01*
X9890472Y-17277524D02*
X9852377Y-17277524D01*
X9852377Y-17277524D02*
X9833329Y-17268000D01*
X10042853Y-17277524D02*
X10023805Y-17268000D01*
X10023805Y-17268000D02*
X10014282Y-17248952D01*
X10014282Y-17248952D02*
X10014282Y-17077524D01*
X10204758Y-17277524D02*
X10204758Y-17172762D01*
X10204758Y-17172762D02*
X10195234Y-17153714D01*
X10195234Y-17153714D02*
X10176186Y-17144190D01*
X10176186Y-17144190D02*
X10138091Y-17144190D01*
X10138091Y-17144190D02*
X10119044Y-17153714D01*
X10204758Y-17268000D02*
X10185710Y-17277524D01*
X10185710Y-17277524D02*
X10138091Y-17277524D01*
X10138091Y-17277524D02*
X10119044Y-17268000D01*
X10119044Y-17268000D02*
X10109520Y-17248952D01*
X10109520Y-17248952D02*
X10109520Y-17229905D01*
X10109520Y-17229905D02*
X10119044Y-17210857D01*
X10119044Y-17210857D02*
X10138091Y-17201333D01*
X10138091Y-17201333D02*
X10185710Y-17201333D01*
X10185710Y-17201333D02*
X10204758Y-17191809D01*
X10271425Y-17144190D02*
X10347615Y-17144190D01*
X10299996Y-17077524D02*
X10299996Y-17248952D01*
X10299996Y-17248952D02*
X10309520Y-17268000D01*
X10309520Y-17268000D02*
X10328567Y-17277524D01*
X10328567Y-17277524D02*
X10347615Y-17277524D01*
X10490472Y-17268000D02*
X10471425Y-17277524D01*
X10471425Y-17277524D02*
X10433329Y-17277524D01*
X10433329Y-17277524D02*
X10414282Y-17268000D01*
X10414282Y-17268000D02*
X10404758Y-17248952D01*
X10404758Y-17248952D02*
X10404758Y-17172762D01*
X10404758Y-17172762D02*
X10414282Y-17153714D01*
X10414282Y-17153714D02*
X10433329Y-17144190D01*
X10433329Y-17144190D02*
X10471425Y-17144190D01*
X10471425Y-17144190D02*
X10490472Y-17153714D01*
X10490472Y-17153714D02*
X10499996Y-17172762D01*
X10499996Y-17172762D02*
X10499996Y-17191809D01*
X10499996Y-17191809D02*
X10404758Y-17210857D01*
X10671425Y-17277524D02*
X10671425Y-17077524D01*
X10671425Y-17268000D02*
X10652377Y-17277524D01*
X10652377Y-17277524D02*
X10614282Y-17277524D01*
X10614282Y-17277524D02*
X10595234Y-17268000D01*
X10595234Y-17268000D02*
X10585710Y-17258476D01*
X10585710Y-17258476D02*
X10576186Y-17239428D01*
X10576186Y-17239428D02*
X10576186Y-17182286D01*
X10576186Y-17182286D02*
X10585710Y-17163238D01*
X10585710Y-17163238D02*
X10595234Y-17153714D01*
X10595234Y-17153714D02*
X10614282Y-17144190D01*
X10614282Y-17144190D02*
X10652377Y-17144190D01*
X10652377Y-17144190D02*
X10671425Y-17153714D01*
X10747615Y-17353714D02*
X10757139Y-17344190D01*
X10757139Y-17344190D02*
X10776186Y-17315619D01*
X10776186Y-17315619D02*
X10785710Y-17296571D01*
X10785710Y-17296571D02*
X10795234Y-17268000D01*
X10795234Y-17268000D02*
X10804758Y-17220381D01*
X10804758Y-17220381D02*
X10804758Y-17182286D01*
X10804758Y-17182286D02*
X10795234Y-17134666D01*
X10795234Y-17134666D02*
X10785710Y-17106095D01*
X10785710Y-17106095D02*
X10776186Y-17087047D01*
X10776186Y-17087047D02*
X10757139Y-17058476D01*
X10757139Y-17058476D02*
X10747615Y-17048952D01*
M02*
