G04 #@! TF.GenerationSoftware,KiCad,Pcbnew,7.0.1*
G04 #@! TF.CreationDate,2023-06-22T14:27:13-04:00*
G04 #@! TF.ProjectId,payload-interface-board,7061796c-6f61-4642-9d69-6e7465726661,B*
G04 #@! TF.SameCoordinates,Original*
G04 #@! TF.FileFunction,Copper,L3,Inr*
G04 #@! TF.FilePolarity,Positive*
%FSLAX46Y46*%
G04 Gerber Fmt 4.6, Leading zero omitted, Abs format (unit mm)*
G04 Created by KiCad (PCBNEW 7.0.1) date 2023-06-22 14:27:13*
%MOMM*%
%LPD*%
G01*
G04 APERTURE LIST*
G04 #@! TA.AperFunction,ComponentPad*
%ADD10C,2.000000*%
G04 #@! TD*
G04 #@! TA.AperFunction,ComponentPad*
%ADD11C,1.524000*%
G04 #@! TD*
G04 #@! TA.AperFunction,ComponentPad*
%ADD12C,5.080000*%
G04 #@! TD*
G04 #@! TA.AperFunction,ViaPad*
%ADD13C,0.609600*%
G04 #@! TD*
G04 #@! TA.AperFunction,Conductor*
%ADD14C,0.250000*%
G04 #@! TD*
G04 #@! TA.AperFunction,Conductor*
%ADD15C,0.254000*%
G04 #@! TD*
G04 #@! TA.AperFunction,Profile*
%ADD16C,0.200000*%
G04 #@! TD*
G04 APERTURE END LIST*
D10*
X124714000Y-144780000D03*
X45974000Y-83566000D03*
X45974000Y-92202000D03*
D11*
X124714000Y-124714000D03*
D10*
X124714000Y-120396000D03*
X110998000Y-160782000D03*
X83121000Y-102616000D03*
X88201000Y-102616000D03*
X124714000Y-116078000D03*
X45974000Y-100838000D03*
X115316000Y-160782000D03*
X102362000Y-160782000D03*
D12*
X49022000Y-74549000D03*
X125222000Y-160274000D03*
D10*
X45974000Y-87884000D03*
D11*
X124714000Y-149098000D03*
D10*
X124714000Y-111760000D03*
X124714000Y-107442000D03*
D12*
X45212000Y-160274000D03*
D10*
X124714000Y-140462000D03*
X106680000Y-160782000D03*
D11*
X45974000Y-96520000D03*
D10*
X124714000Y-129286000D03*
D12*
X122682000Y-74549000D03*
D13*
X54991000Y-71120000D03*
X64008000Y-72390000D03*
X48011492Y-70104000D03*
X113284000Y-152654000D03*
X104033820Y-71374000D03*
X80772000Y-93472000D03*
X93218000Y-94030000D03*
X87884000Y-77724000D03*
X67564000Y-87426000D03*
X72390000Y-105918000D03*
X74930000Y-106680000D03*
X73633839Y-72283834D03*
X82042000Y-78232000D03*
X112014000Y-105664000D03*
X90678000Y-78232000D03*
X50800000Y-108204000D03*
X49022000Y-82550000D03*
X99568000Y-114808000D03*
X125222000Y-152400000D03*
X119522000Y-83185999D03*
X78486000Y-77724000D03*
X113284000Y-157480000D03*
X112776000Y-153416000D03*
X92964000Y-78224000D03*
X116331999Y-86551000D03*
X114668000Y-74536000D03*
X74422000Y-105918000D03*
X95233839Y-72283834D03*
X91440000Y-93472000D03*
X68326000Y-113284000D03*
X54102000Y-68326000D03*
X88138000Y-94030000D03*
X120904000Y-113538000D03*
X49974721Y-68903212D03*
X84328000Y-77674000D03*
X46736000Y-109474000D03*
X104033820Y-72283820D03*
X118222000Y-82042000D03*
X99568000Y-113538000D03*
X90424000Y-93472000D03*
X113538000Y-121920000D03*
X73908517Y-106687743D03*
X114554000Y-157480000D03*
X89633839Y-72283834D03*
X95233839Y-71374014D03*
X94234000Y-90043500D03*
X72898000Y-106680000D03*
X82550000Y-93472000D03*
X115950500Y-95758000D03*
X86106000Y-77674000D03*
X83566000Y-93472000D03*
X84836000Y-90170000D03*
X91233839Y-72283834D03*
X116586000Y-118110000D03*
X73406000Y-105918000D03*
X73633839Y-71374014D03*
X114300000Y-95758000D03*
X113284000Y-154178000D03*
X119522000Y-78232000D03*
X118222000Y-86867999D03*
X112268000Y-157480000D03*
X110998000Y-122174000D03*
X113792000Y-153416000D03*
X112268000Y-154178000D03*
X89633839Y-71374014D03*
X52070000Y-70739000D03*
X91233839Y-71374014D03*
X116332000Y-81725000D03*
X103632000Y-131206000D03*
X86614000Y-94030000D03*
X94742000Y-94030000D03*
X45212000Y-151892000D03*
X76200000Y-94030000D03*
X66040000Y-100584000D03*
X66040000Y-103632000D03*
X66040000Y-98552000D03*
X66040000Y-102616000D03*
X66040000Y-101600000D03*
X83233820Y-71374000D03*
X66802000Y-98044000D03*
X66802000Y-99060000D03*
X83233820Y-72333820D03*
X66802000Y-102108000D03*
X66802000Y-104140000D03*
X83233820Y-73406000D03*
X66802000Y-101092000D03*
X66040000Y-99568000D03*
X66802000Y-103124000D03*
X66802000Y-100076000D03*
X98433839Y-71882000D03*
X100033839Y-74422000D03*
X98552000Y-76708000D03*
X70433839Y-73152000D03*
X81280000Y-99822000D03*
X98932500Y-99822000D03*
X103124000Y-90932000D03*
X88646000Y-90170000D03*
X68326000Y-74676000D03*
X99822000Y-80010000D03*
X101346000Y-81026000D03*
X67564000Y-75692000D03*
X65532000Y-72136000D03*
X102616000Y-131826000D03*
X99060000Y-77978000D03*
X114300000Y-140462000D03*
X107696000Y-139192000D03*
X108458000Y-138684000D03*
X107696000Y-140208000D03*
X93633839Y-71374014D03*
X107696000Y-141224000D03*
X108458000Y-140716000D03*
X107696000Y-143256000D03*
X108458000Y-142748000D03*
X93633839Y-72283834D03*
X107696000Y-142240000D03*
X107696000Y-137160000D03*
X107696000Y-138176000D03*
X108458000Y-139700000D03*
X108458000Y-137668000D03*
X108458000Y-141732000D03*
X76708000Y-72136000D03*
X97536000Y-72898000D03*
X84836000Y-94234000D03*
X53594000Y-74168000D03*
X118110000Y-88850000D03*
X121412000Y-83453000D03*
X120650000Y-118110000D03*
X113284000Y-83453000D03*
X48008000Y-66294000D03*
X78486000Y-80772000D03*
X121412000Y-78627000D03*
X84833820Y-71374000D03*
X122580900Y-93259000D03*
X113283999Y-78627000D03*
X87884000Y-80772000D03*
X84833820Y-72283820D03*
X109474000Y-122174000D03*
X77978000Y-94234000D03*
X119888000Y-88850000D03*
X114300000Y-92710000D03*
X45212000Y-109424000D03*
X49778290Y-66280714D03*
X46355000Y-70866000D03*
X56134000Y-74292500D03*
X102237500Y-82550000D03*
X113284000Y-144780000D03*
X109220000Y-145796000D03*
X66802000Y-76454000D03*
X67818000Y-101023874D03*
X70358000Y-105918000D03*
X106680000Y-140967023D03*
X101346000Y-135636000D03*
X86614000Y-87122000D03*
X88646000Y-81534000D03*
X55118000Y-65278000D03*
X95250000Y-75184000D03*
X53467000Y-72136000D03*
X103505000Y-75184000D03*
X79629000Y-75184000D03*
X68072000Y-71882000D03*
X71247000Y-73914000D03*
X51562000Y-66294000D03*
D14*
X49778290Y-67442710D02*
X49778290Y-66280714D01*
X46355000Y-70866000D02*
X49778290Y-67442710D01*
D15*
X51562000Y-66294000D02*
X51562000Y-68961000D01*
X53467000Y-70866000D02*
X53467000Y-72136000D01*
X51562000Y-68961000D02*
X53467000Y-70866000D01*
G04 #@! TA.AperFunction,Conductor*
G36*
X124098154Y-64713982D02*
G01*
X124099271Y-64713981D01*
X124162276Y-64730862D01*
X124208399Y-64776987D01*
X124225276Y-64839995D01*
X124225274Y-64857395D01*
X124225285Y-64857481D01*
X124225285Y-69269128D01*
X124225298Y-69269319D01*
X124225294Y-69310889D01*
X124255418Y-69481807D01*
X124314770Y-69644905D01*
X124401546Y-69795219D01*
X124441009Y-69842252D01*
X124513101Y-69928173D01*
X124640274Y-70034885D01*
X124646054Y-70039735D01*
X124796359Y-70126513D01*
X124959406Y-70185853D01*
X124959453Y-70185870D01*
X125130376Y-70216002D01*
X125130376Y-70216001D01*
X125130377Y-70216002D01*
X125173767Y-70215999D01*
X125217155Y-70215997D01*
X129132513Y-70215997D01*
X129132527Y-70215999D01*
X129150168Y-70215999D01*
X129210054Y-70215999D01*
X129224131Y-70216790D01*
X129335268Y-70229315D01*
X129362772Y-70235593D01*
X129461608Y-70270178D01*
X129487023Y-70282417D01*
X129575683Y-70338126D01*
X129597741Y-70355717D01*
X129671780Y-70429757D01*
X129689371Y-70451816D01*
X129745079Y-70540474D01*
X129757320Y-70565892D01*
X129791906Y-70664726D01*
X129798184Y-70692228D01*
X129808282Y-70781831D01*
X129810710Y-70803374D01*
X129811502Y-70817483D01*
X129811502Y-106488282D01*
X129809950Y-106507995D01*
X129802215Y-106556827D01*
X129790034Y-106594316D01*
X129772146Y-106629424D01*
X129748974Y-106661317D01*
X129721116Y-106689175D01*
X129689224Y-106712347D01*
X129654119Y-106730234D01*
X129616629Y-106742415D01*
X129567822Y-106750146D01*
X129548109Y-106751698D01*
X129133415Y-106751698D01*
X129133363Y-106751701D01*
X129077013Y-106751701D01*
X128879494Y-106782985D01*
X128879490Y-106782986D01*
X128879491Y-106782986D01*
X128689303Y-106844780D01*
X128511116Y-106935571D01*
X128349327Y-107053116D01*
X128207919Y-107194523D01*
X128090374Y-107356308D01*
X127999582Y-107534496D01*
X127940787Y-107715453D01*
X127937786Y-107724688D01*
X127906545Y-107921937D01*
X127906502Y-107922209D01*
X127906502Y-126792797D01*
X127906501Y-126892786D01*
X127937784Y-127090309D01*
X127999580Y-127280498D01*
X128090372Y-127458686D01*
X128207919Y-127620476D01*
X128349323Y-127761880D01*
X128511113Y-127879427D01*
X128689301Y-127970219D01*
X128879490Y-128032015D01*
X128943112Y-128042091D01*
X129077013Y-128063299D01*
X129177003Y-128063298D01*
X129243949Y-128063298D01*
X129491055Y-128063298D01*
X129548084Y-128063298D01*
X129567793Y-128064848D01*
X129616626Y-128072583D01*
X129654115Y-128084763D01*
X129689228Y-128102655D01*
X129721116Y-128125824D01*
X129748975Y-128153683D01*
X129772145Y-128185573D01*
X129788060Y-128216806D01*
X129790034Y-128220680D01*
X129802215Y-128258170D01*
X129809950Y-128307002D01*
X129811502Y-128326715D01*
X129811502Y-164149120D01*
X129810710Y-164163228D01*
X129795909Y-164294588D01*
X129789630Y-164322096D01*
X129748324Y-164440140D01*
X129736083Y-164465559D01*
X129669545Y-164571455D01*
X129651953Y-164593515D01*
X129563518Y-164681951D01*
X129541458Y-164699543D01*
X129435563Y-164766081D01*
X129410143Y-164778323D01*
X129292096Y-164819630D01*
X129264588Y-164825909D01*
X129133266Y-164840706D01*
X129119158Y-164841498D01*
X97738880Y-164841498D01*
X97724772Y-164840706D01*
X97593412Y-164825905D01*
X97565905Y-164819626D01*
X97447864Y-164778322D01*
X97422443Y-164766080D01*
X97316540Y-164699537D01*
X97294481Y-164681945D01*
X97206054Y-164593518D01*
X97188462Y-164571459D01*
X97121919Y-164465556D01*
X97109679Y-164440140D01*
X97068371Y-164322089D01*
X97062095Y-164294591D01*
X97047294Y-164163227D01*
X97046502Y-164149120D01*
X97046502Y-163565986D01*
X97046501Y-163565980D01*
X97046501Y-163501043D01*
X97011847Y-163260024D01*
X96993073Y-163196086D01*
X96943245Y-163026385D01*
X96842090Y-162804889D01*
X96710443Y-162600042D01*
X96665750Y-162548463D01*
X96550984Y-162416015D01*
X96366962Y-162256560D01*
X96366959Y-162256558D01*
X96366958Y-162256557D01*
X96162111Y-162124910D01*
X96162108Y-162124908D01*
X95940615Y-162023755D01*
X95706975Y-161955152D01*
X95465956Y-161920498D01*
X95380572Y-161920498D01*
X95380570Y-161920498D01*
X77375434Y-161920498D01*
X77366507Y-161920498D01*
X77366451Y-161920502D01*
X77290049Y-161920502D01*
X77049030Y-161955155D01*
X76815393Y-162023757D01*
X76815390Y-162023758D01*
X76815391Y-162023758D01*
X76593897Y-162124910D01*
X76593890Y-162124913D01*
X76389044Y-162256558D01*
X76205023Y-162416013D01*
X76045561Y-162600042D01*
X75913914Y-162804888D01*
X75812758Y-163026388D01*
X75744156Y-163260025D01*
X75709502Y-163501042D01*
X75709502Y-164149120D01*
X75708710Y-164163228D01*
X75693909Y-164294588D01*
X75687630Y-164322096D01*
X75646324Y-164440140D01*
X75634083Y-164465559D01*
X75567545Y-164571455D01*
X75549953Y-164593515D01*
X75461518Y-164681951D01*
X75439458Y-164699543D01*
X75333563Y-164766081D01*
X75308143Y-164778323D01*
X75190096Y-164819630D01*
X75162586Y-164825909D01*
X75031264Y-164840704D01*
X75017158Y-164841496D01*
X41303880Y-164841495D01*
X41283567Y-164839847D01*
X41179185Y-164822796D01*
X41155316Y-164816444D01*
X41052302Y-164777873D01*
X41030131Y-164766986D01*
X40936618Y-164709058D01*
X40917004Y-164694062D01*
X40836579Y-164618993D01*
X40820268Y-164600457D01*
X40799413Y-164571459D01*
X40756043Y-164511153D01*
X40743656Y-164489782D01*
X40721059Y-164440135D01*
X40698090Y-164389669D01*
X40690112Y-164366296D01*
X40664949Y-164259205D01*
X40661683Y-164234728D01*
X40658163Y-164132524D01*
X40658552Y-164125381D01*
X40658493Y-164125381D01*
X40658493Y-164100366D01*
X40658749Y-164092338D01*
X40661734Y-164045580D01*
X40660956Y-164041703D01*
X40658493Y-164016912D01*
X40658493Y-162124908D01*
X40658493Y-160273999D01*
X41904648Y-160273999D01*
X41924037Y-160631588D01*
X41981973Y-160984985D01*
X42077775Y-161330036D01*
X42110292Y-161411646D01*
X42210330Y-161662721D01*
X42378073Y-161979118D01*
X42561501Y-162249654D01*
X42579043Y-162275527D01*
X42810879Y-162548464D01*
X43070860Y-162794732D01*
X43070863Y-162794734D01*
X43070866Y-162794737D01*
X43355957Y-163011458D01*
X43662809Y-163196084D01*
X43662811Y-163196085D01*
X43662813Y-163196086D01*
X43801015Y-163260025D01*
X43987823Y-163346452D01*
X44154736Y-163402691D01*
X44327189Y-163460798D01*
X44502060Y-163499290D01*
X44676930Y-163537782D01*
X44765933Y-163547461D01*
X45032941Y-163576500D01*
X45032944Y-163576500D01*
X45391056Y-163576500D01*
X45391059Y-163576500D01*
X45604664Y-163553269D01*
X45747070Y-163537782D01*
X46096810Y-163460798D01*
X46436177Y-163346452D01*
X46761191Y-163196084D01*
X47068043Y-163011458D01*
X47353134Y-162794737D01*
X47613122Y-162548463D01*
X47844959Y-162275524D01*
X48045927Y-161979118D01*
X48213670Y-161662721D01*
X48346222Y-161330042D01*
X48442027Y-160984983D01*
X48475304Y-160782000D01*
X101102708Y-160782000D01*
X101121839Y-161000678D01*
X101178652Y-161212701D01*
X101271420Y-161411645D01*
X101397328Y-161591460D01*
X101552539Y-161746671D01*
X101552542Y-161746673D01*
X101552543Y-161746674D01*
X101732354Y-161872579D01*
X101931297Y-161965347D01*
X102024781Y-161990396D01*
X102143321Y-162022160D01*
X102143322Y-162022160D01*
X102143326Y-162022161D01*
X102362000Y-162041292D01*
X102580674Y-162022161D01*
X102792703Y-161965347D01*
X102991646Y-161872579D01*
X103171457Y-161746674D01*
X103326674Y-161591457D01*
X103452579Y-161411646D01*
X103545347Y-161212703D01*
X103602161Y-161000674D01*
X103621292Y-160782000D01*
X105420708Y-160782000D01*
X105439839Y-161000678D01*
X105496652Y-161212701D01*
X105589420Y-161411645D01*
X105715328Y-161591460D01*
X105870539Y-161746671D01*
X105870542Y-161746673D01*
X105870543Y-161746674D01*
X106050354Y-161872579D01*
X106249297Y-161965347D01*
X106342781Y-161990396D01*
X106461321Y-162022160D01*
X106461322Y-162022160D01*
X106461326Y-162022161D01*
X106680000Y-162041292D01*
X106898674Y-162022161D01*
X107110703Y-161965347D01*
X107309646Y-161872579D01*
X107489457Y-161746674D01*
X107644674Y-161591457D01*
X107770579Y-161411646D01*
X107863347Y-161212703D01*
X107920161Y-161000674D01*
X107939292Y-160782000D01*
X109738708Y-160782000D01*
X109757839Y-161000678D01*
X109814652Y-161212701D01*
X109907420Y-161411645D01*
X110033328Y-161591460D01*
X110188539Y-161746671D01*
X110188542Y-161746673D01*
X110188543Y-161746674D01*
X110368354Y-161872579D01*
X110567297Y-161965347D01*
X110660781Y-161990396D01*
X110779321Y-162022160D01*
X110779322Y-162022160D01*
X110779326Y-162022161D01*
X110998000Y-162041292D01*
X111216674Y-162022161D01*
X111428703Y-161965347D01*
X111627646Y-161872579D01*
X111807457Y-161746674D01*
X111962674Y-161591457D01*
X112088579Y-161411646D01*
X112181347Y-161212703D01*
X112238161Y-161000674D01*
X112257292Y-160782000D01*
X114056708Y-160782000D01*
X114075839Y-161000678D01*
X114132652Y-161212701D01*
X114225420Y-161411645D01*
X114351328Y-161591460D01*
X114506539Y-161746671D01*
X114506542Y-161746673D01*
X114506543Y-161746674D01*
X114686354Y-161872579D01*
X114885297Y-161965347D01*
X114978781Y-161990396D01*
X115097321Y-162022160D01*
X115097322Y-162022160D01*
X115097326Y-162022161D01*
X115316000Y-162041292D01*
X115534674Y-162022161D01*
X115746703Y-161965347D01*
X115945646Y-161872579D01*
X116125457Y-161746674D01*
X116280674Y-161591457D01*
X116406579Y-161411646D01*
X116499347Y-161212703D01*
X116556161Y-161000674D01*
X116575292Y-160782000D01*
X116556161Y-160563326D01*
X116499347Y-160351297D01*
X116463303Y-160274000D01*
X121914648Y-160274000D01*
X121934037Y-160631588D01*
X121991973Y-160984985D01*
X122087775Y-161330036D01*
X122120292Y-161411646D01*
X122220330Y-161662721D01*
X122388073Y-161979118D01*
X122571501Y-162249654D01*
X122589043Y-162275527D01*
X122820879Y-162548464D01*
X123080860Y-162794732D01*
X123080863Y-162794734D01*
X123080866Y-162794737D01*
X123365957Y-163011458D01*
X123672809Y-163196084D01*
X123672811Y-163196085D01*
X123672813Y-163196086D01*
X123811015Y-163260025D01*
X123997823Y-163346452D01*
X124164736Y-163402691D01*
X124337189Y-163460798D01*
X124512060Y-163499290D01*
X124686930Y-163537782D01*
X124775933Y-163547461D01*
X125042941Y-163576500D01*
X125042944Y-163576500D01*
X125401056Y-163576500D01*
X125401059Y-163576500D01*
X125614664Y-163553269D01*
X125757070Y-163537782D01*
X126106810Y-163460798D01*
X126446177Y-163346452D01*
X126771191Y-163196084D01*
X127078043Y-163011458D01*
X127363134Y-162794737D01*
X127623122Y-162548463D01*
X127854959Y-162275524D01*
X128055927Y-161979118D01*
X128223670Y-161662721D01*
X128356222Y-161330042D01*
X128452027Y-160984983D01*
X128509963Y-160631588D01*
X128529351Y-160274000D01*
X128509963Y-159916412D01*
X128452027Y-159563017D01*
X128399140Y-159372535D01*
X128356224Y-159217963D01*
X128342184Y-159182725D01*
X128223670Y-158885279D01*
X128055927Y-158568882D01*
X127854959Y-158272476D01*
X127845729Y-158261610D01*
X127699059Y-158088937D01*
X127623122Y-157999537D01*
X127589596Y-157967779D01*
X127363139Y-157753267D01*
X127328509Y-157726942D01*
X127078043Y-157536542D01*
X126771191Y-157351916D01*
X126771190Y-157351915D01*
X126771186Y-157351913D01*
X126446178Y-157201548D01*
X126106810Y-157087201D01*
X125757068Y-157010217D01*
X125401059Y-156971500D01*
X125401056Y-156971500D01*
X125042944Y-156971500D01*
X125042941Y-156971500D01*
X124686931Y-157010217D01*
X124337189Y-157087201D01*
X123997821Y-157201548D01*
X123672813Y-157351913D01*
X123365958Y-157536541D01*
X123080860Y-157753267D01*
X122820879Y-157999535D01*
X122589043Y-158272472D01*
X122388072Y-158568883D01*
X122220330Y-158885279D01*
X122087775Y-159217963D01*
X121991973Y-159563014D01*
X121934037Y-159916411D01*
X121914648Y-160274000D01*
X116463303Y-160274000D01*
X116406579Y-160152354D01*
X116280674Y-159972543D01*
X116280673Y-159972542D01*
X116280671Y-159972539D01*
X116125460Y-159817328D01*
X115945645Y-159691420D01*
X115746701Y-159598652D01*
X115534678Y-159541839D01*
X115316000Y-159522708D01*
X115097321Y-159541839D01*
X114885298Y-159598652D01*
X114686354Y-159691420D01*
X114506539Y-159817328D01*
X114351328Y-159972539D01*
X114225420Y-160152354D01*
X114132652Y-160351298D01*
X114075839Y-160563321D01*
X114056708Y-160782000D01*
X112257292Y-160782000D01*
X112238161Y-160563326D01*
X112181347Y-160351297D01*
X112088579Y-160152354D01*
X111962674Y-159972543D01*
X111962673Y-159972542D01*
X111962671Y-159972539D01*
X111807460Y-159817328D01*
X111627645Y-159691420D01*
X111428701Y-159598652D01*
X111216678Y-159541839D01*
X110998000Y-159522708D01*
X110779321Y-159541839D01*
X110567298Y-159598652D01*
X110368354Y-159691420D01*
X110188539Y-159817328D01*
X110033328Y-159972539D01*
X109907420Y-160152354D01*
X109814652Y-160351298D01*
X109757839Y-160563321D01*
X109738708Y-160782000D01*
X107939292Y-160782000D01*
X107920161Y-160563326D01*
X107863347Y-160351297D01*
X107770579Y-160152354D01*
X107644674Y-159972543D01*
X107644673Y-159972542D01*
X107644671Y-159972539D01*
X107489460Y-159817328D01*
X107309645Y-159691420D01*
X107110701Y-159598652D01*
X106898678Y-159541839D01*
X106680000Y-159522708D01*
X106461321Y-159541839D01*
X106249298Y-159598652D01*
X106050354Y-159691420D01*
X105870539Y-159817328D01*
X105715328Y-159972539D01*
X105589420Y-160152354D01*
X105496652Y-160351298D01*
X105439839Y-160563321D01*
X105420708Y-160782000D01*
X103621292Y-160782000D01*
X103602161Y-160563326D01*
X103545347Y-160351297D01*
X103452579Y-160152354D01*
X103326674Y-159972543D01*
X103326673Y-159972542D01*
X103326671Y-159972539D01*
X103171460Y-159817328D01*
X102991645Y-159691420D01*
X102792701Y-159598652D01*
X102580678Y-159541839D01*
X102362000Y-159522708D01*
X102143321Y-159541839D01*
X101931298Y-159598652D01*
X101732354Y-159691420D01*
X101552539Y-159817328D01*
X101397328Y-159972539D01*
X101271420Y-160152354D01*
X101178652Y-160351298D01*
X101121839Y-160563321D01*
X101102708Y-160782000D01*
X48475304Y-160782000D01*
X48499963Y-160631588D01*
X48519351Y-160274000D01*
X48499963Y-159916412D01*
X48442027Y-159563017D01*
X48389140Y-159372535D01*
X48346224Y-159217963D01*
X48332184Y-159182725D01*
X48213670Y-158885279D01*
X48045927Y-158568882D01*
X47844959Y-158272476D01*
X47835729Y-158261610D01*
X47689059Y-158088937D01*
X47613122Y-157999537D01*
X47579596Y-157967779D01*
X47353139Y-157753267D01*
X47318509Y-157726942D01*
X47068043Y-157536542D01*
X46787556Y-157367779D01*
X54163829Y-157367779D01*
X54193109Y-157608918D01*
X54223864Y-157715099D01*
X54260691Y-157842239D01*
X54364826Y-158061697D01*
X54502815Y-158261610D01*
X54671086Y-158436798D01*
X54865280Y-158582726D01*
X55080368Y-158695612D01*
X55209473Y-158738714D01*
X55310778Y-158772535D01*
X55550541Y-158811500D01*
X55550544Y-158811500D01*
X55732636Y-158811500D01*
X55732641Y-158811500D01*
X55823379Y-158804174D01*
X55914124Y-158796849D01*
X56149977Y-158738716D01*
X56373451Y-158643503D01*
X56578757Y-158513675D01*
X56760579Y-158352595D01*
X56914208Y-158164434D01*
X57035664Y-157954066D01*
X57121801Y-157726940D01*
X57170390Y-157488937D01*
X57175272Y-157367779D01*
X79163829Y-157367779D01*
X79193109Y-157608918D01*
X79223864Y-157715099D01*
X79260691Y-157842239D01*
X79364826Y-158061697D01*
X79502815Y-158261610D01*
X79671086Y-158436798D01*
X79865280Y-158582726D01*
X80080368Y-158695612D01*
X80209473Y-158738714D01*
X80310778Y-158772535D01*
X80550541Y-158811500D01*
X80550544Y-158811500D01*
X80732636Y-158811500D01*
X80732641Y-158811500D01*
X80823379Y-158804174D01*
X80914124Y-158796849D01*
X81149977Y-158738716D01*
X81373451Y-158643503D01*
X81578757Y-158513675D01*
X81760579Y-158352595D01*
X81914208Y-158164434D01*
X82027747Y-157967779D01*
X92263829Y-157967779D01*
X92287708Y-158164434D01*
X92293109Y-158208918D01*
X92360691Y-158442239D01*
X92464826Y-158661697D01*
X92602815Y-158861610D01*
X92771086Y-159036798D01*
X92965280Y-159182726D01*
X93180368Y-159295612D01*
X93309473Y-159338714D01*
X93410778Y-159372535D01*
X93650541Y-159411500D01*
X93650544Y-159411500D01*
X93832636Y-159411500D01*
X93832641Y-159411500D01*
X93923380Y-159404174D01*
X94014124Y-159396849D01*
X94249977Y-159338716D01*
X94473451Y-159243503D01*
X94678757Y-159113675D01*
X94860579Y-158952595D01*
X95014208Y-158764434D01*
X95135664Y-158554066D01*
X95221801Y-158326940D01*
X95270390Y-158088937D01*
X95280171Y-157846223D01*
X95250891Y-157605082D01*
X95214661Y-157480000D01*
X111703874Y-157480000D01*
X111723095Y-157626005D01*
X111779454Y-157762065D01*
X111869102Y-157878897D01*
X111984936Y-157967779D01*
X111985937Y-157968547D01*
X112121993Y-158024904D01*
X112268000Y-158044126D01*
X112414007Y-158024904D01*
X112550063Y-157968547D01*
X112666897Y-157878897D01*
X112676039Y-157866982D01*
X112720268Y-157830684D01*
X112775996Y-157817688D01*
X112831725Y-157830681D01*
X112875960Y-157866982D01*
X112885103Y-157878897D01*
X113000933Y-157967777D01*
X113001937Y-157968547D01*
X113137993Y-158024904D01*
X113284000Y-158044126D01*
X113430007Y-158024904D01*
X113566063Y-157968547D01*
X113682897Y-157878897D01*
X113772547Y-157762063D01*
X113802591Y-157689530D01*
X113837170Y-157641938D01*
X113889586Y-157615230D01*
X113948414Y-157615230D01*
X114000830Y-157641938D01*
X114035409Y-157689531D01*
X114065453Y-157762064D01*
X114155102Y-157878897D01*
X114270936Y-157967779D01*
X114271937Y-157968547D01*
X114407993Y-158024904D01*
X114554000Y-158044126D01*
X114700007Y-158024904D01*
X114836063Y-157968547D01*
X114952897Y-157878897D01*
X115042547Y-157762063D01*
X115098904Y-157626007D01*
X115118126Y-157480000D01*
X115098904Y-157333993D01*
X115042547Y-157197937D01*
X114999864Y-157142311D01*
X114952897Y-157081102D01*
X114836065Y-156991454D01*
X114700005Y-156935095D01*
X114554000Y-156915874D01*
X114407994Y-156935095D01*
X114271934Y-156991454D01*
X114155102Y-157081102D01*
X114065454Y-157197934D01*
X114035409Y-157270469D01*
X114000830Y-157318061D01*
X113948414Y-157344769D01*
X113889586Y-157344769D01*
X113837170Y-157318061D01*
X113802591Y-157270469D01*
X113792548Y-157246223D01*
X113772547Y-157197937D01*
X113729864Y-157142311D01*
X113682897Y-157081102D01*
X113566065Y-156991454D01*
X113430005Y-156935095D01*
X113284000Y-156915874D01*
X113137994Y-156935095D01*
X113001934Y-156991454D01*
X112885101Y-157081103D01*
X112875961Y-157093016D01*
X112831728Y-157129317D01*
X112776000Y-157142311D01*
X112720272Y-157129317D01*
X112676039Y-157093016D01*
X112666898Y-157081103D01*
X112550065Y-156991454D01*
X112414005Y-156935095D01*
X112268000Y-156915874D01*
X112121994Y-156935095D01*
X111985934Y-156991454D01*
X111869102Y-157081102D01*
X111779454Y-157197934D01*
X111723095Y-157333994D01*
X111703874Y-157480000D01*
X95214661Y-157480000D01*
X95183309Y-157371761D01*
X95079174Y-157152303D01*
X94941185Y-156952390D01*
X94772914Y-156777202D01*
X94578720Y-156631274D01*
X94363632Y-156518388D01*
X94363628Y-156518386D01*
X94363627Y-156518386D01*
X94133221Y-156441464D01*
X93893459Y-156402500D01*
X93893456Y-156402500D01*
X93711364Y-156402500D01*
X93711359Y-156402500D01*
X93529880Y-156417150D01*
X93294019Y-156475285D01*
X93070551Y-156570495D01*
X92865238Y-156700328D01*
X92683422Y-156861403D01*
X92529792Y-157049565D01*
X92408336Y-157259933D01*
X92322199Y-157487057D01*
X92273610Y-157725064D01*
X92263829Y-157967779D01*
X82027747Y-157967779D01*
X82035664Y-157954066D01*
X82121801Y-157726940D01*
X82170390Y-157488937D01*
X82180171Y-157246223D01*
X82150891Y-157005082D01*
X82083309Y-156771761D01*
X81979174Y-156552303D01*
X81841185Y-156352390D01*
X81672914Y-156177202D01*
X81478720Y-156031274D01*
X81263632Y-155918388D01*
X81263628Y-155918386D01*
X81263627Y-155918386D01*
X81033221Y-155841464D01*
X80793459Y-155802500D01*
X80793456Y-155802500D01*
X80611364Y-155802500D01*
X80611359Y-155802500D01*
X80429880Y-155817150D01*
X80194019Y-155875285D01*
X79970551Y-155970495D01*
X79765238Y-156100328D01*
X79583422Y-156261403D01*
X79429792Y-156449565D01*
X79308336Y-156659933D01*
X79222199Y-156887057D01*
X79198104Y-157005082D01*
X79173610Y-157125063D01*
X79165191Y-157333993D01*
X79163829Y-157367779D01*
X57175272Y-157367779D01*
X57180171Y-157246223D01*
X57150891Y-157005082D01*
X57083309Y-156771761D01*
X56979174Y-156552303D01*
X56841185Y-156352390D01*
X56672914Y-156177202D01*
X56478720Y-156031274D01*
X56263632Y-155918388D01*
X56263628Y-155918386D01*
X56263627Y-155918386D01*
X56033221Y-155841464D01*
X55793459Y-155802500D01*
X55793456Y-155802500D01*
X55611364Y-155802500D01*
X55611359Y-155802500D01*
X55429880Y-155817150D01*
X55194019Y-155875285D01*
X54970551Y-155970495D01*
X54765238Y-156100328D01*
X54583422Y-156261403D01*
X54429792Y-156449565D01*
X54308336Y-156659933D01*
X54222199Y-156887057D01*
X54198104Y-157005082D01*
X54173610Y-157125063D01*
X54165191Y-157333993D01*
X54163829Y-157367779D01*
X46787556Y-157367779D01*
X46761191Y-157351916D01*
X46761190Y-157351915D01*
X46761186Y-157351913D01*
X46436178Y-157201548D01*
X46096810Y-157087201D01*
X45747068Y-157010217D01*
X45391059Y-156971500D01*
X45391056Y-156971500D01*
X45032944Y-156971500D01*
X45032941Y-156971500D01*
X44676931Y-157010217D01*
X44327189Y-157087201D01*
X43987821Y-157201548D01*
X43662813Y-157351913D01*
X43355958Y-157536541D01*
X43070860Y-157753267D01*
X42810879Y-157999535D01*
X42579043Y-158272472D01*
X42378072Y-158568883D01*
X42210330Y-158885279D01*
X42077775Y-159217963D01*
X41981973Y-159563014D01*
X41924037Y-159916411D01*
X41904648Y-160273999D01*
X40658493Y-160273999D01*
X40658494Y-154178000D01*
X111703874Y-154178000D01*
X111723095Y-154324005D01*
X111779454Y-154460065D01*
X111869102Y-154576897D01*
X111985934Y-154666545D01*
X111985937Y-154666547D01*
X112121993Y-154722904D01*
X112268000Y-154742126D01*
X112414007Y-154722904D01*
X112550063Y-154666547D01*
X112666897Y-154576897D01*
X112676038Y-154564984D01*
X112720271Y-154528682D01*
X112776000Y-154515688D01*
X112831729Y-154528682D01*
X112875961Y-154564984D01*
X112885103Y-154576897D01*
X113001937Y-154666547D01*
X113137993Y-154722904D01*
X113284000Y-154742126D01*
X113430007Y-154722904D01*
X113566063Y-154666547D01*
X113682897Y-154576897D01*
X113772547Y-154460063D01*
X113828904Y-154324007D01*
X113848126Y-154178000D01*
X113838009Y-154101154D01*
X113846524Y-154036486D01*
X113886235Y-153984740D01*
X113923528Y-153969297D01*
X113922681Y-153967252D01*
X113938005Y-153960904D01*
X113938007Y-153960904D01*
X114074063Y-153904547D01*
X114190897Y-153814897D01*
X114280547Y-153698063D01*
X114336904Y-153562007D01*
X114356126Y-153416000D01*
X114336904Y-153269993D01*
X114280547Y-153133937D01*
X114280545Y-153133934D01*
X114190897Y-153017102D01*
X114074065Y-152927454D01*
X114074063Y-152927453D01*
X113938007Y-152871096D01*
X113938005Y-152871095D01*
X113922681Y-152864748D01*
X113923527Y-152862703D01*
X113886220Y-152847246D01*
X113846520Y-152795503D01*
X113838009Y-152730844D01*
X113848126Y-152654000D01*
X113828904Y-152507993D01*
X113784171Y-152400000D01*
X124657874Y-152400000D01*
X124677095Y-152546005D01*
X124733454Y-152682065D01*
X124823102Y-152798897D01*
X124917194Y-152871096D01*
X124939937Y-152888547D01*
X125075993Y-152944904D01*
X125222000Y-152964126D01*
X125368007Y-152944904D01*
X125504063Y-152888547D01*
X125620897Y-152798897D01*
X125710547Y-152682063D01*
X125766904Y-152546007D01*
X125786126Y-152400000D01*
X125766904Y-152253993D01*
X125710547Y-152117937D01*
X125703763Y-152109096D01*
X125620897Y-152001102D01*
X125504065Y-151911454D01*
X125368005Y-151855095D01*
X125222000Y-151835874D01*
X125075994Y-151855095D01*
X124939934Y-151911454D01*
X124823102Y-152001102D01*
X124733454Y-152117934D01*
X124677095Y-152253994D01*
X124657874Y-152400000D01*
X113784171Y-152400000D01*
X113772547Y-152371937D01*
X113710363Y-152290897D01*
X113682897Y-152255102D01*
X113566065Y-152165454D01*
X113430005Y-152109095D01*
X113284000Y-152089874D01*
X113137994Y-152109095D01*
X113001934Y-152165454D01*
X112885102Y-152255102D01*
X112795454Y-152371934D01*
X112739095Y-152507994D01*
X112719873Y-152654000D01*
X112729990Y-152730844D01*
X112721479Y-152795503D01*
X112681780Y-152847245D01*
X112644472Y-152862703D01*
X112645319Y-152864748D01*
X112629993Y-152871095D01*
X112629993Y-152871096D01*
X112587868Y-152888545D01*
X112493934Y-152927454D01*
X112377102Y-153017102D01*
X112287454Y-153133934D01*
X112231095Y-153269994D01*
X112211873Y-153416000D01*
X112221990Y-153492844D01*
X112213479Y-153557503D01*
X112173780Y-153609245D01*
X112136472Y-153624703D01*
X112137319Y-153626748D01*
X112121993Y-153633095D01*
X112121993Y-153633096D01*
X112050919Y-153662535D01*
X111985934Y-153689454D01*
X111869102Y-153779102D01*
X111779454Y-153895934D01*
X111723095Y-154031994D01*
X111703874Y-154178000D01*
X40658494Y-154178000D01*
X40658495Y-151892000D01*
X44647874Y-151892000D01*
X44667095Y-152038005D01*
X44723454Y-152174065D01*
X44813102Y-152290897D01*
X44918712Y-152371934D01*
X44929937Y-152380547D01*
X45065993Y-152436904D01*
X45212000Y-152456126D01*
X45358007Y-152436904D01*
X45494063Y-152380547D01*
X45610897Y-152290897D01*
X45700547Y-152174063D01*
X45756904Y-152038007D01*
X45776126Y-151892000D01*
X45756904Y-151745993D01*
X45700547Y-151609937D01*
X45700545Y-151609934D01*
X45610897Y-151493102D01*
X45494065Y-151403454D01*
X45358005Y-151347095D01*
X45212000Y-151327874D01*
X45065994Y-151347095D01*
X44929934Y-151403454D01*
X44813102Y-151493102D01*
X44723454Y-151609934D01*
X44667095Y-151745994D01*
X44647874Y-151892000D01*
X40658495Y-151892000D01*
X40658496Y-149098000D01*
X123692581Y-149098000D01*
X123712207Y-149297269D01*
X123770332Y-149488878D01*
X123770333Y-149488880D01*
X123864722Y-149665469D01*
X123914355Y-149725948D01*
X123991747Y-149820252D01*
X124069139Y-149883764D01*
X124146531Y-149947278D01*
X124323120Y-150041667D01*
X124418925Y-150070729D01*
X124514730Y-150099792D01*
X124714000Y-150119418D01*
X124913269Y-150099792D01*
X125104880Y-150041667D01*
X125281469Y-149947278D01*
X125436252Y-149820252D01*
X125563278Y-149665469D01*
X125657667Y-149488880D01*
X125715792Y-149297269D01*
X125735418Y-149098000D01*
X125715792Y-148898731D01*
X125657667Y-148707120D01*
X125563278Y-148530531D01*
X125499765Y-148453139D01*
X125436252Y-148375747D01*
X125341948Y-148298355D01*
X125281469Y-148248722D01*
X125104880Y-148154333D01*
X125104879Y-148154332D01*
X125104878Y-148154332D01*
X124913269Y-148096207D01*
X124714000Y-148076581D01*
X124514730Y-148096207D01*
X124323121Y-148154332D01*
X124146532Y-148248721D01*
X123991747Y-148375747D01*
X123864721Y-148530532D01*
X123770332Y-148707121D01*
X123712207Y-148898730D01*
X123692581Y-149098000D01*
X40658496Y-149098000D01*
X40658501Y-128326702D01*
X40660053Y-128307002D01*
X40667788Y-128258172D01*
X40679969Y-128220682D01*
X40681944Y-128216806D01*
X40697858Y-128185572D01*
X40721026Y-128153686D01*
X40748888Y-128125824D01*
X40780774Y-128102657D01*
X40815885Y-128084767D01*
X40853371Y-128072587D01*
X40902234Y-128064848D01*
X40921942Y-128063298D01*
X40978946Y-128063298D01*
X41226058Y-128063298D01*
X41240808Y-128063298D01*
X41240828Y-128063302D01*
X41293003Y-128063302D01*
X41392991Y-128063302D01*
X41392994Y-128063302D01*
X41590513Y-128032018D01*
X41741538Y-127982945D01*
X41780705Y-127970220D01*
X41958893Y-127879428D01*
X42028170Y-127829095D01*
X42120679Y-127761883D01*
X42262087Y-127620474D01*
X42379633Y-127458686D01*
X42470422Y-127280501D01*
X42516274Y-127139382D01*
X42532219Y-127090309D01*
X42541154Y-127033891D01*
X42563503Y-126892787D01*
X42563502Y-126792797D01*
X42563502Y-126725851D01*
X42563502Y-113284000D01*
X67761874Y-113284000D01*
X67781095Y-113430005D01*
X67837454Y-113566065D01*
X67927102Y-113682897D01*
X68043934Y-113772545D01*
X68043937Y-113772547D01*
X68179993Y-113828904D01*
X68326000Y-113848126D01*
X68472007Y-113828904D01*
X68608063Y-113772547D01*
X68724897Y-113682897D01*
X68814547Y-113566063D01*
X68870904Y-113430007D01*
X68890126Y-113284000D01*
X68870904Y-113137993D01*
X68814547Y-113001937D01*
X68814545Y-113001934D01*
X68724897Y-112885102D01*
X68608065Y-112795454D01*
X68472005Y-112739095D01*
X68326000Y-112719874D01*
X68179994Y-112739095D01*
X68043934Y-112795454D01*
X67927102Y-112885102D01*
X67837454Y-113001934D01*
X67781095Y-113137994D01*
X67761874Y-113284000D01*
X42563502Y-113284000D01*
X42563502Y-109474000D01*
X46171874Y-109474000D01*
X46191095Y-109620005D01*
X46247454Y-109756065D01*
X46337102Y-109872897D01*
X46453934Y-109962545D01*
X46453937Y-109962547D01*
X46589993Y-110018904D01*
X46736000Y-110038126D01*
X46882007Y-110018904D01*
X47018063Y-109962547D01*
X47134897Y-109872897D01*
X47224547Y-109756063D01*
X47280904Y-109620007D01*
X47300126Y-109474000D01*
X47280904Y-109327993D01*
X47224547Y-109191937D01*
X47224545Y-109191934D01*
X47134897Y-109075102D01*
X47018065Y-108985454D01*
X46882005Y-108929095D01*
X46736000Y-108909874D01*
X46589994Y-108929095D01*
X46453934Y-108985454D01*
X46337102Y-109075102D01*
X46247454Y-109191934D01*
X46191095Y-109327994D01*
X46171874Y-109474000D01*
X42563502Y-109474000D01*
X42563502Y-108204000D01*
X50235874Y-108204000D01*
X50255095Y-108350005D01*
X50311454Y-108486065D01*
X50401102Y-108602897D01*
X50517934Y-108692545D01*
X50517937Y-108692547D01*
X50653993Y-108748904D01*
X50800000Y-108768126D01*
X50946007Y-108748904D01*
X51082063Y-108692547D01*
X51198897Y-108602897D01*
X51288547Y-108486063D01*
X51344904Y-108350007D01*
X51364126Y-108204000D01*
X51344904Y-108057993D01*
X51288547Y-107921937D01*
X51288545Y-107921934D01*
X51198897Y-107805102D01*
X51082065Y-107715454D01*
X50946005Y-107659095D01*
X50800000Y-107639874D01*
X50653994Y-107659095D01*
X50517934Y-107715454D01*
X50401102Y-107805102D01*
X50311454Y-107921934D01*
X50255095Y-108057994D01*
X50235874Y-108204000D01*
X42563502Y-108204000D01*
X42563502Y-107985830D01*
X42563502Y-107922206D01*
X42532218Y-107724688D01*
X42470420Y-107534495D01*
X42379631Y-107356311D01*
X42262085Y-107194523D01*
X42262084Y-107194522D01*
X42262082Y-107194519D01*
X42120680Y-107053117D01*
X42006012Y-106969806D01*
X41958889Y-106935569D01*
X41868031Y-106889275D01*
X41780702Y-106844778D01*
X41629675Y-106795707D01*
X41590512Y-106782982D01*
X41392994Y-106751698D01*
X41392991Y-106751698D01*
X40921918Y-106751698D01*
X40902208Y-106750147D01*
X40853389Y-106742415D01*
X40853375Y-106742412D01*
X40815880Y-106730229D01*
X40780773Y-106712340D01*
X40748884Y-106689170D01*
X40721029Y-106661315D01*
X40697859Y-106629426D01*
X40679970Y-106594319D01*
X40667787Y-106556824D01*
X40660053Y-106507990D01*
X40658502Y-106488282D01*
X40658502Y-105917999D01*
X69793874Y-105917999D01*
X69813095Y-106064005D01*
X69869454Y-106200065D01*
X69959102Y-106316897D01*
X70004095Y-106351421D01*
X70075937Y-106406547D01*
X70211993Y-106462904D01*
X70358000Y-106482126D01*
X70504007Y-106462904D01*
X70640063Y-106406547D01*
X70756897Y-106316897D01*
X70846547Y-106200063D01*
X70902904Y-106064007D01*
X70922126Y-105918000D01*
X70922126Y-105917999D01*
X71825874Y-105917999D01*
X71845095Y-106064005D01*
X71901454Y-106200065D01*
X71991102Y-106316897D01*
X72107935Y-106406546D01*
X72107936Y-106406546D01*
X72107937Y-106406547D01*
X72243993Y-106462904D01*
X72243994Y-106462904D01*
X72259319Y-106469252D01*
X72258471Y-106471297D01*
X72295764Y-106486741D01*
X72335475Y-106538486D01*
X72343990Y-106603154D01*
X72333873Y-106679999D01*
X72353095Y-106826005D01*
X72409454Y-106962065D01*
X72499102Y-107078897D01*
X72509196Y-107086642D01*
X72615937Y-107168547D01*
X72751993Y-107224904D01*
X72898000Y-107244126D01*
X73044007Y-107224904D01*
X73180063Y-107168547D01*
X73296897Y-107078897D01*
X73300326Y-107074427D01*
X73344555Y-107038128D01*
X73400284Y-107025132D01*
X73456013Y-107038125D01*
X73500247Y-107074426D01*
X73503681Y-107078900D01*
X73509621Y-107086641D01*
X73616360Y-107168545D01*
X73626454Y-107176290D01*
X73762510Y-107232647D01*
X73908517Y-107251869D01*
X74054524Y-107232647D01*
X74190580Y-107176290D01*
X74307414Y-107086640D01*
X74322269Y-107067280D01*
X74366500Y-107030981D01*
X74422228Y-107017987D01*
X74477957Y-107030981D01*
X74522189Y-107067280D01*
X74531103Y-107078897D01*
X74647937Y-107168547D01*
X74783993Y-107224904D01*
X74930000Y-107244126D01*
X75076007Y-107224904D01*
X75212063Y-107168547D01*
X75328897Y-107078897D01*
X75418547Y-106962063D01*
X75474904Y-106826007D01*
X75494126Y-106680000D01*
X75474904Y-106533993D01*
X75418547Y-106397937D01*
X75382854Y-106351421D01*
X75328897Y-106281102D01*
X75212065Y-106191454D01*
X75190951Y-106182708D01*
X75076007Y-106135096D01*
X75076005Y-106135095D01*
X75060681Y-106128748D01*
X75061527Y-106126703D01*
X75024220Y-106111246D01*
X74984520Y-106059503D01*
X74976009Y-105994844D01*
X74986126Y-105918000D01*
X74966904Y-105771993D01*
X74910547Y-105635937D01*
X74867864Y-105580311D01*
X74820897Y-105519102D01*
X74704065Y-105429454D01*
X74568005Y-105373095D01*
X74422000Y-105353874D01*
X74275994Y-105373095D01*
X74139934Y-105429454D01*
X74023101Y-105519103D01*
X74013961Y-105531016D01*
X73969728Y-105567317D01*
X73914000Y-105580311D01*
X73858272Y-105567317D01*
X73814039Y-105531016D01*
X73804898Y-105519103D01*
X73688065Y-105429454D01*
X73552005Y-105373095D01*
X73406000Y-105353874D01*
X73259994Y-105373095D01*
X73123934Y-105429454D01*
X73007101Y-105519103D01*
X72997961Y-105531016D01*
X72953728Y-105567317D01*
X72898000Y-105580311D01*
X72842272Y-105567317D01*
X72798039Y-105531016D01*
X72788898Y-105519103D01*
X72672065Y-105429454D01*
X72536005Y-105373095D01*
X72390000Y-105353874D01*
X72243994Y-105373095D01*
X72107934Y-105429454D01*
X71991102Y-105519102D01*
X71901454Y-105635934D01*
X71845095Y-105771994D01*
X71825874Y-105917999D01*
X70922126Y-105917999D01*
X70902904Y-105771993D01*
X70846547Y-105635937D01*
X70803864Y-105580311D01*
X70756897Y-105519102D01*
X70640065Y-105429454D01*
X70504005Y-105373095D01*
X70358000Y-105353874D01*
X70211994Y-105373095D01*
X70075934Y-105429454D01*
X69959102Y-105519102D01*
X69869454Y-105635934D01*
X69813095Y-105771994D01*
X69793874Y-105917999D01*
X40658502Y-105917999D01*
X40658502Y-100837999D01*
X44714708Y-100837999D01*
X44733839Y-101056678D01*
X44790652Y-101268701D01*
X44883420Y-101467645D01*
X45009328Y-101647460D01*
X45164539Y-101802671D01*
X45164542Y-101802673D01*
X45164543Y-101802674D01*
X45344354Y-101928579D01*
X45543297Y-102021347D01*
X45636781Y-102046396D01*
X45755321Y-102078160D01*
X45755322Y-102078160D01*
X45755326Y-102078161D01*
X45974000Y-102097292D01*
X46192674Y-102078161D01*
X46404703Y-102021347D01*
X46603646Y-101928579D01*
X46783457Y-101802674D01*
X46938674Y-101647457D01*
X47064579Y-101467646D01*
X47157347Y-101268703D01*
X47214161Y-101056674D01*
X47233292Y-100838000D01*
X47214161Y-100619326D01*
X47157347Y-100407297D01*
X47064579Y-100208354D01*
X46938674Y-100028543D01*
X46938673Y-100028542D01*
X46938671Y-100028539D01*
X46783460Y-99873328D01*
X46603645Y-99747420D01*
X46404701Y-99654652D01*
X46192678Y-99597839D01*
X45974000Y-99578708D01*
X45755321Y-99597839D01*
X45543298Y-99654652D01*
X45344354Y-99747420D01*
X45164539Y-99873328D01*
X45009328Y-100028539D01*
X44883420Y-100208354D01*
X44790652Y-100407298D01*
X44733839Y-100619321D01*
X44714708Y-100837999D01*
X40658502Y-100837999D01*
X40658502Y-96519999D01*
X44952581Y-96519999D01*
X44972207Y-96719269D01*
X45027639Y-96902000D01*
X45030333Y-96910880D01*
X45124722Y-97087469D01*
X45174355Y-97147948D01*
X45251747Y-97242252D01*
X45275538Y-97261776D01*
X45406531Y-97369278D01*
X45583120Y-97463667D01*
X45678925Y-97492729D01*
X45774730Y-97521792D01*
X45974000Y-97541418D01*
X46173269Y-97521792D01*
X46364880Y-97463667D01*
X46541469Y-97369278D01*
X46696252Y-97242252D01*
X46823278Y-97087469D01*
X46917667Y-96910880D01*
X46975792Y-96719269D01*
X46995418Y-96520000D01*
X46975792Y-96320731D01*
X46917667Y-96129120D01*
X46823278Y-95952531D01*
X46759764Y-95875139D01*
X46696252Y-95797747D01*
X46601948Y-95720355D01*
X46541469Y-95670722D01*
X46364880Y-95576333D01*
X46364879Y-95576332D01*
X46364878Y-95576332D01*
X46173269Y-95518207D01*
X45974000Y-95498581D01*
X45774730Y-95518207D01*
X45583121Y-95576332D01*
X45406532Y-95670721D01*
X45251747Y-95797747D01*
X45124721Y-95952532D01*
X45030332Y-96129121D01*
X44972207Y-96320730D01*
X44952581Y-96519999D01*
X40658502Y-96519999D01*
X40658502Y-92202000D01*
X44714708Y-92202000D01*
X44733839Y-92420678D01*
X44790652Y-92632701D01*
X44883420Y-92831645D01*
X45009328Y-93011460D01*
X45164539Y-93166671D01*
X45164542Y-93166673D01*
X45164543Y-93166674D01*
X45344354Y-93292579D01*
X45543297Y-93385347D01*
X45636781Y-93410396D01*
X45755321Y-93442160D01*
X45755322Y-93442160D01*
X45755326Y-93442161D01*
X45974000Y-93461292D01*
X46192674Y-93442161D01*
X46404703Y-93385347D01*
X46603646Y-93292579D01*
X46783457Y-93166674D01*
X46938674Y-93011457D01*
X47064579Y-92831646D01*
X47157347Y-92632703D01*
X47214161Y-92420674D01*
X47233292Y-92202000D01*
X47214161Y-91983326D01*
X47157347Y-91771297D01*
X47064579Y-91572354D01*
X46938674Y-91392543D01*
X46938673Y-91392542D01*
X46938671Y-91392539D01*
X46783460Y-91237328D01*
X46603645Y-91111420D01*
X46404701Y-91018652D01*
X46192678Y-90961839D01*
X45974000Y-90942708D01*
X45755321Y-90961839D01*
X45543298Y-91018652D01*
X45344354Y-91111420D01*
X45164539Y-91237328D01*
X45009328Y-91392539D01*
X44883420Y-91572354D01*
X44790652Y-91771298D01*
X44733839Y-91983321D01*
X44714708Y-92202000D01*
X40658502Y-92202000D01*
X40658502Y-87883999D01*
X44714708Y-87883999D01*
X44733839Y-88102678D01*
X44790652Y-88314701D01*
X44883420Y-88513645D01*
X45009328Y-88693460D01*
X45164539Y-88848671D01*
X45164542Y-88848673D01*
X45164543Y-88848674D01*
X45344354Y-88974579D01*
X45543297Y-89067347D01*
X45636781Y-89092396D01*
X45755321Y-89124160D01*
X45755322Y-89124160D01*
X45755326Y-89124161D01*
X45974000Y-89143292D01*
X46192674Y-89124161D01*
X46404703Y-89067347D01*
X46603646Y-88974579D01*
X46783457Y-88848674D01*
X46938674Y-88693457D01*
X47064579Y-88513646D01*
X47157347Y-88314703D01*
X47214161Y-88102674D01*
X47233292Y-87884000D01*
X47214161Y-87665326D01*
X47157347Y-87453297D01*
X47064579Y-87254354D01*
X46938674Y-87074543D01*
X46938673Y-87074542D01*
X46938671Y-87074539D01*
X46783460Y-86919328D01*
X46603645Y-86793420D01*
X46404701Y-86700652D01*
X46192678Y-86643839D01*
X45974000Y-86624708D01*
X45755321Y-86643839D01*
X45543298Y-86700652D01*
X45344354Y-86793420D01*
X45164539Y-86919328D01*
X45009328Y-87074539D01*
X44883420Y-87254354D01*
X44790652Y-87453298D01*
X44733839Y-87665321D01*
X44714708Y-87883999D01*
X40658502Y-87883999D01*
X40658502Y-83566000D01*
X44714708Y-83566000D01*
X44733839Y-83784678D01*
X44790652Y-83996701D01*
X44883420Y-84195645D01*
X45009328Y-84375460D01*
X45164539Y-84530671D01*
X45164542Y-84530673D01*
X45164543Y-84530674D01*
X45344354Y-84656579D01*
X45543297Y-84749347D01*
X45636781Y-84774396D01*
X45755321Y-84806160D01*
X45755322Y-84806160D01*
X45755326Y-84806161D01*
X45974000Y-84825292D01*
X46192674Y-84806161D01*
X46404703Y-84749347D01*
X46603646Y-84656579D01*
X46783457Y-84530674D01*
X46938674Y-84375457D01*
X47064579Y-84195646D01*
X47157347Y-83996703D01*
X47214161Y-83784674D01*
X47233292Y-83566000D01*
X47214161Y-83347326D01*
X47210055Y-83332004D01*
X47157347Y-83135298D01*
X47147474Y-83114126D01*
X47064579Y-82936354D01*
X46938674Y-82756543D01*
X46938673Y-82756542D01*
X46938671Y-82756539D01*
X46783460Y-82601328D01*
X46710155Y-82549999D01*
X48457874Y-82549999D01*
X48477095Y-82696005D01*
X48533454Y-82832065D01*
X48623102Y-82948897D01*
X48739934Y-83038545D01*
X48739937Y-83038547D01*
X48875993Y-83094904D01*
X49022000Y-83114126D01*
X49168007Y-83094904D01*
X49304063Y-83038547D01*
X49420897Y-82948897D01*
X49510547Y-82832063D01*
X49566904Y-82696007D01*
X49586126Y-82550000D01*
X49586033Y-82549297D01*
X49566904Y-82403994D01*
X49566904Y-82403993D01*
X49510547Y-82267937D01*
X49510545Y-82267934D01*
X49420897Y-82151102D01*
X49304065Y-82061454D01*
X49257097Y-82041999D01*
X49168007Y-82005096D01*
X49168005Y-82005095D01*
X49022000Y-81985874D01*
X48875994Y-82005095D01*
X48739934Y-82061454D01*
X48623102Y-82151102D01*
X48533454Y-82267934D01*
X48477095Y-82403994D01*
X48457874Y-82549999D01*
X46710155Y-82549999D01*
X46603645Y-82475420D01*
X46404701Y-82382652D01*
X46192678Y-82325839D01*
X45974000Y-82306708D01*
X45755321Y-82325839D01*
X45543298Y-82382652D01*
X45344354Y-82475420D01*
X45164539Y-82601328D01*
X45009328Y-82756539D01*
X44883420Y-82936354D01*
X44790652Y-83135298D01*
X44733839Y-83347321D01*
X44714708Y-83566000D01*
X40658502Y-83566000D01*
X40658502Y-74549000D01*
X45714648Y-74549000D01*
X45734037Y-74906588D01*
X45791973Y-75259985D01*
X45887775Y-75605036D01*
X45967924Y-75806193D01*
X46020330Y-75937721D01*
X46188072Y-76254116D01*
X46389043Y-76550527D01*
X46620879Y-76823464D01*
X46880860Y-77069732D01*
X46880863Y-77069734D01*
X46880866Y-77069737D01*
X47165957Y-77286458D01*
X47472809Y-77471084D01*
X47472811Y-77471085D01*
X47472813Y-77471086D01*
X47689484Y-77571329D01*
X47797823Y-77621452D01*
X47935599Y-77667874D01*
X48137189Y-77735798D01*
X48171971Y-77743454D01*
X48486930Y-77812782D01*
X48553346Y-77820005D01*
X48842941Y-77851500D01*
X48842944Y-77851500D01*
X49201056Y-77851500D01*
X49201059Y-77851500D01*
X49414664Y-77828269D01*
X49557070Y-77812782D01*
X49906810Y-77735798D01*
X50246177Y-77621452D01*
X50571191Y-77471084D01*
X50878043Y-77286458D01*
X51163134Y-77069737D01*
X51423122Y-76823463D01*
X51654959Y-76550524D01*
X51855927Y-76254118D01*
X52023670Y-75937721D01*
X52156222Y-75605042D01*
X52252027Y-75259983D01*
X52309963Y-74906588D01*
X52329351Y-74549000D01*
X52315444Y-74292500D01*
X55569874Y-74292500D01*
X55589095Y-74438505D01*
X55589096Y-74438507D01*
X55629479Y-74536000D01*
X55645454Y-74574565D01*
X55735102Y-74691397D01*
X55851934Y-74781045D01*
X55851937Y-74781047D01*
X55987993Y-74837404D01*
X56134000Y-74856626D01*
X56280007Y-74837404D01*
X56416063Y-74781047D01*
X56532897Y-74691397D01*
X56622547Y-74574563D01*
X56678904Y-74438507D01*
X56698126Y-74292500D01*
X56678904Y-74146493D01*
X56622547Y-74010437D01*
X56607706Y-73991096D01*
X56532897Y-73893602D01*
X56416065Y-73803954D01*
X56280005Y-73747595D01*
X56134000Y-73728374D01*
X55987994Y-73747595D01*
X55851934Y-73803954D01*
X55735102Y-73893602D01*
X55645454Y-74010434D01*
X55589095Y-74146494D01*
X55569874Y-74292500D01*
X52315444Y-74292500D01*
X52309963Y-74191412D01*
X52252027Y-73838017D01*
X52226922Y-73747596D01*
X52156224Y-73492963D01*
X52155196Y-73490385D01*
X52023670Y-73160279D01*
X51855927Y-72843882D01*
X51654959Y-72547476D01*
X51644274Y-72534897D01*
X51476288Y-72337129D01*
X51423122Y-72274537D01*
X51418593Y-72270247D01*
X51163139Y-72028267D01*
X51128280Y-72001768D01*
X50878043Y-71811542D01*
X50571191Y-71626916D01*
X50571190Y-71626915D01*
X50571186Y-71626913D01*
X50246178Y-71476548D01*
X49906810Y-71362201D01*
X49557068Y-71285217D01*
X49201059Y-71246500D01*
X49201056Y-71246500D01*
X48842944Y-71246500D01*
X48842941Y-71246500D01*
X48486931Y-71285217D01*
X48137189Y-71362201D01*
X47797821Y-71476548D01*
X47472813Y-71626913D01*
X47165958Y-71811541D01*
X46880860Y-72028267D01*
X46620879Y-72274535D01*
X46389043Y-72547472D01*
X46188072Y-72843883D01*
X46020330Y-73160279D01*
X45887775Y-73492963D01*
X45791973Y-73838014D01*
X45734037Y-74191411D01*
X45714648Y-74549000D01*
X40658502Y-74549000D01*
X40658502Y-70891754D01*
X40658505Y-70891723D01*
X40658504Y-70874870D01*
X40658505Y-70874868D01*
X40658505Y-70866000D01*
X45790874Y-70866000D01*
X45792043Y-70874879D01*
X45810095Y-71012005D01*
X45866454Y-71148065D01*
X45956102Y-71264897D01*
X46072934Y-71354545D01*
X46072937Y-71354547D01*
X46208993Y-71410904D01*
X46355000Y-71430126D01*
X46501007Y-71410904D01*
X46637063Y-71354547D01*
X46753897Y-71264897D01*
X46843547Y-71148063D01*
X46853946Y-71122955D01*
X46871059Y-71093609D01*
X46871960Y-71092457D01*
X47050389Y-70747886D01*
X47084993Y-70681062D01*
X47107783Y-70649909D01*
X47355656Y-70402036D01*
X47417478Y-70368120D01*
X47487843Y-70372732D01*
X47544711Y-70414429D01*
X47612595Y-70502897D01*
X47729246Y-70592407D01*
X47729429Y-70592547D01*
X47865485Y-70648904D01*
X48011492Y-70668126D01*
X48157499Y-70648904D01*
X48293555Y-70592547D01*
X48410389Y-70502897D01*
X48500039Y-70386063D01*
X48556396Y-70250007D01*
X48575618Y-70104000D01*
X48556396Y-69957993D01*
X48500039Y-69821937D01*
X48410389Y-69705103D01*
X48321921Y-69637219D01*
X48280224Y-69580351D01*
X48275612Y-69509986D01*
X48309528Y-69448164D01*
X49285489Y-68472203D01*
X49345168Y-68438781D01*
X49413518Y-68441467D01*
X49470393Y-68479470D01*
X49499031Y-68541589D01*
X49490991Y-68609518D01*
X49429816Y-68757205D01*
X49410595Y-68903212D01*
X49429816Y-69049217D01*
X49429817Y-69049219D01*
X49474568Y-69157257D01*
X49486175Y-69185277D01*
X49575823Y-69302109D01*
X49692655Y-69391757D01*
X49692658Y-69391759D01*
X49828714Y-69448116D01*
X49974721Y-69467338D01*
X50120728Y-69448116D01*
X50256784Y-69391759D01*
X50373618Y-69302109D01*
X50463268Y-69185275D01*
X50519625Y-69049219D01*
X50538847Y-68903212D01*
X50519625Y-68757205D01*
X50463268Y-68621149D01*
X50463266Y-68621146D01*
X50373618Y-68504314D01*
X50256786Y-68414666D01*
X50120726Y-68358307D01*
X49974721Y-68339086D01*
X49828714Y-68358307D01*
X49681027Y-68419482D01*
X49613098Y-68427522D01*
X49550979Y-68398884D01*
X49512976Y-68342009D01*
X49510290Y-68273659D01*
X49543712Y-68213980D01*
X50009566Y-67748126D01*
X50029747Y-67731739D01*
X50038872Y-67725778D01*
X50058491Y-67700569D01*
X50068836Y-67688857D01*
X50068870Y-67688824D01*
X50081064Y-67671743D01*
X50084170Y-67667577D01*
X50116665Y-67625829D01*
X50116665Y-67625827D01*
X50121609Y-67619476D01*
X50121645Y-67619405D01*
X50123941Y-67611692D01*
X50123943Y-67611690D01*
X50139033Y-67560999D01*
X50140616Y-67556061D01*
X50157790Y-67506037D01*
X50157790Y-67506035D01*
X50160401Y-67498430D01*
X50160414Y-67498341D01*
X50157898Y-67437497D01*
X50157790Y-67432290D01*
X50157790Y-66965815D01*
X50163703Y-66927668D01*
X50173874Y-66895650D01*
X50303965Y-66486130D01*
X50304143Y-66484680D01*
X50312796Y-66451821D01*
X50317691Y-66440005D01*
X50323194Y-66426721D01*
X50340667Y-66293999D01*
X50997874Y-66293999D01*
X51017095Y-66440005D01*
X51027183Y-66464358D01*
X51035882Y-66497611D01*
X51035985Y-66498472D01*
X51174726Y-66940868D01*
X51180500Y-66978573D01*
X51180500Y-68908367D01*
X51177818Y-68934225D01*
X51175554Y-68945017D01*
X51179532Y-68976922D01*
X51180500Y-68992508D01*
X51180500Y-68992614D01*
X51183975Y-69013443D01*
X51184725Y-69018589D01*
X51192294Y-69079302D01*
X51192371Y-69079542D01*
X51196181Y-69086583D01*
X51196182Y-69086586D01*
X51221492Y-69133355D01*
X51223874Y-69137984D01*
X51250742Y-69192943D01*
X51250884Y-69193134D01*
X51256779Y-69198561D01*
X51256780Y-69198562D01*
X51295931Y-69234603D01*
X51299662Y-69238184D01*
X52036331Y-69974854D01*
X52069944Y-70035336D01*
X52066549Y-70104449D01*
X52027170Y-70161347D01*
X51963684Y-70188870D01*
X51923994Y-70194095D01*
X51787934Y-70250454D01*
X51671102Y-70340102D01*
X51581454Y-70456934D01*
X51525095Y-70592994D01*
X51505874Y-70738999D01*
X51525095Y-70885005D01*
X51581454Y-71021065D01*
X51671102Y-71137897D01*
X51787934Y-71227545D01*
X51787937Y-71227547D01*
X51923993Y-71283904D01*
X52070000Y-71303126D01*
X52216007Y-71283904D01*
X52352063Y-71227547D01*
X52468897Y-71137897D01*
X52558547Y-71021063D01*
X52614904Y-70885007D01*
X52620128Y-70845319D01*
X52647651Y-70781831D01*
X52704549Y-70742451D01*
X52773662Y-70739055D01*
X52834146Y-70772669D01*
X53048595Y-70987118D01*
X53075909Y-71027995D01*
X53085500Y-71076213D01*
X53085500Y-71451425D01*
X53079726Y-71489129D01*
X52940986Y-71931521D01*
X52940883Y-71932385D01*
X52932186Y-71965630D01*
X52922096Y-71989992D01*
X52902874Y-72136000D01*
X52922095Y-72282005D01*
X52937931Y-72320236D01*
X52972470Y-72403620D01*
X52978454Y-72418065D01*
X53068102Y-72534897D01*
X53177219Y-72618625D01*
X53184937Y-72624547D01*
X53320993Y-72680904D01*
X53467000Y-72700126D01*
X53613007Y-72680904D01*
X53749063Y-72624547D01*
X53865897Y-72534897D01*
X53955547Y-72418063D01*
X54011904Y-72282007D01*
X54031126Y-72136000D01*
X54011904Y-71989993D01*
X54001814Y-71965634D01*
X53993114Y-71932373D01*
X53993013Y-71931521D01*
X53854274Y-71489132D01*
X53848500Y-71451427D01*
X53848500Y-71120000D01*
X54426874Y-71120000D01*
X54446095Y-71266005D01*
X54502454Y-71402065D01*
X54592102Y-71518897D01*
X54708934Y-71608545D01*
X54708937Y-71608547D01*
X54844993Y-71664904D01*
X54991000Y-71684126D01*
X55137007Y-71664904D01*
X55273063Y-71608547D01*
X55389897Y-71518897D01*
X55479547Y-71402063D01*
X55535904Y-71266007D01*
X55555126Y-71120000D01*
X55535904Y-70973993D01*
X55479547Y-70837937D01*
X55479545Y-70837934D01*
X55389897Y-70721102D01*
X55273065Y-70631454D01*
X55266853Y-70628881D01*
X55177505Y-70591871D01*
X55137005Y-70575095D01*
X54991000Y-70555874D01*
X54844994Y-70575095D01*
X54708934Y-70631454D01*
X54592102Y-70721102D01*
X54502454Y-70837934D01*
X54446095Y-70973994D01*
X54426874Y-71120000D01*
X53848500Y-71120000D01*
X53848500Y-70918634D01*
X53851182Y-70892776D01*
X53852714Y-70885468D01*
X53853445Y-70881984D01*
X53851452Y-70865999D01*
X53849468Y-70850079D01*
X53848500Y-70834493D01*
X53848500Y-70834388D01*
X53845678Y-70817483D01*
X53845022Y-70813557D01*
X53844276Y-70808439D01*
X53837696Y-70755640D01*
X53837695Y-70755639D01*
X53836704Y-70747681D01*
X53836636Y-70747470D01*
X53832818Y-70740415D01*
X53832818Y-70740414D01*
X53807509Y-70693648D01*
X53805133Y-70689031D01*
X53778255Y-70634052D01*
X53778114Y-70633862D01*
X53733081Y-70592407D01*
X53729323Y-70588801D01*
X51980405Y-68839882D01*
X51953091Y-68799005D01*
X51943500Y-68750787D01*
X51943500Y-68326000D01*
X53537874Y-68326000D01*
X53557095Y-68472005D01*
X53613454Y-68608065D01*
X53703102Y-68724897D01*
X53819934Y-68814545D01*
X53819937Y-68814547D01*
X53955993Y-68870904D01*
X54102000Y-68890126D01*
X54248007Y-68870904D01*
X54384063Y-68814547D01*
X54500897Y-68724897D01*
X54590547Y-68608063D01*
X54646904Y-68472007D01*
X54666126Y-68326000D01*
X54646904Y-68179993D01*
X54590547Y-68043937D01*
X54590545Y-68043934D01*
X54500897Y-67927102D01*
X54384065Y-67837454D01*
X54248005Y-67781095D01*
X54102000Y-67761874D01*
X53955994Y-67781095D01*
X53819934Y-67837454D01*
X53703102Y-67927102D01*
X53613454Y-68043934D01*
X53557095Y-68179994D01*
X53537874Y-68326000D01*
X51943500Y-68326000D01*
X51943500Y-66978572D01*
X51949274Y-66940867D01*
X52088013Y-66498478D01*
X52088114Y-66497627D01*
X52096816Y-66464356D01*
X52106904Y-66440007D01*
X52126126Y-66294000D01*
X52106904Y-66147993D01*
X52050547Y-66011937D01*
X52050545Y-66011934D01*
X51960897Y-65895102D01*
X51844065Y-65805454D01*
X51811990Y-65792168D01*
X51708007Y-65749096D01*
X51708005Y-65749095D01*
X51562000Y-65729874D01*
X51415994Y-65749095D01*
X51279934Y-65805454D01*
X51163102Y-65895102D01*
X51073454Y-66011934D01*
X51017095Y-66147994D01*
X50997874Y-66293999D01*
X50340667Y-66293999D01*
X50342416Y-66280714D01*
X50323194Y-66134707D01*
X50266837Y-65998651D01*
X50266835Y-65998648D01*
X50177187Y-65881816D01*
X50060355Y-65792168D01*
X49924295Y-65735809D01*
X49778290Y-65716588D01*
X49632284Y-65735809D01*
X49496224Y-65792168D01*
X49379392Y-65881816D01*
X49289744Y-65998648D01*
X49233385Y-66134708D01*
X49214164Y-66280713D01*
X49233386Y-66426722D01*
X49243784Y-66451826D01*
X49252433Y-66484667D01*
X49252612Y-66486128D01*
X49392876Y-66927665D01*
X49398790Y-66965813D01*
X49398790Y-67233326D01*
X49389199Y-67281544D01*
X49361885Y-67322421D01*
X46571092Y-70113212D01*
X46539937Y-70136005D01*
X46128540Y-70349039D01*
X46127383Y-70349944D01*
X46098046Y-70367051D01*
X46072935Y-70377453D01*
X45956102Y-70467102D01*
X45866454Y-70583934D01*
X45810095Y-70719994D01*
X45792970Y-70850079D01*
X45790874Y-70866000D01*
X40658505Y-70866000D01*
X40658502Y-70814993D01*
X40659294Y-70800888D01*
X40662325Y-70773986D01*
X40671750Y-70690311D01*
X40678025Y-70662811D01*
X40712427Y-70564488D01*
X40724664Y-70539076D01*
X40780083Y-70450875D01*
X40797673Y-70428820D01*
X40827812Y-70398681D01*
X40871325Y-70355168D01*
X40893376Y-70337583D01*
X40981579Y-70282163D01*
X41006987Y-70269927D01*
X41105313Y-70235524D01*
X41132815Y-70229249D01*
X41196517Y-70222074D01*
X41243437Y-70216789D01*
X41257542Y-70215997D01*
X41317371Y-70216000D01*
X41317373Y-70215999D01*
X41334226Y-70216000D01*
X41334257Y-70215997D01*
X45166860Y-70215997D01*
X45166927Y-70216005D01*
X45183548Y-70216003D01*
X45183551Y-70216004D01*
X45198293Y-70216002D01*
X45198321Y-70216007D01*
X45250496Y-70216002D01*
X45250496Y-70216003D01*
X45337249Y-70215995D01*
X45508116Y-70185853D01*
X45671155Y-70126502D01*
X45821412Y-70039743D01*
X45954323Y-69928214D01*
X46065850Y-69795302D01*
X46152607Y-69645044D01*
X46211956Y-69482004D01*
X46242096Y-69311137D01*
X46242099Y-69271154D01*
X46242100Y-69271145D01*
X46242103Y-69224111D01*
X46242103Y-69224107D01*
X46242110Y-69139812D01*
X46242105Y-69139779D01*
X46242224Y-66282291D01*
X46242284Y-64858653D01*
X46259167Y-64795655D01*
X46305286Y-64749538D01*
X46368284Y-64732658D01*
X46375745Y-64732658D01*
X51608456Y-64732658D01*
X51608526Y-64732663D01*
X51617446Y-64732663D01*
X54575968Y-64732663D01*
X54642505Y-64751664D01*
X54688974Y-64802935D01*
X54701361Y-64871014D01*
X54675930Y-64935366D01*
X54653591Y-64964479D01*
X54629453Y-64995936D01*
X54573095Y-65131994D01*
X54553874Y-65278000D01*
X54573095Y-65424005D01*
X54629454Y-65560065D01*
X54719102Y-65676897D01*
X54813193Y-65749095D01*
X54835937Y-65766547D01*
X54971993Y-65822904D01*
X55118000Y-65842126D01*
X55264007Y-65822904D01*
X55400063Y-65766547D01*
X55516897Y-65676897D01*
X55606547Y-65560063D01*
X55662904Y-65424007D01*
X55682126Y-65278000D01*
X55662904Y-65131993D01*
X55606547Y-64995937D01*
X55560069Y-64935366D01*
X55534639Y-64871014D01*
X55547026Y-64802935D01*
X55593495Y-64751664D01*
X55660032Y-64732663D01*
X56308382Y-64732663D01*
X56308481Y-64732670D01*
X56317386Y-64732670D01*
X56499303Y-64732670D01*
X56562303Y-64749551D01*
X56608422Y-64795670D01*
X56625303Y-64858670D01*
X56625303Y-66282291D01*
X56625339Y-66282794D01*
X56625339Y-72284808D01*
X56625272Y-72285139D01*
X56625263Y-72370417D01*
X56625257Y-72431883D01*
X56658170Y-72618625D01*
X56720054Y-72788670D01*
X56723018Y-72796813D01*
X56752547Y-72847959D01*
X56817827Y-72961026D01*
X56939719Y-73106278D01*
X57084986Y-73228151D01*
X57249212Y-73322940D01*
X57249215Y-73322941D01*
X57427405Y-73387765D01*
X57493182Y-73399349D01*
X57614152Y-73420654D01*
X57708942Y-73420633D01*
X57708962Y-73420633D01*
X57717330Y-73420631D01*
X57849245Y-73420631D01*
X57849265Y-73420633D01*
X57866898Y-73420632D01*
X57866900Y-73420633D01*
X57933846Y-73420631D01*
X57970200Y-73420631D01*
X57979286Y-73420631D01*
X57979442Y-73420618D01*
X58056035Y-73420617D01*
X58056038Y-73420617D01*
X58297926Y-73385834D01*
X58297928Y-73385833D01*
X58297930Y-73385833D01*
X58532412Y-73316979D01*
X58754709Y-73215457D01*
X58960295Y-73083333D01*
X58960296Y-73083331D01*
X58960299Y-73083330D01*
X59144984Y-72923300D01*
X59144987Y-72923297D01*
X59305024Y-72738607D01*
X59437150Y-72533021D01*
X59538674Y-72310725D01*
X59607530Y-72076244D01*
X59642316Y-71834351D01*
X59642317Y-71764005D01*
X59642320Y-71763991D01*
X59642320Y-71712124D01*
X59642322Y-71664904D01*
X59642323Y-71645214D01*
X59642322Y-71645211D01*
X59642323Y-71628358D01*
X59642320Y-71628328D01*
X59642320Y-70738000D01*
X59659201Y-70675000D01*
X59705320Y-70628881D01*
X59768320Y-70612000D01*
X62352500Y-70612000D01*
X62415500Y-70628881D01*
X62461619Y-70675000D01*
X62478500Y-70738000D01*
X62478500Y-104776000D01*
X62487341Y-104843161D01*
X62504223Y-104906165D01*
X62530148Y-104968750D01*
X62571389Y-105022497D01*
X62617502Y-105068610D01*
X62617506Y-105068613D01*
X62671250Y-105109852D01*
X62733836Y-105135777D01*
X62796836Y-105152658D01*
X62864000Y-105161500D01*
X69216000Y-105161500D01*
X69283164Y-105152658D01*
X69346164Y-105135777D01*
X69408750Y-105109852D01*
X69462494Y-105068613D01*
X69508613Y-105022494D01*
X69549852Y-104968750D01*
X69575777Y-104906164D01*
X69592658Y-104843164D01*
X69601500Y-104776000D01*
X69601500Y-102616000D01*
X81861708Y-102616000D01*
X81880839Y-102834678D01*
X81937652Y-103046701D01*
X82030420Y-103245645D01*
X82156328Y-103425460D01*
X82311539Y-103580671D01*
X82311542Y-103580673D01*
X82311543Y-103580674D01*
X82491354Y-103706579D01*
X82690297Y-103799347D01*
X82783781Y-103824396D01*
X82902321Y-103856160D01*
X82902322Y-103856160D01*
X82902326Y-103856161D01*
X83121000Y-103875292D01*
X83339674Y-103856161D01*
X83551703Y-103799347D01*
X83750646Y-103706579D01*
X83930457Y-103580674D01*
X84085674Y-103425457D01*
X84211579Y-103245646D01*
X84304347Y-103046703D01*
X84361161Y-102834674D01*
X84380292Y-102616000D01*
X86941708Y-102616000D01*
X86960839Y-102834678D01*
X87017652Y-103046701D01*
X87110420Y-103245645D01*
X87236328Y-103425460D01*
X87391539Y-103580671D01*
X87391542Y-103580673D01*
X87391543Y-103580674D01*
X87571354Y-103706579D01*
X87770297Y-103799347D01*
X87863781Y-103824396D01*
X87982321Y-103856160D01*
X87982322Y-103856160D01*
X87982326Y-103856161D01*
X88201000Y-103875292D01*
X88419674Y-103856161D01*
X88631703Y-103799347D01*
X88830646Y-103706579D01*
X89010457Y-103580674D01*
X89165674Y-103425457D01*
X89291579Y-103245646D01*
X89384347Y-103046703D01*
X89441161Y-102834674D01*
X89460292Y-102616000D01*
X89441161Y-102397326D01*
X89384347Y-102185297D01*
X89291579Y-101986354D01*
X89165674Y-101806543D01*
X89165673Y-101806542D01*
X89165671Y-101806539D01*
X89010460Y-101651328D01*
X88830645Y-101525420D01*
X88631701Y-101432652D01*
X88419678Y-101375839D01*
X88201000Y-101356708D01*
X87982321Y-101375839D01*
X87770298Y-101432652D01*
X87571354Y-101525420D01*
X87391539Y-101651328D01*
X87236328Y-101806539D01*
X87110420Y-101986354D01*
X87017652Y-102185298D01*
X86960839Y-102397321D01*
X86941708Y-102616000D01*
X84380292Y-102616000D01*
X84361161Y-102397326D01*
X84304347Y-102185297D01*
X84211579Y-101986354D01*
X84085674Y-101806543D01*
X84085673Y-101806542D01*
X84085671Y-101806539D01*
X83930460Y-101651328D01*
X83750645Y-101525420D01*
X83551701Y-101432652D01*
X83339678Y-101375839D01*
X83121000Y-101356708D01*
X82902321Y-101375839D01*
X82690298Y-101432652D01*
X82491354Y-101525420D01*
X82311539Y-101651328D01*
X82156328Y-101806539D01*
X82030420Y-101986354D01*
X81937652Y-102185298D01*
X81880839Y-102397321D01*
X81861708Y-102616000D01*
X69601500Y-102616000D01*
X69601500Y-99821999D01*
X80715874Y-99821999D01*
X80735095Y-99968005D01*
X80791454Y-100104065D01*
X80881102Y-100220897D01*
X80997934Y-100310545D01*
X80997937Y-100310547D01*
X81133993Y-100366904D01*
X81280000Y-100386126D01*
X81426007Y-100366904D01*
X81562063Y-100310547D01*
X81678897Y-100220897D01*
X81768547Y-100104063D01*
X81824904Y-99968007D01*
X81844126Y-99822000D01*
X81824904Y-99675993D01*
X81768547Y-99539937D01*
X81768545Y-99539934D01*
X81678897Y-99423102D01*
X81562065Y-99333454D01*
X81426005Y-99277095D01*
X81280000Y-99257874D01*
X81133994Y-99277095D01*
X80997934Y-99333454D01*
X80881102Y-99423102D01*
X80791454Y-99539934D01*
X80735095Y-99675994D01*
X80715874Y-99821999D01*
X69601500Y-99821999D01*
X69601500Y-97413500D01*
X69618381Y-97350500D01*
X69664500Y-97304381D01*
X69727500Y-97287500D01*
X83948000Y-97287500D01*
X84015164Y-97278658D01*
X84078164Y-97261777D01*
X84140750Y-97235852D01*
X84194494Y-97194613D01*
X84240613Y-97148494D01*
X84281852Y-97094750D01*
X84307777Y-97032164D01*
X84324658Y-96969164D01*
X84333500Y-96902000D01*
X84333500Y-94042682D01*
X84332582Y-94036126D01*
X84331724Y-94030000D01*
X86049874Y-94030000D01*
X86051543Y-94042679D01*
X86069095Y-94176005D01*
X86125454Y-94312065D01*
X86215102Y-94428897D01*
X86310663Y-94502223D01*
X86331937Y-94518547D01*
X86467993Y-94574904D01*
X86614000Y-94594126D01*
X86760007Y-94574904D01*
X86896063Y-94518547D01*
X87012897Y-94428897D01*
X87102547Y-94312063D01*
X87158904Y-94176007D01*
X87178126Y-94030000D01*
X87573874Y-94030000D01*
X87575543Y-94042679D01*
X87593095Y-94176005D01*
X87649454Y-94312065D01*
X87739102Y-94428897D01*
X87834663Y-94502223D01*
X87855937Y-94518547D01*
X87991993Y-94574904D01*
X88138000Y-94594126D01*
X88284007Y-94574904D01*
X88420063Y-94518547D01*
X88536897Y-94428897D01*
X88626547Y-94312063D01*
X88682904Y-94176007D01*
X88702126Y-94030000D01*
X88682904Y-93883993D01*
X88626547Y-93747937D01*
X88626545Y-93747934D01*
X88536897Y-93631102D01*
X88420065Y-93541454D01*
X88284005Y-93485095D01*
X88138000Y-93465874D01*
X87991994Y-93485095D01*
X87855934Y-93541454D01*
X87739102Y-93631102D01*
X87649454Y-93747934D01*
X87593095Y-93883994D01*
X87573874Y-94029999D01*
X87573874Y-94030000D01*
X87178126Y-94030000D01*
X87158904Y-93883993D01*
X87102547Y-93747937D01*
X87102545Y-93747934D01*
X87012897Y-93631102D01*
X86896065Y-93541454D01*
X86760005Y-93485095D01*
X86614000Y-93465874D01*
X86467994Y-93485095D01*
X86331934Y-93541454D01*
X86215102Y-93631102D01*
X86125454Y-93747934D01*
X86069095Y-93883994D01*
X86049874Y-94029999D01*
X86049874Y-94030000D01*
X84331724Y-94030000D01*
X84323526Y-93971430D01*
X84321913Y-93965780D01*
X84304524Y-93904888D01*
X84275366Y-93839110D01*
X84250814Y-93809688D01*
X84229266Y-93783865D01*
X84178000Y-93737401D01*
X84166192Y-93729371D01*
X84122066Y-93676712D01*
X84112124Y-93608736D01*
X84130126Y-93472000D01*
X84112124Y-93335263D01*
X84122067Y-93267284D01*
X84166194Y-93214627D01*
X84177997Y-93206601D01*
X84229268Y-93160132D01*
X84275366Y-93104890D01*
X84304524Y-93039112D01*
X84323525Y-92972575D01*
X84323526Y-92972569D01*
X84333500Y-92901321D01*
X84333500Y-90744903D01*
X84352501Y-90678366D01*
X84403772Y-90631897D01*
X84471850Y-90619510D01*
X84536204Y-90644940D01*
X84553937Y-90658547D01*
X84689993Y-90714904D01*
X84836000Y-90734126D01*
X84982007Y-90714904D01*
X85118063Y-90658547D01*
X85234897Y-90568897D01*
X85324547Y-90452063D01*
X85380904Y-90316007D01*
X85400126Y-90170000D01*
X88081874Y-90170000D01*
X88101095Y-90316005D01*
X88157454Y-90452065D01*
X88247102Y-90568897D01*
X88329206Y-90631897D01*
X88363937Y-90658547D01*
X88499993Y-90714904D01*
X88646000Y-90734126D01*
X88792007Y-90714904D01*
X88928063Y-90658547D01*
X89044897Y-90568897D01*
X89134547Y-90452063D01*
X89190904Y-90316007D01*
X89210126Y-90170000D01*
X89190904Y-90023993D01*
X89134547Y-89887937D01*
X89134545Y-89887934D01*
X89044897Y-89771102D01*
X88928065Y-89681454D01*
X88792005Y-89625095D01*
X88646000Y-89605874D01*
X88499994Y-89625095D01*
X88363934Y-89681454D01*
X88247102Y-89771102D01*
X88157454Y-89887934D01*
X88101095Y-90023994D01*
X88081874Y-90170000D01*
X85400126Y-90170000D01*
X85380904Y-90023993D01*
X85324547Y-89887937D01*
X85324545Y-89887934D01*
X85234897Y-89771102D01*
X85118065Y-89681454D01*
X84982005Y-89625095D01*
X84836000Y-89605874D01*
X84689994Y-89625095D01*
X84553936Y-89681453D01*
X84536204Y-89695060D01*
X84471850Y-89720490D01*
X84403772Y-89708103D01*
X84352501Y-89661634D01*
X84333500Y-89595097D01*
X84333500Y-87122000D01*
X86049874Y-87122000D01*
X86069095Y-87268005D01*
X86125454Y-87404065D01*
X86215102Y-87520897D01*
X86331934Y-87610545D01*
X86331937Y-87610547D01*
X86467993Y-87666904D01*
X86614000Y-87686126D01*
X86760007Y-87666904D01*
X86896063Y-87610547D01*
X87012897Y-87520897D01*
X87102547Y-87404063D01*
X87158904Y-87268007D01*
X87178126Y-87122000D01*
X87158904Y-86975993D01*
X87102547Y-86839937D01*
X87097274Y-86833065D01*
X87012897Y-86723102D01*
X86896065Y-86633454D01*
X86760005Y-86577095D01*
X86614000Y-86557874D01*
X86467994Y-86577095D01*
X86331934Y-86633454D01*
X86215102Y-86723102D01*
X86125454Y-86839934D01*
X86069095Y-86975994D01*
X86049874Y-87122000D01*
X84333500Y-87122000D01*
X84333500Y-81534000D01*
X88081874Y-81534000D01*
X88101095Y-81680005D01*
X88157454Y-81816065D01*
X88247102Y-81932897D01*
X88343760Y-82007065D01*
X88363937Y-82022547D01*
X88499993Y-82078904D01*
X88646000Y-82098126D01*
X88792007Y-82078904D01*
X88928063Y-82022547D01*
X89044897Y-81932897D01*
X89134547Y-81816063D01*
X89190904Y-81680007D01*
X89210126Y-81534000D01*
X89190904Y-81387993D01*
X89134547Y-81251937D01*
X89134545Y-81251934D01*
X89044897Y-81135102D01*
X88928065Y-81045454D01*
X88915436Y-81040223D01*
X88808472Y-80995916D01*
X88792005Y-80989095D01*
X88646000Y-80969874D01*
X88499994Y-80989095D01*
X88363934Y-81045454D01*
X88247102Y-81135102D01*
X88157454Y-81251934D01*
X88101095Y-81387994D01*
X88081874Y-81534000D01*
X84333500Y-81534000D01*
X84333500Y-78347901D01*
X84347737Y-78289720D01*
X84387230Y-78244688D01*
X84443055Y-78222979D01*
X84454355Y-78221491D01*
X84474007Y-78218904D01*
X84610063Y-78162547D01*
X84726897Y-78072897D01*
X84816547Y-77956063D01*
X84872904Y-77820007D01*
X84892126Y-77674000D01*
X84892126Y-77673999D01*
X85541874Y-77673999D01*
X85561095Y-77820005D01*
X85574141Y-77851500D01*
X85614915Y-77949937D01*
X85617454Y-77956065D01*
X85707102Y-78072897D01*
X85772264Y-78122897D01*
X85823937Y-78162547D01*
X85959993Y-78218904D01*
X86106000Y-78238126D01*
X86252007Y-78218904D01*
X86388063Y-78162547D01*
X86504897Y-78072897D01*
X86594547Y-77956063D01*
X86650904Y-77820007D01*
X86663544Y-77723999D01*
X87319874Y-77723999D01*
X87339095Y-77870005D01*
X87395454Y-78006065D01*
X87485102Y-78122897D01*
X87601934Y-78212545D01*
X87601937Y-78212547D01*
X87737993Y-78268904D01*
X87884000Y-78288126D01*
X88030007Y-78268904D01*
X88166063Y-78212547D01*
X88282897Y-78122897D01*
X88372547Y-78006063D01*
X88428904Y-77870007D01*
X88448126Y-77724000D01*
X88428904Y-77577993D01*
X88372547Y-77441937D01*
X88334181Y-77391937D01*
X88282897Y-77325102D01*
X88166065Y-77235454D01*
X88030005Y-77179095D01*
X87884000Y-77159874D01*
X87737994Y-77179095D01*
X87601934Y-77235454D01*
X87485102Y-77325102D01*
X87395454Y-77441934D01*
X87339095Y-77577994D01*
X87319874Y-77723999D01*
X86663544Y-77723999D01*
X86670126Y-77674000D01*
X86650904Y-77527993D01*
X86594547Y-77391937D01*
X86594545Y-77391934D01*
X86504897Y-77275102D01*
X86388065Y-77185454D01*
X86372713Y-77179095D01*
X86252007Y-77129096D01*
X86252005Y-77129095D01*
X86106000Y-77109874D01*
X85959994Y-77129095D01*
X85823934Y-77185454D01*
X85707102Y-77275102D01*
X85617454Y-77391934D01*
X85561095Y-77527994D01*
X85541874Y-77673999D01*
X84892126Y-77673999D01*
X84872904Y-77527993D01*
X84816547Y-77391937D01*
X84816545Y-77391934D01*
X84726897Y-77275102D01*
X84610065Y-77185454D01*
X84594716Y-77179096D01*
X84474007Y-77129096D01*
X84474006Y-77129095D01*
X84474004Y-77129095D01*
X84443055Y-77125021D01*
X84387230Y-77103312D01*
X84347737Y-77058280D01*
X84333500Y-77000099D01*
X84333500Y-70738000D01*
X84350381Y-70675000D01*
X84396500Y-70628881D01*
X84459500Y-70612000D01*
X84999330Y-70612000D01*
X85062330Y-70628881D01*
X85108449Y-70675000D01*
X85125330Y-70738000D01*
X85125330Y-71709903D01*
X85125291Y-71710094D01*
X85125286Y-71884333D01*
X85160057Y-72126241D01*
X85228905Y-72360740D01*
X85330422Y-72583052D01*
X85462543Y-72788646D01*
X85462545Y-72788648D01*
X85462548Y-72788652D01*
X85622588Y-72973358D01*
X85807286Y-73133406D01*
X86012882Y-73265540D01*
X86235190Y-73367069D01*
X86469684Y-73435925D01*
X86566446Y-73449838D01*
X86711588Y-73470709D01*
X86711591Y-73470709D01*
X86955986Y-73470710D01*
X87197894Y-73435930D01*
X87432389Y-73367077D01*
X87654698Y-73265551D01*
X87860296Y-73133420D01*
X88044996Y-72973374D01*
X88205039Y-72788671D01*
X88337166Y-72583071D01*
X88438687Y-72360760D01*
X88507537Y-72126263D01*
X88542313Y-71884355D01*
X88542310Y-71762157D01*
X88542310Y-71745470D01*
X88542310Y-70738000D01*
X88559191Y-70675000D01*
X88605310Y-70628881D01*
X88668310Y-70612000D01*
X89378537Y-70612000D01*
X89444372Y-70630567D01*
X89490804Y-70680797D01*
X89504149Y-70747886D01*
X89480473Y-70812061D01*
X89426756Y-70854409D01*
X89351773Y-70885468D01*
X89234941Y-70975116D01*
X89145293Y-71091948D01*
X89088934Y-71228008D01*
X89069713Y-71374014D01*
X89088934Y-71520019D01*
X89145292Y-71656077D01*
X89219065Y-71752220D01*
X89242115Y-71801653D01*
X89242115Y-71856195D01*
X89219065Y-71905628D01*
X89145292Y-72001770D01*
X89088934Y-72137828D01*
X89069713Y-72283834D01*
X89088934Y-72429839D01*
X89145293Y-72565899D01*
X89234941Y-72682731D01*
X89351773Y-72772379D01*
X89351776Y-72772381D01*
X89487832Y-72828738D01*
X89633839Y-72847960D01*
X89779846Y-72828738D01*
X89915902Y-72772381D01*
X90032736Y-72682731D01*
X90122386Y-72565897D01*
X90178743Y-72429841D01*
X90197965Y-72283834D01*
X90178743Y-72137827D01*
X90122386Y-72001771D01*
X90113348Y-71989993D01*
X90048613Y-71905628D01*
X90025562Y-71856196D01*
X90025562Y-71801652D01*
X90048613Y-71752220D01*
X90072020Y-71721715D01*
X90122386Y-71656077D01*
X90178743Y-71520021D01*
X90197965Y-71374014D01*
X90178743Y-71228007D01*
X90122386Y-71091951D01*
X90073311Y-71027995D01*
X90032736Y-70975116D01*
X89915904Y-70885468D01*
X89914786Y-70885005D01*
X89840921Y-70854408D01*
X89787205Y-70812061D01*
X89763529Y-70747886D01*
X89776874Y-70680797D01*
X89823306Y-70630567D01*
X89889141Y-70612000D01*
X90978537Y-70612000D01*
X91044372Y-70630567D01*
X91090804Y-70680797D01*
X91104149Y-70747886D01*
X91080473Y-70812061D01*
X91026756Y-70854409D01*
X90951773Y-70885468D01*
X90834941Y-70975116D01*
X90745293Y-71091948D01*
X90688934Y-71228008D01*
X90669713Y-71374014D01*
X90688934Y-71520019D01*
X90745292Y-71656077D01*
X90819065Y-71752220D01*
X90842115Y-71801653D01*
X90842115Y-71856195D01*
X90819065Y-71905628D01*
X90745292Y-72001770D01*
X90688934Y-72137828D01*
X90669713Y-72283834D01*
X90688934Y-72429839D01*
X90745293Y-72565899D01*
X90834941Y-72682731D01*
X90951773Y-72772379D01*
X90951776Y-72772381D01*
X91087832Y-72828738D01*
X91233839Y-72847960D01*
X91285672Y-72841136D01*
X91355471Y-72851911D01*
X91408507Y-72898550D01*
X91428118Y-72966399D01*
X91424176Y-74421296D01*
X91424174Y-74421999D01*
X91422111Y-75183297D01*
X91422109Y-75183999D01*
X91417982Y-76707297D01*
X91417980Y-76707999D01*
X91417979Y-76707999D01*
X91417980Y-76708000D01*
X91414706Y-77915943D01*
X91395996Y-77981669D01*
X91345726Y-78027961D01*
X91278683Y-78041202D01*
X91214589Y-78017496D01*
X91172297Y-77963818D01*
X91166546Y-77949935D01*
X91076897Y-77833102D01*
X90960065Y-77743454D01*
X90913097Y-77723999D01*
X90824007Y-77687096D01*
X90824005Y-77687095D01*
X90678000Y-77667874D01*
X90531994Y-77687095D01*
X90395934Y-77743454D01*
X90279102Y-77833102D01*
X90189454Y-77949934D01*
X90133095Y-78085994D01*
X90113874Y-78232000D01*
X90133095Y-78378005D01*
X90189454Y-78514065D01*
X90279102Y-78630897D01*
X90395934Y-78720545D01*
X90395937Y-78720547D01*
X90531993Y-78776904D01*
X90678000Y-78796126D01*
X90824007Y-78776904D01*
X90960063Y-78720547D01*
X91076897Y-78630897D01*
X91166547Y-78514063D01*
X91170571Y-78504346D01*
X91212971Y-78450590D01*
X91277227Y-78426942D01*
X91344363Y-78440389D01*
X91394555Y-78486961D01*
X91412980Y-78552905D01*
X91409034Y-80009297D01*
X91409035Y-80009297D01*
X91409033Y-80009999D01*
X91406282Y-81025297D01*
X91406280Y-81025999D01*
X91402152Y-82549297D01*
X91402150Y-82549999D01*
X91392074Y-86268937D01*
X91390501Y-86849312D01*
X91381974Y-90042806D01*
X91381972Y-90043499D01*
X91379602Y-90931307D01*
X91379600Y-90931999D01*
X91374586Y-92809858D01*
X91364909Y-92857947D01*
X91337603Y-92898696D01*
X91296805Y-92925931D01*
X91157934Y-92983454D01*
X91041101Y-93073103D01*
X91031961Y-93085016D01*
X90987728Y-93121317D01*
X90932000Y-93134311D01*
X90876272Y-93121317D01*
X90832039Y-93085016D01*
X90822898Y-93073103D01*
X90706065Y-92983454D01*
X90679801Y-92972575D01*
X90570007Y-92927096D01*
X90570005Y-92927095D01*
X90424000Y-92907874D01*
X90277994Y-92927095D01*
X90141934Y-92983454D01*
X90025102Y-93073102D01*
X89935454Y-93189934D01*
X89879095Y-93325994D01*
X89859874Y-93472000D01*
X89879095Y-93618005D01*
X89903413Y-93676712D01*
X89932915Y-93747937D01*
X89935454Y-93754065D01*
X90025102Y-93870897D01*
X90117655Y-93941915D01*
X90141937Y-93960547D01*
X90277993Y-94016904D01*
X90424000Y-94036126D01*
X90570007Y-94016904D01*
X90706063Y-93960547D01*
X90822897Y-93870897D01*
X90832038Y-93858984D01*
X90876271Y-93822682D01*
X90932000Y-93809688D01*
X90987729Y-93822682D01*
X91031963Y-93858985D01*
X91041103Y-93870897D01*
X91157935Y-93960546D01*
X91157936Y-93960546D01*
X91157937Y-93960547D01*
X91293272Y-94016605D01*
X91334227Y-94043997D01*
X91361546Y-94085002D01*
X91371051Y-94133347D01*
X91362411Y-97369278D01*
X91355864Y-99821307D01*
X91355862Y-99821999D01*
X91319239Y-113537999D01*
X91315850Y-114807307D01*
X91315848Y-114807999D01*
X91303968Y-119257297D01*
X91303942Y-119267086D01*
X91303942Y-119267087D01*
X91271466Y-131430293D01*
X91271466Y-131430294D01*
X91270411Y-131825307D01*
X91270409Y-131825999D01*
X91260238Y-135635306D01*
X91260236Y-135635999D01*
X91246003Y-140966330D01*
X91246001Y-140967022D01*
X91236833Y-144400774D01*
X91245367Y-144467470D01*
X91261837Y-144530087D01*
X91287224Y-144592355D01*
X91327755Y-144646010D01*
X91373145Y-144692177D01*
X91373149Y-144692181D01*
X91426106Y-144733618D01*
X91426107Y-144733618D01*
X91426108Y-144733619D01*
X91487930Y-144760058D01*
X91550260Y-144777590D01*
X91616807Y-144787257D01*
X91967662Y-144792285D01*
X108962086Y-145035829D01*
X109027341Y-145055145D01*
X109073033Y-145105580D01*
X109085832Y-145172421D01*
X109062003Y-145236168D01*
X109008498Y-145278224D01*
X108937937Y-145307451D01*
X108821102Y-145397102D01*
X108731454Y-145513934D01*
X108675095Y-145649994D01*
X108655874Y-145796000D01*
X108675095Y-145942005D01*
X108731454Y-146078065D01*
X108821102Y-146194897D01*
X108937934Y-146284545D01*
X108937937Y-146284547D01*
X109073993Y-146340904D01*
X109220000Y-146360126D01*
X109366007Y-146340904D01*
X109502063Y-146284547D01*
X109618897Y-146194897D01*
X109708547Y-146078063D01*
X109764904Y-145942007D01*
X109784126Y-145796000D01*
X109764904Y-145649993D01*
X109708547Y-145513937D01*
X109628522Y-145409646D01*
X109618897Y-145397102D01*
X109502065Y-145307454D01*
X109366005Y-145251095D01*
X109286776Y-145240665D01*
X109226303Y-145215540D01*
X109186607Y-145163460D01*
X109178409Y-145098491D01*
X109203923Y-145038182D01*
X109256256Y-144998823D01*
X109283552Y-144987860D01*
X109338129Y-144946702D01*
X109384991Y-144900507D01*
X109426928Y-144846524D01*
X109453314Y-144783464D01*
X109454251Y-144780000D01*
X112719874Y-144780000D01*
X112739095Y-144926005D01*
X112739096Y-144926007D01*
X112792587Y-145055145D01*
X112795454Y-145062065D01*
X112885102Y-145178897D01*
X112979193Y-145251095D01*
X113001937Y-145268547D01*
X113137993Y-145324904D01*
X113284000Y-145344126D01*
X113430007Y-145324904D01*
X113566063Y-145268547D01*
X113682897Y-145178897D01*
X113772547Y-145062063D01*
X113828904Y-144926007D01*
X113848126Y-144780000D01*
X123454708Y-144780000D01*
X123473839Y-144998678D01*
X123530652Y-145210701D01*
X123623420Y-145409645D01*
X123749328Y-145589460D01*
X123904539Y-145744671D01*
X123904542Y-145744673D01*
X123904543Y-145744674D01*
X124084354Y-145870579D01*
X124283297Y-145963347D01*
X124376781Y-145988396D01*
X124495321Y-146020160D01*
X124495322Y-146020160D01*
X124495326Y-146020161D01*
X124714000Y-146039292D01*
X124932674Y-146020161D01*
X125144703Y-145963347D01*
X125343646Y-145870579D01*
X125523457Y-145744674D01*
X125678674Y-145589457D01*
X125804579Y-145409646D01*
X125897347Y-145210703D01*
X125954161Y-144998674D01*
X125973292Y-144780000D01*
X125954161Y-144561326D01*
X125945790Y-144530087D01*
X125911139Y-144400769D01*
X125897347Y-144349297D01*
X125804579Y-144150354D01*
X125678674Y-143970543D01*
X125678673Y-143970542D01*
X125678671Y-143970539D01*
X125523460Y-143815328D01*
X125343645Y-143689420D01*
X125144701Y-143596652D01*
X124932678Y-143539839D01*
X124714000Y-143520708D01*
X124495321Y-143539839D01*
X124283298Y-143596652D01*
X124084354Y-143689420D01*
X123904539Y-143815328D01*
X123749328Y-143970539D01*
X123623420Y-144150354D01*
X123530652Y-144349298D01*
X123473839Y-144561321D01*
X123454708Y-144780000D01*
X113848126Y-144780000D01*
X113828904Y-144633993D01*
X113772547Y-144497937D01*
X113749169Y-144467470D01*
X113682897Y-144381102D01*
X113566065Y-144291454D01*
X113430005Y-144235095D01*
X113284000Y-144215874D01*
X113137994Y-144235095D01*
X113001934Y-144291454D01*
X112885102Y-144381102D01*
X112795454Y-144497934D01*
X112739095Y-144633994D01*
X112719874Y-144780000D01*
X109454251Y-144780000D01*
X109470497Y-144719943D01*
X109479500Y-144652181D01*
X109479500Y-140462000D01*
X113735874Y-140462000D01*
X113755095Y-140608005D01*
X113811454Y-140744065D01*
X113901102Y-140860897D01*
X113942553Y-140892703D01*
X114017937Y-140950547D01*
X114153993Y-141006904D01*
X114300000Y-141026126D01*
X114446007Y-141006904D01*
X114582063Y-140950547D01*
X114698897Y-140860897D01*
X114788547Y-140744063D01*
X114844904Y-140608007D01*
X114864126Y-140462000D01*
X123454708Y-140462000D01*
X123473839Y-140680678D01*
X123530652Y-140892701D01*
X123623420Y-141091645D01*
X123749328Y-141271460D01*
X123904539Y-141426671D01*
X123904542Y-141426673D01*
X123904543Y-141426674D01*
X124084354Y-141552579D01*
X124283297Y-141645347D01*
X124376781Y-141670396D01*
X124495321Y-141702160D01*
X124495322Y-141702160D01*
X124495326Y-141702161D01*
X124714000Y-141721292D01*
X124932674Y-141702161D01*
X125144703Y-141645347D01*
X125343646Y-141552579D01*
X125523457Y-141426674D01*
X125678674Y-141271457D01*
X125804579Y-141091646D01*
X125897347Y-140892703D01*
X125954161Y-140680674D01*
X125973292Y-140462000D01*
X125954161Y-140243326D01*
X125897347Y-140031297D01*
X125804579Y-139832354D01*
X125678674Y-139652543D01*
X125678673Y-139652542D01*
X125678671Y-139652539D01*
X125523460Y-139497328D01*
X125343645Y-139371420D01*
X125144701Y-139278652D01*
X124932678Y-139221839D01*
X124757734Y-139206534D01*
X124714000Y-139202708D01*
X124713999Y-139202708D01*
X124495321Y-139221839D01*
X124283298Y-139278652D01*
X124084354Y-139371420D01*
X123904539Y-139497328D01*
X123749328Y-139652539D01*
X123623420Y-139832354D01*
X123530652Y-140031298D01*
X123473839Y-140243321D01*
X123454708Y-140462000D01*
X114864126Y-140462000D01*
X114844904Y-140315993D01*
X114788547Y-140179937D01*
X114788545Y-140179934D01*
X114698897Y-140063102D01*
X114582065Y-139973454D01*
X114446005Y-139917095D01*
X114300000Y-139897874D01*
X114153994Y-139917095D01*
X114017934Y-139973454D01*
X113901102Y-140063102D01*
X113811454Y-140179934D01*
X113755095Y-140315994D01*
X113735874Y-140462000D01*
X109479500Y-140462000D01*
X109479500Y-129285999D01*
X123454708Y-129285999D01*
X123473839Y-129504678D01*
X123530652Y-129716701D01*
X123623420Y-129915645D01*
X123749328Y-130095460D01*
X123904539Y-130250671D01*
X123904542Y-130250673D01*
X123904543Y-130250674D01*
X124084354Y-130376579D01*
X124283297Y-130469347D01*
X124376781Y-130494396D01*
X124495321Y-130526160D01*
X124495322Y-130526160D01*
X124495326Y-130526161D01*
X124714000Y-130545292D01*
X124932674Y-130526161D01*
X125144703Y-130469347D01*
X125343646Y-130376579D01*
X125523457Y-130250674D01*
X125678674Y-130095457D01*
X125804579Y-129915646D01*
X125897347Y-129716703D01*
X125954161Y-129504674D01*
X125973292Y-129286000D01*
X125954161Y-129067326D01*
X125897347Y-128855297D01*
X125804579Y-128656354D01*
X125678674Y-128476543D01*
X125678673Y-128476542D01*
X125678671Y-128476539D01*
X125523460Y-128321328D01*
X125343645Y-128195420D01*
X125144701Y-128102652D01*
X124932678Y-128045839D01*
X124714000Y-128026708D01*
X124495321Y-128045839D01*
X124283298Y-128102652D01*
X124084354Y-128195420D01*
X123904539Y-128321328D01*
X123749328Y-128476539D01*
X123623420Y-128656354D01*
X123530652Y-128855298D01*
X123473839Y-129067321D01*
X123454708Y-129285999D01*
X109479500Y-129285999D01*
X109479500Y-124714000D01*
X123692581Y-124714000D01*
X123712207Y-124913269D01*
X123770332Y-125104878D01*
X123770333Y-125104880D01*
X123864722Y-125281469D01*
X123914355Y-125341948D01*
X123991747Y-125436252D01*
X124069139Y-125499764D01*
X124146531Y-125563278D01*
X124323120Y-125657667D01*
X124418925Y-125686729D01*
X124514730Y-125715792D01*
X124714000Y-125735418D01*
X124913269Y-125715792D01*
X125104880Y-125657667D01*
X125281469Y-125563278D01*
X125436252Y-125436252D01*
X125563278Y-125281469D01*
X125657667Y-125104880D01*
X125715792Y-124913269D01*
X125735418Y-124714000D01*
X125715792Y-124514731D01*
X125657667Y-124323120D01*
X125563278Y-124146531D01*
X125499764Y-124069139D01*
X125436252Y-123991747D01*
X125341948Y-123914355D01*
X125281469Y-123864722D01*
X125104880Y-123770333D01*
X125104879Y-123770332D01*
X125104878Y-123770332D01*
X124913269Y-123712207D01*
X124714000Y-123692581D01*
X124514730Y-123712207D01*
X124323121Y-123770332D01*
X124146532Y-123864721D01*
X123991747Y-123991747D01*
X123864721Y-124146532D01*
X123770332Y-124323121D01*
X123712207Y-124514730D01*
X123692581Y-124714000D01*
X109479500Y-124714000D01*
X109479500Y-122746217D01*
X109478569Y-122738126D01*
X109472721Y-122687290D01*
X109459727Y-122631563D01*
X109459727Y-122631562D01*
X109439744Y-122575715D01*
X109407602Y-122525864D01*
X109371300Y-122481630D01*
X109328678Y-122440380D01*
X109273336Y-122397915D01*
X109250078Y-122374657D01*
X109222225Y-122338358D01*
X109205780Y-122309874D01*
X109188263Y-122267586D01*
X109179749Y-122235810D01*
X109173777Y-122190443D01*
X109173777Y-122174000D01*
X110433874Y-122174000D01*
X110453095Y-122320005D01*
X110509454Y-122456065D01*
X110599102Y-122572897D01*
X110715934Y-122662545D01*
X110715937Y-122662547D01*
X110851993Y-122718904D01*
X110998000Y-122738126D01*
X111144007Y-122718904D01*
X111280063Y-122662547D01*
X111396897Y-122572897D01*
X111486547Y-122456063D01*
X111542904Y-122320007D01*
X111562126Y-122174000D01*
X111542904Y-122027993D01*
X111498171Y-121919999D01*
X112973874Y-121919999D01*
X112993095Y-122066005D01*
X113049454Y-122202065D01*
X113139102Y-122318897D01*
X113228922Y-122387818D01*
X113255937Y-122408547D01*
X113391993Y-122464904D01*
X113538000Y-122484126D01*
X113684007Y-122464904D01*
X113820063Y-122408547D01*
X113936897Y-122318897D01*
X114026547Y-122202063D01*
X114082904Y-122066007D01*
X114102126Y-121920000D01*
X114082904Y-121773993D01*
X114026547Y-121637937D01*
X114019763Y-121629096D01*
X113936897Y-121521102D01*
X113820065Y-121431454D01*
X113684005Y-121375095D01*
X113538000Y-121355874D01*
X113391994Y-121375095D01*
X113255934Y-121431454D01*
X113139102Y-121521102D01*
X113049454Y-121637934D01*
X112993095Y-121773994D01*
X112973874Y-121919999D01*
X111498171Y-121919999D01*
X111486547Y-121891937D01*
X111466929Y-121866370D01*
X111396897Y-121775102D01*
X111280065Y-121685454D01*
X111220326Y-121660709D01*
X111144007Y-121629096D01*
X111144005Y-121629095D01*
X110998000Y-121609874D01*
X110851994Y-121629095D01*
X110715934Y-121685454D01*
X110599102Y-121775102D01*
X110509454Y-121891934D01*
X110453095Y-122027994D01*
X110433874Y-122174000D01*
X109173777Y-122174000D01*
X109173777Y-122157555D01*
X109179749Y-122112187D01*
X109188263Y-122080411D01*
X109194231Y-122066005D01*
X109205780Y-122038123D01*
X109222223Y-122009643D01*
X109250082Y-121973336D01*
X109273332Y-121950086D01*
X109328676Y-121907621D01*
X109371300Y-121866370D01*
X109407602Y-121822136D01*
X109439744Y-121772285D01*
X109459727Y-121716438D01*
X109472721Y-121660710D01*
X109476358Y-121629095D01*
X109479500Y-121601787D01*
X109479500Y-118110000D01*
X116021874Y-118110000D01*
X116041095Y-118256005D01*
X116097454Y-118392065D01*
X116187102Y-118508897D01*
X116303934Y-118598545D01*
X116303937Y-118598547D01*
X116439993Y-118654904D01*
X116586000Y-118674126D01*
X116732007Y-118654904D01*
X116868063Y-118598547D01*
X116984897Y-118508897D01*
X117074547Y-118392063D01*
X117130904Y-118256007D01*
X117150126Y-118110000D01*
X117130904Y-117963993D01*
X117074547Y-117827937D01*
X117074545Y-117827934D01*
X116984897Y-117711102D01*
X116868065Y-117621454D01*
X116732005Y-117565095D01*
X116586000Y-117545874D01*
X116439994Y-117565095D01*
X116303934Y-117621454D01*
X116187102Y-117711102D01*
X116097454Y-117827934D01*
X116041095Y-117963994D01*
X116021874Y-118110000D01*
X109479500Y-118110000D01*
X109479500Y-116077999D01*
X123454708Y-116077999D01*
X123473839Y-116296678D01*
X123530652Y-116508701D01*
X123623420Y-116707645D01*
X123749328Y-116887460D01*
X123904539Y-117042671D01*
X123904542Y-117042673D01*
X123904543Y-117042674D01*
X124084354Y-117168579D01*
X124283297Y-117261347D01*
X124376781Y-117286396D01*
X124495321Y-117318160D01*
X124495322Y-117318160D01*
X124495326Y-117318161D01*
X124714000Y-117337292D01*
X124932674Y-117318161D01*
X125144703Y-117261347D01*
X125343646Y-117168579D01*
X125523457Y-117042674D01*
X125678674Y-116887457D01*
X125804579Y-116707646D01*
X125897347Y-116508703D01*
X125954161Y-116296674D01*
X125973292Y-116078000D01*
X125954161Y-115859326D01*
X125897347Y-115647297D01*
X125804579Y-115448354D01*
X125678674Y-115268543D01*
X125678673Y-115268542D01*
X125678671Y-115268539D01*
X125523460Y-115113328D01*
X125343645Y-114987420D01*
X125144701Y-114894652D01*
X124932678Y-114837839D01*
X124714000Y-114818708D01*
X124495321Y-114837839D01*
X124283298Y-114894652D01*
X124084354Y-114987420D01*
X123904539Y-115113328D01*
X123749328Y-115268539D01*
X123623420Y-115448354D01*
X123530652Y-115647298D01*
X123473839Y-115859321D01*
X123454708Y-116077999D01*
X109479500Y-116077999D01*
X109479500Y-113537999D01*
X120339874Y-113537999D01*
X120359095Y-113684005D01*
X120415454Y-113820065D01*
X120505102Y-113936897D01*
X120621934Y-114026545D01*
X120621937Y-114026547D01*
X120757993Y-114082904D01*
X120904000Y-114102126D01*
X121050007Y-114082904D01*
X121186063Y-114026547D01*
X121302897Y-113936897D01*
X121392547Y-113820063D01*
X121448904Y-113684007D01*
X121468126Y-113538000D01*
X121448904Y-113391993D01*
X121392547Y-113255937D01*
X121392545Y-113255934D01*
X121302897Y-113139102D01*
X121186065Y-113049454D01*
X121050005Y-112993095D01*
X120904000Y-112973874D01*
X120757994Y-112993095D01*
X120621934Y-113049454D01*
X120505102Y-113139102D01*
X120415454Y-113255934D01*
X120359095Y-113391994D01*
X120339874Y-113537999D01*
X109479500Y-113537999D01*
X109479500Y-111760000D01*
X123454708Y-111760000D01*
X123473839Y-111978678D01*
X123530652Y-112190701D01*
X123623420Y-112389645D01*
X123749328Y-112569460D01*
X123904539Y-112724671D01*
X123904542Y-112724673D01*
X123904543Y-112724674D01*
X124084354Y-112850579D01*
X124283297Y-112943347D01*
X124376781Y-112968396D01*
X124495321Y-113000160D01*
X124495322Y-113000160D01*
X124495326Y-113000161D01*
X124714000Y-113019292D01*
X124932674Y-113000161D01*
X125144703Y-112943347D01*
X125343646Y-112850579D01*
X125523457Y-112724674D01*
X125678674Y-112569457D01*
X125804579Y-112389646D01*
X125897347Y-112190703D01*
X125954161Y-111978674D01*
X125973292Y-111760000D01*
X125954161Y-111541326D01*
X125897347Y-111329297D01*
X125804579Y-111130354D01*
X125678674Y-110950543D01*
X125678673Y-110950542D01*
X125678671Y-110950539D01*
X125523460Y-110795328D01*
X125343645Y-110669420D01*
X125144701Y-110576652D01*
X124932678Y-110519839D01*
X124714000Y-110500708D01*
X124495321Y-110519839D01*
X124283298Y-110576652D01*
X124084354Y-110669420D01*
X123904539Y-110795328D01*
X123749328Y-110950539D01*
X123623420Y-111130354D01*
X123530652Y-111329298D01*
X123473839Y-111541321D01*
X123454708Y-111760000D01*
X109479500Y-111760000D01*
X109479500Y-107442000D01*
X123454708Y-107442000D01*
X123473839Y-107660678D01*
X123530652Y-107872701D01*
X123623420Y-108071645D01*
X123749328Y-108251460D01*
X123904539Y-108406671D01*
X123904542Y-108406673D01*
X123904543Y-108406674D01*
X124084354Y-108532579D01*
X124283297Y-108625347D01*
X124376781Y-108650396D01*
X124495321Y-108682160D01*
X124495322Y-108682160D01*
X124495326Y-108682161D01*
X124714000Y-108701292D01*
X124932674Y-108682161D01*
X125144703Y-108625347D01*
X125343646Y-108532579D01*
X125523457Y-108406674D01*
X125678674Y-108251457D01*
X125804579Y-108071646D01*
X125897347Y-107872703D01*
X125954161Y-107660674D01*
X125973292Y-107442000D01*
X125954161Y-107223326D01*
X125938287Y-107164086D01*
X125908553Y-107053117D01*
X125897347Y-107011297D01*
X125804579Y-106812354D01*
X125678674Y-106632543D01*
X125678673Y-106632542D01*
X125678671Y-106632539D01*
X125523460Y-106477328D01*
X125343645Y-106351420D01*
X125144701Y-106258652D01*
X124932678Y-106201839D01*
X124714000Y-106182708D01*
X124495321Y-106201839D01*
X124283298Y-106258652D01*
X124084354Y-106351420D01*
X123904539Y-106477328D01*
X123749328Y-106632539D01*
X123623420Y-106812354D01*
X123530652Y-107011298D01*
X123473839Y-107223321D01*
X123454708Y-107442000D01*
X109479500Y-107442000D01*
X109479500Y-105664000D01*
X111449874Y-105664000D01*
X111469095Y-105810005D01*
X111525454Y-105946065D01*
X111615102Y-106062897D01*
X111709194Y-106135096D01*
X111731937Y-106152547D01*
X111867993Y-106208904D01*
X112014000Y-106228126D01*
X112160007Y-106208904D01*
X112296063Y-106152547D01*
X112412897Y-106062897D01*
X112502547Y-105946063D01*
X112558904Y-105810007D01*
X112578126Y-105664000D01*
X112558904Y-105517993D01*
X112502547Y-105381937D01*
X112495763Y-105373096D01*
X112412897Y-105265102D01*
X112296065Y-105175454D01*
X112160005Y-105119095D01*
X112014000Y-105099874D01*
X111867994Y-105119095D01*
X111731934Y-105175454D01*
X111615102Y-105265102D01*
X111525454Y-105381934D01*
X111469095Y-105517994D01*
X111449874Y-105664000D01*
X109479500Y-105664000D01*
X109479500Y-95757999D01*
X113735874Y-95757999D01*
X113755095Y-95904005D01*
X113811454Y-96040065D01*
X113901102Y-96156897D01*
X114017934Y-96246545D01*
X114017937Y-96246547D01*
X114153993Y-96302904D01*
X114300000Y-96322126D01*
X114446007Y-96302904D01*
X114582063Y-96246547D01*
X114698897Y-96156897D01*
X114788547Y-96040063D01*
X114844904Y-95904007D01*
X114864126Y-95758000D01*
X114864126Y-95757999D01*
X115386374Y-95757999D01*
X115405595Y-95904005D01*
X115461954Y-96040065D01*
X115551602Y-96156897D01*
X115668434Y-96246545D01*
X115668437Y-96246547D01*
X115804493Y-96302904D01*
X115950500Y-96322126D01*
X116096507Y-96302904D01*
X116232563Y-96246547D01*
X116349397Y-96156897D01*
X116439047Y-96040063D01*
X116495404Y-95904007D01*
X116514626Y-95758000D01*
X116495404Y-95611993D01*
X116439047Y-95475937D01*
X116439045Y-95475934D01*
X116349397Y-95359102D01*
X116232565Y-95269454D01*
X116096505Y-95213095D01*
X115950500Y-95193874D01*
X115804494Y-95213095D01*
X115668434Y-95269454D01*
X115551602Y-95359102D01*
X115461954Y-95475934D01*
X115405595Y-95611994D01*
X115386374Y-95757999D01*
X114864126Y-95757999D01*
X114844904Y-95611993D01*
X114788547Y-95475937D01*
X114788545Y-95475934D01*
X114698897Y-95359102D01*
X114582065Y-95269454D01*
X114446005Y-95213095D01*
X114300000Y-95193874D01*
X114153994Y-95213095D01*
X114017934Y-95269454D01*
X113901102Y-95359102D01*
X113811454Y-95475934D01*
X113755095Y-95611994D01*
X113735874Y-95757999D01*
X109479500Y-95757999D01*
X109479500Y-86551000D01*
X115767873Y-86551000D01*
X115787094Y-86697005D01*
X115843453Y-86833065D01*
X115933101Y-86949897D01*
X116016650Y-87014006D01*
X116049936Y-87039547D01*
X116185992Y-87095904D01*
X116331999Y-87115126D01*
X116478006Y-87095904D01*
X116614062Y-87039547D01*
X116730896Y-86949897D01*
X116793739Y-86867999D01*
X117657874Y-86867999D01*
X117677095Y-87014004D01*
X117702170Y-87074539D01*
X117718981Y-87115125D01*
X117733454Y-87150064D01*
X117823102Y-87266896D01*
X117939934Y-87356544D01*
X117939937Y-87356546D01*
X118075993Y-87412903D01*
X118222000Y-87432125D01*
X118368007Y-87412903D01*
X118504063Y-87356546D01*
X118620897Y-87266896D01*
X118710547Y-87150062D01*
X118766904Y-87014006D01*
X118786126Y-86867999D01*
X118766904Y-86721992D01*
X118710547Y-86585936D01*
X118703763Y-86577095D01*
X118620897Y-86469101D01*
X118504065Y-86379453D01*
X118368005Y-86323094D01*
X118222000Y-86303873D01*
X118075994Y-86323094D01*
X117939934Y-86379453D01*
X117823102Y-86469101D01*
X117733454Y-86585933D01*
X117677095Y-86721993D01*
X117657874Y-86867999D01*
X116793739Y-86867999D01*
X116820546Y-86833063D01*
X116876903Y-86697007D01*
X116896125Y-86551000D01*
X116876903Y-86404993D01*
X116820546Y-86268937D01*
X116820544Y-86268934D01*
X116730896Y-86152102D01*
X116614064Y-86062454D01*
X116478004Y-86006095D01*
X116331999Y-85986874D01*
X116185993Y-86006095D01*
X116049933Y-86062454D01*
X115933101Y-86152102D01*
X115843453Y-86268934D01*
X115787094Y-86404994D01*
X115767873Y-86551000D01*
X109479500Y-86551000D01*
X109479500Y-83185999D01*
X118957874Y-83185999D01*
X118977095Y-83332004D01*
X119033454Y-83468064D01*
X119123102Y-83584896D01*
X119239934Y-83674544D01*
X119239937Y-83674546D01*
X119375993Y-83730903D01*
X119522000Y-83750125D01*
X119668007Y-83730903D01*
X119804063Y-83674546D01*
X119920897Y-83584896D01*
X120010547Y-83468062D01*
X120066904Y-83332006D01*
X120086126Y-83185999D01*
X120066904Y-83039992D01*
X120010547Y-82903936D01*
X120010545Y-82903933D01*
X119920897Y-82787101D01*
X119804065Y-82697453D01*
X119800574Y-82696007D01*
X119668007Y-82641095D01*
X119668005Y-82641094D01*
X119522000Y-82621873D01*
X119375994Y-82641094D01*
X119239934Y-82697453D01*
X119123102Y-82787101D01*
X119033454Y-82903933D01*
X118977095Y-83039993D01*
X118957874Y-83185999D01*
X109479500Y-83185999D01*
X109479500Y-81724999D01*
X115767874Y-81724999D01*
X115787095Y-81871005D01*
X115843454Y-82007065D01*
X115933102Y-82123897D01*
X116049934Y-82213545D01*
X116049937Y-82213547D01*
X116185993Y-82269904D01*
X116332000Y-82289126D01*
X116478007Y-82269904D01*
X116614063Y-82213547D01*
X116730897Y-82123897D01*
X116793740Y-82041999D01*
X117657874Y-82041999D01*
X117677095Y-82188005D01*
X117677096Y-82188007D01*
X117718981Y-82289126D01*
X117733454Y-82324065D01*
X117823102Y-82440897D01*
X117868095Y-82475421D01*
X117939937Y-82530547D01*
X118075993Y-82586904D01*
X118222000Y-82606126D01*
X118368007Y-82586904D01*
X118504063Y-82530547D01*
X118620897Y-82440897D01*
X118710547Y-82324063D01*
X118766904Y-82188007D01*
X118786126Y-82042000D01*
X118766904Y-81895993D01*
X118710547Y-81759937D01*
X118683739Y-81725000D01*
X118620897Y-81643102D01*
X118504065Y-81553454D01*
X118368005Y-81497095D01*
X118222000Y-81477874D01*
X118075994Y-81497095D01*
X117939934Y-81553454D01*
X117823102Y-81643102D01*
X117733454Y-81759934D01*
X117677095Y-81895994D01*
X117657874Y-82041999D01*
X116793740Y-82041999D01*
X116820547Y-82007063D01*
X116876904Y-81871007D01*
X116896126Y-81725000D01*
X116876904Y-81578993D01*
X116820547Y-81442937D01*
X116778387Y-81387993D01*
X116730897Y-81326102D01*
X116614065Y-81236454D01*
X116478005Y-81180095D01*
X116332000Y-81160874D01*
X116185994Y-81180095D01*
X116049934Y-81236454D01*
X115933102Y-81326102D01*
X115843454Y-81442934D01*
X115787095Y-81578994D01*
X115767874Y-81724999D01*
X109479500Y-81724999D01*
X109479500Y-78232000D01*
X118957874Y-78232000D01*
X118977095Y-78378005D01*
X119033454Y-78514065D01*
X119123102Y-78630897D01*
X119239934Y-78720545D01*
X119239937Y-78720547D01*
X119375993Y-78776904D01*
X119522000Y-78796126D01*
X119668007Y-78776904D01*
X119804063Y-78720547D01*
X119920897Y-78630897D01*
X120010547Y-78514063D01*
X120066904Y-78378007D01*
X120086126Y-78232000D01*
X120066904Y-78085993D01*
X120010547Y-77949937D01*
X120010545Y-77949934D01*
X119920897Y-77833102D01*
X119804065Y-77743454D01*
X119757097Y-77723999D01*
X119668007Y-77687096D01*
X119668005Y-77687095D01*
X119522000Y-77667874D01*
X119375994Y-77687095D01*
X119239934Y-77743454D01*
X119123102Y-77833102D01*
X119033454Y-77949934D01*
X118977095Y-78085994D01*
X118957874Y-78232000D01*
X109479500Y-78232000D01*
X109479500Y-74536000D01*
X114103874Y-74536000D01*
X114123095Y-74682005D01*
X114151274Y-74750035D01*
X114164119Y-74781045D01*
X114179454Y-74818065D01*
X114269102Y-74934897D01*
X114385934Y-75024545D01*
X114385937Y-75024547D01*
X114521993Y-75080904D01*
X114668000Y-75100126D01*
X114814007Y-75080904D01*
X114950063Y-75024547D01*
X115066897Y-74934897D01*
X115156547Y-74818063D01*
X115212904Y-74682007D01*
X115230415Y-74549000D01*
X119374648Y-74549000D01*
X119394037Y-74906588D01*
X119451973Y-75259985D01*
X119547775Y-75605036D01*
X119627924Y-75806193D01*
X119680330Y-75937721D01*
X119848072Y-76254116D01*
X120049043Y-76550527D01*
X120280879Y-76823464D01*
X120540860Y-77069732D01*
X120540863Y-77069734D01*
X120540866Y-77069737D01*
X120825957Y-77286458D01*
X121132809Y-77471084D01*
X121132811Y-77471085D01*
X121132813Y-77471086D01*
X121349484Y-77571329D01*
X121457823Y-77621452D01*
X121595599Y-77667874D01*
X121797189Y-77735798D01*
X121831971Y-77743454D01*
X122146930Y-77812782D01*
X122213346Y-77820005D01*
X122502941Y-77851500D01*
X122502944Y-77851500D01*
X122861056Y-77851500D01*
X122861059Y-77851500D01*
X123074664Y-77828269D01*
X123217070Y-77812782D01*
X123566810Y-77735798D01*
X123906177Y-77621452D01*
X124231191Y-77471084D01*
X124538043Y-77286458D01*
X124823134Y-77069737D01*
X125083122Y-76823463D01*
X125314959Y-76550524D01*
X125515927Y-76254118D01*
X125683670Y-75937721D01*
X125816222Y-75605042D01*
X125912027Y-75259983D01*
X125969963Y-74906588D01*
X125989351Y-74549000D01*
X125969963Y-74191412D01*
X125912027Y-73838017D01*
X125886922Y-73747596D01*
X125816224Y-73492963D01*
X125815196Y-73490385D01*
X125683670Y-73160279D01*
X125515927Y-72843882D01*
X125314959Y-72547476D01*
X125304274Y-72534897D01*
X125136288Y-72337129D01*
X125083122Y-72274537D01*
X125078593Y-72270247D01*
X124823139Y-72028267D01*
X124788280Y-72001768D01*
X124538043Y-71811542D01*
X124231191Y-71626916D01*
X124231190Y-71626915D01*
X124231186Y-71626913D01*
X123906178Y-71476548D01*
X123566810Y-71362201D01*
X123217068Y-71285217D01*
X122861059Y-71246500D01*
X122861056Y-71246500D01*
X122502944Y-71246500D01*
X122502941Y-71246500D01*
X122146931Y-71285217D01*
X121797189Y-71362201D01*
X121457821Y-71476548D01*
X121132813Y-71626913D01*
X120825958Y-71811541D01*
X120540860Y-72028267D01*
X120280879Y-72274535D01*
X120049043Y-72547472D01*
X119848072Y-72843883D01*
X119680330Y-73160279D01*
X119547775Y-73492963D01*
X119451973Y-73838014D01*
X119394037Y-74191411D01*
X119374648Y-74549000D01*
X115230415Y-74549000D01*
X115232126Y-74536000D01*
X115212904Y-74389993D01*
X115156547Y-74253937D01*
X115108570Y-74191412D01*
X115066897Y-74137102D01*
X114950065Y-74047454D01*
X114814005Y-73991095D01*
X114668000Y-73971874D01*
X114521994Y-73991095D01*
X114385934Y-74047454D01*
X114269102Y-74137102D01*
X114179454Y-74253934D01*
X114123095Y-74389994D01*
X114103874Y-74536000D01*
X109479500Y-74536000D01*
X109479500Y-70990188D01*
X109470819Y-70923630D01*
X109470819Y-70923628D01*
X109454241Y-70861156D01*
X109428779Y-70799051D01*
X109428778Y-70799050D01*
X109423345Y-70785797D01*
X109414568Y-70725310D01*
X109435289Y-70667809D01*
X109480631Y-70626824D01*
X109539927Y-70612000D01*
X110699332Y-70612000D01*
X110762332Y-70628881D01*
X110808451Y-70675000D01*
X110825332Y-70738000D01*
X110825332Y-71807438D01*
X110825337Y-71807518D01*
X110825336Y-71884332D01*
X110825336Y-71884353D01*
X110855805Y-72096295D01*
X110860112Y-72126256D01*
X110928960Y-72360749D01*
X111030477Y-72583047D01*
X111030479Y-72583050D01*
X111030480Y-72583052D01*
X111162605Y-72788647D01*
X111322645Y-72973345D01*
X111449574Y-73083330D01*
X111507343Y-73133388D01*
X111542916Y-73156249D01*
X111712935Y-73265513D01*
X111935240Y-73367035D01*
X112169730Y-73435885D01*
X112411632Y-73470663D01*
X112533827Y-73470661D01*
X112738652Y-73470661D01*
X112758736Y-73470664D01*
X112810725Y-73470671D01*
X112810983Y-73470620D01*
X112853535Y-73470626D01*
X112853535Y-73470625D01*
X112853537Y-73470626D01*
X112928223Y-73457466D01*
X113040257Y-73437726D01*
X113218428Y-73372898D01*
X113382633Y-73278112D01*
X113527881Y-73156249D01*
X113649757Y-73011012D01*
X113744557Y-72846816D01*
X113809401Y-72668651D01*
X113842317Y-72481931D01*
X113842313Y-72387132D01*
X113842313Y-72385224D01*
X113842313Y-66250795D01*
X113842313Y-66242023D01*
X113842277Y-66241520D01*
X113842277Y-64839981D01*
X113859158Y-64776981D01*
X113905277Y-64730862D01*
X113968277Y-64713981D01*
X124098150Y-64713981D01*
X124098154Y-64713982D01*
G37*
G04 #@! TD.AperFunction*
G04 #@! TA.AperFunction,Conductor*
G36*
X78013206Y-93936247D02*
G01*
X78039811Y-93939749D01*
X78071586Y-93948263D01*
X78113874Y-93965780D01*
X78142357Y-93982225D01*
X78178656Y-94010078D01*
X78201915Y-94033337D01*
X78229778Y-94069650D01*
X78246221Y-94098130D01*
X78260810Y-94133349D01*
X78263734Y-94140406D01*
X78272248Y-94172182D01*
X78278221Y-94217554D01*
X78278221Y-94250444D01*
X78272248Y-94295816D01*
X78263734Y-94327590D01*
X78246223Y-94369864D01*
X78229777Y-94398349D01*
X78201916Y-94434658D01*
X78178658Y-94457916D01*
X78142349Y-94485777D01*
X78113864Y-94502223D01*
X78071590Y-94519734D01*
X78039816Y-94528248D01*
X77994444Y-94534221D01*
X77961554Y-94534221D01*
X77916182Y-94528248D01*
X77884408Y-94519734D01*
X77842130Y-94502221D01*
X77813650Y-94485778D01*
X77813447Y-94485622D01*
X77777335Y-94457913D01*
X77754078Y-94434656D01*
X77726225Y-94398357D01*
X77709780Y-94369874D01*
X77692263Y-94327586D01*
X77683749Y-94295810D01*
X77677777Y-94250442D01*
X77677777Y-94217554D01*
X77678515Y-94211943D01*
X77683750Y-94172182D01*
X77692263Y-94140412D01*
X77709779Y-94098126D01*
X77726222Y-94069643D01*
X77754083Y-94033335D01*
X77777335Y-94010083D01*
X77813643Y-93982222D01*
X77842126Y-93965779D01*
X77884412Y-93948263D01*
X77916184Y-93939749D01*
X77947008Y-93935691D01*
X77961555Y-93933777D01*
X77994443Y-93933777D01*
X78013206Y-93936247D01*
G37*
G04 #@! TD.AperFunction*
G04 #@! TA.AperFunction,Conductor*
G36*
X78521206Y-80474247D02*
G01*
X78547811Y-80477749D01*
X78579585Y-80486263D01*
X78621871Y-80503779D01*
X78650355Y-80520223D01*
X78686662Y-80548083D01*
X78709919Y-80571341D01*
X78737771Y-80607639D01*
X78754216Y-80636123D01*
X78771734Y-80678414D01*
X78780248Y-80710183D01*
X78786222Y-80755554D01*
X78786222Y-80788447D01*
X78780248Y-80833819D01*
X78771734Y-80865590D01*
X78754223Y-80907864D01*
X78737777Y-80936349D01*
X78709916Y-80972658D01*
X78686658Y-80995916D01*
X78650349Y-81023777D01*
X78621864Y-81040223D01*
X78579590Y-81057734D01*
X78547816Y-81066248D01*
X78502444Y-81072221D01*
X78469554Y-81072221D01*
X78424182Y-81066248D01*
X78392408Y-81057734D01*
X78350130Y-81040221D01*
X78321650Y-81023778D01*
X78321447Y-81023622D01*
X78285335Y-80995913D01*
X78262078Y-80972656D01*
X78234225Y-80936357D01*
X78217780Y-80907874D01*
X78200263Y-80865586D01*
X78191749Y-80833810D01*
X78185777Y-80788442D01*
X78185777Y-80755554D01*
X78191749Y-80710187D01*
X78200263Y-80678412D01*
X78217779Y-80636126D01*
X78234222Y-80607643D01*
X78262083Y-80571335D01*
X78285335Y-80548083D01*
X78321643Y-80520222D01*
X78350126Y-80503779D01*
X78392412Y-80486263D01*
X78424184Y-80477749D01*
X78455008Y-80473691D01*
X78469555Y-80471777D01*
X78502443Y-80471777D01*
X78521206Y-80474247D01*
G37*
G04 #@! TD.AperFunction*
G04 #@! TA.AperFunction,Conductor*
G36*
X84010945Y-70612944D02*
G01*
X84057103Y-70659068D01*
X84074000Y-70722095D01*
X84074000Y-77101783D01*
X84061006Y-77157511D01*
X84024704Y-77201745D01*
X83929102Y-77275102D01*
X83839454Y-77391934D01*
X83783095Y-77527994D01*
X83763874Y-77673999D01*
X83783095Y-77820005D01*
X83803806Y-77870005D01*
X83836915Y-77949937D01*
X83839454Y-77956065D01*
X83929102Y-78072897D01*
X84024704Y-78146255D01*
X84061006Y-78190489D01*
X84074000Y-78246217D01*
X84074000Y-92901318D01*
X84054999Y-92967855D01*
X84003728Y-93014324D01*
X83935649Y-93026711D01*
X83871296Y-93001280D01*
X83848063Y-92983453D01*
X83712007Y-92927096D01*
X83712005Y-92927095D01*
X83566000Y-92907874D01*
X83419994Y-92927095D01*
X83283934Y-92983454D01*
X83167101Y-93073103D01*
X83157961Y-93085016D01*
X83113728Y-93121317D01*
X83058000Y-93134311D01*
X83002272Y-93121317D01*
X82958039Y-93085016D01*
X82948898Y-93073103D01*
X82832065Y-92983454D01*
X82794406Y-92967855D01*
X82696007Y-92927096D01*
X82696005Y-92927095D01*
X82550000Y-92907874D01*
X82403994Y-92927095D01*
X82267934Y-92983454D01*
X82151102Y-93073102D01*
X82061454Y-93189934D01*
X82005095Y-93325994D01*
X81985874Y-93472000D01*
X82005095Y-93618005D01*
X82026580Y-93669874D01*
X82058915Y-93747937D01*
X82061454Y-93754065D01*
X82151102Y-93870897D01*
X82227705Y-93929676D01*
X82267937Y-93960547D01*
X82403993Y-94016904D01*
X82550000Y-94036126D01*
X82696007Y-94016904D01*
X82832063Y-93960547D01*
X82948897Y-93870897D01*
X82958038Y-93858984D01*
X83002271Y-93822682D01*
X83058000Y-93809688D01*
X83113729Y-93822682D01*
X83157961Y-93858984D01*
X83167103Y-93870897D01*
X83283937Y-93960547D01*
X83419993Y-94016904D01*
X83566000Y-94036126D01*
X83712007Y-94016904D01*
X83848063Y-93960547D01*
X83871296Y-93942719D01*
X83935649Y-93917289D01*
X84003728Y-93929676D01*
X84054999Y-93976145D01*
X84074000Y-94042682D01*
X84074000Y-96902000D01*
X84057119Y-96965000D01*
X84011000Y-97011119D01*
X83948000Y-97028000D01*
X69342000Y-97028000D01*
X69342000Y-104776000D01*
X69325119Y-104839000D01*
X69279000Y-104885119D01*
X69216000Y-104902000D01*
X62864000Y-104902000D01*
X62801000Y-104885119D01*
X62754881Y-104839000D01*
X62738000Y-104776000D01*
X62738000Y-101023873D01*
X67253874Y-101023873D01*
X67273095Y-101169879D01*
X67329454Y-101305939D01*
X67419102Y-101422771D01*
X67431981Y-101432653D01*
X67535937Y-101512421D01*
X67671993Y-101568778D01*
X67818000Y-101588000D01*
X67964007Y-101568778D01*
X68100063Y-101512421D01*
X68216897Y-101422771D01*
X68306547Y-101305937D01*
X68362904Y-101169881D01*
X68382126Y-101023874D01*
X68362904Y-100877867D01*
X68306547Y-100741811D01*
X68306545Y-100741808D01*
X68216897Y-100624976D01*
X68100065Y-100535328D01*
X67964005Y-100478969D01*
X67818000Y-100459748D01*
X67671994Y-100478969D01*
X67535934Y-100535328D01*
X67419102Y-100624976D01*
X67329454Y-100741808D01*
X67273095Y-100877868D01*
X67253874Y-101023873D01*
X62738000Y-101023873D01*
X62738000Y-94030000D01*
X75635874Y-94030000D01*
X75637544Y-94042682D01*
X75655095Y-94176005D01*
X75711454Y-94312065D01*
X75801102Y-94428897D01*
X75914702Y-94516065D01*
X75917937Y-94518547D01*
X76053993Y-94574904D01*
X76200000Y-94594126D01*
X76346007Y-94574904D01*
X76482063Y-94518547D01*
X76598897Y-94428897D01*
X76688547Y-94312063D01*
X76720882Y-94234000D01*
X77413874Y-94234000D01*
X77433095Y-94380005D01*
X77489454Y-94516065D01*
X77579102Y-94632897D01*
X77695934Y-94722545D01*
X77695937Y-94722547D01*
X77831993Y-94778904D01*
X77978000Y-94798126D01*
X78124007Y-94778904D01*
X78260063Y-94722547D01*
X78376897Y-94632897D01*
X78466547Y-94516063D01*
X78522904Y-94380007D01*
X78542126Y-94234000D01*
X78522904Y-94087993D01*
X78466547Y-93951937D01*
X78439961Y-93917289D01*
X78376897Y-93835102D01*
X78260065Y-93745454D01*
X78124005Y-93689095D01*
X77978000Y-93669874D01*
X77831994Y-93689095D01*
X77695934Y-93745454D01*
X77579102Y-93835102D01*
X77489454Y-93951934D01*
X77433095Y-94087994D01*
X77413874Y-94234000D01*
X76720882Y-94234000D01*
X76744904Y-94176007D01*
X76764126Y-94030000D01*
X76744904Y-93883993D01*
X76688547Y-93747937D01*
X76643396Y-93689095D01*
X76598897Y-93631102D01*
X76482065Y-93541454D01*
X76346005Y-93485095D01*
X76246534Y-93472000D01*
X80207874Y-93472000D01*
X80227095Y-93618005D01*
X80248580Y-93669874D01*
X80280915Y-93747937D01*
X80283454Y-93754065D01*
X80373102Y-93870897D01*
X80449705Y-93929676D01*
X80489937Y-93960547D01*
X80625993Y-94016904D01*
X80772000Y-94036126D01*
X80918007Y-94016904D01*
X81054063Y-93960547D01*
X81170897Y-93870897D01*
X81260547Y-93754063D01*
X81316904Y-93618007D01*
X81336126Y-93472000D01*
X81316904Y-93325993D01*
X81260547Y-93189937D01*
X81217864Y-93134311D01*
X81170897Y-93073102D01*
X81054065Y-92983454D01*
X81016406Y-92967855D01*
X80918007Y-92927096D01*
X80918005Y-92927095D01*
X80772000Y-92907874D01*
X80625994Y-92927095D01*
X80489934Y-92983454D01*
X80373102Y-93073102D01*
X80283454Y-93189934D01*
X80227095Y-93325994D01*
X80207874Y-93472000D01*
X76246534Y-93472000D01*
X76200000Y-93465874D01*
X76053994Y-93485095D01*
X75917934Y-93541454D01*
X75801102Y-93631102D01*
X75711454Y-93747934D01*
X75655095Y-93883994D01*
X75642964Y-93976145D01*
X75635874Y-94030000D01*
X62738000Y-94030000D01*
X62738000Y-87426000D01*
X66999874Y-87426000D01*
X67019095Y-87572005D01*
X67075454Y-87708065D01*
X67165102Y-87824897D01*
X67281934Y-87914545D01*
X67281937Y-87914547D01*
X67417993Y-87970904D01*
X67564000Y-87990126D01*
X67710007Y-87970904D01*
X67846063Y-87914547D01*
X67962897Y-87824897D01*
X68052547Y-87708063D01*
X68108904Y-87572007D01*
X68128126Y-87426000D01*
X68108904Y-87279993D01*
X68052547Y-87143937D01*
X68052545Y-87143934D01*
X67962897Y-87027102D01*
X67846065Y-86937454D01*
X67710005Y-86881095D01*
X67564000Y-86861874D01*
X67417994Y-86881095D01*
X67281934Y-86937454D01*
X67165102Y-87027102D01*
X67075454Y-87143934D01*
X67019095Y-87279994D01*
X66999874Y-87426000D01*
X62738000Y-87426000D01*
X62738000Y-80771999D01*
X77921874Y-80771999D01*
X77941095Y-80918005D01*
X77997454Y-81054065D01*
X78087102Y-81170897D01*
X78203934Y-81260545D01*
X78203937Y-81260547D01*
X78339993Y-81316904D01*
X78486000Y-81336126D01*
X78632007Y-81316904D01*
X78768063Y-81260547D01*
X78884897Y-81170897D01*
X78974547Y-81054063D01*
X79030904Y-80918007D01*
X79050126Y-80772000D01*
X79030904Y-80625993D01*
X78974547Y-80489937D01*
X78974545Y-80489934D01*
X78884897Y-80373102D01*
X78768065Y-80283454D01*
X78632005Y-80227095D01*
X78486000Y-80207874D01*
X78339994Y-80227095D01*
X78203934Y-80283454D01*
X78087102Y-80373102D01*
X77997454Y-80489934D01*
X77941095Y-80625994D01*
X77921874Y-80771999D01*
X62738000Y-80771999D01*
X62738000Y-77723999D01*
X77921874Y-77723999D01*
X77941095Y-77870005D01*
X77997454Y-78006065D01*
X78087102Y-78122897D01*
X78175190Y-78190489D01*
X78203937Y-78212547D01*
X78339993Y-78268904D01*
X78486000Y-78288126D01*
X78632007Y-78268904D01*
X78721100Y-78232000D01*
X81477874Y-78232000D01*
X81497095Y-78378005D01*
X81553454Y-78514065D01*
X81643102Y-78630897D01*
X81759934Y-78720545D01*
X81759937Y-78720547D01*
X81895993Y-78776904D01*
X82042000Y-78796126D01*
X82188007Y-78776904D01*
X82324063Y-78720547D01*
X82440897Y-78630897D01*
X82530547Y-78514063D01*
X82586904Y-78378007D01*
X82606126Y-78232000D01*
X82586904Y-78085993D01*
X82530547Y-77949937D01*
X82530545Y-77949934D01*
X82440897Y-77833102D01*
X82324065Y-77743454D01*
X82277097Y-77723999D01*
X82188007Y-77687096D01*
X82188005Y-77687095D01*
X82042000Y-77667874D01*
X81895994Y-77687095D01*
X81759934Y-77743454D01*
X81643102Y-77833102D01*
X81553454Y-77949934D01*
X81497095Y-78085994D01*
X81477874Y-78232000D01*
X78721100Y-78232000D01*
X78768063Y-78212547D01*
X78884897Y-78122897D01*
X78974547Y-78006063D01*
X79030904Y-77870007D01*
X79050126Y-77724000D01*
X79030904Y-77577993D01*
X78974547Y-77441937D01*
X78936181Y-77391937D01*
X78884897Y-77325102D01*
X78768065Y-77235454D01*
X78632005Y-77179095D01*
X78486000Y-77159874D01*
X78339994Y-77179095D01*
X78203934Y-77235454D01*
X78087102Y-77325102D01*
X77997454Y-77441934D01*
X77941095Y-77577994D01*
X77921874Y-77723999D01*
X62738000Y-77723999D01*
X62738000Y-76454000D01*
X66237874Y-76454000D01*
X66257095Y-76600005D01*
X66313454Y-76736065D01*
X66403102Y-76852897D01*
X66519934Y-76942545D01*
X66519937Y-76942547D01*
X66655993Y-76998904D01*
X66802000Y-77018126D01*
X66948007Y-76998904D01*
X67084063Y-76942547D01*
X67200897Y-76852897D01*
X67290547Y-76736063D01*
X67346904Y-76600007D01*
X67366126Y-76454000D01*
X67357559Y-76388926D01*
X67363168Y-76331979D01*
X67393386Y-76283386D01*
X67441979Y-76253168D01*
X67498927Y-76247559D01*
X67564000Y-76256126D01*
X67710007Y-76236904D01*
X67846063Y-76180547D01*
X67962897Y-76090897D01*
X68052547Y-75974063D01*
X68108904Y-75838007D01*
X68128126Y-75692000D01*
X68108904Y-75545993D01*
X68052547Y-75409937D01*
X68052546Y-75409936D01*
X68046199Y-75394612D01*
X68049167Y-75393382D01*
X68038138Y-75368643D01*
X68041194Y-75309880D01*
X68070601Y-75258913D01*
X68119944Y-75226857D01*
X68178464Y-75220703D01*
X68215849Y-75225624D01*
X68326000Y-75240126D01*
X68472007Y-75220904D01*
X68561100Y-75184000D01*
X79064874Y-75184000D01*
X79084095Y-75330005D01*
X79140454Y-75466065D01*
X79230102Y-75582897D01*
X79346934Y-75672545D01*
X79346937Y-75672547D01*
X79482993Y-75728904D01*
X79629000Y-75748126D01*
X79775007Y-75728904D01*
X79911063Y-75672547D01*
X80027897Y-75582897D01*
X80117547Y-75466063D01*
X80173904Y-75330007D01*
X80193126Y-75184000D01*
X80173904Y-75037993D01*
X80117547Y-74901937D01*
X80117545Y-74901934D01*
X80027897Y-74785102D01*
X79911065Y-74695454D01*
X79864097Y-74675999D01*
X79775007Y-74639096D01*
X79775005Y-74639095D01*
X79629000Y-74619874D01*
X79482994Y-74639095D01*
X79346934Y-74695454D01*
X79230102Y-74785102D01*
X79140454Y-74901934D01*
X79084095Y-75037994D01*
X79064874Y-75184000D01*
X68561100Y-75184000D01*
X68608063Y-75164547D01*
X68724897Y-75074897D01*
X68814547Y-74958063D01*
X68870904Y-74822007D01*
X68890126Y-74676000D01*
X68870904Y-74529993D01*
X68814547Y-74393937D01*
X68752363Y-74312897D01*
X68724897Y-74277102D01*
X68608065Y-74187454D01*
X68472005Y-74131095D01*
X68326000Y-74111874D01*
X68179994Y-74131095D01*
X68043934Y-74187454D01*
X67927102Y-74277102D01*
X67837454Y-74393934D01*
X67781095Y-74529994D01*
X67761874Y-74675999D01*
X67781095Y-74822005D01*
X67843801Y-74973388D01*
X67840831Y-74974617D01*
X67851864Y-74999375D01*
X67848801Y-75058132D01*
X67819392Y-75109092D01*
X67770050Y-75141143D01*
X67711536Y-75147296D01*
X67564000Y-75127873D01*
X67417994Y-75147095D01*
X67281934Y-75203454D01*
X67165102Y-75293102D01*
X67075454Y-75409934D01*
X67019095Y-75545994D01*
X66999874Y-75692000D01*
X67008440Y-75757073D01*
X67002831Y-75814020D01*
X66972613Y-75862613D01*
X66924020Y-75892831D01*
X66867073Y-75898440D01*
X66802001Y-75889873D01*
X66655994Y-75909095D01*
X66519934Y-75965454D01*
X66403102Y-76055102D01*
X66313454Y-76171934D01*
X66257095Y-76307994D01*
X66237874Y-76454000D01*
X62738000Y-76454000D01*
X62738000Y-73152000D01*
X69869713Y-73152000D01*
X69888934Y-73298005D01*
X69945293Y-73434065D01*
X70034941Y-73550897D01*
X70140551Y-73631934D01*
X70151776Y-73640547D01*
X70287832Y-73696904D01*
X70433839Y-73716126D01*
X70541677Y-73701928D01*
X70550975Y-73700705D01*
X70607922Y-73706314D01*
X70656516Y-73736531D01*
X70686734Y-73785125D01*
X70692343Y-73842073D01*
X70682874Y-73913999D01*
X70702095Y-74060005D01*
X70758454Y-74196065D01*
X70848102Y-74312897D01*
X70953712Y-74393934D01*
X70964937Y-74402547D01*
X71100993Y-74458904D01*
X71247000Y-74478126D01*
X71393007Y-74458904D01*
X71529063Y-74402547D01*
X71645897Y-74312897D01*
X71735547Y-74196063D01*
X71791904Y-74060007D01*
X71811126Y-73914000D01*
X71791904Y-73767993D01*
X71735547Y-73631937D01*
X71673363Y-73550897D01*
X71645897Y-73515102D01*
X71529065Y-73425454D01*
X71393005Y-73369095D01*
X71246999Y-73349873D01*
X71129862Y-73365294D01*
X71072914Y-73359685D01*
X71024321Y-73329467D01*
X70994103Y-73280872D01*
X70988495Y-73223929D01*
X70997965Y-73152000D01*
X70978743Y-73005993D01*
X70922386Y-72869937D01*
X70922384Y-72869934D01*
X70832736Y-72753102D01*
X70715904Y-72663454D01*
X70579844Y-72607095D01*
X70433839Y-72587874D01*
X70287833Y-72607095D01*
X70151773Y-72663454D01*
X70034941Y-72753102D01*
X69945293Y-72869934D01*
X69888934Y-73005994D01*
X69869713Y-73152000D01*
X62738000Y-73152000D01*
X62738000Y-72389999D01*
X63443874Y-72389999D01*
X63463095Y-72536005D01*
X63519454Y-72672065D01*
X63609102Y-72788897D01*
X63686075Y-72847960D01*
X63725937Y-72878547D01*
X63861993Y-72934904D01*
X64008000Y-72954126D01*
X64154007Y-72934904D01*
X64290063Y-72878547D01*
X64406897Y-72788897D01*
X64496547Y-72672063D01*
X64552904Y-72536007D01*
X64572126Y-72390000D01*
X64552904Y-72243993D01*
X64508171Y-72135999D01*
X64967874Y-72135999D01*
X64987095Y-72282005D01*
X65043454Y-72418065D01*
X65133102Y-72534897D01*
X65227193Y-72607095D01*
X65249937Y-72624547D01*
X65385993Y-72680904D01*
X65532000Y-72700126D01*
X65678007Y-72680904D01*
X65814063Y-72624547D01*
X65930897Y-72534897D01*
X66020547Y-72418063D01*
X66076904Y-72282007D01*
X66096126Y-72136000D01*
X66076904Y-71989993D01*
X66032171Y-71882000D01*
X67507874Y-71882000D01*
X67527095Y-72028005D01*
X67583454Y-72164065D01*
X67673102Y-72280897D01*
X67789934Y-72370545D01*
X67789937Y-72370547D01*
X67925993Y-72426904D01*
X68072000Y-72446126D01*
X68218007Y-72426904D01*
X68354063Y-72370547D01*
X68470897Y-72280897D01*
X68560547Y-72164063D01*
X68616904Y-72028007D01*
X68636126Y-71882000D01*
X68616904Y-71735993D01*
X68560547Y-71599937D01*
X68553763Y-71591096D01*
X68470897Y-71483102D01*
X68354065Y-71393454D01*
X68218005Y-71337095D01*
X68072000Y-71317874D01*
X67925994Y-71337095D01*
X67789934Y-71393454D01*
X67673102Y-71483102D01*
X67583454Y-71599934D01*
X67527095Y-71735994D01*
X67507874Y-71882000D01*
X66032171Y-71882000D01*
X66020547Y-71853937D01*
X66013763Y-71845096D01*
X65930897Y-71737102D01*
X65814065Y-71647454D01*
X65678005Y-71591095D01*
X65532000Y-71571874D01*
X65385994Y-71591095D01*
X65249934Y-71647454D01*
X65133102Y-71737102D01*
X65043454Y-71853934D01*
X64987095Y-71989994D01*
X64967874Y-72135999D01*
X64508171Y-72135999D01*
X64496547Y-72107937D01*
X64496545Y-72107934D01*
X64406897Y-71991102D01*
X64290065Y-71901454D01*
X64250156Y-71884923D01*
X64222035Y-71873274D01*
X64154005Y-71845095D01*
X64008000Y-71825874D01*
X63861994Y-71845095D01*
X63725934Y-71901454D01*
X63609102Y-71991102D01*
X63519454Y-72107934D01*
X63463095Y-72243994D01*
X63443874Y-72389999D01*
X62738000Y-72389999D01*
X62738000Y-70737906D01*
X62754865Y-70674933D01*
X62800945Y-70628818D01*
X62863906Y-70611906D01*
X70063103Y-70606506D01*
X73397741Y-70604006D01*
X73463605Y-70622534D01*
X73510076Y-70672752D01*
X73523450Y-70739854D01*
X73499783Y-70804051D01*
X73446054Y-70846414D01*
X73351776Y-70885465D01*
X73234941Y-70975116D01*
X73145293Y-71091948D01*
X73088934Y-71228008D01*
X73069713Y-71374013D01*
X73088934Y-71520019D01*
X73145292Y-71656077D01*
X73219065Y-71752220D01*
X73242115Y-71801653D01*
X73242115Y-71856195D01*
X73219065Y-71905628D01*
X73145292Y-72001770D01*
X73088934Y-72137828D01*
X73069713Y-72283834D01*
X73088934Y-72429839D01*
X73145293Y-72565899D01*
X73234941Y-72682731D01*
X73351773Y-72772379D01*
X73351776Y-72772381D01*
X73487832Y-72828738D01*
X73633839Y-72847960D01*
X73779846Y-72828738D01*
X73915902Y-72772381D01*
X74032736Y-72682731D01*
X74122386Y-72565897D01*
X74178743Y-72429841D01*
X74197965Y-72283834D01*
X74178743Y-72137827D01*
X74177986Y-72135999D01*
X76143874Y-72135999D01*
X76163095Y-72282005D01*
X76219454Y-72418065D01*
X76309102Y-72534897D01*
X76403193Y-72607095D01*
X76425937Y-72624547D01*
X76561993Y-72680904D01*
X76708000Y-72700126D01*
X76854007Y-72680904D01*
X76990063Y-72624547D01*
X77106897Y-72534897D01*
X77196547Y-72418063D01*
X77252904Y-72282007D01*
X77272126Y-72136000D01*
X77252904Y-71989993D01*
X77196547Y-71853937D01*
X77189763Y-71845096D01*
X77106897Y-71737102D01*
X76990065Y-71647454D01*
X76854005Y-71591095D01*
X76708000Y-71571874D01*
X76561994Y-71591095D01*
X76425934Y-71647454D01*
X76309102Y-71737102D01*
X76219454Y-71853934D01*
X76163095Y-71989994D01*
X76143874Y-72135999D01*
X74177986Y-72135999D01*
X74122386Y-72001771D01*
X74122375Y-72001757D01*
X74048613Y-71905628D01*
X74025562Y-71856196D01*
X74025562Y-71801652D01*
X74048613Y-71752220D01*
X74122384Y-71656079D01*
X74122386Y-71656077D01*
X74178743Y-71520021D01*
X74197965Y-71374014D01*
X74178743Y-71228007D01*
X74122386Y-71091951D01*
X74122384Y-71091948D01*
X74032736Y-70975116D01*
X73915901Y-70885465D01*
X73820770Y-70846060D01*
X73767063Y-70803727D01*
X73743380Y-70739575D01*
X73756697Y-70672499D01*
X73803090Y-70622259D01*
X73868891Y-70603652D01*
X80561381Y-70598634D01*
X83947906Y-70596095D01*
X84010945Y-70612944D01*
G37*
G04 #@! TD.AperFunction*
G04 #@! TA.AperFunction,Conductor*
G36*
X94878675Y-70658154D02*
G01*
X94938248Y-70674114D01*
X94983112Y-70716437D01*
X95002514Y-70774983D01*
X94991805Y-70835722D01*
X94953552Y-70884103D01*
X94834940Y-70975118D01*
X94745293Y-71091948D01*
X94688934Y-71228008D01*
X94669713Y-71374014D01*
X94688934Y-71520019D01*
X94745292Y-71656077D01*
X94819065Y-71752220D01*
X94842115Y-71801653D01*
X94842115Y-71856195D01*
X94819065Y-71905628D01*
X94745292Y-72001770D01*
X94688934Y-72137828D01*
X94669713Y-72283834D01*
X94688934Y-72429839D01*
X94745293Y-72565899D01*
X94834941Y-72682731D01*
X94951773Y-72772379D01*
X94951776Y-72772381D01*
X95087832Y-72828738D01*
X95233839Y-72847960D01*
X95379846Y-72828738D01*
X95515902Y-72772381D01*
X95632736Y-72682731D01*
X95722386Y-72565897D01*
X95778743Y-72429841D01*
X95797965Y-72283834D01*
X95778743Y-72137827D01*
X95722386Y-72001771D01*
X95722375Y-72001757D01*
X95648613Y-71905628D01*
X95637595Y-71882000D01*
X97869713Y-71882000D01*
X97888934Y-72028005D01*
X97945292Y-72164063D01*
X98002744Y-72238936D01*
X98026867Y-72293761D01*
X98023328Y-72347734D01*
X98029170Y-72344190D01*
X98088939Y-72340274D01*
X98143761Y-72364397D01*
X98151776Y-72370547D01*
X98287832Y-72426904D01*
X98433839Y-72446126D01*
X98579846Y-72426904D01*
X98715902Y-72370547D01*
X98832736Y-72280897D01*
X98922386Y-72164063D01*
X98978743Y-72028007D01*
X98997965Y-71882000D01*
X98978743Y-71735993D01*
X98922386Y-71599937D01*
X98922384Y-71599934D01*
X98832736Y-71483102D01*
X98715904Y-71393454D01*
X98668936Y-71373999D01*
X98579846Y-71337096D01*
X98579844Y-71337095D01*
X98433839Y-71317874D01*
X98287833Y-71337095D01*
X98151773Y-71393454D01*
X98034941Y-71483102D01*
X97945293Y-71599934D01*
X97888934Y-71735994D01*
X97869713Y-71882000D01*
X95637595Y-71882000D01*
X95625562Y-71856196D01*
X95625562Y-71801652D01*
X95648613Y-71752220D01*
X95672020Y-71721715D01*
X95722386Y-71656077D01*
X95778743Y-71520021D01*
X95797965Y-71374014D01*
X95778743Y-71228007D01*
X95722386Y-71091951D01*
X95722375Y-71091937D01*
X95632737Y-70975118D01*
X95632717Y-70975103D01*
X95527870Y-70894650D01*
X95489320Y-70845602D01*
X95479023Y-70784074D01*
X95499503Y-70725147D01*
X95545741Y-70683267D01*
X95606399Y-70668701D01*
X103528270Y-70783511D01*
X103594140Y-70803228D01*
X103639851Y-70854590D01*
X103651792Y-70922303D01*
X103626406Y-70986202D01*
X103545274Y-71091934D01*
X103488915Y-71227994D01*
X103469694Y-71373999D01*
X103488915Y-71520005D01*
X103545274Y-71656065D01*
X103619045Y-71752205D01*
X103642096Y-71801637D01*
X103642096Y-71856180D01*
X103619046Y-71905612D01*
X103545274Y-72001754D01*
X103488915Y-72137814D01*
X103469694Y-72283820D01*
X103488915Y-72429825D01*
X103545274Y-72565885D01*
X103634922Y-72682717D01*
X103725205Y-72751993D01*
X103751757Y-72772367D01*
X103887813Y-72828724D01*
X104033820Y-72847946D01*
X104179827Y-72828724D01*
X104315883Y-72772367D01*
X104432717Y-72682717D01*
X104522367Y-72565883D01*
X104578724Y-72429827D01*
X104597946Y-72283820D01*
X104578724Y-72137813D01*
X104522367Y-72001757D01*
X104522365Y-72001754D01*
X104522365Y-72001753D01*
X104448594Y-71905613D01*
X104425543Y-71856180D01*
X104425543Y-71801637D01*
X104448591Y-71752208D01*
X104522367Y-71656063D01*
X104578724Y-71520007D01*
X104597946Y-71374000D01*
X104578724Y-71227993D01*
X104522367Y-71091937D01*
X104452643Y-71001072D01*
X104427170Y-70936267D01*
X104440008Y-70867825D01*
X104487237Y-70816654D01*
X104554432Y-70798383D01*
X109095827Y-70864200D01*
X109158051Y-70881682D01*
X109203422Y-70927715D01*
X109220000Y-70990187D01*
X109220000Y-121601783D01*
X109207006Y-121657511D01*
X109170704Y-121701745D01*
X109075102Y-121775102D01*
X108985454Y-121891934D01*
X108929095Y-122027994D01*
X108909874Y-122174000D01*
X108929095Y-122320005D01*
X108985454Y-122456065D01*
X109075102Y-122572897D01*
X109170704Y-122646255D01*
X109207006Y-122690489D01*
X109220000Y-122746217D01*
X109220000Y-144652181D01*
X109202817Y-144715702D01*
X109155955Y-144761897D01*
X109092194Y-144778168D01*
X91620526Y-144527784D01*
X91558196Y-144510252D01*
X91512802Y-144464080D01*
X91496332Y-144401462D01*
X91505502Y-140967023D01*
X106115874Y-140967023D01*
X106135095Y-141113028D01*
X106191454Y-141249088D01*
X106281102Y-141365920D01*
X106397934Y-141455568D01*
X106397937Y-141455570D01*
X106533993Y-141511927D01*
X106680000Y-141531149D01*
X106826007Y-141511927D01*
X106962063Y-141455570D01*
X107078897Y-141365920D01*
X107168547Y-141249086D01*
X107224904Y-141113030D01*
X107244126Y-140967023D01*
X107224904Y-140821016D01*
X107168547Y-140684960D01*
X107168545Y-140684957D01*
X107078897Y-140568125D01*
X106962065Y-140478477D01*
X106826005Y-140422118D01*
X106680000Y-140402897D01*
X106533994Y-140422118D01*
X106397934Y-140478477D01*
X106281102Y-140568125D01*
X106191454Y-140684957D01*
X106135095Y-140821017D01*
X106115874Y-140967023D01*
X91505502Y-140967023D01*
X91519737Y-135635999D01*
X100781874Y-135635999D01*
X100801095Y-135782005D01*
X100857454Y-135918065D01*
X100947102Y-136034897D01*
X101063934Y-136124545D01*
X101063937Y-136124547D01*
X101199993Y-136180904D01*
X101346000Y-136200126D01*
X101492007Y-136180904D01*
X101628063Y-136124547D01*
X101744897Y-136034897D01*
X101834547Y-135918063D01*
X101890904Y-135782007D01*
X101910126Y-135636000D01*
X101890904Y-135489993D01*
X101834547Y-135353937D01*
X101834545Y-135353934D01*
X101744897Y-135237102D01*
X101628065Y-135147454D01*
X101492005Y-135091095D01*
X101368135Y-135074788D01*
X101346000Y-135071874D01*
X101345999Y-135071874D01*
X101199994Y-135091095D01*
X101063934Y-135147454D01*
X100947102Y-135237102D01*
X100857454Y-135353934D01*
X100801095Y-135489994D01*
X100781874Y-135635999D01*
X91519737Y-135635999D01*
X91529910Y-131826000D01*
X102051874Y-131826000D01*
X102071095Y-131972005D01*
X102127454Y-132108065D01*
X102217102Y-132224897D01*
X102333934Y-132314545D01*
X102333937Y-132314547D01*
X102469993Y-132370904D01*
X102616000Y-132390126D01*
X102762007Y-132370904D01*
X102898063Y-132314547D01*
X103014897Y-132224897D01*
X103104547Y-132108063D01*
X103160904Y-131972007D01*
X103180126Y-131826000D01*
X103180125Y-131825999D01*
X103182291Y-131809554D01*
X103183052Y-131809654D01*
X103189026Y-131764277D01*
X103228731Y-131712532D01*
X103288989Y-131687573D01*
X103353654Y-131696087D01*
X103485991Y-131750904D01*
X103519962Y-131755376D01*
X103632000Y-131770126D01*
X103778007Y-131750904D01*
X103914063Y-131694547D01*
X104030897Y-131604897D01*
X104120547Y-131488063D01*
X104176904Y-131352007D01*
X104196126Y-131206000D01*
X104176904Y-131059993D01*
X104120547Y-130923937D01*
X104120545Y-130923934D01*
X104030897Y-130807102D01*
X103914065Y-130717454D01*
X103778005Y-130661095D01*
X103632000Y-130641874D01*
X103485994Y-130661095D01*
X103349934Y-130717454D01*
X103233102Y-130807102D01*
X103143454Y-130923934D01*
X103087095Y-131059994D01*
X103065709Y-131222446D01*
X103064947Y-131222345D01*
X103058971Y-131267728D01*
X103019265Y-131319469D01*
X102959008Y-131344426D01*
X102894346Y-131335913D01*
X102762006Y-131281095D01*
X102616000Y-131261874D01*
X102469994Y-131281095D01*
X102333934Y-131337454D01*
X102217102Y-131427102D01*
X102127454Y-131543934D01*
X102071095Y-131679994D01*
X102051874Y-131826000D01*
X91529910Y-131826000D01*
X91563441Y-119267779D01*
X92263829Y-119267779D01*
X92293108Y-119508917D01*
X92293109Y-119508918D01*
X92360691Y-119742239D01*
X92464826Y-119961697D01*
X92602815Y-120161610D01*
X92771086Y-120336798D01*
X92965280Y-120482726D01*
X93180368Y-120595612D01*
X93309473Y-120638714D01*
X93410778Y-120672535D01*
X93650541Y-120711500D01*
X93650544Y-120711500D01*
X93832636Y-120711500D01*
X93832641Y-120711500D01*
X93923379Y-120704174D01*
X94014124Y-120696849D01*
X94249977Y-120638716D01*
X94473451Y-120543503D01*
X94678757Y-120413675D01*
X94860579Y-120252595D01*
X95014208Y-120064434D01*
X95135664Y-119854066D01*
X95221801Y-119626940D01*
X95270390Y-119388937D01*
X95280171Y-119146223D01*
X95250891Y-118905082D01*
X95183309Y-118671761D01*
X95079174Y-118452303D01*
X94941185Y-118252390D01*
X94772914Y-118077202D01*
X94578720Y-117931274D01*
X94363632Y-117818388D01*
X94363628Y-117818386D01*
X94363627Y-117818386D01*
X94133221Y-117741464D01*
X93893459Y-117702500D01*
X93893456Y-117702500D01*
X93711364Y-117702500D01*
X93711359Y-117702500D01*
X93529880Y-117717150D01*
X93294019Y-117775285D01*
X93070551Y-117870495D01*
X92865238Y-118000328D01*
X92683422Y-118161403D01*
X92529792Y-118349565D01*
X92408336Y-118559933D01*
X92322199Y-118787057D01*
X92273610Y-119025064D01*
X92263829Y-119267779D01*
X91563441Y-119267779D01*
X91575349Y-114808000D01*
X99003874Y-114808000D01*
X99023095Y-114954005D01*
X99079454Y-115090065D01*
X99169102Y-115206897D01*
X99285934Y-115296545D01*
X99285937Y-115296547D01*
X99421993Y-115352904D01*
X99568000Y-115372126D01*
X99714007Y-115352904D01*
X99850063Y-115296547D01*
X99966897Y-115206897D01*
X100056547Y-115090063D01*
X100112904Y-114954007D01*
X100132126Y-114808000D01*
X100112904Y-114661993D01*
X100056547Y-114525937D01*
X100056545Y-114525934D01*
X99966897Y-114409102D01*
X99850064Y-114319453D01*
X99777531Y-114289409D01*
X99729938Y-114254830D01*
X99703230Y-114202414D01*
X99703230Y-114143586D01*
X99729938Y-114091170D01*
X99777531Y-114056591D01*
X99850063Y-114026547D01*
X99966897Y-113936897D01*
X100056547Y-113820063D01*
X100112904Y-113684007D01*
X100132126Y-113538000D01*
X100112904Y-113391993D01*
X100056547Y-113255937D01*
X100056545Y-113255934D01*
X99966897Y-113139102D01*
X99850065Y-113049454D01*
X99714005Y-112993095D01*
X99568000Y-112973874D01*
X99421994Y-112993095D01*
X99285934Y-113049454D01*
X99169102Y-113139102D01*
X99079454Y-113255934D01*
X99023095Y-113391994D01*
X99003874Y-113538000D01*
X99023095Y-113684005D01*
X99079454Y-113820065D01*
X99169102Y-113936897D01*
X99285934Y-114026545D01*
X99285937Y-114026547D01*
X99358469Y-114056591D01*
X99406061Y-114091170D01*
X99432769Y-114143586D01*
X99432769Y-114202414D01*
X99406061Y-114254830D01*
X99358469Y-114289409D01*
X99285934Y-114319454D01*
X99169102Y-114409102D01*
X99079454Y-114525934D01*
X99023095Y-114661994D01*
X99003874Y-114808000D01*
X91575349Y-114808000D01*
X91615363Y-99822000D01*
X98368374Y-99822000D01*
X98387595Y-99968005D01*
X98443954Y-100104065D01*
X98533602Y-100220897D01*
X98650434Y-100310545D01*
X98650437Y-100310547D01*
X98786493Y-100366904D01*
X98932500Y-100386126D01*
X99078507Y-100366904D01*
X99214563Y-100310547D01*
X99331397Y-100220897D01*
X99421047Y-100104063D01*
X99477404Y-99968007D01*
X99496626Y-99822000D01*
X99477404Y-99675993D01*
X99421047Y-99539937D01*
X99421045Y-99539934D01*
X99331397Y-99423102D01*
X99214565Y-99333454D01*
X99078505Y-99277095D01*
X98932500Y-99257874D01*
X98786494Y-99277095D01*
X98650434Y-99333454D01*
X98533602Y-99423102D01*
X98443954Y-99539934D01*
X98387595Y-99675994D01*
X98368374Y-99822000D01*
X91615363Y-99822000D01*
X91630689Y-94082242D01*
X91640366Y-94034158D01*
X91643152Y-94030000D01*
X92653874Y-94030000D01*
X92656788Y-94052135D01*
X92673095Y-94176005D01*
X92729454Y-94312065D01*
X92819102Y-94428897D01*
X92935934Y-94518545D01*
X92935937Y-94518547D01*
X93071993Y-94574904D01*
X93218000Y-94594126D01*
X93364007Y-94574904D01*
X93500063Y-94518547D01*
X93616897Y-94428897D01*
X93706547Y-94312063D01*
X93762904Y-94176007D01*
X93782126Y-94030000D01*
X94177874Y-94030000D01*
X94180788Y-94052135D01*
X94197095Y-94176005D01*
X94253454Y-94312065D01*
X94343102Y-94428897D01*
X94459934Y-94518545D01*
X94459937Y-94518547D01*
X94595993Y-94574904D01*
X94742000Y-94594126D01*
X94888007Y-94574904D01*
X95024063Y-94518547D01*
X95140897Y-94428897D01*
X95230547Y-94312063D01*
X95286904Y-94176007D01*
X95306126Y-94030000D01*
X95286904Y-93883993D01*
X95230547Y-93747937D01*
X95230545Y-93747934D01*
X95140897Y-93631102D01*
X95024065Y-93541454D01*
X94888005Y-93485095D01*
X94742000Y-93465874D01*
X94595994Y-93485095D01*
X94459934Y-93541454D01*
X94343102Y-93631102D01*
X94253454Y-93747934D01*
X94197095Y-93883994D01*
X94182691Y-93993408D01*
X94177874Y-94030000D01*
X93782126Y-94030000D01*
X93762904Y-93883993D01*
X93706547Y-93747937D01*
X93706545Y-93747934D01*
X93616897Y-93631102D01*
X93500065Y-93541454D01*
X93364005Y-93485095D01*
X93218000Y-93465874D01*
X93071994Y-93485095D01*
X92935934Y-93541454D01*
X92819102Y-93631102D01*
X92729454Y-93747934D01*
X92673095Y-93883994D01*
X92658691Y-93993408D01*
X92653874Y-94030000D01*
X91643152Y-94030000D01*
X91667674Y-93993408D01*
X91708466Y-93966178D01*
X91722063Y-93960547D01*
X91838897Y-93870897D01*
X91928547Y-93754063D01*
X91984904Y-93618007D01*
X92004126Y-93472000D01*
X91984904Y-93325993D01*
X91928547Y-93189937D01*
X91838897Y-93073103D01*
X91722063Y-92983453D01*
X91711724Y-92979170D01*
X91670769Y-92951778D01*
X91643450Y-92910773D01*
X91633946Y-92862433D01*
X91639101Y-90932000D01*
X102559874Y-90932000D01*
X102579095Y-91078005D01*
X102635454Y-91214065D01*
X102725102Y-91330897D01*
X102841934Y-91420545D01*
X102841937Y-91420547D01*
X102977993Y-91476904D01*
X103124000Y-91496126D01*
X103270007Y-91476904D01*
X103406063Y-91420547D01*
X103522897Y-91330897D01*
X103612547Y-91214063D01*
X103668904Y-91078007D01*
X103688126Y-90932000D01*
X103668904Y-90785993D01*
X103612547Y-90649937D01*
X103580080Y-90607625D01*
X103522897Y-90533102D01*
X103406065Y-90443454D01*
X103403513Y-90442397D01*
X103270007Y-90387096D01*
X103270005Y-90387095D01*
X103124000Y-90367874D01*
X102977994Y-90387095D01*
X102841934Y-90443454D01*
X102725102Y-90533102D01*
X102635454Y-90649934D01*
X102579095Y-90785994D01*
X102559874Y-90932000D01*
X91639101Y-90932000D01*
X91641473Y-90043499D01*
X93669874Y-90043499D01*
X93689095Y-90189505D01*
X93745454Y-90325565D01*
X93835102Y-90442397D01*
X93951934Y-90532045D01*
X93951937Y-90532047D01*
X94087993Y-90588404D01*
X94234000Y-90607626D01*
X94380007Y-90588404D01*
X94516063Y-90532047D01*
X94632897Y-90442397D01*
X94722547Y-90325563D01*
X94778904Y-90189507D01*
X94798126Y-90043500D01*
X94778904Y-89897493D01*
X94722547Y-89761437D01*
X94722545Y-89761434D01*
X94632897Y-89644602D01*
X94516065Y-89554954D01*
X94380005Y-89498595D01*
X94234000Y-89479374D01*
X94087994Y-89498595D01*
X93951934Y-89554954D01*
X93835102Y-89644602D01*
X93745454Y-89761434D01*
X93689095Y-89897494D01*
X93669874Y-90043499D01*
X91641473Y-90043499D01*
X91650000Y-86850000D01*
X91661651Y-82550000D01*
X101673374Y-82550000D01*
X101692595Y-82696005D01*
X101748954Y-82832065D01*
X101838602Y-82948897D01*
X101955434Y-83038545D01*
X101955437Y-83038547D01*
X102091493Y-83094904D01*
X102237500Y-83114126D01*
X102383507Y-83094904D01*
X102519563Y-83038547D01*
X102636397Y-82948897D01*
X102726047Y-82832063D01*
X102782404Y-82696007D01*
X102801626Y-82550000D01*
X102782404Y-82403993D01*
X102726047Y-82267937D01*
X102726045Y-82267934D01*
X102636397Y-82151102D01*
X102519565Y-82061454D01*
X102383505Y-82005095D01*
X102237500Y-81985874D01*
X102091494Y-82005095D01*
X101955434Y-82061454D01*
X101838602Y-82151102D01*
X101748954Y-82267934D01*
X101692595Y-82403994D01*
X101673374Y-82550000D01*
X91661651Y-82550000D01*
X91665781Y-81026000D01*
X100781874Y-81026000D01*
X100801095Y-81172005D01*
X100857454Y-81308065D01*
X100947102Y-81424897D01*
X101063934Y-81514545D01*
X101063937Y-81514547D01*
X101199993Y-81570904D01*
X101346000Y-81590126D01*
X101492007Y-81570904D01*
X101628063Y-81514547D01*
X101744897Y-81424897D01*
X101834547Y-81308063D01*
X101890904Y-81172007D01*
X101910126Y-81026000D01*
X101890904Y-80879993D01*
X101834547Y-80743937D01*
X101834545Y-80743934D01*
X101744897Y-80627102D01*
X101628065Y-80537454D01*
X101492005Y-80481095D01*
X101346000Y-80461874D01*
X101199994Y-80481095D01*
X101063934Y-80537454D01*
X100947102Y-80627102D01*
X100857454Y-80743934D01*
X100801095Y-80879994D01*
X100781874Y-81026000D01*
X91665781Y-81026000D01*
X91668534Y-80010000D01*
X99257874Y-80010000D01*
X99277095Y-80156005D01*
X99333454Y-80292065D01*
X99423102Y-80408897D01*
X99517193Y-80481095D01*
X99539937Y-80498547D01*
X99675993Y-80554904D01*
X99822000Y-80574126D01*
X99968007Y-80554904D01*
X100104063Y-80498547D01*
X100220897Y-80408897D01*
X100310547Y-80292063D01*
X100366904Y-80156007D01*
X100386126Y-80010000D01*
X100366904Y-79863993D01*
X100310547Y-79727937D01*
X100310545Y-79727934D01*
X100220897Y-79611102D01*
X100104065Y-79521454D01*
X99968005Y-79465095D01*
X99822000Y-79445874D01*
X99675994Y-79465095D01*
X99539934Y-79521454D01*
X99423102Y-79611102D01*
X99333454Y-79727934D01*
X99277095Y-79863994D01*
X99257874Y-80010000D01*
X91668534Y-80010000D01*
X91673373Y-78224000D01*
X92399874Y-78224000D01*
X92419095Y-78370005D01*
X92475454Y-78506065D01*
X92565102Y-78622897D01*
X92681934Y-78712545D01*
X92681937Y-78712547D01*
X92817993Y-78768904D01*
X92964000Y-78788126D01*
X93110007Y-78768904D01*
X93246063Y-78712547D01*
X93362897Y-78622897D01*
X93452547Y-78506063D01*
X93508904Y-78370007D01*
X93528126Y-78224000D01*
X93508904Y-78077993D01*
X93467485Y-77978000D01*
X98495874Y-77978000D01*
X98515095Y-78124005D01*
X98571454Y-78260065D01*
X98661102Y-78376897D01*
X98777934Y-78466545D01*
X98777937Y-78466547D01*
X98913993Y-78522904D01*
X99060000Y-78542126D01*
X99206007Y-78522904D01*
X99342063Y-78466547D01*
X99458897Y-78376897D01*
X99548547Y-78260063D01*
X99604904Y-78124007D01*
X99624126Y-77978000D01*
X99604904Y-77831993D01*
X99548547Y-77695937D01*
X99541763Y-77687096D01*
X99458897Y-77579102D01*
X99342065Y-77489454D01*
X99206005Y-77433095D01*
X99059999Y-77413873D01*
X98908538Y-77433813D01*
X98848995Y-77427291D01*
X98835926Y-77418558D01*
X98816432Y-77458094D01*
X98789780Y-77477638D01*
X98791097Y-77479354D01*
X98661102Y-77579102D01*
X98571454Y-77695934D01*
X98515095Y-77831994D01*
X98495874Y-77978000D01*
X93467485Y-77978000D01*
X93452547Y-77941937D01*
X93368185Y-77831994D01*
X93362897Y-77825102D01*
X93246065Y-77735454D01*
X93110005Y-77679095D01*
X92964000Y-77659874D01*
X92817994Y-77679095D01*
X92681934Y-77735454D01*
X92565102Y-77825102D01*
X92475454Y-77941934D01*
X92419095Y-78077994D01*
X92399874Y-78224000D01*
X91673373Y-78224000D01*
X91677481Y-76708000D01*
X97987874Y-76708000D01*
X98007095Y-76854005D01*
X98063454Y-76990065D01*
X98153102Y-77106897D01*
X98269934Y-77196545D01*
X98269937Y-77196547D01*
X98405993Y-77252904D01*
X98552000Y-77272126D01*
X98698007Y-77252904D01*
X98698007Y-77252903D01*
X98703460Y-77252186D01*
X98762999Y-77258706D01*
X98776071Y-77267440D01*
X98795582Y-77227888D01*
X98822219Y-77208361D01*
X98820903Y-77206646D01*
X98950897Y-77106897D01*
X99040545Y-76990065D01*
X99040547Y-76990063D01*
X99096904Y-76854007D01*
X99116126Y-76708000D01*
X99096904Y-76561993D01*
X99040547Y-76425937D01*
X99040545Y-76425934D01*
X98950897Y-76309102D01*
X98834065Y-76219454D01*
X98698005Y-76163095D01*
X98552000Y-76143874D01*
X98405994Y-76163095D01*
X98269934Y-76219454D01*
X98153102Y-76309102D01*
X98063454Y-76425934D01*
X98007095Y-76561994D01*
X97987874Y-76708000D01*
X91677481Y-76708000D01*
X91681610Y-75184000D01*
X94685874Y-75184000D01*
X94705095Y-75330005D01*
X94761454Y-75466065D01*
X94851102Y-75582897D01*
X94967934Y-75672545D01*
X94967937Y-75672547D01*
X95103993Y-75728904D01*
X95250000Y-75748126D01*
X95396007Y-75728904D01*
X95532063Y-75672547D01*
X95648897Y-75582897D01*
X95738547Y-75466063D01*
X95794904Y-75330007D01*
X95814126Y-75184000D01*
X102940874Y-75184000D01*
X102960095Y-75330005D01*
X103016454Y-75466065D01*
X103106102Y-75582897D01*
X103222934Y-75672545D01*
X103222937Y-75672547D01*
X103358993Y-75728904D01*
X103505000Y-75748126D01*
X103651007Y-75728904D01*
X103787063Y-75672547D01*
X103903897Y-75582897D01*
X103993547Y-75466063D01*
X104049904Y-75330007D01*
X104069126Y-75184000D01*
X104049904Y-75037993D01*
X103993547Y-74901937D01*
X103931363Y-74820897D01*
X103903897Y-74785102D01*
X103787065Y-74695454D01*
X103651005Y-74639095D01*
X103505000Y-74619874D01*
X103358994Y-74639095D01*
X103222934Y-74695454D01*
X103106102Y-74785102D01*
X103016454Y-74901934D01*
X102960095Y-75037994D01*
X102940874Y-75184000D01*
X95814126Y-75184000D01*
X95794904Y-75037993D01*
X95738547Y-74901937D01*
X95676363Y-74820897D01*
X95648897Y-74785102D01*
X95532065Y-74695454D01*
X95396005Y-74639095D01*
X95250000Y-74619874D01*
X95103994Y-74639095D01*
X94967934Y-74695454D01*
X94851102Y-74785102D01*
X94761454Y-74901934D01*
X94705095Y-75037994D01*
X94685874Y-75184000D01*
X91681610Y-75184000D01*
X91683675Y-74421999D01*
X99469713Y-74421999D01*
X99488934Y-74568005D01*
X99545293Y-74704065D01*
X99634941Y-74820897D01*
X99740551Y-74901934D01*
X99751776Y-74910547D01*
X99887832Y-74966904D01*
X100033839Y-74986126D01*
X100179846Y-74966904D01*
X100315902Y-74910547D01*
X100432736Y-74820897D01*
X100522386Y-74704063D01*
X100578743Y-74568007D01*
X100597965Y-74422000D01*
X100578743Y-74275993D01*
X100522386Y-74139937D01*
X100522384Y-74139934D01*
X100432736Y-74023102D01*
X100315904Y-73933454D01*
X100179844Y-73877095D01*
X100033839Y-73857874D01*
X99887833Y-73877095D01*
X99751773Y-73933454D01*
X99634941Y-74023102D01*
X99545293Y-74139934D01*
X99488934Y-74275994D01*
X99469713Y-74421999D01*
X91683675Y-74421999D01*
X91687805Y-72897999D01*
X96971874Y-72897999D01*
X96991095Y-73044005D01*
X97047454Y-73180065D01*
X97137102Y-73296897D01*
X97253934Y-73386545D01*
X97253937Y-73386547D01*
X97389993Y-73442904D01*
X97536000Y-73462126D01*
X97682007Y-73442904D01*
X97818063Y-73386547D01*
X97934897Y-73296897D01*
X98024547Y-73180063D01*
X98080904Y-73044007D01*
X98100126Y-72898000D01*
X98080904Y-72751993D01*
X98024547Y-72615937D01*
X98024545Y-72615934D01*
X98024545Y-72615933D01*
X97967095Y-72541063D01*
X97942971Y-72486238D01*
X97946509Y-72432264D01*
X97940668Y-72435809D01*
X97880899Y-72439725D01*
X97826075Y-72415601D01*
X97818063Y-72409453D01*
X97682005Y-72353095D01*
X97536000Y-72333874D01*
X97389994Y-72353095D01*
X97253934Y-72409454D01*
X97137102Y-72499102D01*
X97047454Y-72615934D01*
X96991095Y-72751994D01*
X96971874Y-72897999D01*
X91687805Y-72897999D01*
X91688470Y-72652521D01*
X91695213Y-72612202D01*
X91714506Y-72576166D01*
X91722386Y-72565897D01*
X91778743Y-72429841D01*
X91797965Y-72283834D01*
X91778743Y-72137827D01*
X91722386Y-72001771D01*
X91716501Y-71994102D01*
X91697095Y-71957738D01*
X91690463Y-71917060D01*
X91690944Y-71739475D01*
X91697687Y-71699157D01*
X91716978Y-71663123D01*
X91722386Y-71656077D01*
X91778743Y-71520021D01*
X91797965Y-71374014D01*
X91778743Y-71228007D01*
X91722386Y-71091951D01*
X91718958Y-71087484D01*
X91699552Y-71051119D01*
X91692920Y-71010444D01*
X91693654Y-70739490D01*
X91710955Y-70676111D01*
X91757810Y-70630055D01*
X91821478Y-70613847D01*
X94878675Y-70658154D01*
G37*
G04 #@! TD.AperFunction*
G04 #@! TA.AperFunction,Conductor*
G36*
X49782799Y-66281597D02*
G01*
X50050003Y-66393226D01*
X50056110Y-66399105D01*
X50056644Y-66407564D01*
X49905882Y-66882156D01*
X49901639Y-66888057D01*
X49894731Y-66890314D01*
X49661849Y-66890314D01*
X49654941Y-66888057D01*
X49650698Y-66882156D01*
X49499935Y-66407564D01*
X49500469Y-66399105D01*
X49506574Y-66393227D01*
X49773780Y-66281597D01*
X49778290Y-66280694D01*
X49782799Y-66281597D01*
G37*
G04 #@! TD.AperFunction*
G04 #@! TA.AperFunction,Conductor*
G36*
X46703715Y-70352612D02*
G01*
X46868387Y-70517284D01*
X46871676Y-70523765D01*
X46870504Y-70530937D01*
X46641523Y-70973129D01*
X46635163Y-70978733D01*
X46626688Y-70978572D01*
X46358814Y-70868563D01*
X46354986Y-70866013D01*
X46352436Y-70862185D01*
X46242427Y-70594311D01*
X46242266Y-70585836D01*
X46247869Y-70579476D01*
X46690064Y-70350494D01*
X46697234Y-70349323D01*
X46703715Y-70352612D01*
G37*
G04 #@! TD.AperFunction*
G04 #@! TA.AperFunction,Conductor*
G36*
X51566510Y-66294884D02*
G01*
X51833750Y-66406528D01*
X51839847Y-66412387D01*
X51840404Y-66420825D01*
X51691571Y-66895401D01*
X51687333Y-66901330D01*
X51680407Y-66903600D01*
X51443593Y-66903600D01*
X51436667Y-66901330D01*
X51432429Y-66895401D01*
X51376602Y-66717391D01*
X51283595Y-66420823D01*
X51284152Y-66412387D01*
X51290248Y-66406528D01*
X51557490Y-66294883D01*
X51562000Y-66293980D01*
X51566510Y-66294884D01*
G37*
G04 #@! TD.AperFunction*
G04 #@! TA.AperFunction,Conductor*
G36*
X53592333Y-71528670D02*
G01*
X53596571Y-71534599D01*
X53745404Y-72009174D01*
X53744847Y-72017612D01*
X53738750Y-72023471D01*
X53471510Y-72135115D01*
X53467000Y-72136019D01*
X53462490Y-72135115D01*
X53195249Y-72023471D01*
X53189152Y-72017612D01*
X53188595Y-72009176D01*
X53337428Y-71534599D01*
X53341667Y-71528670D01*
X53348593Y-71526400D01*
X53585407Y-71526400D01*
X53592333Y-71528670D01*
G37*
G04 #@! TD.AperFunction*
D16*
X40150002Y-106498198D02*
G75*
G03*
X40912002Y-107260198I761998J-2D01*
G01*
X113333777Y-66287181D02*
X113333777Y-64205481D01*
X42055002Y-126792798D02*
X42055002Y-108022198D01*
X75024202Y-165350002D02*
G75*
G03*
X76218002Y-164156198I-2J1193802D01*
G01*
X51653814Y-64224163D02*
X56353749Y-64224163D01*
X40912002Y-107260198D02*
X41293002Y-107260198D01*
X129177002Y-107260198D02*
X129558002Y-107260198D01*
X129126202Y-165350002D02*
G75*
G03*
X130320002Y-164156198I-2J1193802D01*
G01*
X41250447Y-69707497D02*
X45250447Y-69707497D01*
X57133767Y-72337133D02*
G75*
G03*
X57708839Y-72912133I574933J-67D01*
G01*
X96538002Y-163622798D02*
G75*
G03*
X95344202Y-162428998I-1193802J-2D01*
G01*
X88033820Y-66387153D02*
X111333822Y-66387153D01*
X113333777Y-64205481D02*
X124165094Y-64205481D01*
X45250447Y-69707503D02*
G75*
G03*
X45733603Y-69224341I-47J483203D01*
G01*
X129558002Y-107260202D02*
G75*
G03*
X130320002Y-106498198I-2J762002D01*
G01*
X112533820Y-72962161D02*
X112758813Y-72962161D01*
X111333839Y-71762171D02*
G75*
G03*
X112533819Y-72962161I1199961J-29D01*
G01*
X129177002Y-107260202D02*
G75*
G03*
X128415002Y-108022198I-2J-761998D01*
G01*
X125217127Y-69707497D02*
X129217124Y-69707497D01*
X76218002Y-164156198D02*
X76218002Y-163622798D01*
X40150002Y-106498198D02*
X40150002Y-70807942D01*
X45733603Y-69224341D02*
X45733786Y-64799170D01*
X57933832Y-72912120D02*
G75*
G03*
X59133820Y-71712142I-32J1200020D01*
G01*
X130320000Y-70810375D02*
G75*
G03*
X129217124Y-69707500I-1102900J-25D01*
G01*
X40912002Y-127554802D02*
G75*
G03*
X40150002Y-128316798I-2J-761998D01*
G01*
X40912002Y-127554798D02*
X41293002Y-127554798D01*
X130320002Y-164156198D02*
X130320002Y-128316798D01*
X124733785Y-69224155D02*
X124733785Y-64774172D01*
X128415002Y-126792798D02*
X128415002Y-108022198D01*
X124733803Y-69224155D02*
G75*
G03*
X125217127Y-69707497I483297J-45D01*
G01*
X57133803Y-66237151D02*
X57133803Y-64224170D01*
X40149993Y-164079998D02*
X40150002Y-128316798D01*
X85633830Y-71762154D02*
X85633830Y-66387163D01*
X96538002Y-164156198D02*
G75*
G03*
X97731802Y-165349998I1193798J-2D01*
G01*
X97731802Y-165349998D02*
X129126202Y-165349998D01*
X129177002Y-127554798D02*
X129558002Y-127554798D01*
X59133820Y-66387150D02*
X85633820Y-66387153D01*
X112758813Y-72962113D02*
G75*
G03*
X113333813Y-72387164I87J574913D01*
G01*
X77411802Y-162428998D02*
X95344202Y-162428998D01*
X41293002Y-127554802D02*
G75*
G03*
X42055002Y-126792798I-2J762002D01*
G01*
X128415002Y-126792798D02*
G75*
G03*
X129177002Y-127554798I761998J-2D01*
G01*
X88033810Y-71762154D02*
X88033810Y-66387163D01*
X113333813Y-72387161D02*
X113333813Y-66287163D01*
X57133839Y-72337131D02*
X57133839Y-66237133D01*
X57708839Y-72912131D02*
X57933832Y-72912131D01*
X46308798Y-64224158D02*
X51653807Y-64224158D01*
X41250447Y-69707502D02*
G75*
G03*
X40150002Y-70807942I-47J-1100398D01*
G01*
X77411802Y-162429002D02*
G75*
G03*
X76218002Y-163622798I-2J-1193798D01*
G01*
X46308798Y-64224186D02*
G75*
G03*
X45733786Y-64799170I2J-575014D01*
G01*
X42055002Y-108022198D02*
G75*
G03*
X41293002Y-107260198I-762002J-2D01*
G01*
X41267602Y-165349995D02*
X75024202Y-165349998D01*
X40150003Y-164079998D02*
G75*
G03*
X41267602Y-165349998I1193797J-76202D01*
G01*
X85633790Y-71762154D02*
G75*
G03*
X88033810Y-71762170I1200010J-46D01*
G01*
X56353754Y-64224170D02*
X57133803Y-64224170D01*
X130320002Y-128316798D02*
G75*
G03*
X129558002Y-127554798I-762002J-2D01*
G01*
X59133820Y-71712123D02*
X59133820Y-66387153D01*
X111333832Y-71762154D02*
X111333832Y-66387163D01*
X96538002Y-164156198D02*
X96538002Y-163622798D01*
X124733719Y-64774172D02*
G75*
G03*
X124165094Y-64205481I-568619J72D01*
G01*
X130320002Y-106498198D02*
X130320002Y-70810375D01*
M02*
