%TF.GenerationSoftware,KiCad,Pcbnew,7.0.1*%
%TF.CreationDate,2023-06-22T14:27:19-04:00*%
%TF.ProjectId,payload-interface-board,7061796c-6f61-4642-9d69-6e7465726661,B*%
%TF.SameCoordinates,Original*%
%TF.FileFunction,Drillmap*%
%TF.FilePolarity,Positive*%
%FSLAX45Y45*%
G04 Gerber Fmt 4.5, Leading zero omitted, Abs format (unit mm)*
G04 Created by KiCad (PCBNEW 7.0.1) date 2023-06-22 14:27:19*
%MOMM*%
%LPD*%
G01*
G04 APERTURE LIST*
%ADD10C,0.200000*%
%ADD11C,0.025400*%
%ADD12C,0.091440*%
%ADD13C,0.100000*%
%ADD14C,0.317500*%
G04 APERTURE END LIST*
D10*
X4015000Y-10649820D02*
G75*
G03*
X4091200Y-10726020I76200J0D01*
G01*
X11333378Y-6628718D02*
X11333378Y-6420548D01*
X4205500Y-12679280D02*
X4205500Y-10802220D01*
X7502420Y-16535000D02*
G75*
G03*
X7621800Y-16415620I0J119380D01*
G01*
X5165381Y-6422416D02*
X5635375Y-6422416D01*
X4091200Y-10726020D02*
X4129300Y-10726020D01*
X12917700Y-10726020D02*
X12955800Y-10726020D01*
X12912620Y-16535000D02*
G75*
G03*
X13032000Y-16415620I0J119380D01*
G01*
X4125045Y-6970750D02*
X4525045Y-6970750D01*
X5713377Y-7233713D02*
G75*
G03*
X5770884Y-7291213I57493J-7D01*
G01*
X9653800Y-16362280D02*
G75*
G03*
X9534420Y-16242900I-119380J0D01*
G01*
X8803382Y-6638715D02*
X11133382Y-6638715D01*
X11333378Y-6420548D02*
X12416509Y-6420548D01*
X4525045Y-6970750D02*
G75*
G03*
X4573360Y-6922434I-5J48320D01*
G01*
X12955800Y-10726020D02*
G75*
G03*
X13032000Y-10649820I0J76200D01*
G01*
X11253382Y-7296216D02*
X11275881Y-7296216D01*
X11133384Y-7176217D02*
G75*
G03*
X11253382Y-7296216I119996J-3D01*
G01*
X12917700Y-10726020D02*
G75*
G03*
X12841500Y-10802220I0J-76200D01*
G01*
X12521713Y-6970750D02*
X12921712Y-6970750D01*
X7621800Y-16415620D02*
X7621800Y-16362280D01*
X4015000Y-10649820D02*
X4015000Y-7080794D01*
X4573360Y-6922434D02*
X4573379Y-6479917D01*
X5793383Y-7291212D02*
G75*
G03*
X5913382Y-7171214I-3J120002D01*
G01*
X13032000Y-7081037D02*
G75*
G03*
X12921712Y-6970750I-110290J-3D01*
G01*
X4091200Y-12755480D02*
G75*
G03*
X4015000Y-12831680I0J-76200D01*
G01*
X4091200Y-12755480D02*
X4129300Y-12755480D01*
X13032000Y-16415620D02*
X13032000Y-12831680D01*
X12473378Y-6922415D02*
X12473378Y-6477417D01*
X12841500Y-12679280D02*
X12841500Y-10802220D01*
X12473380Y-6922415D02*
G75*
G03*
X12521713Y-6970750I48330J-5D01*
G01*
X5713380Y-6623715D02*
X5713380Y-6422417D01*
X4014999Y-16408000D02*
X4015000Y-12831680D01*
X8563383Y-7176215D02*
X8563383Y-6638716D01*
X9653800Y-16415620D02*
G75*
G03*
X9773180Y-16535000I119380J0D01*
G01*
X9773180Y-16535000D02*
X12912620Y-16535000D01*
X12917700Y-12755480D02*
X12955800Y-12755480D01*
X5913382Y-6638715D02*
X8563382Y-6638715D01*
X11275881Y-7296211D02*
G75*
G03*
X11333381Y-7238716I9J57491D01*
G01*
X7741180Y-16242900D02*
X9534420Y-16242900D01*
X4129300Y-12755480D02*
G75*
G03*
X4205500Y-12679280I0J76200D01*
G01*
X12841500Y-12679280D02*
G75*
G03*
X12917700Y-12755480I76200J0D01*
G01*
X8803381Y-7176215D02*
X8803381Y-6638716D01*
X11333381Y-7238716D02*
X11333381Y-6628716D01*
X5713384Y-7233713D02*
X5713384Y-6623713D01*
X5770884Y-7291213D02*
X5793383Y-7291213D01*
X4630880Y-6422416D02*
X5165381Y-6422416D01*
X4125045Y-6970750D02*
G75*
G03*
X4015000Y-7080794I-5J-110040D01*
G01*
X7741180Y-16242900D02*
G75*
G03*
X7621800Y-16362280I0J-119380D01*
G01*
X4630880Y-6422419D02*
G75*
G03*
X4573379Y-6479917I0J-57501D01*
G01*
X4205500Y-10802220D02*
G75*
G03*
X4129300Y-10726020I-76200J0D01*
G01*
X4126760Y-16534999D02*
X7502420Y-16535000D01*
X4015000Y-16408000D02*
G75*
G03*
X4126760Y-16535000I119380J-7620D01*
G01*
X8563379Y-7176215D02*
G75*
G03*
X8803381Y-7176217I120001J-5D01*
G01*
X5635375Y-6422417D02*
X5713380Y-6422417D01*
X13032000Y-12831680D02*
G75*
G03*
X12955800Y-12755480I-76200J0D01*
G01*
X5913382Y-7171212D02*
X5913382Y-6638715D01*
X11133383Y-7176215D02*
X11133383Y-6638716D01*
X9653800Y-16415620D02*
X9653800Y-16362280D01*
X12473372Y-6477417D02*
G75*
G03*
X12416509Y-6420548I-56862J7D01*
G01*
X13032000Y-10649820D02*
X13032000Y-7081037D01*
D11*
X4508500Y-10929700D02*
X4533900Y-10955100D01*
X4533900Y-10929700D02*
X4508500Y-10955100D01*
X4508500Y-15176500D02*
X4533900Y-15201900D01*
X4533900Y-15176500D02*
X4508500Y-15201900D01*
X4622800Y-7073900D02*
X4648200Y-7099300D01*
X4648200Y-7073900D02*
X4622800Y-7099300D01*
X4660900Y-10934700D02*
X4686300Y-10960100D01*
X4686300Y-10934700D02*
X4660900Y-10960100D01*
X4788100Y-6616700D02*
X4813500Y-6642100D01*
X4813500Y-6616700D02*
X4788100Y-6642100D01*
X4788449Y-6997700D02*
X4813849Y-7023100D01*
X4813849Y-6997700D02*
X4788449Y-7023100D01*
X4889500Y-8242300D02*
X4914900Y-8267700D01*
X4914900Y-8242300D02*
X4889500Y-8267700D01*
X4965129Y-6615371D02*
X4990529Y-6640771D01*
X4990529Y-6615371D02*
X4965129Y-6640771D01*
X4984772Y-6877621D02*
X5010172Y-6903021D01*
X5010172Y-6877621D02*
X4984772Y-6903021D01*
X5067300Y-10807700D02*
X5092700Y-10833100D01*
X5092700Y-10807700D02*
X5067300Y-10833100D01*
X5143500Y-6616700D02*
X5168900Y-6642100D01*
X5168900Y-6616700D02*
X5143500Y-6642100D01*
X5194300Y-7061200D02*
X5219700Y-7086600D01*
X5219700Y-7061200D02*
X5194300Y-7086600D01*
X5334000Y-7200900D02*
X5359400Y-7226300D01*
X5359400Y-7200900D02*
X5334000Y-7226300D01*
X5346700Y-7404100D02*
X5372100Y-7429500D01*
X5372100Y-7404100D02*
X5346700Y-7429500D01*
X5397500Y-6819900D02*
X5422900Y-6845300D01*
X5422900Y-6819900D02*
X5397500Y-6845300D01*
X5486400Y-7099300D02*
X5511800Y-7124700D01*
X5511800Y-7099300D02*
X5486400Y-7124700D01*
X5499100Y-6515100D02*
X5524500Y-6540500D01*
X5524500Y-6515100D02*
X5499100Y-6540500D01*
X5600700Y-7416550D02*
X5626100Y-7441950D01*
X5626100Y-7416550D02*
X5600700Y-7441950D01*
X6388100Y-7226300D02*
X6413500Y-7251700D01*
X6413500Y-7226300D02*
X6388100Y-7251700D01*
X6540500Y-7200900D02*
X6565900Y-7226300D01*
X6565900Y-7200900D02*
X6540500Y-7226300D01*
X6591300Y-9842500D02*
X6616700Y-9867900D01*
X6616700Y-9842500D02*
X6591300Y-9867900D01*
X6591300Y-9944100D02*
X6616700Y-9969500D01*
X6616700Y-9944100D02*
X6591300Y-9969500D01*
X6591300Y-10045700D02*
X6616700Y-10071100D01*
X6616700Y-10045700D02*
X6591300Y-10071100D01*
X6591300Y-10147300D02*
X6616700Y-10172700D01*
X6616700Y-10147300D02*
X6591300Y-10172700D01*
X6591300Y-10248900D02*
X6616700Y-10274300D01*
X6616700Y-10248900D02*
X6591300Y-10274300D01*
X6591300Y-10350500D02*
X6616700Y-10375900D01*
X6616700Y-10350500D02*
X6591300Y-10375900D01*
X6667500Y-7632700D02*
X6692900Y-7658100D01*
X6692900Y-7632700D02*
X6667500Y-7658100D01*
X6667500Y-9791700D02*
X6692900Y-9817100D01*
X6692900Y-9791700D02*
X6667500Y-9817100D01*
X6667500Y-9893300D02*
X6692900Y-9918700D01*
X6692900Y-9893300D02*
X6667500Y-9918700D01*
X6667500Y-9994900D02*
X6692900Y-10020300D01*
X6692900Y-9994900D02*
X6667500Y-10020300D01*
X6667500Y-10096500D02*
X6692900Y-10121900D01*
X6692900Y-10096500D02*
X6667500Y-10121900D01*
X6667500Y-10198100D02*
X6692900Y-10223500D01*
X6692900Y-10198100D02*
X6667500Y-10223500D01*
X6667500Y-10299700D02*
X6692900Y-10325100D01*
X6692900Y-10299700D02*
X6667500Y-10325100D01*
X6667500Y-10401300D02*
X6692900Y-10426700D01*
X6692900Y-10401300D02*
X6667500Y-10426700D01*
X6743700Y-7556500D02*
X6769100Y-7581900D01*
X6769100Y-7556500D02*
X6743700Y-7581900D01*
X6743700Y-8729900D02*
X6769100Y-8755300D01*
X6769100Y-8729900D02*
X6743700Y-8755300D01*
X6769100Y-10089687D02*
X6794500Y-10115087D01*
X6794500Y-10089687D02*
X6769100Y-10115087D01*
X6794500Y-7175500D02*
X6819900Y-7200900D01*
X6819900Y-7175500D02*
X6794500Y-7200900D01*
X6819900Y-7454900D02*
X6845300Y-7480300D01*
X6845300Y-7454900D02*
X6819900Y-7480300D01*
X6819900Y-11315700D02*
X6845300Y-11341100D01*
X6845300Y-11315700D02*
X6819900Y-11341100D01*
X7023100Y-10579100D02*
X7048500Y-10604500D01*
X7048500Y-10579100D02*
X7023100Y-10604500D01*
X7030684Y-7302500D02*
X7056084Y-7327900D01*
X7056084Y-7302500D02*
X7030684Y-7327900D01*
X7112000Y-7378700D02*
X7137400Y-7404100D01*
X7137400Y-7378700D02*
X7112000Y-7404100D01*
X7226300Y-10579100D02*
X7251700Y-10604500D01*
X7251700Y-10579100D02*
X7226300Y-10604500D01*
X7277100Y-10655300D02*
X7302500Y-10680700D01*
X7302500Y-10655300D02*
X7277100Y-10680700D01*
X7327900Y-10579100D02*
X7353300Y-10604500D01*
X7353300Y-10579100D02*
X7327900Y-10604500D01*
X7350684Y-7124701D02*
X7376084Y-7150101D01*
X7376084Y-7124701D02*
X7350684Y-7150101D01*
X7350684Y-7215683D02*
X7376084Y-7241083D01*
X7376084Y-7215683D02*
X7350684Y-7241083D01*
X7378152Y-10656074D02*
X7403552Y-10681474D01*
X7403552Y-10656074D02*
X7378152Y-10681474D01*
X7429500Y-10579100D02*
X7454900Y-10604500D01*
X7454900Y-10579100D02*
X7429500Y-10604500D01*
X7480300Y-10655300D02*
X7505700Y-10680700D01*
X7505700Y-10655300D02*
X7480300Y-10680700D01*
X7607300Y-9390300D02*
X7632700Y-9415700D01*
X7632700Y-9390300D02*
X7607300Y-9415700D01*
X7658100Y-7200900D02*
X7683500Y-7226300D01*
X7683500Y-7200900D02*
X7658100Y-7226300D01*
X7785100Y-9410700D02*
X7810500Y-9436100D01*
X7810500Y-9410700D02*
X7785100Y-9436100D01*
X7835900Y-7759700D02*
X7861300Y-7785100D01*
X7861300Y-7759700D02*
X7835900Y-7785100D01*
X7835900Y-8064500D02*
X7861300Y-8089900D01*
X7861300Y-8064500D02*
X7835900Y-8089900D01*
X7950200Y-7505700D02*
X7975600Y-7531100D01*
X7975600Y-7505700D02*
X7950200Y-7531100D01*
X8064500Y-9334500D02*
X8089900Y-9359900D01*
X8089900Y-9334500D02*
X8064500Y-9359900D01*
X8115300Y-9969500D02*
X8140700Y-9994900D01*
X8140700Y-9969500D02*
X8115300Y-9994900D01*
X8191500Y-7810500D02*
X8216900Y-7835900D01*
X8216900Y-7810500D02*
X8191500Y-7835900D01*
X8242300Y-9334500D02*
X8267700Y-9359900D01*
X8267700Y-9334500D02*
X8242300Y-9359900D01*
X8310682Y-7124700D02*
X8336082Y-7150100D01*
X8336082Y-7124700D02*
X8310682Y-7150100D01*
X8310682Y-7220682D02*
X8336082Y-7246082D01*
X8336082Y-7220682D02*
X8310682Y-7246082D01*
X8310682Y-7327900D02*
X8336082Y-7353300D01*
X8336082Y-7327900D02*
X8310682Y-7353300D01*
X8343900Y-9334500D02*
X8369300Y-9359900D01*
X8369300Y-9334500D02*
X8343900Y-9359900D01*
X8420100Y-7754700D02*
X8445500Y-7780100D01*
X8445500Y-7754700D02*
X8420100Y-7780100D01*
X8470682Y-7124700D02*
X8496082Y-7150100D01*
X8496082Y-7124700D02*
X8470682Y-7150100D01*
X8470682Y-7215682D02*
X8496082Y-7241082D01*
X8496082Y-7215682D02*
X8470682Y-7241082D01*
X8470900Y-9004300D02*
X8496300Y-9029700D01*
X8496300Y-9004300D02*
X8470900Y-9029700D01*
X8470900Y-9410700D02*
X8496300Y-9436100D01*
X8496300Y-9410700D02*
X8470900Y-9436100D01*
X8597900Y-7754700D02*
X8623300Y-7780100D01*
X8623300Y-7754700D02*
X8597900Y-7780100D01*
X8648700Y-8699500D02*
X8674100Y-8724900D01*
X8674100Y-8699500D02*
X8648700Y-8724900D01*
X8648700Y-9390300D02*
X8674100Y-9415700D01*
X8674100Y-9390300D02*
X8648700Y-9415700D01*
X8775700Y-7759700D02*
X8801100Y-7785100D01*
X8801100Y-7759700D02*
X8775700Y-7785100D01*
X8775700Y-8064500D02*
X8801100Y-8089900D01*
X8801100Y-8064500D02*
X8775700Y-8089900D01*
X8801100Y-9390300D02*
X8826500Y-9415700D01*
X8826500Y-9390300D02*
X8801100Y-9415700D01*
X8851900Y-8140700D02*
X8877300Y-8166100D01*
X8877300Y-8140700D02*
X8851900Y-8166100D01*
X8851900Y-9004300D02*
X8877300Y-9029700D01*
X8877300Y-9004300D02*
X8851900Y-9029700D01*
X8950684Y-7124701D02*
X8976084Y-7150101D01*
X8976084Y-7124701D02*
X8950684Y-7150101D01*
X8950684Y-7215683D02*
X8976084Y-7241083D01*
X8976084Y-7215683D02*
X8950684Y-7241083D01*
X9029700Y-9334500D02*
X9055100Y-9359900D01*
X9055100Y-9334500D02*
X9029700Y-9359900D01*
X9055100Y-7810500D02*
X9080500Y-7835900D01*
X9080500Y-7810500D02*
X9055100Y-7835900D01*
X9110684Y-7124701D02*
X9136084Y-7150101D01*
X9136084Y-7124701D02*
X9110684Y-7150101D01*
X9110684Y-7215683D02*
X9136084Y-7241083D01*
X9136084Y-7215683D02*
X9110684Y-7241083D01*
X9131300Y-9334500D02*
X9156700Y-9359900D01*
X9156700Y-9334500D02*
X9131300Y-9359900D01*
X9283700Y-7809700D02*
X9309100Y-7835100D01*
X9309100Y-7809700D02*
X9283700Y-7835100D01*
X9309100Y-9390300D02*
X9334500Y-9415700D01*
X9334500Y-9390300D02*
X9309100Y-9415700D01*
X9350684Y-7124701D02*
X9376084Y-7150101D01*
X9376084Y-7124701D02*
X9350684Y-7150101D01*
X9350684Y-7215683D02*
X9376084Y-7241083D01*
X9376084Y-7215683D02*
X9350684Y-7241083D01*
X9410700Y-8991650D02*
X9436100Y-9017050D01*
X9436100Y-8991650D02*
X9410700Y-9017050D01*
X9461500Y-9390300D02*
X9486900Y-9415700D01*
X9486900Y-9390300D02*
X9461500Y-9415700D01*
X9510684Y-7124701D02*
X9536084Y-7150101D01*
X9536084Y-7124701D02*
X9510684Y-7150101D01*
X9510684Y-7215683D02*
X9536084Y-7241083D01*
X9536084Y-7215683D02*
X9510684Y-7241083D01*
X9512300Y-7505700D02*
X9537700Y-7531100D01*
X9537700Y-7505700D02*
X9512300Y-7531100D01*
X9740900Y-7277100D02*
X9766300Y-7302500D01*
X9766300Y-7277100D02*
X9740900Y-7302500D01*
X9830684Y-7175500D02*
X9856084Y-7200900D01*
X9856084Y-7175500D02*
X9830684Y-7200900D01*
X9842500Y-7658100D02*
X9867900Y-7683500D01*
X9867900Y-7658100D02*
X9842500Y-7683500D01*
X9880550Y-9969500D02*
X9905950Y-9994900D01*
X9905950Y-9969500D02*
X9880550Y-9994900D01*
X9893300Y-7785100D02*
X9918700Y-7810500D01*
X9918700Y-7785100D02*
X9893300Y-7810500D01*
X9944100Y-11341100D02*
X9969500Y-11366500D01*
X9969500Y-11341100D02*
X9944100Y-11366500D01*
X9944100Y-11468100D02*
X9969500Y-11493500D01*
X9969500Y-11468100D02*
X9944100Y-11493500D01*
X9969500Y-7988300D02*
X9994900Y-8013700D01*
X9994900Y-7988300D02*
X9969500Y-8013700D01*
X9990684Y-7429500D02*
X10016084Y-7454900D01*
X10016084Y-7429500D02*
X9990684Y-7454900D01*
X10121900Y-8089900D02*
X10147300Y-8115300D01*
X10147300Y-8089900D02*
X10121900Y-8115300D01*
X10121900Y-13550900D02*
X10147300Y-13576300D01*
X10147300Y-13550900D02*
X10121900Y-13576300D01*
X10211050Y-8242300D02*
X10236450Y-8267700D01*
X10236450Y-8242300D02*
X10211050Y-8267700D01*
X10248900Y-13169900D02*
X10274300Y-13195300D01*
X10274300Y-13169900D02*
X10248900Y-13195300D01*
X10299700Y-9080500D02*
X10325100Y-9105900D01*
X10325100Y-9080500D02*
X10299700Y-9105900D01*
X10337800Y-7505700D02*
X10363200Y-7531100D01*
X10363200Y-7505700D02*
X10337800Y-7531100D01*
X10350500Y-13107900D02*
X10375900Y-13133300D01*
X10375900Y-13107900D02*
X10350500Y-13133300D01*
X10390682Y-7124700D02*
X10416082Y-7150100D01*
X10416082Y-7124700D02*
X10390682Y-7150100D01*
X10390682Y-7215682D02*
X10416082Y-7241082D01*
X10416082Y-7215682D02*
X10390682Y-7241082D01*
X10655300Y-14084002D02*
X10680700Y-14109402D01*
X10680700Y-14084002D02*
X10655300Y-14109402D01*
X10756900Y-13703300D02*
X10782300Y-13728700D01*
X10782300Y-13703300D02*
X10756900Y-13728700D01*
X10756900Y-13804900D02*
X10782300Y-13830300D01*
X10782300Y-13804900D02*
X10756900Y-13830300D01*
X10756900Y-13906500D02*
X10782300Y-13931900D01*
X10782300Y-13906500D02*
X10756900Y-13931900D01*
X10756900Y-14008100D02*
X10782300Y-14033500D01*
X10782300Y-14008100D02*
X10756900Y-14033500D01*
X10756900Y-14109700D02*
X10782300Y-14135100D01*
X10782300Y-14109700D02*
X10756900Y-14135100D01*
X10756900Y-14211300D02*
X10782300Y-14236700D01*
X10782300Y-14211300D02*
X10756900Y-14236700D01*
X10756900Y-14312900D02*
X10782300Y-14338300D01*
X10782300Y-14312900D02*
X10756900Y-14338300D01*
X10833100Y-13754100D02*
X10858500Y-13779500D01*
X10858500Y-13754100D02*
X10833100Y-13779500D01*
X10833100Y-13855700D02*
X10858500Y-13881100D01*
X10858500Y-13855700D02*
X10833100Y-13881100D01*
X10833100Y-13957300D02*
X10858500Y-13982700D01*
X10858500Y-13957300D02*
X10833100Y-13982700D01*
X10833100Y-14058900D02*
X10858500Y-14084300D01*
X10858500Y-14058900D02*
X10833100Y-14084300D01*
X10833100Y-14160500D02*
X10858500Y-14185900D01*
X10858500Y-14160500D02*
X10833100Y-14185900D01*
X10833100Y-14262100D02*
X10858500Y-14287500D01*
X10858500Y-14262100D02*
X10833100Y-14287500D01*
X10909300Y-14566900D02*
X10934700Y-14592300D01*
X10934700Y-14566900D02*
X10909300Y-14592300D01*
X10934700Y-12204700D02*
X10960100Y-12230100D01*
X10960100Y-12204700D02*
X10934700Y-12230100D01*
X11087100Y-12204700D02*
X11112500Y-12230100D01*
X11112500Y-12204700D02*
X11087100Y-12230100D01*
X11188700Y-10553700D02*
X11214100Y-10579100D01*
X11214100Y-10553700D02*
X11188700Y-10579100D01*
X11214100Y-15405100D02*
X11239500Y-15430500D01*
X11239500Y-15405100D02*
X11214100Y-15430500D01*
X11214100Y-15735300D02*
X11239500Y-15760700D01*
X11239500Y-15735300D02*
X11214100Y-15760700D01*
X11264900Y-15328900D02*
X11290300Y-15354300D01*
X11290300Y-15328900D02*
X11264900Y-15354300D01*
X11315700Y-7850000D02*
X11341100Y-7875400D01*
X11341100Y-7850000D02*
X11315700Y-7875400D01*
X11315700Y-8332600D02*
X11341100Y-8358000D01*
X11341100Y-8332600D02*
X11315700Y-8358000D01*
X11315700Y-14465300D02*
X11341100Y-14490700D01*
X11341100Y-14465300D02*
X11315700Y-14490700D01*
X11315700Y-15252700D02*
X11341100Y-15278100D01*
X11341100Y-15252700D02*
X11315700Y-15278100D01*
X11315700Y-15405100D02*
X11341100Y-15430500D01*
X11341100Y-15405100D02*
X11315700Y-15430500D01*
X11315700Y-15735300D02*
X11341100Y-15760700D01*
X11341100Y-15735300D02*
X11315700Y-15760700D01*
X11341100Y-12179300D02*
X11366500Y-12204700D01*
X11366500Y-12179300D02*
X11341100Y-12204700D01*
X11366500Y-15328900D02*
X11391900Y-15354300D01*
X11391900Y-15328900D02*
X11366500Y-15354300D01*
X11417300Y-9258300D02*
X11442700Y-9283700D01*
X11442700Y-9258300D02*
X11417300Y-9283700D01*
X11417300Y-9563100D02*
X11442700Y-9588500D01*
X11442700Y-9563100D02*
X11417300Y-9588500D01*
X11417300Y-14033500D02*
X11442700Y-14058900D01*
X11442700Y-14033500D02*
X11417300Y-14058900D01*
X11442700Y-15735300D02*
X11468100Y-15760700D01*
X11468100Y-15735300D02*
X11442700Y-15760700D01*
X11454100Y-7440900D02*
X11479500Y-7466300D01*
X11479500Y-7440900D02*
X11454100Y-7466300D01*
X11582350Y-9563100D02*
X11607750Y-9588500D01*
X11607750Y-9563100D02*
X11582350Y-9588500D01*
X11620500Y-8642400D02*
X11645900Y-8667800D01*
X11645900Y-8642400D02*
X11620500Y-8667800D01*
X11620500Y-8159800D02*
X11645900Y-8185200D01*
X11645900Y-8159800D02*
X11620500Y-8185200D01*
X11645900Y-11798300D02*
X11671300Y-11823700D01*
X11671300Y-11798300D02*
X11645900Y-11823700D01*
X11798300Y-8872300D02*
X11823700Y-8897700D01*
X11823700Y-8872300D02*
X11798300Y-8897700D01*
X11809500Y-8191500D02*
X11834900Y-8216900D01*
X11834900Y-8191500D02*
X11809500Y-8216900D01*
X11809500Y-8674100D02*
X11834900Y-8699500D01*
X11834900Y-8674100D02*
X11809500Y-8699500D01*
X11939500Y-7810500D02*
X11964900Y-7835900D01*
X11964900Y-7810500D02*
X11939500Y-7835900D01*
X11939500Y-8305900D02*
X11964900Y-8331300D01*
X11964900Y-8305900D02*
X11939500Y-8331300D01*
X11976100Y-8872300D02*
X12001500Y-8897700D01*
X12001500Y-8872300D02*
X11976100Y-8897700D01*
X12052300Y-11798300D02*
X12077700Y-11823700D01*
X12077700Y-11798300D02*
X12052300Y-11823700D01*
X12077700Y-11341100D02*
X12103100Y-11366500D01*
X12103100Y-11341100D02*
X12077700Y-11366500D01*
X12128500Y-7850000D02*
X12153900Y-7875400D01*
X12153900Y-7850000D02*
X12128500Y-7875400D01*
X12128500Y-8332600D02*
X12153900Y-8358000D01*
X12153900Y-8332600D02*
X12128500Y-8358000D01*
X12245390Y-9313200D02*
X12270790Y-9338600D01*
X12270790Y-9313200D02*
X12245390Y-9338600D01*
X12509500Y-15227300D02*
X12534900Y-15252700D01*
X12534900Y-15227300D02*
X12509500Y-15252700D01*
D12*
X4643120Y-9652000D02*
G75*
G03*
X4643120Y-9652000I-45720J0D01*
G01*
X12517120Y-12471400D02*
G75*
G03*
X12517120Y-12471400I-45720J0D01*
G01*
X12517120Y-14909800D02*
G75*
G03*
X12517120Y-14909800I-45720J0D01*
G01*
D13*
X4597400Y-8306600D02*
X4597400Y-8406600D01*
X4547400Y-8356600D02*
X4647400Y-8356600D01*
X4597400Y-8738400D02*
X4597400Y-8838400D01*
X4547400Y-8788400D02*
X4647400Y-8788400D01*
X4597400Y-9170200D02*
X4597400Y-9270200D01*
X4547400Y-9220200D02*
X4647400Y-9220200D01*
X4597400Y-10033800D02*
X4597400Y-10133800D01*
X4547400Y-10083800D02*
X4647400Y-10083800D01*
X8312100Y-10211600D02*
X8312100Y-10311600D01*
X8262100Y-10261600D02*
X8362100Y-10261600D01*
X8820100Y-10211600D02*
X8820100Y-10311600D01*
X8770100Y-10261600D02*
X8870100Y-10261600D01*
X10236200Y-16028200D02*
X10236200Y-16128200D01*
X10186200Y-16078200D02*
X10286200Y-16078200D01*
X10668000Y-16028200D02*
X10668000Y-16128200D01*
X10618000Y-16078200D02*
X10718000Y-16078200D01*
X11099800Y-16028200D02*
X11099800Y-16128200D01*
X11049800Y-16078200D02*
X11149800Y-16078200D01*
X11531600Y-16028200D02*
X11531600Y-16128200D01*
X11481600Y-16078200D02*
X11581600Y-16078200D01*
X12471400Y-10694200D02*
X12471400Y-10794200D01*
X12421400Y-10744200D02*
X12521400Y-10744200D01*
X12471400Y-11126000D02*
X12471400Y-11226000D01*
X12421400Y-11176000D02*
X12521400Y-11176000D01*
X12471400Y-11557800D02*
X12471400Y-11657800D01*
X12421400Y-11607800D02*
X12521400Y-11607800D01*
X12471400Y-11989600D02*
X12471400Y-12089600D01*
X12421400Y-12039600D02*
X12521400Y-12039600D01*
X12471400Y-12878600D02*
X12471400Y-12978600D01*
X12421400Y-12928600D02*
X12521400Y-12928600D01*
X12471400Y-13996200D02*
X12471400Y-14096200D01*
X12421400Y-14046200D02*
X12521400Y-14046200D01*
X12471400Y-14428000D02*
X12471400Y-14528000D01*
X12421400Y-14478000D02*
X12521400Y-14478000D01*
D14*
X4633454Y-16139654D02*
X4633454Y-15915146D01*
X4408946Y-15915146D01*
X4408946Y-16139654D01*
X4633454Y-16139654D01*
X5014454Y-7567154D02*
X5014454Y-7342646D01*
X4789946Y-7342646D01*
X4789946Y-7567154D01*
X5014454Y-7567154D01*
X12380454Y-7567154D02*
X12380454Y-7342646D01*
X12155946Y-7342646D01*
X12155946Y-7567154D01*
X12380454Y-7567154D01*
X12634454Y-16139654D02*
X12634454Y-15915146D01*
X12409946Y-15915146D01*
X12409946Y-16139654D01*
X12634454Y-16139654D01*
D10*
X4252376Y-16857524D02*
X4252376Y-16657524D01*
X4252376Y-16657524D02*
X4299995Y-16657524D01*
X4299995Y-16657524D02*
X4328567Y-16667047D01*
X4328567Y-16667047D02*
X4347614Y-16686095D01*
X4347614Y-16686095D02*
X4357138Y-16705143D01*
X4357138Y-16705143D02*
X4366662Y-16743238D01*
X4366662Y-16743238D02*
X4366662Y-16771809D01*
X4366662Y-16771809D02*
X4357138Y-16809905D01*
X4357138Y-16809905D02*
X4347614Y-16828952D01*
X4347614Y-16828952D02*
X4328567Y-16848000D01*
X4328567Y-16848000D02*
X4299995Y-16857524D01*
X4299995Y-16857524D02*
X4252376Y-16857524D01*
X4452376Y-16857524D02*
X4452376Y-16724190D01*
X4452376Y-16762285D02*
X4461900Y-16743238D01*
X4461900Y-16743238D02*
X4471424Y-16733714D01*
X4471424Y-16733714D02*
X4490472Y-16724190D01*
X4490472Y-16724190D02*
X4509519Y-16724190D01*
X4576186Y-16857524D02*
X4576186Y-16724190D01*
X4576186Y-16657524D02*
X4566662Y-16667047D01*
X4566662Y-16667047D02*
X4576186Y-16676571D01*
X4576186Y-16676571D02*
X4585710Y-16667047D01*
X4585710Y-16667047D02*
X4576186Y-16657524D01*
X4576186Y-16657524D02*
X4576186Y-16676571D01*
X4699995Y-16857524D02*
X4680948Y-16848000D01*
X4680948Y-16848000D02*
X4671424Y-16828952D01*
X4671424Y-16828952D02*
X4671424Y-16657524D01*
X4804757Y-16857524D02*
X4785710Y-16848000D01*
X4785710Y-16848000D02*
X4776186Y-16828952D01*
X4776186Y-16828952D02*
X4776186Y-16657524D01*
X5033329Y-16857524D02*
X5033329Y-16657524D01*
X5033329Y-16657524D02*
X5099995Y-16800381D01*
X5099995Y-16800381D02*
X5166662Y-16657524D01*
X5166662Y-16657524D02*
X5166662Y-16857524D01*
X5347614Y-16857524D02*
X5347614Y-16752762D01*
X5347614Y-16752762D02*
X5338091Y-16733714D01*
X5338091Y-16733714D02*
X5319043Y-16724190D01*
X5319043Y-16724190D02*
X5280948Y-16724190D01*
X5280948Y-16724190D02*
X5261900Y-16733714D01*
X5347614Y-16848000D02*
X5328567Y-16857524D01*
X5328567Y-16857524D02*
X5280948Y-16857524D01*
X5280948Y-16857524D02*
X5261900Y-16848000D01*
X5261900Y-16848000D02*
X5252376Y-16828952D01*
X5252376Y-16828952D02*
X5252376Y-16809905D01*
X5252376Y-16809905D02*
X5261900Y-16790857D01*
X5261900Y-16790857D02*
X5280948Y-16781333D01*
X5280948Y-16781333D02*
X5328567Y-16781333D01*
X5328567Y-16781333D02*
X5347614Y-16771809D01*
X5442853Y-16724190D02*
X5442853Y-16924190D01*
X5442853Y-16733714D02*
X5461900Y-16724190D01*
X5461900Y-16724190D02*
X5499995Y-16724190D01*
X5499995Y-16724190D02*
X5519043Y-16733714D01*
X5519043Y-16733714D02*
X5528567Y-16743238D01*
X5528567Y-16743238D02*
X5538091Y-16762285D01*
X5538091Y-16762285D02*
X5538091Y-16819428D01*
X5538091Y-16819428D02*
X5528567Y-16838476D01*
X5528567Y-16838476D02*
X5519043Y-16848000D01*
X5519043Y-16848000D02*
X5499995Y-16857524D01*
X5499995Y-16857524D02*
X5461900Y-16857524D01*
X5461900Y-16857524D02*
X5442853Y-16848000D01*
X5623805Y-16838476D02*
X5633329Y-16848000D01*
X5633329Y-16848000D02*
X5623805Y-16857524D01*
X5623805Y-16857524D02*
X5614281Y-16848000D01*
X5614281Y-16848000D02*
X5623805Y-16838476D01*
X5623805Y-16838476D02*
X5623805Y-16857524D01*
X5623805Y-16733714D02*
X5633329Y-16743238D01*
X5633329Y-16743238D02*
X5623805Y-16752762D01*
X5623805Y-16752762D02*
X5614281Y-16743238D01*
X5614281Y-16743238D02*
X5623805Y-16733714D01*
X5623805Y-16733714D02*
X5623805Y-16752762D01*
D11*
X3979357Y-17172300D02*
X4004757Y-17197700D01*
X4004757Y-17172300D02*
X3979357Y-17197700D01*
D10*
X4290472Y-17077524D02*
X4309519Y-17077524D01*
X4309519Y-17077524D02*
X4328567Y-17087047D01*
X4328567Y-17087047D02*
X4338091Y-17096571D01*
X4338091Y-17096571D02*
X4347614Y-17115619D01*
X4347614Y-17115619D02*
X4357138Y-17153714D01*
X4357138Y-17153714D02*
X4357138Y-17201333D01*
X4357138Y-17201333D02*
X4347614Y-17239428D01*
X4347614Y-17239428D02*
X4338091Y-17258476D01*
X4338091Y-17258476D02*
X4328567Y-17268000D01*
X4328567Y-17268000D02*
X4309519Y-17277524D01*
X4309519Y-17277524D02*
X4290472Y-17277524D01*
X4290472Y-17277524D02*
X4271424Y-17268000D01*
X4271424Y-17268000D02*
X4261900Y-17258476D01*
X4261900Y-17258476D02*
X4252376Y-17239428D01*
X4252376Y-17239428D02*
X4242853Y-17201333D01*
X4242853Y-17201333D02*
X4242853Y-17153714D01*
X4242853Y-17153714D02*
X4252376Y-17115619D01*
X4252376Y-17115619D02*
X4261900Y-17096571D01*
X4261900Y-17096571D02*
X4271424Y-17087047D01*
X4271424Y-17087047D02*
X4290472Y-17077524D01*
X4442853Y-17258476D02*
X4452376Y-17268000D01*
X4452376Y-17268000D02*
X4442853Y-17277524D01*
X4442853Y-17277524D02*
X4433329Y-17268000D01*
X4433329Y-17268000D02*
X4442853Y-17258476D01*
X4442853Y-17258476D02*
X4442853Y-17277524D01*
X4528567Y-17096571D02*
X4538091Y-17087047D01*
X4538091Y-17087047D02*
X4557138Y-17077524D01*
X4557138Y-17077524D02*
X4604757Y-17077524D01*
X4604757Y-17077524D02*
X4623805Y-17087047D01*
X4623805Y-17087047D02*
X4633329Y-17096571D01*
X4633329Y-17096571D02*
X4642853Y-17115619D01*
X4642853Y-17115619D02*
X4642853Y-17134666D01*
X4642853Y-17134666D02*
X4633329Y-17163238D01*
X4633329Y-17163238D02*
X4519043Y-17277524D01*
X4519043Y-17277524D02*
X4642853Y-17277524D01*
X4823805Y-17077524D02*
X4728567Y-17077524D01*
X4728567Y-17077524D02*
X4719043Y-17172762D01*
X4719043Y-17172762D02*
X4728567Y-17163238D01*
X4728567Y-17163238D02*
X4747614Y-17153714D01*
X4747614Y-17153714D02*
X4795234Y-17153714D01*
X4795234Y-17153714D02*
X4814281Y-17163238D01*
X4814281Y-17163238D02*
X4823805Y-17172762D01*
X4823805Y-17172762D02*
X4833329Y-17191809D01*
X4833329Y-17191809D02*
X4833329Y-17239428D01*
X4833329Y-17239428D02*
X4823805Y-17258476D01*
X4823805Y-17258476D02*
X4814281Y-17268000D01*
X4814281Y-17268000D02*
X4795234Y-17277524D01*
X4795234Y-17277524D02*
X4747614Y-17277524D01*
X4747614Y-17277524D02*
X4728567Y-17268000D01*
X4728567Y-17268000D02*
X4719043Y-17258476D01*
X5004757Y-17144190D02*
X5004757Y-17277524D01*
X4957138Y-17068000D02*
X4909519Y-17210857D01*
X4909519Y-17210857D02*
X5033329Y-17210857D01*
X5109519Y-17277524D02*
X5109519Y-17144190D01*
X5109519Y-17163238D02*
X5119043Y-17153714D01*
X5119043Y-17153714D02*
X5138091Y-17144190D01*
X5138091Y-17144190D02*
X5166662Y-17144190D01*
X5166662Y-17144190D02*
X5185710Y-17153714D01*
X5185710Y-17153714D02*
X5195234Y-17172762D01*
X5195234Y-17172762D02*
X5195234Y-17277524D01*
X5195234Y-17172762D02*
X5204757Y-17153714D01*
X5204757Y-17153714D02*
X5223805Y-17144190D01*
X5223805Y-17144190D02*
X5252376Y-17144190D01*
X5252376Y-17144190D02*
X5271424Y-17153714D01*
X5271424Y-17153714D02*
X5280948Y-17172762D01*
X5280948Y-17172762D02*
X5280948Y-17277524D01*
X5376186Y-17277524D02*
X5376186Y-17144190D01*
X5376186Y-17163238D02*
X5385710Y-17153714D01*
X5385710Y-17153714D02*
X5404757Y-17144190D01*
X5404757Y-17144190D02*
X5433329Y-17144190D01*
X5433329Y-17144190D02*
X5452376Y-17153714D01*
X5452376Y-17153714D02*
X5461900Y-17172762D01*
X5461900Y-17172762D02*
X5461900Y-17277524D01*
X5461900Y-17172762D02*
X5471424Y-17153714D01*
X5471424Y-17153714D02*
X5490472Y-17144190D01*
X5490472Y-17144190D02*
X5519043Y-17144190D01*
X5519043Y-17144190D02*
X5538091Y-17153714D01*
X5538091Y-17153714D02*
X5547615Y-17172762D01*
X5547615Y-17172762D02*
X5547615Y-17277524D01*
X5938091Y-17068000D02*
X5766662Y-17325143D01*
X6195234Y-17077524D02*
X6214281Y-17077524D01*
X6214281Y-17077524D02*
X6233329Y-17087047D01*
X6233329Y-17087047D02*
X6242853Y-17096571D01*
X6242853Y-17096571D02*
X6252376Y-17115619D01*
X6252376Y-17115619D02*
X6261900Y-17153714D01*
X6261900Y-17153714D02*
X6261900Y-17201333D01*
X6261900Y-17201333D02*
X6252376Y-17239428D01*
X6252376Y-17239428D02*
X6242853Y-17258476D01*
X6242853Y-17258476D02*
X6233329Y-17268000D01*
X6233329Y-17268000D02*
X6214281Y-17277524D01*
X6214281Y-17277524D02*
X6195234Y-17277524D01*
X6195234Y-17277524D02*
X6176186Y-17268000D01*
X6176186Y-17268000D02*
X6166662Y-17258476D01*
X6166662Y-17258476D02*
X6157138Y-17239428D01*
X6157138Y-17239428D02*
X6147615Y-17201333D01*
X6147615Y-17201333D02*
X6147615Y-17153714D01*
X6147615Y-17153714D02*
X6157138Y-17115619D01*
X6157138Y-17115619D02*
X6166662Y-17096571D01*
X6166662Y-17096571D02*
X6176186Y-17087047D01*
X6176186Y-17087047D02*
X6195234Y-17077524D01*
X6347615Y-17258476D02*
X6357138Y-17268000D01*
X6357138Y-17268000D02*
X6347615Y-17277524D01*
X6347615Y-17277524D02*
X6338091Y-17268000D01*
X6338091Y-17268000D02*
X6347615Y-17258476D01*
X6347615Y-17258476D02*
X6347615Y-17277524D01*
X6480948Y-17077524D02*
X6499996Y-17077524D01*
X6499996Y-17077524D02*
X6519043Y-17087047D01*
X6519043Y-17087047D02*
X6528567Y-17096571D01*
X6528567Y-17096571D02*
X6538091Y-17115619D01*
X6538091Y-17115619D02*
X6547615Y-17153714D01*
X6547615Y-17153714D02*
X6547615Y-17201333D01*
X6547615Y-17201333D02*
X6538091Y-17239428D01*
X6538091Y-17239428D02*
X6528567Y-17258476D01*
X6528567Y-17258476D02*
X6519043Y-17268000D01*
X6519043Y-17268000D02*
X6499996Y-17277524D01*
X6499996Y-17277524D02*
X6480948Y-17277524D01*
X6480948Y-17277524D02*
X6461900Y-17268000D01*
X6461900Y-17268000D02*
X6452376Y-17258476D01*
X6452376Y-17258476D02*
X6442853Y-17239428D01*
X6442853Y-17239428D02*
X6433329Y-17201333D01*
X6433329Y-17201333D02*
X6433329Y-17153714D01*
X6433329Y-17153714D02*
X6442853Y-17115619D01*
X6442853Y-17115619D02*
X6452376Y-17096571D01*
X6452376Y-17096571D02*
X6461900Y-17087047D01*
X6461900Y-17087047D02*
X6480948Y-17077524D01*
X6738091Y-17277524D02*
X6623805Y-17277524D01*
X6680948Y-17277524D02*
X6680948Y-17077524D01*
X6680948Y-17077524D02*
X6661900Y-17106095D01*
X6661900Y-17106095D02*
X6642853Y-17125143D01*
X6642853Y-17125143D02*
X6623805Y-17134666D01*
X6861900Y-17077524D02*
X6880948Y-17077524D01*
X6880948Y-17077524D02*
X6899996Y-17087047D01*
X6899996Y-17087047D02*
X6909519Y-17096571D01*
X6909519Y-17096571D02*
X6919043Y-17115619D01*
X6919043Y-17115619D02*
X6928567Y-17153714D01*
X6928567Y-17153714D02*
X6928567Y-17201333D01*
X6928567Y-17201333D02*
X6919043Y-17239428D01*
X6919043Y-17239428D02*
X6909519Y-17258476D01*
X6909519Y-17258476D02*
X6899996Y-17268000D01*
X6899996Y-17268000D02*
X6880948Y-17277524D01*
X6880948Y-17277524D02*
X6861900Y-17277524D01*
X6861900Y-17277524D02*
X6842853Y-17268000D01*
X6842853Y-17268000D02*
X6833329Y-17258476D01*
X6833329Y-17258476D02*
X6823805Y-17239428D01*
X6823805Y-17239428D02*
X6814281Y-17201333D01*
X6814281Y-17201333D02*
X6814281Y-17153714D01*
X6814281Y-17153714D02*
X6823805Y-17115619D01*
X6823805Y-17115619D02*
X6833329Y-17096571D01*
X6833329Y-17096571D02*
X6842853Y-17087047D01*
X6842853Y-17087047D02*
X6861900Y-17077524D01*
X7052376Y-17077524D02*
X7071424Y-17077524D01*
X7071424Y-17077524D02*
X7090472Y-17087047D01*
X7090472Y-17087047D02*
X7099996Y-17096571D01*
X7099996Y-17096571D02*
X7109519Y-17115619D01*
X7109519Y-17115619D02*
X7119043Y-17153714D01*
X7119043Y-17153714D02*
X7119043Y-17201333D01*
X7119043Y-17201333D02*
X7109519Y-17239428D01*
X7109519Y-17239428D02*
X7099996Y-17258476D01*
X7099996Y-17258476D02*
X7090472Y-17268000D01*
X7090472Y-17268000D02*
X7071424Y-17277524D01*
X7071424Y-17277524D02*
X7052376Y-17277524D01*
X7052376Y-17277524D02*
X7033329Y-17268000D01*
X7033329Y-17268000D02*
X7023805Y-17258476D01*
X7023805Y-17258476D02*
X7014281Y-17239428D01*
X7014281Y-17239428D02*
X7004757Y-17201333D01*
X7004757Y-17201333D02*
X7004757Y-17153714D01*
X7004757Y-17153714D02*
X7014281Y-17115619D01*
X7014281Y-17115619D02*
X7023805Y-17096571D01*
X7023805Y-17096571D02*
X7033329Y-17087047D01*
X7033329Y-17087047D02*
X7052376Y-17077524D01*
X7195234Y-17077524D02*
X7195234Y-17115619D01*
X7271424Y-17077524D02*
X7271424Y-17115619D01*
X7566662Y-17353714D02*
X7557138Y-17344190D01*
X7557138Y-17344190D02*
X7538091Y-17315619D01*
X7538091Y-17315619D02*
X7528567Y-17296571D01*
X7528567Y-17296571D02*
X7519043Y-17268000D01*
X7519043Y-17268000D02*
X7509519Y-17220381D01*
X7509519Y-17220381D02*
X7509519Y-17182286D01*
X7509519Y-17182286D02*
X7519043Y-17134666D01*
X7519043Y-17134666D02*
X7528567Y-17106095D01*
X7528567Y-17106095D02*
X7538091Y-17087047D01*
X7538091Y-17087047D02*
X7557138Y-17058476D01*
X7557138Y-17058476D02*
X7566662Y-17048952D01*
X7747615Y-17277524D02*
X7633329Y-17277524D01*
X7690472Y-17277524D02*
X7690472Y-17077524D01*
X7690472Y-17077524D02*
X7671424Y-17106095D01*
X7671424Y-17106095D02*
X7652377Y-17125143D01*
X7652377Y-17125143D02*
X7633329Y-17134666D01*
X7919043Y-17077524D02*
X7880948Y-17077524D01*
X7880948Y-17077524D02*
X7861900Y-17087047D01*
X7861900Y-17087047D02*
X7852377Y-17096571D01*
X7852377Y-17096571D02*
X7833329Y-17125143D01*
X7833329Y-17125143D02*
X7823805Y-17163238D01*
X7823805Y-17163238D02*
X7823805Y-17239428D01*
X7823805Y-17239428D02*
X7833329Y-17258476D01*
X7833329Y-17258476D02*
X7842853Y-17268000D01*
X7842853Y-17268000D02*
X7861900Y-17277524D01*
X7861900Y-17277524D02*
X7899996Y-17277524D01*
X7899996Y-17277524D02*
X7919043Y-17268000D01*
X7919043Y-17268000D02*
X7928567Y-17258476D01*
X7928567Y-17258476D02*
X7938091Y-17239428D01*
X7938091Y-17239428D02*
X7938091Y-17191809D01*
X7938091Y-17191809D02*
X7928567Y-17172762D01*
X7928567Y-17172762D02*
X7919043Y-17163238D01*
X7919043Y-17163238D02*
X7899996Y-17153714D01*
X7899996Y-17153714D02*
X7861900Y-17153714D01*
X7861900Y-17153714D02*
X7842853Y-17163238D01*
X7842853Y-17163238D02*
X7833329Y-17172762D01*
X7833329Y-17172762D02*
X7823805Y-17191809D01*
X8014281Y-17096571D02*
X8023805Y-17087047D01*
X8023805Y-17087047D02*
X8042853Y-17077524D01*
X8042853Y-17077524D02*
X8090472Y-17077524D01*
X8090472Y-17077524D02*
X8109519Y-17087047D01*
X8109519Y-17087047D02*
X8119043Y-17096571D01*
X8119043Y-17096571D02*
X8128567Y-17115619D01*
X8128567Y-17115619D02*
X8128567Y-17134666D01*
X8128567Y-17134666D02*
X8119043Y-17163238D01*
X8119043Y-17163238D02*
X8004758Y-17277524D01*
X8004758Y-17277524D02*
X8128567Y-17277524D01*
X8366662Y-17277524D02*
X8366662Y-17077524D01*
X8452377Y-17277524D02*
X8452377Y-17172762D01*
X8452377Y-17172762D02*
X8442853Y-17153714D01*
X8442853Y-17153714D02*
X8423805Y-17144190D01*
X8423805Y-17144190D02*
X8395234Y-17144190D01*
X8395234Y-17144190D02*
X8376186Y-17153714D01*
X8376186Y-17153714D02*
X8366662Y-17163238D01*
X8576186Y-17277524D02*
X8557139Y-17268000D01*
X8557139Y-17268000D02*
X8547615Y-17258476D01*
X8547615Y-17258476D02*
X8538091Y-17239428D01*
X8538091Y-17239428D02*
X8538091Y-17182286D01*
X8538091Y-17182286D02*
X8547615Y-17163238D01*
X8547615Y-17163238D02*
X8557139Y-17153714D01*
X8557139Y-17153714D02*
X8576186Y-17144190D01*
X8576186Y-17144190D02*
X8604758Y-17144190D01*
X8604758Y-17144190D02*
X8623805Y-17153714D01*
X8623805Y-17153714D02*
X8633329Y-17163238D01*
X8633329Y-17163238D02*
X8642853Y-17182286D01*
X8642853Y-17182286D02*
X8642853Y-17239428D01*
X8642853Y-17239428D02*
X8633329Y-17258476D01*
X8633329Y-17258476D02*
X8623805Y-17268000D01*
X8623805Y-17268000D02*
X8604758Y-17277524D01*
X8604758Y-17277524D02*
X8576186Y-17277524D01*
X8757139Y-17277524D02*
X8738091Y-17268000D01*
X8738091Y-17268000D02*
X8728567Y-17248952D01*
X8728567Y-17248952D02*
X8728567Y-17077524D01*
X8909520Y-17268000D02*
X8890472Y-17277524D01*
X8890472Y-17277524D02*
X8852377Y-17277524D01*
X8852377Y-17277524D02*
X8833329Y-17268000D01*
X8833329Y-17268000D02*
X8823805Y-17248952D01*
X8823805Y-17248952D02*
X8823805Y-17172762D01*
X8823805Y-17172762D02*
X8833329Y-17153714D01*
X8833329Y-17153714D02*
X8852377Y-17144190D01*
X8852377Y-17144190D02*
X8890472Y-17144190D01*
X8890472Y-17144190D02*
X8909520Y-17153714D01*
X8909520Y-17153714D02*
X8919043Y-17172762D01*
X8919043Y-17172762D02*
X8919043Y-17191809D01*
X8919043Y-17191809D02*
X8823805Y-17210857D01*
X8995234Y-17268000D02*
X9014282Y-17277524D01*
X9014282Y-17277524D02*
X9052377Y-17277524D01*
X9052377Y-17277524D02*
X9071424Y-17268000D01*
X9071424Y-17268000D02*
X9080948Y-17248952D01*
X9080948Y-17248952D02*
X9080948Y-17239428D01*
X9080948Y-17239428D02*
X9071424Y-17220381D01*
X9071424Y-17220381D02*
X9052377Y-17210857D01*
X9052377Y-17210857D02*
X9023805Y-17210857D01*
X9023805Y-17210857D02*
X9004758Y-17201333D01*
X9004758Y-17201333D02*
X8995234Y-17182286D01*
X8995234Y-17182286D02*
X8995234Y-17172762D01*
X8995234Y-17172762D02*
X9004758Y-17153714D01*
X9004758Y-17153714D02*
X9023805Y-17144190D01*
X9023805Y-17144190D02*
X9052377Y-17144190D01*
X9052377Y-17144190D02*
X9071424Y-17153714D01*
X9147615Y-17353714D02*
X9157139Y-17344190D01*
X9157139Y-17344190D02*
X9176186Y-17315619D01*
X9176186Y-17315619D02*
X9185710Y-17296571D01*
X9185710Y-17296571D02*
X9195234Y-17268000D01*
X9195234Y-17268000D02*
X9204758Y-17220381D01*
X9204758Y-17220381D02*
X9204758Y-17182286D01*
X9204758Y-17182286D02*
X9195234Y-17134666D01*
X9195234Y-17134666D02*
X9185710Y-17106095D01*
X9185710Y-17106095D02*
X9176186Y-17087047D01*
X9176186Y-17087047D02*
X9157139Y-17058476D01*
X9157139Y-17058476D02*
X9147615Y-17048952D01*
D12*
X4004757Y-17449000D02*
G75*
G03*
X4004757Y-17449000I-45720J0D01*
G01*
D10*
X4290472Y-17341524D02*
X4309519Y-17341524D01*
X4309519Y-17341524D02*
X4328567Y-17351047D01*
X4328567Y-17351047D02*
X4338091Y-17360571D01*
X4338091Y-17360571D02*
X4347614Y-17379619D01*
X4347614Y-17379619D02*
X4357138Y-17417714D01*
X4357138Y-17417714D02*
X4357138Y-17465333D01*
X4357138Y-17465333D02*
X4347614Y-17503428D01*
X4347614Y-17503428D02*
X4338091Y-17522476D01*
X4338091Y-17522476D02*
X4328567Y-17532000D01*
X4328567Y-17532000D02*
X4309519Y-17541524D01*
X4309519Y-17541524D02*
X4290472Y-17541524D01*
X4290472Y-17541524D02*
X4271424Y-17532000D01*
X4271424Y-17532000D02*
X4261900Y-17522476D01*
X4261900Y-17522476D02*
X4252376Y-17503428D01*
X4252376Y-17503428D02*
X4242853Y-17465333D01*
X4242853Y-17465333D02*
X4242853Y-17417714D01*
X4242853Y-17417714D02*
X4252376Y-17379619D01*
X4252376Y-17379619D02*
X4261900Y-17360571D01*
X4261900Y-17360571D02*
X4271424Y-17351047D01*
X4271424Y-17351047D02*
X4290472Y-17341524D01*
X4442853Y-17522476D02*
X4452376Y-17532000D01*
X4452376Y-17532000D02*
X4442853Y-17541524D01*
X4442853Y-17541524D02*
X4433329Y-17532000D01*
X4433329Y-17532000D02*
X4442853Y-17522476D01*
X4442853Y-17522476D02*
X4442853Y-17541524D01*
X4547614Y-17541524D02*
X4585710Y-17541524D01*
X4585710Y-17541524D02*
X4604757Y-17532000D01*
X4604757Y-17532000D02*
X4614281Y-17522476D01*
X4614281Y-17522476D02*
X4633329Y-17493905D01*
X4633329Y-17493905D02*
X4642853Y-17455809D01*
X4642853Y-17455809D02*
X4642853Y-17379619D01*
X4642853Y-17379619D02*
X4633329Y-17360571D01*
X4633329Y-17360571D02*
X4623805Y-17351047D01*
X4623805Y-17351047D02*
X4604757Y-17341524D01*
X4604757Y-17341524D02*
X4566662Y-17341524D01*
X4566662Y-17341524D02*
X4547614Y-17351047D01*
X4547614Y-17351047D02*
X4538091Y-17360571D01*
X4538091Y-17360571D02*
X4528567Y-17379619D01*
X4528567Y-17379619D02*
X4528567Y-17427238D01*
X4528567Y-17427238D02*
X4538091Y-17446286D01*
X4538091Y-17446286D02*
X4547614Y-17455809D01*
X4547614Y-17455809D02*
X4566662Y-17465333D01*
X4566662Y-17465333D02*
X4604757Y-17465333D01*
X4604757Y-17465333D02*
X4623805Y-17455809D01*
X4623805Y-17455809D02*
X4633329Y-17446286D01*
X4633329Y-17446286D02*
X4642853Y-17427238D01*
X4833329Y-17541524D02*
X4719043Y-17541524D01*
X4776186Y-17541524D02*
X4776186Y-17341524D01*
X4776186Y-17341524D02*
X4757138Y-17370095D01*
X4757138Y-17370095D02*
X4738091Y-17389143D01*
X4738091Y-17389143D02*
X4719043Y-17398666D01*
X5004757Y-17408190D02*
X5004757Y-17541524D01*
X4957138Y-17332000D02*
X4909519Y-17474857D01*
X4909519Y-17474857D02*
X5033329Y-17474857D01*
X5109519Y-17541524D02*
X5109519Y-17408190D01*
X5109519Y-17427238D02*
X5119043Y-17417714D01*
X5119043Y-17417714D02*
X5138091Y-17408190D01*
X5138091Y-17408190D02*
X5166662Y-17408190D01*
X5166662Y-17408190D02*
X5185710Y-17417714D01*
X5185710Y-17417714D02*
X5195234Y-17436762D01*
X5195234Y-17436762D02*
X5195234Y-17541524D01*
X5195234Y-17436762D02*
X5204757Y-17417714D01*
X5204757Y-17417714D02*
X5223805Y-17408190D01*
X5223805Y-17408190D02*
X5252376Y-17408190D01*
X5252376Y-17408190D02*
X5271424Y-17417714D01*
X5271424Y-17417714D02*
X5280948Y-17436762D01*
X5280948Y-17436762D02*
X5280948Y-17541524D01*
X5376186Y-17541524D02*
X5376186Y-17408190D01*
X5376186Y-17427238D02*
X5385710Y-17417714D01*
X5385710Y-17417714D02*
X5404757Y-17408190D01*
X5404757Y-17408190D02*
X5433329Y-17408190D01*
X5433329Y-17408190D02*
X5452376Y-17417714D01*
X5452376Y-17417714D02*
X5461900Y-17436762D01*
X5461900Y-17436762D02*
X5461900Y-17541524D01*
X5461900Y-17436762D02*
X5471424Y-17417714D01*
X5471424Y-17417714D02*
X5490472Y-17408190D01*
X5490472Y-17408190D02*
X5519043Y-17408190D01*
X5519043Y-17408190D02*
X5538091Y-17417714D01*
X5538091Y-17417714D02*
X5547615Y-17436762D01*
X5547615Y-17436762D02*
X5547615Y-17541524D01*
X5938091Y-17332000D02*
X5766662Y-17589143D01*
X6195234Y-17341524D02*
X6214281Y-17341524D01*
X6214281Y-17341524D02*
X6233329Y-17351047D01*
X6233329Y-17351047D02*
X6242853Y-17360571D01*
X6242853Y-17360571D02*
X6252376Y-17379619D01*
X6252376Y-17379619D02*
X6261900Y-17417714D01*
X6261900Y-17417714D02*
X6261900Y-17465333D01*
X6261900Y-17465333D02*
X6252376Y-17503428D01*
X6252376Y-17503428D02*
X6242853Y-17522476D01*
X6242853Y-17522476D02*
X6233329Y-17532000D01*
X6233329Y-17532000D02*
X6214281Y-17541524D01*
X6214281Y-17541524D02*
X6195234Y-17541524D01*
X6195234Y-17541524D02*
X6176186Y-17532000D01*
X6176186Y-17532000D02*
X6166662Y-17522476D01*
X6166662Y-17522476D02*
X6157138Y-17503428D01*
X6157138Y-17503428D02*
X6147615Y-17465333D01*
X6147615Y-17465333D02*
X6147615Y-17417714D01*
X6147615Y-17417714D02*
X6157138Y-17379619D01*
X6157138Y-17379619D02*
X6166662Y-17360571D01*
X6166662Y-17360571D02*
X6176186Y-17351047D01*
X6176186Y-17351047D02*
X6195234Y-17341524D01*
X6347615Y-17522476D02*
X6357138Y-17532000D01*
X6357138Y-17532000D02*
X6347615Y-17541524D01*
X6347615Y-17541524D02*
X6338091Y-17532000D01*
X6338091Y-17532000D02*
X6347615Y-17522476D01*
X6347615Y-17522476D02*
X6347615Y-17541524D01*
X6480948Y-17341524D02*
X6499996Y-17341524D01*
X6499996Y-17341524D02*
X6519043Y-17351047D01*
X6519043Y-17351047D02*
X6528567Y-17360571D01*
X6528567Y-17360571D02*
X6538091Y-17379619D01*
X6538091Y-17379619D02*
X6547615Y-17417714D01*
X6547615Y-17417714D02*
X6547615Y-17465333D01*
X6547615Y-17465333D02*
X6538091Y-17503428D01*
X6538091Y-17503428D02*
X6528567Y-17522476D01*
X6528567Y-17522476D02*
X6519043Y-17532000D01*
X6519043Y-17532000D02*
X6499996Y-17541524D01*
X6499996Y-17541524D02*
X6480948Y-17541524D01*
X6480948Y-17541524D02*
X6461900Y-17532000D01*
X6461900Y-17532000D02*
X6452376Y-17522476D01*
X6452376Y-17522476D02*
X6442853Y-17503428D01*
X6442853Y-17503428D02*
X6433329Y-17465333D01*
X6433329Y-17465333D02*
X6433329Y-17417714D01*
X6433329Y-17417714D02*
X6442853Y-17379619D01*
X6442853Y-17379619D02*
X6452376Y-17360571D01*
X6452376Y-17360571D02*
X6461900Y-17351047D01*
X6461900Y-17351047D02*
X6480948Y-17341524D01*
X6614281Y-17341524D02*
X6738091Y-17341524D01*
X6738091Y-17341524D02*
X6671424Y-17417714D01*
X6671424Y-17417714D02*
X6699996Y-17417714D01*
X6699996Y-17417714D02*
X6719043Y-17427238D01*
X6719043Y-17427238D02*
X6728567Y-17436762D01*
X6728567Y-17436762D02*
X6738091Y-17455809D01*
X6738091Y-17455809D02*
X6738091Y-17503428D01*
X6738091Y-17503428D02*
X6728567Y-17522476D01*
X6728567Y-17522476D02*
X6719043Y-17532000D01*
X6719043Y-17532000D02*
X6699996Y-17541524D01*
X6699996Y-17541524D02*
X6642853Y-17541524D01*
X6642853Y-17541524D02*
X6623805Y-17532000D01*
X6623805Y-17532000D02*
X6614281Y-17522476D01*
X6909519Y-17341524D02*
X6871424Y-17341524D01*
X6871424Y-17341524D02*
X6852376Y-17351047D01*
X6852376Y-17351047D02*
X6842853Y-17360571D01*
X6842853Y-17360571D02*
X6823805Y-17389143D01*
X6823805Y-17389143D02*
X6814281Y-17427238D01*
X6814281Y-17427238D02*
X6814281Y-17503428D01*
X6814281Y-17503428D02*
X6823805Y-17522476D01*
X6823805Y-17522476D02*
X6833329Y-17532000D01*
X6833329Y-17532000D02*
X6852376Y-17541524D01*
X6852376Y-17541524D02*
X6890472Y-17541524D01*
X6890472Y-17541524D02*
X6909519Y-17532000D01*
X6909519Y-17532000D02*
X6919043Y-17522476D01*
X6919043Y-17522476D02*
X6928567Y-17503428D01*
X6928567Y-17503428D02*
X6928567Y-17455809D01*
X6928567Y-17455809D02*
X6919043Y-17436762D01*
X6919043Y-17436762D02*
X6909519Y-17427238D01*
X6909519Y-17427238D02*
X6890472Y-17417714D01*
X6890472Y-17417714D02*
X6852376Y-17417714D01*
X6852376Y-17417714D02*
X6833329Y-17427238D01*
X6833329Y-17427238D02*
X6823805Y-17436762D01*
X6823805Y-17436762D02*
X6814281Y-17455809D01*
X7052376Y-17341524D02*
X7071424Y-17341524D01*
X7071424Y-17341524D02*
X7090472Y-17351047D01*
X7090472Y-17351047D02*
X7099996Y-17360571D01*
X7099996Y-17360571D02*
X7109519Y-17379619D01*
X7109519Y-17379619D02*
X7119043Y-17417714D01*
X7119043Y-17417714D02*
X7119043Y-17465333D01*
X7119043Y-17465333D02*
X7109519Y-17503428D01*
X7109519Y-17503428D02*
X7099996Y-17522476D01*
X7099996Y-17522476D02*
X7090472Y-17532000D01*
X7090472Y-17532000D02*
X7071424Y-17541524D01*
X7071424Y-17541524D02*
X7052376Y-17541524D01*
X7052376Y-17541524D02*
X7033329Y-17532000D01*
X7033329Y-17532000D02*
X7023805Y-17522476D01*
X7023805Y-17522476D02*
X7014281Y-17503428D01*
X7014281Y-17503428D02*
X7004757Y-17465333D01*
X7004757Y-17465333D02*
X7004757Y-17417714D01*
X7004757Y-17417714D02*
X7014281Y-17379619D01*
X7014281Y-17379619D02*
X7023805Y-17360571D01*
X7023805Y-17360571D02*
X7033329Y-17351047D01*
X7033329Y-17351047D02*
X7052376Y-17341524D01*
X7195234Y-17341524D02*
X7195234Y-17379619D01*
X7271424Y-17341524D02*
X7271424Y-17379619D01*
X7566662Y-17617714D02*
X7557138Y-17608190D01*
X7557138Y-17608190D02*
X7538091Y-17579619D01*
X7538091Y-17579619D02*
X7528567Y-17560571D01*
X7528567Y-17560571D02*
X7519043Y-17532000D01*
X7519043Y-17532000D02*
X7509519Y-17484381D01*
X7509519Y-17484381D02*
X7509519Y-17446286D01*
X7509519Y-17446286D02*
X7519043Y-17398666D01*
X7519043Y-17398666D02*
X7528567Y-17370095D01*
X7528567Y-17370095D02*
X7538091Y-17351047D01*
X7538091Y-17351047D02*
X7557138Y-17322476D01*
X7557138Y-17322476D02*
X7566662Y-17312952D01*
X7623805Y-17341524D02*
X7747615Y-17341524D01*
X7747615Y-17341524D02*
X7680948Y-17417714D01*
X7680948Y-17417714D02*
X7709519Y-17417714D01*
X7709519Y-17417714D02*
X7728567Y-17427238D01*
X7728567Y-17427238D02*
X7738091Y-17436762D01*
X7738091Y-17436762D02*
X7747615Y-17455809D01*
X7747615Y-17455809D02*
X7747615Y-17503428D01*
X7747615Y-17503428D02*
X7738091Y-17522476D01*
X7738091Y-17522476D02*
X7728567Y-17532000D01*
X7728567Y-17532000D02*
X7709519Y-17541524D01*
X7709519Y-17541524D02*
X7652377Y-17541524D01*
X7652377Y-17541524D02*
X7633329Y-17532000D01*
X7633329Y-17532000D02*
X7623805Y-17522476D01*
X7985710Y-17541524D02*
X7985710Y-17341524D01*
X8071424Y-17541524D02*
X8071424Y-17436762D01*
X8071424Y-17436762D02*
X8061900Y-17417714D01*
X8061900Y-17417714D02*
X8042853Y-17408190D01*
X8042853Y-17408190D02*
X8014281Y-17408190D01*
X8014281Y-17408190D02*
X7995234Y-17417714D01*
X7995234Y-17417714D02*
X7985710Y-17427238D01*
X8195234Y-17541524D02*
X8176186Y-17532000D01*
X8176186Y-17532000D02*
X8166662Y-17522476D01*
X8166662Y-17522476D02*
X8157139Y-17503428D01*
X8157139Y-17503428D02*
X8157139Y-17446286D01*
X8157139Y-17446286D02*
X8166662Y-17427238D01*
X8166662Y-17427238D02*
X8176186Y-17417714D01*
X8176186Y-17417714D02*
X8195234Y-17408190D01*
X8195234Y-17408190D02*
X8223805Y-17408190D01*
X8223805Y-17408190D02*
X8242853Y-17417714D01*
X8242853Y-17417714D02*
X8252377Y-17427238D01*
X8252377Y-17427238D02*
X8261900Y-17446286D01*
X8261900Y-17446286D02*
X8261900Y-17503428D01*
X8261900Y-17503428D02*
X8252377Y-17522476D01*
X8252377Y-17522476D02*
X8242853Y-17532000D01*
X8242853Y-17532000D02*
X8223805Y-17541524D01*
X8223805Y-17541524D02*
X8195234Y-17541524D01*
X8376186Y-17541524D02*
X8357139Y-17532000D01*
X8357139Y-17532000D02*
X8347615Y-17512952D01*
X8347615Y-17512952D02*
X8347615Y-17341524D01*
X8528567Y-17532000D02*
X8509520Y-17541524D01*
X8509520Y-17541524D02*
X8471424Y-17541524D01*
X8471424Y-17541524D02*
X8452377Y-17532000D01*
X8452377Y-17532000D02*
X8442853Y-17512952D01*
X8442853Y-17512952D02*
X8442853Y-17436762D01*
X8442853Y-17436762D02*
X8452377Y-17417714D01*
X8452377Y-17417714D02*
X8471424Y-17408190D01*
X8471424Y-17408190D02*
X8509520Y-17408190D01*
X8509520Y-17408190D02*
X8528567Y-17417714D01*
X8528567Y-17417714D02*
X8538091Y-17436762D01*
X8538091Y-17436762D02*
X8538091Y-17455809D01*
X8538091Y-17455809D02*
X8442853Y-17474857D01*
X8614282Y-17532000D02*
X8633329Y-17541524D01*
X8633329Y-17541524D02*
X8671424Y-17541524D01*
X8671424Y-17541524D02*
X8690472Y-17532000D01*
X8690472Y-17532000D02*
X8699996Y-17512952D01*
X8699996Y-17512952D02*
X8699996Y-17503428D01*
X8699996Y-17503428D02*
X8690472Y-17484381D01*
X8690472Y-17484381D02*
X8671424Y-17474857D01*
X8671424Y-17474857D02*
X8642853Y-17474857D01*
X8642853Y-17474857D02*
X8623805Y-17465333D01*
X8623805Y-17465333D02*
X8614282Y-17446286D01*
X8614282Y-17446286D02*
X8614282Y-17436762D01*
X8614282Y-17436762D02*
X8623805Y-17417714D01*
X8623805Y-17417714D02*
X8642853Y-17408190D01*
X8642853Y-17408190D02*
X8671424Y-17408190D01*
X8671424Y-17408190D02*
X8690472Y-17417714D01*
X8766663Y-17617714D02*
X8776186Y-17608190D01*
X8776186Y-17608190D02*
X8795234Y-17579619D01*
X8795234Y-17579619D02*
X8804758Y-17560571D01*
X8804758Y-17560571D02*
X8814282Y-17532000D01*
X8814282Y-17532000D02*
X8823805Y-17484381D01*
X8823805Y-17484381D02*
X8823805Y-17446286D01*
X8823805Y-17446286D02*
X8814282Y-17398666D01*
X8814282Y-17398666D02*
X8804758Y-17370095D01*
X8804758Y-17370095D02*
X8795234Y-17351047D01*
X8795234Y-17351047D02*
X8776186Y-17322476D01*
X8776186Y-17322476D02*
X8766663Y-17312952D01*
D13*
X3954757Y-17663000D02*
X3954757Y-17763000D01*
X3904757Y-17713000D02*
X4004757Y-17713000D01*
D10*
X4357138Y-17805524D02*
X4242853Y-17805524D01*
X4299995Y-17805524D02*
X4299995Y-17605524D01*
X4299995Y-17605524D02*
X4280948Y-17634095D01*
X4280948Y-17634095D02*
X4261900Y-17653143D01*
X4261900Y-17653143D02*
X4242853Y-17662666D01*
X4442853Y-17786476D02*
X4452376Y-17796000D01*
X4452376Y-17796000D02*
X4442853Y-17805524D01*
X4442853Y-17805524D02*
X4433329Y-17796000D01*
X4433329Y-17796000D02*
X4442853Y-17786476D01*
X4442853Y-17786476D02*
X4442853Y-17805524D01*
X4576186Y-17605524D02*
X4595234Y-17605524D01*
X4595234Y-17605524D02*
X4614281Y-17615047D01*
X4614281Y-17615047D02*
X4623805Y-17624571D01*
X4623805Y-17624571D02*
X4633329Y-17643619D01*
X4633329Y-17643619D02*
X4642853Y-17681714D01*
X4642853Y-17681714D02*
X4642853Y-17729333D01*
X4642853Y-17729333D02*
X4633329Y-17767428D01*
X4633329Y-17767428D02*
X4623805Y-17786476D01*
X4623805Y-17786476D02*
X4614281Y-17796000D01*
X4614281Y-17796000D02*
X4595234Y-17805524D01*
X4595234Y-17805524D02*
X4576186Y-17805524D01*
X4576186Y-17805524D02*
X4557138Y-17796000D01*
X4557138Y-17796000D02*
X4547614Y-17786476D01*
X4547614Y-17786476D02*
X4538091Y-17767428D01*
X4538091Y-17767428D02*
X4528567Y-17729333D01*
X4528567Y-17729333D02*
X4528567Y-17681714D01*
X4528567Y-17681714D02*
X4538091Y-17643619D01*
X4538091Y-17643619D02*
X4547614Y-17624571D01*
X4547614Y-17624571D02*
X4557138Y-17615047D01*
X4557138Y-17615047D02*
X4576186Y-17605524D01*
X4766662Y-17605524D02*
X4785710Y-17605524D01*
X4785710Y-17605524D02*
X4804757Y-17615047D01*
X4804757Y-17615047D02*
X4814281Y-17624571D01*
X4814281Y-17624571D02*
X4823805Y-17643619D01*
X4823805Y-17643619D02*
X4833329Y-17681714D01*
X4833329Y-17681714D02*
X4833329Y-17729333D01*
X4833329Y-17729333D02*
X4823805Y-17767428D01*
X4823805Y-17767428D02*
X4814281Y-17786476D01*
X4814281Y-17786476D02*
X4804757Y-17796000D01*
X4804757Y-17796000D02*
X4785710Y-17805524D01*
X4785710Y-17805524D02*
X4766662Y-17805524D01*
X4766662Y-17805524D02*
X4747614Y-17796000D01*
X4747614Y-17796000D02*
X4738091Y-17786476D01*
X4738091Y-17786476D02*
X4728567Y-17767428D01*
X4728567Y-17767428D02*
X4719043Y-17729333D01*
X4719043Y-17729333D02*
X4719043Y-17681714D01*
X4719043Y-17681714D02*
X4728567Y-17643619D01*
X4728567Y-17643619D02*
X4738091Y-17624571D01*
X4738091Y-17624571D02*
X4747614Y-17615047D01*
X4747614Y-17615047D02*
X4766662Y-17605524D01*
X4957138Y-17605524D02*
X4976186Y-17605524D01*
X4976186Y-17605524D02*
X4995234Y-17615047D01*
X4995234Y-17615047D02*
X5004757Y-17624571D01*
X5004757Y-17624571D02*
X5014281Y-17643619D01*
X5014281Y-17643619D02*
X5023805Y-17681714D01*
X5023805Y-17681714D02*
X5023805Y-17729333D01*
X5023805Y-17729333D02*
X5014281Y-17767428D01*
X5014281Y-17767428D02*
X5004757Y-17786476D01*
X5004757Y-17786476D02*
X4995234Y-17796000D01*
X4995234Y-17796000D02*
X4976186Y-17805524D01*
X4976186Y-17805524D02*
X4957138Y-17805524D01*
X4957138Y-17805524D02*
X4938091Y-17796000D01*
X4938091Y-17796000D02*
X4928567Y-17786476D01*
X4928567Y-17786476D02*
X4919043Y-17767428D01*
X4919043Y-17767428D02*
X4909519Y-17729333D01*
X4909519Y-17729333D02*
X4909519Y-17681714D01*
X4909519Y-17681714D02*
X4919043Y-17643619D01*
X4919043Y-17643619D02*
X4928567Y-17624571D01*
X4928567Y-17624571D02*
X4938091Y-17615047D01*
X4938091Y-17615047D02*
X4957138Y-17605524D01*
X5109519Y-17805524D02*
X5109519Y-17672190D01*
X5109519Y-17691238D02*
X5119043Y-17681714D01*
X5119043Y-17681714D02*
X5138091Y-17672190D01*
X5138091Y-17672190D02*
X5166662Y-17672190D01*
X5166662Y-17672190D02*
X5185710Y-17681714D01*
X5185710Y-17681714D02*
X5195234Y-17700762D01*
X5195234Y-17700762D02*
X5195234Y-17805524D01*
X5195234Y-17700762D02*
X5204757Y-17681714D01*
X5204757Y-17681714D02*
X5223805Y-17672190D01*
X5223805Y-17672190D02*
X5252376Y-17672190D01*
X5252376Y-17672190D02*
X5271424Y-17681714D01*
X5271424Y-17681714D02*
X5280948Y-17700762D01*
X5280948Y-17700762D02*
X5280948Y-17805524D01*
X5376186Y-17805524D02*
X5376186Y-17672190D01*
X5376186Y-17691238D02*
X5385710Y-17681714D01*
X5385710Y-17681714D02*
X5404757Y-17672190D01*
X5404757Y-17672190D02*
X5433329Y-17672190D01*
X5433329Y-17672190D02*
X5452376Y-17681714D01*
X5452376Y-17681714D02*
X5461900Y-17700762D01*
X5461900Y-17700762D02*
X5461900Y-17805524D01*
X5461900Y-17700762D02*
X5471424Y-17681714D01*
X5471424Y-17681714D02*
X5490472Y-17672190D01*
X5490472Y-17672190D02*
X5519043Y-17672190D01*
X5519043Y-17672190D02*
X5538091Y-17681714D01*
X5538091Y-17681714D02*
X5547615Y-17700762D01*
X5547615Y-17700762D02*
X5547615Y-17805524D01*
X5938091Y-17596000D02*
X5766662Y-17853143D01*
X6195234Y-17605524D02*
X6214281Y-17605524D01*
X6214281Y-17605524D02*
X6233329Y-17615047D01*
X6233329Y-17615047D02*
X6242853Y-17624571D01*
X6242853Y-17624571D02*
X6252376Y-17643619D01*
X6252376Y-17643619D02*
X6261900Y-17681714D01*
X6261900Y-17681714D02*
X6261900Y-17729333D01*
X6261900Y-17729333D02*
X6252376Y-17767428D01*
X6252376Y-17767428D02*
X6242853Y-17786476D01*
X6242853Y-17786476D02*
X6233329Y-17796000D01*
X6233329Y-17796000D02*
X6214281Y-17805524D01*
X6214281Y-17805524D02*
X6195234Y-17805524D01*
X6195234Y-17805524D02*
X6176186Y-17796000D01*
X6176186Y-17796000D02*
X6166662Y-17786476D01*
X6166662Y-17786476D02*
X6157138Y-17767428D01*
X6157138Y-17767428D02*
X6147615Y-17729333D01*
X6147615Y-17729333D02*
X6147615Y-17681714D01*
X6147615Y-17681714D02*
X6157138Y-17643619D01*
X6157138Y-17643619D02*
X6166662Y-17624571D01*
X6166662Y-17624571D02*
X6176186Y-17615047D01*
X6176186Y-17615047D02*
X6195234Y-17605524D01*
X6347615Y-17786476D02*
X6357138Y-17796000D01*
X6357138Y-17796000D02*
X6347615Y-17805524D01*
X6347615Y-17805524D02*
X6338091Y-17796000D01*
X6338091Y-17796000D02*
X6347615Y-17786476D01*
X6347615Y-17786476D02*
X6347615Y-17805524D01*
X6480948Y-17605524D02*
X6499996Y-17605524D01*
X6499996Y-17605524D02*
X6519043Y-17615047D01*
X6519043Y-17615047D02*
X6528567Y-17624571D01*
X6528567Y-17624571D02*
X6538091Y-17643619D01*
X6538091Y-17643619D02*
X6547615Y-17681714D01*
X6547615Y-17681714D02*
X6547615Y-17729333D01*
X6547615Y-17729333D02*
X6538091Y-17767428D01*
X6538091Y-17767428D02*
X6528567Y-17786476D01*
X6528567Y-17786476D02*
X6519043Y-17796000D01*
X6519043Y-17796000D02*
X6499996Y-17805524D01*
X6499996Y-17805524D02*
X6480948Y-17805524D01*
X6480948Y-17805524D02*
X6461900Y-17796000D01*
X6461900Y-17796000D02*
X6452376Y-17786476D01*
X6452376Y-17786476D02*
X6442853Y-17767428D01*
X6442853Y-17767428D02*
X6433329Y-17729333D01*
X6433329Y-17729333D02*
X6433329Y-17681714D01*
X6433329Y-17681714D02*
X6442853Y-17643619D01*
X6442853Y-17643619D02*
X6452376Y-17624571D01*
X6452376Y-17624571D02*
X6461900Y-17615047D01*
X6461900Y-17615047D02*
X6480948Y-17605524D01*
X6614281Y-17605524D02*
X6738091Y-17605524D01*
X6738091Y-17605524D02*
X6671424Y-17681714D01*
X6671424Y-17681714D02*
X6699996Y-17681714D01*
X6699996Y-17681714D02*
X6719043Y-17691238D01*
X6719043Y-17691238D02*
X6728567Y-17700762D01*
X6728567Y-17700762D02*
X6738091Y-17719809D01*
X6738091Y-17719809D02*
X6738091Y-17767428D01*
X6738091Y-17767428D02*
X6728567Y-17786476D01*
X6728567Y-17786476D02*
X6719043Y-17796000D01*
X6719043Y-17796000D02*
X6699996Y-17805524D01*
X6699996Y-17805524D02*
X6642853Y-17805524D01*
X6642853Y-17805524D02*
X6623805Y-17796000D01*
X6623805Y-17796000D02*
X6614281Y-17786476D01*
X6833329Y-17805524D02*
X6871424Y-17805524D01*
X6871424Y-17805524D02*
X6890472Y-17796000D01*
X6890472Y-17796000D02*
X6899996Y-17786476D01*
X6899996Y-17786476D02*
X6919043Y-17757905D01*
X6919043Y-17757905D02*
X6928567Y-17719809D01*
X6928567Y-17719809D02*
X6928567Y-17643619D01*
X6928567Y-17643619D02*
X6919043Y-17624571D01*
X6919043Y-17624571D02*
X6909519Y-17615047D01*
X6909519Y-17615047D02*
X6890472Y-17605524D01*
X6890472Y-17605524D02*
X6852376Y-17605524D01*
X6852376Y-17605524D02*
X6833329Y-17615047D01*
X6833329Y-17615047D02*
X6823805Y-17624571D01*
X6823805Y-17624571D02*
X6814281Y-17643619D01*
X6814281Y-17643619D02*
X6814281Y-17691238D01*
X6814281Y-17691238D02*
X6823805Y-17710286D01*
X6823805Y-17710286D02*
X6833329Y-17719809D01*
X6833329Y-17719809D02*
X6852376Y-17729333D01*
X6852376Y-17729333D02*
X6890472Y-17729333D01*
X6890472Y-17729333D02*
X6909519Y-17719809D01*
X6909519Y-17719809D02*
X6919043Y-17710286D01*
X6919043Y-17710286D02*
X6928567Y-17691238D01*
X7099996Y-17672190D02*
X7099996Y-17805524D01*
X7052376Y-17596000D02*
X7004757Y-17738857D01*
X7004757Y-17738857D02*
X7128567Y-17738857D01*
X7195234Y-17605524D02*
X7195234Y-17643619D01*
X7271424Y-17605524D02*
X7271424Y-17643619D01*
X7566662Y-17881714D02*
X7557138Y-17872190D01*
X7557138Y-17872190D02*
X7538091Y-17843619D01*
X7538091Y-17843619D02*
X7528567Y-17824571D01*
X7528567Y-17824571D02*
X7519043Y-17796000D01*
X7519043Y-17796000D02*
X7509519Y-17748381D01*
X7509519Y-17748381D02*
X7509519Y-17710286D01*
X7509519Y-17710286D02*
X7519043Y-17662666D01*
X7519043Y-17662666D02*
X7528567Y-17634095D01*
X7528567Y-17634095D02*
X7538091Y-17615047D01*
X7538091Y-17615047D02*
X7557138Y-17586476D01*
X7557138Y-17586476D02*
X7566662Y-17576952D01*
X7747615Y-17805524D02*
X7633329Y-17805524D01*
X7690472Y-17805524D02*
X7690472Y-17605524D01*
X7690472Y-17605524D02*
X7671424Y-17634095D01*
X7671424Y-17634095D02*
X7652377Y-17653143D01*
X7652377Y-17653143D02*
X7633329Y-17662666D01*
X7814281Y-17605524D02*
X7947615Y-17605524D01*
X7947615Y-17605524D02*
X7861900Y-17805524D01*
X8176186Y-17805524D02*
X8176186Y-17605524D01*
X8261900Y-17805524D02*
X8261900Y-17700762D01*
X8261900Y-17700762D02*
X8252377Y-17681714D01*
X8252377Y-17681714D02*
X8233329Y-17672190D01*
X8233329Y-17672190D02*
X8204758Y-17672190D01*
X8204758Y-17672190D02*
X8185710Y-17681714D01*
X8185710Y-17681714D02*
X8176186Y-17691238D01*
X8385710Y-17805524D02*
X8366662Y-17796000D01*
X8366662Y-17796000D02*
X8357139Y-17786476D01*
X8357139Y-17786476D02*
X8347615Y-17767428D01*
X8347615Y-17767428D02*
X8347615Y-17710286D01*
X8347615Y-17710286D02*
X8357139Y-17691238D01*
X8357139Y-17691238D02*
X8366662Y-17681714D01*
X8366662Y-17681714D02*
X8385710Y-17672190D01*
X8385710Y-17672190D02*
X8414282Y-17672190D01*
X8414282Y-17672190D02*
X8433329Y-17681714D01*
X8433329Y-17681714D02*
X8442853Y-17691238D01*
X8442853Y-17691238D02*
X8452377Y-17710286D01*
X8452377Y-17710286D02*
X8452377Y-17767428D01*
X8452377Y-17767428D02*
X8442853Y-17786476D01*
X8442853Y-17786476D02*
X8433329Y-17796000D01*
X8433329Y-17796000D02*
X8414282Y-17805524D01*
X8414282Y-17805524D02*
X8385710Y-17805524D01*
X8566662Y-17805524D02*
X8547615Y-17796000D01*
X8547615Y-17796000D02*
X8538091Y-17776952D01*
X8538091Y-17776952D02*
X8538091Y-17605524D01*
X8719043Y-17796000D02*
X8699996Y-17805524D01*
X8699996Y-17805524D02*
X8661901Y-17805524D01*
X8661901Y-17805524D02*
X8642853Y-17796000D01*
X8642853Y-17796000D02*
X8633329Y-17776952D01*
X8633329Y-17776952D02*
X8633329Y-17700762D01*
X8633329Y-17700762D02*
X8642853Y-17681714D01*
X8642853Y-17681714D02*
X8661901Y-17672190D01*
X8661901Y-17672190D02*
X8699996Y-17672190D01*
X8699996Y-17672190D02*
X8719043Y-17681714D01*
X8719043Y-17681714D02*
X8728567Y-17700762D01*
X8728567Y-17700762D02*
X8728567Y-17719809D01*
X8728567Y-17719809D02*
X8633329Y-17738857D01*
X8804758Y-17796000D02*
X8823805Y-17805524D01*
X8823805Y-17805524D02*
X8861901Y-17805524D01*
X8861901Y-17805524D02*
X8880948Y-17796000D01*
X8880948Y-17796000D02*
X8890472Y-17776952D01*
X8890472Y-17776952D02*
X8890472Y-17767428D01*
X8890472Y-17767428D02*
X8880948Y-17748381D01*
X8880948Y-17748381D02*
X8861901Y-17738857D01*
X8861901Y-17738857D02*
X8833329Y-17738857D01*
X8833329Y-17738857D02*
X8814282Y-17729333D01*
X8814282Y-17729333D02*
X8804758Y-17710286D01*
X8804758Y-17710286D02*
X8804758Y-17700762D01*
X8804758Y-17700762D02*
X8814282Y-17681714D01*
X8814282Y-17681714D02*
X8833329Y-17672190D01*
X8833329Y-17672190D02*
X8861901Y-17672190D01*
X8861901Y-17672190D02*
X8880948Y-17681714D01*
X8957139Y-17881714D02*
X8966663Y-17872190D01*
X8966663Y-17872190D02*
X8985710Y-17843619D01*
X8985710Y-17843619D02*
X8995234Y-17824571D01*
X8995234Y-17824571D02*
X9004758Y-17796000D01*
X9004758Y-17796000D02*
X9014282Y-17748381D01*
X9014282Y-17748381D02*
X9014282Y-17710286D01*
X9014282Y-17710286D02*
X9004758Y-17662666D01*
X9004758Y-17662666D02*
X8995234Y-17634095D01*
X8995234Y-17634095D02*
X8985710Y-17615047D01*
X8985710Y-17615047D02*
X8966663Y-17586476D01*
X8966663Y-17586476D02*
X8957139Y-17576952D01*
X3975469Y-18047711D02*
X3975469Y-17906288D01*
X3834046Y-17906288D01*
X3834046Y-18047711D01*
X3975469Y-18047711D01*
X4233329Y-17869524D02*
X4357138Y-17869524D01*
X4357138Y-17869524D02*
X4290472Y-17945714D01*
X4290472Y-17945714D02*
X4319043Y-17945714D01*
X4319043Y-17945714D02*
X4338091Y-17955238D01*
X4338091Y-17955238D02*
X4347614Y-17964762D01*
X4347614Y-17964762D02*
X4357138Y-17983809D01*
X4357138Y-17983809D02*
X4357138Y-18031428D01*
X4357138Y-18031428D02*
X4347614Y-18050476D01*
X4347614Y-18050476D02*
X4338091Y-18060000D01*
X4338091Y-18060000D02*
X4319043Y-18069524D01*
X4319043Y-18069524D02*
X4261900Y-18069524D01*
X4261900Y-18069524D02*
X4242853Y-18060000D01*
X4242853Y-18060000D02*
X4233329Y-18050476D01*
X4442853Y-18050476D02*
X4452376Y-18060000D01*
X4452376Y-18060000D02*
X4442853Y-18069524D01*
X4442853Y-18069524D02*
X4433329Y-18060000D01*
X4433329Y-18060000D02*
X4442853Y-18050476D01*
X4442853Y-18050476D02*
X4442853Y-18069524D01*
X4642853Y-18069524D02*
X4528567Y-18069524D01*
X4585710Y-18069524D02*
X4585710Y-17869524D01*
X4585710Y-17869524D02*
X4566662Y-17898095D01*
X4566662Y-17898095D02*
X4547614Y-17917143D01*
X4547614Y-17917143D02*
X4528567Y-17926666D01*
X4709519Y-17869524D02*
X4842853Y-17869524D01*
X4842853Y-17869524D02*
X4757138Y-18069524D01*
X5014281Y-17869524D02*
X4919043Y-17869524D01*
X4919043Y-17869524D02*
X4909519Y-17964762D01*
X4909519Y-17964762D02*
X4919043Y-17955238D01*
X4919043Y-17955238D02*
X4938091Y-17945714D01*
X4938091Y-17945714D02*
X4985710Y-17945714D01*
X4985710Y-17945714D02*
X5004757Y-17955238D01*
X5004757Y-17955238D02*
X5014281Y-17964762D01*
X5014281Y-17964762D02*
X5023805Y-17983809D01*
X5023805Y-17983809D02*
X5023805Y-18031428D01*
X5023805Y-18031428D02*
X5014281Y-18050476D01*
X5014281Y-18050476D02*
X5004757Y-18060000D01*
X5004757Y-18060000D02*
X4985710Y-18069524D01*
X4985710Y-18069524D02*
X4938091Y-18069524D01*
X4938091Y-18069524D02*
X4919043Y-18060000D01*
X4919043Y-18060000D02*
X4909519Y-18050476D01*
X5109519Y-18069524D02*
X5109519Y-17936190D01*
X5109519Y-17955238D02*
X5119043Y-17945714D01*
X5119043Y-17945714D02*
X5138091Y-17936190D01*
X5138091Y-17936190D02*
X5166662Y-17936190D01*
X5166662Y-17936190D02*
X5185710Y-17945714D01*
X5185710Y-17945714D02*
X5195234Y-17964762D01*
X5195234Y-17964762D02*
X5195234Y-18069524D01*
X5195234Y-17964762D02*
X5204757Y-17945714D01*
X5204757Y-17945714D02*
X5223805Y-17936190D01*
X5223805Y-17936190D02*
X5252376Y-17936190D01*
X5252376Y-17936190D02*
X5271424Y-17945714D01*
X5271424Y-17945714D02*
X5280948Y-17964762D01*
X5280948Y-17964762D02*
X5280948Y-18069524D01*
X5376186Y-18069524D02*
X5376186Y-17936190D01*
X5376186Y-17955238D02*
X5385710Y-17945714D01*
X5385710Y-17945714D02*
X5404757Y-17936190D01*
X5404757Y-17936190D02*
X5433329Y-17936190D01*
X5433329Y-17936190D02*
X5452376Y-17945714D01*
X5452376Y-17945714D02*
X5461900Y-17964762D01*
X5461900Y-17964762D02*
X5461900Y-18069524D01*
X5461900Y-17964762D02*
X5471424Y-17945714D01*
X5471424Y-17945714D02*
X5490472Y-17936190D01*
X5490472Y-17936190D02*
X5519043Y-17936190D01*
X5519043Y-17936190D02*
X5538091Y-17945714D01*
X5538091Y-17945714D02*
X5547615Y-17964762D01*
X5547615Y-17964762D02*
X5547615Y-18069524D01*
X5938091Y-17860000D02*
X5766662Y-18117143D01*
X6195234Y-17869524D02*
X6214281Y-17869524D01*
X6214281Y-17869524D02*
X6233329Y-17879047D01*
X6233329Y-17879047D02*
X6242853Y-17888571D01*
X6242853Y-17888571D02*
X6252376Y-17907619D01*
X6252376Y-17907619D02*
X6261900Y-17945714D01*
X6261900Y-17945714D02*
X6261900Y-17993333D01*
X6261900Y-17993333D02*
X6252376Y-18031428D01*
X6252376Y-18031428D02*
X6242853Y-18050476D01*
X6242853Y-18050476D02*
X6233329Y-18060000D01*
X6233329Y-18060000D02*
X6214281Y-18069524D01*
X6214281Y-18069524D02*
X6195234Y-18069524D01*
X6195234Y-18069524D02*
X6176186Y-18060000D01*
X6176186Y-18060000D02*
X6166662Y-18050476D01*
X6166662Y-18050476D02*
X6157138Y-18031428D01*
X6157138Y-18031428D02*
X6147615Y-17993333D01*
X6147615Y-17993333D02*
X6147615Y-17945714D01*
X6147615Y-17945714D02*
X6157138Y-17907619D01*
X6157138Y-17907619D02*
X6166662Y-17888571D01*
X6166662Y-17888571D02*
X6176186Y-17879047D01*
X6176186Y-17879047D02*
X6195234Y-17869524D01*
X6347615Y-18050476D02*
X6357138Y-18060000D01*
X6357138Y-18060000D02*
X6347615Y-18069524D01*
X6347615Y-18069524D02*
X6338091Y-18060000D01*
X6338091Y-18060000D02*
X6347615Y-18050476D01*
X6347615Y-18050476D02*
X6347615Y-18069524D01*
X6547615Y-18069524D02*
X6433329Y-18069524D01*
X6490472Y-18069524D02*
X6490472Y-17869524D01*
X6490472Y-17869524D02*
X6471424Y-17898095D01*
X6471424Y-17898095D02*
X6452376Y-17917143D01*
X6452376Y-17917143D02*
X6433329Y-17926666D01*
X6623805Y-17888571D02*
X6633329Y-17879047D01*
X6633329Y-17879047D02*
X6652376Y-17869524D01*
X6652376Y-17869524D02*
X6699996Y-17869524D01*
X6699996Y-17869524D02*
X6719043Y-17879047D01*
X6719043Y-17879047D02*
X6728567Y-17888571D01*
X6728567Y-17888571D02*
X6738091Y-17907619D01*
X6738091Y-17907619D02*
X6738091Y-17926666D01*
X6738091Y-17926666D02*
X6728567Y-17955238D01*
X6728567Y-17955238D02*
X6614281Y-18069524D01*
X6614281Y-18069524D02*
X6738091Y-18069524D01*
X6919043Y-17869524D02*
X6823805Y-17869524D01*
X6823805Y-17869524D02*
X6814281Y-17964762D01*
X6814281Y-17964762D02*
X6823805Y-17955238D01*
X6823805Y-17955238D02*
X6842853Y-17945714D01*
X6842853Y-17945714D02*
X6890472Y-17945714D01*
X6890472Y-17945714D02*
X6909519Y-17955238D01*
X6909519Y-17955238D02*
X6919043Y-17964762D01*
X6919043Y-17964762D02*
X6928567Y-17983809D01*
X6928567Y-17983809D02*
X6928567Y-18031428D01*
X6928567Y-18031428D02*
X6919043Y-18050476D01*
X6919043Y-18050476D02*
X6909519Y-18060000D01*
X6909519Y-18060000D02*
X6890472Y-18069524D01*
X6890472Y-18069524D02*
X6842853Y-18069524D01*
X6842853Y-18069524D02*
X6823805Y-18060000D01*
X6823805Y-18060000D02*
X6814281Y-18050476D01*
X7052376Y-17869524D02*
X7071424Y-17869524D01*
X7071424Y-17869524D02*
X7090472Y-17879047D01*
X7090472Y-17879047D02*
X7099996Y-17888571D01*
X7099996Y-17888571D02*
X7109519Y-17907619D01*
X7109519Y-17907619D02*
X7119043Y-17945714D01*
X7119043Y-17945714D02*
X7119043Y-17993333D01*
X7119043Y-17993333D02*
X7109519Y-18031428D01*
X7109519Y-18031428D02*
X7099996Y-18050476D01*
X7099996Y-18050476D02*
X7090472Y-18060000D01*
X7090472Y-18060000D02*
X7071424Y-18069524D01*
X7071424Y-18069524D02*
X7052376Y-18069524D01*
X7052376Y-18069524D02*
X7033329Y-18060000D01*
X7033329Y-18060000D02*
X7023805Y-18050476D01*
X7023805Y-18050476D02*
X7014281Y-18031428D01*
X7014281Y-18031428D02*
X7004757Y-17993333D01*
X7004757Y-17993333D02*
X7004757Y-17945714D01*
X7004757Y-17945714D02*
X7014281Y-17907619D01*
X7014281Y-17907619D02*
X7023805Y-17888571D01*
X7023805Y-17888571D02*
X7033329Y-17879047D01*
X7033329Y-17879047D02*
X7052376Y-17869524D01*
X7195234Y-17869524D02*
X7195234Y-17907619D01*
X7271424Y-17869524D02*
X7271424Y-17907619D01*
X7566662Y-18145714D02*
X7557138Y-18136190D01*
X7557138Y-18136190D02*
X7538091Y-18107619D01*
X7538091Y-18107619D02*
X7528567Y-18088571D01*
X7528567Y-18088571D02*
X7519043Y-18060000D01*
X7519043Y-18060000D02*
X7509519Y-18012381D01*
X7509519Y-18012381D02*
X7509519Y-17974286D01*
X7509519Y-17974286D02*
X7519043Y-17926666D01*
X7519043Y-17926666D02*
X7528567Y-17898095D01*
X7528567Y-17898095D02*
X7538091Y-17879047D01*
X7538091Y-17879047D02*
X7557138Y-17850476D01*
X7557138Y-17850476D02*
X7566662Y-17840952D01*
X7728567Y-17936190D02*
X7728567Y-18069524D01*
X7680948Y-17860000D02*
X7633329Y-18002857D01*
X7633329Y-18002857D02*
X7757138Y-18002857D01*
X7985710Y-18069524D02*
X7985710Y-17869524D01*
X8071424Y-18069524D02*
X8071424Y-17964762D01*
X8071424Y-17964762D02*
X8061900Y-17945714D01*
X8061900Y-17945714D02*
X8042853Y-17936190D01*
X8042853Y-17936190D02*
X8014281Y-17936190D01*
X8014281Y-17936190D02*
X7995234Y-17945714D01*
X7995234Y-17945714D02*
X7985710Y-17955238D01*
X8195234Y-18069524D02*
X8176186Y-18060000D01*
X8176186Y-18060000D02*
X8166662Y-18050476D01*
X8166662Y-18050476D02*
X8157139Y-18031428D01*
X8157139Y-18031428D02*
X8157139Y-17974286D01*
X8157139Y-17974286D02*
X8166662Y-17955238D01*
X8166662Y-17955238D02*
X8176186Y-17945714D01*
X8176186Y-17945714D02*
X8195234Y-17936190D01*
X8195234Y-17936190D02*
X8223805Y-17936190D01*
X8223805Y-17936190D02*
X8242853Y-17945714D01*
X8242853Y-17945714D02*
X8252377Y-17955238D01*
X8252377Y-17955238D02*
X8261900Y-17974286D01*
X8261900Y-17974286D02*
X8261900Y-18031428D01*
X8261900Y-18031428D02*
X8252377Y-18050476D01*
X8252377Y-18050476D02*
X8242853Y-18060000D01*
X8242853Y-18060000D02*
X8223805Y-18069524D01*
X8223805Y-18069524D02*
X8195234Y-18069524D01*
X8376186Y-18069524D02*
X8357139Y-18060000D01*
X8357139Y-18060000D02*
X8347615Y-18040952D01*
X8347615Y-18040952D02*
X8347615Y-17869524D01*
X8528567Y-18060000D02*
X8509520Y-18069524D01*
X8509520Y-18069524D02*
X8471424Y-18069524D01*
X8471424Y-18069524D02*
X8452377Y-18060000D01*
X8452377Y-18060000D02*
X8442853Y-18040952D01*
X8442853Y-18040952D02*
X8442853Y-17964762D01*
X8442853Y-17964762D02*
X8452377Y-17945714D01*
X8452377Y-17945714D02*
X8471424Y-17936190D01*
X8471424Y-17936190D02*
X8509520Y-17936190D01*
X8509520Y-17936190D02*
X8528567Y-17945714D01*
X8528567Y-17945714D02*
X8538091Y-17964762D01*
X8538091Y-17964762D02*
X8538091Y-17983809D01*
X8538091Y-17983809D02*
X8442853Y-18002857D01*
X8614282Y-18060000D02*
X8633329Y-18069524D01*
X8633329Y-18069524D02*
X8671424Y-18069524D01*
X8671424Y-18069524D02*
X8690472Y-18060000D01*
X8690472Y-18060000D02*
X8699996Y-18040952D01*
X8699996Y-18040952D02*
X8699996Y-18031428D01*
X8699996Y-18031428D02*
X8690472Y-18012381D01*
X8690472Y-18012381D02*
X8671424Y-18002857D01*
X8671424Y-18002857D02*
X8642853Y-18002857D01*
X8642853Y-18002857D02*
X8623805Y-17993333D01*
X8623805Y-17993333D02*
X8614282Y-17974286D01*
X8614282Y-17974286D02*
X8614282Y-17964762D01*
X8614282Y-17964762D02*
X8623805Y-17945714D01*
X8623805Y-17945714D02*
X8642853Y-17936190D01*
X8642853Y-17936190D02*
X8671424Y-17936190D01*
X8671424Y-17936190D02*
X8690472Y-17945714D01*
X8766663Y-18145714D02*
X8776186Y-18136190D01*
X8776186Y-18136190D02*
X8795234Y-18107619D01*
X8795234Y-18107619D02*
X8804758Y-18088571D01*
X8804758Y-18088571D02*
X8814282Y-18060000D01*
X8814282Y-18060000D02*
X8823805Y-18012381D01*
X8823805Y-18012381D02*
X8823805Y-17974286D01*
X8823805Y-17974286D02*
X8814282Y-17926666D01*
X8814282Y-17926666D02*
X8804758Y-17898095D01*
X8804758Y-17898095D02*
X8795234Y-17879047D01*
X8795234Y-17879047D02*
X8776186Y-17850476D01*
X8776186Y-17850476D02*
X8766663Y-17840952D01*
M02*
