G04 #@! TF.GenerationSoftware,KiCad,Pcbnew,7.0.1*
G04 #@! TF.CreationDate,2023-06-21T18:56:17-04:00*
G04 #@! TF.ProjectId,payload-interface-board,7061796c-6f61-4642-9d69-6e7465726661,B*
G04 #@! TF.SameCoordinates,Original*
G04 #@! TF.FileFunction,Copper,L4,Bot*
G04 #@! TF.FilePolarity,Positive*
%FSLAX46Y46*%
G04 Gerber Fmt 4.6, Leading zero omitted, Abs format (unit mm)*
G04 Created by KiCad (PCBNEW 7.0.1) date 2023-06-21 18:56:17*
%MOMM*%
%LPD*%
G01*
G04 APERTURE LIST*
G04 Aperture macros list*
%AMRoundRect*
0 Rectangle with rounded corners*
0 $1 Rounding radius*
0 $2 $3 $4 $5 $6 $7 $8 $9 X,Y pos of 4 corners*
0 Add a 4 corners polygon primitive as box body*
4,1,4,$2,$3,$4,$5,$6,$7,$8,$9,$2,$3,0*
0 Add four circle primitives for the rounded corners*
1,1,$1+$1,$2,$3*
1,1,$1+$1,$4,$5*
1,1,$1+$1,$6,$7*
1,1,$1+$1,$8,$9*
0 Add four rect primitives between the rounded corners*
20,1,$1+$1,$2,$3,$4,$5,0*
20,1,$1+$1,$4,$5,$6,$7,0*
20,1,$1+$1,$6,$7,$8,$9,0*
20,1,$1+$1,$8,$9,$2,$3,0*%
%AMFreePoly0*
4,1,12,0.105238,2.379067,0.194454,2.319454,0.254067,2.230238,0.275000,2.125000,0.275000,-1.400000,-0.275000,-1.400000,-0.275000,2.125000,-0.254067,2.230238,-0.194454,2.319454,-0.105238,2.379067,0.000000,2.400000,0.105238,2.379067,0.105238,2.379067,$1*%
G04 Aperture macros list end*
G04 #@! TA.AperFunction,SMDPad,CuDef*
%ADD10FreePoly0,0.000000*%
G04 #@! TD*
G04 #@! TA.AperFunction,ComponentPad*
%ADD11C,2.000000*%
G04 #@! TD*
G04 #@! TA.AperFunction,ComponentPad*
%ADD12C,1.524000*%
G04 #@! TD*
G04 #@! TA.AperFunction,ComponentPad*
%ADD13C,5.080000*%
G04 #@! TD*
G04 #@! TA.AperFunction,SMDPad,CuDef*
%ADD14RoundRect,0.135000X-0.185000X0.135000X-0.185000X-0.135000X0.185000X-0.135000X0.185000X0.135000X0*%
G04 #@! TD*
G04 #@! TA.AperFunction,SMDPad,CuDef*
%ADD15RoundRect,0.135000X0.135000X0.185000X-0.135000X0.185000X-0.135000X-0.185000X0.135000X-0.185000X0*%
G04 #@! TD*
G04 #@! TA.AperFunction,SMDPad,CuDef*
%ADD16R,0.370000X1.000000*%
G04 #@! TD*
G04 #@! TA.AperFunction,SMDPad,CuDef*
%ADD17R,0.650000X0.400000*%
G04 #@! TD*
G04 #@! TA.AperFunction,ViaPad*
%ADD18C,0.609600*%
G04 #@! TD*
G04 #@! TA.AperFunction,Conductor*
%ADD19C,0.254000*%
G04 #@! TD*
G04 #@! TA.AperFunction,Conductor*
%ADD20C,0.250000*%
G04 #@! TD*
G04 #@! TA.AperFunction,Conductor*
%ADD21C,0.508000*%
G04 #@! TD*
G04 #@! TA.AperFunction,Profile*
%ADD22C,0.200000*%
G04 #@! TD*
G04 APERTURE END LIST*
D10*
X60033839Y-68787167D03*
X60833839Y-68787167D03*
X61633839Y-68787167D03*
X62433839Y-68787167D03*
X63233839Y-68787167D03*
X64033839Y-68787167D03*
X64833839Y-68787167D03*
X65633839Y-68787167D03*
X66433839Y-68787167D03*
X67233839Y-68787167D03*
X68033839Y-68787167D03*
X68833839Y-68787167D03*
X69633839Y-68787167D03*
X70433839Y-68787167D03*
X71233839Y-68787167D03*
X72033839Y-68787167D03*
X72833839Y-68787167D03*
X73633839Y-68787167D03*
X74433839Y-68787167D03*
X75233839Y-68787167D03*
X76033839Y-68787167D03*
X76833839Y-68787167D03*
X77633839Y-68787167D03*
X78433839Y-68787167D03*
X79233839Y-68787167D03*
X80033839Y-68787167D03*
X80833839Y-68787167D03*
X81633839Y-68787167D03*
X82433839Y-68787167D03*
X83233839Y-68787167D03*
X84033839Y-68787167D03*
X84833839Y-68787167D03*
X88833839Y-68787167D03*
X89633839Y-68787167D03*
X90433839Y-68787167D03*
X91233839Y-68787167D03*
X92033839Y-68787167D03*
X92833839Y-68787167D03*
X93633839Y-68787167D03*
X94433839Y-68787167D03*
X95233839Y-68787167D03*
X96033839Y-68787167D03*
X96833839Y-68787167D03*
X97633839Y-68787167D03*
X98433839Y-68787167D03*
X99233839Y-68787167D03*
X100033839Y-68787167D03*
X100833839Y-68787167D03*
X101633839Y-68787167D03*
X102433839Y-68787167D03*
X103233839Y-68787167D03*
X104033839Y-68787167D03*
X104833839Y-68787167D03*
X105633839Y-68787167D03*
X106433839Y-68787167D03*
X107233839Y-68787167D03*
X108033839Y-68787167D03*
X108833839Y-68787167D03*
X109633839Y-68787167D03*
X110433839Y-68787167D03*
D11*
X124714000Y-144780000D03*
X45974000Y-83566000D03*
X45974000Y-92202000D03*
D12*
X124714000Y-124714000D03*
D11*
X124714000Y-120396000D03*
X110998000Y-160782000D03*
X83121000Y-102616000D03*
X88201000Y-102616000D03*
X124714000Y-116078000D03*
X45974000Y-100838000D03*
X115316000Y-160782000D03*
X102362000Y-160782000D03*
D13*
X49022000Y-74549000D03*
X125222000Y-160274000D03*
D11*
X45974000Y-87884000D03*
D12*
X124714000Y-149098000D03*
D11*
X124714000Y-111760000D03*
X124714000Y-107442000D03*
D13*
X45212000Y-160274000D03*
D11*
X124714000Y-140462000D03*
X106680000Y-160782000D03*
D12*
X45974000Y-96520000D03*
D11*
X124714000Y-129286000D03*
D13*
X122682000Y-74549000D03*
D14*
X49149000Y-69086000D03*
X49149000Y-70106000D03*
D15*
X55120000Y-67056000D03*
X54100000Y-67056000D03*
X51564000Y-67056000D03*
X50544000Y-67056000D03*
D16*
X48809000Y-65405000D03*
X46949000Y-65405000D03*
D17*
X53401000Y-68946000D03*
X53401000Y-69596000D03*
X53401000Y-70246000D03*
X51501000Y-70246000D03*
X51501000Y-69596000D03*
X51501000Y-68946000D03*
D15*
X48008000Y-67056000D03*
X46988000Y-67056000D03*
D14*
X55245000Y-69467000D03*
X55245000Y-70487000D03*
D16*
X52365000Y-65405000D03*
X50505000Y-65405000D03*
X55921000Y-65405000D03*
X54061000Y-65405000D03*
D18*
X54991000Y-71120000D03*
X64008000Y-72390000D03*
X48011492Y-70104000D03*
X113284000Y-152654000D03*
X104033820Y-71374000D03*
X80772000Y-93472000D03*
X93218000Y-94030000D03*
X87884000Y-77724000D03*
X67564000Y-87426000D03*
X72390000Y-105918000D03*
X74930000Y-106680000D03*
X73633839Y-72283834D03*
X82042000Y-78232000D03*
X112014000Y-105664000D03*
X90678000Y-78232000D03*
X50800000Y-108204000D03*
X49022000Y-82550000D03*
X99568000Y-114808000D03*
X125222000Y-152400000D03*
X119522000Y-83185999D03*
X78486000Y-77724000D03*
X113284000Y-157480000D03*
X112776000Y-153416000D03*
X92964000Y-78224000D03*
X116331999Y-86551000D03*
X114668000Y-74536000D03*
X74422000Y-105918000D03*
X95233839Y-72283834D03*
X91440000Y-93472000D03*
X68326000Y-113284000D03*
X54102000Y-68326000D03*
X88138000Y-94030000D03*
X120904000Y-113538000D03*
X49974721Y-68903212D03*
X84328000Y-77674000D03*
X46736000Y-109474000D03*
X104033820Y-72283820D03*
X118222000Y-82042000D03*
X99568000Y-113538000D03*
X90424000Y-93472000D03*
X113538000Y-121920000D03*
X73908517Y-106687743D03*
X114554000Y-157480000D03*
X89633839Y-72283834D03*
X95233839Y-71374014D03*
X94234000Y-90043500D03*
X72898000Y-106680000D03*
X82550000Y-93472000D03*
X115950500Y-95758000D03*
X86106000Y-77674000D03*
X83566000Y-93472000D03*
X84836000Y-90170000D03*
X91233839Y-72283834D03*
X116586000Y-118110000D03*
X73406000Y-105918000D03*
X73633839Y-71374014D03*
X114300000Y-95758000D03*
X113284000Y-154178000D03*
X119522000Y-78232000D03*
X118222000Y-86867999D03*
X112268000Y-157480000D03*
X110998000Y-122174000D03*
X113792000Y-153416000D03*
X112268000Y-154178000D03*
X89633839Y-71374014D03*
X52070000Y-70739000D03*
X91233839Y-71374014D03*
X116332000Y-81725000D03*
X103632000Y-131206000D03*
X86614000Y-94030000D03*
X94742000Y-94030000D03*
X45212000Y-151892000D03*
X76200000Y-94030000D03*
X66040000Y-100584000D03*
X66040000Y-103632000D03*
X66040000Y-98552000D03*
X66040000Y-102616000D03*
X66040000Y-101600000D03*
X83233820Y-71374000D03*
X66802000Y-98044000D03*
X66802000Y-99060000D03*
X83233820Y-72333820D03*
X66802000Y-102108000D03*
X66802000Y-104140000D03*
X83233820Y-73406000D03*
X66802000Y-101092000D03*
X66040000Y-99568000D03*
X66802000Y-103124000D03*
X66802000Y-100076000D03*
X98433839Y-71882000D03*
X100033839Y-74422000D03*
X98552000Y-76708000D03*
X70433839Y-73152000D03*
X81280000Y-99822000D03*
X96520000Y-99822000D03*
X100584000Y-90932000D03*
X88646000Y-90170000D03*
X68326000Y-74676000D03*
X99822000Y-80010000D03*
X101346000Y-81026000D03*
X67564000Y-75692000D03*
X65532000Y-72136000D03*
X102616000Y-131826000D03*
X99060000Y-77978000D03*
X114300000Y-140462000D03*
X107696000Y-139192000D03*
X108458000Y-138684000D03*
X107696000Y-140208000D03*
X93633839Y-71374014D03*
X107696000Y-141224000D03*
X108458000Y-140716000D03*
X107696000Y-143256000D03*
X108458000Y-142748000D03*
X93633839Y-72283834D03*
X107696000Y-142240000D03*
X107696000Y-137160000D03*
X107696000Y-138176000D03*
X108458000Y-139700000D03*
X108458000Y-137668000D03*
X108458000Y-141732000D03*
X76708000Y-72136000D03*
X97536000Y-72898000D03*
X84836000Y-94234000D03*
X53594000Y-74168000D03*
X118110000Y-88850000D03*
X121412000Y-83453000D03*
X120650000Y-118110000D03*
X113284000Y-83453000D03*
X48008000Y-66294000D03*
X78486000Y-80772000D03*
X121412000Y-78627000D03*
X84833820Y-71374000D03*
X122580900Y-93259000D03*
X113283999Y-78627000D03*
X87884000Y-80772000D03*
X84833820Y-72283820D03*
X109474000Y-122174000D03*
X77978000Y-94234000D03*
X119888000Y-88850000D03*
X114300000Y-92710000D03*
X45212000Y-109424000D03*
X49778290Y-66280714D03*
X46355000Y-70866000D03*
X56134000Y-74292500D03*
X102237500Y-82550000D03*
X113284000Y-144780000D03*
X109220000Y-145796000D03*
X66802000Y-76454000D03*
X67818000Y-101023874D03*
X70358000Y-105918000D03*
X106680000Y-140967023D03*
X101346000Y-135636000D03*
X86614000Y-87122000D03*
X88646000Y-81534000D03*
X55118000Y-65278000D03*
X95250000Y-75184000D03*
X53467000Y-72136000D03*
X103505000Y-75184000D03*
X79629000Y-75184000D03*
X68072000Y-71882000D03*
X71247000Y-73914000D03*
X51562000Y-66294000D03*
D19*
X65633839Y-68787167D02*
X65633839Y-70764161D01*
D20*
X55118000Y-70993000D02*
X55118000Y-70485000D01*
X54991000Y-71120000D02*
X55118000Y-70993000D01*
D19*
X65633839Y-70764161D02*
X64008000Y-72390000D01*
D20*
X48011492Y-70104000D02*
X49147000Y-70104000D01*
D21*
X73633839Y-68787167D02*
X73633839Y-71374014D01*
X73633839Y-71374014D02*
X73633839Y-72283834D01*
X95233839Y-72283834D02*
X95233839Y-71374014D01*
D20*
X53482000Y-68946000D02*
X54102000Y-68326000D01*
D21*
X91233839Y-68787167D02*
X91233839Y-71374014D01*
X104033820Y-68787153D02*
X104033820Y-71374000D01*
D20*
X51577000Y-70246000D02*
X52070000Y-70739000D01*
D21*
X89633839Y-72283834D02*
X89633839Y-71374014D01*
X104033820Y-72283820D02*
X104033820Y-71374000D01*
X91233839Y-72283834D02*
X91233839Y-71374014D01*
X89633839Y-68787167D02*
X89633839Y-71374014D01*
X95233839Y-68787167D02*
X95233839Y-71374014D01*
X83233820Y-68787153D02*
X83233820Y-71374000D01*
X83233820Y-72333820D02*
X83233820Y-71374000D01*
X83233820Y-68787153D02*
X83233820Y-72333820D01*
D19*
X98433839Y-71882000D02*
X98433839Y-68787167D01*
X100033839Y-74422000D02*
X100033839Y-68787167D01*
X98552000Y-76708000D02*
X82804000Y-76708000D01*
X73152000Y-74422000D02*
X70433839Y-71703839D01*
X80518000Y-74422000D02*
X73152000Y-74422000D01*
X82804000Y-76708000D02*
X80518000Y-74422000D01*
X70433839Y-71703839D02*
X70433839Y-68787167D01*
X65786000Y-81026000D02*
X45974000Y-100838000D01*
X70433839Y-73152000D02*
X68834000Y-73152000D01*
X65786000Y-76200000D02*
X65786000Y-81026000D01*
X68834000Y-73152000D02*
X65786000Y-76200000D01*
X96520000Y-99822000D02*
X81280000Y-99822000D01*
X89408000Y-90932000D02*
X88646000Y-90170000D01*
X100584000Y-90932000D02*
X89408000Y-90932000D01*
D20*
X72644000Y-78994000D02*
X68326000Y-74676000D01*
X99822000Y-80010000D02*
X98806000Y-78994000D01*
X98806000Y-78994000D02*
X72644000Y-78994000D01*
D19*
X71374000Y-79502000D02*
X96520000Y-79502000D01*
X67564000Y-75692000D02*
X71374000Y-79502000D01*
X66433839Y-68787167D02*
X66433839Y-71234161D01*
X66433839Y-71234161D02*
X65532000Y-72136000D01*
X98044000Y-81026000D02*
X101346000Y-81026000D01*
X96520000Y-79502000D02*
X98044000Y-81026000D01*
X65024000Y-75946000D02*
X68834000Y-72136000D01*
X68834000Y-71450322D02*
X68033839Y-70650161D01*
X53086000Y-92202000D02*
X65024000Y-80264000D01*
X65024000Y-80264000D02*
X65024000Y-75946000D01*
X45974000Y-92202000D02*
X53086000Y-92202000D01*
X68834000Y-72136000D02*
X68834000Y-71450322D01*
X68033839Y-70650161D02*
X68033839Y-68787167D01*
X71233839Y-71487839D02*
X71233839Y-68787167D01*
X105679000Y-131841000D02*
X102631000Y-131841000D01*
X114300000Y-140462000D02*
X105679000Y-131841000D01*
X73406000Y-73660000D02*
X71233839Y-71487839D01*
X80899000Y-73660000D02*
X73406000Y-73660000D01*
X102631000Y-131841000D02*
X102616000Y-131826000D01*
X83185000Y-75946000D02*
X80899000Y-73660000D01*
X99314000Y-75946000D02*
X83185000Y-75946000D01*
X99822000Y-77216000D02*
X99822000Y-76454000D01*
X99060000Y-77978000D02*
X99822000Y-77216000D01*
X99822000Y-76454000D02*
X99314000Y-75946000D01*
D21*
X93633839Y-72283834D02*
X93633839Y-71374014D01*
X93633839Y-68787167D02*
X93633839Y-71374014D01*
D19*
X76708000Y-72136000D02*
X77633831Y-71210169D01*
X77633831Y-71210169D02*
X77633831Y-68787155D01*
X97536000Y-72898000D02*
X96774000Y-72136000D01*
X96774000Y-72136000D02*
X96774000Y-68847006D01*
D20*
X53594000Y-73406000D02*
X53594000Y-74168000D01*
X48008000Y-66294000D02*
X48008000Y-67056000D01*
X47378492Y-70619492D02*
X47625000Y-70866000D01*
X47378492Y-67685508D02*
X47378492Y-70619492D01*
D21*
X84833820Y-72283820D02*
X84833820Y-71374000D01*
X84833820Y-68787153D02*
X84833820Y-71374000D01*
D20*
X47625000Y-70866000D02*
X51054000Y-70866000D01*
D21*
X84833820Y-72025180D02*
X84833820Y-68787153D01*
D20*
X51054000Y-70866000D02*
X53594000Y-73406000D01*
D19*
X77978000Y-94234000D02*
X84836000Y-94234000D01*
X78486000Y-80772000D02*
X87884000Y-80772000D01*
D20*
X48008000Y-67056000D02*
X47378492Y-67685508D01*
D19*
X102237500Y-82550000D02*
X98044000Y-82550000D01*
X55118000Y-67054000D02*
X56134000Y-68070000D01*
X70358000Y-80010000D02*
X66802000Y-76454000D01*
X109220000Y-145796000D02*
X110236000Y-144780000D01*
X98044000Y-82550000D02*
X95504000Y-80010000D01*
X110236000Y-144780000D02*
X113284000Y-144780000D01*
X95504000Y-80010000D02*
X70358000Y-80010000D01*
X56134000Y-74292500D02*
X56134000Y-68070000D01*
D20*
X55116000Y-69596000D02*
X53401000Y-69596000D01*
X52365000Y-69741400D02*
X52869600Y-70246000D01*
X52869600Y-70246000D02*
X53401000Y-70246000D01*
X52365000Y-65405000D02*
X52365000Y-69741400D01*
X49149000Y-69086000D02*
X49659000Y-69596000D01*
X49659000Y-69596000D02*
X51501000Y-69596000D01*
X50912000Y-68946000D02*
X51501000Y-68946000D01*
X48809000Y-66843000D02*
X50912000Y-68946000D01*
X48809000Y-65405000D02*
X48809000Y-66843000D01*
X70358000Y-103563874D02*
X70358000Y-105918000D01*
X67818000Y-101023874D02*
X70358000Y-103563874D01*
D19*
X101348977Y-135636000D02*
X106680000Y-140967023D01*
X101346000Y-135636000D02*
X101348977Y-135636000D01*
X88646000Y-81534000D02*
X86614000Y-83566000D01*
X86614000Y-83566000D02*
X86614000Y-87122000D01*
D20*
X50544000Y-67056000D02*
X50544000Y-65444000D01*
X46988000Y-67056000D02*
X46988000Y-65444000D01*
X55118000Y-65278000D02*
X55794000Y-65278000D01*
X55794000Y-65278000D02*
X55921000Y-65405000D01*
X54100000Y-67056000D02*
X54100000Y-65444000D01*
D19*
X51564000Y-67056000D02*
X51564000Y-66296000D01*
X71247000Y-73914000D02*
X72517000Y-75184000D01*
X51564000Y-66296000D02*
X51562000Y-66294000D01*
X53467000Y-72520698D02*
X53467000Y-72136000D01*
X55499000Y-74555526D02*
X55499000Y-74552698D01*
X103505000Y-75184000D02*
X95250000Y-75184000D01*
X56397026Y-74927500D02*
X55870974Y-74927500D01*
X72517000Y-75184000D02*
X79629000Y-75184000D01*
X55870974Y-74927500D02*
X55499000Y-74555526D01*
X65028500Y-74925500D02*
X56399026Y-74925500D01*
X55499000Y-74552698D02*
X53467000Y-72520698D01*
X68072000Y-71882000D02*
X65028500Y-74925500D01*
X56399026Y-74925500D02*
X56397026Y-74927500D01*
G04 #@! TA.AperFunction,Conductor*
G36*
X64355324Y-71875221D02*
G01*
X64522778Y-72042675D01*
X64526070Y-72049177D01*
X64524875Y-72056366D01*
X64294540Y-72497182D01*
X64288180Y-72502755D01*
X64279725Y-72502587D01*
X64011814Y-72392563D01*
X64007986Y-72390013D01*
X64005436Y-72386185D01*
X63895412Y-72118274D01*
X63895244Y-72109819D01*
X63900816Y-72103459D01*
X64341637Y-71873123D01*
X64348822Y-71871929D01*
X64355324Y-71875221D01*
G37*
G04 #@! TD.AperFunction*
G04 #@! TA.AperFunction,Conductor*
G36*
X65879324Y-71621221D02*
G01*
X66046778Y-71788675D01*
X66050070Y-71795177D01*
X66048875Y-71802366D01*
X65818540Y-72243182D01*
X65812180Y-72248755D01*
X65803725Y-72248587D01*
X65535814Y-72138563D01*
X65531986Y-72136013D01*
X65529436Y-72132185D01*
X65419412Y-71864274D01*
X65419244Y-71855819D01*
X65424816Y-71849459D01*
X65865637Y-71619123D01*
X65872822Y-71617929D01*
X65879324Y-71621221D01*
G37*
G04 #@! TD.AperFunction*
G04 #@! TA.AperFunction,Conductor*
G36*
X51734935Y-70223494D02*
G01*
X52057028Y-70390284D01*
X52177129Y-70452476D01*
X52182733Y-70458836D01*
X52182572Y-70467311D01*
X52072563Y-70735185D01*
X52070013Y-70739013D01*
X52066185Y-70741563D01*
X51798311Y-70851572D01*
X51789836Y-70851733D01*
X51783476Y-70846129D01*
X51587312Y-70467311D01*
X51554494Y-70403935D01*
X51553323Y-70396765D01*
X51556610Y-70390286D01*
X51721286Y-70225610D01*
X51727765Y-70222323D01*
X51734935Y-70223494D01*
G37*
G04 #@! TD.AperFunction*
G04 #@! TA.AperFunction,Conductor*
G36*
X85084976Y-70767490D02*
G01*
X85088714Y-70775128D01*
X85125290Y-71214040D01*
X85125330Y-71215012D01*
X85125330Y-71362382D01*
X85121917Y-71370642D01*
X85113668Y-71374081D01*
X85075924Y-71374205D01*
X84833858Y-71374999D01*
X84833782Y-71374999D01*
X84541694Y-71374041D01*
X84535582Y-71372294D01*
X84531285Y-71367609D01*
X84530072Y-71361371D01*
X84578926Y-70775128D01*
X84582664Y-70767490D01*
X84590586Y-70764400D01*
X85077054Y-70764400D01*
X85084976Y-70767490D01*
G37*
G04 #@! TD.AperFunction*
G04 #@! TA.AperFunction,Conductor*
G36*
X104284976Y-70767490D02*
G01*
X104288714Y-70775128D01*
X104337567Y-71361369D01*
X104336354Y-71367609D01*
X104332057Y-71372294D01*
X104325945Y-71374041D01*
X104033858Y-71374999D01*
X104033782Y-71374999D01*
X103741694Y-71374041D01*
X103735582Y-71372294D01*
X103731285Y-71367609D01*
X103730072Y-71361371D01*
X103778926Y-70775128D01*
X103782664Y-70767490D01*
X103790586Y-70764400D01*
X104277054Y-70764400D01*
X104284976Y-70767490D01*
G37*
G04 #@! TD.AperFunction*
G04 #@! TA.AperFunction,Conductor*
G36*
X95484995Y-71677324D02*
G01*
X95488733Y-71684962D01*
X95537586Y-72271203D01*
X95536373Y-72277443D01*
X95532076Y-72282128D01*
X95525964Y-72283875D01*
X95233877Y-72284833D01*
X95233801Y-72284833D01*
X94941713Y-72283875D01*
X94935601Y-72282128D01*
X94931304Y-72277443D01*
X94930091Y-72271205D01*
X94978945Y-71684962D01*
X94982683Y-71677324D01*
X94990605Y-71674234D01*
X95477073Y-71674234D01*
X95484995Y-71677324D01*
G37*
G04 #@! TD.AperFunction*
G04 #@! TA.AperFunction,Conductor*
G36*
X68612523Y-74568870D02*
G01*
X68841504Y-75011062D01*
X68842676Y-75018234D01*
X68839387Y-75024715D01*
X68674715Y-75189387D01*
X68668234Y-75192676D01*
X68661062Y-75191504D01*
X68218870Y-74962523D01*
X68213266Y-74956163D01*
X68213426Y-74947689D01*
X68323436Y-74679812D01*
X68325986Y-74675986D01*
X68329812Y-74673436D01*
X68597689Y-74563426D01*
X68606163Y-74563266D01*
X68612523Y-74568870D01*
G37*
G04 #@! TD.AperFunction*
G04 #@! TA.AperFunction,Conductor*
G36*
X113966363Y-139945123D02*
G01*
X114317055Y-140128366D01*
X114407182Y-140175459D01*
X114412755Y-140181819D01*
X114412587Y-140190274D01*
X114302563Y-140458185D01*
X114300013Y-140462013D01*
X114296185Y-140464563D01*
X114028274Y-140574587D01*
X114019819Y-140574755D01*
X114013459Y-140569182D01*
X113955461Y-140458185D01*
X113783123Y-140128363D01*
X113781929Y-140121177D01*
X113785219Y-140114677D01*
X113952677Y-139947219D01*
X113959177Y-139943929D01*
X113966363Y-139945123D01*
G37*
G04 #@! TD.AperFunction*
G04 #@! TA.AperFunction,Conductor*
G36*
X95525965Y-71373972D02*
G01*
X95532076Y-71375719D01*
X95536373Y-71380404D01*
X95537586Y-71386644D01*
X95488733Y-71972886D01*
X95484995Y-71980524D01*
X95477073Y-71983614D01*
X94990605Y-71983614D01*
X94982683Y-71980524D01*
X94978945Y-71972886D01*
X94930091Y-71386644D01*
X94931304Y-71380404D01*
X94935601Y-71375719D01*
X94941711Y-71373972D01*
X95233839Y-71373014D01*
X95525965Y-71373972D01*
G37*
G04 #@! TD.AperFunction*
G04 #@! TA.AperFunction,Conductor*
G36*
X48296619Y-69875924D02*
G01*
X48612935Y-69976408D01*
X48618835Y-69980651D01*
X48621092Y-69987559D01*
X48621092Y-70220441D01*
X48618835Y-70227349D01*
X48612935Y-70231591D01*
X48485850Y-70271962D01*
X48138342Y-70382354D01*
X48129883Y-70381820D01*
X48124004Y-70375713D01*
X48063795Y-70231592D01*
X48012375Y-70108509D01*
X48011472Y-70104000D01*
X48012376Y-70099490D01*
X48062023Y-69980651D01*
X48124005Y-69832284D01*
X48129883Y-69826179D01*
X48138342Y-69825645D01*
X48296619Y-69875924D01*
G37*
G04 #@! TD.AperFunction*
G04 #@! TA.AperFunction,Conductor*
G36*
X101227612Y-80748152D02*
G01*
X101233471Y-80754249D01*
X101345115Y-81021490D01*
X101346019Y-81026000D01*
X101345115Y-81030510D01*
X101233471Y-81297750D01*
X101227612Y-81303847D01*
X101219174Y-81304404D01*
X100744599Y-81155571D01*
X100738670Y-81151333D01*
X100736400Y-81144407D01*
X100736400Y-80907593D01*
X100738670Y-80900667D01*
X100744599Y-80896429D01*
X100873910Y-80855874D01*
X101219176Y-80747595D01*
X101227612Y-80748152D01*
G37*
G04 #@! TD.AperFunction*
G04 #@! TA.AperFunction,Conductor*
G36*
X109567324Y-145281221D02*
G01*
X109734778Y-145448675D01*
X109738070Y-145455177D01*
X109736875Y-145462366D01*
X109506540Y-145903182D01*
X109500180Y-145908755D01*
X109491725Y-145908587D01*
X109223814Y-145798563D01*
X109219986Y-145796013D01*
X109217436Y-145792185D01*
X109107412Y-145524274D01*
X109107244Y-145515819D01*
X109112816Y-145509459D01*
X109553637Y-145279123D01*
X109560822Y-145277929D01*
X109567324Y-145281221D01*
G37*
G04 #@! TD.AperFunction*
G04 #@! TA.AperFunction,Conductor*
G36*
X83484976Y-70767490D02*
G01*
X83488714Y-70775128D01*
X83537567Y-71361369D01*
X83536354Y-71367609D01*
X83532057Y-71372294D01*
X83525945Y-71374041D01*
X83233858Y-71374999D01*
X83233782Y-71374999D01*
X82941694Y-71374041D01*
X82935582Y-71372294D01*
X82931285Y-71367609D01*
X82930072Y-71361371D01*
X82978926Y-70775128D01*
X82982664Y-70767490D01*
X82990586Y-70764400D01*
X83477054Y-70764400D01*
X83484976Y-70767490D01*
G37*
G04 #@! TD.AperFunction*
G04 #@! TA.AperFunction,Conductor*
G36*
X83484976Y-71727310D02*
G01*
X83488714Y-71734948D01*
X83537567Y-72321189D01*
X83536354Y-72327429D01*
X83532057Y-72332114D01*
X83525945Y-72333861D01*
X83233858Y-72334819D01*
X83233782Y-72334819D01*
X82941694Y-72333861D01*
X82935582Y-72332114D01*
X82931285Y-72327429D01*
X82930072Y-72321191D01*
X82978926Y-71734948D01*
X82982664Y-71727310D01*
X82990586Y-71724220D01*
X83477054Y-71724220D01*
X83484976Y-71727310D01*
G37*
G04 #@! TD.AperFunction*
G04 #@! TA.AperFunction,Conductor*
G36*
X93884995Y-71677324D02*
G01*
X93888733Y-71684962D01*
X93937586Y-72271203D01*
X93936373Y-72277443D01*
X93932076Y-72282128D01*
X93925964Y-72283875D01*
X93633877Y-72284833D01*
X93633801Y-72284833D01*
X93341713Y-72283875D01*
X93335601Y-72282128D01*
X93331304Y-72277443D01*
X93330091Y-72271205D01*
X93378945Y-71684962D01*
X93382683Y-71677324D01*
X93390605Y-71674234D01*
X93877073Y-71674234D01*
X93884995Y-71677324D01*
G37*
G04 #@! TD.AperFunction*
G04 #@! TA.AperFunction,Conductor*
G36*
X103386612Y-74906152D02*
G01*
X103392471Y-74912249D01*
X103504115Y-75179489D01*
X103505019Y-75183999D01*
X103504115Y-75188509D01*
X103392471Y-75455750D01*
X103386612Y-75461847D01*
X103378174Y-75462404D01*
X102903599Y-75313571D01*
X102897670Y-75309333D01*
X102895400Y-75302407D01*
X102895400Y-75065593D01*
X102897670Y-75058667D01*
X102903599Y-75054429D01*
X103032910Y-75013874D01*
X103378176Y-74905595D01*
X103386612Y-74906152D01*
G37*
G04 #@! TD.AperFunction*
G04 #@! TA.AperFunction,Conductor*
G36*
X71533540Y-73806817D02*
G01*
X71589176Y-73913293D01*
X71736685Y-74195598D01*
X71763875Y-74247633D01*
X71765070Y-74254822D01*
X71761778Y-74261324D01*
X71594324Y-74428778D01*
X71587822Y-74432070D01*
X71580634Y-74430875D01*
X71360114Y-74315649D01*
X71139817Y-74200540D01*
X71134244Y-74194180D01*
X71134411Y-74185726D01*
X71244436Y-73917812D01*
X71246986Y-73913986D01*
X71250812Y-73911436D01*
X71518726Y-73801411D01*
X71527180Y-73801244D01*
X71533540Y-73806817D01*
G37*
G04 #@! TD.AperFunction*
G04 #@! TA.AperFunction,Conductor*
G36*
X85084976Y-71677310D02*
G01*
X85088714Y-71684948D01*
X85137567Y-72271189D01*
X85136354Y-72277429D01*
X85132057Y-72282114D01*
X85125945Y-72283861D01*
X84833858Y-72284819D01*
X84833782Y-72284819D01*
X84541694Y-72283861D01*
X84535582Y-72282114D01*
X84531285Y-72277429D01*
X84530072Y-72271191D01*
X84578926Y-71684948D01*
X84582664Y-71677310D01*
X84590586Y-71674220D01*
X85077054Y-71674220D01*
X85084976Y-71677310D01*
G37*
G04 #@! TD.AperFunction*
G04 #@! TA.AperFunction,Conductor*
G36*
X53758600Y-72135969D02*
G01*
X53764847Y-72137794D01*
X53769152Y-72142674D01*
X53770184Y-72149101D01*
X53716324Y-72585930D01*
X53712985Y-72592771D01*
X53546216Y-72759540D01*
X53540260Y-72762735D01*
X53533530Y-72762103D01*
X53528273Y-72757854D01*
X53413876Y-72589925D01*
X53256909Y-72359505D01*
X53254930Y-72351844D01*
X53258278Y-72344676D01*
X53462851Y-72138756D01*
X53466667Y-72136197D01*
X53471175Y-72135304D01*
X53758600Y-72135969D01*
G37*
G04 #@! TD.AperFunction*
G04 #@! TA.AperFunction,Conductor*
G36*
X91484995Y-71677324D02*
G01*
X91488733Y-71684962D01*
X91537586Y-72271203D01*
X91536373Y-72277443D01*
X91532076Y-72282128D01*
X91525964Y-72283875D01*
X91233877Y-72284833D01*
X91233801Y-72284833D01*
X90941713Y-72283875D01*
X90935601Y-72282128D01*
X90931304Y-72277443D01*
X90930091Y-72271205D01*
X90978945Y-71684962D01*
X90982683Y-71677324D01*
X90990605Y-71674234D01*
X91477073Y-71674234D01*
X91484995Y-71677324D01*
G37*
G04 #@! TD.AperFunction*
G04 #@! TA.AperFunction,Conductor*
G36*
X104284976Y-71677310D02*
G01*
X104288714Y-71684948D01*
X104337567Y-72271189D01*
X104336354Y-72277429D01*
X104332057Y-72282114D01*
X104325945Y-72283861D01*
X104033858Y-72284819D01*
X104033782Y-72284819D01*
X103741694Y-72283861D01*
X103735582Y-72282114D01*
X103731285Y-72277429D01*
X103730072Y-72271191D01*
X103778926Y-71684948D01*
X103782664Y-71677310D01*
X103790586Y-71674220D01*
X104277054Y-71674220D01*
X104284976Y-71677310D01*
G37*
G04 #@! TD.AperFunction*
G04 #@! TA.AperFunction,Conductor*
G36*
X46367871Y-91283632D02*
G01*
X47967471Y-92071783D01*
X47972235Y-92076098D01*
X47974000Y-92082278D01*
X47974000Y-92321722D01*
X47972235Y-92327902D01*
X47967471Y-92332217D01*
X46367873Y-93120366D01*
X46361683Y-93121527D01*
X46355788Y-93119310D01*
X46351899Y-93114360D01*
X45974862Y-92206485D01*
X45973968Y-92202000D01*
X45974863Y-92197513D01*
X46351899Y-91289637D01*
X46355788Y-91284689D01*
X46361683Y-91282472D01*
X46367871Y-91283632D01*
G37*
G04 #@! TD.AperFunction*
G04 #@! TA.AperFunction,Conductor*
G36*
X87765612Y-80494152D02*
G01*
X87771471Y-80500249D01*
X87883115Y-80767489D01*
X87884019Y-80771999D01*
X87883115Y-80776509D01*
X87771471Y-81043750D01*
X87765612Y-81049847D01*
X87757174Y-81050404D01*
X87282599Y-80901571D01*
X87276670Y-80897333D01*
X87274400Y-80890407D01*
X87274400Y-80653593D01*
X87276670Y-80646667D01*
X87282599Y-80642429D01*
X87411910Y-80601874D01*
X87757176Y-80493595D01*
X87765612Y-80494152D01*
G37*
G04 #@! TD.AperFunction*
G04 #@! TA.AperFunction,Conductor*
G36*
X85113668Y-71373918D02*
G01*
X85121917Y-71377358D01*
X85125330Y-71385618D01*
X85125330Y-71532988D01*
X85125290Y-71533960D01*
X85088714Y-71972872D01*
X85084976Y-71980510D01*
X85077054Y-71983600D01*
X84590586Y-71983600D01*
X84582664Y-71980510D01*
X84578926Y-71972872D01*
X84530072Y-71386630D01*
X84531285Y-71380390D01*
X84535582Y-71375705D01*
X84541692Y-71373958D01*
X84833820Y-71373000D01*
X85113668Y-71373918D01*
G37*
G04 #@! TD.AperFunction*
G04 #@! TA.AperFunction,Conductor*
G36*
X73925965Y-71373972D02*
G01*
X73932076Y-71375719D01*
X73936373Y-71380404D01*
X73937586Y-71386644D01*
X73888733Y-71972886D01*
X73884995Y-71980524D01*
X73877073Y-71983614D01*
X73390605Y-71983614D01*
X73382683Y-71980524D01*
X73378945Y-71972886D01*
X73330091Y-71386644D01*
X73331304Y-71380404D01*
X73335601Y-71375719D01*
X73341711Y-71373972D01*
X73633839Y-71373014D01*
X73925965Y-71373972D01*
G37*
G04 #@! TD.AperFunction*
G04 #@! TA.AperFunction,Conductor*
G36*
X101632556Y-135528764D02*
G01*
X101864023Y-135967834D01*
X101865241Y-135975040D01*
X101861946Y-135981563D01*
X101694490Y-136149019D01*
X101688012Y-136152308D01*
X101680841Y-136151138D01*
X101502261Y-136058763D01*
X101238876Y-135922521D01*
X101233269Y-135916162D01*
X101233429Y-135907684D01*
X101343436Y-135639814D01*
X101345986Y-135635986D01*
X101349812Y-135633436D01*
X101617763Y-135523396D01*
X101626196Y-135523221D01*
X101632556Y-135528764D01*
G37*
G04 #@! TD.AperFunction*
G04 #@! TA.AperFunction,Conductor*
G36*
X106346363Y-140450146D02*
G01*
X106697055Y-140633389D01*
X106787182Y-140680482D01*
X106792755Y-140686842D01*
X106792587Y-140695297D01*
X106682563Y-140963208D01*
X106680013Y-140967036D01*
X106676185Y-140969586D01*
X106408274Y-141079610D01*
X106399819Y-141079778D01*
X106393459Y-141074205D01*
X106335461Y-140963208D01*
X106163123Y-140633386D01*
X106161929Y-140626200D01*
X106165219Y-140619700D01*
X106332677Y-140452242D01*
X106339177Y-140448952D01*
X106346363Y-140450146D01*
G37*
G04 #@! TD.AperFunction*
G04 #@! TA.AperFunction,Conductor*
G36*
X89884995Y-71677324D02*
G01*
X89888733Y-71684962D01*
X89937586Y-72271203D01*
X89936373Y-72277443D01*
X89932076Y-72282128D01*
X89925964Y-72283875D01*
X89633877Y-72284833D01*
X89633801Y-72284833D01*
X89341713Y-72283875D01*
X89335601Y-72282128D01*
X89331304Y-72277443D01*
X89330091Y-72271205D01*
X89378945Y-71684962D01*
X89382683Y-71677324D01*
X89390605Y-71674234D01*
X89877073Y-71674234D01*
X89884995Y-71677324D01*
G37*
G04 #@! TD.AperFunction*
G04 #@! TA.AperFunction,Conductor*
G36*
X93925965Y-71373972D02*
G01*
X93932076Y-71375719D01*
X93936373Y-71380404D01*
X93937586Y-71386644D01*
X93888733Y-71972886D01*
X93884995Y-71980524D01*
X93877073Y-71983614D01*
X93390605Y-71983614D01*
X93382683Y-71980524D01*
X93378945Y-71972886D01*
X93330091Y-71386644D01*
X93331304Y-71380404D01*
X93335601Y-71375719D01*
X93341711Y-71373972D01*
X93633839Y-71373014D01*
X93925965Y-71373972D01*
G37*
G04 #@! TD.AperFunction*
G04 #@! TA.AperFunction,Conductor*
G36*
X88374274Y-81421412D02*
G01*
X88642185Y-81531436D01*
X88646013Y-81533986D01*
X88648563Y-81537814D01*
X88758587Y-81805725D01*
X88758755Y-81814180D01*
X88753182Y-81820540D01*
X88312366Y-82050875D01*
X88305177Y-82052070D01*
X88298675Y-82048778D01*
X88131221Y-81881324D01*
X88127929Y-81874822D01*
X88129123Y-81867637D01*
X88359459Y-81426816D01*
X88365819Y-81421244D01*
X88374274Y-81421412D01*
G37*
G04 #@! TD.AperFunction*
G04 #@! TA.AperFunction,Conductor*
G36*
X84717612Y-93956152D02*
G01*
X84723471Y-93962249D01*
X84835115Y-94229490D01*
X84836019Y-94234000D01*
X84835115Y-94238510D01*
X84723471Y-94505750D01*
X84717612Y-94511847D01*
X84709174Y-94512404D01*
X84234599Y-94363571D01*
X84228670Y-94359333D01*
X84226400Y-94352407D01*
X84226400Y-94115593D01*
X84228670Y-94108667D01*
X84234599Y-94104429D01*
X84363910Y-94063874D01*
X84709176Y-93955595D01*
X84717612Y-93956152D01*
G37*
G04 #@! TD.AperFunction*
G04 #@! TA.AperFunction,Conductor*
G36*
X53717349Y-73560657D02*
G01*
X53721592Y-73566558D01*
X53872354Y-74041149D01*
X53871820Y-74049608D01*
X53865713Y-74055487D01*
X53598510Y-74167115D01*
X53594000Y-74168019D01*
X53589490Y-74167115D01*
X53322286Y-74055487D01*
X53316179Y-74049608D01*
X53315645Y-74041149D01*
X53466408Y-73566558D01*
X53470651Y-73560657D01*
X53477559Y-73558400D01*
X53710441Y-73558400D01*
X53717349Y-73560657D01*
G37*
G04 #@! TD.AperFunction*
G04 #@! TA.AperFunction,Conductor*
G36*
X83484976Y-71727310D02*
G01*
X83488714Y-71734948D01*
X83537567Y-72321189D01*
X83536354Y-72327429D01*
X83532057Y-72332114D01*
X83525945Y-72333861D01*
X83233858Y-72334819D01*
X83233782Y-72334819D01*
X82941694Y-72333861D01*
X82935582Y-72332114D01*
X82931285Y-72327429D01*
X82930072Y-72321191D01*
X82978926Y-71734948D01*
X82982664Y-71727310D01*
X82990586Y-71724220D01*
X83477054Y-71724220D01*
X83484976Y-71727310D01*
G37*
G04 #@! TD.AperFunction*
G04 #@! TA.AperFunction,Conductor*
G36*
X104325946Y-71373958D02*
G01*
X104332057Y-71375705D01*
X104336354Y-71380390D01*
X104337567Y-71386630D01*
X104288714Y-71972872D01*
X104284976Y-71980510D01*
X104277054Y-71983600D01*
X103790586Y-71983600D01*
X103782664Y-71980510D01*
X103778926Y-71972872D01*
X103730072Y-71386630D01*
X103731285Y-71380390D01*
X103735582Y-71375705D01*
X103741692Y-71373958D01*
X104033820Y-71373000D01*
X104325946Y-71373958D01*
G37*
G04 #@! TD.AperFunction*
G04 #@! TA.AperFunction,Conductor*
G36*
X93884995Y-70767504D02*
G01*
X93888733Y-70775142D01*
X93937586Y-71361383D01*
X93936373Y-71367623D01*
X93932076Y-71372308D01*
X93925964Y-71374055D01*
X93633877Y-71375013D01*
X93633801Y-71375013D01*
X93341713Y-71374055D01*
X93335601Y-71372308D01*
X93331304Y-71367623D01*
X93330091Y-71361385D01*
X93378945Y-70775141D01*
X93382683Y-70767504D01*
X93390605Y-70764414D01*
X93877073Y-70764414D01*
X93884995Y-70767504D01*
G37*
G04 #@! TD.AperFunction*
G04 #@! TA.AperFunction,Conductor*
G36*
X48012509Y-66294883D02*
G01*
X48279713Y-66406512D01*
X48285820Y-66412391D01*
X48286354Y-66420850D01*
X48135592Y-66895442D01*
X48131349Y-66901343D01*
X48124441Y-66903600D01*
X47891559Y-66903600D01*
X47884651Y-66901343D01*
X47880408Y-66895442D01*
X47729645Y-66420850D01*
X47730179Y-66412391D01*
X47736284Y-66406513D01*
X48003490Y-66294883D01*
X48008000Y-66293980D01*
X48012509Y-66294883D01*
G37*
G04 #@! TD.AperFunction*
G04 #@! TA.AperFunction,Conductor*
G36*
X100465612Y-90654152D02*
G01*
X100471471Y-90660249D01*
X100583115Y-90927489D01*
X100584019Y-90931999D01*
X100583115Y-90936509D01*
X100471471Y-91203750D01*
X100465612Y-91209847D01*
X100457174Y-91210404D01*
X99982599Y-91061571D01*
X99976670Y-91057333D01*
X99974400Y-91050407D01*
X99974400Y-90813593D01*
X99976670Y-90806667D01*
X99982599Y-90802429D01*
X100111910Y-90761874D01*
X100457176Y-90653595D01*
X100465612Y-90654152D01*
G37*
G04 #@! TD.AperFunction*
G04 #@! TA.AperFunction,Conductor*
G36*
X78909391Y-80586602D02*
G01*
X79087401Y-80642429D01*
X79093330Y-80646667D01*
X79095600Y-80653593D01*
X79095600Y-80890407D01*
X79093330Y-80897333D01*
X79087401Y-80901571D01*
X78612825Y-81050404D01*
X78604387Y-81049847D01*
X78598528Y-81043750D01*
X78486884Y-80776509D01*
X78485980Y-80771999D01*
X78486883Y-80767491D01*
X78598528Y-80500248D01*
X78604387Y-80494152D01*
X78612823Y-80493595D01*
X78909391Y-80586602D01*
G37*
G04 #@! TD.AperFunction*
G04 #@! TA.AperFunction,Conductor*
G36*
X55403127Y-65049924D02*
G01*
X55719443Y-65150408D01*
X55725343Y-65154651D01*
X55727600Y-65161559D01*
X55727600Y-65394441D01*
X55725343Y-65401349D01*
X55719443Y-65405591D01*
X55592358Y-65445962D01*
X55244850Y-65556354D01*
X55236391Y-65555820D01*
X55230512Y-65549713D01*
X55118884Y-65282509D01*
X55117980Y-65277999D01*
X55118883Y-65273491D01*
X55230513Y-65006284D01*
X55236391Y-65000179D01*
X55244850Y-64999645D01*
X55403127Y-65049924D01*
G37*
G04 #@! TD.AperFunction*
G04 #@! TA.AperFunction,Conductor*
G36*
X88932540Y-90062817D02*
G01*
X88988176Y-90169293D01*
X89135685Y-90451598D01*
X89162875Y-90503633D01*
X89164070Y-90510822D01*
X89160778Y-90517324D01*
X88993324Y-90684778D01*
X88986822Y-90688070D01*
X88979634Y-90686875D01*
X88759114Y-90571649D01*
X88538817Y-90456540D01*
X88533244Y-90450180D01*
X88533411Y-90441726D01*
X88643436Y-90173812D01*
X88645986Y-90169986D01*
X88649812Y-90167436D01*
X88917726Y-90057411D01*
X88926180Y-90057244D01*
X88932540Y-90062817D01*
G37*
G04 #@! TD.AperFunction*
G04 #@! TA.AperFunction,Conductor*
G36*
X68104523Y-100916744D02*
G01*
X68333504Y-101358936D01*
X68334676Y-101366108D01*
X68331387Y-101372589D01*
X68166715Y-101537261D01*
X68160234Y-101540550D01*
X68153062Y-101539378D01*
X67710870Y-101310397D01*
X67705266Y-101304037D01*
X67705426Y-101295563D01*
X67815436Y-101027686D01*
X67817986Y-101023860D01*
X67821812Y-101021310D01*
X68089689Y-100911300D01*
X68098163Y-100911140D01*
X68104523Y-100916744D01*
G37*
G04 #@! TD.AperFunction*
G04 #@! TA.AperFunction,Conductor*
G36*
X89925965Y-71373972D02*
G01*
X89932076Y-71375719D01*
X89936373Y-71380404D01*
X89937586Y-71386644D01*
X89888733Y-71972886D01*
X89884995Y-71980524D01*
X89877073Y-71983614D01*
X89390605Y-71983614D01*
X89382683Y-71980524D01*
X89378945Y-71972886D01*
X89330091Y-71386644D01*
X89331304Y-71380404D01*
X89335601Y-71375719D01*
X89341711Y-71373972D01*
X89633839Y-71373014D01*
X89925965Y-71373972D01*
G37*
G04 #@! TD.AperFunction*
G04 #@! TA.AperFunction,Conductor*
G36*
X98433612Y-76430152D02*
G01*
X98439471Y-76436249D01*
X98551115Y-76703490D01*
X98552019Y-76708000D01*
X98551115Y-76712510D01*
X98439471Y-76979750D01*
X98433612Y-76985847D01*
X98425174Y-76986404D01*
X97950599Y-76837571D01*
X97944670Y-76833333D01*
X97942400Y-76826407D01*
X97942400Y-76589593D01*
X97944670Y-76582667D01*
X97950599Y-76578429D01*
X98079910Y-76537874D01*
X98425176Y-76429595D01*
X98433612Y-76430152D01*
G37*
G04 #@! TD.AperFunction*
G04 #@! TA.AperFunction,Conductor*
G36*
X95484995Y-70767504D02*
G01*
X95488733Y-70775142D01*
X95537586Y-71361383D01*
X95536373Y-71367623D01*
X95532076Y-71372308D01*
X95525964Y-71374055D01*
X95233877Y-71375013D01*
X95233801Y-71375013D01*
X94941713Y-71374055D01*
X94935601Y-71372308D01*
X94931304Y-71367623D01*
X94930091Y-71361385D01*
X94978945Y-70775141D01*
X94982683Y-70767504D01*
X94990605Y-70764414D01*
X95477073Y-70764414D01*
X95484995Y-70767504D01*
G37*
G04 #@! TD.AperFunction*
G04 #@! TA.AperFunction,Conductor*
G36*
X73884995Y-71677324D02*
G01*
X73888733Y-71684962D01*
X73937586Y-72271203D01*
X73936373Y-72277443D01*
X73932076Y-72282128D01*
X73925964Y-72283875D01*
X73633877Y-72284833D01*
X73633801Y-72284833D01*
X73341713Y-72283875D01*
X73335601Y-72282128D01*
X73331304Y-72277443D01*
X73330091Y-72271205D01*
X73378945Y-71684962D01*
X73382683Y-71677324D01*
X73390605Y-71674234D01*
X73877073Y-71674234D01*
X73884995Y-71677324D01*
G37*
G04 #@! TD.AperFunction*
G04 #@! TA.AperFunction,Conductor*
G36*
X96401612Y-99544152D02*
G01*
X96407471Y-99550249D01*
X96519115Y-99817489D01*
X96520019Y-99821999D01*
X96519115Y-99826509D01*
X96407471Y-100093750D01*
X96401612Y-100099847D01*
X96393174Y-100100404D01*
X95918599Y-99951571D01*
X95912670Y-99947333D01*
X95910400Y-99940407D01*
X95910400Y-99703593D01*
X95912670Y-99696667D01*
X95918599Y-99692429D01*
X96047910Y-99651874D01*
X96393176Y-99543595D01*
X96401612Y-99544152D01*
G37*
G04 #@! TD.AperFunction*
G04 #@! TA.AperFunction,Conductor*
G36*
X99407324Y-77463221D02*
G01*
X99574778Y-77630675D01*
X99578070Y-77637177D01*
X99576875Y-77644366D01*
X99346540Y-78085182D01*
X99340180Y-78090755D01*
X99331725Y-78090587D01*
X99063814Y-77980563D01*
X99059986Y-77978013D01*
X99057436Y-77974185D01*
X98947412Y-77706274D01*
X98947244Y-77697819D01*
X98952816Y-77691459D01*
X99393637Y-77461123D01*
X99400822Y-77459929D01*
X99407324Y-77463221D01*
G37*
G04 #@! TD.AperFunction*
G04 #@! TA.AperFunction,Conductor*
G36*
X56259333Y-73685170D02*
G01*
X56263571Y-73691099D01*
X56412404Y-74165674D01*
X56411847Y-74174112D01*
X56405750Y-74179971D01*
X56138510Y-74291615D01*
X56134000Y-74292519D01*
X56129490Y-74291615D01*
X55862249Y-74179971D01*
X55856152Y-74174112D01*
X55855595Y-74165676D01*
X56004428Y-73691099D01*
X56008667Y-73685170D01*
X56015593Y-73682900D01*
X56252407Y-73682900D01*
X56259333Y-73685170D01*
G37*
G04 #@! TD.AperFunction*
G04 #@! TA.AperFunction,Conductor*
G36*
X89884995Y-70767504D02*
G01*
X89888733Y-70775142D01*
X89937586Y-71361383D01*
X89936373Y-71367623D01*
X89932076Y-71372308D01*
X89925964Y-71374055D01*
X89633877Y-71375013D01*
X89633801Y-71375013D01*
X89341713Y-71374055D01*
X89335601Y-71372308D01*
X89331304Y-71367623D01*
X89330091Y-71361385D01*
X89378945Y-70775141D01*
X89382683Y-70767504D01*
X89390605Y-70764414D01*
X89877073Y-70764414D01*
X89884995Y-70767504D01*
G37*
G04 #@! TD.AperFunction*
G04 #@! TA.AperFunction,Conductor*
G36*
X95673391Y-74998602D02*
G01*
X95851401Y-75054429D01*
X95857330Y-75058667D01*
X95859600Y-75065593D01*
X95859600Y-75302407D01*
X95857330Y-75309333D01*
X95851401Y-75313571D01*
X95376825Y-75462404D01*
X95368387Y-75461847D01*
X95362528Y-75455750D01*
X95250884Y-75188509D01*
X95249980Y-75183999D01*
X95250883Y-75179491D01*
X95362528Y-74912248D01*
X95368387Y-74906152D01*
X95376823Y-74905595D01*
X95673391Y-74998602D01*
G37*
G04 #@! TD.AperFunction*
G04 #@! TA.AperFunction,Conductor*
G36*
X77055324Y-71621221D02*
G01*
X77222778Y-71788675D01*
X77226070Y-71795177D01*
X77224875Y-71802366D01*
X76994540Y-72243182D01*
X76988180Y-72248755D01*
X76979725Y-72248587D01*
X76711814Y-72138563D01*
X76707986Y-72136013D01*
X76705436Y-72132185D01*
X76595412Y-71864274D01*
X76595244Y-71855819D01*
X76600816Y-71849459D01*
X77041637Y-71619123D01*
X77048822Y-71617929D01*
X77055324Y-71621221D01*
G37*
G04 #@! TD.AperFunction*
G04 #@! TA.AperFunction,Conductor*
G36*
X78401391Y-94048602D02*
G01*
X78579401Y-94104429D01*
X78585330Y-94108667D01*
X78587600Y-94115593D01*
X78587600Y-94352407D01*
X78585330Y-94359333D01*
X78579401Y-94363571D01*
X78104825Y-94512404D01*
X78096387Y-94511847D01*
X78090528Y-94505750D01*
X77978884Y-94238510D01*
X77977980Y-94234000D01*
X77978884Y-94229490D01*
X78090528Y-93962249D01*
X78096387Y-93956152D01*
X78104823Y-93955595D01*
X78401391Y-94048602D01*
G37*
G04 #@! TD.AperFunction*
G04 #@! TA.AperFunction,Conductor*
G36*
X70481349Y-105310657D02*
G01*
X70485592Y-105316558D01*
X70636354Y-105791149D01*
X70635820Y-105799608D01*
X70629713Y-105805487D01*
X70362509Y-105917115D01*
X70357999Y-105918019D01*
X70353489Y-105917115D01*
X70086286Y-105805487D01*
X70080179Y-105799608D01*
X70079645Y-105791149D01*
X70230408Y-105316558D01*
X70234651Y-105310657D01*
X70241559Y-105308400D01*
X70474441Y-105308400D01*
X70481349Y-105310657D01*
G37*
G04 #@! TD.AperFunction*
G04 #@! TA.AperFunction,Conductor*
G36*
X55240206Y-70543583D02*
G01*
X55243969Y-70551161D01*
X55294640Y-71107279D01*
X55293462Y-71113555D01*
X55289164Y-71118278D01*
X55283026Y-71120041D01*
X54993365Y-71120992D01*
X54988817Y-71120088D01*
X54722003Y-71008622D01*
X54716857Y-71004434D01*
X54714817Y-70998121D01*
X54716537Y-70991713D01*
X54989577Y-70546110D01*
X54993836Y-70542015D01*
X54999553Y-70540523D01*
X55232317Y-70540523D01*
X55240206Y-70543583D01*
G37*
G04 #@! TD.AperFunction*
G04 #@! TA.AperFunction,Conductor*
G36*
X100159172Y-73814670D02*
G01*
X100163410Y-73820599D01*
X100312243Y-74295174D01*
X100311686Y-74303612D01*
X100305589Y-74309471D01*
X100038349Y-74421115D01*
X100033839Y-74422019D01*
X100029329Y-74421115D01*
X99762088Y-74309471D01*
X99755991Y-74303612D01*
X99755434Y-74295176D01*
X99904267Y-73820599D01*
X99908506Y-73814670D01*
X99915432Y-73812400D01*
X100152246Y-73812400D01*
X100159172Y-73814670D01*
G37*
G04 #@! TD.AperFunction*
G04 #@! TA.AperFunction,Conductor*
G36*
X67800274Y-71769412D02*
G01*
X68068185Y-71879436D01*
X68072013Y-71881986D01*
X68074563Y-71885814D01*
X68184587Y-72153725D01*
X68184755Y-72162180D01*
X68179182Y-72168540D01*
X67738366Y-72398875D01*
X67731177Y-72400070D01*
X67724675Y-72396778D01*
X67557221Y-72229324D01*
X67553929Y-72222822D01*
X67555123Y-72215637D01*
X67785459Y-71774816D01*
X67791819Y-71769244D01*
X67800274Y-71769412D01*
G37*
G04 #@! TD.AperFunction*
G04 #@! TA.AperFunction,Conductor*
G36*
X53830310Y-68213426D02*
G01*
X54058225Y-68307025D01*
X54098185Y-68323436D01*
X54102013Y-68325986D01*
X54104563Y-68329814D01*
X54214572Y-68597688D01*
X54214733Y-68606163D01*
X54209129Y-68612523D01*
X53766937Y-68841504D01*
X53759765Y-68842676D01*
X53753284Y-68839387D01*
X53588612Y-68674715D01*
X53585323Y-68668234D01*
X53586494Y-68661064D01*
X53815476Y-68218869D01*
X53821836Y-68213266D01*
X53830310Y-68213426D01*
G37*
G04 #@! TD.AperFunction*
G04 #@! TA.AperFunction,Conductor*
G36*
X47303557Y-99339130D02*
G01*
X47472869Y-99508442D01*
X47475991Y-99514060D01*
X47475674Y-99520480D01*
X46901894Y-101208870D01*
X46898337Y-101214067D01*
X46892602Y-101216668D01*
X46886349Y-101215919D01*
X45977784Y-100840562D01*
X45973978Y-100838021D01*
X45971437Y-100834215D01*
X45596080Y-99925650D01*
X45595331Y-99919397D01*
X45597932Y-99913662D01*
X45603126Y-99910106D01*
X47291523Y-99336324D01*
X47297939Y-99336008D01*
X47303557Y-99339130D01*
G37*
G04 #@! TD.AperFunction*
G04 #@! TA.AperFunction,Conductor*
G36*
X91484995Y-70767504D02*
G01*
X91488733Y-70775142D01*
X91537586Y-71361383D01*
X91536373Y-71367623D01*
X91532076Y-71372308D01*
X91525964Y-71374055D01*
X91233877Y-71375013D01*
X91233801Y-71375013D01*
X90941713Y-71374055D01*
X90935601Y-71372308D01*
X90931304Y-71367623D01*
X90930091Y-71361385D01*
X90978945Y-70775141D01*
X90982683Y-70767504D01*
X90990605Y-70764414D01*
X91477073Y-70764414D01*
X91484995Y-70767504D01*
G37*
G04 #@! TD.AperFunction*
G04 #@! TA.AperFunction,Conductor*
G36*
X67088540Y-76346817D02*
G01*
X67144176Y-76453293D01*
X67291685Y-76735598D01*
X67318875Y-76787633D01*
X67320070Y-76794822D01*
X67316778Y-76801324D01*
X67149324Y-76968778D01*
X67142822Y-76972070D01*
X67135634Y-76970875D01*
X66915114Y-76855649D01*
X66694817Y-76740540D01*
X66689244Y-76734180D01*
X66689411Y-76725726D01*
X66799436Y-76457812D01*
X66801986Y-76453986D01*
X66805812Y-76451436D01*
X67073726Y-76341411D01*
X67082180Y-76341244D01*
X67088540Y-76346817D01*
G37*
G04 #@! TD.AperFunction*
G04 #@! TA.AperFunction,Conductor*
G36*
X79510612Y-74906152D02*
G01*
X79516471Y-74912249D01*
X79628115Y-75179489D01*
X79629019Y-75183999D01*
X79628115Y-75188509D01*
X79516471Y-75455750D01*
X79510612Y-75461847D01*
X79502174Y-75462404D01*
X79027599Y-75313571D01*
X79021670Y-75309333D01*
X79019400Y-75302407D01*
X79019400Y-75065593D01*
X79021670Y-75058667D01*
X79027599Y-75054429D01*
X79156910Y-75013874D01*
X79502176Y-74905595D01*
X79510612Y-74906152D01*
G37*
G04 #@! TD.AperFunction*
G04 #@! TA.AperFunction,Conductor*
G36*
X91525965Y-71373972D02*
G01*
X91532076Y-71375719D01*
X91536373Y-71380404D01*
X91537586Y-71386644D01*
X91488733Y-71972886D01*
X91484995Y-71980524D01*
X91477073Y-71983614D01*
X90990605Y-71983614D01*
X90982683Y-71980524D01*
X90978945Y-71972886D01*
X90930091Y-71386644D01*
X90931304Y-71380404D01*
X90935601Y-71375719D01*
X90941711Y-71373972D01*
X91233839Y-71373014D01*
X91525965Y-71373972D01*
G37*
G04 #@! TD.AperFunction*
G04 #@! TA.AperFunction,Conductor*
G36*
X73884995Y-70767504D02*
G01*
X73888733Y-70775142D01*
X73937586Y-71361383D01*
X73936373Y-71367623D01*
X73932076Y-71372308D01*
X73925964Y-71374055D01*
X73633877Y-71375013D01*
X73633801Y-71375013D01*
X73341713Y-71374055D01*
X73335601Y-71372308D01*
X73331304Y-71367623D01*
X73330091Y-71361385D01*
X73378945Y-70775141D01*
X73382683Y-70767504D01*
X73390605Y-70764414D01*
X73877073Y-70764414D01*
X73884995Y-70767504D01*
G37*
G04 #@! TD.AperFunction*
G04 #@! TA.AperFunction,Conductor*
G36*
X85084976Y-71677310D02*
G01*
X85088714Y-71684948D01*
X85137567Y-72271189D01*
X85136354Y-72277429D01*
X85132057Y-72282114D01*
X85125945Y-72283861D01*
X84833858Y-72284819D01*
X84833782Y-72284819D01*
X84541694Y-72283861D01*
X84535582Y-72282114D01*
X84531285Y-72277429D01*
X84530072Y-72271191D01*
X84578926Y-71684948D01*
X84582664Y-71677310D01*
X84590586Y-71674220D01*
X85077054Y-71674220D01*
X85084976Y-71677310D01*
G37*
G04 #@! TD.AperFunction*
G04 #@! TA.AperFunction,Conductor*
G36*
X51566510Y-66294884D02*
G01*
X51833784Y-66406542D01*
X51839873Y-66412383D01*
X51840450Y-66420800D01*
X51693552Y-66894964D01*
X51689318Y-66900920D01*
X51682376Y-66903202D01*
X51445557Y-66903202D01*
X51438650Y-66900946D01*
X51434407Y-66895047D01*
X51283648Y-66420852D01*
X51284181Y-66412391D01*
X51290286Y-66406512D01*
X51557490Y-66294883D01*
X51562000Y-66293980D01*
X51566510Y-66294884D01*
G37*
G04 #@! TD.AperFunction*
G04 #@! TA.AperFunction,Conductor*
G36*
X99486935Y-79494494D02*
G01*
X99809028Y-79661284D01*
X99929129Y-79723476D01*
X99934733Y-79729836D01*
X99934572Y-79738311D01*
X99824563Y-80006185D01*
X99822013Y-80010013D01*
X99818185Y-80012563D01*
X99550311Y-80122572D01*
X99541836Y-80122733D01*
X99535476Y-80117129D01*
X99339312Y-79738311D01*
X99306494Y-79674935D01*
X99305323Y-79667765D01*
X99308610Y-79661286D01*
X99473286Y-79496610D01*
X99479765Y-79493323D01*
X99486935Y-79494494D01*
G37*
G04 #@! TD.AperFunction*
G04 #@! TA.AperFunction,Conductor*
G36*
X113165612Y-144502152D02*
G01*
X113171471Y-144508249D01*
X113283115Y-144775490D01*
X113284019Y-144780000D01*
X113283115Y-144784510D01*
X113171471Y-145051750D01*
X113165612Y-145057847D01*
X113157174Y-145058404D01*
X112682599Y-144909571D01*
X112676670Y-144905333D01*
X112674400Y-144898407D01*
X112674400Y-144661593D01*
X112676670Y-144654667D01*
X112682599Y-144650429D01*
X112811910Y-144609874D01*
X113157176Y-144501595D01*
X113165612Y-144502152D01*
G37*
G04 #@! TD.AperFunction*
G04 #@! TA.AperFunction,Conductor*
G36*
X97202363Y-72381123D02*
G01*
X97553055Y-72564366D01*
X97643182Y-72611459D01*
X97648755Y-72617819D01*
X97648587Y-72626274D01*
X97538563Y-72894185D01*
X97536013Y-72898013D01*
X97532185Y-72900563D01*
X97264274Y-73010587D01*
X97255819Y-73010755D01*
X97249459Y-73005182D01*
X97191461Y-72894185D01*
X97019123Y-72564363D01*
X97017929Y-72557177D01*
X97021219Y-72550677D01*
X97188677Y-72383219D01*
X97195177Y-72379929D01*
X97202363Y-72381123D01*
G37*
G04 #@! TD.AperFunction*
G04 #@! TA.AperFunction,Conductor*
G36*
X98559172Y-71274670D02*
G01*
X98563410Y-71280599D01*
X98712243Y-71755174D01*
X98711686Y-71763612D01*
X98705589Y-71769471D01*
X98438349Y-71881115D01*
X98433839Y-71882019D01*
X98429329Y-71881115D01*
X98162088Y-71769471D01*
X98155991Y-71763612D01*
X98155434Y-71755176D01*
X98304267Y-71280599D01*
X98308506Y-71274670D01*
X98315432Y-71272400D01*
X98552246Y-71272400D01*
X98559172Y-71274670D01*
G37*
G04 #@! TD.AperFunction*
G04 #@! TA.AperFunction,Conductor*
G36*
X103214743Y-131711275D02*
G01*
X103220447Y-131715544D01*
X103222616Y-131722331D01*
X103222616Y-131959168D01*
X103220254Y-131966217D01*
X103214122Y-131970420D01*
X102742637Y-132104750D01*
X102734355Y-132104040D01*
X102728636Y-132098009D01*
X102616883Y-131830509D01*
X102615980Y-131826000D01*
X102616884Y-131821490D01*
X102658309Y-131722331D01*
X102728405Y-131554542D01*
X102734420Y-131548374D01*
X102743028Y-131547997D01*
X103214743Y-131711275D01*
G37*
G04 #@! TD.AperFunction*
G04 #@! TA.AperFunction,Conductor*
G36*
X81703391Y-99636602D02*
G01*
X81881401Y-99692429D01*
X81887330Y-99696667D01*
X81889600Y-99703593D01*
X81889600Y-99940407D01*
X81887330Y-99947333D01*
X81881401Y-99951571D01*
X81406825Y-100100404D01*
X81398387Y-100099847D01*
X81392528Y-100093750D01*
X81280884Y-99826509D01*
X81279980Y-99821999D01*
X81280883Y-99817491D01*
X81392528Y-99550248D01*
X81398387Y-99544152D01*
X81406823Y-99543595D01*
X81703391Y-99636602D01*
G37*
G04 #@! TD.AperFunction*
G04 #@! TA.AperFunction,Conductor*
G36*
X70315451Y-72874152D02*
G01*
X70321310Y-72880249D01*
X70432954Y-73147489D01*
X70433858Y-73151999D01*
X70432954Y-73156509D01*
X70321310Y-73423750D01*
X70315451Y-73429847D01*
X70307013Y-73430404D01*
X69832438Y-73281571D01*
X69826509Y-73277333D01*
X69824239Y-73270407D01*
X69824239Y-73033593D01*
X69826509Y-73026667D01*
X69832438Y-73022429D01*
X69961749Y-72981874D01*
X70307015Y-72873595D01*
X70315451Y-72874152D01*
G37*
G04 #@! TD.AperFunction*
G04 #@! TA.AperFunction,Conductor*
G36*
X102119112Y-82272152D02*
G01*
X102124971Y-82278249D01*
X102236615Y-82545490D01*
X102237519Y-82550000D01*
X102236615Y-82554510D01*
X102124971Y-82821750D01*
X102119112Y-82827847D01*
X102110674Y-82828404D01*
X101636099Y-82679571D01*
X101630170Y-82675333D01*
X101627900Y-82668407D01*
X101627900Y-82431593D01*
X101630170Y-82424667D01*
X101636099Y-82420429D01*
X101765410Y-82379874D01*
X102110676Y-82271595D01*
X102119112Y-82272152D01*
G37*
G04 #@! TD.AperFunction*
G04 #@! TA.AperFunction,Conductor*
G36*
X83525946Y-71373958D02*
G01*
X83532057Y-71375705D01*
X83536354Y-71380390D01*
X83537567Y-71386630D01*
X83488714Y-71972872D01*
X83484976Y-71980510D01*
X83477054Y-71983600D01*
X82990586Y-71983600D01*
X82982664Y-71980510D01*
X82978926Y-71972872D01*
X82930072Y-71386630D01*
X82931285Y-71380390D01*
X82935582Y-71375705D01*
X82941692Y-71373958D01*
X83233820Y-71373000D01*
X83525946Y-71373958D01*
G37*
G04 #@! TD.AperFunction*
G04 #@! TA.AperFunction,Conductor*
G36*
X67850540Y-75584817D02*
G01*
X67906176Y-75691293D01*
X68053685Y-75973598D01*
X68080875Y-76025633D01*
X68082070Y-76032822D01*
X68078778Y-76039324D01*
X67911324Y-76206778D01*
X67904822Y-76210070D01*
X67897634Y-76208875D01*
X67677114Y-76093649D01*
X67456817Y-75978540D01*
X67451244Y-75972180D01*
X67451411Y-75963726D01*
X67561436Y-75695812D01*
X67563986Y-75691986D01*
X67567812Y-75689436D01*
X67835726Y-75579411D01*
X67844180Y-75579244D01*
X67850540Y-75584817D01*
G37*
G04 #@! TD.AperFunction*
G04 #@! TA.AperFunction,Conductor*
G36*
X86739333Y-86514670D02*
G01*
X86743571Y-86520599D01*
X86892404Y-86995174D01*
X86891847Y-87003612D01*
X86885750Y-87009471D01*
X86618509Y-87121115D01*
X86613999Y-87122019D01*
X86609489Y-87121115D01*
X86342249Y-87009471D01*
X86336152Y-87003612D01*
X86335595Y-86995176D01*
X86484428Y-86520599D01*
X86488667Y-86514670D01*
X86495593Y-86512400D01*
X86732407Y-86512400D01*
X86739333Y-86514670D01*
G37*
G04 #@! TD.AperFunction*
D22*
X40150002Y-106498198D02*
G75*
G03*
X40912002Y-107260198I761998J-2D01*
G01*
X113333777Y-66287181D02*
X113333777Y-64205481D01*
X42055002Y-126792798D02*
X42055002Y-108022198D01*
X75024202Y-165350002D02*
G75*
G03*
X76218002Y-164156198I-2J1193802D01*
G01*
X51653814Y-64224163D02*
X56353749Y-64224163D01*
X40912002Y-107260198D02*
X41293002Y-107260198D01*
X129177002Y-107260198D02*
X129558002Y-107260198D01*
X129126202Y-165350002D02*
G75*
G03*
X130320002Y-164156198I-2J1193802D01*
G01*
X41250447Y-69707497D02*
X45250447Y-69707497D01*
X57133767Y-72337133D02*
G75*
G03*
X57708839Y-72912133I574933J-67D01*
G01*
X96538002Y-163622798D02*
G75*
G03*
X95344202Y-162428998I-1193802J-2D01*
G01*
X88033820Y-66387153D02*
X111333822Y-66387153D01*
X113333777Y-64205481D02*
X124165094Y-64205481D01*
X45250447Y-69707503D02*
G75*
G03*
X45733603Y-69224341I-47J483203D01*
G01*
X129558002Y-107260202D02*
G75*
G03*
X130320002Y-106498198I-2J762002D01*
G01*
X112533820Y-72962161D02*
X112758813Y-72962161D01*
X111333839Y-71762171D02*
G75*
G03*
X112533819Y-72962161I1199961J-29D01*
G01*
X129177002Y-107260202D02*
G75*
G03*
X128415002Y-108022198I-2J-761998D01*
G01*
X125217127Y-69707497D02*
X129217124Y-69707497D01*
X76218002Y-164156198D02*
X76218002Y-163622798D01*
X40150002Y-106498198D02*
X40150002Y-70807942D01*
X45733603Y-69224341D02*
X45733786Y-64799170D01*
X57933832Y-72912120D02*
G75*
G03*
X59133820Y-71712142I-32J1200020D01*
G01*
X130320000Y-70810375D02*
G75*
G03*
X129217124Y-69707500I-1102900J-25D01*
G01*
X40912002Y-127554802D02*
G75*
G03*
X40150002Y-128316798I-2J-761998D01*
G01*
X40912002Y-127554798D02*
X41293002Y-127554798D01*
X130320002Y-164156198D02*
X130320002Y-128316798D01*
X124733785Y-69224155D02*
X124733785Y-64774172D01*
X128415002Y-126792798D02*
X128415002Y-108022198D01*
X124733803Y-69224155D02*
G75*
G03*
X125217127Y-69707497I483297J-45D01*
G01*
X57133803Y-66237151D02*
X57133803Y-64224170D01*
X40149993Y-164079998D02*
X40150002Y-128316798D01*
X85633830Y-71762154D02*
X85633830Y-66387163D01*
X96538002Y-164156198D02*
G75*
G03*
X97731802Y-165349998I1193798J-2D01*
G01*
X97731802Y-165349998D02*
X129126202Y-165349998D01*
X129177002Y-127554798D02*
X129558002Y-127554798D01*
X59133820Y-66387150D02*
X85633820Y-66387153D01*
X112758813Y-72962113D02*
G75*
G03*
X113333813Y-72387164I87J574913D01*
G01*
X77411802Y-162428998D02*
X95344202Y-162428998D01*
X41293002Y-127554802D02*
G75*
G03*
X42055002Y-126792798I-2J762002D01*
G01*
X128415002Y-126792798D02*
G75*
G03*
X129177002Y-127554798I761998J-2D01*
G01*
X88033810Y-71762154D02*
X88033810Y-66387163D01*
X113333813Y-72387161D02*
X113333813Y-66287163D01*
X57133839Y-72337131D02*
X57133839Y-66237133D01*
X57708839Y-72912131D02*
X57933832Y-72912131D01*
X46308798Y-64224158D02*
X51653807Y-64224158D01*
X41250447Y-69707502D02*
G75*
G03*
X40150002Y-70807942I-47J-1100398D01*
G01*
X77411802Y-162429002D02*
G75*
G03*
X76218002Y-163622798I-2J-1193798D01*
G01*
X46308798Y-64224186D02*
G75*
G03*
X45733786Y-64799170I2J-575014D01*
G01*
X42055002Y-108022198D02*
G75*
G03*
X41293002Y-107260198I-762002J-2D01*
G01*
X41267602Y-165349995D02*
X75024202Y-165349998D01*
X40150003Y-164079998D02*
G75*
G03*
X41267602Y-165349998I1193797J-76202D01*
G01*
X85633790Y-71762154D02*
G75*
G03*
X88033810Y-71762170I1200010J-46D01*
G01*
X56353754Y-64224170D02*
X57133803Y-64224170D01*
X130320002Y-128316798D02*
G75*
G03*
X129558002Y-127554798I-762002J-2D01*
G01*
X59133820Y-71712123D02*
X59133820Y-66387153D01*
X111333832Y-71762154D02*
X111333832Y-66387163D01*
X96538002Y-164156198D02*
X96538002Y-163622798D01*
X124733719Y-64774172D02*
G75*
G03*
X124165094Y-64205481I-568619J72D01*
G01*
X130320002Y-106498198D02*
X130320002Y-70810375D01*
M02*
