G04 #@! TF.GenerationSoftware,KiCad,Pcbnew,7.0.1*
G04 #@! TF.CreationDate,2023-06-21T18:56:17-04:00*
G04 #@! TF.ProjectId,payload-interface-board,7061796c-6f61-4642-9d69-6e7465726661,B*
G04 #@! TF.SameCoordinates,Original*
G04 #@! TF.FileFunction,Profile,NP*
%FSLAX46Y46*%
G04 Gerber Fmt 4.6, Leading zero omitted, Abs format (unit mm)*
G04 Created by KiCad (PCBNEW 7.0.1) date 2023-06-21 18:56:17*
%MOMM*%
%LPD*%
G01*
G04 APERTURE LIST*
G04 #@! TA.AperFunction,Profile*
%ADD10C,0.200000*%
G04 #@! TD*
G04 APERTURE END LIST*
D10*
X40150002Y-106498198D02*
G75*
G03*
X40912002Y-107260198I761998J-2D01*
G01*
X113333777Y-66287181D02*
X113333777Y-64205481D01*
X42055002Y-126792798D02*
X42055002Y-108022198D01*
X75024202Y-165350002D02*
G75*
G03*
X76218002Y-164156198I-2J1193802D01*
G01*
X51653814Y-64224163D02*
X56353749Y-64224163D01*
X40912002Y-107260198D02*
X41293002Y-107260198D01*
X129177002Y-107260198D02*
X129558002Y-107260198D01*
X129126202Y-165350002D02*
G75*
G03*
X130320002Y-164156198I-2J1193802D01*
G01*
X41250447Y-69707497D02*
X45250447Y-69707497D01*
X57133767Y-72337133D02*
G75*
G03*
X57708839Y-72912133I574933J-67D01*
G01*
X96538002Y-163622798D02*
G75*
G03*
X95344202Y-162428998I-1193802J-2D01*
G01*
X88033820Y-66387153D02*
X111333822Y-66387153D01*
X113333777Y-64205481D02*
X124165094Y-64205481D01*
X45250447Y-69707503D02*
G75*
G03*
X45733603Y-69224341I-47J483203D01*
G01*
X129558002Y-107260202D02*
G75*
G03*
X130320002Y-106498198I-2J762002D01*
G01*
X112533820Y-72962161D02*
X112758813Y-72962161D01*
X111333839Y-71762171D02*
G75*
G03*
X112533819Y-72962161I1199961J-29D01*
G01*
X129177002Y-107260202D02*
G75*
G03*
X128415002Y-108022198I-2J-761998D01*
G01*
X125217127Y-69707497D02*
X129217124Y-69707497D01*
X76218002Y-164156198D02*
X76218002Y-163622798D01*
X40150002Y-106498198D02*
X40150002Y-70807942D01*
X45733603Y-69224341D02*
X45733786Y-64799170D01*
X57933832Y-72912120D02*
G75*
G03*
X59133820Y-71712142I-32J1200020D01*
G01*
X130320000Y-70810375D02*
G75*
G03*
X129217124Y-69707500I-1102900J-25D01*
G01*
X40912002Y-127554802D02*
G75*
G03*
X40150002Y-128316798I-2J-761998D01*
G01*
X40912002Y-127554798D02*
X41293002Y-127554798D01*
X130320002Y-164156198D02*
X130320002Y-128316798D01*
X124733785Y-69224155D02*
X124733785Y-64774172D01*
X128415002Y-126792798D02*
X128415002Y-108022198D01*
X124733803Y-69224155D02*
G75*
G03*
X125217127Y-69707497I483297J-45D01*
G01*
X57133803Y-66237151D02*
X57133803Y-64224170D01*
X40149993Y-164079998D02*
X40150002Y-128316798D01*
X85633830Y-71762154D02*
X85633830Y-66387163D01*
X96538002Y-164156198D02*
G75*
G03*
X97731802Y-165349998I1193798J-2D01*
G01*
X97731802Y-165349998D02*
X129126202Y-165349998D01*
X129177002Y-127554798D02*
X129558002Y-127554798D01*
X59133820Y-66387150D02*
X85633820Y-66387153D01*
X112758813Y-72962113D02*
G75*
G03*
X113333813Y-72387164I87J574913D01*
G01*
X77411802Y-162428998D02*
X95344202Y-162428998D01*
X41293002Y-127554802D02*
G75*
G03*
X42055002Y-126792798I-2J762002D01*
G01*
X128415002Y-126792798D02*
G75*
G03*
X129177002Y-127554798I761998J-2D01*
G01*
X88033810Y-71762154D02*
X88033810Y-66387163D01*
X113333813Y-72387161D02*
X113333813Y-66287163D01*
X57133839Y-72337131D02*
X57133839Y-66237133D01*
X57708839Y-72912131D02*
X57933832Y-72912131D01*
X46308798Y-64224158D02*
X51653807Y-64224158D01*
X41250447Y-69707502D02*
G75*
G03*
X40150002Y-70807942I-47J-1100398D01*
G01*
X77411802Y-162429002D02*
G75*
G03*
X76218002Y-163622798I-2J-1193798D01*
G01*
X46308798Y-64224186D02*
G75*
G03*
X45733786Y-64799170I2J-575014D01*
G01*
X42055002Y-108022198D02*
G75*
G03*
X41293002Y-107260198I-762002J-2D01*
G01*
X41267602Y-165349995D02*
X75024202Y-165349998D01*
X40150003Y-164079998D02*
G75*
G03*
X41267602Y-165349998I1193797J-76202D01*
G01*
X85633790Y-71762154D02*
G75*
G03*
X88033810Y-71762170I1200010J-46D01*
G01*
X56353754Y-64224170D02*
X57133803Y-64224170D01*
X130320002Y-128316798D02*
G75*
G03*
X129558002Y-127554798I-762002J-2D01*
G01*
X59133820Y-71712123D02*
X59133820Y-66387153D01*
X111333832Y-71762154D02*
X111333832Y-66387163D01*
X96538002Y-164156198D02*
X96538002Y-163622798D01*
X124733719Y-64774172D02*
G75*
G03*
X124165094Y-64205481I-568619J72D01*
G01*
X130320002Y-106498198D02*
X130320002Y-70810375D01*
M02*
