G04 #@! TF.GenerationSoftware,KiCad,Pcbnew,(6.0.5)*
G04 #@! TF.CreationDate,2022-06-17T13:42:06-04:00*
G04 #@! TF.ProjectId,FP Interface Card,46502049-6e74-4657-9266-616365204361,rev?*
G04 #@! TF.SameCoordinates,Original*
G04 #@! TF.FileFunction,Paste,Bot*
G04 #@! TF.FilePolarity,Positive*
%FSLAX46Y46*%
G04 Gerber Fmt 4.6, Leading zero omitted, Abs format (unit mm)*
G04 Created by KiCad (PCBNEW (6.0.5)) date 2022-06-17 13:42:06*
%MOMM*%
%LPD*%
G01*
G04 APERTURE LIST*
G04 Aperture macros list*
%AMRoundRect*
0 Rectangle with rounded corners*
0 $1 Rounding radius*
0 $2 $3 $4 $5 $6 $7 $8 $9 X,Y pos of 4 corners*
0 Add a 4 corners polygon primitive as box body*
4,1,4,$2,$3,$4,$5,$6,$7,$8,$9,$2,$3,0*
0 Add four circle primitives for the rounded corners*
1,1,$1+$1,$2,$3*
1,1,$1+$1,$4,$5*
1,1,$1+$1,$6,$7*
1,1,$1+$1,$8,$9*
0 Add four rect primitives between the rounded corners*
20,1,$1+$1,$2,$3,$4,$5,0*
20,1,$1+$1,$4,$5,$6,$7,0*
20,1,$1+$1,$6,$7,$8,$9,0*
20,1,$1+$1,$8,$9,$2,$3,0*%
G04 Aperture macros list end*
%ADD10R,0.400000X0.615800*%
%ADD11R,0.615800X0.400000*%
%ADD12R,3.350000X3.350000*%
%ADD13R,0.370000X1.000000*%
%ADD14RoundRect,0.140000X-0.170000X0.140000X-0.170000X-0.140000X0.170000X-0.140000X0.170000X0.140000X0*%
%ADD15R,0.450000X0.400000*%
%ADD16R,0.450000X0.500000*%
%ADD17RoundRect,0.135000X-0.135000X-0.185000X0.135000X-0.185000X0.135000X0.185000X-0.135000X0.185000X0*%
%ADD18RoundRect,0.135000X-0.185000X0.135000X-0.185000X-0.135000X0.185000X-0.135000X0.185000X0.135000X0*%
%ADD19RoundRect,0.135000X0.185000X-0.135000X0.185000X0.135000X-0.185000X0.135000X-0.185000X-0.135000X0*%
%ADD20RoundRect,0.140000X-0.140000X-0.170000X0.140000X-0.170000X0.140000X0.170000X-0.140000X0.170000X0*%
%ADD21RoundRect,0.140000X0.140000X0.170000X-0.140000X0.170000X-0.140000X-0.170000X0.140000X-0.170000X0*%
%ADD22RoundRect,0.225000X-0.225000X-0.250000X0.225000X-0.250000X0.225000X0.250000X-0.225000X0.250000X0*%
%ADD23RoundRect,0.150000X0.825000X0.150000X-0.825000X0.150000X-0.825000X-0.150000X0.825000X-0.150000X0*%
%ADD24RoundRect,0.225000X0.225000X0.250000X-0.225000X0.250000X-0.225000X-0.250000X0.225000X-0.250000X0*%
%ADD25RoundRect,0.150000X-0.512500X-0.150000X0.512500X-0.150000X0.512500X0.150000X-0.512500X0.150000X0*%
%ADD26RoundRect,0.250000X0.262500X0.450000X-0.262500X0.450000X-0.262500X-0.450000X0.262500X-0.450000X0*%
%ADD27R,2.025000X0.600000*%
%ADD28R,2.275000X0.800000*%
%ADD29RoundRect,0.150000X-0.725000X-0.150000X0.725000X-0.150000X0.725000X0.150000X-0.725000X0.150000X0*%
%ADD30RoundRect,0.225000X0.250000X-0.225000X0.250000X0.225000X-0.250000X0.225000X-0.250000X-0.225000X0*%
%ADD31RoundRect,0.250000X0.475000X-0.250000X0.475000X0.250000X-0.475000X0.250000X-0.475000X-0.250000X0*%
%ADD32RoundRect,0.250001X-0.374999X0.354999X-0.374999X-0.354999X0.374999X-0.354999X0.374999X0.354999X0*%
%ADD33RoundRect,0.100000X-0.100000X0.687500X-0.100000X-0.687500X0.100000X-0.687500X0.100000X0.687500X0*%
%ADD34RoundRect,0.200000X-0.275000X0.200000X-0.275000X-0.200000X0.275000X-0.200000X0.275000X0.200000X0*%
%ADD35RoundRect,0.200000X0.200000X0.275000X-0.200000X0.275000X-0.200000X-0.275000X0.200000X-0.275000X0*%
%ADD36R,1.100000X1.100000*%
%ADD37R,2.500000X1.800000*%
%ADD38R,0.750000X0.650000*%
%ADD39R,0.500000X0.250000*%
%ADD40RoundRect,0.250000X-0.255000X0.255000X-0.255000X-0.255000X0.255000X-0.255000X0.255000X0.255000X0*%
%ADD41RoundRect,0.062500X-0.062500X0.350000X-0.062500X-0.350000X0.062500X-0.350000X0.062500X0.350000X0*%
%ADD42RoundRect,0.062500X-0.350000X0.062500X-0.350000X-0.062500X0.350000X-0.062500X0.350000X0.062500X0*%
%ADD43RoundRect,0.200000X-0.200000X-0.275000X0.200000X-0.275000X0.200000X0.275000X-0.200000X0.275000X0*%
%ADD44RoundRect,0.200000X0.275000X-0.200000X0.275000X0.200000X-0.275000X0.200000X-0.275000X-0.200000X0*%
%ADD45RoundRect,0.225000X-0.250000X0.225000X-0.250000X-0.225000X0.250000X-0.225000X0.250000X0.225000X0*%
%ADD46RoundRect,0.250000X0.250000X0.475000X-0.250000X0.475000X-0.250000X-0.475000X0.250000X-0.475000X0*%
%ADD47RoundRect,0.150000X-0.587500X-0.150000X0.587500X-0.150000X0.587500X0.150000X-0.587500X0.150000X0*%
%ADD48RoundRect,0.250000X-0.250000X-0.475000X0.250000X-0.475000X0.250000X0.475000X-0.250000X0.475000X0*%
%ADD49RoundRect,0.150000X0.725000X0.150000X-0.725000X0.150000X-0.725000X-0.150000X0.725000X-0.150000X0*%
%ADD50RoundRect,0.150000X0.587500X0.150000X-0.587500X0.150000X-0.587500X-0.150000X0.587500X-0.150000X0*%
%ADD51RoundRect,0.150000X-0.150000X0.587500X-0.150000X-0.587500X0.150000X-0.587500X0.150000X0.587500X0*%
G04 APERTURE END LIST*
D10*
X60000208Y-91022501D03*
X60650208Y-91022501D03*
X61300208Y-91022501D03*
X61950208Y-91022501D03*
X62600208Y-91022501D03*
D11*
X63583108Y-92005401D03*
X63583108Y-92655401D03*
X63583108Y-93305401D03*
X63583108Y-93955401D03*
X63583108Y-94605401D03*
D10*
X62600208Y-95588301D03*
X61950208Y-95588301D03*
X61300208Y-95588301D03*
X60650208Y-95588301D03*
X60000208Y-95588301D03*
D11*
X59017308Y-94605401D03*
X59017308Y-93955401D03*
X59017308Y-93305401D03*
X59017308Y-92655401D03*
X59017308Y-92005401D03*
D12*
X61300208Y-93305401D03*
D13*
X49233781Y-64974280D03*
X47373781Y-64974280D03*
X53033773Y-64974280D03*
X51173773Y-64974280D03*
X56833791Y-64974280D03*
X54973791Y-64974280D03*
D14*
X126878300Y-70636000D03*
X126878300Y-71596000D03*
X127868900Y-70636000D03*
X127868900Y-71596000D03*
D15*
X48084000Y-66969400D03*
X48084000Y-66169400D03*
D16*
X49234000Y-66569400D03*
D15*
X51868600Y-66969400D03*
X51868600Y-66169400D03*
D16*
X53018600Y-66569400D03*
D15*
X55577000Y-66969400D03*
X55577000Y-66169400D03*
D16*
X56727000Y-66569400D03*
D17*
X48072800Y-68118800D03*
X49092800Y-68118800D03*
D18*
X125887700Y-70631400D03*
X125887700Y-71651400D03*
D19*
X47109600Y-67181000D03*
X47109600Y-66161000D03*
D17*
X51882800Y-68118800D03*
X52902800Y-68118800D03*
D19*
X50945000Y-67181000D03*
X50945000Y-66161000D03*
D18*
X55775800Y-68108800D03*
X55775800Y-69128800D03*
D19*
X54526400Y-69136800D03*
X54526400Y-68116800D03*
D20*
X118689400Y-71497000D03*
X119649400Y-71497000D03*
D21*
X117668200Y-71497000D03*
X116708200Y-71497000D03*
D22*
X83566000Y-117983000D03*
X85116000Y-117983000D03*
D23*
X68515000Y-110740000D03*
X68515000Y-112010000D03*
X68515000Y-113280000D03*
X68515000Y-114550000D03*
X63565000Y-114550000D03*
X63565000Y-113280000D03*
X63565000Y-112010000D03*
X63565000Y-110740000D03*
D24*
X73945000Y-98802000D03*
X72395000Y-98802000D03*
D25*
X82814700Y-83079400D03*
X82814700Y-82129400D03*
X82814700Y-81179400D03*
X85089700Y-81179400D03*
X85089700Y-83079400D03*
D26*
X82213500Y-107057000D03*
X80388500Y-107057000D03*
D27*
X89197500Y-109557000D03*
X89197500Y-108557000D03*
X89197500Y-107557000D03*
X89197500Y-106557000D03*
X89197500Y-105557000D03*
X89197500Y-104557000D03*
D28*
X92247500Y-110857000D03*
X92247500Y-103257000D03*
D24*
X66706000Y-98821000D03*
X65156000Y-98821000D03*
D29*
X100810000Y-157154000D03*
X100810000Y-155884000D03*
X100810000Y-154614000D03*
X100810000Y-153344000D03*
X105960000Y-153344000D03*
X105960000Y-154614000D03*
X105960000Y-155884000D03*
X105960000Y-157154000D03*
D30*
X70190200Y-82904400D03*
X70190200Y-81354400D03*
D31*
X50632200Y-105939400D03*
X50632200Y-104039400D03*
D32*
X82681200Y-89253400D03*
X81131200Y-90753400D03*
X82681200Y-90753400D03*
X81131200Y-89253400D03*
D33*
X79956200Y-87140900D03*
X80606200Y-87140900D03*
X81256200Y-87140900D03*
X81906200Y-87140900D03*
X82556200Y-87140900D03*
X83206200Y-87140900D03*
X83856200Y-87140900D03*
X83856200Y-92865900D03*
X83206200Y-92865900D03*
X82556200Y-92865900D03*
X81906200Y-92865900D03*
X81256200Y-92865900D03*
X80606200Y-92865900D03*
X79956200Y-92865900D03*
D30*
X80650200Y-82924400D03*
X80650200Y-81374400D03*
D22*
X83566000Y-116459000D03*
X85116000Y-116459000D03*
D34*
X80814000Y-156895000D03*
X80814000Y-158545000D03*
D24*
X79279000Y-98727000D03*
X77729000Y-98727000D03*
D35*
X51457200Y-115911400D03*
X49807200Y-115911400D03*
D36*
X74567000Y-104517000D03*
X77367000Y-104517000D03*
D34*
X103599000Y-145925000D03*
X103599000Y-147575000D03*
D30*
X56669800Y-115275600D03*
X56669800Y-113725600D03*
D22*
X75552000Y-116459000D03*
X77102000Y-116459000D03*
D34*
X90444000Y-157545000D03*
X90444000Y-159195000D03*
D37*
X64898000Y-156326000D03*
X68898000Y-156326000D03*
D38*
X65931000Y-102123000D03*
X65931000Y-101323000D03*
D39*
X66881000Y-100973000D03*
X66881000Y-101473000D03*
X66881000Y-101973000D03*
X66881000Y-102473000D03*
X64981000Y-102473000D03*
X64981000Y-101973000D03*
X64981000Y-101473000D03*
X64981000Y-100973000D03*
D25*
X58763100Y-115220200D03*
X58763100Y-114270200D03*
X58763100Y-113320200D03*
X61038100Y-113320200D03*
X61038100Y-115220200D03*
D40*
X49753200Y-109698400D03*
X49753200Y-110948400D03*
X51003200Y-109698400D03*
X51003200Y-110948400D03*
D41*
X49378200Y-108385900D03*
X49878200Y-108385900D03*
X50378200Y-108385900D03*
X50878200Y-108385900D03*
X51378200Y-108385900D03*
D42*
X52315700Y-109323400D03*
X52315700Y-109823400D03*
X52315700Y-110323400D03*
X52315700Y-110823400D03*
X52315700Y-111323400D03*
D41*
X51378200Y-112260900D03*
X50878200Y-112260900D03*
X50378200Y-112260900D03*
X49878200Y-112260900D03*
X49378200Y-112260900D03*
D42*
X48440700Y-111323400D03*
X48440700Y-110823400D03*
X48440700Y-110323400D03*
X48440700Y-109823400D03*
X48440700Y-109323400D03*
D43*
X54633200Y-95591400D03*
X56283200Y-95591400D03*
D26*
X67608500Y-107057000D03*
X65783500Y-107057000D03*
D30*
X68666200Y-82904400D03*
X68666200Y-81354400D03*
D44*
X55966200Y-107846400D03*
X55966200Y-106196400D03*
D34*
X58750000Y-109825000D03*
X58750000Y-111475000D03*
D30*
X62570200Y-79348400D03*
X62570200Y-77798400D03*
X54442200Y-111352400D03*
X54442200Y-109802400D03*
D45*
X81144200Y-95832400D03*
X81144200Y-97382400D03*
D46*
X79200000Y-96695000D03*
X77300000Y-96695000D03*
D24*
X60925600Y-116810200D03*
X59375600Y-116810200D03*
D46*
X48788200Y-103973400D03*
X46888200Y-103973400D03*
D47*
X83014700Y-79543400D03*
X83014700Y-77643400D03*
X84889700Y-78593400D03*
D36*
X80409000Y-104517000D03*
X83209000Y-104517000D03*
D30*
X62570200Y-82904400D03*
X62570200Y-81354400D03*
D22*
X49857200Y-114387400D03*
X51407200Y-114387400D03*
D30*
X87000200Y-82924400D03*
X87000200Y-81374400D03*
D43*
X54633200Y-94067400D03*
X56283200Y-94067400D03*
X54633200Y-92543400D03*
X56283200Y-92543400D03*
D26*
X76371500Y-107057000D03*
X74546500Y-107057000D03*
D36*
X67582000Y-104517000D03*
X70382000Y-104517000D03*
D46*
X66627000Y-97043000D03*
X64727000Y-97043000D03*
D35*
X101649000Y-145950000D03*
X99999000Y-145950000D03*
D24*
X48867200Y-106005400D03*
X47317200Y-106005400D03*
D30*
X70190200Y-79348400D03*
X70190200Y-77798400D03*
D45*
X54442200Y-106246400D03*
X54442200Y-107796400D03*
D43*
X54633200Y-91019400D03*
X56283200Y-91019400D03*
D23*
X77024000Y-110740000D03*
X77024000Y-112010000D03*
X77024000Y-113280000D03*
X77024000Y-114550000D03*
X72074000Y-114550000D03*
X72074000Y-113280000D03*
X72074000Y-112010000D03*
X72074000Y-110740000D03*
D47*
X72300700Y-79523400D03*
X72300700Y-77623400D03*
X74175700Y-78573400D03*
D30*
X80650200Y-79368400D03*
X80650200Y-77818400D03*
D35*
X105410000Y-150301000D03*
X103760000Y-150301000D03*
D48*
X58572200Y-86955400D03*
X60472200Y-86955400D03*
D34*
X88158000Y-157545000D03*
X88158000Y-159195000D03*
D22*
X63614000Y-117856000D03*
X65164000Y-117856000D03*
X63614000Y-116332000D03*
X65164000Y-116332000D03*
D30*
X76286200Y-82904400D03*
X76286200Y-81354400D03*
D49*
X77855000Y-155945000D03*
X77855000Y-157215000D03*
X77855000Y-158485000D03*
X77855000Y-159755000D03*
X72705000Y-159755000D03*
X72705000Y-158485000D03*
X72705000Y-157215000D03*
X72705000Y-155945000D03*
D25*
X72100700Y-83079400D03*
X72100700Y-82129400D03*
X72100700Y-81179400D03*
X74375700Y-81179400D03*
X74375700Y-83079400D03*
D50*
X85307500Y-157586000D03*
X85307500Y-159486000D03*
X83432500Y-158536000D03*
D30*
X46314200Y-110082400D03*
X46314200Y-108532400D03*
D47*
X64680700Y-79523400D03*
X64680700Y-77623400D03*
X66555700Y-78573400D03*
D51*
X99874000Y-148512500D03*
X101774000Y-148512500D03*
X100824000Y-150387500D03*
D38*
X73170000Y-102250000D03*
X73170000Y-101450000D03*
D39*
X74120000Y-101100000D03*
X74120000Y-101600000D03*
X74120000Y-102100000D03*
X74120000Y-102600000D03*
X72220000Y-102600000D03*
X72220000Y-102100000D03*
X72220000Y-101600000D03*
X72220000Y-101100000D03*
D45*
X82668200Y-95832400D03*
X82668200Y-97382400D03*
D32*
X69949200Y-90753400D03*
X69949200Y-89253400D03*
X68399200Y-89253400D03*
X68399200Y-90753400D03*
D33*
X67224200Y-87140900D03*
X67874200Y-87140900D03*
X68524200Y-87140900D03*
X69174200Y-87140900D03*
X69824200Y-87140900D03*
X70474200Y-87140900D03*
X71124200Y-87140900D03*
X71124200Y-92865900D03*
X70474200Y-92865900D03*
X69824200Y-92865900D03*
X69174200Y-92865900D03*
X68524200Y-92865900D03*
X67874200Y-92865900D03*
X67224200Y-92865900D03*
D31*
X52664200Y-105939400D03*
X52664200Y-104039400D03*
D46*
X73866000Y-97024000D03*
X71966000Y-97024000D03*
D45*
X68412200Y-95832400D03*
X68412200Y-97382400D03*
D23*
X85152000Y-110740000D03*
X85152000Y-112010000D03*
X85152000Y-113280000D03*
X85152000Y-114550000D03*
X80202000Y-114550000D03*
X80202000Y-113280000D03*
X80202000Y-112010000D03*
X80202000Y-110740000D03*
D45*
X69936200Y-95832400D03*
X69936200Y-97382400D03*
D24*
X68943000Y-159628000D03*
X67393000Y-159628000D03*
D38*
X78504000Y-101375000D03*
X78504000Y-102175000D03*
D39*
X79454000Y-101025000D03*
X79454000Y-101525000D03*
X79454000Y-102025000D03*
X79454000Y-102525000D03*
X77554000Y-102525000D03*
X77554000Y-102025000D03*
X77554000Y-101525000D03*
X77554000Y-101025000D03*
D22*
X58493200Y-88987400D03*
X60043200Y-88987400D03*
D25*
X64480700Y-83079400D03*
X64480700Y-82129400D03*
X64480700Y-81179400D03*
X66755700Y-81179400D03*
X66755700Y-83079400D03*
D34*
X55966200Y-109752400D03*
X55966200Y-111402400D03*
D22*
X75552000Y-118110000D03*
X77102000Y-118110000D03*
D31*
X44282200Y-110003400D03*
X44282200Y-108103400D03*
M02*
